M48
;DRILL file {KiCad 4.0.6+dfsg1-1} date Sat Nov  4 21:02:23 2017
;FORMAT={-:-/ absolute / metric / decimal}
FMAT,2
METRIC,TZ
T1C0.400
T2C0.700
T3C0.800
T4C0.813
T5C1.000
T6C1.016
T7C1.500
T8C1.700
T9C3.200
%
G90
G05
M71
T1
X103.759Y-64.008
X104.14Y-92.456
X104.267Y-109.982
X104.521Y-105.029
X104.648Y-51.435
X105.029Y-78.486
X105.41Y-81.28
X106.045Y-58.293
X106.68Y-111.506
X106.934Y-68.326
X107.569Y-50.292
X107.823Y-107.061
X107.95Y-96.012
X108.966Y-46.228
X109.982Y-110.871
X110.216Y-82.931
X110.216Y-84.032
X110.236Y-80.264
X111.633Y-99.314
X112.014Y-111.379
X113.284Y-101.6
X114.173Y-110.871
X114.3Y-72.771
X115.316Y-111.506
X115.443Y-107.442
X115.57Y-85.471
X115.697Y-80.391
X115.824Y-82.931
X116.423Y-87.031
X117.729Y-72.009
X120.015Y-89.408
X121.285Y-82.931
X121.412Y-45.339
X121.539Y-68.453
X121.666Y-73.406
X121.793Y-80.01
X121.92Y-81.28
X122.936Y-83.312
X123.039Y-98.449
X130.81Y-104.902
X131.445Y-85.471
X131.572Y-81.153
X131.826Y-87.884
X132.08Y-80.264
X132.207Y-49.403
X136.017Y-45.466
X136.144Y-50.292
X136.906Y-90.932
X138.176Y-84.709
X138.43Y-83.312
X138.43Y-89.535
X138.557Y-86.36
X138.938Y-48.895
X139.192Y-45.339
X140.97Y-100.203
X142.24Y-86.106
X142.875Y-103.124
X144.399Y-46.228
X144.399Y-48.133
X144.78Y-104.394
X145.415Y-97.917
X145.669Y-90.551
X146.05Y-50.927
X148.971Y-83.185
X148.971Y-86.106
X150.622Y-64.389
X151.257Y-86.741
X152.273Y-106.172
X152.654Y-87.122
X154.178Y-101.981
X156.591Y-97.917
X157.988Y-50.165
X159.131Y-95.484
X161.925Y-65.532
X162.814Y-54.61
X162.814Y-97.663
X162.941Y-96.012
X163.576Y-59.944
X165.862Y-108.204
X166.624Y-102.997
X169.672Y-55.626
X171.831Y-45.339
X171.958Y-48.514
X173.863Y-104.521
X174.752Y-111.633
X177.165Y-80.645
X178.054Y-99.568
X179.197Y-70.739
X179.324Y-67.691
X179.959Y-86.36
X180.34Y-70.739
X180.721Y-87.122
X181.483Y-67.897
X182.245Y-104.648
X182.372Y-86.487
X183.25Y-67.31
X183.261Y-62.357
X183.261Y-100.584
X183.388Y-79.883
X184.023Y-60.198
X184.277Y-70.739
X184.785Y-56.769
X185.293Y-109.728
X186.563Y-71.374
X186.817Y-63.881
X188.341Y-83.566
X188.468Y-78.105
X188.722Y-99.822
X188.722Y-108.966
X189.357Y-75.311
X189.611Y-94.107
X190.119Y-59.182
X190.246Y-62.484
X190.881Y-66.548
X190.881Y-72.009
X191.135Y-63.754
X191.389Y-57.023
X191.389Y-74.422
X192.151Y-68.707
X193.294Y-74.422
X193.421Y-64.389
X193.421Y-69.469
X195.199Y-85.471
X195.453Y-74.676
X195.834Y-63.754
X195.834Y-71.12
X196.342Y-67.31
X197.104Y-89.916
X197.231Y-83.312
X197.612Y-86.868
X197.866Y-98.806
X198.755Y-83.312
T2
X144.653Y-70.739
X155.702Y-70.485
X160.675Y-99.929
X162.052Y-68.453
X162.052Y-70.612
X162.115Y-73.85
X173.228Y-52.832
X175.26Y-65.278
X175.387Y-72.517
X181.864Y-49.911
X183.896Y-52.959
X186.817Y-66.548
T3
X110.998Y-85.471
X110.998Y-88.011
X110.998Y-90.551
X110.998Y-93.091
X118.618Y-85.471
X118.618Y-88.011
X118.618Y-90.551
X118.618Y-93.091
X127.127Y-85.471
X127.127Y-88.011
X127.127Y-90.551
X127.127Y-93.091
X134.747Y-85.471
X134.747Y-88.011
X134.747Y-90.551
X134.747Y-93.091
X176.149Y-84.836
X176.149Y-92.456
X178.689Y-84.836
X178.689Y-92.456
X181.229Y-84.836
X181.229Y-92.456
X183.769Y-84.836
X183.769Y-92.456
X193.294Y-66.675
X193.294Y-71.575
T4
X105.537Y-88.011
X105.537Y-95.631
X108.331Y-88.011
X108.331Y-90.551
X108.458Y-70.358
X108.458Y-77.978
X109.474Y-61.087
X109.474Y-66.167
X110.998Y-96.266
X113.538Y-96.266
X116.078Y-96.266
X118.618Y-61.087
X118.618Y-66.167
X118.618Y-96.266
X119.634Y-70.358
X119.634Y-77.978
X121.92Y-88.011
X121.92Y-95.631
X123.19Y-70.358
X123.19Y-77.978
X124.333Y-88.011
X124.333Y-90.551
X126.873Y-96.52
X127.254Y-60.96
X127.254Y-66.04
X129.413Y-96.52
X131.826Y-96.52
X134.366Y-70.358
X134.366Y-77.978
X134.366Y-96.52
X135.382Y-61.214
X135.382Y-66.294
X137.16Y-88.011
X137.16Y-95.631
X139.7Y-90.678
X139.7Y-98.298
X141.859Y-68.453
X141.859Y-70.993
X141.859Y-76.835
X141.859Y-79.375
X143.002Y-83.947
X143.002Y-89.027
X143.002Y-91.567
X143.002Y-99.187
X146.558Y-68.453
X146.558Y-79.375
X154.178Y-68.453
X154.178Y-79.375
X156.212Y-92.583
X157.099Y-83.693
X157.099Y-88.773
X157.353Y-55.245
X157.353Y-60.325
X159.131Y-68.453
X159.131Y-70.993
X159.131Y-76.835
X159.131Y-79.375
X159.512Y-62.484
X162.812Y-88.773
X164.338Y-75.438
X164.465Y-67.437
X167.132Y-62.484
X167.386Y-55.626
X167.386Y-58.166
X169.418Y-75.438
X169.545Y-67.437
X170.815Y-92.456
X170.815Y-100.076
X173.101Y-92.456
X173.101Y-100.076
X177.8Y-51.816
X177.8Y-59.436
X178.054Y-76.327
X180.594Y-51.816
X180.594Y-59.436
X180.594Y-76.327
X180.594Y-80.899
X187.579Y-47.879
X188.214Y-80.899
X192.659Y-47.879
X193.548Y-78.359
X193.548Y-80.899
X197.358Y-65.532
X197.358Y-73.152
T5
X105.791Y-85.344
X108.331Y-85.344
X121.793Y-84.963
X124.333Y-84.963
X132.969Y-106.974
X132.969Y-109.474
X135.469Y-106.974
X135.469Y-109.474
X137.969Y-106.974
X137.969Y-109.474
X188.595Y-64.897
X188.595Y-67.437
X188.595Y-70.612
X188.595Y-73.152
T6
X111.506Y-75.438
X116.586Y-75.438
X126.238Y-75.438
X131.318Y-75.438
X147.701Y-53.721
X147.701Y-58.801
X148.844Y-98.044
X148.844Y-103.124
X150.495Y-89.154
X150.495Y-94.234
T7
X105.779Y-108.712
X106.379Y-103.212
X110.779Y-103.212
X111.379Y-108.712
T8
X117.856Y-104.077
X117.856Y-108.077
X117.856Y-111.077
X122.056Y-102.577
T9
X104.775Y-46.736
X104.775Y-73.66
X147.701Y-111.379
X196.977Y-111.506
X197.104Y-46.736
T0
M30
