G04 #@! TF.FileFunction,Copper,L1,Top,Signal*
%FSLAX46Y46*%
G04 Gerber Fmt 4.6, Leading zero omitted, Abs format (unit mm)*
G04 Created by KiCad (PCBNEW 4.0.6+dfsg1-1) date Sat Nov  4 21:01:42 2017*
%MOMM*%
%LPD*%
G01*
G04 APERTURE LIST*
%ADD10C,0.100000*%
%ADD11C,4.500880*%
%ADD12R,0.450000X1.380000*%
%ADD13R,1.475000X2.100000*%
%ADD14R,2.375000X1.900000*%
%ADD15R,1.175000X1.900000*%
%ADD16C,1.397000*%
%ADD17R,0.450000X1.750000*%
%ADD18R,1.700000X1.700000*%
%ADD19O,1.700000X1.700000*%
%ADD20R,1.651000X1.651000*%
%ADD21C,1.651000*%
%ADD22R,1.778000X1.778000*%
%ADD23C,1.778000*%
%ADD24R,1.250000X1.500000*%
%ADD25R,0.800000X0.800000*%
%ADD26C,2.000000*%
%ADD27C,2.200000*%
%ADD28R,1.905000X1.905000*%
%ADD29C,1.905000*%
%ADD30C,1.800000*%
%ADD31R,1.600000X1.600000*%
%ADD32O,1.600000X1.600000*%
%ADD33C,1.500000*%
%ADD34R,0.900000X1.200000*%
%ADD35C,1.000000*%
%ADD36C,0.600000*%
%ADD37C,1.000000*%
%ADD38C,0.250000*%
%ADD39C,0.500000*%
%ADD40C,0.400000*%
%ADD41C,2.000000*%
%ADD42C,0.254000*%
G04 APERTURE END LIST*
D10*
D11*
X104775000Y-73660000D03*
X147701000Y-111379000D03*
X196977000Y-111506000D03*
X104775000Y-46736000D03*
D12*
X179100000Y-48066000D03*
X178450000Y-48066000D03*
X177800000Y-48066000D03*
X177150000Y-48066000D03*
X176500000Y-48066000D03*
D13*
X180262500Y-47706000D03*
X175337500Y-47706000D03*
D14*
X180710000Y-45406000D03*
X174890000Y-45406000D03*
D15*
X178640000Y-45406000D03*
X176960000Y-45406000D03*
D16*
X177800000Y-59436000D03*
X177800000Y-51816000D03*
X180594000Y-59436000D03*
X180594000Y-51816000D03*
D17*
X185200000Y-65488000D03*
X184550000Y-65488000D03*
X183900000Y-65488000D03*
X183250000Y-65488000D03*
X182600000Y-65488000D03*
X181950000Y-65488000D03*
X181300000Y-65488000D03*
X180650000Y-65488000D03*
X180000000Y-65488000D03*
X179350000Y-65488000D03*
X178700000Y-65488000D03*
X178050000Y-65488000D03*
X177400000Y-65488000D03*
X176750000Y-65488000D03*
X176750000Y-72688000D03*
X177400000Y-72688000D03*
X178050000Y-72688000D03*
X178700000Y-72688000D03*
X179350000Y-72688000D03*
X180000000Y-72688000D03*
X180650000Y-72688000D03*
X181300000Y-72688000D03*
X181950000Y-72688000D03*
X182600000Y-72688000D03*
X183250000Y-72688000D03*
X183900000Y-72688000D03*
X184550000Y-72688000D03*
X185200000Y-72688000D03*
D18*
X188595000Y-64897000D03*
D19*
X188595000Y-67437000D03*
D18*
X188595000Y-73152000D03*
D19*
X188595000Y-70612000D03*
D20*
X167386000Y-58166000D03*
D21*
X167386000Y-55626000D03*
D22*
X147701000Y-53721000D03*
D23*
X147701000Y-58801000D03*
D22*
X148844000Y-103124000D03*
D23*
X148844000Y-98044000D03*
D20*
X193548000Y-80899000D03*
D21*
X193548000Y-78359000D03*
D22*
X150495000Y-94234000D03*
D23*
X150495000Y-89154000D03*
D20*
X180594000Y-76327000D03*
D21*
X178054000Y-76327000D03*
D20*
X159131000Y-79375000D03*
D21*
X159131000Y-76835000D03*
D24*
X173228000Y-63647000D03*
X173228000Y-66147000D03*
X173228000Y-74656000D03*
X173228000Y-72156000D03*
D20*
X141859000Y-79375000D03*
D21*
X141859000Y-76835000D03*
D20*
X159131000Y-68453000D03*
D21*
X159131000Y-70993000D03*
D20*
X141859000Y-68453000D03*
D21*
X141859000Y-70993000D03*
D22*
X111506000Y-75438000D03*
D23*
X116586000Y-75438000D03*
D18*
X105791000Y-85344000D03*
D19*
X108331000Y-85344000D03*
D22*
X126238000Y-75438000D03*
D23*
X131318000Y-75438000D03*
D18*
X121793000Y-84963000D03*
D19*
X124333000Y-84963000D03*
D25*
X186474000Y-80772000D03*
X184874000Y-80772000D03*
D26*
X105779000Y-108712000D03*
X106379000Y-103212000D03*
X110779000Y-103212000D03*
X111379000Y-108712000D03*
D27*
X122056000Y-102577000D03*
X117856000Y-104077000D03*
X117856000Y-108077000D03*
X117856000Y-111077000D03*
D28*
X187579000Y-47879000D03*
D29*
X192659000Y-47879000D03*
D28*
X157353000Y-55245000D03*
D29*
X157353000Y-60325000D03*
D28*
X143002000Y-89027000D03*
D29*
X143002000Y-83947000D03*
D28*
X157099000Y-88773000D03*
D29*
X157099000Y-83693000D03*
D28*
X164465000Y-67437000D03*
D29*
X169545000Y-67437000D03*
D28*
X169418000Y-75438000D03*
D29*
X164338000Y-75438000D03*
D28*
X109474000Y-61087000D03*
D29*
X109474000Y-66167000D03*
D28*
X118618000Y-61087000D03*
D29*
X118618000Y-66167000D03*
D28*
X127254000Y-60960000D03*
D29*
X127254000Y-66040000D03*
D28*
X135382000Y-61214000D03*
D29*
X135382000Y-66294000D03*
D16*
X197358000Y-73152000D03*
X197358000Y-65532000D03*
X159512000Y-62484000D03*
X167132000Y-62484000D03*
X143002000Y-91567000D03*
X143002000Y-99187000D03*
X188214000Y-80899000D03*
X180594000Y-80899000D03*
X173101000Y-100076000D03*
X173101000Y-92456000D03*
X162811557Y-88773000D03*
X156212443Y-92583000D03*
X154178000Y-68453000D03*
X146558000Y-68453000D03*
X146558000Y-79375000D03*
X154178000Y-79375000D03*
X170815000Y-92456000D03*
X170815000Y-100076000D03*
X108458000Y-70358000D03*
X108458000Y-77978000D03*
X119634000Y-70358000D03*
X119634000Y-77978000D03*
X105537000Y-88011000D03*
X105537000Y-95631000D03*
X123190000Y-70358000D03*
X123190000Y-77978000D03*
X134366000Y-70358000D03*
X134366000Y-77978000D03*
X121920000Y-88011000D03*
X121920000Y-95631000D03*
X139700000Y-90678000D03*
X139700000Y-98298000D03*
X137160000Y-95631000D03*
X137160000Y-88011000D03*
D30*
X137969000Y-109474000D03*
X135469000Y-109474000D03*
X132969000Y-109474000D03*
X137969000Y-106974000D03*
X135469000Y-106974000D03*
X132969000Y-106974000D03*
D31*
X176149000Y-92456000D03*
D32*
X183769000Y-84836000D03*
X178689000Y-92456000D03*
X181229000Y-84836000D03*
X181229000Y-92456000D03*
X178689000Y-84836000D03*
X183769000Y-92456000D03*
X176149000Y-84836000D03*
D31*
X118618000Y-93091000D03*
D32*
X110998000Y-85471000D03*
X118618000Y-90551000D03*
X110998000Y-88011000D03*
X118618000Y-88011000D03*
X110998000Y-90551000D03*
X118618000Y-85471000D03*
X110998000Y-93091000D03*
D31*
X134747000Y-93091000D03*
D32*
X127127000Y-85471000D03*
X134747000Y-90551000D03*
X127127000Y-88011000D03*
X134747000Y-88011000D03*
X127127000Y-90551000D03*
X134747000Y-85471000D03*
X127127000Y-93091000D03*
D33*
X193294000Y-66675000D03*
X193294000Y-71575000D03*
D34*
X184531000Y-78189000D03*
X184531000Y-75989000D03*
X186563000Y-78189000D03*
X186563000Y-75989000D03*
D16*
X134366000Y-96520000D03*
X131826000Y-96520000D03*
X124333000Y-90551000D03*
X124333000Y-88011000D03*
X129413000Y-96520000D03*
X126873000Y-96520000D03*
X108331000Y-90551000D03*
X108331000Y-88011000D03*
X118618000Y-96266000D03*
X116078000Y-96266000D03*
X113538000Y-96266000D03*
X110998000Y-96266000D03*
D11*
X197104000Y-46736000D03*
D35*
X144653000Y-70739000D03*
X155702000Y-70485000D03*
D36*
X122936000Y-83312000D03*
X121793000Y-80010000D03*
X121920000Y-81280000D03*
X121285000Y-82931000D03*
X132080000Y-80264000D03*
X131572000Y-81153000D03*
X131826000Y-87884000D03*
X136906000Y-90932000D03*
X138430000Y-89535000D03*
X138176000Y-84709000D03*
X138557000Y-86360000D03*
X138430000Y-83312000D03*
X148971000Y-83185000D03*
X142240000Y-86106000D03*
X180721000Y-87122000D03*
X182372000Y-86487000D03*
X179959000Y-86360000D03*
X188341000Y-83566000D03*
X197612000Y-86868000D03*
X197104000Y-89916000D03*
X195199000Y-85471000D03*
X197231000Y-83312000D03*
X198755000Y-83312000D03*
X162814000Y-97663000D03*
X156591000Y-97917000D03*
X144780000Y-104394000D03*
X154178000Y-101981000D03*
X152273000Y-106172000D03*
X145415000Y-97917000D03*
X142875000Y-103124000D03*
X140970000Y-100203000D03*
X148971000Y-86106000D03*
X145669000Y-90551000D03*
X152654000Y-87122000D03*
X151257000Y-86741000D03*
X121539000Y-68453000D03*
X105029000Y-78486000D03*
X105410000Y-81280000D03*
X104140000Y-92456000D03*
X107950000Y-96012000D03*
X104521000Y-105029000D03*
X104267000Y-109982000D03*
X106680000Y-111506000D03*
X109982000Y-110871000D03*
X112014000Y-111379000D03*
X114173000Y-110871000D03*
X115316000Y-111506000D03*
X107823000Y-107061000D03*
X115443000Y-107442000D03*
X113284000Y-101600000D03*
X111633000Y-99314000D03*
X189357000Y-75311000D03*
X193421000Y-69469000D03*
X195834000Y-71120000D03*
X195453000Y-74676000D03*
X193294000Y-74422000D03*
X191389000Y-74422000D03*
X195834000Y-63754000D03*
X193421000Y-64389000D03*
X191135000Y-63754000D03*
X190881000Y-72009000D03*
X190881000Y-66548000D03*
X192151000Y-68707000D03*
X196342000Y-67310000D03*
X184277000Y-70739000D03*
X186563000Y-71374000D03*
X191389000Y-57023000D03*
X184785000Y-56769000D03*
X184023000Y-60198000D03*
X183261000Y-62357000D03*
X162814000Y-54610000D03*
X169672000Y-55626000D03*
X171958000Y-48514000D03*
X171831000Y-45339000D03*
X157988000Y-50165000D03*
X146050000Y-50927000D03*
X144399000Y-46228000D03*
X144399000Y-48133000D03*
X138938000Y-48895000D03*
X139192000Y-45339000D03*
X197866000Y-98806000D03*
X188722000Y-99822000D03*
X189611000Y-94107000D03*
X174752000Y-111633000D03*
X166624000Y-102997000D03*
X165862000Y-108204000D03*
X178054000Y-99568000D03*
X182245000Y-104648000D03*
X183261000Y-100584000D03*
X173863000Y-104521000D03*
X185293000Y-109728000D03*
X188722000Y-108966000D03*
X106045000Y-58293000D03*
X104648000Y-51435000D03*
X107569000Y-50292000D03*
X108966000Y-46228000D03*
X121412000Y-45339000D03*
X132207000Y-49403000D03*
X136144000Y-50292000D03*
X136017000Y-45466000D03*
X103759000Y-64008000D03*
X106934000Y-68326000D03*
X114300000Y-72771000D03*
X117729000Y-72009000D03*
X121666000Y-73406000D03*
X183250000Y-67310000D03*
X186817000Y-63881000D03*
X190246000Y-62484000D03*
X190119000Y-59182000D03*
X163576000Y-59944000D03*
X188468000Y-78105000D03*
X183388000Y-79883000D03*
X177165000Y-80645000D03*
X150622000Y-64389000D03*
X161925000Y-65532000D03*
D35*
X162052000Y-70612000D03*
X162115500Y-73850500D03*
X186817000Y-66548000D03*
X183896000Y-52959000D03*
X173228000Y-52832000D03*
D36*
X179324000Y-67691000D03*
D35*
X181864000Y-49911000D03*
D36*
X181483000Y-67897000D03*
D35*
X160675000Y-99929000D03*
D36*
X159131000Y-95484000D03*
X162941000Y-96012000D03*
X115697000Y-80391000D03*
X110236000Y-80264000D03*
X110216000Y-84032000D03*
X120015000Y-89408000D03*
X115824000Y-82931000D03*
X116422947Y-87031053D03*
X110216000Y-82931000D03*
X123038609Y-98449391D03*
X115570000Y-85471000D03*
X131445000Y-85471000D03*
X180340000Y-70739000D03*
X179197000Y-70739000D03*
D35*
X162052000Y-68453000D03*
D36*
X130810000Y-104902000D03*
D35*
X175387000Y-72517000D03*
X175260000Y-65278000D03*
D37*
X197358000Y-65532000D02*
X194437000Y-65532000D01*
X194437000Y-65532000D02*
X193294000Y-66675000D01*
D38*
X188595000Y-64897000D02*
X185791000Y-64897000D01*
X185791000Y-64897000D02*
X185200000Y-65488000D01*
X188595000Y-64897000D02*
X191516000Y-64897000D01*
X191516000Y-64897000D02*
X193294000Y-66675000D01*
D39*
X150622000Y-64389000D02*
X149987000Y-64389000D01*
X149987000Y-64389000D02*
X150622000Y-64389000D01*
X150622000Y-64389000D02*
X149987000Y-64389000D01*
X162052000Y-70612000D02*
X161671000Y-70993000D01*
X161671000Y-70993000D02*
X161417000Y-70993000D01*
D40*
X185801000Y-67818000D02*
X186817000Y-66802000D01*
X186817000Y-66802000D02*
X186817000Y-66548000D01*
D41*
X149987000Y-74168000D02*
X149987000Y-64389000D01*
X149987000Y-64389000D02*
X149987000Y-61087000D01*
X149987000Y-61087000D02*
X147701000Y-58801000D01*
X157099000Y-83693000D02*
X154981010Y-81575010D01*
X154981010Y-81575010D02*
X152822010Y-81575010D01*
X152822010Y-81575010D02*
X150368000Y-79121000D01*
X151902702Y-80645000D02*
X151892000Y-80645000D01*
X151892000Y-80645000D02*
X150368000Y-79121000D01*
X150368000Y-79121000D02*
X150368000Y-73787000D01*
X145034000Y-74168000D02*
X149987000Y-74168000D01*
X149987000Y-74168000D02*
X156464000Y-74168000D01*
X150368000Y-73787000D02*
X149987000Y-74168000D01*
D40*
X184874000Y-80772000D02*
X184874000Y-78532000D01*
X184874000Y-78532000D02*
X184531000Y-78189000D01*
X178054000Y-76327000D02*
X178054000Y-77494433D01*
X178054000Y-77494433D02*
X178748567Y-78189000D01*
X178748567Y-78189000D02*
X183681000Y-78189000D01*
X183681000Y-78189000D02*
X184531000Y-78189000D01*
X178054000Y-76327000D02*
X178054000Y-72692000D01*
X178054000Y-72692000D02*
X178050000Y-72688000D01*
D37*
X177381218Y-53467000D02*
X183388000Y-53467000D01*
X183388000Y-53467000D02*
X183896000Y-52959000D01*
X176500000Y-49560000D02*
X176500000Y-51046218D01*
X176500000Y-51046218D02*
X176401499Y-51144719D01*
X176401499Y-51144719D02*
X176401499Y-52487281D01*
X176401499Y-52487281D02*
X177381218Y-53467000D01*
X173228000Y-69342000D02*
X176022000Y-69342000D01*
X176022000Y-69342000D02*
X178432999Y-66931001D01*
X178432999Y-66931001D02*
X178424999Y-66923001D01*
X178424999Y-66923001D02*
X178424999Y-65488000D01*
D41*
X173228000Y-69342000D02*
X173228000Y-70993000D01*
D40*
X173736000Y-70485000D02*
X173228000Y-70993000D01*
D41*
X173228000Y-70993000D02*
X173228000Y-72156000D01*
D40*
X177122000Y-70485000D02*
X173736000Y-70485000D01*
X178050000Y-72688000D02*
X178050000Y-71413000D01*
X178050000Y-71413000D02*
X177122000Y-70485000D01*
X178050000Y-65488000D02*
X178049999Y-66763001D01*
X173844001Y-66763001D02*
X173228000Y-66147000D01*
D41*
X162433000Y-72009000D02*
X166116000Y-72009000D01*
X166116000Y-72009000D02*
X168148000Y-72009000D01*
X159131000Y-76835000D02*
X162115500Y-73850500D01*
X162115500Y-73850500D02*
X162728008Y-73237992D01*
X162728008Y-73237992D02*
X164887008Y-73237992D01*
X164887008Y-73237992D02*
X166116000Y-72009000D01*
X141859000Y-70993000D02*
X141859000Y-76835000D01*
X159131000Y-76835000D02*
X159131000Y-75311000D01*
X159131000Y-75311000D02*
X162433000Y-72009000D01*
X160528000Y-72009000D02*
X162433000Y-72009000D01*
X159131000Y-70993000D02*
X161417000Y-70993000D01*
X161417000Y-70993000D02*
X162433000Y-72009000D01*
X156464000Y-74168000D02*
X159131000Y-76835000D01*
X156464000Y-74168000D02*
X158750000Y-74168000D01*
X156464000Y-74168000D02*
X156464000Y-73660000D01*
X156464000Y-73660000D02*
X159131000Y-70993000D01*
X141859000Y-76835000D02*
X142684499Y-76009501D01*
X142684499Y-76009501D02*
X143192499Y-76009501D01*
X143192499Y-76009501D02*
X145034000Y-74168000D01*
X141859000Y-74168000D02*
X145034000Y-74168000D01*
X141859000Y-70993000D02*
X142684499Y-71818499D01*
X142684499Y-71818499D02*
X145034000Y-74168000D01*
X141859000Y-74168000D02*
X141859000Y-70993000D01*
X141859000Y-76835000D02*
X141859000Y-74168000D01*
X159131000Y-74549000D02*
X159131000Y-73406000D01*
X159131000Y-76835000D02*
X159131000Y-74549000D01*
X158750000Y-74168000D02*
X159131000Y-74549000D01*
X159131000Y-73406000D02*
X159131000Y-70993000D01*
X159131000Y-73406000D02*
X160528000Y-72009000D01*
X168148000Y-72009000D02*
X168275000Y-72136000D01*
X170434000Y-72136000D02*
X168275000Y-72136000D01*
X173228000Y-66147000D02*
X173228000Y-69342000D01*
X173228000Y-69342000D02*
X170434000Y-72136000D01*
D37*
X168211499Y-56451499D02*
X167386000Y-55626000D01*
X168344499Y-56451499D02*
X168211499Y-56451499D01*
D40*
X176500000Y-49560000D02*
X176500000Y-48798000D01*
X176500000Y-48798000D02*
X176500000Y-48066000D01*
D37*
X173228000Y-52832000D02*
X176500000Y-49560000D01*
D40*
X181950000Y-65488000D02*
X181950000Y-66898998D01*
X181950000Y-66898998D02*
X182731002Y-67680000D01*
X182731002Y-67680000D02*
X182867000Y-67680000D01*
X182867000Y-67680000D02*
X183250000Y-67680000D01*
X183388000Y-67818000D02*
X185801000Y-67818000D01*
X183250000Y-65488000D02*
X183250000Y-67310000D01*
X183250000Y-67310000D02*
X183250000Y-67680000D01*
X183250000Y-67680000D02*
X183388000Y-67818000D01*
X178700000Y-65488000D02*
X178050000Y-65488000D01*
D37*
X197358000Y-73152000D02*
X194871000Y-73152000D01*
X194871000Y-73152000D02*
X193294000Y-71575000D01*
D38*
X188595000Y-73152000D02*
X185664000Y-73152000D01*
X185664000Y-73152000D02*
X185200000Y-72688000D01*
X188595000Y-73152000D02*
X191717000Y-73152000D01*
X191717000Y-73152000D02*
X193294000Y-71575000D01*
D40*
X180650000Y-72688000D02*
X180650000Y-71465002D01*
X180650000Y-71465002D02*
X181040001Y-71075001D01*
X181040001Y-71075001D02*
X181040001Y-69407001D01*
X181040001Y-69407001D02*
X179324000Y-67691000D01*
X184531000Y-75989000D02*
X182676000Y-75989000D01*
X182676000Y-75989000D02*
X180650000Y-73963000D01*
X180650000Y-73963000D02*
X180650000Y-72688000D01*
X180650000Y-72688000D02*
X180650000Y-71826000D01*
D37*
X180005000Y-49911000D02*
X180594000Y-49911000D01*
X180594000Y-49911000D02*
X181864000Y-49911000D01*
D40*
X179100000Y-48066000D02*
X179100000Y-49156000D01*
X179100000Y-49156000D02*
X179855000Y-49911000D01*
X179855000Y-49911000D02*
X180594000Y-49911000D01*
D38*
X179100000Y-48066000D02*
X179100000Y-49141002D01*
D39*
X180005000Y-49911000D02*
X179869998Y-49911000D01*
D38*
X179100000Y-49141002D02*
X179100000Y-49179000D01*
D39*
X179869998Y-49911000D02*
X179100000Y-49141002D01*
D38*
X179100000Y-48066000D02*
X179100000Y-49006000D01*
X179100000Y-49006000D02*
X180005000Y-49911000D01*
D41*
X143002000Y-83947000D02*
X139827000Y-80772000D01*
X139827000Y-80772000D02*
X139573000Y-80518000D01*
X141859000Y-79375000D02*
X141224000Y-79375000D01*
X141224000Y-79375000D02*
X139827000Y-80772000D01*
X139573000Y-71628000D02*
X139573000Y-75311000D01*
X139573000Y-75311000D02*
X139573000Y-77660283D01*
X139573000Y-80518000D02*
X139573000Y-75311000D01*
X147701000Y-53721000D02*
X145669000Y-53721000D01*
X139573000Y-70167717D02*
X139573000Y-71628000D01*
X145669000Y-53721000D02*
X143637000Y-53721000D01*
X143637000Y-56261000D02*
X143637000Y-55753000D01*
X143637000Y-55753000D02*
X145669000Y-53721000D01*
X143637000Y-56261000D02*
X143637000Y-68072000D01*
X143637000Y-53721000D02*
X143637000Y-56261000D01*
X143637000Y-53721000D02*
X141859000Y-53721000D01*
X143637000Y-55499000D02*
X141859000Y-53721000D01*
X141859000Y-53721000D02*
X131540500Y-53721000D01*
X143637000Y-56261000D02*
X143637000Y-55499000D01*
X141859000Y-68453000D02*
X144018000Y-68453000D01*
X144018000Y-68453000D02*
X146558000Y-68453000D01*
X143637000Y-68072000D02*
X144018000Y-68453000D01*
X131540500Y-53721000D02*
X128905000Y-53721000D01*
X128905000Y-53721000D02*
X125603000Y-53721000D01*
X127254000Y-55372000D02*
X128905000Y-53721000D01*
X125603000Y-53721000D02*
X113887500Y-53721000D01*
X127254000Y-60960000D02*
X127254000Y-55372000D01*
X127254000Y-55372000D02*
X125603000Y-53721000D01*
X113887500Y-53721000D02*
X109474000Y-58134500D01*
X109474000Y-58134500D02*
X109474000Y-61087000D01*
X139573000Y-77660283D02*
X141287717Y-79375000D01*
X141287717Y-79375000D02*
X141859000Y-79375000D01*
X141859000Y-68453000D02*
X141287717Y-68453000D01*
X141287717Y-68453000D02*
X139573000Y-70167717D01*
X141859000Y-79375000D02*
X146558000Y-79375000D01*
D40*
X179832000Y-67183000D02*
X179374999Y-66725999D01*
X179374999Y-66725999D02*
X179374999Y-65512999D01*
X179374999Y-65512999D02*
X179350000Y-65488000D01*
X181300000Y-67183000D02*
X181300000Y-67714000D01*
X181300000Y-65488000D02*
X181300000Y-67183000D01*
X181300000Y-67183000D02*
X179832000Y-67183000D01*
X181483000Y-67897000D02*
X181782999Y-68196999D01*
X181782999Y-68196999D02*
X182211999Y-68196999D01*
X182211999Y-68196999D02*
X183250000Y-69235000D01*
X181300000Y-67714000D02*
X181483000Y-67897000D01*
X183250000Y-72688000D02*
X183250000Y-69235000D01*
X183250000Y-72688000D02*
X183900000Y-72688000D01*
D37*
X160675000Y-99929000D02*
X160675000Y-88839775D01*
X160675000Y-88839775D02*
X164678775Y-84836000D01*
X164678775Y-84836000D02*
X175017630Y-84836000D01*
X175017630Y-84836000D02*
X176149000Y-84836000D01*
X175768000Y-84836000D02*
X176149000Y-84836000D01*
D39*
X159131000Y-95484000D02*
X159131000Y-95504000D01*
X110216000Y-84032000D02*
X110236000Y-84052000D01*
X110236000Y-84052000D02*
X110236000Y-84074000D01*
X116422947Y-87031053D02*
X116776500Y-86677500D01*
X116776500Y-86677500D02*
X116459000Y-86995000D01*
X116459000Y-86995000D02*
X116459000Y-86360000D01*
X110216000Y-82931000D02*
X110236000Y-82931000D01*
X123038609Y-98449391D02*
X123063000Y-98425000D01*
D41*
X115570000Y-85471000D02*
X116459000Y-86360000D01*
X116459000Y-86360000D02*
X118110000Y-88011000D01*
X118110000Y-88011000D02*
X118618000Y-88011000D01*
D37*
X110998000Y-85471000D02*
X115570000Y-85471000D01*
D41*
X131445000Y-85471000D02*
X131445000Y-85840370D01*
X131445000Y-85840370D02*
X133615630Y-88011000D01*
X133615630Y-88011000D02*
X134747000Y-88011000D01*
D37*
X128258370Y-85471000D02*
X131445000Y-85471000D01*
X127127000Y-85471000D02*
X128258370Y-85471000D01*
D40*
X180594000Y-76073000D02*
X178700000Y-74179000D01*
X178700000Y-74179000D02*
X178700000Y-72688000D01*
X180594000Y-76327000D02*
X180594000Y-76073000D01*
D37*
X183769000Y-84836000D02*
X183769000Y-89916000D01*
X183769000Y-89916000D02*
X181229000Y-92456000D01*
D40*
X180340000Y-70739000D02*
X180000000Y-71079000D01*
X180000000Y-71079000D02*
X180000000Y-72688000D01*
X179197000Y-70739000D02*
X179350000Y-70892000D01*
X179350000Y-70892000D02*
X179350000Y-72688000D01*
D41*
X159131000Y-79375000D02*
X154178000Y-79375000D01*
X159131000Y-79375000D02*
X160401000Y-79375000D01*
X160401000Y-79375000D02*
X164338000Y-75438000D01*
X173228000Y-63647000D02*
X172192998Y-63647000D01*
X172192998Y-63647000D02*
X170497499Y-65342499D01*
X170497499Y-65342499D02*
X170497499Y-66484501D01*
X170497499Y-66484501D02*
X169545000Y-67437000D01*
X173228000Y-63647000D02*
X173649000Y-63226000D01*
X173649000Y-63226000D02*
X176413000Y-63226000D01*
X173228000Y-63647000D02*
X173823000Y-63647000D01*
X173823000Y-63647000D02*
X174244000Y-63226000D01*
D37*
X174244000Y-63226000D02*
X175869000Y-63226000D01*
X175869000Y-63226000D02*
X176413000Y-63226000D01*
D40*
X177400000Y-65488000D02*
X177400000Y-64213000D01*
X177400000Y-64213000D02*
X176413000Y-63226000D01*
X176413000Y-63226000D02*
X175269000Y-63226000D01*
X175269000Y-63226000D02*
X174244000Y-63226000D01*
D41*
X169418000Y-75438000D02*
X172446000Y-75438000D01*
X172446000Y-75438000D02*
X173228000Y-74656000D01*
D40*
X177400000Y-73826000D02*
X177400000Y-72688000D01*
X175853000Y-74656000D02*
X177400000Y-73826000D01*
D41*
X173228000Y-74656000D02*
X175853000Y-74656000D01*
X159131000Y-68453000D02*
X162052000Y-68453000D01*
X162052000Y-68453000D02*
X163449000Y-68453000D01*
X163449000Y-68453000D02*
X164465000Y-67437000D01*
X154178000Y-68453000D02*
X159131000Y-68453000D01*
D37*
X131318000Y-75438000D02*
X131826000Y-75438000D01*
D39*
X126873000Y-96520000D02*
X126873000Y-97507828D01*
X126873000Y-97507828D02*
X129926501Y-100561329D01*
X129926501Y-100561329D02*
X129926501Y-104310281D01*
X129926501Y-104310281D02*
X129329281Y-104907501D01*
X129329281Y-104907501D02*
X124025499Y-104907501D01*
X124025499Y-104907501D02*
X117856000Y-111077000D01*
D37*
X111379000Y-108712000D02*
X115491000Y-108712000D01*
X115491000Y-108712000D02*
X117856000Y-111077000D01*
D40*
X186474000Y-80772000D02*
X186474000Y-78278000D01*
X186474000Y-78278000D02*
X186563000Y-78189000D01*
D38*
X178450000Y-48066000D02*
X178450000Y-49672000D01*
X178450000Y-49672000D02*
X180594000Y-51816000D01*
X177800000Y-51816000D02*
X177800000Y-48066000D01*
D39*
X174890000Y-45406000D02*
X174890000Y-47258500D01*
X174890000Y-47258500D02*
X175337500Y-47706000D01*
X176960000Y-45406000D02*
X174890000Y-45406000D01*
X178640000Y-45406000D02*
X176960000Y-45406000D01*
X180710000Y-45406000D02*
X178640000Y-45406000D01*
X180262500Y-47706000D02*
X180262500Y-45853500D01*
X180262500Y-45853500D02*
X180710000Y-45406000D01*
X130810000Y-104902000D02*
X134366000Y-101346000D01*
X134366000Y-101346000D02*
X134366000Y-96520000D01*
X117856000Y-108077000D02*
X116305999Y-106526999D01*
X116305999Y-106526999D02*
X116305999Y-98578001D01*
X116305999Y-98578001D02*
X117919501Y-96964499D01*
X117919501Y-96964499D02*
X118618000Y-96266000D01*
D40*
X185136000Y-74549000D02*
X185273000Y-74549000D01*
X185273000Y-74549000D02*
X186563000Y-75839000D01*
X186563000Y-75839000D02*
X186563000Y-75989000D01*
X184550000Y-72688000D02*
X184550000Y-73963000D01*
X184550000Y-73963000D02*
X185136000Y-74549000D01*
D38*
X180594000Y-59436000D02*
X180594000Y-65432000D01*
X180594000Y-65432000D02*
X180650000Y-65488000D01*
X180000000Y-65488000D02*
X180000000Y-62017000D01*
X180000000Y-62017000D02*
X177800000Y-59817000D01*
X177800000Y-59817000D02*
X177800000Y-59436000D01*
D37*
X170815000Y-92456000D02*
X178435000Y-84836000D01*
X178435000Y-84836000D02*
X178689000Y-84836000D01*
D39*
X102997000Y-110363000D02*
X102997000Y-98171000D01*
X102997000Y-98171000D02*
X105537000Y-95631000D01*
X105664000Y-113030000D02*
X102997000Y-110363000D01*
X135685792Y-113030000D02*
X105664000Y-113030000D01*
X137969000Y-109474000D02*
X137969000Y-110746792D01*
X137969000Y-110746792D02*
X135685792Y-113030000D01*
D40*
X137160000Y-95631000D02*
X137160000Y-106165000D01*
X137160000Y-106165000D02*
X137969000Y-106974000D01*
X137160000Y-95631000D02*
X136271000Y-94742000D01*
X136271000Y-94742000D02*
X122809000Y-94742000D01*
X122809000Y-94742000D02*
X122618499Y-94932501D01*
X122618499Y-94932501D02*
X121920000Y-95631000D01*
D39*
X175387000Y-72517000D02*
X176553999Y-72517000D01*
X176553999Y-72517000D02*
X176724999Y-72688000D01*
X175260000Y-65278000D02*
X175967106Y-65278000D01*
X175967106Y-65278000D02*
X176177106Y-65488000D01*
X176177106Y-65488000D02*
X176724999Y-65488000D01*
D42*
G36*
X137160000Y-52086000D02*
X128905005Y-52086000D01*
X128905000Y-52085999D01*
X128904995Y-52086000D01*
X125603005Y-52086000D01*
X125603000Y-52085999D01*
X125602995Y-52086000D01*
X113887505Y-52086000D01*
X113887500Y-52085999D01*
X113347956Y-52193322D01*
X113261813Y-52210457D01*
X112731380Y-52564880D01*
X112731378Y-52564883D01*
X108317880Y-56978380D01*
X107963457Y-57508812D01*
X107838999Y-58134500D01*
X107839000Y-58134505D01*
X107839000Y-59563000D01*
X105410000Y-59563000D01*
X105363841Y-59571685D01*
X105321447Y-59598965D01*
X105293006Y-59640590D01*
X105283000Y-59690000D01*
X105283000Y-67691000D01*
X105291685Y-67737159D01*
X105318965Y-67779553D01*
X105360590Y-67807994D01*
X105410000Y-67818000D01*
X134912581Y-67818000D01*
X135064841Y-67881224D01*
X135696388Y-67881775D01*
X135850735Y-67818000D01*
X137160000Y-67818000D01*
X137160000Y-82677000D01*
X137170006Y-82726410D01*
X137198447Y-82768035D01*
X137240841Y-82795315D01*
X137287000Y-82804000D01*
X139546760Y-82804000D01*
X141845880Y-85103120D01*
X142047438Y-85237797D01*
X142101579Y-85292032D01*
X142172977Y-85321679D01*
X142376312Y-85457543D01*
X142614066Y-85504836D01*
X142684841Y-85534224D01*
X142762150Y-85534291D01*
X143002000Y-85582001D01*
X143239756Y-85534708D01*
X143316388Y-85534775D01*
X143387838Y-85505252D01*
X143627688Y-85457543D01*
X143829245Y-85322867D01*
X143900072Y-85293602D01*
X143954786Y-85238983D01*
X144158120Y-85103120D01*
X144292797Y-84901562D01*
X144347032Y-84847421D01*
X144376679Y-84776023D01*
X144512543Y-84572688D01*
X144559836Y-84334934D01*
X144589224Y-84264159D01*
X144589291Y-84186850D01*
X144637001Y-83947000D01*
X144589708Y-83709244D01*
X144589775Y-83632612D01*
X144560252Y-83561162D01*
X144512543Y-83321312D01*
X144377867Y-83119755D01*
X144348602Y-83048928D01*
X144293983Y-82994214D01*
X144166886Y-82804000D01*
X151774948Y-82804000D01*
X151983861Y-82943591D01*
X152196322Y-83085553D01*
X152822010Y-83210010D01*
X153035000Y-83210010D01*
X153035000Y-90170000D01*
X153043685Y-90216159D01*
X153070965Y-90258553D01*
X153112590Y-90286994D01*
X153162000Y-90297000D01*
X155858122Y-90297000D01*
X155894610Y-90321931D01*
X156146500Y-90372940D01*
X158051500Y-90372940D01*
X158286817Y-90328662D01*
X158336021Y-90297000D01*
X159540000Y-90297000D01*
X159540000Y-99928010D01*
X159539803Y-100153775D01*
X159712233Y-100571086D01*
X160031235Y-100890645D01*
X160448244Y-101063803D01*
X160899775Y-101064197D01*
X161030486Y-101010188D01*
X170060417Y-101010188D01*
X170122071Y-101245800D01*
X170622480Y-101421927D01*
X171152199Y-101393148D01*
X171507929Y-101245800D01*
X171569583Y-101010188D01*
X172346417Y-101010188D01*
X172408071Y-101245800D01*
X172908480Y-101421927D01*
X173438199Y-101393148D01*
X173793929Y-101245800D01*
X173855583Y-101010188D01*
X173101000Y-100255605D01*
X172346417Y-101010188D01*
X171569583Y-101010188D01*
X170815000Y-100255605D01*
X170060417Y-101010188D01*
X161030486Y-101010188D01*
X161317086Y-100891767D01*
X161636645Y-100572765D01*
X161809803Y-100155756D01*
X161810040Y-99883480D01*
X169469073Y-99883480D01*
X169497852Y-100413199D01*
X169645200Y-100768929D01*
X169880812Y-100830583D01*
X170635395Y-100076000D01*
X170994605Y-100076000D01*
X171749188Y-100830583D01*
X171958000Y-100775942D01*
X172166812Y-100830583D01*
X172921395Y-100076000D01*
X173280605Y-100076000D01*
X174035188Y-100830583D01*
X174270800Y-100768929D01*
X174446927Y-100268520D01*
X174418148Y-99738801D01*
X174270800Y-99383071D01*
X174035188Y-99321417D01*
X173280605Y-100076000D01*
X172921395Y-100076000D01*
X172166812Y-99321417D01*
X171958000Y-99376058D01*
X171749188Y-99321417D01*
X170994605Y-100076000D01*
X170635395Y-100076000D01*
X169880812Y-99321417D01*
X169645200Y-99383071D01*
X169469073Y-99883480D01*
X161810040Y-99883480D01*
X161810197Y-99704225D01*
X161810000Y-99703748D01*
X161810000Y-99141812D01*
X170060417Y-99141812D01*
X170815000Y-99896395D01*
X171569583Y-99141812D01*
X172346417Y-99141812D01*
X173101000Y-99896395D01*
X173855583Y-99141812D01*
X173793929Y-98906200D01*
X173293520Y-98730073D01*
X172763801Y-98758852D01*
X172408071Y-98906200D01*
X172346417Y-99141812D01*
X171569583Y-99141812D01*
X171507929Y-98906200D01*
X171007520Y-98730073D01*
X170477801Y-98758852D01*
X170122071Y-98906200D01*
X170060417Y-99141812D01*
X161810000Y-99141812D01*
X161810000Y-89657195D01*
X162055204Y-89902827D01*
X162545144Y-90106268D01*
X163075643Y-90106731D01*
X163565937Y-89904146D01*
X163941384Y-89529353D01*
X164144825Y-89039413D01*
X164145288Y-88508914D01*
X163942703Y-88018620D01*
X163567910Y-87643173D01*
X163503485Y-87616422D01*
X165148907Y-85971000D01*
X175272272Y-85971000D01*
X175525600Y-86140268D01*
X170538448Y-91127420D01*
X170060620Y-91324854D01*
X169685173Y-91699647D01*
X169481732Y-92189587D01*
X169481269Y-92720086D01*
X169683854Y-93210380D01*
X170058647Y-93585827D01*
X170548587Y-93789268D01*
X171079086Y-93789731D01*
X171569380Y-93587146D01*
X171944827Y-93212353D01*
X171957780Y-93181159D01*
X171969854Y-93210380D01*
X172344647Y-93585827D01*
X172834587Y-93789268D01*
X173365086Y-93789731D01*
X173855380Y-93587146D01*
X174230827Y-93212353D01*
X174434268Y-92722413D01*
X174434731Y-92191914D01*
X174232146Y-91701620D01*
X173857353Y-91326173D01*
X173640150Y-91235982D01*
X178595598Y-86280534D01*
X178689000Y-86299113D01*
X179238151Y-86189880D01*
X179703698Y-85878811D01*
X179959000Y-85496725D01*
X180214302Y-85878811D01*
X180679849Y-86189880D01*
X181229000Y-86299113D01*
X181778151Y-86189880D01*
X182243698Y-85878811D01*
X182499000Y-85496725D01*
X182634000Y-85698767D01*
X182634000Y-89445867D01*
X181051717Y-91028151D01*
X180679849Y-91102120D01*
X180214302Y-91413189D01*
X179959000Y-91795275D01*
X179703698Y-91413189D01*
X179238151Y-91102120D01*
X178689000Y-90992887D01*
X178139849Y-91102120D01*
X177674302Y-91413189D01*
X177577899Y-91557465D01*
X177552162Y-91420683D01*
X177413090Y-91204559D01*
X177200890Y-91059569D01*
X176949000Y-91008560D01*
X175349000Y-91008560D01*
X175113683Y-91052838D01*
X174897559Y-91191910D01*
X174752569Y-91404110D01*
X174701560Y-91656000D01*
X174701560Y-93256000D01*
X174745838Y-93491317D01*
X174884910Y-93707441D01*
X175097110Y-93852431D01*
X175349000Y-93903440D01*
X176949000Y-93903440D01*
X177184317Y-93859162D01*
X177400441Y-93720090D01*
X177545431Y-93507890D01*
X177576815Y-93352911D01*
X177674302Y-93498811D01*
X178139849Y-93809880D01*
X178689000Y-93919113D01*
X179238151Y-93809880D01*
X179703698Y-93498811D01*
X179959000Y-93116725D01*
X180214302Y-93498811D01*
X180679849Y-93809880D01*
X181229000Y-93919113D01*
X181778151Y-93809880D01*
X182243698Y-93498811D01*
X182499000Y-93116725D01*
X182754302Y-93498811D01*
X183219849Y-93809880D01*
X183769000Y-93919113D01*
X184318151Y-93809880D01*
X184783698Y-93498811D01*
X185094767Y-93033264D01*
X185204000Y-92484113D01*
X185204000Y-92427887D01*
X185094767Y-91878736D01*
X184783698Y-91413189D01*
X184318151Y-91102120D01*
X184209604Y-91080529D01*
X184571566Y-90718567D01*
X184817603Y-90350346D01*
X184829942Y-90288315D01*
X184904000Y-89916000D01*
X184904000Y-85698767D01*
X185094767Y-85413264D01*
X185204000Y-84864113D01*
X185204000Y-84807887D01*
X185094767Y-84258736D01*
X184783698Y-83793189D01*
X184318151Y-83482120D01*
X183769000Y-83372887D01*
X183219849Y-83482120D01*
X182754302Y-83793189D01*
X182499000Y-84175275D01*
X182243698Y-83793189D01*
X181778151Y-83482120D01*
X181229000Y-83372887D01*
X180679849Y-83482120D01*
X180214302Y-83793189D01*
X179959000Y-84175275D01*
X179703698Y-83793189D01*
X179238151Y-83482120D01*
X178689000Y-83372887D01*
X178139849Y-83482120D01*
X177674302Y-83793189D01*
X177419000Y-84175275D01*
X177163698Y-83793189D01*
X176698151Y-83482120D01*
X176149000Y-83372887D01*
X175599849Y-83482120D01*
X175272272Y-83701000D01*
X164678775Y-83701000D01*
X164244429Y-83787397D01*
X163881483Y-84029910D01*
X163876209Y-84033434D01*
X161290000Y-86619643D01*
X161290000Y-82804000D01*
X199061000Y-82804000D01*
X199061000Y-109509447D01*
X198613604Y-109061269D01*
X197553467Y-108621062D01*
X196405569Y-108620060D01*
X195344665Y-109058417D01*
X194532269Y-109869396D01*
X194092062Y-110929533D01*
X194091060Y-112077431D01*
X194529417Y-113138335D01*
X194980294Y-113590000D01*
X149570331Y-113590000D01*
X150145731Y-113015604D01*
X150585938Y-111955467D01*
X150586940Y-110807569D01*
X150148583Y-109746665D01*
X149337604Y-108934269D01*
X148277467Y-108494062D01*
X147129569Y-108493060D01*
X146068665Y-108931417D01*
X145256269Y-109742396D01*
X144816062Y-110802533D01*
X144815060Y-111950431D01*
X145253417Y-113011335D01*
X145831073Y-113590000D01*
X136377372Y-113590000D01*
X138594787Y-111372584D01*
X138594790Y-111372582D01*
X138786633Y-111085467D01*
X138816649Y-110934569D01*
X138850855Y-110762608D01*
X139269551Y-110344643D01*
X139503733Y-109780670D01*
X139504265Y-109170009D01*
X139271068Y-108605629D01*
X138889818Y-108223712D01*
X139269551Y-107844643D01*
X139503733Y-107280670D01*
X139504265Y-106670009D01*
X139271068Y-106105629D01*
X138839643Y-105673449D01*
X138275670Y-105439267D01*
X137995000Y-105439022D01*
X137995000Y-102235000D01*
X147307560Y-102235000D01*
X147307560Y-104013000D01*
X147351838Y-104248317D01*
X147490910Y-104464441D01*
X147703110Y-104609431D01*
X147955000Y-104660440D01*
X149733000Y-104660440D01*
X149968317Y-104616162D01*
X150184441Y-104477090D01*
X150329431Y-104264890D01*
X150380440Y-104013000D01*
X150380440Y-102235000D01*
X150336162Y-101999683D01*
X150197090Y-101783559D01*
X149984890Y-101638569D01*
X149733000Y-101587560D01*
X147955000Y-101587560D01*
X147719683Y-101631838D01*
X147503559Y-101770910D01*
X147358569Y-101983110D01*
X147307560Y-102235000D01*
X137995000Y-102235000D01*
X137995000Y-98562086D01*
X138366269Y-98562086D01*
X138568854Y-99052380D01*
X138943647Y-99427827D01*
X139433587Y-99631268D01*
X139964086Y-99631731D01*
X140401281Y-99451086D01*
X141668269Y-99451086D01*
X141870854Y-99941380D01*
X142245647Y-100316827D01*
X142735587Y-100520268D01*
X143266086Y-100520731D01*
X143756380Y-100318146D01*
X144131827Y-99943353D01*
X144335268Y-99453413D01*
X144335562Y-99116196D01*
X147951409Y-99116196D01*
X148036467Y-99371539D01*
X148605965Y-99579516D01*
X149211700Y-99553723D01*
X149651533Y-99371539D01*
X149736591Y-99116196D01*
X148844000Y-98223605D01*
X147951409Y-99116196D01*
X144335562Y-99116196D01*
X144335731Y-98922914D01*
X144133146Y-98432620D01*
X143758353Y-98057173D01*
X143268413Y-97853732D01*
X142737914Y-97853269D01*
X142247620Y-98055854D01*
X141872173Y-98430647D01*
X141668732Y-98920587D01*
X141668269Y-99451086D01*
X140401281Y-99451086D01*
X140454380Y-99429146D01*
X140829827Y-99054353D01*
X141033268Y-98564413D01*
X141033731Y-98033914D01*
X140939545Y-97805965D01*
X147308484Y-97805965D01*
X147334277Y-98411700D01*
X147516461Y-98851533D01*
X147771804Y-98936591D01*
X148664395Y-98044000D01*
X149023605Y-98044000D01*
X149916196Y-98936591D01*
X150171539Y-98851533D01*
X150379516Y-98282035D01*
X150353723Y-97676300D01*
X150171539Y-97236467D01*
X149916196Y-97151409D01*
X149023605Y-98044000D01*
X148664395Y-98044000D01*
X147771804Y-97151409D01*
X147516461Y-97236467D01*
X147308484Y-97805965D01*
X140939545Y-97805965D01*
X140831146Y-97543620D01*
X140456353Y-97168173D01*
X139983445Y-96971804D01*
X147951409Y-96971804D01*
X148844000Y-97864395D01*
X149736591Y-96971804D01*
X149651533Y-96716461D01*
X149082035Y-96508484D01*
X148476300Y-96534277D01*
X148036467Y-96716461D01*
X147951409Y-96971804D01*
X139983445Y-96971804D01*
X139966413Y-96964732D01*
X139435914Y-96964269D01*
X138945620Y-97166854D01*
X138570173Y-97541647D01*
X138366732Y-98031587D01*
X138366269Y-98562086D01*
X137995000Y-98562086D01*
X137995000Y-96681666D01*
X138289827Y-96387353D01*
X138493268Y-95897413D01*
X138493731Y-95366914D01*
X138291146Y-94876620D01*
X137934898Y-94519750D01*
X148971000Y-94519750D01*
X148971000Y-95249309D01*
X149067673Y-95482698D01*
X149246301Y-95661327D01*
X149479690Y-95758000D01*
X150209250Y-95758000D01*
X150368000Y-95599250D01*
X150368000Y-94361000D01*
X150622000Y-94361000D01*
X150622000Y-95599250D01*
X150780750Y-95758000D01*
X151510310Y-95758000D01*
X151743699Y-95661327D01*
X151922327Y-95482698D01*
X152019000Y-95249309D01*
X152019000Y-94519750D01*
X151860250Y-94361000D01*
X150622000Y-94361000D01*
X150368000Y-94361000D01*
X149129750Y-94361000D01*
X148971000Y-94519750D01*
X137934898Y-94519750D01*
X137916353Y-94501173D01*
X137426413Y-94297732D01*
X137007234Y-94297366D01*
X136861434Y-94151566D01*
X136794736Y-94107000D01*
X136590541Y-93970561D01*
X136271000Y-93907000D01*
X136191200Y-93907000D01*
X136194440Y-93891000D01*
X136194440Y-93218691D01*
X148971000Y-93218691D01*
X148971000Y-93948250D01*
X149129750Y-94107000D01*
X150368000Y-94107000D01*
X150368000Y-92868750D01*
X150622000Y-92868750D01*
X150622000Y-94107000D01*
X151860250Y-94107000D01*
X152019000Y-93948250D01*
X152019000Y-93218691D01*
X151922327Y-92985302D01*
X151784112Y-92847086D01*
X154878712Y-92847086D01*
X155081297Y-93337380D01*
X155456090Y-93712827D01*
X155946030Y-93916268D01*
X156476529Y-93916731D01*
X156966823Y-93714146D01*
X157342270Y-93339353D01*
X157545711Y-92849413D01*
X157546174Y-92318914D01*
X157343589Y-91828620D01*
X156968796Y-91453173D01*
X156478856Y-91249732D01*
X155948357Y-91249269D01*
X155458063Y-91451854D01*
X155082616Y-91826647D01*
X154879175Y-92316587D01*
X154878712Y-92847086D01*
X151784112Y-92847086D01*
X151743699Y-92806673D01*
X151510310Y-92710000D01*
X150780750Y-92710000D01*
X150622000Y-92868750D01*
X150368000Y-92868750D01*
X150209250Y-92710000D01*
X149479690Y-92710000D01*
X149246301Y-92806673D01*
X149067673Y-92985302D01*
X148971000Y-93218691D01*
X136194440Y-93218691D01*
X136194440Y-92291000D01*
X136150162Y-92055683D01*
X136011090Y-91839559D01*
X135798890Y-91694569D01*
X135643911Y-91663185D01*
X135789811Y-91565698D01*
X136100880Y-91100151D01*
X136132321Y-90942086D01*
X138366269Y-90942086D01*
X138568854Y-91432380D01*
X138943647Y-91807827D01*
X139433587Y-92011268D01*
X139964086Y-92011731D01*
X140454380Y-91809146D01*
X140829827Y-91434353D01*
X141033268Y-90944413D01*
X141033731Y-90413914D01*
X140831146Y-89923620D01*
X140456353Y-89548173D01*
X139966413Y-89344732D01*
X139435914Y-89344269D01*
X138945620Y-89546854D01*
X138570173Y-89921647D01*
X138366732Y-90411587D01*
X138366269Y-90942086D01*
X136132321Y-90942086D01*
X136210113Y-90551000D01*
X136100880Y-90001849D01*
X135789811Y-89536302D01*
X135385297Y-89266014D01*
X135602134Y-89163389D01*
X135978041Y-88748423D01*
X135999971Y-88695477D01*
X136028854Y-88765380D01*
X136403647Y-89140827D01*
X136893587Y-89344268D01*
X137424086Y-89344731D01*
X137914380Y-89142146D01*
X138289827Y-88767353D01*
X138493268Y-88277413D01*
X138493445Y-88074500D01*
X141402060Y-88074500D01*
X141402060Y-89979500D01*
X141446338Y-90214817D01*
X141585410Y-90430941D01*
X141797610Y-90575931D01*
X142049500Y-90626940D01*
X142056201Y-90626940D01*
X141872173Y-90810647D01*
X141668732Y-91300587D01*
X141668269Y-91831086D01*
X141870854Y-92321380D01*
X142245647Y-92696827D01*
X142735587Y-92900268D01*
X143266086Y-92900731D01*
X143756380Y-92698146D01*
X144131827Y-92323353D01*
X144335268Y-91833413D01*
X144335731Y-91302914D01*
X144133146Y-90812620D01*
X143947789Y-90626940D01*
X143954500Y-90626940D01*
X144189817Y-90582662D01*
X144405941Y-90443590D01*
X144550931Y-90231390D01*
X144601940Y-89979500D01*
X144601940Y-89455812D01*
X148970736Y-89455812D01*
X149202262Y-90016149D01*
X149630596Y-90445231D01*
X150190528Y-90677735D01*
X150796812Y-90678264D01*
X151357149Y-90446738D01*
X151786231Y-90018404D01*
X152018735Y-89458472D01*
X152019264Y-88852188D01*
X151787738Y-88291851D01*
X151359404Y-87862769D01*
X150799472Y-87630265D01*
X150193188Y-87629736D01*
X149632851Y-87861262D01*
X149203769Y-88289596D01*
X148971265Y-88849528D01*
X148970736Y-89455812D01*
X144601940Y-89455812D01*
X144601940Y-88074500D01*
X144557662Y-87839183D01*
X144418590Y-87623059D01*
X144206390Y-87478069D01*
X143954500Y-87427060D01*
X142049500Y-87427060D01*
X141814183Y-87471338D01*
X141598059Y-87610410D01*
X141453069Y-87822610D01*
X141402060Y-88074500D01*
X138493445Y-88074500D01*
X138493731Y-87746914D01*
X138291146Y-87256620D01*
X137916353Y-86881173D01*
X137426413Y-86677732D01*
X136895914Y-86677269D01*
X136405620Y-86879854D01*
X136030173Y-87254647D01*
X136000149Y-87326953D01*
X135978041Y-87273577D01*
X135602134Y-86858611D01*
X135385297Y-86755986D01*
X135789811Y-86485698D01*
X136100880Y-86020151D01*
X136210113Y-85471000D01*
X136100880Y-84921849D01*
X135789811Y-84456302D01*
X135324264Y-84145233D01*
X134775113Y-84036000D01*
X134718887Y-84036000D01*
X134169736Y-84145233D01*
X133704189Y-84456302D01*
X133393120Y-84921849D01*
X133283887Y-85471000D01*
X133393120Y-86020151D01*
X133704189Y-86485698D01*
X134108703Y-86755986D01*
X133891866Y-86858611D01*
X133515959Y-87273577D01*
X133355096Y-87661961D01*
X133477085Y-87884000D01*
X134620000Y-87884000D01*
X134620000Y-87864000D01*
X134874000Y-87864000D01*
X134874000Y-87884000D01*
X134894000Y-87884000D01*
X134894000Y-88138000D01*
X134874000Y-88138000D01*
X134874000Y-88158000D01*
X134620000Y-88158000D01*
X134620000Y-88138000D01*
X133477085Y-88138000D01*
X133355096Y-88360039D01*
X133515959Y-88748423D01*
X133891866Y-89163389D01*
X134108703Y-89266014D01*
X133704189Y-89536302D01*
X133393120Y-90001849D01*
X133283887Y-90551000D01*
X133393120Y-91100151D01*
X133704189Y-91565698D01*
X133848465Y-91662101D01*
X133711683Y-91687838D01*
X133495559Y-91826910D01*
X133350569Y-92039110D01*
X133299560Y-92291000D01*
X133299560Y-93891000D01*
X133302571Y-93907000D01*
X128302577Y-93907000D01*
X128480880Y-93640151D01*
X128590113Y-93091000D01*
X128480880Y-92541849D01*
X128169811Y-92076302D01*
X127787725Y-91821000D01*
X128169811Y-91565698D01*
X128480880Y-91100151D01*
X128590113Y-90551000D01*
X128480880Y-90001849D01*
X128169811Y-89536302D01*
X127787725Y-89281000D01*
X128169811Y-89025698D01*
X128480880Y-88560151D01*
X128590113Y-88011000D01*
X128480880Y-87461849D01*
X128169811Y-86996302D01*
X127765297Y-86726014D01*
X127982134Y-86623389D01*
X128358041Y-86208423D01*
X128518904Y-85820039D01*
X128396915Y-85598000D01*
X127254000Y-85598000D01*
X127254000Y-85618000D01*
X127000000Y-85618000D01*
X127000000Y-85598000D01*
X126980000Y-85598000D01*
X126980000Y-85344000D01*
X127000000Y-85344000D01*
X127000000Y-84200371D01*
X127254000Y-84200371D01*
X127254000Y-85344000D01*
X128396915Y-85344000D01*
X128518904Y-85121961D01*
X128358041Y-84733577D01*
X127982134Y-84318611D01*
X127476041Y-84079086D01*
X127254000Y-84200371D01*
X127000000Y-84200371D01*
X126777959Y-84079086D01*
X126271866Y-84318611D01*
X125895959Y-84733577D01*
X125816373Y-84925728D01*
X125704961Y-84365622D01*
X125383054Y-83883853D01*
X124901285Y-83561946D01*
X124333000Y-83448907D01*
X123764715Y-83561946D01*
X123282946Y-83883853D01*
X123255150Y-83925452D01*
X123246162Y-83877683D01*
X123107090Y-83661559D01*
X122894890Y-83516569D01*
X122643000Y-83465560D01*
X120943000Y-83465560D01*
X120707683Y-83509838D01*
X120491559Y-83648910D01*
X120346569Y-83861110D01*
X120295560Y-84113000D01*
X120295560Y-85813000D01*
X120339838Y-86048317D01*
X120478910Y-86264441D01*
X120691110Y-86409431D01*
X120943000Y-86460440D01*
X122643000Y-86460440D01*
X122878317Y-86416162D01*
X123094441Y-86277090D01*
X123239431Y-86064890D01*
X123253086Y-85997459D01*
X123282946Y-86042147D01*
X123764715Y-86364054D01*
X124333000Y-86477093D01*
X124901285Y-86364054D01*
X125383054Y-86042147D01*
X125692000Y-85579776D01*
X125692000Y-85598002D01*
X125857084Y-85598002D01*
X125735096Y-85820039D01*
X125895959Y-86208423D01*
X126271866Y-86623389D01*
X126488703Y-86726014D01*
X126084189Y-86996302D01*
X125773120Y-87461849D01*
X125666512Y-87997803D01*
X125666731Y-87746914D01*
X125464146Y-87256620D01*
X125089353Y-86881173D01*
X124599413Y-86677732D01*
X124068914Y-86677269D01*
X123578620Y-86879854D01*
X123203173Y-87254647D01*
X123126563Y-87439144D01*
X123051146Y-87256620D01*
X122676353Y-86881173D01*
X122186413Y-86677732D01*
X121655914Y-86677269D01*
X121165620Y-86879854D01*
X120790173Y-87254647D01*
X120586732Y-87744587D01*
X120586269Y-88275086D01*
X120788854Y-88765380D01*
X121163647Y-89140827D01*
X121653587Y-89344268D01*
X122184086Y-89344731D01*
X122674380Y-89142146D01*
X123049827Y-88767353D01*
X123126437Y-88582856D01*
X123201854Y-88765380D01*
X123576647Y-89140827D01*
X123914446Y-89281094D01*
X123578620Y-89419854D01*
X123203173Y-89794647D01*
X122999732Y-90284587D01*
X122999269Y-90815086D01*
X123201854Y-91305380D01*
X123576647Y-91680827D01*
X124066587Y-91884268D01*
X124597086Y-91884731D01*
X125087380Y-91682146D01*
X125462827Y-91307353D01*
X125666268Y-90817413D01*
X125666489Y-90564082D01*
X125773120Y-91100151D01*
X126084189Y-91565698D01*
X126466275Y-91821000D01*
X126084189Y-92076302D01*
X125773120Y-92541849D01*
X125663887Y-93091000D01*
X125773120Y-93640151D01*
X125951423Y-93907000D01*
X122809000Y-93907000D01*
X122489459Y-93970561D01*
X122285264Y-94107000D01*
X122218566Y-94151566D01*
X122072499Y-94297633D01*
X121655914Y-94297269D01*
X121165620Y-94499854D01*
X120790173Y-94874647D01*
X120586732Y-95364587D01*
X120586269Y-95895086D01*
X120788854Y-96385380D01*
X121163647Y-96760827D01*
X121653587Y-96964268D01*
X122184086Y-96964731D01*
X122674380Y-96762146D01*
X123049827Y-96387353D01*
X123253268Y-95897413D01*
X123253548Y-95577000D01*
X125930146Y-95577000D01*
X125743173Y-95763647D01*
X125539732Y-96253587D01*
X125539269Y-96784086D01*
X125741854Y-97274380D01*
X125991260Y-97524221D01*
X126042563Y-97782132D01*
X126055367Y-97846503D01*
X126247210Y-98133618D01*
X129041501Y-100927908D01*
X129041501Y-103943702D01*
X128962701Y-104022501D01*
X124025504Y-104022501D01*
X124025499Y-104022500D01*
X123704942Y-104086264D01*
X123686824Y-104089868D01*
X123399709Y-104281711D01*
X123399707Y-104281714D01*
X119590990Y-108090431D01*
X119591301Y-107733401D01*
X119327719Y-107095485D01*
X118840082Y-106606996D01*
X118202627Y-106342301D01*
X117512401Y-106341699D01*
X117413248Y-106382668D01*
X117190999Y-106160419D01*
X117190999Y-105679498D01*
X117509373Y-105811699D01*
X118199599Y-105812301D01*
X118837515Y-105548719D01*
X119326004Y-105061082D01*
X119590699Y-104423627D01*
X119591301Y-103733401D01*
X119327719Y-103095485D01*
X119153139Y-102920599D01*
X120320699Y-102920599D01*
X120584281Y-103558515D01*
X121071918Y-104047004D01*
X121709373Y-104311699D01*
X122399599Y-104312301D01*
X123037515Y-104048719D01*
X123526004Y-103561082D01*
X123790699Y-102923627D01*
X123791301Y-102233401D01*
X123527719Y-101595485D01*
X123040082Y-101106996D01*
X122402627Y-100842301D01*
X121712401Y-100841699D01*
X121074485Y-101105281D01*
X120585996Y-101592918D01*
X120321301Y-102230373D01*
X120320699Y-102920599D01*
X119153139Y-102920599D01*
X118840082Y-102606996D01*
X118202627Y-102342301D01*
X117512401Y-102341699D01*
X117190999Y-102474500D01*
X117190999Y-98944581D01*
X118536150Y-97599429D01*
X118882086Y-97599731D01*
X119372380Y-97397146D01*
X119747827Y-97022353D01*
X119951268Y-96532413D01*
X119951731Y-96001914D01*
X119749146Y-95511620D01*
X119374353Y-95136173D01*
X118884413Y-94932732D01*
X118353914Y-94932269D01*
X117863620Y-95134854D01*
X117488173Y-95509647D01*
X117347906Y-95847446D01*
X117209146Y-95511620D01*
X116834353Y-95136173D01*
X116344413Y-94932732D01*
X115813914Y-94932269D01*
X115323620Y-95134854D01*
X114948173Y-95509647D01*
X114807906Y-95847446D01*
X114669146Y-95511620D01*
X114294353Y-95136173D01*
X113804413Y-94932732D01*
X113273914Y-94932269D01*
X112783620Y-95134854D01*
X112408173Y-95509647D01*
X112267906Y-95847446D01*
X112129146Y-95511620D01*
X111754353Y-95136173D01*
X111264413Y-94932732D01*
X110733914Y-94932269D01*
X110243620Y-95134854D01*
X109868173Y-95509647D01*
X109664732Y-95999587D01*
X109664269Y-96530086D01*
X109866854Y-97020380D01*
X110241647Y-97395827D01*
X110731587Y-97599268D01*
X111262086Y-97599731D01*
X111752380Y-97397146D01*
X112127827Y-97022353D01*
X112268094Y-96684554D01*
X112406854Y-97020380D01*
X112781647Y-97395827D01*
X113271587Y-97599268D01*
X113802086Y-97599731D01*
X114292380Y-97397146D01*
X114667827Y-97022353D01*
X114808094Y-96684554D01*
X114946854Y-97020380D01*
X115321647Y-97395827D01*
X115811587Y-97599268D01*
X116032959Y-97599461D01*
X115680209Y-97952211D01*
X115488366Y-98239326D01*
X115488366Y-98239327D01*
X115420998Y-98578001D01*
X115420999Y-98578006D01*
X115420999Y-106526994D01*
X115420998Y-106526999D01*
X115462042Y-106733336D01*
X115488366Y-106865674D01*
X115640205Y-107092918D01*
X115680209Y-107152789D01*
X116161348Y-107633928D01*
X116121301Y-107730373D01*
X116121245Y-107794293D01*
X115925346Y-107663397D01*
X115491000Y-107577000D01*
X112556204Y-107577000D01*
X112306363Y-107326722D01*
X111705648Y-107077284D01*
X111055205Y-107076716D01*
X110454057Y-107325106D01*
X109993722Y-107784637D01*
X109744284Y-108385352D01*
X109743716Y-109035795D01*
X109992106Y-109636943D01*
X110451637Y-110097278D01*
X111052352Y-110346716D01*
X111702795Y-110347284D01*
X112303943Y-110098894D01*
X112556278Y-109847000D01*
X115020868Y-109847000D01*
X116121112Y-110947244D01*
X116120699Y-111420599D01*
X116384281Y-112058515D01*
X116470615Y-112145000D01*
X106030579Y-112145000D01*
X103882000Y-109996420D01*
X103882000Y-109035795D01*
X104143716Y-109035795D01*
X104392106Y-109636943D01*
X104851637Y-110097278D01*
X105452352Y-110346716D01*
X106102795Y-110347284D01*
X106703943Y-110098894D01*
X107164278Y-109639363D01*
X107413716Y-109038648D01*
X107414284Y-108388205D01*
X107165894Y-107787057D01*
X106706363Y-107326722D01*
X106105648Y-107077284D01*
X105455205Y-107076716D01*
X104854057Y-107325106D01*
X104393722Y-107784637D01*
X104144284Y-108385352D01*
X104143716Y-109035795D01*
X103882000Y-109035795D01*
X103882000Y-103535795D01*
X104743716Y-103535795D01*
X104992106Y-104136943D01*
X105451637Y-104597278D01*
X106052352Y-104846716D01*
X106702795Y-104847284D01*
X107303943Y-104598894D01*
X107538715Y-104364532D01*
X109806073Y-104364532D01*
X109904736Y-104631387D01*
X110514461Y-104857908D01*
X111164460Y-104833856D01*
X111653264Y-104631387D01*
X111751927Y-104364532D01*
X110779000Y-103391605D01*
X109806073Y-104364532D01*
X107538715Y-104364532D01*
X107764278Y-104139363D01*
X108013716Y-103538648D01*
X108014232Y-102947461D01*
X109133092Y-102947461D01*
X109157144Y-103597460D01*
X109359613Y-104086264D01*
X109626468Y-104184927D01*
X110599395Y-103212000D01*
X110958605Y-103212000D01*
X111931532Y-104184927D01*
X112198387Y-104086264D01*
X112424908Y-103476539D01*
X112400856Y-102826540D01*
X112198387Y-102337736D01*
X111931532Y-102239073D01*
X110958605Y-103212000D01*
X110599395Y-103212000D01*
X109626468Y-102239073D01*
X109359613Y-102337736D01*
X109133092Y-102947461D01*
X108014232Y-102947461D01*
X108014284Y-102888205D01*
X107765894Y-102287057D01*
X107538703Y-102059468D01*
X109806073Y-102059468D01*
X110779000Y-103032395D01*
X111751927Y-102059468D01*
X111653264Y-101792613D01*
X111043539Y-101566092D01*
X110393540Y-101590144D01*
X109904736Y-101792613D01*
X109806073Y-102059468D01*
X107538703Y-102059468D01*
X107306363Y-101826722D01*
X106705648Y-101577284D01*
X106055205Y-101576716D01*
X105454057Y-101825106D01*
X104993722Y-102284637D01*
X104744284Y-102885352D01*
X104743716Y-103535795D01*
X103882000Y-103535795D01*
X103882000Y-98537580D01*
X105455150Y-96964429D01*
X105801086Y-96964731D01*
X106291380Y-96762146D01*
X106666827Y-96387353D01*
X106870268Y-95897413D01*
X106870731Y-95366914D01*
X106668146Y-94876620D01*
X106293353Y-94501173D01*
X105803413Y-94297732D01*
X105272914Y-94297269D01*
X104782620Y-94499854D01*
X104407173Y-94874647D01*
X104203732Y-95364587D01*
X104203428Y-95712993D01*
X102691000Y-97225420D01*
X102691000Y-88275086D01*
X104203269Y-88275086D01*
X104405854Y-88765380D01*
X104780647Y-89140827D01*
X105270587Y-89344268D01*
X105801086Y-89344731D01*
X106291380Y-89142146D01*
X106666827Y-88767353D01*
X106870268Y-88277413D01*
X106870731Y-87746914D01*
X106668146Y-87256620D01*
X106293353Y-86881173D01*
X106197665Y-86841440D01*
X106641000Y-86841440D01*
X106876317Y-86797162D01*
X107092441Y-86658090D01*
X107237431Y-86445890D01*
X107251086Y-86378459D01*
X107280946Y-86423147D01*
X107762715Y-86745054D01*
X107857319Y-86763872D01*
X107576620Y-86879854D01*
X107201173Y-87254647D01*
X106997732Y-87744587D01*
X106997269Y-88275086D01*
X107199854Y-88765380D01*
X107574647Y-89140827D01*
X107912446Y-89281094D01*
X107576620Y-89419854D01*
X107201173Y-89794647D01*
X106997732Y-90284587D01*
X106997269Y-90815086D01*
X107199854Y-91305380D01*
X107574647Y-91680827D01*
X108064587Y-91884268D01*
X108595086Y-91884731D01*
X109085380Y-91682146D01*
X109460827Y-91307353D01*
X109612621Y-90941793D01*
X109644120Y-91100151D01*
X109955189Y-91565698D01*
X110337275Y-91821000D01*
X109955189Y-92076302D01*
X109644120Y-92541849D01*
X109534887Y-93091000D01*
X109644120Y-93640151D01*
X109955189Y-94105698D01*
X110420736Y-94416767D01*
X110969887Y-94526000D01*
X111026113Y-94526000D01*
X111575264Y-94416767D01*
X112040811Y-94105698D01*
X112351880Y-93640151D01*
X112461113Y-93091000D01*
X112351880Y-92541849D01*
X112040811Y-92076302D01*
X111658725Y-91821000D01*
X112040811Y-91565698D01*
X112351880Y-91100151D01*
X112461113Y-90551000D01*
X117154887Y-90551000D01*
X117264120Y-91100151D01*
X117575189Y-91565698D01*
X117719465Y-91662101D01*
X117582683Y-91687838D01*
X117366559Y-91826910D01*
X117221569Y-92039110D01*
X117170560Y-92291000D01*
X117170560Y-93891000D01*
X117214838Y-94126317D01*
X117353910Y-94342441D01*
X117566110Y-94487431D01*
X117818000Y-94538440D01*
X119418000Y-94538440D01*
X119653317Y-94494162D01*
X119869441Y-94355090D01*
X120014431Y-94142890D01*
X120065440Y-93891000D01*
X120065440Y-92291000D01*
X120021162Y-92055683D01*
X119882090Y-91839559D01*
X119669890Y-91694569D01*
X119514911Y-91663185D01*
X119660811Y-91565698D01*
X119971880Y-91100151D01*
X120081113Y-90551000D01*
X119971880Y-90001849D01*
X119660811Y-89536302D01*
X119256297Y-89266014D01*
X119473134Y-89163389D01*
X119849041Y-88748423D01*
X120009904Y-88360039D01*
X119887915Y-88138000D01*
X118745000Y-88138000D01*
X118745000Y-88158000D01*
X118491000Y-88158000D01*
X118491000Y-88138000D01*
X117348085Y-88138000D01*
X117226096Y-88360039D01*
X117386959Y-88748423D01*
X117762866Y-89163389D01*
X117979703Y-89266014D01*
X117575189Y-89536302D01*
X117264120Y-90001849D01*
X117154887Y-90551000D01*
X112461113Y-90551000D01*
X112351880Y-90001849D01*
X112040811Y-89536302D01*
X111658725Y-89281000D01*
X112040811Y-89025698D01*
X112351880Y-88560151D01*
X112461113Y-88011000D01*
X112351880Y-87461849D01*
X112040811Y-86996302D01*
X111636297Y-86726014D01*
X111853134Y-86623389D01*
X112229041Y-86208423D01*
X112389904Y-85820039D01*
X112267915Y-85598000D01*
X111125000Y-85598000D01*
X111125000Y-85618000D01*
X110871000Y-85618000D01*
X110871000Y-85598000D01*
X110851000Y-85598000D01*
X110851000Y-85471000D01*
X117154887Y-85471000D01*
X117264120Y-86020151D01*
X117575189Y-86485698D01*
X117979703Y-86755986D01*
X117762866Y-86858611D01*
X117386959Y-87273577D01*
X117226096Y-87661961D01*
X117348085Y-87884000D01*
X118491000Y-87884000D01*
X118491000Y-87864000D01*
X118745000Y-87864000D01*
X118745000Y-87884000D01*
X119887915Y-87884000D01*
X120009904Y-87661961D01*
X119849041Y-87273577D01*
X119473134Y-86858611D01*
X119256297Y-86755986D01*
X119660811Y-86485698D01*
X119971880Y-86020151D01*
X120081113Y-85471000D01*
X119971880Y-84921849D01*
X119660811Y-84456302D01*
X119195264Y-84145233D01*
X118646113Y-84036000D01*
X118589887Y-84036000D01*
X118040736Y-84145233D01*
X117575189Y-84456302D01*
X117264120Y-84921849D01*
X117154887Y-85471000D01*
X110851000Y-85471000D01*
X110851000Y-85344000D01*
X110871000Y-85344000D01*
X110871000Y-84200371D01*
X111125000Y-84200371D01*
X111125000Y-85344000D01*
X112267915Y-85344000D01*
X112389904Y-85121961D01*
X112229041Y-84733577D01*
X111853134Y-84318611D01*
X111347041Y-84079086D01*
X111125000Y-84200371D01*
X110871000Y-84200371D01*
X110648959Y-84079086D01*
X110142866Y-84318611D01*
X109766959Y-84733577D01*
X109721971Y-84842194D01*
X109702961Y-84746622D01*
X109381054Y-84264853D01*
X108899285Y-83942946D01*
X108331000Y-83829907D01*
X107762715Y-83942946D01*
X107280946Y-84264853D01*
X107253150Y-84306452D01*
X107244162Y-84258683D01*
X107105090Y-84042559D01*
X106892890Y-83897569D01*
X106641000Y-83846560D01*
X104941000Y-83846560D01*
X104705683Y-83890838D01*
X104489559Y-84029910D01*
X104344569Y-84242110D01*
X104293560Y-84494000D01*
X104293560Y-86194000D01*
X104337838Y-86429317D01*
X104476910Y-86645441D01*
X104689110Y-86790431D01*
X104897103Y-86832551D01*
X104782620Y-86879854D01*
X104407173Y-87254647D01*
X104203732Y-87744587D01*
X104203269Y-88275086D01*
X102691000Y-88275086D01*
X102691000Y-78242086D01*
X107124269Y-78242086D01*
X107326854Y-78732380D01*
X107701647Y-79107827D01*
X108191587Y-79311268D01*
X108722086Y-79311731D01*
X109212380Y-79109146D01*
X109587827Y-78734353D01*
X109791268Y-78244413D01*
X109791270Y-78242086D01*
X118300269Y-78242086D01*
X118502854Y-78732380D01*
X118877647Y-79107827D01*
X119367587Y-79311268D01*
X119898086Y-79311731D01*
X120388380Y-79109146D01*
X120763827Y-78734353D01*
X120967268Y-78244413D01*
X120967270Y-78242086D01*
X121856269Y-78242086D01*
X122058854Y-78732380D01*
X122433647Y-79107827D01*
X122923587Y-79311268D01*
X123454086Y-79311731D01*
X123944380Y-79109146D01*
X124319827Y-78734353D01*
X124523268Y-78244413D01*
X124523270Y-78242086D01*
X133032269Y-78242086D01*
X133234854Y-78732380D01*
X133609647Y-79107827D01*
X134099587Y-79311268D01*
X134630086Y-79311731D01*
X135120380Y-79109146D01*
X135495827Y-78734353D01*
X135699268Y-78244413D01*
X135699731Y-77713914D01*
X135497146Y-77223620D01*
X135122353Y-76848173D01*
X134632413Y-76644732D01*
X134101914Y-76644269D01*
X133611620Y-76846854D01*
X133236173Y-77221647D01*
X133032732Y-77711587D01*
X133032269Y-78242086D01*
X124523270Y-78242086D01*
X124523731Y-77713914D01*
X124321146Y-77223620D01*
X123946353Y-76848173D01*
X123456413Y-76644732D01*
X122925914Y-76644269D01*
X122435620Y-76846854D01*
X122060173Y-77221647D01*
X121856732Y-77711587D01*
X121856269Y-78242086D01*
X120967270Y-78242086D01*
X120967731Y-77713914D01*
X120765146Y-77223620D01*
X120390353Y-76848173D01*
X119900413Y-76644732D01*
X119369914Y-76644269D01*
X118879620Y-76846854D01*
X118504173Y-77221647D01*
X118300732Y-77711587D01*
X118300269Y-78242086D01*
X109791270Y-78242086D01*
X109791731Y-77713914D01*
X109589146Y-77223620D01*
X109214353Y-76848173D01*
X108724413Y-76644732D01*
X108193914Y-76644269D01*
X107703620Y-76846854D01*
X107328173Y-77221647D01*
X107124732Y-77711587D01*
X107124269Y-78242086D01*
X102691000Y-78242086D01*
X102691000Y-75656553D01*
X103138396Y-76104731D01*
X104198533Y-76544938D01*
X105346431Y-76545940D01*
X106407335Y-76107583D01*
X107219731Y-75296604D01*
X107530163Y-74549000D01*
X109969560Y-74549000D01*
X109969560Y-76327000D01*
X110013838Y-76562317D01*
X110152910Y-76778441D01*
X110365110Y-76923431D01*
X110617000Y-76974440D01*
X112395000Y-76974440D01*
X112630317Y-76930162D01*
X112846441Y-76791090D01*
X112991431Y-76578890D01*
X113042440Y-76327000D01*
X113042440Y-75739812D01*
X115061736Y-75739812D01*
X115293262Y-76300149D01*
X115721596Y-76729231D01*
X116281528Y-76961735D01*
X116887812Y-76962264D01*
X117448149Y-76730738D01*
X117877231Y-76302404D01*
X118109735Y-75742472D01*
X118110264Y-75136188D01*
X117878738Y-74575851D01*
X117851934Y-74549000D01*
X124701560Y-74549000D01*
X124701560Y-76327000D01*
X124745838Y-76562317D01*
X124884910Y-76778441D01*
X125097110Y-76923431D01*
X125349000Y-76974440D01*
X127127000Y-76974440D01*
X127362317Y-76930162D01*
X127578441Y-76791090D01*
X127723431Y-76578890D01*
X127774440Y-76327000D01*
X127774440Y-75739812D01*
X129793736Y-75739812D01*
X130025262Y-76300149D01*
X130453596Y-76729231D01*
X131013528Y-76961735D01*
X131619812Y-76962264D01*
X132180149Y-76730738D01*
X132609231Y-76302404D01*
X132645320Y-76215492D01*
X132874603Y-75872346D01*
X132961000Y-75438000D01*
X132874603Y-75003654D01*
X132646362Y-74662067D01*
X132610738Y-74575851D01*
X132182404Y-74146769D01*
X131622472Y-73914265D01*
X131016188Y-73913736D01*
X130455851Y-74145262D01*
X130026769Y-74573596D01*
X129794265Y-75133528D01*
X129793736Y-75739812D01*
X127774440Y-75739812D01*
X127774440Y-74549000D01*
X127730162Y-74313683D01*
X127591090Y-74097559D01*
X127378890Y-73952569D01*
X127127000Y-73901560D01*
X125349000Y-73901560D01*
X125113683Y-73945838D01*
X124897559Y-74084910D01*
X124752569Y-74297110D01*
X124701560Y-74549000D01*
X117851934Y-74549000D01*
X117450404Y-74146769D01*
X116890472Y-73914265D01*
X116284188Y-73913736D01*
X115723851Y-74145262D01*
X115294769Y-74573596D01*
X115062265Y-75133528D01*
X115061736Y-75739812D01*
X113042440Y-75739812D01*
X113042440Y-74549000D01*
X112998162Y-74313683D01*
X112859090Y-74097559D01*
X112646890Y-73952569D01*
X112395000Y-73901560D01*
X110617000Y-73901560D01*
X110381683Y-73945838D01*
X110165559Y-74084910D01*
X110020569Y-74297110D01*
X109969560Y-74549000D01*
X107530163Y-74549000D01*
X107659938Y-74236467D01*
X107660940Y-73088569D01*
X107222583Y-72027665D01*
X106411604Y-71215269D01*
X105351467Y-70775062D01*
X104203569Y-70774060D01*
X103142665Y-71212417D01*
X102691000Y-71663294D01*
X102691000Y-70622086D01*
X107124269Y-70622086D01*
X107326854Y-71112380D01*
X107701647Y-71487827D01*
X108191587Y-71691268D01*
X108722086Y-71691731D01*
X109212380Y-71489146D01*
X109587827Y-71114353D01*
X109791268Y-70624413D01*
X109791270Y-70622086D01*
X118300269Y-70622086D01*
X118502854Y-71112380D01*
X118877647Y-71487827D01*
X119367587Y-71691268D01*
X119898086Y-71691731D01*
X120388380Y-71489146D01*
X120763827Y-71114353D01*
X120967268Y-70624413D01*
X120967270Y-70622086D01*
X121856269Y-70622086D01*
X122058854Y-71112380D01*
X122433647Y-71487827D01*
X122923587Y-71691268D01*
X123454086Y-71691731D01*
X123944380Y-71489146D01*
X124319827Y-71114353D01*
X124523268Y-70624413D01*
X124523270Y-70622086D01*
X133032269Y-70622086D01*
X133234854Y-71112380D01*
X133609647Y-71487827D01*
X134099587Y-71691268D01*
X134630086Y-71691731D01*
X135120380Y-71489146D01*
X135495827Y-71114353D01*
X135699268Y-70624413D01*
X135699731Y-70093914D01*
X135497146Y-69603620D01*
X135122353Y-69228173D01*
X134632413Y-69024732D01*
X134101914Y-69024269D01*
X133611620Y-69226854D01*
X133236173Y-69601647D01*
X133032732Y-70091587D01*
X133032269Y-70622086D01*
X124523270Y-70622086D01*
X124523731Y-70093914D01*
X124321146Y-69603620D01*
X123946353Y-69228173D01*
X123456413Y-69024732D01*
X122925914Y-69024269D01*
X122435620Y-69226854D01*
X122060173Y-69601647D01*
X121856732Y-70091587D01*
X121856269Y-70622086D01*
X120967270Y-70622086D01*
X120967731Y-70093914D01*
X120765146Y-69603620D01*
X120390353Y-69228173D01*
X119900413Y-69024732D01*
X119369914Y-69024269D01*
X118879620Y-69226854D01*
X118504173Y-69601647D01*
X118300732Y-70091587D01*
X118300269Y-70622086D01*
X109791270Y-70622086D01*
X109791731Y-70093914D01*
X109589146Y-69603620D01*
X109214353Y-69228173D01*
X108724413Y-69024732D01*
X108193914Y-69024269D01*
X107703620Y-69226854D01*
X107328173Y-69601647D01*
X107124732Y-70091587D01*
X107124269Y-70622086D01*
X102691000Y-70622086D01*
X102691000Y-48732553D01*
X103138396Y-49180731D01*
X104198533Y-49620938D01*
X105346431Y-49621940D01*
X106407335Y-49183583D01*
X107219731Y-48372604D01*
X107659938Y-47312467D01*
X107660940Y-46164569D01*
X107222583Y-45103665D01*
X106771706Y-44652000D01*
X137160000Y-44652000D01*
X137160000Y-52086000D01*
X137160000Y-52086000D01*
G37*
X137160000Y-52086000D02*
X128905005Y-52086000D01*
X128905000Y-52085999D01*
X128904995Y-52086000D01*
X125603005Y-52086000D01*
X125603000Y-52085999D01*
X125602995Y-52086000D01*
X113887505Y-52086000D01*
X113887500Y-52085999D01*
X113347956Y-52193322D01*
X113261813Y-52210457D01*
X112731380Y-52564880D01*
X112731378Y-52564883D01*
X108317880Y-56978380D01*
X107963457Y-57508812D01*
X107838999Y-58134500D01*
X107839000Y-58134505D01*
X107839000Y-59563000D01*
X105410000Y-59563000D01*
X105363841Y-59571685D01*
X105321447Y-59598965D01*
X105293006Y-59640590D01*
X105283000Y-59690000D01*
X105283000Y-67691000D01*
X105291685Y-67737159D01*
X105318965Y-67779553D01*
X105360590Y-67807994D01*
X105410000Y-67818000D01*
X134912581Y-67818000D01*
X135064841Y-67881224D01*
X135696388Y-67881775D01*
X135850735Y-67818000D01*
X137160000Y-67818000D01*
X137160000Y-82677000D01*
X137170006Y-82726410D01*
X137198447Y-82768035D01*
X137240841Y-82795315D01*
X137287000Y-82804000D01*
X139546760Y-82804000D01*
X141845880Y-85103120D01*
X142047438Y-85237797D01*
X142101579Y-85292032D01*
X142172977Y-85321679D01*
X142376312Y-85457543D01*
X142614066Y-85504836D01*
X142684841Y-85534224D01*
X142762150Y-85534291D01*
X143002000Y-85582001D01*
X143239756Y-85534708D01*
X143316388Y-85534775D01*
X143387838Y-85505252D01*
X143627688Y-85457543D01*
X143829245Y-85322867D01*
X143900072Y-85293602D01*
X143954786Y-85238983D01*
X144158120Y-85103120D01*
X144292797Y-84901562D01*
X144347032Y-84847421D01*
X144376679Y-84776023D01*
X144512543Y-84572688D01*
X144559836Y-84334934D01*
X144589224Y-84264159D01*
X144589291Y-84186850D01*
X144637001Y-83947000D01*
X144589708Y-83709244D01*
X144589775Y-83632612D01*
X144560252Y-83561162D01*
X144512543Y-83321312D01*
X144377867Y-83119755D01*
X144348602Y-83048928D01*
X144293983Y-82994214D01*
X144166886Y-82804000D01*
X151774948Y-82804000D01*
X151983861Y-82943591D01*
X152196322Y-83085553D01*
X152822010Y-83210010D01*
X153035000Y-83210010D01*
X153035000Y-90170000D01*
X153043685Y-90216159D01*
X153070965Y-90258553D01*
X153112590Y-90286994D01*
X153162000Y-90297000D01*
X155858122Y-90297000D01*
X155894610Y-90321931D01*
X156146500Y-90372940D01*
X158051500Y-90372940D01*
X158286817Y-90328662D01*
X158336021Y-90297000D01*
X159540000Y-90297000D01*
X159540000Y-99928010D01*
X159539803Y-100153775D01*
X159712233Y-100571086D01*
X160031235Y-100890645D01*
X160448244Y-101063803D01*
X160899775Y-101064197D01*
X161030486Y-101010188D01*
X170060417Y-101010188D01*
X170122071Y-101245800D01*
X170622480Y-101421927D01*
X171152199Y-101393148D01*
X171507929Y-101245800D01*
X171569583Y-101010188D01*
X172346417Y-101010188D01*
X172408071Y-101245800D01*
X172908480Y-101421927D01*
X173438199Y-101393148D01*
X173793929Y-101245800D01*
X173855583Y-101010188D01*
X173101000Y-100255605D01*
X172346417Y-101010188D01*
X171569583Y-101010188D01*
X170815000Y-100255605D01*
X170060417Y-101010188D01*
X161030486Y-101010188D01*
X161317086Y-100891767D01*
X161636645Y-100572765D01*
X161809803Y-100155756D01*
X161810040Y-99883480D01*
X169469073Y-99883480D01*
X169497852Y-100413199D01*
X169645200Y-100768929D01*
X169880812Y-100830583D01*
X170635395Y-100076000D01*
X170994605Y-100076000D01*
X171749188Y-100830583D01*
X171958000Y-100775942D01*
X172166812Y-100830583D01*
X172921395Y-100076000D01*
X173280605Y-100076000D01*
X174035188Y-100830583D01*
X174270800Y-100768929D01*
X174446927Y-100268520D01*
X174418148Y-99738801D01*
X174270800Y-99383071D01*
X174035188Y-99321417D01*
X173280605Y-100076000D01*
X172921395Y-100076000D01*
X172166812Y-99321417D01*
X171958000Y-99376058D01*
X171749188Y-99321417D01*
X170994605Y-100076000D01*
X170635395Y-100076000D01*
X169880812Y-99321417D01*
X169645200Y-99383071D01*
X169469073Y-99883480D01*
X161810040Y-99883480D01*
X161810197Y-99704225D01*
X161810000Y-99703748D01*
X161810000Y-99141812D01*
X170060417Y-99141812D01*
X170815000Y-99896395D01*
X171569583Y-99141812D01*
X172346417Y-99141812D01*
X173101000Y-99896395D01*
X173855583Y-99141812D01*
X173793929Y-98906200D01*
X173293520Y-98730073D01*
X172763801Y-98758852D01*
X172408071Y-98906200D01*
X172346417Y-99141812D01*
X171569583Y-99141812D01*
X171507929Y-98906200D01*
X171007520Y-98730073D01*
X170477801Y-98758852D01*
X170122071Y-98906200D01*
X170060417Y-99141812D01*
X161810000Y-99141812D01*
X161810000Y-89657195D01*
X162055204Y-89902827D01*
X162545144Y-90106268D01*
X163075643Y-90106731D01*
X163565937Y-89904146D01*
X163941384Y-89529353D01*
X164144825Y-89039413D01*
X164145288Y-88508914D01*
X163942703Y-88018620D01*
X163567910Y-87643173D01*
X163503485Y-87616422D01*
X165148907Y-85971000D01*
X175272272Y-85971000D01*
X175525600Y-86140268D01*
X170538448Y-91127420D01*
X170060620Y-91324854D01*
X169685173Y-91699647D01*
X169481732Y-92189587D01*
X169481269Y-92720086D01*
X169683854Y-93210380D01*
X170058647Y-93585827D01*
X170548587Y-93789268D01*
X171079086Y-93789731D01*
X171569380Y-93587146D01*
X171944827Y-93212353D01*
X171957780Y-93181159D01*
X171969854Y-93210380D01*
X172344647Y-93585827D01*
X172834587Y-93789268D01*
X173365086Y-93789731D01*
X173855380Y-93587146D01*
X174230827Y-93212353D01*
X174434268Y-92722413D01*
X174434731Y-92191914D01*
X174232146Y-91701620D01*
X173857353Y-91326173D01*
X173640150Y-91235982D01*
X178595598Y-86280534D01*
X178689000Y-86299113D01*
X179238151Y-86189880D01*
X179703698Y-85878811D01*
X179959000Y-85496725D01*
X180214302Y-85878811D01*
X180679849Y-86189880D01*
X181229000Y-86299113D01*
X181778151Y-86189880D01*
X182243698Y-85878811D01*
X182499000Y-85496725D01*
X182634000Y-85698767D01*
X182634000Y-89445867D01*
X181051717Y-91028151D01*
X180679849Y-91102120D01*
X180214302Y-91413189D01*
X179959000Y-91795275D01*
X179703698Y-91413189D01*
X179238151Y-91102120D01*
X178689000Y-90992887D01*
X178139849Y-91102120D01*
X177674302Y-91413189D01*
X177577899Y-91557465D01*
X177552162Y-91420683D01*
X177413090Y-91204559D01*
X177200890Y-91059569D01*
X176949000Y-91008560D01*
X175349000Y-91008560D01*
X175113683Y-91052838D01*
X174897559Y-91191910D01*
X174752569Y-91404110D01*
X174701560Y-91656000D01*
X174701560Y-93256000D01*
X174745838Y-93491317D01*
X174884910Y-93707441D01*
X175097110Y-93852431D01*
X175349000Y-93903440D01*
X176949000Y-93903440D01*
X177184317Y-93859162D01*
X177400441Y-93720090D01*
X177545431Y-93507890D01*
X177576815Y-93352911D01*
X177674302Y-93498811D01*
X178139849Y-93809880D01*
X178689000Y-93919113D01*
X179238151Y-93809880D01*
X179703698Y-93498811D01*
X179959000Y-93116725D01*
X180214302Y-93498811D01*
X180679849Y-93809880D01*
X181229000Y-93919113D01*
X181778151Y-93809880D01*
X182243698Y-93498811D01*
X182499000Y-93116725D01*
X182754302Y-93498811D01*
X183219849Y-93809880D01*
X183769000Y-93919113D01*
X184318151Y-93809880D01*
X184783698Y-93498811D01*
X185094767Y-93033264D01*
X185204000Y-92484113D01*
X185204000Y-92427887D01*
X185094767Y-91878736D01*
X184783698Y-91413189D01*
X184318151Y-91102120D01*
X184209604Y-91080529D01*
X184571566Y-90718567D01*
X184817603Y-90350346D01*
X184829942Y-90288315D01*
X184904000Y-89916000D01*
X184904000Y-85698767D01*
X185094767Y-85413264D01*
X185204000Y-84864113D01*
X185204000Y-84807887D01*
X185094767Y-84258736D01*
X184783698Y-83793189D01*
X184318151Y-83482120D01*
X183769000Y-83372887D01*
X183219849Y-83482120D01*
X182754302Y-83793189D01*
X182499000Y-84175275D01*
X182243698Y-83793189D01*
X181778151Y-83482120D01*
X181229000Y-83372887D01*
X180679849Y-83482120D01*
X180214302Y-83793189D01*
X179959000Y-84175275D01*
X179703698Y-83793189D01*
X179238151Y-83482120D01*
X178689000Y-83372887D01*
X178139849Y-83482120D01*
X177674302Y-83793189D01*
X177419000Y-84175275D01*
X177163698Y-83793189D01*
X176698151Y-83482120D01*
X176149000Y-83372887D01*
X175599849Y-83482120D01*
X175272272Y-83701000D01*
X164678775Y-83701000D01*
X164244429Y-83787397D01*
X163881483Y-84029910D01*
X163876209Y-84033434D01*
X161290000Y-86619643D01*
X161290000Y-82804000D01*
X199061000Y-82804000D01*
X199061000Y-109509447D01*
X198613604Y-109061269D01*
X197553467Y-108621062D01*
X196405569Y-108620060D01*
X195344665Y-109058417D01*
X194532269Y-109869396D01*
X194092062Y-110929533D01*
X194091060Y-112077431D01*
X194529417Y-113138335D01*
X194980294Y-113590000D01*
X149570331Y-113590000D01*
X150145731Y-113015604D01*
X150585938Y-111955467D01*
X150586940Y-110807569D01*
X150148583Y-109746665D01*
X149337604Y-108934269D01*
X148277467Y-108494062D01*
X147129569Y-108493060D01*
X146068665Y-108931417D01*
X145256269Y-109742396D01*
X144816062Y-110802533D01*
X144815060Y-111950431D01*
X145253417Y-113011335D01*
X145831073Y-113590000D01*
X136377372Y-113590000D01*
X138594787Y-111372584D01*
X138594790Y-111372582D01*
X138786633Y-111085467D01*
X138816649Y-110934569D01*
X138850855Y-110762608D01*
X139269551Y-110344643D01*
X139503733Y-109780670D01*
X139504265Y-109170009D01*
X139271068Y-108605629D01*
X138889818Y-108223712D01*
X139269551Y-107844643D01*
X139503733Y-107280670D01*
X139504265Y-106670009D01*
X139271068Y-106105629D01*
X138839643Y-105673449D01*
X138275670Y-105439267D01*
X137995000Y-105439022D01*
X137995000Y-102235000D01*
X147307560Y-102235000D01*
X147307560Y-104013000D01*
X147351838Y-104248317D01*
X147490910Y-104464441D01*
X147703110Y-104609431D01*
X147955000Y-104660440D01*
X149733000Y-104660440D01*
X149968317Y-104616162D01*
X150184441Y-104477090D01*
X150329431Y-104264890D01*
X150380440Y-104013000D01*
X150380440Y-102235000D01*
X150336162Y-101999683D01*
X150197090Y-101783559D01*
X149984890Y-101638569D01*
X149733000Y-101587560D01*
X147955000Y-101587560D01*
X147719683Y-101631838D01*
X147503559Y-101770910D01*
X147358569Y-101983110D01*
X147307560Y-102235000D01*
X137995000Y-102235000D01*
X137995000Y-98562086D01*
X138366269Y-98562086D01*
X138568854Y-99052380D01*
X138943647Y-99427827D01*
X139433587Y-99631268D01*
X139964086Y-99631731D01*
X140401281Y-99451086D01*
X141668269Y-99451086D01*
X141870854Y-99941380D01*
X142245647Y-100316827D01*
X142735587Y-100520268D01*
X143266086Y-100520731D01*
X143756380Y-100318146D01*
X144131827Y-99943353D01*
X144335268Y-99453413D01*
X144335562Y-99116196D01*
X147951409Y-99116196D01*
X148036467Y-99371539D01*
X148605965Y-99579516D01*
X149211700Y-99553723D01*
X149651533Y-99371539D01*
X149736591Y-99116196D01*
X148844000Y-98223605D01*
X147951409Y-99116196D01*
X144335562Y-99116196D01*
X144335731Y-98922914D01*
X144133146Y-98432620D01*
X143758353Y-98057173D01*
X143268413Y-97853732D01*
X142737914Y-97853269D01*
X142247620Y-98055854D01*
X141872173Y-98430647D01*
X141668732Y-98920587D01*
X141668269Y-99451086D01*
X140401281Y-99451086D01*
X140454380Y-99429146D01*
X140829827Y-99054353D01*
X141033268Y-98564413D01*
X141033731Y-98033914D01*
X140939545Y-97805965D01*
X147308484Y-97805965D01*
X147334277Y-98411700D01*
X147516461Y-98851533D01*
X147771804Y-98936591D01*
X148664395Y-98044000D01*
X149023605Y-98044000D01*
X149916196Y-98936591D01*
X150171539Y-98851533D01*
X150379516Y-98282035D01*
X150353723Y-97676300D01*
X150171539Y-97236467D01*
X149916196Y-97151409D01*
X149023605Y-98044000D01*
X148664395Y-98044000D01*
X147771804Y-97151409D01*
X147516461Y-97236467D01*
X147308484Y-97805965D01*
X140939545Y-97805965D01*
X140831146Y-97543620D01*
X140456353Y-97168173D01*
X139983445Y-96971804D01*
X147951409Y-96971804D01*
X148844000Y-97864395D01*
X149736591Y-96971804D01*
X149651533Y-96716461D01*
X149082035Y-96508484D01*
X148476300Y-96534277D01*
X148036467Y-96716461D01*
X147951409Y-96971804D01*
X139983445Y-96971804D01*
X139966413Y-96964732D01*
X139435914Y-96964269D01*
X138945620Y-97166854D01*
X138570173Y-97541647D01*
X138366732Y-98031587D01*
X138366269Y-98562086D01*
X137995000Y-98562086D01*
X137995000Y-96681666D01*
X138289827Y-96387353D01*
X138493268Y-95897413D01*
X138493731Y-95366914D01*
X138291146Y-94876620D01*
X137934898Y-94519750D01*
X148971000Y-94519750D01*
X148971000Y-95249309D01*
X149067673Y-95482698D01*
X149246301Y-95661327D01*
X149479690Y-95758000D01*
X150209250Y-95758000D01*
X150368000Y-95599250D01*
X150368000Y-94361000D01*
X150622000Y-94361000D01*
X150622000Y-95599250D01*
X150780750Y-95758000D01*
X151510310Y-95758000D01*
X151743699Y-95661327D01*
X151922327Y-95482698D01*
X152019000Y-95249309D01*
X152019000Y-94519750D01*
X151860250Y-94361000D01*
X150622000Y-94361000D01*
X150368000Y-94361000D01*
X149129750Y-94361000D01*
X148971000Y-94519750D01*
X137934898Y-94519750D01*
X137916353Y-94501173D01*
X137426413Y-94297732D01*
X137007234Y-94297366D01*
X136861434Y-94151566D01*
X136794736Y-94107000D01*
X136590541Y-93970561D01*
X136271000Y-93907000D01*
X136191200Y-93907000D01*
X136194440Y-93891000D01*
X136194440Y-93218691D01*
X148971000Y-93218691D01*
X148971000Y-93948250D01*
X149129750Y-94107000D01*
X150368000Y-94107000D01*
X150368000Y-92868750D01*
X150622000Y-92868750D01*
X150622000Y-94107000D01*
X151860250Y-94107000D01*
X152019000Y-93948250D01*
X152019000Y-93218691D01*
X151922327Y-92985302D01*
X151784112Y-92847086D01*
X154878712Y-92847086D01*
X155081297Y-93337380D01*
X155456090Y-93712827D01*
X155946030Y-93916268D01*
X156476529Y-93916731D01*
X156966823Y-93714146D01*
X157342270Y-93339353D01*
X157545711Y-92849413D01*
X157546174Y-92318914D01*
X157343589Y-91828620D01*
X156968796Y-91453173D01*
X156478856Y-91249732D01*
X155948357Y-91249269D01*
X155458063Y-91451854D01*
X155082616Y-91826647D01*
X154879175Y-92316587D01*
X154878712Y-92847086D01*
X151784112Y-92847086D01*
X151743699Y-92806673D01*
X151510310Y-92710000D01*
X150780750Y-92710000D01*
X150622000Y-92868750D01*
X150368000Y-92868750D01*
X150209250Y-92710000D01*
X149479690Y-92710000D01*
X149246301Y-92806673D01*
X149067673Y-92985302D01*
X148971000Y-93218691D01*
X136194440Y-93218691D01*
X136194440Y-92291000D01*
X136150162Y-92055683D01*
X136011090Y-91839559D01*
X135798890Y-91694569D01*
X135643911Y-91663185D01*
X135789811Y-91565698D01*
X136100880Y-91100151D01*
X136132321Y-90942086D01*
X138366269Y-90942086D01*
X138568854Y-91432380D01*
X138943647Y-91807827D01*
X139433587Y-92011268D01*
X139964086Y-92011731D01*
X140454380Y-91809146D01*
X140829827Y-91434353D01*
X141033268Y-90944413D01*
X141033731Y-90413914D01*
X140831146Y-89923620D01*
X140456353Y-89548173D01*
X139966413Y-89344732D01*
X139435914Y-89344269D01*
X138945620Y-89546854D01*
X138570173Y-89921647D01*
X138366732Y-90411587D01*
X138366269Y-90942086D01*
X136132321Y-90942086D01*
X136210113Y-90551000D01*
X136100880Y-90001849D01*
X135789811Y-89536302D01*
X135385297Y-89266014D01*
X135602134Y-89163389D01*
X135978041Y-88748423D01*
X135999971Y-88695477D01*
X136028854Y-88765380D01*
X136403647Y-89140827D01*
X136893587Y-89344268D01*
X137424086Y-89344731D01*
X137914380Y-89142146D01*
X138289827Y-88767353D01*
X138493268Y-88277413D01*
X138493445Y-88074500D01*
X141402060Y-88074500D01*
X141402060Y-89979500D01*
X141446338Y-90214817D01*
X141585410Y-90430941D01*
X141797610Y-90575931D01*
X142049500Y-90626940D01*
X142056201Y-90626940D01*
X141872173Y-90810647D01*
X141668732Y-91300587D01*
X141668269Y-91831086D01*
X141870854Y-92321380D01*
X142245647Y-92696827D01*
X142735587Y-92900268D01*
X143266086Y-92900731D01*
X143756380Y-92698146D01*
X144131827Y-92323353D01*
X144335268Y-91833413D01*
X144335731Y-91302914D01*
X144133146Y-90812620D01*
X143947789Y-90626940D01*
X143954500Y-90626940D01*
X144189817Y-90582662D01*
X144405941Y-90443590D01*
X144550931Y-90231390D01*
X144601940Y-89979500D01*
X144601940Y-89455812D01*
X148970736Y-89455812D01*
X149202262Y-90016149D01*
X149630596Y-90445231D01*
X150190528Y-90677735D01*
X150796812Y-90678264D01*
X151357149Y-90446738D01*
X151786231Y-90018404D01*
X152018735Y-89458472D01*
X152019264Y-88852188D01*
X151787738Y-88291851D01*
X151359404Y-87862769D01*
X150799472Y-87630265D01*
X150193188Y-87629736D01*
X149632851Y-87861262D01*
X149203769Y-88289596D01*
X148971265Y-88849528D01*
X148970736Y-89455812D01*
X144601940Y-89455812D01*
X144601940Y-88074500D01*
X144557662Y-87839183D01*
X144418590Y-87623059D01*
X144206390Y-87478069D01*
X143954500Y-87427060D01*
X142049500Y-87427060D01*
X141814183Y-87471338D01*
X141598059Y-87610410D01*
X141453069Y-87822610D01*
X141402060Y-88074500D01*
X138493445Y-88074500D01*
X138493731Y-87746914D01*
X138291146Y-87256620D01*
X137916353Y-86881173D01*
X137426413Y-86677732D01*
X136895914Y-86677269D01*
X136405620Y-86879854D01*
X136030173Y-87254647D01*
X136000149Y-87326953D01*
X135978041Y-87273577D01*
X135602134Y-86858611D01*
X135385297Y-86755986D01*
X135789811Y-86485698D01*
X136100880Y-86020151D01*
X136210113Y-85471000D01*
X136100880Y-84921849D01*
X135789811Y-84456302D01*
X135324264Y-84145233D01*
X134775113Y-84036000D01*
X134718887Y-84036000D01*
X134169736Y-84145233D01*
X133704189Y-84456302D01*
X133393120Y-84921849D01*
X133283887Y-85471000D01*
X133393120Y-86020151D01*
X133704189Y-86485698D01*
X134108703Y-86755986D01*
X133891866Y-86858611D01*
X133515959Y-87273577D01*
X133355096Y-87661961D01*
X133477085Y-87884000D01*
X134620000Y-87884000D01*
X134620000Y-87864000D01*
X134874000Y-87864000D01*
X134874000Y-87884000D01*
X134894000Y-87884000D01*
X134894000Y-88138000D01*
X134874000Y-88138000D01*
X134874000Y-88158000D01*
X134620000Y-88158000D01*
X134620000Y-88138000D01*
X133477085Y-88138000D01*
X133355096Y-88360039D01*
X133515959Y-88748423D01*
X133891866Y-89163389D01*
X134108703Y-89266014D01*
X133704189Y-89536302D01*
X133393120Y-90001849D01*
X133283887Y-90551000D01*
X133393120Y-91100151D01*
X133704189Y-91565698D01*
X133848465Y-91662101D01*
X133711683Y-91687838D01*
X133495559Y-91826910D01*
X133350569Y-92039110D01*
X133299560Y-92291000D01*
X133299560Y-93891000D01*
X133302571Y-93907000D01*
X128302577Y-93907000D01*
X128480880Y-93640151D01*
X128590113Y-93091000D01*
X128480880Y-92541849D01*
X128169811Y-92076302D01*
X127787725Y-91821000D01*
X128169811Y-91565698D01*
X128480880Y-91100151D01*
X128590113Y-90551000D01*
X128480880Y-90001849D01*
X128169811Y-89536302D01*
X127787725Y-89281000D01*
X128169811Y-89025698D01*
X128480880Y-88560151D01*
X128590113Y-88011000D01*
X128480880Y-87461849D01*
X128169811Y-86996302D01*
X127765297Y-86726014D01*
X127982134Y-86623389D01*
X128358041Y-86208423D01*
X128518904Y-85820039D01*
X128396915Y-85598000D01*
X127254000Y-85598000D01*
X127254000Y-85618000D01*
X127000000Y-85618000D01*
X127000000Y-85598000D01*
X126980000Y-85598000D01*
X126980000Y-85344000D01*
X127000000Y-85344000D01*
X127000000Y-84200371D01*
X127254000Y-84200371D01*
X127254000Y-85344000D01*
X128396915Y-85344000D01*
X128518904Y-85121961D01*
X128358041Y-84733577D01*
X127982134Y-84318611D01*
X127476041Y-84079086D01*
X127254000Y-84200371D01*
X127000000Y-84200371D01*
X126777959Y-84079086D01*
X126271866Y-84318611D01*
X125895959Y-84733577D01*
X125816373Y-84925728D01*
X125704961Y-84365622D01*
X125383054Y-83883853D01*
X124901285Y-83561946D01*
X124333000Y-83448907D01*
X123764715Y-83561946D01*
X123282946Y-83883853D01*
X123255150Y-83925452D01*
X123246162Y-83877683D01*
X123107090Y-83661559D01*
X122894890Y-83516569D01*
X122643000Y-83465560D01*
X120943000Y-83465560D01*
X120707683Y-83509838D01*
X120491559Y-83648910D01*
X120346569Y-83861110D01*
X120295560Y-84113000D01*
X120295560Y-85813000D01*
X120339838Y-86048317D01*
X120478910Y-86264441D01*
X120691110Y-86409431D01*
X120943000Y-86460440D01*
X122643000Y-86460440D01*
X122878317Y-86416162D01*
X123094441Y-86277090D01*
X123239431Y-86064890D01*
X123253086Y-85997459D01*
X123282946Y-86042147D01*
X123764715Y-86364054D01*
X124333000Y-86477093D01*
X124901285Y-86364054D01*
X125383054Y-86042147D01*
X125692000Y-85579776D01*
X125692000Y-85598002D01*
X125857084Y-85598002D01*
X125735096Y-85820039D01*
X125895959Y-86208423D01*
X126271866Y-86623389D01*
X126488703Y-86726014D01*
X126084189Y-86996302D01*
X125773120Y-87461849D01*
X125666512Y-87997803D01*
X125666731Y-87746914D01*
X125464146Y-87256620D01*
X125089353Y-86881173D01*
X124599413Y-86677732D01*
X124068914Y-86677269D01*
X123578620Y-86879854D01*
X123203173Y-87254647D01*
X123126563Y-87439144D01*
X123051146Y-87256620D01*
X122676353Y-86881173D01*
X122186413Y-86677732D01*
X121655914Y-86677269D01*
X121165620Y-86879854D01*
X120790173Y-87254647D01*
X120586732Y-87744587D01*
X120586269Y-88275086D01*
X120788854Y-88765380D01*
X121163647Y-89140827D01*
X121653587Y-89344268D01*
X122184086Y-89344731D01*
X122674380Y-89142146D01*
X123049827Y-88767353D01*
X123126437Y-88582856D01*
X123201854Y-88765380D01*
X123576647Y-89140827D01*
X123914446Y-89281094D01*
X123578620Y-89419854D01*
X123203173Y-89794647D01*
X122999732Y-90284587D01*
X122999269Y-90815086D01*
X123201854Y-91305380D01*
X123576647Y-91680827D01*
X124066587Y-91884268D01*
X124597086Y-91884731D01*
X125087380Y-91682146D01*
X125462827Y-91307353D01*
X125666268Y-90817413D01*
X125666489Y-90564082D01*
X125773120Y-91100151D01*
X126084189Y-91565698D01*
X126466275Y-91821000D01*
X126084189Y-92076302D01*
X125773120Y-92541849D01*
X125663887Y-93091000D01*
X125773120Y-93640151D01*
X125951423Y-93907000D01*
X122809000Y-93907000D01*
X122489459Y-93970561D01*
X122285264Y-94107000D01*
X122218566Y-94151566D01*
X122072499Y-94297633D01*
X121655914Y-94297269D01*
X121165620Y-94499854D01*
X120790173Y-94874647D01*
X120586732Y-95364587D01*
X120586269Y-95895086D01*
X120788854Y-96385380D01*
X121163647Y-96760827D01*
X121653587Y-96964268D01*
X122184086Y-96964731D01*
X122674380Y-96762146D01*
X123049827Y-96387353D01*
X123253268Y-95897413D01*
X123253548Y-95577000D01*
X125930146Y-95577000D01*
X125743173Y-95763647D01*
X125539732Y-96253587D01*
X125539269Y-96784086D01*
X125741854Y-97274380D01*
X125991260Y-97524221D01*
X126042563Y-97782132D01*
X126055367Y-97846503D01*
X126247210Y-98133618D01*
X129041501Y-100927908D01*
X129041501Y-103943702D01*
X128962701Y-104022501D01*
X124025504Y-104022501D01*
X124025499Y-104022500D01*
X123704942Y-104086264D01*
X123686824Y-104089868D01*
X123399709Y-104281711D01*
X123399707Y-104281714D01*
X119590990Y-108090431D01*
X119591301Y-107733401D01*
X119327719Y-107095485D01*
X118840082Y-106606996D01*
X118202627Y-106342301D01*
X117512401Y-106341699D01*
X117413248Y-106382668D01*
X117190999Y-106160419D01*
X117190999Y-105679498D01*
X117509373Y-105811699D01*
X118199599Y-105812301D01*
X118837515Y-105548719D01*
X119326004Y-105061082D01*
X119590699Y-104423627D01*
X119591301Y-103733401D01*
X119327719Y-103095485D01*
X119153139Y-102920599D01*
X120320699Y-102920599D01*
X120584281Y-103558515D01*
X121071918Y-104047004D01*
X121709373Y-104311699D01*
X122399599Y-104312301D01*
X123037515Y-104048719D01*
X123526004Y-103561082D01*
X123790699Y-102923627D01*
X123791301Y-102233401D01*
X123527719Y-101595485D01*
X123040082Y-101106996D01*
X122402627Y-100842301D01*
X121712401Y-100841699D01*
X121074485Y-101105281D01*
X120585996Y-101592918D01*
X120321301Y-102230373D01*
X120320699Y-102920599D01*
X119153139Y-102920599D01*
X118840082Y-102606996D01*
X118202627Y-102342301D01*
X117512401Y-102341699D01*
X117190999Y-102474500D01*
X117190999Y-98944581D01*
X118536150Y-97599429D01*
X118882086Y-97599731D01*
X119372380Y-97397146D01*
X119747827Y-97022353D01*
X119951268Y-96532413D01*
X119951731Y-96001914D01*
X119749146Y-95511620D01*
X119374353Y-95136173D01*
X118884413Y-94932732D01*
X118353914Y-94932269D01*
X117863620Y-95134854D01*
X117488173Y-95509647D01*
X117347906Y-95847446D01*
X117209146Y-95511620D01*
X116834353Y-95136173D01*
X116344413Y-94932732D01*
X115813914Y-94932269D01*
X115323620Y-95134854D01*
X114948173Y-95509647D01*
X114807906Y-95847446D01*
X114669146Y-95511620D01*
X114294353Y-95136173D01*
X113804413Y-94932732D01*
X113273914Y-94932269D01*
X112783620Y-95134854D01*
X112408173Y-95509647D01*
X112267906Y-95847446D01*
X112129146Y-95511620D01*
X111754353Y-95136173D01*
X111264413Y-94932732D01*
X110733914Y-94932269D01*
X110243620Y-95134854D01*
X109868173Y-95509647D01*
X109664732Y-95999587D01*
X109664269Y-96530086D01*
X109866854Y-97020380D01*
X110241647Y-97395827D01*
X110731587Y-97599268D01*
X111262086Y-97599731D01*
X111752380Y-97397146D01*
X112127827Y-97022353D01*
X112268094Y-96684554D01*
X112406854Y-97020380D01*
X112781647Y-97395827D01*
X113271587Y-97599268D01*
X113802086Y-97599731D01*
X114292380Y-97397146D01*
X114667827Y-97022353D01*
X114808094Y-96684554D01*
X114946854Y-97020380D01*
X115321647Y-97395827D01*
X115811587Y-97599268D01*
X116032959Y-97599461D01*
X115680209Y-97952211D01*
X115488366Y-98239326D01*
X115488366Y-98239327D01*
X115420998Y-98578001D01*
X115420999Y-98578006D01*
X115420999Y-106526994D01*
X115420998Y-106526999D01*
X115462042Y-106733336D01*
X115488366Y-106865674D01*
X115640205Y-107092918D01*
X115680209Y-107152789D01*
X116161348Y-107633928D01*
X116121301Y-107730373D01*
X116121245Y-107794293D01*
X115925346Y-107663397D01*
X115491000Y-107577000D01*
X112556204Y-107577000D01*
X112306363Y-107326722D01*
X111705648Y-107077284D01*
X111055205Y-107076716D01*
X110454057Y-107325106D01*
X109993722Y-107784637D01*
X109744284Y-108385352D01*
X109743716Y-109035795D01*
X109992106Y-109636943D01*
X110451637Y-110097278D01*
X111052352Y-110346716D01*
X111702795Y-110347284D01*
X112303943Y-110098894D01*
X112556278Y-109847000D01*
X115020868Y-109847000D01*
X116121112Y-110947244D01*
X116120699Y-111420599D01*
X116384281Y-112058515D01*
X116470615Y-112145000D01*
X106030579Y-112145000D01*
X103882000Y-109996420D01*
X103882000Y-109035795D01*
X104143716Y-109035795D01*
X104392106Y-109636943D01*
X104851637Y-110097278D01*
X105452352Y-110346716D01*
X106102795Y-110347284D01*
X106703943Y-110098894D01*
X107164278Y-109639363D01*
X107413716Y-109038648D01*
X107414284Y-108388205D01*
X107165894Y-107787057D01*
X106706363Y-107326722D01*
X106105648Y-107077284D01*
X105455205Y-107076716D01*
X104854057Y-107325106D01*
X104393722Y-107784637D01*
X104144284Y-108385352D01*
X104143716Y-109035795D01*
X103882000Y-109035795D01*
X103882000Y-103535795D01*
X104743716Y-103535795D01*
X104992106Y-104136943D01*
X105451637Y-104597278D01*
X106052352Y-104846716D01*
X106702795Y-104847284D01*
X107303943Y-104598894D01*
X107538715Y-104364532D01*
X109806073Y-104364532D01*
X109904736Y-104631387D01*
X110514461Y-104857908D01*
X111164460Y-104833856D01*
X111653264Y-104631387D01*
X111751927Y-104364532D01*
X110779000Y-103391605D01*
X109806073Y-104364532D01*
X107538715Y-104364532D01*
X107764278Y-104139363D01*
X108013716Y-103538648D01*
X108014232Y-102947461D01*
X109133092Y-102947461D01*
X109157144Y-103597460D01*
X109359613Y-104086264D01*
X109626468Y-104184927D01*
X110599395Y-103212000D01*
X110958605Y-103212000D01*
X111931532Y-104184927D01*
X112198387Y-104086264D01*
X112424908Y-103476539D01*
X112400856Y-102826540D01*
X112198387Y-102337736D01*
X111931532Y-102239073D01*
X110958605Y-103212000D01*
X110599395Y-103212000D01*
X109626468Y-102239073D01*
X109359613Y-102337736D01*
X109133092Y-102947461D01*
X108014232Y-102947461D01*
X108014284Y-102888205D01*
X107765894Y-102287057D01*
X107538703Y-102059468D01*
X109806073Y-102059468D01*
X110779000Y-103032395D01*
X111751927Y-102059468D01*
X111653264Y-101792613D01*
X111043539Y-101566092D01*
X110393540Y-101590144D01*
X109904736Y-101792613D01*
X109806073Y-102059468D01*
X107538703Y-102059468D01*
X107306363Y-101826722D01*
X106705648Y-101577284D01*
X106055205Y-101576716D01*
X105454057Y-101825106D01*
X104993722Y-102284637D01*
X104744284Y-102885352D01*
X104743716Y-103535795D01*
X103882000Y-103535795D01*
X103882000Y-98537580D01*
X105455150Y-96964429D01*
X105801086Y-96964731D01*
X106291380Y-96762146D01*
X106666827Y-96387353D01*
X106870268Y-95897413D01*
X106870731Y-95366914D01*
X106668146Y-94876620D01*
X106293353Y-94501173D01*
X105803413Y-94297732D01*
X105272914Y-94297269D01*
X104782620Y-94499854D01*
X104407173Y-94874647D01*
X104203732Y-95364587D01*
X104203428Y-95712993D01*
X102691000Y-97225420D01*
X102691000Y-88275086D01*
X104203269Y-88275086D01*
X104405854Y-88765380D01*
X104780647Y-89140827D01*
X105270587Y-89344268D01*
X105801086Y-89344731D01*
X106291380Y-89142146D01*
X106666827Y-88767353D01*
X106870268Y-88277413D01*
X106870731Y-87746914D01*
X106668146Y-87256620D01*
X106293353Y-86881173D01*
X106197665Y-86841440D01*
X106641000Y-86841440D01*
X106876317Y-86797162D01*
X107092441Y-86658090D01*
X107237431Y-86445890D01*
X107251086Y-86378459D01*
X107280946Y-86423147D01*
X107762715Y-86745054D01*
X107857319Y-86763872D01*
X107576620Y-86879854D01*
X107201173Y-87254647D01*
X106997732Y-87744587D01*
X106997269Y-88275086D01*
X107199854Y-88765380D01*
X107574647Y-89140827D01*
X107912446Y-89281094D01*
X107576620Y-89419854D01*
X107201173Y-89794647D01*
X106997732Y-90284587D01*
X106997269Y-90815086D01*
X107199854Y-91305380D01*
X107574647Y-91680827D01*
X108064587Y-91884268D01*
X108595086Y-91884731D01*
X109085380Y-91682146D01*
X109460827Y-91307353D01*
X109612621Y-90941793D01*
X109644120Y-91100151D01*
X109955189Y-91565698D01*
X110337275Y-91821000D01*
X109955189Y-92076302D01*
X109644120Y-92541849D01*
X109534887Y-93091000D01*
X109644120Y-93640151D01*
X109955189Y-94105698D01*
X110420736Y-94416767D01*
X110969887Y-94526000D01*
X111026113Y-94526000D01*
X111575264Y-94416767D01*
X112040811Y-94105698D01*
X112351880Y-93640151D01*
X112461113Y-93091000D01*
X112351880Y-92541849D01*
X112040811Y-92076302D01*
X111658725Y-91821000D01*
X112040811Y-91565698D01*
X112351880Y-91100151D01*
X112461113Y-90551000D01*
X117154887Y-90551000D01*
X117264120Y-91100151D01*
X117575189Y-91565698D01*
X117719465Y-91662101D01*
X117582683Y-91687838D01*
X117366559Y-91826910D01*
X117221569Y-92039110D01*
X117170560Y-92291000D01*
X117170560Y-93891000D01*
X117214838Y-94126317D01*
X117353910Y-94342441D01*
X117566110Y-94487431D01*
X117818000Y-94538440D01*
X119418000Y-94538440D01*
X119653317Y-94494162D01*
X119869441Y-94355090D01*
X120014431Y-94142890D01*
X120065440Y-93891000D01*
X120065440Y-92291000D01*
X120021162Y-92055683D01*
X119882090Y-91839559D01*
X119669890Y-91694569D01*
X119514911Y-91663185D01*
X119660811Y-91565698D01*
X119971880Y-91100151D01*
X120081113Y-90551000D01*
X119971880Y-90001849D01*
X119660811Y-89536302D01*
X119256297Y-89266014D01*
X119473134Y-89163389D01*
X119849041Y-88748423D01*
X120009904Y-88360039D01*
X119887915Y-88138000D01*
X118745000Y-88138000D01*
X118745000Y-88158000D01*
X118491000Y-88158000D01*
X118491000Y-88138000D01*
X117348085Y-88138000D01*
X117226096Y-88360039D01*
X117386959Y-88748423D01*
X117762866Y-89163389D01*
X117979703Y-89266014D01*
X117575189Y-89536302D01*
X117264120Y-90001849D01*
X117154887Y-90551000D01*
X112461113Y-90551000D01*
X112351880Y-90001849D01*
X112040811Y-89536302D01*
X111658725Y-89281000D01*
X112040811Y-89025698D01*
X112351880Y-88560151D01*
X112461113Y-88011000D01*
X112351880Y-87461849D01*
X112040811Y-86996302D01*
X111636297Y-86726014D01*
X111853134Y-86623389D01*
X112229041Y-86208423D01*
X112389904Y-85820039D01*
X112267915Y-85598000D01*
X111125000Y-85598000D01*
X111125000Y-85618000D01*
X110871000Y-85618000D01*
X110871000Y-85598000D01*
X110851000Y-85598000D01*
X110851000Y-85471000D01*
X117154887Y-85471000D01*
X117264120Y-86020151D01*
X117575189Y-86485698D01*
X117979703Y-86755986D01*
X117762866Y-86858611D01*
X117386959Y-87273577D01*
X117226096Y-87661961D01*
X117348085Y-87884000D01*
X118491000Y-87884000D01*
X118491000Y-87864000D01*
X118745000Y-87864000D01*
X118745000Y-87884000D01*
X119887915Y-87884000D01*
X120009904Y-87661961D01*
X119849041Y-87273577D01*
X119473134Y-86858611D01*
X119256297Y-86755986D01*
X119660811Y-86485698D01*
X119971880Y-86020151D01*
X120081113Y-85471000D01*
X119971880Y-84921849D01*
X119660811Y-84456302D01*
X119195264Y-84145233D01*
X118646113Y-84036000D01*
X118589887Y-84036000D01*
X118040736Y-84145233D01*
X117575189Y-84456302D01*
X117264120Y-84921849D01*
X117154887Y-85471000D01*
X110851000Y-85471000D01*
X110851000Y-85344000D01*
X110871000Y-85344000D01*
X110871000Y-84200371D01*
X111125000Y-84200371D01*
X111125000Y-85344000D01*
X112267915Y-85344000D01*
X112389904Y-85121961D01*
X112229041Y-84733577D01*
X111853134Y-84318611D01*
X111347041Y-84079086D01*
X111125000Y-84200371D01*
X110871000Y-84200371D01*
X110648959Y-84079086D01*
X110142866Y-84318611D01*
X109766959Y-84733577D01*
X109721971Y-84842194D01*
X109702961Y-84746622D01*
X109381054Y-84264853D01*
X108899285Y-83942946D01*
X108331000Y-83829907D01*
X107762715Y-83942946D01*
X107280946Y-84264853D01*
X107253150Y-84306452D01*
X107244162Y-84258683D01*
X107105090Y-84042559D01*
X106892890Y-83897569D01*
X106641000Y-83846560D01*
X104941000Y-83846560D01*
X104705683Y-83890838D01*
X104489559Y-84029910D01*
X104344569Y-84242110D01*
X104293560Y-84494000D01*
X104293560Y-86194000D01*
X104337838Y-86429317D01*
X104476910Y-86645441D01*
X104689110Y-86790431D01*
X104897103Y-86832551D01*
X104782620Y-86879854D01*
X104407173Y-87254647D01*
X104203732Y-87744587D01*
X104203269Y-88275086D01*
X102691000Y-88275086D01*
X102691000Y-78242086D01*
X107124269Y-78242086D01*
X107326854Y-78732380D01*
X107701647Y-79107827D01*
X108191587Y-79311268D01*
X108722086Y-79311731D01*
X109212380Y-79109146D01*
X109587827Y-78734353D01*
X109791268Y-78244413D01*
X109791270Y-78242086D01*
X118300269Y-78242086D01*
X118502854Y-78732380D01*
X118877647Y-79107827D01*
X119367587Y-79311268D01*
X119898086Y-79311731D01*
X120388380Y-79109146D01*
X120763827Y-78734353D01*
X120967268Y-78244413D01*
X120967270Y-78242086D01*
X121856269Y-78242086D01*
X122058854Y-78732380D01*
X122433647Y-79107827D01*
X122923587Y-79311268D01*
X123454086Y-79311731D01*
X123944380Y-79109146D01*
X124319827Y-78734353D01*
X124523268Y-78244413D01*
X124523270Y-78242086D01*
X133032269Y-78242086D01*
X133234854Y-78732380D01*
X133609647Y-79107827D01*
X134099587Y-79311268D01*
X134630086Y-79311731D01*
X135120380Y-79109146D01*
X135495827Y-78734353D01*
X135699268Y-78244413D01*
X135699731Y-77713914D01*
X135497146Y-77223620D01*
X135122353Y-76848173D01*
X134632413Y-76644732D01*
X134101914Y-76644269D01*
X133611620Y-76846854D01*
X133236173Y-77221647D01*
X133032732Y-77711587D01*
X133032269Y-78242086D01*
X124523270Y-78242086D01*
X124523731Y-77713914D01*
X124321146Y-77223620D01*
X123946353Y-76848173D01*
X123456413Y-76644732D01*
X122925914Y-76644269D01*
X122435620Y-76846854D01*
X122060173Y-77221647D01*
X121856732Y-77711587D01*
X121856269Y-78242086D01*
X120967270Y-78242086D01*
X120967731Y-77713914D01*
X120765146Y-77223620D01*
X120390353Y-76848173D01*
X119900413Y-76644732D01*
X119369914Y-76644269D01*
X118879620Y-76846854D01*
X118504173Y-77221647D01*
X118300732Y-77711587D01*
X118300269Y-78242086D01*
X109791270Y-78242086D01*
X109791731Y-77713914D01*
X109589146Y-77223620D01*
X109214353Y-76848173D01*
X108724413Y-76644732D01*
X108193914Y-76644269D01*
X107703620Y-76846854D01*
X107328173Y-77221647D01*
X107124732Y-77711587D01*
X107124269Y-78242086D01*
X102691000Y-78242086D01*
X102691000Y-75656553D01*
X103138396Y-76104731D01*
X104198533Y-76544938D01*
X105346431Y-76545940D01*
X106407335Y-76107583D01*
X107219731Y-75296604D01*
X107530163Y-74549000D01*
X109969560Y-74549000D01*
X109969560Y-76327000D01*
X110013838Y-76562317D01*
X110152910Y-76778441D01*
X110365110Y-76923431D01*
X110617000Y-76974440D01*
X112395000Y-76974440D01*
X112630317Y-76930162D01*
X112846441Y-76791090D01*
X112991431Y-76578890D01*
X113042440Y-76327000D01*
X113042440Y-75739812D01*
X115061736Y-75739812D01*
X115293262Y-76300149D01*
X115721596Y-76729231D01*
X116281528Y-76961735D01*
X116887812Y-76962264D01*
X117448149Y-76730738D01*
X117877231Y-76302404D01*
X118109735Y-75742472D01*
X118110264Y-75136188D01*
X117878738Y-74575851D01*
X117851934Y-74549000D01*
X124701560Y-74549000D01*
X124701560Y-76327000D01*
X124745838Y-76562317D01*
X124884910Y-76778441D01*
X125097110Y-76923431D01*
X125349000Y-76974440D01*
X127127000Y-76974440D01*
X127362317Y-76930162D01*
X127578441Y-76791090D01*
X127723431Y-76578890D01*
X127774440Y-76327000D01*
X127774440Y-75739812D01*
X129793736Y-75739812D01*
X130025262Y-76300149D01*
X130453596Y-76729231D01*
X131013528Y-76961735D01*
X131619812Y-76962264D01*
X132180149Y-76730738D01*
X132609231Y-76302404D01*
X132645320Y-76215492D01*
X132874603Y-75872346D01*
X132961000Y-75438000D01*
X132874603Y-75003654D01*
X132646362Y-74662067D01*
X132610738Y-74575851D01*
X132182404Y-74146769D01*
X131622472Y-73914265D01*
X131016188Y-73913736D01*
X130455851Y-74145262D01*
X130026769Y-74573596D01*
X129794265Y-75133528D01*
X129793736Y-75739812D01*
X127774440Y-75739812D01*
X127774440Y-74549000D01*
X127730162Y-74313683D01*
X127591090Y-74097559D01*
X127378890Y-73952569D01*
X127127000Y-73901560D01*
X125349000Y-73901560D01*
X125113683Y-73945838D01*
X124897559Y-74084910D01*
X124752569Y-74297110D01*
X124701560Y-74549000D01*
X117851934Y-74549000D01*
X117450404Y-74146769D01*
X116890472Y-73914265D01*
X116284188Y-73913736D01*
X115723851Y-74145262D01*
X115294769Y-74573596D01*
X115062265Y-75133528D01*
X115061736Y-75739812D01*
X113042440Y-75739812D01*
X113042440Y-74549000D01*
X112998162Y-74313683D01*
X112859090Y-74097559D01*
X112646890Y-73952569D01*
X112395000Y-73901560D01*
X110617000Y-73901560D01*
X110381683Y-73945838D01*
X110165559Y-74084910D01*
X110020569Y-74297110D01*
X109969560Y-74549000D01*
X107530163Y-74549000D01*
X107659938Y-74236467D01*
X107660940Y-73088569D01*
X107222583Y-72027665D01*
X106411604Y-71215269D01*
X105351467Y-70775062D01*
X104203569Y-70774060D01*
X103142665Y-71212417D01*
X102691000Y-71663294D01*
X102691000Y-70622086D01*
X107124269Y-70622086D01*
X107326854Y-71112380D01*
X107701647Y-71487827D01*
X108191587Y-71691268D01*
X108722086Y-71691731D01*
X109212380Y-71489146D01*
X109587827Y-71114353D01*
X109791268Y-70624413D01*
X109791270Y-70622086D01*
X118300269Y-70622086D01*
X118502854Y-71112380D01*
X118877647Y-71487827D01*
X119367587Y-71691268D01*
X119898086Y-71691731D01*
X120388380Y-71489146D01*
X120763827Y-71114353D01*
X120967268Y-70624413D01*
X120967270Y-70622086D01*
X121856269Y-70622086D01*
X122058854Y-71112380D01*
X122433647Y-71487827D01*
X122923587Y-71691268D01*
X123454086Y-71691731D01*
X123944380Y-71489146D01*
X124319827Y-71114353D01*
X124523268Y-70624413D01*
X124523270Y-70622086D01*
X133032269Y-70622086D01*
X133234854Y-71112380D01*
X133609647Y-71487827D01*
X134099587Y-71691268D01*
X134630086Y-71691731D01*
X135120380Y-71489146D01*
X135495827Y-71114353D01*
X135699268Y-70624413D01*
X135699731Y-70093914D01*
X135497146Y-69603620D01*
X135122353Y-69228173D01*
X134632413Y-69024732D01*
X134101914Y-69024269D01*
X133611620Y-69226854D01*
X133236173Y-69601647D01*
X133032732Y-70091587D01*
X133032269Y-70622086D01*
X124523270Y-70622086D01*
X124523731Y-70093914D01*
X124321146Y-69603620D01*
X123946353Y-69228173D01*
X123456413Y-69024732D01*
X122925914Y-69024269D01*
X122435620Y-69226854D01*
X122060173Y-69601647D01*
X121856732Y-70091587D01*
X121856269Y-70622086D01*
X120967270Y-70622086D01*
X120967731Y-70093914D01*
X120765146Y-69603620D01*
X120390353Y-69228173D01*
X119900413Y-69024732D01*
X119369914Y-69024269D01*
X118879620Y-69226854D01*
X118504173Y-69601647D01*
X118300732Y-70091587D01*
X118300269Y-70622086D01*
X109791270Y-70622086D01*
X109791731Y-70093914D01*
X109589146Y-69603620D01*
X109214353Y-69228173D01*
X108724413Y-69024732D01*
X108193914Y-69024269D01*
X107703620Y-69226854D01*
X107328173Y-69601647D01*
X107124732Y-70091587D01*
X107124269Y-70622086D01*
X102691000Y-70622086D01*
X102691000Y-48732553D01*
X103138396Y-49180731D01*
X104198533Y-49620938D01*
X105346431Y-49621940D01*
X106407335Y-49183583D01*
X107219731Y-48372604D01*
X107659938Y-47312467D01*
X107660940Y-46164569D01*
X107222583Y-45103665D01*
X106771706Y-44652000D01*
X137160000Y-44652000D01*
X137160000Y-52086000D01*
G36*
X135826269Y-95895086D02*
X136028854Y-96385380D01*
X136325000Y-96682043D01*
X136325000Y-105761589D01*
X136283148Y-105637357D01*
X135709664Y-105427542D01*
X135099540Y-105453161D01*
X134654852Y-105637357D01*
X134568446Y-105893841D01*
X135469000Y-106794395D01*
X135483143Y-106780253D01*
X135662748Y-106959858D01*
X135648605Y-106974000D01*
X136549159Y-107874554D01*
X136664214Y-107835793D01*
X136666932Y-107842371D01*
X137048182Y-108224288D01*
X136668449Y-108603357D01*
X136664706Y-108612372D01*
X136549159Y-108573446D01*
X135648605Y-109474000D01*
X136549159Y-110374554D01*
X136664214Y-110335793D01*
X136666932Y-110342371D01*
X136894188Y-110570025D01*
X135319212Y-112145000D01*
X119241939Y-112145000D01*
X119326004Y-112061082D01*
X119590699Y-111423627D01*
X119591301Y-110733401D01*
X119550332Y-110634248D01*
X119630420Y-110554159D01*
X132068446Y-110554159D01*
X132154852Y-110810643D01*
X132728336Y-111020458D01*
X133338460Y-110994839D01*
X133783148Y-110810643D01*
X133869554Y-110554159D01*
X134568446Y-110554159D01*
X134654852Y-110810643D01*
X135228336Y-111020458D01*
X135838460Y-110994839D01*
X136283148Y-110810643D01*
X136369554Y-110554159D01*
X135469000Y-109653605D01*
X134568446Y-110554159D01*
X133869554Y-110554159D01*
X132969000Y-109653605D01*
X132068446Y-110554159D01*
X119630420Y-110554159D01*
X120951243Y-109233336D01*
X131422542Y-109233336D01*
X131448161Y-109843460D01*
X131632357Y-110288148D01*
X131888841Y-110374554D01*
X132789395Y-109474000D01*
X133148605Y-109474000D01*
X134049159Y-110374554D01*
X134219000Y-110317337D01*
X134388841Y-110374554D01*
X135289395Y-109474000D01*
X134388841Y-108573446D01*
X134219000Y-108630663D01*
X134049159Y-108573446D01*
X133148605Y-109474000D01*
X132789395Y-109474000D01*
X131888841Y-108573446D01*
X131632357Y-108659852D01*
X131422542Y-109233336D01*
X120951243Y-109233336D01*
X122130420Y-108054159D01*
X132068446Y-108054159D01*
X132125663Y-108224000D01*
X132068446Y-108393841D01*
X132969000Y-109294395D01*
X133869554Y-108393841D01*
X133812337Y-108224000D01*
X133869554Y-108054159D01*
X134568446Y-108054159D01*
X134625663Y-108224000D01*
X134568446Y-108393841D01*
X135469000Y-109294395D01*
X136369554Y-108393841D01*
X136312337Y-108224000D01*
X136369554Y-108054159D01*
X135469000Y-107153605D01*
X134568446Y-108054159D01*
X133869554Y-108054159D01*
X132969000Y-107153605D01*
X132068446Y-108054159D01*
X122130420Y-108054159D01*
X123451243Y-106733336D01*
X131422542Y-106733336D01*
X131448161Y-107343460D01*
X131632357Y-107788148D01*
X131888841Y-107874554D01*
X132789395Y-106974000D01*
X133148605Y-106974000D01*
X134049159Y-107874554D01*
X134219000Y-107817337D01*
X134388841Y-107874554D01*
X135289395Y-106974000D01*
X134388841Y-106073446D01*
X134219000Y-106130663D01*
X134049159Y-106073446D01*
X133148605Y-106974000D01*
X132789395Y-106974000D01*
X131888841Y-106073446D01*
X131632357Y-106159852D01*
X131422542Y-106733336D01*
X123451243Y-106733336D01*
X124290738Y-105893841D01*
X132068446Y-105893841D01*
X132969000Y-106794395D01*
X133869554Y-105893841D01*
X133783148Y-105637357D01*
X133209664Y-105427542D01*
X132599540Y-105453161D01*
X132154852Y-105637357D01*
X132068446Y-105893841D01*
X124290738Y-105893841D01*
X124392078Y-105792501D01*
X129329276Y-105792501D01*
X129329281Y-105792502D01*
X129611765Y-105736311D01*
X129667956Y-105725134D01*
X129955071Y-105533291D01*
X130037133Y-105451229D01*
X130279673Y-105694192D01*
X130623201Y-105836838D01*
X130995167Y-105837162D01*
X131338943Y-105695117D01*
X131602192Y-105432327D01*
X131652566Y-105311014D01*
X134991787Y-101971792D01*
X134991790Y-101971790D01*
X135183633Y-101684675D01*
X135251000Y-101346000D01*
X135251000Y-97520754D01*
X135495827Y-97276353D01*
X135699268Y-96786413D01*
X135699731Y-96255914D01*
X135497146Y-95765620D01*
X135308855Y-95577000D01*
X135826547Y-95577000D01*
X135826269Y-95895086D01*
X135826269Y-95895086D01*
G37*
X135826269Y-95895086D02*
X136028854Y-96385380D01*
X136325000Y-96682043D01*
X136325000Y-105761589D01*
X136283148Y-105637357D01*
X135709664Y-105427542D01*
X135099540Y-105453161D01*
X134654852Y-105637357D01*
X134568446Y-105893841D01*
X135469000Y-106794395D01*
X135483143Y-106780253D01*
X135662748Y-106959858D01*
X135648605Y-106974000D01*
X136549159Y-107874554D01*
X136664214Y-107835793D01*
X136666932Y-107842371D01*
X137048182Y-108224288D01*
X136668449Y-108603357D01*
X136664706Y-108612372D01*
X136549159Y-108573446D01*
X135648605Y-109474000D01*
X136549159Y-110374554D01*
X136664214Y-110335793D01*
X136666932Y-110342371D01*
X136894188Y-110570025D01*
X135319212Y-112145000D01*
X119241939Y-112145000D01*
X119326004Y-112061082D01*
X119590699Y-111423627D01*
X119591301Y-110733401D01*
X119550332Y-110634248D01*
X119630420Y-110554159D01*
X132068446Y-110554159D01*
X132154852Y-110810643D01*
X132728336Y-111020458D01*
X133338460Y-110994839D01*
X133783148Y-110810643D01*
X133869554Y-110554159D01*
X134568446Y-110554159D01*
X134654852Y-110810643D01*
X135228336Y-111020458D01*
X135838460Y-110994839D01*
X136283148Y-110810643D01*
X136369554Y-110554159D01*
X135469000Y-109653605D01*
X134568446Y-110554159D01*
X133869554Y-110554159D01*
X132969000Y-109653605D01*
X132068446Y-110554159D01*
X119630420Y-110554159D01*
X120951243Y-109233336D01*
X131422542Y-109233336D01*
X131448161Y-109843460D01*
X131632357Y-110288148D01*
X131888841Y-110374554D01*
X132789395Y-109474000D01*
X133148605Y-109474000D01*
X134049159Y-110374554D01*
X134219000Y-110317337D01*
X134388841Y-110374554D01*
X135289395Y-109474000D01*
X134388841Y-108573446D01*
X134219000Y-108630663D01*
X134049159Y-108573446D01*
X133148605Y-109474000D01*
X132789395Y-109474000D01*
X131888841Y-108573446D01*
X131632357Y-108659852D01*
X131422542Y-109233336D01*
X120951243Y-109233336D01*
X122130420Y-108054159D01*
X132068446Y-108054159D01*
X132125663Y-108224000D01*
X132068446Y-108393841D01*
X132969000Y-109294395D01*
X133869554Y-108393841D01*
X133812337Y-108224000D01*
X133869554Y-108054159D01*
X134568446Y-108054159D01*
X134625663Y-108224000D01*
X134568446Y-108393841D01*
X135469000Y-109294395D01*
X136369554Y-108393841D01*
X136312337Y-108224000D01*
X136369554Y-108054159D01*
X135469000Y-107153605D01*
X134568446Y-108054159D01*
X133869554Y-108054159D01*
X132969000Y-107153605D01*
X132068446Y-108054159D01*
X122130420Y-108054159D01*
X123451243Y-106733336D01*
X131422542Y-106733336D01*
X131448161Y-107343460D01*
X131632357Y-107788148D01*
X131888841Y-107874554D01*
X132789395Y-106974000D01*
X133148605Y-106974000D01*
X134049159Y-107874554D01*
X134219000Y-107817337D01*
X134388841Y-107874554D01*
X135289395Y-106974000D01*
X134388841Y-106073446D01*
X134219000Y-106130663D01*
X134049159Y-106073446D01*
X133148605Y-106974000D01*
X132789395Y-106974000D01*
X131888841Y-106073446D01*
X131632357Y-106159852D01*
X131422542Y-106733336D01*
X123451243Y-106733336D01*
X124290738Y-105893841D01*
X132068446Y-105893841D01*
X132969000Y-106794395D01*
X133869554Y-105893841D01*
X133783148Y-105637357D01*
X133209664Y-105427542D01*
X132599540Y-105453161D01*
X132154852Y-105637357D01*
X132068446Y-105893841D01*
X124290738Y-105893841D01*
X124392078Y-105792501D01*
X129329276Y-105792501D01*
X129329281Y-105792502D01*
X129611765Y-105736311D01*
X129667956Y-105725134D01*
X129955071Y-105533291D01*
X130037133Y-105451229D01*
X130279673Y-105694192D01*
X130623201Y-105836838D01*
X130995167Y-105837162D01*
X131338943Y-105695117D01*
X131602192Y-105432327D01*
X131652566Y-105311014D01*
X134991787Y-101971792D01*
X134991790Y-101971790D01*
X135183633Y-101684675D01*
X135251000Y-101346000D01*
X135251000Y-97520754D01*
X135495827Y-97276353D01*
X135699268Y-96786413D01*
X135699731Y-96255914D01*
X135497146Y-95765620D01*
X135308855Y-95577000D01*
X135826547Y-95577000D01*
X135826269Y-95895086D01*
G36*
X192778656Y-77084024D02*
X192701390Y-77332785D01*
X193548000Y-78179395D01*
X194394610Y-77332785D01*
X194317344Y-77084024D01*
X193979476Y-76962000D01*
X199061000Y-76962000D01*
X199061000Y-81788000D01*
X195008081Y-81788000D01*
X195020940Y-81724500D01*
X195020940Y-80073500D01*
X194976662Y-79838183D01*
X194837590Y-79622059D01*
X194625390Y-79477069D01*
X194381425Y-79427665D01*
X194394610Y-79385215D01*
X193548000Y-78538605D01*
X192701390Y-79385215D01*
X192714542Y-79427557D01*
X192487183Y-79470338D01*
X192271059Y-79609410D01*
X192126069Y-79821610D01*
X192075060Y-80073500D01*
X192075060Y-81724500D01*
X192087008Y-81788000D01*
X189210949Y-81788000D01*
X189343827Y-81655353D01*
X189547268Y-81165413D01*
X189547731Y-80634914D01*
X189345146Y-80144620D01*
X188970353Y-79769173D01*
X188480413Y-79565732D01*
X187949914Y-79565269D01*
X187459620Y-79767854D01*
X187319424Y-79907805D01*
X187309000Y-79900683D01*
X187309000Y-79353114D01*
X187464441Y-79253090D01*
X187609431Y-79040890D01*
X187660440Y-78789000D01*
X187660440Y-78136131D01*
X192075660Y-78136131D01*
X192102447Y-78716535D01*
X192273024Y-79128344D01*
X192521785Y-79205610D01*
X193368395Y-78359000D01*
X193727605Y-78359000D01*
X194574215Y-79205610D01*
X194822976Y-79128344D01*
X195020340Y-78581869D01*
X194993553Y-78001465D01*
X194822976Y-77589656D01*
X194574215Y-77512390D01*
X193727605Y-78359000D01*
X193368395Y-78359000D01*
X192521785Y-77512390D01*
X192273024Y-77589656D01*
X192075660Y-78136131D01*
X187660440Y-78136131D01*
X187660440Y-77589000D01*
X187616162Y-77353683D01*
X187477090Y-77137559D01*
X187407289Y-77089866D01*
X187464441Y-77053090D01*
X187526680Y-76962000D01*
X193073248Y-76962000D01*
X192778656Y-77084024D01*
X192778656Y-77084024D01*
G37*
X192778656Y-77084024D02*
X192701390Y-77332785D01*
X193548000Y-78179395D01*
X194394610Y-77332785D01*
X194317344Y-77084024D01*
X193979476Y-76962000D01*
X199061000Y-76962000D01*
X199061000Y-81788000D01*
X195008081Y-81788000D01*
X195020940Y-81724500D01*
X195020940Y-80073500D01*
X194976662Y-79838183D01*
X194837590Y-79622059D01*
X194625390Y-79477069D01*
X194381425Y-79427665D01*
X194394610Y-79385215D01*
X193548000Y-78538605D01*
X192701390Y-79385215D01*
X192714542Y-79427557D01*
X192487183Y-79470338D01*
X192271059Y-79609410D01*
X192126069Y-79821610D01*
X192075060Y-80073500D01*
X192075060Y-81724500D01*
X192087008Y-81788000D01*
X189210949Y-81788000D01*
X189343827Y-81655353D01*
X189547268Y-81165413D01*
X189547731Y-80634914D01*
X189345146Y-80144620D01*
X188970353Y-79769173D01*
X188480413Y-79565732D01*
X187949914Y-79565269D01*
X187459620Y-79767854D01*
X187319424Y-79907805D01*
X187309000Y-79900683D01*
X187309000Y-79353114D01*
X187464441Y-79253090D01*
X187609431Y-79040890D01*
X187660440Y-78789000D01*
X187660440Y-78136131D01*
X192075660Y-78136131D01*
X192102447Y-78716535D01*
X192273024Y-79128344D01*
X192521785Y-79205610D01*
X193368395Y-78359000D01*
X193727605Y-78359000D01*
X194574215Y-79205610D01*
X194822976Y-79128344D01*
X195020340Y-78581869D01*
X194993553Y-78001465D01*
X194822976Y-77589656D01*
X194574215Y-77512390D01*
X193727605Y-78359000D01*
X193368395Y-78359000D01*
X192521785Y-77512390D01*
X192273024Y-77589656D01*
X192075660Y-78136131D01*
X187660440Y-78136131D01*
X187660440Y-77589000D01*
X187616162Y-77353683D01*
X187477090Y-77137559D01*
X187407289Y-77089866D01*
X187464441Y-77053090D01*
X187526680Y-76962000D01*
X193073248Y-76962000D01*
X192778656Y-77084024D01*
G36*
X173055060Y-46356000D02*
X173099338Y-46591317D01*
X173238410Y-46807441D01*
X173355000Y-46887104D01*
X173355000Y-61649480D01*
X173023312Y-61715457D01*
X172579504Y-62012000D01*
X172193003Y-62012000D01*
X172192998Y-62011999D01*
X171567311Y-62136457D01*
X171036878Y-62490880D01*
X171036876Y-62490883D01*
X170154758Y-63373000D01*
X168128949Y-63373000D01*
X168261827Y-63240353D01*
X168465268Y-62750413D01*
X168465731Y-62219914D01*
X168263146Y-61729620D01*
X167888353Y-61354173D01*
X167398413Y-61150732D01*
X166867914Y-61150269D01*
X166377620Y-61352854D01*
X166002173Y-61727647D01*
X165798732Y-62217587D01*
X165798269Y-62748086D01*
X166000854Y-63238380D01*
X166135240Y-63373000D01*
X162687000Y-63373000D01*
X162642480Y-63381059D01*
X162599713Y-63407751D01*
X162570700Y-63448978D01*
X162560012Y-63498246D01*
X162569334Y-63547789D01*
X162597197Y-63589803D01*
X162941000Y-63933606D01*
X162941000Y-66196122D01*
X162916069Y-66232610D01*
X162865060Y-66484500D01*
X162865060Y-66724700D01*
X162771760Y-66818000D01*
X154178000Y-66818000D01*
X153552313Y-66942457D01*
X153021880Y-67296880D01*
X152667457Y-67827313D01*
X152543000Y-68453000D01*
X152667457Y-69078687D01*
X153021880Y-69609120D01*
X153552313Y-69963543D01*
X154178000Y-70088000D01*
X154637889Y-70088000D01*
X154567197Y-70258244D01*
X154566803Y-70709775D01*
X154739233Y-71127086D01*
X155058235Y-71446645D01*
X155475244Y-71619803D01*
X155926775Y-71620197D01*
X156344086Y-71447767D01*
X156663645Y-71128765D01*
X156836803Y-70711756D01*
X156837197Y-70260225D01*
X156766035Y-70088000D01*
X158046392Y-70088000D01*
X158104783Y-70146391D01*
X157856024Y-70223656D01*
X157658660Y-70770131D01*
X157685447Y-71350535D01*
X157856024Y-71762344D01*
X158104785Y-71839610D01*
X158951395Y-70993000D01*
X158937253Y-70978858D01*
X159116858Y-70799253D01*
X159131000Y-70813395D01*
X159145143Y-70799253D01*
X159324748Y-70978858D01*
X159310605Y-70993000D01*
X160157215Y-71839610D01*
X160405976Y-71762344D01*
X160603340Y-71215869D01*
X160576553Y-70635465D01*
X160405976Y-70223656D01*
X160157217Y-70146391D01*
X160215608Y-70088000D01*
X162941000Y-70088000D01*
X162941000Y-74522761D01*
X160594629Y-76869131D01*
X160576553Y-76477465D01*
X160405976Y-76065656D01*
X160157215Y-75988390D01*
X159310605Y-76835000D01*
X159324748Y-76849143D01*
X159145143Y-77028748D01*
X159131000Y-77014605D01*
X159116858Y-77028748D01*
X158937253Y-76849143D01*
X158951395Y-76835000D01*
X158104785Y-75988390D01*
X157856024Y-76065656D01*
X157658660Y-76612131D01*
X157685447Y-77192535D01*
X157856024Y-77604344D01*
X158104783Y-77681609D01*
X158046392Y-77740000D01*
X154178000Y-77740000D01*
X153552313Y-77864457D01*
X153021880Y-78218880D01*
X152667457Y-78749313D01*
X152543000Y-79375000D01*
X152667457Y-80000687D01*
X153021880Y-80531120D01*
X153552313Y-80885543D01*
X154178000Y-81010000D01*
X160400995Y-81010000D01*
X160401000Y-81010001D01*
X161026688Y-80885543D01*
X161557120Y-80531120D01*
X162941000Y-79147240D01*
X162941000Y-79375000D01*
X162949685Y-79421159D01*
X162976965Y-79463553D01*
X163018590Y-79491994D01*
X163068000Y-79502000D01*
X170815000Y-79502000D01*
X170861159Y-79493315D01*
X170903553Y-79466035D01*
X170931994Y-79424410D01*
X170942000Y-79375000D01*
X170942000Y-78474750D01*
X183446000Y-78474750D01*
X183446000Y-78915309D01*
X183542673Y-79148698D01*
X183721301Y-79327327D01*
X183954690Y-79424000D01*
X184245250Y-79424000D01*
X184404000Y-79265250D01*
X184404000Y-78316000D01*
X183604750Y-78316000D01*
X183446000Y-78474750D01*
X170942000Y-78474750D01*
X170942000Y-77353215D01*
X177207390Y-77353215D01*
X177284656Y-77601976D01*
X177831131Y-77799340D01*
X178411535Y-77772553D01*
X178823344Y-77601976D01*
X178900610Y-77353215D01*
X178054000Y-76506605D01*
X177207390Y-77353215D01*
X170942000Y-77353215D01*
X170942000Y-77073000D01*
X172445995Y-77073000D01*
X172446000Y-77073001D01*
X173071688Y-76948543D01*
X173602120Y-76594120D01*
X173905240Y-76291000D01*
X175853000Y-76291000D01*
X176478687Y-76166543D01*
X176584703Y-76095706D01*
X176581660Y-76104131D01*
X176608447Y-76684535D01*
X176779024Y-77096344D01*
X177027785Y-77173610D01*
X177874395Y-76327000D01*
X177860253Y-76312858D01*
X178039858Y-76133253D01*
X178054000Y-76147395D01*
X178068143Y-76133253D01*
X178247748Y-76312858D01*
X178233605Y-76327000D01*
X179080215Y-77173610D01*
X179122557Y-77160458D01*
X179165338Y-77387817D01*
X179304410Y-77603941D01*
X179516610Y-77748931D01*
X179768500Y-77799940D01*
X181419500Y-77799940D01*
X181654817Y-77755662D01*
X181870941Y-77616590D01*
X182015931Y-77404390D01*
X182066940Y-77152500D01*
X182066940Y-76560808D01*
X182085566Y-76579434D01*
X182356460Y-76760440D01*
X182676000Y-76824000D01*
X183477778Y-76824000D01*
X183477838Y-76824317D01*
X183616910Y-77040441D01*
X183685006Y-77086969D01*
X183542673Y-77229302D01*
X183446000Y-77462691D01*
X183446000Y-77903250D01*
X183604750Y-78062000D01*
X184404000Y-78062000D01*
X184404000Y-78042000D01*
X184658000Y-78042000D01*
X184658000Y-78062000D01*
X184678000Y-78062000D01*
X184678000Y-78316000D01*
X184658000Y-78316000D01*
X184658000Y-79265250D01*
X184816750Y-79424000D01*
X185107310Y-79424000D01*
X185340699Y-79327327D01*
X185519327Y-79148698D01*
X185546955Y-79081998D01*
X185639000Y-79225040D01*
X185639000Y-79838975D01*
X185633698Y-79833673D01*
X185400309Y-79737000D01*
X185159750Y-79737000D01*
X185001000Y-79895750D01*
X185001000Y-80645000D01*
X185021000Y-80645000D01*
X185021000Y-80899000D01*
X185001000Y-80899000D01*
X185001000Y-80919000D01*
X184747000Y-80919000D01*
X184747000Y-80899000D01*
X183997750Y-80899000D01*
X183839000Y-81057750D01*
X183839000Y-81298310D01*
X183935673Y-81531699D01*
X184114302Y-81710327D01*
X184301821Y-81788000D01*
X181590949Y-81788000D01*
X181723827Y-81655353D01*
X181927268Y-81165413D01*
X181927731Y-80634914D01*
X181766908Y-80245690D01*
X183839000Y-80245690D01*
X183839000Y-80486250D01*
X183997750Y-80645000D01*
X184747000Y-80645000D01*
X184747000Y-79895750D01*
X184588250Y-79737000D01*
X184347691Y-79737000D01*
X184114302Y-79833673D01*
X183935673Y-80012301D01*
X183839000Y-80245690D01*
X181766908Y-80245690D01*
X181725146Y-80144620D01*
X181350353Y-79769173D01*
X180860413Y-79565732D01*
X180329914Y-79565269D01*
X179839620Y-79767854D01*
X179464173Y-80142647D01*
X179260732Y-80632587D01*
X179260269Y-81163086D01*
X179462854Y-81653380D01*
X179597240Y-81788000D01*
X143155240Y-81788000D01*
X142377240Y-81010000D01*
X146558000Y-81010000D01*
X147183687Y-80885543D01*
X147714120Y-80531120D01*
X148068543Y-80000687D01*
X148193000Y-79375000D01*
X148068543Y-78749313D01*
X147714120Y-78218880D01*
X147183687Y-77864457D01*
X146558000Y-77740000D01*
X142943608Y-77740000D01*
X142885217Y-77681609D01*
X143133976Y-77604344D01*
X143331340Y-77057869D01*
X143304553Y-76477465D01*
X143133976Y-76065656D01*
X142885215Y-75988390D01*
X142038605Y-76835000D01*
X142052748Y-76849143D01*
X141873143Y-77028748D01*
X141859000Y-77014605D01*
X141844858Y-77028748D01*
X141665253Y-76849143D01*
X141679395Y-76835000D01*
X141665253Y-76820858D01*
X141844858Y-76641253D01*
X141859000Y-76655395D01*
X142705610Y-75808785D01*
X158284390Y-75808785D01*
X159131000Y-76655395D01*
X159977610Y-75808785D01*
X159900344Y-75560024D01*
X159353869Y-75362660D01*
X158773465Y-75389447D01*
X158361656Y-75560024D01*
X158284390Y-75808785D01*
X142705610Y-75808785D01*
X142628344Y-75560024D01*
X142081869Y-75362660D01*
X141501465Y-75389447D01*
X141208000Y-75511004D01*
X141208000Y-72310717D01*
X141636131Y-72465340D01*
X142216535Y-72438553D01*
X142628344Y-72267976D01*
X142705610Y-72019215D01*
X158284390Y-72019215D01*
X158361656Y-72267976D01*
X158908131Y-72465340D01*
X159488535Y-72438553D01*
X159900344Y-72267976D01*
X159977610Y-72019215D01*
X159131000Y-71172605D01*
X158284390Y-72019215D01*
X142705610Y-72019215D01*
X141859000Y-71172605D01*
X141844858Y-71186748D01*
X141665253Y-71007143D01*
X141679395Y-70993000D01*
X141665253Y-70978858D01*
X141844858Y-70799253D01*
X141859000Y-70813395D01*
X141873143Y-70799253D01*
X142052748Y-70978858D01*
X142038605Y-70993000D01*
X142885215Y-71839610D01*
X143133976Y-71762344D01*
X143331340Y-71215869D01*
X143304553Y-70635465D01*
X143133976Y-70223656D01*
X142885217Y-70146391D01*
X142943608Y-70088000D01*
X143698603Y-70088000D01*
X143691355Y-70095235D01*
X143518197Y-70512244D01*
X143517803Y-70963775D01*
X143690233Y-71381086D01*
X144009235Y-71700645D01*
X144426244Y-71873803D01*
X144877775Y-71874197D01*
X145295086Y-71701767D01*
X145614645Y-71382765D01*
X145787803Y-70965756D01*
X145788197Y-70514225D01*
X145615767Y-70096914D01*
X145606869Y-70088000D01*
X146558000Y-70088000D01*
X147183687Y-69963543D01*
X147714120Y-69609120D01*
X148068543Y-69078687D01*
X148193000Y-68453000D01*
X148068543Y-67827313D01*
X147714120Y-67296880D01*
X147183687Y-66942457D01*
X146558000Y-66818000D01*
X145272000Y-66818000D01*
X145272000Y-59873196D01*
X146808409Y-59873196D01*
X146893467Y-60128539D01*
X147462965Y-60336516D01*
X148068700Y-60310723D01*
X148508533Y-60128539D01*
X148593591Y-59873196D01*
X147701000Y-58980605D01*
X146808409Y-59873196D01*
X145272000Y-59873196D01*
X145272000Y-58562965D01*
X146165484Y-58562965D01*
X146191277Y-59168700D01*
X146373461Y-59608533D01*
X146628804Y-59693591D01*
X147521395Y-58801000D01*
X147880605Y-58801000D01*
X148773196Y-59693591D01*
X149028539Y-59608533D01*
X149236516Y-59039035D01*
X149210723Y-58433300D01*
X149028539Y-57993467D01*
X148773196Y-57908409D01*
X147880605Y-58801000D01*
X147521395Y-58801000D01*
X146628804Y-57908409D01*
X146373461Y-57993467D01*
X146165484Y-58562965D01*
X145272000Y-58562965D01*
X145272000Y-57728804D01*
X146808409Y-57728804D01*
X147701000Y-58621395D01*
X148593591Y-57728804D01*
X148508533Y-57473461D01*
X147939035Y-57265484D01*
X147333300Y-57291277D01*
X146893467Y-57473461D01*
X146808409Y-57728804D01*
X145272000Y-57728804D01*
X145272000Y-56430240D01*
X146346240Y-55356000D01*
X147701000Y-55356000D01*
X148196494Y-55257440D01*
X148590000Y-55257440D01*
X148825317Y-55213162D01*
X149041441Y-55074090D01*
X149186431Y-54861890D01*
X149237440Y-54610000D01*
X149237440Y-54216494D01*
X149310738Y-53848000D01*
X153162000Y-53848000D01*
X153162000Y-61849000D01*
X153170685Y-61895159D01*
X153197965Y-61937553D01*
X153239590Y-61965994D01*
X153289000Y-61976000D01*
X158279048Y-61976000D01*
X158178732Y-62217587D01*
X158178269Y-62748086D01*
X158380854Y-63238380D01*
X158755647Y-63613827D01*
X159245587Y-63817268D01*
X159776086Y-63817731D01*
X160266380Y-63615146D01*
X160641827Y-63240353D01*
X160845268Y-62750413D01*
X160845731Y-62219914D01*
X160744948Y-61976000D01*
X161417000Y-61976000D01*
X161463159Y-61967315D01*
X161505553Y-61940035D01*
X161533994Y-61898410D01*
X161544000Y-61849000D01*
X161544000Y-57340500D01*
X165913060Y-57340500D01*
X165913060Y-58991500D01*
X165957338Y-59226817D01*
X166096410Y-59442941D01*
X166308610Y-59587931D01*
X166560500Y-59638940D01*
X168211500Y-59638940D01*
X168446817Y-59594662D01*
X168662941Y-59455590D01*
X168807931Y-59243390D01*
X168858940Y-58991500D01*
X168858940Y-57340500D01*
X168814662Y-57105183D01*
X168675590Y-56889059D01*
X168463390Y-56744069D01*
X168219425Y-56694665D01*
X168232610Y-56652215D01*
X167386000Y-55805605D01*
X166539390Y-56652215D01*
X166552542Y-56694557D01*
X166325183Y-56737338D01*
X166109059Y-56876410D01*
X165964069Y-57088610D01*
X165913060Y-57340500D01*
X161544000Y-57340500D01*
X161544000Y-55403131D01*
X165913660Y-55403131D01*
X165940447Y-55983535D01*
X166111024Y-56395344D01*
X166359785Y-56472610D01*
X167206395Y-55626000D01*
X167565605Y-55626000D01*
X168412215Y-56472610D01*
X168660976Y-56395344D01*
X168858340Y-55848869D01*
X168831553Y-55268465D01*
X168660976Y-54856656D01*
X168412215Y-54779390D01*
X167565605Y-55626000D01*
X167206395Y-55626000D01*
X166359785Y-54779390D01*
X166111024Y-54856656D01*
X165913660Y-55403131D01*
X161544000Y-55403131D01*
X161544000Y-54599785D01*
X166539390Y-54599785D01*
X167386000Y-55446395D01*
X168232610Y-54599785D01*
X168155344Y-54351024D01*
X167608869Y-54153660D01*
X167028465Y-54180447D01*
X166616656Y-54351024D01*
X166539390Y-54599785D01*
X161544000Y-54599785D01*
X161544000Y-53848000D01*
X161535315Y-53801841D01*
X161508035Y-53759447D01*
X161466410Y-53731006D01*
X161417000Y-53721000D01*
X158593878Y-53721000D01*
X158557390Y-53696069D01*
X158305500Y-53645060D01*
X156400500Y-53645060D01*
X156165183Y-53689338D01*
X156115979Y-53721000D01*
X153289000Y-53721000D01*
X153242841Y-53729685D01*
X153200447Y-53756965D01*
X153172006Y-53798590D01*
X153162000Y-53848000D01*
X149310738Y-53848000D01*
X149336000Y-53721000D01*
X149237440Y-53225506D01*
X149237440Y-52832000D01*
X149193162Y-52596683D01*
X149054090Y-52380559D01*
X148841890Y-52235569D01*
X148590000Y-52184560D01*
X148196494Y-52184560D01*
X147701000Y-52086000D01*
X145669005Y-52086000D01*
X145669000Y-52085999D01*
X145668995Y-52086000D01*
X141859005Y-52086000D01*
X141859000Y-52085999D01*
X141858995Y-52086000D01*
X138176000Y-52086000D01*
X138176000Y-44652000D01*
X173055060Y-44652000D01*
X173055060Y-46356000D01*
X173055060Y-46356000D01*
G37*
X173055060Y-46356000D02*
X173099338Y-46591317D01*
X173238410Y-46807441D01*
X173355000Y-46887104D01*
X173355000Y-61649480D01*
X173023312Y-61715457D01*
X172579504Y-62012000D01*
X172193003Y-62012000D01*
X172192998Y-62011999D01*
X171567311Y-62136457D01*
X171036878Y-62490880D01*
X171036876Y-62490883D01*
X170154758Y-63373000D01*
X168128949Y-63373000D01*
X168261827Y-63240353D01*
X168465268Y-62750413D01*
X168465731Y-62219914D01*
X168263146Y-61729620D01*
X167888353Y-61354173D01*
X167398413Y-61150732D01*
X166867914Y-61150269D01*
X166377620Y-61352854D01*
X166002173Y-61727647D01*
X165798732Y-62217587D01*
X165798269Y-62748086D01*
X166000854Y-63238380D01*
X166135240Y-63373000D01*
X162687000Y-63373000D01*
X162642480Y-63381059D01*
X162599713Y-63407751D01*
X162570700Y-63448978D01*
X162560012Y-63498246D01*
X162569334Y-63547789D01*
X162597197Y-63589803D01*
X162941000Y-63933606D01*
X162941000Y-66196122D01*
X162916069Y-66232610D01*
X162865060Y-66484500D01*
X162865060Y-66724700D01*
X162771760Y-66818000D01*
X154178000Y-66818000D01*
X153552313Y-66942457D01*
X153021880Y-67296880D01*
X152667457Y-67827313D01*
X152543000Y-68453000D01*
X152667457Y-69078687D01*
X153021880Y-69609120D01*
X153552313Y-69963543D01*
X154178000Y-70088000D01*
X154637889Y-70088000D01*
X154567197Y-70258244D01*
X154566803Y-70709775D01*
X154739233Y-71127086D01*
X155058235Y-71446645D01*
X155475244Y-71619803D01*
X155926775Y-71620197D01*
X156344086Y-71447767D01*
X156663645Y-71128765D01*
X156836803Y-70711756D01*
X156837197Y-70260225D01*
X156766035Y-70088000D01*
X158046392Y-70088000D01*
X158104783Y-70146391D01*
X157856024Y-70223656D01*
X157658660Y-70770131D01*
X157685447Y-71350535D01*
X157856024Y-71762344D01*
X158104785Y-71839610D01*
X158951395Y-70993000D01*
X158937253Y-70978858D01*
X159116858Y-70799253D01*
X159131000Y-70813395D01*
X159145143Y-70799253D01*
X159324748Y-70978858D01*
X159310605Y-70993000D01*
X160157215Y-71839610D01*
X160405976Y-71762344D01*
X160603340Y-71215869D01*
X160576553Y-70635465D01*
X160405976Y-70223656D01*
X160157217Y-70146391D01*
X160215608Y-70088000D01*
X162941000Y-70088000D01*
X162941000Y-74522761D01*
X160594629Y-76869131D01*
X160576553Y-76477465D01*
X160405976Y-76065656D01*
X160157215Y-75988390D01*
X159310605Y-76835000D01*
X159324748Y-76849143D01*
X159145143Y-77028748D01*
X159131000Y-77014605D01*
X159116858Y-77028748D01*
X158937253Y-76849143D01*
X158951395Y-76835000D01*
X158104785Y-75988390D01*
X157856024Y-76065656D01*
X157658660Y-76612131D01*
X157685447Y-77192535D01*
X157856024Y-77604344D01*
X158104783Y-77681609D01*
X158046392Y-77740000D01*
X154178000Y-77740000D01*
X153552313Y-77864457D01*
X153021880Y-78218880D01*
X152667457Y-78749313D01*
X152543000Y-79375000D01*
X152667457Y-80000687D01*
X153021880Y-80531120D01*
X153552313Y-80885543D01*
X154178000Y-81010000D01*
X160400995Y-81010000D01*
X160401000Y-81010001D01*
X161026688Y-80885543D01*
X161557120Y-80531120D01*
X162941000Y-79147240D01*
X162941000Y-79375000D01*
X162949685Y-79421159D01*
X162976965Y-79463553D01*
X163018590Y-79491994D01*
X163068000Y-79502000D01*
X170815000Y-79502000D01*
X170861159Y-79493315D01*
X170903553Y-79466035D01*
X170931994Y-79424410D01*
X170942000Y-79375000D01*
X170942000Y-78474750D01*
X183446000Y-78474750D01*
X183446000Y-78915309D01*
X183542673Y-79148698D01*
X183721301Y-79327327D01*
X183954690Y-79424000D01*
X184245250Y-79424000D01*
X184404000Y-79265250D01*
X184404000Y-78316000D01*
X183604750Y-78316000D01*
X183446000Y-78474750D01*
X170942000Y-78474750D01*
X170942000Y-77353215D01*
X177207390Y-77353215D01*
X177284656Y-77601976D01*
X177831131Y-77799340D01*
X178411535Y-77772553D01*
X178823344Y-77601976D01*
X178900610Y-77353215D01*
X178054000Y-76506605D01*
X177207390Y-77353215D01*
X170942000Y-77353215D01*
X170942000Y-77073000D01*
X172445995Y-77073000D01*
X172446000Y-77073001D01*
X173071688Y-76948543D01*
X173602120Y-76594120D01*
X173905240Y-76291000D01*
X175853000Y-76291000D01*
X176478687Y-76166543D01*
X176584703Y-76095706D01*
X176581660Y-76104131D01*
X176608447Y-76684535D01*
X176779024Y-77096344D01*
X177027785Y-77173610D01*
X177874395Y-76327000D01*
X177860253Y-76312858D01*
X178039858Y-76133253D01*
X178054000Y-76147395D01*
X178068143Y-76133253D01*
X178247748Y-76312858D01*
X178233605Y-76327000D01*
X179080215Y-77173610D01*
X179122557Y-77160458D01*
X179165338Y-77387817D01*
X179304410Y-77603941D01*
X179516610Y-77748931D01*
X179768500Y-77799940D01*
X181419500Y-77799940D01*
X181654817Y-77755662D01*
X181870941Y-77616590D01*
X182015931Y-77404390D01*
X182066940Y-77152500D01*
X182066940Y-76560808D01*
X182085566Y-76579434D01*
X182356460Y-76760440D01*
X182676000Y-76824000D01*
X183477778Y-76824000D01*
X183477838Y-76824317D01*
X183616910Y-77040441D01*
X183685006Y-77086969D01*
X183542673Y-77229302D01*
X183446000Y-77462691D01*
X183446000Y-77903250D01*
X183604750Y-78062000D01*
X184404000Y-78062000D01*
X184404000Y-78042000D01*
X184658000Y-78042000D01*
X184658000Y-78062000D01*
X184678000Y-78062000D01*
X184678000Y-78316000D01*
X184658000Y-78316000D01*
X184658000Y-79265250D01*
X184816750Y-79424000D01*
X185107310Y-79424000D01*
X185340699Y-79327327D01*
X185519327Y-79148698D01*
X185546955Y-79081998D01*
X185639000Y-79225040D01*
X185639000Y-79838975D01*
X185633698Y-79833673D01*
X185400309Y-79737000D01*
X185159750Y-79737000D01*
X185001000Y-79895750D01*
X185001000Y-80645000D01*
X185021000Y-80645000D01*
X185021000Y-80899000D01*
X185001000Y-80899000D01*
X185001000Y-80919000D01*
X184747000Y-80919000D01*
X184747000Y-80899000D01*
X183997750Y-80899000D01*
X183839000Y-81057750D01*
X183839000Y-81298310D01*
X183935673Y-81531699D01*
X184114302Y-81710327D01*
X184301821Y-81788000D01*
X181590949Y-81788000D01*
X181723827Y-81655353D01*
X181927268Y-81165413D01*
X181927731Y-80634914D01*
X181766908Y-80245690D01*
X183839000Y-80245690D01*
X183839000Y-80486250D01*
X183997750Y-80645000D01*
X184747000Y-80645000D01*
X184747000Y-79895750D01*
X184588250Y-79737000D01*
X184347691Y-79737000D01*
X184114302Y-79833673D01*
X183935673Y-80012301D01*
X183839000Y-80245690D01*
X181766908Y-80245690D01*
X181725146Y-80144620D01*
X181350353Y-79769173D01*
X180860413Y-79565732D01*
X180329914Y-79565269D01*
X179839620Y-79767854D01*
X179464173Y-80142647D01*
X179260732Y-80632587D01*
X179260269Y-81163086D01*
X179462854Y-81653380D01*
X179597240Y-81788000D01*
X143155240Y-81788000D01*
X142377240Y-81010000D01*
X146558000Y-81010000D01*
X147183687Y-80885543D01*
X147714120Y-80531120D01*
X148068543Y-80000687D01*
X148193000Y-79375000D01*
X148068543Y-78749313D01*
X147714120Y-78218880D01*
X147183687Y-77864457D01*
X146558000Y-77740000D01*
X142943608Y-77740000D01*
X142885217Y-77681609D01*
X143133976Y-77604344D01*
X143331340Y-77057869D01*
X143304553Y-76477465D01*
X143133976Y-76065656D01*
X142885215Y-75988390D01*
X142038605Y-76835000D01*
X142052748Y-76849143D01*
X141873143Y-77028748D01*
X141859000Y-77014605D01*
X141844858Y-77028748D01*
X141665253Y-76849143D01*
X141679395Y-76835000D01*
X141665253Y-76820858D01*
X141844858Y-76641253D01*
X141859000Y-76655395D01*
X142705610Y-75808785D01*
X158284390Y-75808785D01*
X159131000Y-76655395D01*
X159977610Y-75808785D01*
X159900344Y-75560024D01*
X159353869Y-75362660D01*
X158773465Y-75389447D01*
X158361656Y-75560024D01*
X158284390Y-75808785D01*
X142705610Y-75808785D01*
X142628344Y-75560024D01*
X142081869Y-75362660D01*
X141501465Y-75389447D01*
X141208000Y-75511004D01*
X141208000Y-72310717D01*
X141636131Y-72465340D01*
X142216535Y-72438553D01*
X142628344Y-72267976D01*
X142705610Y-72019215D01*
X158284390Y-72019215D01*
X158361656Y-72267976D01*
X158908131Y-72465340D01*
X159488535Y-72438553D01*
X159900344Y-72267976D01*
X159977610Y-72019215D01*
X159131000Y-71172605D01*
X158284390Y-72019215D01*
X142705610Y-72019215D01*
X141859000Y-71172605D01*
X141844858Y-71186748D01*
X141665253Y-71007143D01*
X141679395Y-70993000D01*
X141665253Y-70978858D01*
X141844858Y-70799253D01*
X141859000Y-70813395D01*
X141873143Y-70799253D01*
X142052748Y-70978858D01*
X142038605Y-70993000D01*
X142885215Y-71839610D01*
X143133976Y-71762344D01*
X143331340Y-71215869D01*
X143304553Y-70635465D01*
X143133976Y-70223656D01*
X142885217Y-70146391D01*
X142943608Y-70088000D01*
X143698603Y-70088000D01*
X143691355Y-70095235D01*
X143518197Y-70512244D01*
X143517803Y-70963775D01*
X143690233Y-71381086D01*
X144009235Y-71700645D01*
X144426244Y-71873803D01*
X144877775Y-71874197D01*
X145295086Y-71701767D01*
X145614645Y-71382765D01*
X145787803Y-70965756D01*
X145788197Y-70514225D01*
X145615767Y-70096914D01*
X145606869Y-70088000D01*
X146558000Y-70088000D01*
X147183687Y-69963543D01*
X147714120Y-69609120D01*
X148068543Y-69078687D01*
X148193000Y-68453000D01*
X148068543Y-67827313D01*
X147714120Y-67296880D01*
X147183687Y-66942457D01*
X146558000Y-66818000D01*
X145272000Y-66818000D01*
X145272000Y-59873196D01*
X146808409Y-59873196D01*
X146893467Y-60128539D01*
X147462965Y-60336516D01*
X148068700Y-60310723D01*
X148508533Y-60128539D01*
X148593591Y-59873196D01*
X147701000Y-58980605D01*
X146808409Y-59873196D01*
X145272000Y-59873196D01*
X145272000Y-58562965D01*
X146165484Y-58562965D01*
X146191277Y-59168700D01*
X146373461Y-59608533D01*
X146628804Y-59693591D01*
X147521395Y-58801000D01*
X147880605Y-58801000D01*
X148773196Y-59693591D01*
X149028539Y-59608533D01*
X149236516Y-59039035D01*
X149210723Y-58433300D01*
X149028539Y-57993467D01*
X148773196Y-57908409D01*
X147880605Y-58801000D01*
X147521395Y-58801000D01*
X146628804Y-57908409D01*
X146373461Y-57993467D01*
X146165484Y-58562965D01*
X145272000Y-58562965D01*
X145272000Y-57728804D01*
X146808409Y-57728804D01*
X147701000Y-58621395D01*
X148593591Y-57728804D01*
X148508533Y-57473461D01*
X147939035Y-57265484D01*
X147333300Y-57291277D01*
X146893467Y-57473461D01*
X146808409Y-57728804D01*
X145272000Y-57728804D01*
X145272000Y-56430240D01*
X146346240Y-55356000D01*
X147701000Y-55356000D01*
X148196494Y-55257440D01*
X148590000Y-55257440D01*
X148825317Y-55213162D01*
X149041441Y-55074090D01*
X149186431Y-54861890D01*
X149237440Y-54610000D01*
X149237440Y-54216494D01*
X149310738Y-53848000D01*
X153162000Y-53848000D01*
X153162000Y-61849000D01*
X153170685Y-61895159D01*
X153197965Y-61937553D01*
X153239590Y-61965994D01*
X153289000Y-61976000D01*
X158279048Y-61976000D01*
X158178732Y-62217587D01*
X158178269Y-62748086D01*
X158380854Y-63238380D01*
X158755647Y-63613827D01*
X159245587Y-63817268D01*
X159776086Y-63817731D01*
X160266380Y-63615146D01*
X160641827Y-63240353D01*
X160845268Y-62750413D01*
X160845731Y-62219914D01*
X160744948Y-61976000D01*
X161417000Y-61976000D01*
X161463159Y-61967315D01*
X161505553Y-61940035D01*
X161533994Y-61898410D01*
X161544000Y-61849000D01*
X161544000Y-57340500D01*
X165913060Y-57340500D01*
X165913060Y-58991500D01*
X165957338Y-59226817D01*
X166096410Y-59442941D01*
X166308610Y-59587931D01*
X166560500Y-59638940D01*
X168211500Y-59638940D01*
X168446817Y-59594662D01*
X168662941Y-59455590D01*
X168807931Y-59243390D01*
X168858940Y-58991500D01*
X168858940Y-57340500D01*
X168814662Y-57105183D01*
X168675590Y-56889059D01*
X168463390Y-56744069D01*
X168219425Y-56694665D01*
X168232610Y-56652215D01*
X167386000Y-55805605D01*
X166539390Y-56652215D01*
X166552542Y-56694557D01*
X166325183Y-56737338D01*
X166109059Y-56876410D01*
X165964069Y-57088610D01*
X165913060Y-57340500D01*
X161544000Y-57340500D01*
X161544000Y-55403131D01*
X165913660Y-55403131D01*
X165940447Y-55983535D01*
X166111024Y-56395344D01*
X166359785Y-56472610D01*
X167206395Y-55626000D01*
X167565605Y-55626000D01*
X168412215Y-56472610D01*
X168660976Y-56395344D01*
X168858340Y-55848869D01*
X168831553Y-55268465D01*
X168660976Y-54856656D01*
X168412215Y-54779390D01*
X167565605Y-55626000D01*
X167206395Y-55626000D01*
X166359785Y-54779390D01*
X166111024Y-54856656D01*
X165913660Y-55403131D01*
X161544000Y-55403131D01*
X161544000Y-54599785D01*
X166539390Y-54599785D01*
X167386000Y-55446395D01*
X168232610Y-54599785D01*
X168155344Y-54351024D01*
X167608869Y-54153660D01*
X167028465Y-54180447D01*
X166616656Y-54351024D01*
X166539390Y-54599785D01*
X161544000Y-54599785D01*
X161544000Y-53848000D01*
X161535315Y-53801841D01*
X161508035Y-53759447D01*
X161466410Y-53731006D01*
X161417000Y-53721000D01*
X158593878Y-53721000D01*
X158557390Y-53696069D01*
X158305500Y-53645060D01*
X156400500Y-53645060D01*
X156165183Y-53689338D01*
X156115979Y-53721000D01*
X153289000Y-53721000D01*
X153242841Y-53729685D01*
X153200447Y-53756965D01*
X153172006Y-53798590D01*
X153162000Y-53848000D01*
X149310738Y-53848000D01*
X149336000Y-53721000D01*
X149237440Y-53225506D01*
X149237440Y-52832000D01*
X149193162Y-52596683D01*
X149054090Y-52380559D01*
X148841890Y-52235569D01*
X148590000Y-52184560D01*
X148196494Y-52184560D01*
X147701000Y-52086000D01*
X145669005Y-52086000D01*
X145669000Y-52085999D01*
X145668995Y-52086000D01*
X141859005Y-52086000D01*
X141859000Y-52085999D01*
X141858995Y-52086000D01*
X138176000Y-52086000D01*
X138176000Y-44652000D01*
X173055060Y-44652000D01*
X173055060Y-46356000D01*
G36*
X174616235Y-66239645D02*
X175033244Y-66412803D01*
X175484775Y-66413197D01*
X175802769Y-66281804D01*
X175838431Y-66305633D01*
X175877560Y-66313416D01*
X175877560Y-66363000D01*
X175921838Y-66598317D01*
X176060910Y-66814441D01*
X176273110Y-66959431D01*
X176525000Y-67010440D01*
X176975000Y-67010440D01*
X177078671Y-66990933D01*
X177175000Y-67010440D01*
X177625000Y-67010440D01*
X177696323Y-66997020D01*
X177698690Y-66998000D01*
X177778750Y-66998000D01*
X177799062Y-66977688D01*
X177860317Y-66966162D01*
X178054916Y-66840941D01*
X178115301Y-66901327D01*
X178301847Y-66978597D01*
X178321250Y-66998000D01*
X178428750Y-66998000D01*
X178448153Y-66978597D01*
X178572998Y-66926884D01*
X178572998Y-66998000D01*
X178594104Y-66998000D01*
X178603560Y-67045540D01*
X178620998Y-67071638D01*
X178531808Y-67160673D01*
X178389162Y-67504201D01*
X178388838Y-67876167D01*
X178530883Y-68219943D01*
X178793673Y-68483192D01*
X178816000Y-68492463D01*
X178816000Y-69884754D01*
X178668057Y-69945883D01*
X178404808Y-70208673D01*
X178262162Y-70552201D01*
X178261838Y-70924167D01*
X178366719Y-71178000D01*
X178321250Y-71178000D01*
X178300938Y-71198312D01*
X178239683Y-71209838D01*
X178047773Y-71333329D01*
X177876890Y-71216569D01*
X177802192Y-71201442D01*
X177778750Y-71178000D01*
X177698690Y-71178000D01*
X177694665Y-71179667D01*
X177625000Y-71165560D01*
X177175000Y-71165560D01*
X177071329Y-71185067D01*
X176975000Y-71165560D01*
X176525000Y-71165560D01*
X176289683Y-71209838D01*
X176073559Y-71348910D01*
X175954219Y-71523570D01*
X175613756Y-71382197D01*
X175162225Y-71381803D01*
X174744914Y-71554233D01*
X174488000Y-71810699D01*
X174488000Y-71279691D01*
X174391327Y-71046302D01*
X174212699Y-70867673D01*
X173979310Y-70771000D01*
X173513750Y-70771000D01*
X173355000Y-70929750D01*
X173355000Y-72029000D01*
X173375000Y-72029000D01*
X173375000Y-72283000D01*
X173355000Y-72283000D01*
X173355000Y-72303000D01*
X173101000Y-72303000D01*
X173101000Y-72283000D01*
X172126750Y-72283000D01*
X171968000Y-72441750D01*
X171968000Y-73032309D01*
X172064673Y-73265698D01*
X172205910Y-73406936D01*
X172151559Y-73441910D01*
X172145612Y-73450614D01*
X172071880Y-73499880D01*
X171768760Y-73803000D01*
X170942000Y-73803000D01*
X170942000Y-71279691D01*
X171968000Y-71279691D01*
X171968000Y-71870250D01*
X172126750Y-72029000D01*
X173101000Y-72029000D01*
X173101000Y-70929750D01*
X172942250Y-70771000D01*
X172476690Y-70771000D01*
X172243301Y-70867673D01*
X172064673Y-71046302D01*
X171968000Y-71279691D01*
X170942000Y-71279691D01*
X170942000Y-68352240D01*
X171653619Y-67640621D01*
X172005539Y-67113935D01*
X172064673Y-67256698D01*
X172243301Y-67435327D01*
X172476690Y-67532000D01*
X172942250Y-67532000D01*
X173101000Y-67373250D01*
X173101000Y-66274000D01*
X173355000Y-66274000D01*
X173355000Y-67373250D01*
X173513750Y-67532000D01*
X173979310Y-67532000D01*
X174212699Y-67435327D01*
X174391327Y-67256698D01*
X174488000Y-67023309D01*
X174488000Y-66432750D01*
X174329250Y-66274000D01*
X173355000Y-66274000D01*
X173101000Y-66274000D01*
X173081000Y-66274000D01*
X173081000Y-66020000D01*
X173101000Y-66020000D01*
X173101000Y-66000000D01*
X173355000Y-66000000D01*
X173355000Y-66020000D01*
X174329250Y-66020000D01*
X174363141Y-65986109D01*
X174616235Y-66239645D01*
X174616235Y-66239645D01*
G37*
X174616235Y-66239645D02*
X175033244Y-66412803D01*
X175484775Y-66413197D01*
X175802769Y-66281804D01*
X175838431Y-66305633D01*
X175877560Y-66313416D01*
X175877560Y-66363000D01*
X175921838Y-66598317D01*
X176060910Y-66814441D01*
X176273110Y-66959431D01*
X176525000Y-67010440D01*
X176975000Y-67010440D01*
X177078671Y-66990933D01*
X177175000Y-67010440D01*
X177625000Y-67010440D01*
X177696323Y-66997020D01*
X177698690Y-66998000D01*
X177778750Y-66998000D01*
X177799062Y-66977688D01*
X177860317Y-66966162D01*
X178054916Y-66840941D01*
X178115301Y-66901327D01*
X178301847Y-66978597D01*
X178321250Y-66998000D01*
X178428750Y-66998000D01*
X178448153Y-66978597D01*
X178572998Y-66926884D01*
X178572998Y-66998000D01*
X178594104Y-66998000D01*
X178603560Y-67045540D01*
X178620998Y-67071638D01*
X178531808Y-67160673D01*
X178389162Y-67504201D01*
X178388838Y-67876167D01*
X178530883Y-68219943D01*
X178793673Y-68483192D01*
X178816000Y-68492463D01*
X178816000Y-69884754D01*
X178668057Y-69945883D01*
X178404808Y-70208673D01*
X178262162Y-70552201D01*
X178261838Y-70924167D01*
X178366719Y-71178000D01*
X178321250Y-71178000D01*
X178300938Y-71198312D01*
X178239683Y-71209838D01*
X178047773Y-71333329D01*
X177876890Y-71216569D01*
X177802192Y-71201442D01*
X177778750Y-71178000D01*
X177698690Y-71178000D01*
X177694665Y-71179667D01*
X177625000Y-71165560D01*
X177175000Y-71165560D01*
X177071329Y-71185067D01*
X176975000Y-71165560D01*
X176525000Y-71165560D01*
X176289683Y-71209838D01*
X176073559Y-71348910D01*
X175954219Y-71523570D01*
X175613756Y-71382197D01*
X175162225Y-71381803D01*
X174744914Y-71554233D01*
X174488000Y-71810699D01*
X174488000Y-71279691D01*
X174391327Y-71046302D01*
X174212699Y-70867673D01*
X173979310Y-70771000D01*
X173513750Y-70771000D01*
X173355000Y-70929750D01*
X173355000Y-72029000D01*
X173375000Y-72029000D01*
X173375000Y-72283000D01*
X173355000Y-72283000D01*
X173355000Y-72303000D01*
X173101000Y-72303000D01*
X173101000Y-72283000D01*
X172126750Y-72283000D01*
X171968000Y-72441750D01*
X171968000Y-73032309D01*
X172064673Y-73265698D01*
X172205910Y-73406936D01*
X172151559Y-73441910D01*
X172145612Y-73450614D01*
X172071880Y-73499880D01*
X171768760Y-73803000D01*
X170942000Y-73803000D01*
X170942000Y-71279691D01*
X171968000Y-71279691D01*
X171968000Y-71870250D01*
X172126750Y-72029000D01*
X173101000Y-72029000D01*
X173101000Y-70929750D01*
X172942250Y-70771000D01*
X172476690Y-70771000D01*
X172243301Y-70867673D01*
X172064673Y-71046302D01*
X171968000Y-71279691D01*
X170942000Y-71279691D01*
X170942000Y-68352240D01*
X171653619Y-67640621D01*
X172005539Y-67113935D01*
X172064673Y-67256698D01*
X172243301Y-67435327D01*
X172476690Y-67532000D01*
X172942250Y-67532000D01*
X173101000Y-67373250D01*
X173101000Y-66274000D01*
X173355000Y-66274000D01*
X173355000Y-67373250D01*
X173513750Y-67532000D01*
X173979310Y-67532000D01*
X174212699Y-67435327D01*
X174391327Y-67256698D01*
X174488000Y-67023309D01*
X174488000Y-66432750D01*
X174329250Y-66274000D01*
X173355000Y-66274000D01*
X173101000Y-66274000D01*
X173081000Y-66274000D01*
X173081000Y-66020000D01*
X173101000Y-66020000D01*
X173101000Y-66000000D01*
X173355000Y-66000000D01*
X173355000Y-66020000D01*
X174329250Y-66020000D01*
X174363141Y-65986109D01*
X174616235Y-66239645D01*
G36*
X186055000Y-46638122D02*
X186030069Y-46674610D01*
X185979060Y-46926500D01*
X185979060Y-48831500D01*
X186023338Y-49066817D01*
X186055000Y-49116021D01*
X186055000Y-51816000D01*
X186063685Y-51862159D01*
X186090965Y-51904553D01*
X186132590Y-51932994D01*
X186182000Y-51943000D01*
X194056000Y-51943000D01*
X194102159Y-51934315D01*
X194144553Y-51907035D01*
X194172994Y-51865410D01*
X194183000Y-51816000D01*
X194183000Y-48348419D01*
X194246224Y-48196159D01*
X194246775Y-47564612D01*
X194183000Y-47410265D01*
X194183000Y-44652000D01*
X195107447Y-44652000D01*
X194659269Y-45099396D01*
X194219062Y-46159533D01*
X194218060Y-47307431D01*
X194656417Y-48368335D01*
X195467396Y-49180731D01*
X196527533Y-49620938D01*
X197675431Y-49621940D01*
X198736335Y-49183583D01*
X199061000Y-48859484D01*
X199061000Y-75946000D01*
X188595000Y-75946000D01*
X188595000Y-74649440D01*
X189445000Y-74649440D01*
X189680317Y-74605162D01*
X189896441Y-74466090D01*
X190041431Y-74253890D01*
X190092440Y-74002000D01*
X190092440Y-73912000D01*
X191717000Y-73912000D01*
X192007839Y-73854148D01*
X192254401Y-73689401D01*
X192993800Y-72950002D01*
X193017298Y-72959759D01*
X193073676Y-72959808D01*
X194068434Y-73954566D01*
X194436654Y-74200603D01*
X194871000Y-74287000D01*
X196614105Y-74287000D01*
X197091587Y-74485268D01*
X197622086Y-74485731D01*
X198112380Y-74283146D01*
X198487827Y-73908353D01*
X198691268Y-73418413D01*
X198691731Y-72887914D01*
X198489146Y-72397620D01*
X198114353Y-72022173D01*
X197624413Y-71818732D01*
X197093914Y-71818269D01*
X196612947Y-72017000D01*
X195341132Y-72017000D01*
X194679193Y-71355061D01*
X194679240Y-71300715D01*
X194468831Y-70791485D01*
X194079564Y-70401539D01*
X193570702Y-70190241D01*
X193019715Y-70189760D01*
X192510485Y-70400169D01*
X192120539Y-70789436D01*
X191909241Y-71298298D01*
X191908760Y-71849285D01*
X191919330Y-71874868D01*
X191402198Y-72392000D01*
X190092440Y-72392000D01*
X190092440Y-72302000D01*
X190048162Y-72066683D01*
X189909090Y-71850559D01*
X189696890Y-71705569D01*
X189588893Y-71683699D01*
X189866645Y-71378924D01*
X190036476Y-70968890D01*
X189915155Y-70739000D01*
X188722000Y-70739000D01*
X188722000Y-70759000D01*
X188468000Y-70759000D01*
X188468000Y-70739000D01*
X187274845Y-70739000D01*
X187153524Y-70968890D01*
X187323355Y-71378924D01*
X187599501Y-71681937D01*
X187509683Y-71698838D01*
X187293559Y-71837910D01*
X187148569Y-72050110D01*
X187097560Y-72302000D01*
X187097560Y-72392000D01*
X186072440Y-72392000D01*
X186072440Y-71813000D01*
X186028162Y-71577683D01*
X185889090Y-71361559D01*
X185676890Y-71216569D01*
X185425000Y-71165560D01*
X184975000Y-71165560D01*
X184871329Y-71185067D01*
X184775000Y-71165560D01*
X184325000Y-71165560D01*
X184221329Y-71185067D01*
X184125000Y-71165560D01*
X184085000Y-71165560D01*
X184085000Y-70255110D01*
X187153524Y-70255110D01*
X187274845Y-70485000D01*
X188468000Y-70485000D01*
X188468000Y-69291181D01*
X188722000Y-69291181D01*
X188722000Y-70485000D01*
X189915155Y-70485000D01*
X190036476Y-70255110D01*
X189866645Y-69845076D01*
X189476358Y-69416817D01*
X188951892Y-69170514D01*
X188722000Y-69291181D01*
X188468000Y-69291181D01*
X188238108Y-69170514D01*
X187713642Y-69416817D01*
X187323355Y-69845076D01*
X187153524Y-70255110D01*
X184085000Y-70255110D01*
X184085000Y-69235000D01*
X184021439Y-68915459D01*
X183840434Y-68644566D01*
X182989758Y-67793890D01*
X187153524Y-67793890D01*
X187323355Y-68203924D01*
X187713642Y-68632183D01*
X188238108Y-68878486D01*
X188468000Y-68757819D01*
X188468000Y-67564000D01*
X188722000Y-67564000D01*
X188722000Y-68757819D01*
X188951892Y-68878486D01*
X189476358Y-68632183D01*
X189866645Y-68203924D01*
X190036476Y-67793890D01*
X189915155Y-67564000D01*
X188722000Y-67564000D01*
X188468000Y-67564000D01*
X187274845Y-67564000D01*
X187153524Y-67793890D01*
X182989758Y-67793890D01*
X182802433Y-67606565D01*
X182609372Y-67477566D01*
X182531540Y-67425560D01*
X182279131Y-67375353D01*
X182276117Y-67368057D01*
X182135000Y-67226694D01*
X182135000Y-66961839D01*
X182197808Y-66974558D01*
X182221250Y-66998000D01*
X182301310Y-66998000D01*
X182305335Y-66996333D01*
X182375000Y-67010440D01*
X182825000Y-67010440D01*
X182896323Y-66997020D01*
X182898690Y-66998000D01*
X182978750Y-66998000D01*
X182999062Y-66977688D01*
X183060317Y-66966162D01*
X183252227Y-66842671D01*
X183423110Y-66959431D01*
X183497808Y-66974558D01*
X183521250Y-66998000D01*
X183601310Y-66998000D01*
X183605335Y-66996333D01*
X183675000Y-67010440D01*
X184125000Y-67010440D01*
X184228671Y-66990933D01*
X184325000Y-67010440D01*
X184775000Y-67010440D01*
X184878671Y-66990933D01*
X184975000Y-67010440D01*
X185425000Y-67010440D01*
X185660317Y-66966162D01*
X185876441Y-66827090D01*
X186021431Y-66614890D01*
X186072440Y-66363000D01*
X186072440Y-65690362D01*
X186105802Y-65657000D01*
X187097560Y-65657000D01*
X187097560Y-65747000D01*
X187141838Y-65982317D01*
X187280910Y-66198441D01*
X187493110Y-66343431D01*
X187601107Y-66365301D01*
X187323355Y-66670076D01*
X187153524Y-67080110D01*
X187274845Y-67310000D01*
X188468000Y-67310000D01*
X188468000Y-67290000D01*
X188722000Y-67290000D01*
X188722000Y-67310000D01*
X189915155Y-67310000D01*
X190036476Y-67080110D01*
X189866645Y-66670076D01*
X189590499Y-66367063D01*
X189680317Y-66350162D01*
X189896441Y-66211090D01*
X190041431Y-65998890D01*
X190092440Y-65747000D01*
X190092440Y-65657000D01*
X191201198Y-65657000D01*
X191918998Y-66374800D01*
X191909241Y-66398298D01*
X191908760Y-66949285D01*
X192119169Y-67458515D01*
X192508436Y-67848461D01*
X193017298Y-68059759D01*
X193568285Y-68060240D01*
X194077515Y-67849831D01*
X194467461Y-67460564D01*
X194678759Y-66951702D01*
X194678808Y-66895324D01*
X194907132Y-66667000D01*
X196614105Y-66667000D01*
X197091587Y-66865268D01*
X197622086Y-66865731D01*
X198112380Y-66663146D01*
X198487827Y-66288353D01*
X198691268Y-65798413D01*
X198691731Y-65267914D01*
X198489146Y-64777620D01*
X198114353Y-64402173D01*
X197624413Y-64198732D01*
X197093914Y-64198269D01*
X196612947Y-64397000D01*
X194437000Y-64397000D01*
X194002654Y-64483397D01*
X193720390Y-64672000D01*
X193634434Y-64729434D01*
X193074061Y-65289807D01*
X193019715Y-65289760D01*
X192994132Y-65300330D01*
X192053401Y-64359599D01*
X191806839Y-64194852D01*
X191516000Y-64137000D01*
X190092440Y-64137000D01*
X190092440Y-64047000D01*
X190048162Y-63811683D01*
X189909090Y-63595559D01*
X189696890Y-63450569D01*
X189445000Y-63399560D01*
X187745000Y-63399560D01*
X187509683Y-63443838D01*
X187293559Y-63582910D01*
X187148569Y-63795110D01*
X187097560Y-64047000D01*
X187097560Y-64137000D01*
X185853147Y-64137000D01*
X185676890Y-64016569D01*
X185425000Y-63965560D01*
X184975000Y-63965560D01*
X184871329Y-63985067D01*
X184775000Y-63965560D01*
X184325000Y-63965560D01*
X184221329Y-63985067D01*
X184125000Y-63965560D01*
X183675000Y-63965560D01*
X183603677Y-63978980D01*
X183601310Y-63978000D01*
X183521250Y-63978000D01*
X183500938Y-63998312D01*
X183439683Y-64009838D01*
X183247773Y-64133329D01*
X183076890Y-64016569D01*
X183002192Y-64001442D01*
X182978750Y-63978000D01*
X182898690Y-63978000D01*
X182894665Y-63979667D01*
X182825000Y-63965560D01*
X182499000Y-63965560D01*
X182499000Y-50876695D01*
X182506086Y-50873767D01*
X182825645Y-50554765D01*
X182998803Y-50137756D01*
X182999197Y-49686225D01*
X182826767Y-49268914D01*
X182507765Y-48949355D01*
X182499000Y-48945715D01*
X182499000Y-46582859D01*
X182544940Y-46356000D01*
X182544940Y-44652000D01*
X186055000Y-44652000D01*
X186055000Y-46638122D01*
X186055000Y-46638122D01*
G37*
X186055000Y-46638122D02*
X186030069Y-46674610D01*
X185979060Y-46926500D01*
X185979060Y-48831500D01*
X186023338Y-49066817D01*
X186055000Y-49116021D01*
X186055000Y-51816000D01*
X186063685Y-51862159D01*
X186090965Y-51904553D01*
X186132590Y-51932994D01*
X186182000Y-51943000D01*
X194056000Y-51943000D01*
X194102159Y-51934315D01*
X194144553Y-51907035D01*
X194172994Y-51865410D01*
X194183000Y-51816000D01*
X194183000Y-48348419D01*
X194246224Y-48196159D01*
X194246775Y-47564612D01*
X194183000Y-47410265D01*
X194183000Y-44652000D01*
X195107447Y-44652000D01*
X194659269Y-45099396D01*
X194219062Y-46159533D01*
X194218060Y-47307431D01*
X194656417Y-48368335D01*
X195467396Y-49180731D01*
X196527533Y-49620938D01*
X197675431Y-49621940D01*
X198736335Y-49183583D01*
X199061000Y-48859484D01*
X199061000Y-75946000D01*
X188595000Y-75946000D01*
X188595000Y-74649440D01*
X189445000Y-74649440D01*
X189680317Y-74605162D01*
X189896441Y-74466090D01*
X190041431Y-74253890D01*
X190092440Y-74002000D01*
X190092440Y-73912000D01*
X191717000Y-73912000D01*
X192007839Y-73854148D01*
X192254401Y-73689401D01*
X192993800Y-72950002D01*
X193017298Y-72959759D01*
X193073676Y-72959808D01*
X194068434Y-73954566D01*
X194436654Y-74200603D01*
X194871000Y-74287000D01*
X196614105Y-74287000D01*
X197091587Y-74485268D01*
X197622086Y-74485731D01*
X198112380Y-74283146D01*
X198487827Y-73908353D01*
X198691268Y-73418413D01*
X198691731Y-72887914D01*
X198489146Y-72397620D01*
X198114353Y-72022173D01*
X197624413Y-71818732D01*
X197093914Y-71818269D01*
X196612947Y-72017000D01*
X195341132Y-72017000D01*
X194679193Y-71355061D01*
X194679240Y-71300715D01*
X194468831Y-70791485D01*
X194079564Y-70401539D01*
X193570702Y-70190241D01*
X193019715Y-70189760D01*
X192510485Y-70400169D01*
X192120539Y-70789436D01*
X191909241Y-71298298D01*
X191908760Y-71849285D01*
X191919330Y-71874868D01*
X191402198Y-72392000D01*
X190092440Y-72392000D01*
X190092440Y-72302000D01*
X190048162Y-72066683D01*
X189909090Y-71850559D01*
X189696890Y-71705569D01*
X189588893Y-71683699D01*
X189866645Y-71378924D01*
X190036476Y-70968890D01*
X189915155Y-70739000D01*
X188722000Y-70739000D01*
X188722000Y-70759000D01*
X188468000Y-70759000D01*
X188468000Y-70739000D01*
X187274845Y-70739000D01*
X187153524Y-70968890D01*
X187323355Y-71378924D01*
X187599501Y-71681937D01*
X187509683Y-71698838D01*
X187293559Y-71837910D01*
X187148569Y-72050110D01*
X187097560Y-72302000D01*
X187097560Y-72392000D01*
X186072440Y-72392000D01*
X186072440Y-71813000D01*
X186028162Y-71577683D01*
X185889090Y-71361559D01*
X185676890Y-71216569D01*
X185425000Y-71165560D01*
X184975000Y-71165560D01*
X184871329Y-71185067D01*
X184775000Y-71165560D01*
X184325000Y-71165560D01*
X184221329Y-71185067D01*
X184125000Y-71165560D01*
X184085000Y-71165560D01*
X184085000Y-70255110D01*
X187153524Y-70255110D01*
X187274845Y-70485000D01*
X188468000Y-70485000D01*
X188468000Y-69291181D01*
X188722000Y-69291181D01*
X188722000Y-70485000D01*
X189915155Y-70485000D01*
X190036476Y-70255110D01*
X189866645Y-69845076D01*
X189476358Y-69416817D01*
X188951892Y-69170514D01*
X188722000Y-69291181D01*
X188468000Y-69291181D01*
X188238108Y-69170514D01*
X187713642Y-69416817D01*
X187323355Y-69845076D01*
X187153524Y-70255110D01*
X184085000Y-70255110D01*
X184085000Y-69235000D01*
X184021439Y-68915459D01*
X183840434Y-68644566D01*
X182989758Y-67793890D01*
X187153524Y-67793890D01*
X187323355Y-68203924D01*
X187713642Y-68632183D01*
X188238108Y-68878486D01*
X188468000Y-68757819D01*
X188468000Y-67564000D01*
X188722000Y-67564000D01*
X188722000Y-68757819D01*
X188951892Y-68878486D01*
X189476358Y-68632183D01*
X189866645Y-68203924D01*
X190036476Y-67793890D01*
X189915155Y-67564000D01*
X188722000Y-67564000D01*
X188468000Y-67564000D01*
X187274845Y-67564000D01*
X187153524Y-67793890D01*
X182989758Y-67793890D01*
X182802433Y-67606565D01*
X182609372Y-67477566D01*
X182531540Y-67425560D01*
X182279131Y-67375353D01*
X182276117Y-67368057D01*
X182135000Y-67226694D01*
X182135000Y-66961839D01*
X182197808Y-66974558D01*
X182221250Y-66998000D01*
X182301310Y-66998000D01*
X182305335Y-66996333D01*
X182375000Y-67010440D01*
X182825000Y-67010440D01*
X182896323Y-66997020D01*
X182898690Y-66998000D01*
X182978750Y-66998000D01*
X182999062Y-66977688D01*
X183060317Y-66966162D01*
X183252227Y-66842671D01*
X183423110Y-66959431D01*
X183497808Y-66974558D01*
X183521250Y-66998000D01*
X183601310Y-66998000D01*
X183605335Y-66996333D01*
X183675000Y-67010440D01*
X184125000Y-67010440D01*
X184228671Y-66990933D01*
X184325000Y-67010440D01*
X184775000Y-67010440D01*
X184878671Y-66990933D01*
X184975000Y-67010440D01*
X185425000Y-67010440D01*
X185660317Y-66966162D01*
X185876441Y-66827090D01*
X186021431Y-66614890D01*
X186072440Y-66363000D01*
X186072440Y-65690362D01*
X186105802Y-65657000D01*
X187097560Y-65657000D01*
X187097560Y-65747000D01*
X187141838Y-65982317D01*
X187280910Y-66198441D01*
X187493110Y-66343431D01*
X187601107Y-66365301D01*
X187323355Y-66670076D01*
X187153524Y-67080110D01*
X187274845Y-67310000D01*
X188468000Y-67310000D01*
X188468000Y-67290000D01*
X188722000Y-67290000D01*
X188722000Y-67310000D01*
X189915155Y-67310000D01*
X190036476Y-67080110D01*
X189866645Y-66670076D01*
X189590499Y-66367063D01*
X189680317Y-66350162D01*
X189896441Y-66211090D01*
X190041431Y-65998890D01*
X190092440Y-65747000D01*
X190092440Y-65657000D01*
X191201198Y-65657000D01*
X191918998Y-66374800D01*
X191909241Y-66398298D01*
X191908760Y-66949285D01*
X192119169Y-67458515D01*
X192508436Y-67848461D01*
X193017298Y-68059759D01*
X193568285Y-68060240D01*
X194077515Y-67849831D01*
X194467461Y-67460564D01*
X194678759Y-66951702D01*
X194678808Y-66895324D01*
X194907132Y-66667000D01*
X196614105Y-66667000D01*
X197091587Y-66865268D01*
X197622086Y-66865731D01*
X198112380Y-66663146D01*
X198487827Y-66288353D01*
X198691268Y-65798413D01*
X198691731Y-65267914D01*
X198489146Y-64777620D01*
X198114353Y-64402173D01*
X197624413Y-64198732D01*
X197093914Y-64198269D01*
X196612947Y-64397000D01*
X194437000Y-64397000D01*
X194002654Y-64483397D01*
X193720390Y-64672000D01*
X193634434Y-64729434D01*
X193074061Y-65289807D01*
X193019715Y-65289760D01*
X192994132Y-65300330D01*
X192053401Y-64359599D01*
X191806839Y-64194852D01*
X191516000Y-64137000D01*
X190092440Y-64137000D01*
X190092440Y-64047000D01*
X190048162Y-63811683D01*
X189909090Y-63595559D01*
X189696890Y-63450569D01*
X189445000Y-63399560D01*
X187745000Y-63399560D01*
X187509683Y-63443838D01*
X187293559Y-63582910D01*
X187148569Y-63795110D01*
X187097560Y-64047000D01*
X187097560Y-64137000D01*
X185853147Y-64137000D01*
X185676890Y-64016569D01*
X185425000Y-63965560D01*
X184975000Y-63965560D01*
X184871329Y-63985067D01*
X184775000Y-63965560D01*
X184325000Y-63965560D01*
X184221329Y-63985067D01*
X184125000Y-63965560D01*
X183675000Y-63965560D01*
X183603677Y-63978980D01*
X183601310Y-63978000D01*
X183521250Y-63978000D01*
X183500938Y-63998312D01*
X183439683Y-64009838D01*
X183247773Y-64133329D01*
X183076890Y-64016569D01*
X183002192Y-64001442D01*
X182978750Y-63978000D01*
X182898690Y-63978000D01*
X182894665Y-63979667D01*
X182825000Y-63965560D01*
X182499000Y-63965560D01*
X182499000Y-50876695D01*
X182506086Y-50873767D01*
X182825645Y-50554765D01*
X182998803Y-50137756D01*
X182999197Y-49686225D01*
X182826767Y-49268914D01*
X182507765Y-48949355D01*
X182499000Y-48945715D01*
X182499000Y-46582859D01*
X182544940Y-46356000D01*
X182544940Y-44652000D01*
X186055000Y-44652000D01*
X186055000Y-46638122D01*
M02*
