G04 #@! TF.FileFunction,Legend,Bot*
%FSLAX46Y46*%
G04 Gerber Fmt 4.6, Leading zero omitted, Abs format (unit mm)*
G04 Created by KiCad (PCBNEW 4.0.6+dfsg1-1) date Sat Nov  4 21:01:42 2017*
%MOMM*%
%LPD*%
G01*
G04 APERTURE LIST*
%ADD10C,0.100000*%
%ADD11C,0.120000*%
%ADD12C,0.150000*%
G04 APERTURE END LIST*
D10*
D11*
X186016000Y-49538000D02*
X186016000Y-50538000D01*
X184316000Y-50538000D02*
X184316000Y-49538000D01*
X194349000Y-54602000D02*
X194349000Y-53602000D01*
X196049000Y-53602000D02*
X196049000Y-54602000D01*
X186301000Y-70065000D02*
X185301000Y-70065000D01*
X185301000Y-68365000D02*
X186301000Y-68365000D01*
X163187000Y-57111000D02*
X162187000Y-57111000D01*
X162187000Y-55411000D02*
X163187000Y-55411000D01*
X153123000Y-98179000D02*
X153123000Y-99179000D01*
X151423000Y-99179000D02*
X151423000Y-98179000D01*
X149471000Y-85305000D02*
X148471000Y-85305000D01*
X148471000Y-83605000D02*
X149471000Y-83605000D01*
X177681000Y-77890000D02*
X178681000Y-77890000D01*
X178681000Y-79590000D02*
X177681000Y-79590000D01*
X178697000Y-68619000D02*
X179697000Y-68619000D01*
X179697000Y-70319000D02*
X178697000Y-70319000D01*
X191350000Y-79002000D02*
X191350000Y-80002000D01*
X189650000Y-80002000D02*
X189650000Y-79002000D01*
X154266000Y-91194000D02*
X154266000Y-92194000D01*
X152566000Y-92194000D02*
X152566000Y-91194000D01*
X109466000Y-82257000D02*
X108466000Y-82257000D01*
X108466000Y-80557000D02*
X109466000Y-80557000D01*
X113673000Y-77128000D02*
X114673000Y-77128000D01*
X114673000Y-78828000D02*
X113673000Y-78828000D01*
X113546000Y-67857000D02*
X114546000Y-67857000D01*
X114546000Y-69557000D02*
X113546000Y-69557000D01*
X116467000Y-80684000D02*
X117467000Y-80684000D01*
X117467000Y-82384000D02*
X116467000Y-82384000D01*
X125976000Y-83019000D02*
X124976000Y-83019000D01*
X124976000Y-81319000D02*
X125976000Y-81319000D01*
X128278000Y-67857000D02*
X129278000Y-67857000D01*
X129278000Y-69557000D02*
X128278000Y-69557000D01*
X128532000Y-77382000D02*
X129532000Y-77382000D01*
X129532000Y-79082000D02*
X128532000Y-79082000D01*
X133596000Y-84035000D02*
X132596000Y-84035000D01*
X132596000Y-82335000D02*
X133596000Y-82335000D01*
X193286000Y-57915000D02*
X193636000Y-57915000D01*
X193636000Y-57915000D02*
X193636000Y-56415000D01*
X188636000Y-57915000D02*
X191836000Y-57915000D01*
X186836000Y-56415000D02*
X186836000Y-57915000D01*
X186836000Y-57915000D02*
X187236000Y-57915000D01*
X159636000Y-53205000D02*
X159636000Y-53555000D01*
X159636000Y-53555000D02*
X161136000Y-53555000D01*
X159636000Y-48555000D02*
X159636000Y-51755000D01*
X161136000Y-46755000D02*
X159636000Y-46755000D01*
X159636000Y-46755000D02*
X159636000Y-47155000D01*
X180713000Y-89369000D02*
X179713000Y-89369000D01*
X179713000Y-87669000D02*
X180713000Y-87669000D01*
D12*
X187273143Y-49871334D02*
X187320762Y-49823715D01*
X187368381Y-49680858D01*
X187368381Y-49585620D01*
X187320762Y-49442762D01*
X187225524Y-49347524D01*
X187130286Y-49299905D01*
X186939810Y-49252286D01*
X186796952Y-49252286D01*
X186606476Y-49299905D01*
X186511238Y-49347524D01*
X186416000Y-49442762D01*
X186368381Y-49585620D01*
X186368381Y-49680858D01*
X186416000Y-49823715D01*
X186463619Y-49871334D01*
X186701714Y-50728477D02*
X187368381Y-50728477D01*
X186320762Y-50490381D02*
X187035048Y-50252286D01*
X187035048Y-50871334D01*
X193806143Y-53935334D02*
X193853762Y-53887715D01*
X193901381Y-53744858D01*
X193901381Y-53649620D01*
X193853762Y-53506762D01*
X193758524Y-53411524D01*
X193663286Y-53363905D01*
X193472810Y-53316286D01*
X193329952Y-53316286D01*
X193139476Y-53363905D01*
X193044238Y-53411524D01*
X192949000Y-53506762D01*
X192901381Y-53649620D01*
X192901381Y-53744858D01*
X192949000Y-53887715D01*
X192996619Y-53935334D01*
X192901381Y-54840096D02*
X192901381Y-54363905D01*
X193377571Y-54316286D01*
X193329952Y-54363905D01*
X193282333Y-54459143D01*
X193282333Y-54697239D01*
X193329952Y-54792477D01*
X193377571Y-54840096D01*
X193472810Y-54887715D01*
X193710905Y-54887715D01*
X193806143Y-54840096D01*
X193853762Y-54792477D01*
X193901381Y-54697239D01*
X193901381Y-54459143D01*
X193853762Y-54363905D01*
X193806143Y-54316286D01*
X185967666Y-71322143D02*
X186015285Y-71369762D01*
X186158142Y-71417381D01*
X186253380Y-71417381D01*
X186396238Y-71369762D01*
X186491476Y-71274524D01*
X186539095Y-71179286D01*
X186586714Y-70988810D01*
X186586714Y-70845952D01*
X186539095Y-70655476D01*
X186491476Y-70560238D01*
X186396238Y-70465000D01*
X186253380Y-70417381D01*
X186158142Y-70417381D01*
X186015285Y-70465000D01*
X185967666Y-70512619D01*
X185634333Y-70417381D02*
X184967666Y-70417381D01*
X185396238Y-71417381D01*
X162853666Y-58368143D02*
X162901285Y-58415762D01*
X163044142Y-58463381D01*
X163139380Y-58463381D01*
X163282238Y-58415762D01*
X163377476Y-58320524D01*
X163425095Y-58225286D01*
X163472714Y-58034810D01*
X163472714Y-57891952D01*
X163425095Y-57701476D01*
X163377476Y-57606238D01*
X163282238Y-57511000D01*
X163139380Y-57463381D01*
X163044142Y-57463381D01*
X162901285Y-57511000D01*
X162853666Y-57558619D01*
X162377476Y-58463381D02*
X162187000Y-58463381D01*
X162091761Y-58415762D01*
X162044142Y-58368143D01*
X161948904Y-58225286D01*
X161901285Y-58034810D01*
X161901285Y-57653857D01*
X161948904Y-57558619D01*
X161996523Y-57511000D01*
X162091761Y-57463381D01*
X162282238Y-57463381D01*
X162377476Y-57511000D01*
X162425095Y-57558619D01*
X162472714Y-57653857D01*
X162472714Y-57891952D01*
X162425095Y-57987190D01*
X162377476Y-58034810D01*
X162282238Y-58082429D01*
X162091761Y-58082429D01*
X161996523Y-58034810D01*
X161948904Y-57987190D01*
X161901285Y-57891952D01*
X154380143Y-98036143D02*
X154427762Y-97988524D01*
X154475381Y-97845667D01*
X154475381Y-97750429D01*
X154427762Y-97607571D01*
X154332524Y-97512333D01*
X154237286Y-97464714D01*
X154046810Y-97417095D01*
X153903952Y-97417095D01*
X153713476Y-97464714D01*
X153618238Y-97512333D01*
X153523000Y-97607571D01*
X153475381Y-97750429D01*
X153475381Y-97845667D01*
X153523000Y-97988524D01*
X153570619Y-98036143D01*
X154475381Y-98988524D02*
X154475381Y-98417095D01*
X154475381Y-98702809D02*
X153475381Y-98702809D01*
X153618238Y-98607571D01*
X153713476Y-98512333D01*
X153761095Y-98417095D01*
X153475381Y-99607571D02*
X153475381Y-99702810D01*
X153523000Y-99798048D01*
X153570619Y-99845667D01*
X153665857Y-99893286D01*
X153856333Y-99940905D01*
X154094429Y-99940905D01*
X154284905Y-99893286D01*
X154380143Y-99845667D01*
X154427762Y-99798048D01*
X154475381Y-99702810D01*
X154475381Y-99607571D01*
X154427762Y-99512333D01*
X154380143Y-99464714D01*
X154284905Y-99417095D01*
X154094429Y-99369476D01*
X153856333Y-99369476D01*
X153665857Y-99417095D01*
X153570619Y-99464714D01*
X153523000Y-99512333D01*
X153475381Y-99607571D01*
X149613857Y-86562143D02*
X149661476Y-86609762D01*
X149804333Y-86657381D01*
X149899571Y-86657381D01*
X150042429Y-86609762D01*
X150137667Y-86514524D01*
X150185286Y-86419286D01*
X150232905Y-86228810D01*
X150232905Y-86085952D01*
X150185286Y-85895476D01*
X150137667Y-85800238D01*
X150042429Y-85705000D01*
X149899571Y-85657381D01*
X149804333Y-85657381D01*
X149661476Y-85705000D01*
X149613857Y-85752619D01*
X148661476Y-86657381D02*
X149232905Y-86657381D01*
X148947191Y-86657381D02*
X148947191Y-85657381D01*
X149042429Y-85800238D01*
X149137667Y-85895476D01*
X149232905Y-85943095D01*
X147709095Y-86657381D02*
X148280524Y-86657381D01*
X147994810Y-86657381D02*
X147994810Y-85657381D01*
X148090048Y-85800238D01*
X148185286Y-85895476D01*
X148280524Y-85943095D01*
X178823857Y-77347143D02*
X178871476Y-77394762D01*
X179014333Y-77442381D01*
X179109571Y-77442381D01*
X179252429Y-77394762D01*
X179347667Y-77299524D01*
X179395286Y-77204286D01*
X179442905Y-77013810D01*
X179442905Y-76870952D01*
X179395286Y-76680476D01*
X179347667Y-76585238D01*
X179252429Y-76490000D01*
X179109571Y-76442381D01*
X179014333Y-76442381D01*
X178871476Y-76490000D01*
X178823857Y-76537619D01*
X177871476Y-77442381D02*
X178442905Y-77442381D01*
X178157191Y-77442381D02*
X178157191Y-76442381D01*
X178252429Y-76585238D01*
X178347667Y-76680476D01*
X178442905Y-76728095D01*
X177490524Y-76537619D02*
X177442905Y-76490000D01*
X177347667Y-76442381D01*
X177109571Y-76442381D01*
X177014333Y-76490000D01*
X176966714Y-76537619D01*
X176919095Y-76632857D01*
X176919095Y-76728095D01*
X176966714Y-76870952D01*
X177538143Y-77442381D01*
X176919095Y-77442381D01*
X179839857Y-68076143D02*
X179887476Y-68123762D01*
X180030333Y-68171381D01*
X180125571Y-68171381D01*
X180268429Y-68123762D01*
X180363667Y-68028524D01*
X180411286Y-67933286D01*
X180458905Y-67742810D01*
X180458905Y-67599952D01*
X180411286Y-67409476D01*
X180363667Y-67314238D01*
X180268429Y-67219000D01*
X180125571Y-67171381D01*
X180030333Y-67171381D01*
X179887476Y-67219000D01*
X179839857Y-67266619D01*
X178887476Y-68171381D02*
X179458905Y-68171381D01*
X179173191Y-68171381D02*
X179173191Y-67171381D01*
X179268429Y-67314238D01*
X179363667Y-67409476D01*
X179458905Y-67457095D01*
X178030333Y-67504714D02*
X178030333Y-68171381D01*
X178268429Y-67123762D02*
X178506524Y-67838048D01*
X177887476Y-67838048D01*
X192607143Y-78859143D02*
X192654762Y-78811524D01*
X192702381Y-78668667D01*
X192702381Y-78573429D01*
X192654762Y-78430571D01*
X192559524Y-78335333D01*
X192464286Y-78287714D01*
X192273810Y-78240095D01*
X192130952Y-78240095D01*
X191940476Y-78287714D01*
X191845238Y-78335333D01*
X191750000Y-78430571D01*
X191702381Y-78573429D01*
X191702381Y-78668667D01*
X191750000Y-78811524D01*
X191797619Y-78859143D01*
X192702381Y-79811524D02*
X192702381Y-79240095D01*
X192702381Y-79525809D02*
X191702381Y-79525809D01*
X191845238Y-79430571D01*
X191940476Y-79335333D01*
X191988095Y-79240095D01*
X191702381Y-80716286D02*
X191702381Y-80240095D01*
X192178571Y-80192476D01*
X192130952Y-80240095D01*
X192083333Y-80335333D01*
X192083333Y-80573429D01*
X192130952Y-80668667D01*
X192178571Y-80716286D01*
X192273810Y-80763905D01*
X192511905Y-80763905D01*
X192607143Y-80716286D01*
X192654762Y-80668667D01*
X192702381Y-80573429D01*
X192702381Y-80335333D01*
X192654762Y-80240095D01*
X192607143Y-80192476D01*
X155523143Y-91051143D02*
X155570762Y-91003524D01*
X155618381Y-90860667D01*
X155618381Y-90765429D01*
X155570762Y-90622571D01*
X155475524Y-90527333D01*
X155380286Y-90479714D01*
X155189810Y-90432095D01*
X155046952Y-90432095D01*
X154856476Y-90479714D01*
X154761238Y-90527333D01*
X154666000Y-90622571D01*
X154618381Y-90765429D01*
X154618381Y-90860667D01*
X154666000Y-91003524D01*
X154713619Y-91051143D01*
X155618381Y-92003524D02*
X155618381Y-91432095D01*
X155618381Y-91717809D02*
X154618381Y-91717809D01*
X154761238Y-91622571D01*
X154856476Y-91527333D01*
X154904095Y-91432095D01*
X154618381Y-92860667D02*
X154618381Y-92670190D01*
X154666000Y-92574952D01*
X154713619Y-92527333D01*
X154856476Y-92432095D01*
X155046952Y-92384476D01*
X155427905Y-92384476D01*
X155523143Y-92432095D01*
X155570762Y-92479714D01*
X155618381Y-92574952D01*
X155618381Y-92765429D01*
X155570762Y-92860667D01*
X155523143Y-92908286D01*
X155427905Y-92955905D01*
X155189810Y-92955905D01*
X155094571Y-92908286D01*
X155046952Y-92860667D01*
X154999333Y-92765429D01*
X154999333Y-92574952D01*
X155046952Y-92479714D01*
X155094571Y-92432095D01*
X155189810Y-92384476D01*
X109608857Y-83514143D02*
X109656476Y-83561762D01*
X109799333Y-83609381D01*
X109894571Y-83609381D01*
X110037429Y-83561762D01*
X110132667Y-83466524D01*
X110180286Y-83371286D01*
X110227905Y-83180810D01*
X110227905Y-83037952D01*
X110180286Y-82847476D01*
X110132667Y-82752238D01*
X110037429Y-82657000D01*
X109894571Y-82609381D01*
X109799333Y-82609381D01*
X109656476Y-82657000D01*
X109608857Y-82704619D01*
X109227905Y-82704619D02*
X109180286Y-82657000D01*
X109085048Y-82609381D01*
X108846952Y-82609381D01*
X108751714Y-82657000D01*
X108704095Y-82704619D01*
X108656476Y-82799857D01*
X108656476Y-82895095D01*
X108704095Y-83037952D01*
X109275524Y-83609381D01*
X108656476Y-83609381D01*
X107751714Y-82609381D02*
X108227905Y-82609381D01*
X108275524Y-83085571D01*
X108227905Y-83037952D01*
X108132667Y-82990333D01*
X107894571Y-82990333D01*
X107799333Y-83037952D01*
X107751714Y-83085571D01*
X107704095Y-83180810D01*
X107704095Y-83418905D01*
X107751714Y-83514143D01*
X107799333Y-83561762D01*
X107894571Y-83609381D01*
X108132667Y-83609381D01*
X108227905Y-83561762D01*
X108275524Y-83514143D01*
X114815857Y-76585143D02*
X114863476Y-76632762D01*
X115006333Y-76680381D01*
X115101571Y-76680381D01*
X115244429Y-76632762D01*
X115339667Y-76537524D01*
X115387286Y-76442286D01*
X115434905Y-76251810D01*
X115434905Y-76108952D01*
X115387286Y-75918476D01*
X115339667Y-75823238D01*
X115244429Y-75728000D01*
X115101571Y-75680381D01*
X115006333Y-75680381D01*
X114863476Y-75728000D01*
X114815857Y-75775619D01*
X114434905Y-75775619D02*
X114387286Y-75728000D01*
X114292048Y-75680381D01*
X114053952Y-75680381D01*
X113958714Y-75728000D01*
X113911095Y-75775619D01*
X113863476Y-75870857D01*
X113863476Y-75966095D01*
X113911095Y-76108952D01*
X114482524Y-76680381D01*
X113863476Y-76680381D01*
X113006333Y-75680381D02*
X113196810Y-75680381D01*
X113292048Y-75728000D01*
X113339667Y-75775619D01*
X113434905Y-75918476D01*
X113482524Y-76108952D01*
X113482524Y-76489905D01*
X113434905Y-76585143D01*
X113387286Y-76632762D01*
X113292048Y-76680381D01*
X113101571Y-76680381D01*
X113006333Y-76632762D01*
X112958714Y-76585143D01*
X112911095Y-76489905D01*
X112911095Y-76251810D01*
X112958714Y-76156571D01*
X113006333Y-76108952D01*
X113101571Y-76061333D01*
X113292048Y-76061333D01*
X113387286Y-76108952D01*
X113434905Y-76156571D01*
X113482524Y-76251810D01*
X114688857Y-67314143D02*
X114736476Y-67361762D01*
X114879333Y-67409381D01*
X114974571Y-67409381D01*
X115117429Y-67361762D01*
X115212667Y-67266524D01*
X115260286Y-67171286D01*
X115307905Y-66980810D01*
X115307905Y-66837952D01*
X115260286Y-66647476D01*
X115212667Y-66552238D01*
X115117429Y-66457000D01*
X114974571Y-66409381D01*
X114879333Y-66409381D01*
X114736476Y-66457000D01*
X114688857Y-66504619D01*
X114307905Y-66504619D02*
X114260286Y-66457000D01*
X114165048Y-66409381D01*
X113926952Y-66409381D01*
X113831714Y-66457000D01*
X113784095Y-66504619D01*
X113736476Y-66599857D01*
X113736476Y-66695095D01*
X113784095Y-66837952D01*
X114355524Y-67409381D01*
X113736476Y-67409381D01*
X113165048Y-66837952D02*
X113260286Y-66790333D01*
X113307905Y-66742714D01*
X113355524Y-66647476D01*
X113355524Y-66599857D01*
X113307905Y-66504619D01*
X113260286Y-66457000D01*
X113165048Y-66409381D01*
X112974571Y-66409381D01*
X112879333Y-66457000D01*
X112831714Y-66504619D01*
X112784095Y-66599857D01*
X112784095Y-66647476D01*
X112831714Y-66742714D01*
X112879333Y-66790333D01*
X112974571Y-66837952D01*
X113165048Y-66837952D01*
X113260286Y-66885571D01*
X113307905Y-66933190D01*
X113355524Y-67028429D01*
X113355524Y-67218905D01*
X113307905Y-67314143D01*
X113260286Y-67361762D01*
X113165048Y-67409381D01*
X112974571Y-67409381D01*
X112879333Y-67361762D01*
X112831714Y-67314143D01*
X112784095Y-67218905D01*
X112784095Y-67028429D01*
X112831714Y-66933190D01*
X112879333Y-66885571D01*
X112974571Y-66837952D01*
X117609857Y-80141143D02*
X117657476Y-80188762D01*
X117800333Y-80236381D01*
X117895571Y-80236381D01*
X118038429Y-80188762D01*
X118133667Y-80093524D01*
X118181286Y-79998286D01*
X118228905Y-79807810D01*
X118228905Y-79664952D01*
X118181286Y-79474476D01*
X118133667Y-79379238D01*
X118038429Y-79284000D01*
X117895571Y-79236381D01*
X117800333Y-79236381D01*
X117657476Y-79284000D01*
X117609857Y-79331619D01*
X117228905Y-79331619D02*
X117181286Y-79284000D01*
X117086048Y-79236381D01*
X116847952Y-79236381D01*
X116752714Y-79284000D01*
X116705095Y-79331619D01*
X116657476Y-79426857D01*
X116657476Y-79522095D01*
X116705095Y-79664952D01*
X117276524Y-80236381D01*
X116657476Y-80236381D01*
X116181286Y-80236381D02*
X115990810Y-80236381D01*
X115895571Y-80188762D01*
X115847952Y-80141143D01*
X115752714Y-79998286D01*
X115705095Y-79807810D01*
X115705095Y-79426857D01*
X115752714Y-79331619D01*
X115800333Y-79284000D01*
X115895571Y-79236381D01*
X116086048Y-79236381D01*
X116181286Y-79284000D01*
X116228905Y-79331619D01*
X116276524Y-79426857D01*
X116276524Y-79664952D01*
X116228905Y-79760190D01*
X116181286Y-79807810D01*
X116086048Y-79855429D01*
X115895571Y-79855429D01*
X115800333Y-79807810D01*
X115752714Y-79760190D01*
X115705095Y-79664952D01*
X126118857Y-84276143D02*
X126166476Y-84323762D01*
X126309333Y-84371381D01*
X126404571Y-84371381D01*
X126547429Y-84323762D01*
X126642667Y-84228524D01*
X126690286Y-84133286D01*
X126737905Y-83942810D01*
X126737905Y-83799952D01*
X126690286Y-83609476D01*
X126642667Y-83514238D01*
X126547429Y-83419000D01*
X126404571Y-83371381D01*
X126309333Y-83371381D01*
X126166476Y-83419000D01*
X126118857Y-83466619D01*
X125785524Y-83371381D02*
X125166476Y-83371381D01*
X125499810Y-83752333D01*
X125356952Y-83752333D01*
X125261714Y-83799952D01*
X125214095Y-83847571D01*
X125166476Y-83942810D01*
X125166476Y-84180905D01*
X125214095Y-84276143D01*
X125261714Y-84323762D01*
X125356952Y-84371381D01*
X125642667Y-84371381D01*
X125737905Y-84323762D01*
X125785524Y-84276143D01*
X124214095Y-84371381D02*
X124785524Y-84371381D01*
X124499810Y-84371381D02*
X124499810Y-83371381D01*
X124595048Y-83514238D01*
X124690286Y-83609476D01*
X124785524Y-83657095D01*
X129420857Y-67314143D02*
X129468476Y-67361762D01*
X129611333Y-67409381D01*
X129706571Y-67409381D01*
X129849429Y-67361762D01*
X129944667Y-67266524D01*
X129992286Y-67171286D01*
X130039905Y-66980810D01*
X130039905Y-66837952D01*
X129992286Y-66647476D01*
X129944667Y-66552238D01*
X129849429Y-66457000D01*
X129706571Y-66409381D01*
X129611333Y-66409381D01*
X129468476Y-66457000D01*
X129420857Y-66504619D01*
X129087524Y-66409381D02*
X128468476Y-66409381D01*
X128801810Y-66790333D01*
X128658952Y-66790333D01*
X128563714Y-66837952D01*
X128516095Y-66885571D01*
X128468476Y-66980810D01*
X128468476Y-67218905D01*
X128516095Y-67314143D01*
X128563714Y-67361762D01*
X128658952Y-67409381D01*
X128944667Y-67409381D01*
X129039905Y-67361762D01*
X129087524Y-67314143D01*
X128087524Y-66504619D02*
X128039905Y-66457000D01*
X127944667Y-66409381D01*
X127706571Y-66409381D01*
X127611333Y-66457000D01*
X127563714Y-66504619D01*
X127516095Y-66599857D01*
X127516095Y-66695095D01*
X127563714Y-66837952D01*
X128135143Y-67409381D01*
X127516095Y-67409381D01*
X129674857Y-76839143D02*
X129722476Y-76886762D01*
X129865333Y-76934381D01*
X129960571Y-76934381D01*
X130103429Y-76886762D01*
X130198667Y-76791524D01*
X130246286Y-76696286D01*
X130293905Y-76505810D01*
X130293905Y-76362952D01*
X130246286Y-76172476D01*
X130198667Y-76077238D01*
X130103429Y-75982000D01*
X129960571Y-75934381D01*
X129865333Y-75934381D01*
X129722476Y-75982000D01*
X129674857Y-76029619D01*
X129341524Y-75934381D02*
X128722476Y-75934381D01*
X129055810Y-76315333D01*
X128912952Y-76315333D01*
X128817714Y-76362952D01*
X128770095Y-76410571D01*
X128722476Y-76505810D01*
X128722476Y-76743905D01*
X128770095Y-76839143D01*
X128817714Y-76886762D01*
X128912952Y-76934381D01*
X129198667Y-76934381D01*
X129293905Y-76886762D01*
X129341524Y-76839143D01*
X128389143Y-75934381D02*
X127770095Y-75934381D01*
X128103429Y-76315333D01*
X127960571Y-76315333D01*
X127865333Y-76362952D01*
X127817714Y-76410571D01*
X127770095Y-76505810D01*
X127770095Y-76743905D01*
X127817714Y-76839143D01*
X127865333Y-76886762D01*
X127960571Y-76934381D01*
X128246286Y-76934381D01*
X128341524Y-76886762D01*
X128389143Y-76839143D01*
X133738857Y-85292143D02*
X133786476Y-85339762D01*
X133929333Y-85387381D01*
X134024571Y-85387381D01*
X134167429Y-85339762D01*
X134262667Y-85244524D01*
X134310286Y-85149286D01*
X134357905Y-84958810D01*
X134357905Y-84815952D01*
X134310286Y-84625476D01*
X134262667Y-84530238D01*
X134167429Y-84435000D01*
X134024571Y-84387381D01*
X133929333Y-84387381D01*
X133786476Y-84435000D01*
X133738857Y-84482619D01*
X133405524Y-84387381D02*
X132786476Y-84387381D01*
X133119810Y-84768333D01*
X132976952Y-84768333D01*
X132881714Y-84815952D01*
X132834095Y-84863571D01*
X132786476Y-84958810D01*
X132786476Y-85196905D01*
X132834095Y-85292143D01*
X132881714Y-85339762D01*
X132976952Y-85387381D01*
X133262667Y-85387381D01*
X133357905Y-85339762D01*
X133405524Y-85292143D01*
X131881714Y-84387381D02*
X132357905Y-84387381D01*
X132405524Y-84863571D01*
X132357905Y-84815952D01*
X132262667Y-84768333D01*
X132024571Y-84768333D01*
X131929333Y-84815952D01*
X131881714Y-84863571D01*
X131834095Y-84958810D01*
X131834095Y-85196905D01*
X131881714Y-85292143D01*
X131929333Y-85339762D01*
X132024571Y-85387381D01*
X132262667Y-85387381D01*
X132357905Y-85339762D01*
X132405524Y-85292143D01*
X194238381Y-55453095D02*
X195047905Y-55453095D01*
X195143143Y-55500714D01*
X195190762Y-55548333D01*
X195238381Y-55643571D01*
X195238381Y-55834048D01*
X195190762Y-55929286D01*
X195143143Y-55976905D01*
X195047905Y-56024524D01*
X194238381Y-56024524D01*
X194333619Y-56453095D02*
X194286000Y-56500714D01*
X194238381Y-56595952D01*
X194238381Y-56834048D01*
X194286000Y-56929286D01*
X194333619Y-56976905D01*
X194428857Y-57024524D01*
X194524095Y-57024524D01*
X194666952Y-56976905D01*
X195238381Y-56405476D01*
X195238381Y-57024524D01*
X162097905Y-54157381D02*
X162097905Y-54966905D01*
X162050286Y-55062143D01*
X162002667Y-55109762D01*
X161907429Y-55157381D01*
X161716952Y-55157381D01*
X161621714Y-55109762D01*
X161574095Y-55062143D01*
X161526476Y-54966905D01*
X161526476Y-54157381D01*
X161145524Y-54157381D02*
X160526476Y-54157381D01*
X160859810Y-54538333D01*
X160716952Y-54538333D01*
X160621714Y-54585952D01*
X160574095Y-54633571D01*
X160526476Y-54728810D01*
X160526476Y-54966905D01*
X160574095Y-55062143D01*
X160621714Y-55109762D01*
X160716952Y-55157381D01*
X161002667Y-55157381D01*
X161097905Y-55109762D01*
X161145524Y-55062143D01*
X180855857Y-90626143D02*
X180903476Y-90673762D01*
X181046333Y-90721381D01*
X181141571Y-90721381D01*
X181284429Y-90673762D01*
X181379667Y-90578524D01*
X181427286Y-90483286D01*
X181474905Y-90292810D01*
X181474905Y-90149952D01*
X181427286Y-89959476D01*
X181379667Y-89864238D01*
X181284429Y-89769000D01*
X181141571Y-89721381D01*
X181046333Y-89721381D01*
X180903476Y-89769000D01*
X180855857Y-89816619D01*
X180522524Y-89721381D02*
X179903476Y-89721381D01*
X180236810Y-90102333D01*
X180093952Y-90102333D01*
X179998714Y-90149952D01*
X179951095Y-90197571D01*
X179903476Y-90292810D01*
X179903476Y-90530905D01*
X179951095Y-90626143D01*
X179998714Y-90673762D01*
X180093952Y-90721381D01*
X180379667Y-90721381D01*
X180474905Y-90673762D01*
X180522524Y-90626143D01*
X179570143Y-89721381D02*
X178903476Y-89721381D01*
X179332048Y-90721381D01*
M02*
