%FSLAX45Y45*%
G04 Gerber Fmt 4.5, Leading zero omitted, Abs format (unit mm)*
G04 Created by KiCad (PCBNEW 4.0.6+dfsg1-1) date Sat Nov  4 21:02:30 2017*
%MOMM*%
%LPD*%
G01*
G04 APERTURE LIST*
%ADD10C,0.127000*%
%ADD11C,0.150000*%
%ADD12C,0.200000*%
%ADD13C,0.300000*%
G04 APERTURE END LIST*
D10*
D11*
X19977100Y-4394200D02*
X19888200Y-4394200D01*
X19977100Y-11430000D02*
X19977100Y-4394200D01*
X10198100Y-11430000D02*
X19977100Y-11430000D01*
X10198100Y-4394200D02*
X10198100Y-11430000D01*
X19888200Y-4394200D02*
X10198100Y-4394200D01*
D12*
X10355900Y-6380800D02*
X10395900Y-6420800D01*
X10395900Y-6380800D02*
X10355900Y-6420800D01*
X10394000Y-9225600D02*
X10434000Y-9265600D01*
X10434000Y-9225600D02*
X10394000Y-9265600D01*
X10406700Y-10978200D02*
X10446700Y-11018200D01*
X10446700Y-10978200D02*
X10406700Y-11018200D01*
X10432100Y-10482900D02*
X10472100Y-10522900D01*
X10472100Y-10482900D02*
X10432100Y-10522900D01*
X10444800Y-5123500D02*
X10484800Y-5163500D01*
X10484800Y-5123500D02*
X10444800Y-5163500D01*
X10482900Y-7828600D02*
X10522900Y-7868600D01*
X10522900Y-7828600D02*
X10482900Y-7868600D01*
X10521000Y-8108000D02*
X10561000Y-8148000D01*
X10561000Y-8108000D02*
X10521000Y-8148000D01*
X10584500Y-5809300D02*
X10624500Y-5849300D01*
X10624500Y-5809300D02*
X10584500Y-5849300D01*
X10648000Y-11130600D02*
X10688000Y-11170600D01*
X10688000Y-11130600D02*
X10648000Y-11170600D01*
X10673400Y-6812600D02*
X10713400Y-6852600D01*
X10713400Y-6812600D02*
X10673400Y-6852600D01*
X10736900Y-5009200D02*
X10776900Y-5049200D01*
X10776900Y-5009200D02*
X10736900Y-5049200D01*
X10762300Y-10686100D02*
X10802300Y-10726100D01*
X10802300Y-10686100D02*
X10762300Y-10726100D01*
X10775000Y-9581200D02*
X10815000Y-9621200D01*
X10815000Y-9581200D02*
X10775000Y-9621200D01*
X10876600Y-4602800D02*
X10916600Y-4642800D01*
X10916600Y-4602800D02*
X10876600Y-4642800D01*
X10978200Y-11067100D02*
X11018200Y-11107100D01*
X11018200Y-11067100D02*
X10978200Y-11107100D01*
X11001600Y-8273100D02*
X11041600Y-8313100D01*
X11041600Y-8273100D02*
X11001600Y-8313100D01*
X11001600Y-8383200D02*
X11041600Y-8423200D01*
X11041600Y-8383200D02*
X11001600Y-8423200D01*
X11003600Y-8006400D02*
X11043600Y-8046400D01*
X11043600Y-8006400D02*
X11003600Y-8046400D01*
X11143300Y-9911400D02*
X11183300Y-9951400D01*
X11183300Y-9911400D02*
X11143300Y-9951400D01*
X11181400Y-11117900D02*
X11221400Y-11157900D01*
X11221400Y-11117900D02*
X11181400Y-11157900D01*
X11308400Y-10140000D02*
X11348400Y-10180000D01*
X11348400Y-10140000D02*
X11308400Y-10180000D01*
X11397300Y-11067100D02*
X11437300Y-11107100D01*
X11437300Y-11067100D02*
X11397300Y-11107100D01*
X11410000Y-7257100D02*
X11450000Y-7297100D01*
X11450000Y-7257100D02*
X11410000Y-7297100D01*
X11511600Y-11130600D02*
X11551600Y-11170600D01*
X11551600Y-11130600D02*
X11511600Y-11170600D01*
X11524300Y-10724200D02*
X11564300Y-10764200D01*
X11564300Y-10724200D02*
X11524300Y-10764200D01*
X11537000Y-8527100D02*
X11577000Y-8567100D01*
X11577000Y-8527100D02*
X11537000Y-8567100D01*
X11549700Y-8019100D02*
X11589700Y-8059100D01*
X11589700Y-8019100D02*
X11549700Y-8059100D01*
X11562400Y-8273100D02*
X11602400Y-8313100D01*
X11602400Y-8273100D02*
X11562400Y-8313100D01*
X11622295Y-8683105D02*
X11662295Y-8723105D01*
X11662295Y-8683105D02*
X11622295Y-8723105D01*
X11752900Y-7180900D02*
X11792900Y-7220900D01*
X11792900Y-7180900D02*
X11752900Y-7220900D01*
X11981500Y-8920800D02*
X12021500Y-8960800D01*
X12021500Y-8920800D02*
X11981500Y-8960800D01*
X12108500Y-8273100D02*
X12148500Y-8313100D01*
X12148500Y-8273100D02*
X12108500Y-8313100D01*
X12121200Y-4513900D02*
X12161200Y-4553900D01*
X12161200Y-4513900D02*
X12121200Y-4553900D01*
X12133900Y-6825300D02*
X12173900Y-6865300D01*
X12173900Y-6825300D02*
X12133900Y-6865300D01*
X12146600Y-7320600D02*
X12186600Y-7360600D01*
X12186600Y-7320600D02*
X12146600Y-7360600D01*
X12159300Y-7981000D02*
X12199300Y-8021000D01*
X12199300Y-7981000D02*
X12159300Y-8021000D01*
X12172000Y-8108000D02*
X12212000Y-8148000D01*
X12212000Y-8108000D02*
X12172000Y-8148000D01*
X12273600Y-8311200D02*
X12313600Y-8351200D01*
X12313600Y-8311200D02*
X12273600Y-8351200D01*
X12283861Y-9824939D02*
X12323861Y-9864939D01*
X12323861Y-9824939D02*
X12283861Y-9864939D01*
X13061000Y-10470200D02*
X13101000Y-10510200D01*
X13101000Y-10470200D02*
X13061000Y-10510200D01*
X13124500Y-8527100D02*
X13164500Y-8567100D01*
X13164500Y-8527100D02*
X13124500Y-8567100D01*
X13137200Y-8095300D02*
X13177200Y-8135300D01*
X13177200Y-8095300D02*
X13137200Y-8135300D01*
X13162600Y-8768400D02*
X13202600Y-8808400D01*
X13202600Y-8768400D02*
X13162600Y-8808400D01*
X13188000Y-8006400D02*
X13228000Y-8046400D01*
X13228000Y-8006400D02*
X13188000Y-8046400D01*
X13200700Y-4920300D02*
X13240700Y-4960300D01*
X13240700Y-4920300D02*
X13200700Y-4960300D01*
X13581700Y-4526600D02*
X13621700Y-4566600D01*
X13621700Y-4526600D02*
X13581700Y-4566600D01*
X13594400Y-5009200D02*
X13634400Y-5049200D01*
X13634400Y-5009200D02*
X13594400Y-5049200D01*
X13670600Y-9073200D02*
X13710600Y-9113200D01*
X13710600Y-9073200D02*
X13670600Y-9113200D01*
X13797600Y-8450900D02*
X13837600Y-8490900D01*
X13837600Y-8450900D02*
X13797600Y-8490900D01*
X13823000Y-8311200D02*
X13863000Y-8351200D01*
X13863000Y-8311200D02*
X13823000Y-8351200D01*
X13823000Y-8933500D02*
X13863000Y-8973500D01*
X13863000Y-8933500D02*
X13823000Y-8973500D01*
X13835700Y-8616000D02*
X13875700Y-8656000D01*
X13875700Y-8616000D02*
X13835700Y-8656000D01*
X13873800Y-4869500D02*
X13913800Y-4909500D01*
X13913800Y-4869500D02*
X13873800Y-4909500D01*
X13899200Y-4513900D02*
X13939200Y-4553900D01*
X13939200Y-4513900D02*
X13899200Y-4553900D01*
X14077000Y-10000300D02*
X14117000Y-10040300D01*
X14117000Y-10000300D02*
X14077000Y-10040300D01*
X14204000Y-8590600D02*
X14244000Y-8630600D01*
X14244000Y-8590600D02*
X14204000Y-8630600D01*
X14267500Y-10292400D02*
X14307500Y-10332400D01*
X14307500Y-10292400D02*
X14267500Y-10332400D01*
X14419900Y-4602800D02*
X14459900Y-4642800D01*
X14459900Y-4602800D02*
X14419900Y-4642800D01*
X14419900Y-4793300D02*
X14459900Y-4833300D01*
X14459900Y-4793300D02*
X14419900Y-4833300D01*
X14458000Y-10419400D02*
X14498000Y-10459400D01*
X14498000Y-10419400D02*
X14458000Y-10459400D01*
X14521500Y-9771700D02*
X14561500Y-9811700D01*
X14561500Y-9771700D02*
X14521500Y-9811700D01*
X14546900Y-9035100D02*
X14586900Y-9075100D01*
X14586900Y-9035100D02*
X14546900Y-9075100D01*
X14585000Y-5072700D02*
X14625000Y-5112700D01*
X14625000Y-5072700D02*
X14585000Y-5112700D01*
X14877100Y-8298500D02*
X14917100Y-8338500D01*
X14917100Y-8298500D02*
X14877100Y-8338500D01*
X14877100Y-8590600D02*
X14917100Y-8630600D01*
X14917100Y-8590600D02*
X14877100Y-8630600D01*
X15042200Y-6418900D02*
X15082200Y-6458900D01*
X15082200Y-6418900D02*
X15042200Y-6458900D01*
X15105700Y-8654100D02*
X15145700Y-8694100D01*
X15145700Y-8654100D02*
X15105700Y-8694100D01*
X15207300Y-10597200D02*
X15247300Y-10637200D01*
X15247300Y-10597200D02*
X15207300Y-10637200D01*
X15245400Y-8692200D02*
X15285400Y-8732200D01*
X15285400Y-8692200D02*
X15245400Y-8732200D01*
X15397800Y-10178100D02*
X15437800Y-10218100D01*
X15437800Y-10178100D02*
X15397800Y-10218100D01*
X15639100Y-9771700D02*
X15679100Y-9811700D01*
X15679100Y-9771700D02*
X15639100Y-9811700D01*
X15778800Y-4996500D02*
X15818800Y-5036500D01*
X15818800Y-4996500D02*
X15778800Y-5036500D01*
X15893100Y-9528400D02*
X15933100Y-9568400D01*
X15933100Y-9528400D02*
X15893100Y-9568400D01*
X16172500Y-6533200D02*
X16212500Y-6573200D01*
X16212500Y-6533200D02*
X16172500Y-6573200D01*
X16261400Y-5441000D02*
X16301400Y-5481000D01*
X16301400Y-5441000D02*
X16261400Y-5481000D01*
X16261400Y-9746300D02*
X16301400Y-9786300D01*
X16301400Y-9746300D02*
X16261400Y-9786300D01*
X16274100Y-9581200D02*
X16314100Y-9621200D01*
X16314100Y-9581200D02*
X16274100Y-9621200D01*
X16337600Y-5974400D02*
X16377600Y-6014400D01*
X16377600Y-5974400D02*
X16337600Y-6014400D01*
X16566200Y-10800400D02*
X16606200Y-10840400D01*
X16606200Y-10800400D02*
X16566200Y-10840400D01*
X16642400Y-10279700D02*
X16682400Y-10319700D01*
X16682400Y-10279700D02*
X16642400Y-10319700D01*
X16947200Y-5542600D02*
X16987200Y-5582600D01*
X16987200Y-5542600D02*
X16947200Y-5582600D01*
X17163100Y-4513900D02*
X17203100Y-4553900D01*
X17203100Y-4513900D02*
X17163100Y-4553900D01*
X17175800Y-4831400D02*
X17215800Y-4871400D01*
X17215800Y-4831400D02*
X17175800Y-4871400D01*
X17366300Y-10432100D02*
X17406300Y-10472100D01*
X17406300Y-10432100D02*
X17366300Y-10472100D01*
X17455200Y-11143300D02*
X17495200Y-11183300D01*
X17495200Y-11143300D02*
X17455200Y-11183300D01*
X17696500Y-8044500D02*
X17736500Y-8084500D01*
X17736500Y-8044500D02*
X17696500Y-8084500D01*
X17785400Y-9936800D02*
X17825400Y-9976800D01*
X17825400Y-9936800D02*
X17785400Y-9976800D01*
X17899700Y-7053900D02*
X17939700Y-7093900D01*
X17939700Y-7053900D02*
X17899700Y-7093900D01*
X17912400Y-6749100D02*
X17952400Y-6789100D01*
X17952400Y-6749100D02*
X17912400Y-6789100D01*
X17975900Y-8616000D02*
X18015900Y-8656000D01*
X18015900Y-8616000D02*
X17975900Y-8656000D01*
X18014000Y-7053900D02*
X18054000Y-7093900D01*
X18054000Y-7053900D02*
X18014000Y-7093900D01*
X18052100Y-8692200D02*
X18092100Y-8732200D01*
X18092100Y-8692200D02*
X18052100Y-8732200D01*
X18128300Y-6769700D02*
X18168300Y-6809700D01*
X18168300Y-6769700D02*
X18128300Y-6809700D01*
X18204500Y-10444800D02*
X18244500Y-10484800D01*
X18244500Y-10444800D02*
X18204500Y-10484800D01*
X18217200Y-8628700D02*
X18257200Y-8668700D01*
X18257200Y-8628700D02*
X18217200Y-8668700D01*
X18305000Y-6711000D02*
X18345000Y-6751000D01*
X18345000Y-6711000D02*
X18305000Y-6751000D01*
X18306100Y-6215700D02*
X18346100Y-6255700D01*
X18346100Y-6215700D02*
X18306100Y-6255700D01*
X18306100Y-10038400D02*
X18346100Y-10078400D01*
X18346100Y-10038400D02*
X18306100Y-10078400D01*
X18318800Y-7968300D02*
X18358800Y-8008300D01*
X18358800Y-7968300D02*
X18318800Y-8008300D01*
X18382300Y-5999800D02*
X18422300Y-6039800D01*
X18422300Y-5999800D02*
X18382300Y-6039800D01*
X18407700Y-7053900D02*
X18447700Y-7093900D01*
X18447700Y-7053900D02*
X18407700Y-7093900D01*
X18458500Y-5656900D02*
X18498500Y-5696900D01*
X18498500Y-5656900D02*
X18458500Y-5696900D01*
X18509300Y-10952800D02*
X18549300Y-10992800D01*
X18549300Y-10952800D02*
X18509300Y-10992800D01*
X18636300Y-7117400D02*
X18676300Y-7157400D01*
X18676300Y-7117400D02*
X18636300Y-7157400D01*
X18661700Y-6368100D02*
X18701700Y-6408100D01*
X18701700Y-6368100D02*
X18661700Y-6408100D01*
X18814100Y-8336600D02*
X18854100Y-8376600D01*
X18854100Y-8336600D02*
X18814100Y-8376600D01*
X18826800Y-7790500D02*
X18866800Y-7830500D01*
X18866800Y-7790500D02*
X18826800Y-7830500D01*
X18852200Y-9962200D02*
X18892200Y-10002200D01*
X18892200Y-9962200D02*
X18852200Y-10002200D01*
X18852200Y-10876600D02*
X18892200Y-10916600D01*
X18892200Y-10876600D02*
X18852200Y-10916600D01*
X18915700Y-7511100D02*
X18955700Y-7551100D01*
X18955700Y-7511100D02*
X18915700Y-7551100D01*
X18941100Y-9390700D02*
X18981100Y-9430700D01*
X18981100Y-9390700D02*
X18941100Y-9430700D01*
X18991900Y-5898200D02*
X19031900Y-5938200D01*
X19031900Y-5898200D02*
X18991900Y-5938200D01*
X19004600Y-6228400D02*
X19044600Y-6268400D01*
X19044600Y-6228400D02*
X19004600Y-6268400D01*
X19068100Y-6634800D02*
X19108100Y-6674800D01*
X19108100Y-6634800D02*
X19068100Y-6674800D01*
X19068100Y-7180900D02*
X19108100Y-7220900D01*
X19108100Y-7180900D02*
X19068100Y-7220900D01*
X19093500Y-6355400D02*
X19133500Y-6395400D01*
X19133500Y-6355400D02*
X19093500Y-6395400D01*
X19118900Y-5682300D02*
X19158900Y-5722300D01*
X19158900Y-5682300D02*
X19118900Y-5722300D01*
X19118900Y-7422200D02*
X19158900Y-7462200D01*
X19158900Y-7422200D02*
X19118900Y-7462200D01*
X19195100Y-6850700D02*
X19235100Y-6890700D01*
X19235100Y-6850700D02*
X19195100Y-6890700D01*
X19309400Y-7422200D02*
X19349400Y-7462200D01*
X19349400Y-7422200D02*
X19309400Y-7462200D01*
X19322100Y-6418900D02*
X19362100Y-6458900D01*
X19362100Y-6418900D02*
X19322100Y-6458900D01*
X19322100Y-6926900D02*
X19362100Y-6966900D01*
X19362100Y-6926900D02*
X19322100Y-6966900D01*
X19499900Y-8527100D02*
X19539900Y-8567100D01*
X19539900Y-8527100D02*
X19499900Y-8567100D01*
X19525300Y-7447600D02*
X19565300Y-7487600D01*
X19565300Y-7447600D02*
X19525300Y-7487600D01*
X19563400Y-6355400D02*
X19603400Y-6395400D01*
X19603400Y-6355400D02*
X19563400Y-6395400D01*
X19563400Y-7092000D02*
X19603400Y-7132000D01*
X19603400Y-7092000D02*
X19563400Y-7132000D01*
X19614200Y-6711000D02*
X19654200Y-6751000D01*
X19654200Y-6711000D02*
X19614200Y-6751000D01*
X19690400Y-8971600D02*
X19730400Y-9011600D01*
X19730400Y-8971600D02*
X19690400Y-9011600D01*
X19703100Y-8311200D02*
X19743100Y-8351200D01*
X19743100Y-8311200D02*
X19703100Y-8351200D01*
X19741200Y-8666800D02*
X19781200Y-8706800D01*
X19781200Y-8666800D02*
X19741200Y-8706800D01*
X19766600Y-9860600D02*
X19806600Y-9900600D01*
X19806600Y-9860600D02*
X19766600Y-9900600D01*
X19855500Y-8311200D02*
X19895500Y-8351200D01*
X19895500Y-8311200D02*
X19855500Y-8351200D01*
X14500300Y-7073900D02*
G75*
G03X14500300Y-7073900I-35000J0D01*
G01*
X15605200Y-7048500D02*
G75*
G03X15605200Y-7048500I-35000J0D01*
G01*
X16102500Y-9992900D02*
G75*
G03X16102500Y-9992900I-35000J0D01*
G01*
X16240200Y-6845300D02*
G75*
G03X16240200Y-6845300I-35000J0D01*
G01*
X16240200Y-7061200D02*
G75*
G03X16240200Y-7061200I-35000J0D01*
G01*
X16246550Y-7385050D02*
G75*
G03X16246550Y-7385050I-35000J0D01*
G01*
X17357800Y-5283200D02*
G75*
G03X17357800Y-5283200I-35000J0D01*
G01*
X17561000Y-6527800D02*
G75*
G03X17561000Y-6527800I-35000J0D01*
G01*
X17573700Y-7251700D02*
G75*
G03X17573700Y-7251700I-35000J0D01*
G01*
X18221400Y-4991100D02*
G75*
G03X18221400Y-4991100I-35000J0D01*
G01*
X18424600Y-5295900D02*
G75*
G03X18424600Y-5295900I-35000J0D01*
G01*
X18716700Y-6654800D02*
G75*
G03X18716700Y-6654800I-35000J0D01*
G01*
X11099800Y-8507100D02*
X11099800Y-8587100D01*
X11059800Y-8547100D02*
X11139800Y-8547100D01*
X11099800Y-8761100D02*
X11099800Y-8841100D01*
X11059800Y-8801100D02*
X11139800Y-8801100D01*
X11099800Y-9015100D02*
X11099800Y-9095100D01*
X11059800Y-9055100D02*
X11139800Y-9055100D01*
X11099800Y-9269100D02*
X11099800Y-9349100D01*
X11059800Y-9309100D02*
X11139800Y-9309100D01*
X11861800Y-8507100D02*
X11861800Y-8587100D01*
X11821800Y-8547100D02*
X11901800Y-8547100D01*
X11861800Y-8761100D02*
X11861800Y-8841100D01*
X11821800Y-8801100D02*
X11901800Y-8801100D01*
X11861800Y-9015100D02*
X11861800Y-9095100D01*
X11821800Y-9055100D02*
X11901800Y-9055100D01*
X11861800Y-9269100D02*
X11861800Y-9349100D01*
X11821800Y-9309100D02*
X11901800Y-9309100D01*
X12712700Y-8507100D02*
X12712700Y-8587100D01*
X12672700Y-8547100D02*
X12752700Y-8547100D01*
X12712700Y-8761100D02*
X12712700Y-8841100D01*
X12672700Y-8801100D02*
X12752700Y-8801100D01*
X12712700Y-9015100D02*
X12712700Y-9095100D01*
X12672700Y-9055100D02*
X12752700Y-9055100D01*
X12712700Y-9269100D02*
X12712700Y-9349100D01*
X12672700Y-9309100D02*
X12752700Y-9309100D01*
X13474700Y-8507100D02*
X13474700Y-8587100D01*
X13434700Y-8547100D02*
X13514700Y-8547100D01*
X13474700Y-8761100D02*
X13474700Y-8841100D01*
X13434700Y-8801100D02*
X13514700Y-8801100D01*
X13474700Y-9015100D02*
X13474700Y-9095100D01*
X13434700Y-9055100D02*
X13514700Y-9055100D01*
X13474700Y-9269100D02*
X13474700Y-9349100D01*
X13434700Y-9309100D02*
X13514700Y-9309100D01*
X17614900Y-8443600D02*
X17614900Y-8523600D01*
X17574900Y-8483600D02*
X17654900Y-8483600D01*
X17614900Y-9205600D02*
X17614900Y-9285600D01*
X17574900Y-9245600D02*
X17654900Y-9245600D01*
X17868900Y-8443600D02*
X17868900Y-8523600D01*
X17828900Y-8483600D02*
X17908900Y-8483600D01*
X17868900Y-9205600D02*
X17868900Y-9285600D01*
X17828900Y-9245600D02*
X17908900Y-9245600D01*
X18122900Y-8443600D02*
X18122900Y-8523600D01*
X18082900Y-8483600D02*
X18162900Y-8483600D01*
X18122900Y-9205600D02*
X18122900Y-9285600D01*
X18082900Y-9245600D02*
X18162900Y-9245600D01*
X18376900Y-8443600D02*
X18376900Y-8523600D01*
X18336900Y-8483600D02*
X18416900Y-8483600D01*
X18376900Y-9205600D02*
X18376900Y-9285600D01*
X18336900Y-9245600D02*
X18416900Y-9245600D01*
X19329400Y-6627500D02*
X19329400Y-6707500D01*
X19289400Y-6667500D02*
X19369400Y-6667500D01*
X19329400Y-7117500D02*
X19329400Y-7197500D01*
X19289400Y-7157500D02*
X19369400Y-7157500D01*
X10582437Y-8829837D02*
X10582437Y-8772363D01*
X10524963Y-8772363D01*
X10524963Y-8829837D01*
X10582437Y-8829837D01*
X10582437Y-9591837D02*
X10582437Y-9534363D01*
X10524963Y-9534363D01*
X10524963Y-9591837D01*
X10582437Y-9591837D01*
X10861837Y-8829837D02*
X10861837Y-8772363D01*
X10804363Y-8772363D01*
X10804363Y-8829837D01*
X10861837Y-8829837D01*
X10861837Y-9083837D02*
X10861837Y-9026363D01*
X10804363Y-9026363D01*
X10804363Y-9083837D01*
X10861837Y-9083837D01*
X10874537Y-7064537D02*
X10874537Y-7007063D01*
X10817063Y-7007063D01*
X10817063Y-7064537D01*
X10874537Y-7064537D01*
X10874537Y-7826537D02*
X10874537Y-7769063D01*
X10817063Y-7769063D01*
X10817063Y-7826537D01*
X10874537Y-7826537D01*
X10976137Y-6137437D02*
X10976137Y-6079963D01*
X10918663Y-6079963D01*
X10918663Y-6137437D01*
X10976137Y-6137437D01*
X10976137Y-6645437D02*
X10976137Y-6587963D01*
X10918663Y-6587963D01*
X10918663Y-6645437D01*
X10976137Y-6645437D01*
X11128537Y-9655337D02*
X11128537Y-9597863D01*
X11071063Y-9597863D01*
X11071063Y-9655337D01*
X11128537Y-9655337D01*
X11382537Y-9655337D02*
X11382537Y-9597863D01*
X11325063Y-9597863D01*
X11325063Y-9655337D01*
X11382537Y-9655337D01*
X11636537Y-9655337D02*
X11636537Y-9597863D01*
X11579063Y-9597863D01*
X11579063Y-9655337D01*
X11636537Y-9655337D01*
X11890537Y-6137437D02*
X11890537Y-6079963D01*
X11833063Y-6079963D01*
X11833063Y-6137437D01*
X11890537Y-6137437D01*
X11890537Y-6645437D02*
X11890537Y-6587963D01*
X11833063Y-6587963D01*
X11833063Y-6645437D01*
X11890537Y-6645437D01*
X11890537Y-9655337D02*
X11890537Y-9597863D01*
X11833063Y-9597863D01*
X11833063Y-9655337D01*
X11890537Y-9655337D01*
X11992137Y-7064537D02*
X11992137Y-7007063D01*
X11934663Y-7007063D01*
X11934663Y-7064537D01*
X11992137Y-7064537D01*
X11992137Y-7826537D02*
X11992137Y-7769063D01*
X11934663Y-7769063D01*
X11934663Y-7826537D01*
X11992137Y-7826537D01*
X12220737Y-8829837D02*
X12220737Y-8772363D01*
X12163263Y-8772363D01*
X12163263Y-8829837D01*
X12220737Y-8829837D01*
X12220737Y-9591837D02*
X12220737Y-9534363D01*
X12163263Y-9534363D01*
X12163263Y-9591837D01*
X12220737Y-9591837D01*
X12347737Y-7064537D02*
X12347737Y-7007063D01*
X12290263Y-7007063D01*
X12290263Y-7064537D01*
X12347737Y-7064537D01*
X12347737Y-7826537D02*
X12347737Y-7769063D01*
X12290263Y-7769063D01*
X12290263Y-7826537D01*
X12347737Y-7826537D01*
X12462037Y-8829837D02*
X12462037Y-8772363D01*
X12404563Y-8772363D01*
X12404563Y-8829837D01*
X12462037Y-8829837D01*
X12462037Y-9083837D02*
X12462037Y-9026363D01*
X12404563Y-9026363D01*
X12404563Y-9083837D01*
X12462037Y-9083837D01*
X12716037Y-9680737D02*
X12716037Y-9623263D01*
X12658563Y-9623263D01*
X12658563Y-9680737D01*
X12716037Y-9680737D01*
X12754137Y-6124737D02*
X12754137Y-6067263D01*
X12696663Y-6067263D01*
X12696663Y-6124737D01*
X12754137Y-6124737D01*
X12754137Y-6632737D02*
X12754137Y-6575263D01*
X12696663Y-6575263D01*
X12696663Y-6632737D01*
X12754137Y-6632737D01*
X12970037Y-9680737D02*
X12970037Y-9623263D01*
X12912563Y-9623263D01*
X12912563Y-9680737D01*
X12970037Y-9680737D01*
X13211337Y-9680737D02*
X13211337Y-9623263D01*
X13153863Y-9623263D01*
X13153863Y-9680737D01*
X13211337Y-9680737D01*
X13465337Y-7064537D02*
X13465337Y-7007063D01*
X13407863Y-7007063D01*
X13407863Y-7064537D01*
X13465337Y-7064537D01*
X13465337Y-7826537D02*
X13465337Y-7769063D01*
X13407863Y-7769063D01*
X13407863Y-7826537D01*
X13465337Y-7826537D01*
X13465337Y-9680737D02*
X13465337Y-9623263D01*
X13407863Y-9623263D01*
X13407863Y-9680737D01*
X13465337Y-9680737D01*
X13566937Y-6150137D02*
X13566937Y-6092663D01*
X13509463Y-6092663D01*
X13509463Y-6150137D01*
X13566937Y-6150137D01*
X13566937Y-6658137D02*
X13566937Y-6600663D01*
X13509463Y-6600663D01*
X13509463Y-6658137D01*
X13566937Y-6658137D01*
X13744737Y-8829837D02*
X13744737Y-8772363D01*
X13687263Y-8772363D01*
X13687263Y-8829837D01*
X13744737Y-8829837D01*
X13744737Y-9591837D02*
X13744737Y-9534363D01*
X13687263Y-9534363D01*
X13687263Y-9591837D01*
X13744737Y-9591837D01*
X13998737Y-9096537D02*
X13998737Y-9039063D01*
X13941263Y-9039063D01*
X13941263Y-9096537D01*
X13998737Y-9096537D01*
X13998737Y-9858537D02*
X13998737Y-9801063D01*
X13941263Y-9801063D01*
X13941263Y-9858537D01*
X13998737Y-9858537D01*
X14214637Y-6874037D02*
X14214637Y-6816563D01*
X14157163Y-6816563D01*
X14157163Y-6874037D01*
X14214637Y-6874037D01*
X14214637Y-7128037D02*
X14214637Y-7070563D01*
X14157163Y-7070563D01*
X14157163Y-7128037D01*
X14214637Y-7128037D01*
X14214637Y-7712237D02*
X14214637Y-7654763D01*
X14157163Y-7654763D01*
X14157163Y-7712237D01*
X14214637Y-7712237D01*
X14214637Y-7966237D02*
X14214637Y-7908763D01*
X14157163Y-7908763D01*
X14157163Y-7966237D01*
X14214637Y-7966237D01*
X14328937Y-8423437D02*
X14328937Y-8365963D01*
X14271463Y-8365963D01*
X14271463Y-8423437D01*
X14328937Y-8423437D01*
X14328937Y-8931437D02*
X14328937Y-8873963D01*
X14271463Y-8873963D01*
X14271463Y-8931437D01*
X14328937Y-8931437D01*
X14328937Y-9185437D02*
X14328937Y-9127963D01*
X14271463Y-9127963D01*
X14271463Y-9185437D01*
X14328937Y-9185437D01*
X14328937Y-9947437D02*
X14328937Y-9889963D01*
X14271463Y-9889963D01*
X14271463Y-9947437D01*
X14328937Y-9947437D01*
X14684537Y-6874037D02*
X14684537Y-6816563D01*
X14627063Y-6816563D01*
X14627063Y-6874037D01*
X14684537Y-6874037D01*
X14684537Y-7966237D02*
X14684537Y-7908763D01*
X14627063Y-7908763D01*
X14627063Y-7966237D01*
X14684537Y-7966237D01*
X15446537Y-6874037D02*
X15446537Y-6816563D01*
X15389063Y-6816563D01*
X15389063Y-6874037D01*
X15446537Y-6874037D01*
X15446537Y-7966237D02*
X15446537Y-7908763D01*
X15389063Y-7908763D01*
X15389063Y-7966237D01*
X15446537Y-7966237D01*
X15649981Y-9287037D02*
X15649981Y-9229563D01*
X15592507Y-9229563D01*
X15592507Y-9287037D01*
X15649981Y-9287037D01*
X15738637Y-8398037D02*
X15738637Y-8340563D01*
X15681163Y-8340563D01*
X15681163Y-8398037D01*
X15738637Y-8398037D01*
X15738637Y-8906037D02*
X15738637Y-8848563D01*
X15681163Y-8848563D01*
X15681163Y-8906037D01*
X15738637Y-8906037D01*
X15764037Y-5553237D02*
X15764037Y-5495763D01*
X15706563Y-5495763D01*
X15706563Y-5553237D01*
X15764037Y-5553237D01*
X15764037Y-6061237D02*
X15764037Y-6003763D01*
X15706563Y-6003763D01*
X15706563Y-6061237D01*
X15764037Y-6061237D01*
X15941837Y-6874037D02*
X15941837Y-6816563D01*
X15884363Y-6816563D01*
X15884363Y-6874037D01*
X15941837Y-6874037D01*
X15941837Y-7128037D02*
X15941837Y-7070563D01*
X15884363Y-7070563D01*
X15884363Y-7128037D01*
X15941837Y-7128037D01*
X15941837Y-7712237D02*
X15941837Y-7654763D01*
X15884363Y-7654763D01*
X15884363Y-7712237D01*
X15941837Y-7712237D01*
X15941837Y-7966237D02*
X15941837Y-7908763D01*
X15884363Y-7908763D01*
X15884363Y-7966237D01*
X15941837Y-7966237D01*
X15979937Y-6277137D02*
X15979937Y-6219663D01*
X15922463Y-6219663D01*
X15922463Y-6277137D01*
X15979937Y-6277137D01*
X16309893Y-8906037D02*
X16309893Y-8848563D01*
X16252419Y-8848563D01*
X16252419Y-8906037D01*
X16309893Y-8906037D01*
X16462537Y-7572537D02*
X16462537Y-7515063D01*
X16405063Y-7515063D01*
X16405063Y-7572537D01*
X16462537Y-7572537D01*
X16475237Y-6772437D02*
X16475237Y-6714963D01*
X16417763Y-6714963D01*
X16417763Y-6772437D01*
X16475237Y-6772437D01*
X16741937Y-6277137D02*
X16741937Y-6219663D01*
X16684463Y-6219663D01*
X16684463Y-6277137D01*
X16741937Y-6277137D01*
X16767337Y-5591337D02*
X16767337Y-5533863D01*
X16709863Y-5533863D01*
X16709863Y-5591337D01*
X16767337Y-5591337D01*
X16767337Y-5845337D02*
X16767337Y-5787863D01*
X16709863Y-5787863D01*
X16709863Y-5845337D01*
X16767337Y-5845337D01*
X16970537Y-7572537D02*
X16970537Y-7515063D01*
X16913063Y-7515063D01*
X16913063Y-7572537D01*
X16970537Y-7572537D01*
X16983237Y-6772437D02*
X16983237Y-6714963D01*
X16925763Y-6714963D01*
X16925763Y-6772437D01*
X16983237Y-6772437D01*
X17110237Y-9274337D02*
X17110237Y-9216863D01*
X17052763Y-9216863D01*
X17052763Y-9274337D01*
X17110237Y-9274337D01*
X17110237Y-10036337D02*
X17110237Y-9978863D01*
X17052763Y-9978863D01*
X17052763Y-10036337D01*
X17110237Y-10036337D01*
X17338837Y-9274337D02*
X17338837Y-9216863D01*
X17281363Y-9216863D01*
X17281363Y-9274337D01*
X17338837Y-9274337D01*
X17338837Y-10036337D02*
X17338837Y-9978863D01*
X17281363Y-9978863D01*
X17281363Y-10036337D01*
X17338837Y-10036337D01*
X17808737Y-5210337D02*
X17808737Y-5152863D01*
X17751263Y-5152863D01*
X17751263Y-5210337D01*
X17808737Y-5210337D01*
X17808737Y-5972337D02*
X17808737Y-5914863D01*
X17751263Y-5914863D01*
X17751263Y-5972337D01*
X17808737Y-5972337D01*
X17834137Y-7661437D02*
X17834137Y-7603963D01*
X17776663Y-7603963D01*
X17776663Y-7661437D01*
X17834137Y-7661437D01*
X18088137Y-5210337D02*
X18088137Y-5152863D01*
X18030663Y-5152863D01*
X18030663Y-5210337D01*
X18088137Y-5210337D01*
X18088137Y-5972337D02*
X18088137Y-5914863D01*
X18030663Y-5914863D01*
X18030663Y-5972337D01*
X18088137Y-5972337D01*
X18088137Y-7661437D02*
X18088137Y-7603963D01*
X18030663Y-7603963D01*
X18030663Y-7661437D01*
X18088137Y-7661437D01*
X18088137Y-8118637D02*
X18088137Y-8061163D01*
X18030663Y-8061163D01*
X18030663Y-8118637D01*
X18088137Y-8118637D01*
X18786637Y-4816637D02*
X18786637Y-4759163D01*
X18729163Y-4759163D01*
X18729163Y-4816637D01*
X18786637Y-4816637D01*
X18850137Y-8118637D02*
X18850137Y-8061163D01*
X18792663Y-8061163D01*
X18792663Y-8118637D01*
X18850137Y-8118637D01*
X19294637Y-4816637D02*
X19294637Y-4759163D01*
X19237163Y-4759163D01*
X19237163Y-4816637D01*
X19294637Y-4816637D01*
X19383537Y-7864637D02*
X19383537Y-7807163D01*
X19326063Y-7807163D01*
X19326063Y-7864637D01*
X19383537Y-7864637D01*
X19383537Y-8118637D02*
X19383537Y-8061163D01*
X19326063Y-8061163D01*
X19326063Y-8118637D01*
X19383537Y-8118637D01*
X19764537Y-6581937D02*
X19764537Y-6524463D01*
X19707063Y-6524463D01*
X19707063Y-6581937D01*
X19764537Y-6581937D01*
X19764537Y-7343937D02*
X19764537Y-7286463D01*
X19707063Y-7286463D01*
X19707063Y-7343937D01*
X19764537Y-7343937D01*
X10579100Y-8584400D02*
X10629100Y-8534400D01*
X10579100Y-8484400D01*
X10529100Y-8534400D01*
X10579100Y-8584400D01*
X10833100Y-8584400D02*
X10883100Y-8534400D01*
X10833100Y-8484400D01*
X10783100Y-8534400D01*
X10833100Y-8584400D01*
X12179300Y-8546300D02*
X12229300Y-8496300D01*
X12179300Y-8446300D01*
X12129300Y-8496300D01*
X12179300Y-8546300D01*
X12433300Y-8546300D02*
X12483300Y-8496300D01*
X12433300Y-8446300D01*
X12383300Y-8496300D01*
X12433300Y-8546300D01*
X13296900Y-10747400D02*
X13346900Y-10697400D01*
X13296900Y-10647400D01*
X13246900Y-10697400D01*
X13296900Y-10747400D01*
X13296900Y-10997400D02*
X13346900Y-10947400D01*
X13296900Y-10897400D01*
X13246900Y-10947400D01*
X13296900Y-10997400D01*
X13546900Y-10747400D02*
X13596900Y-10697400D01*
X13546900Y-10647400D01*
X13496900Y-10697400D01*
X13546900Y-10747400D01*
X13546900Y-10997400D02*
X13596900Y-10947400D01*
X13546900Y-10897400D01*
X13496900Y-10947400D01*
X13546900Y-10997400D01*
X13796900Y-10747400D02*
X13846900Y-10697400D01*
X13796900Y-10647400D01*
X13746900Y-10697400D01*
X13796900Y-10747400D01*
X13796900Y-10997400D02*
X13846900Y-10947400D01*
X13796900Y-10897400D01*
X13746900Y-10947400D01*
X13796900Y-10997400D01*
X18859500Y-6539700D02*
X18909500Y-6489700D01*
X18859500Y-6439700D01*
X18809500Y-6489700D01*
X18859500Y-6539700D01*
X18859500Y-6793700D02*
X18909500Y-6743700D01*
X18859500Y-6693700D01*
X18809500Y-6743700D01*
X18859500Y-6793700D01*
X18859500Y-7111200D02*
X18909500Y-7061200D01*
X18859500Y-7011200D01*
X18809500Y-7061200D01*
X18859500Y-7111200D01*
X18859500Y-7365200D02*
X18909500Y-7315200D01*
X18859500Y-7265200D01*
X18809500Y-7315200D01*
X18859500Y-7365200D01*
X11099800Y-7493000D02*
X11201400Y-7594600D01*
X11201400Y-7493000D02*
X11099800Y-7594600D01*
X11201400Y-7543800D02*
G75*
G03X11201400Y-7543800I-50800J0D01*
G01*
X11607800Y-7493000D02*
X11709400Y-7594600D01*
X11709400Y-7493000D02*
X11607800Y-7594600D01*
X11709400Y-7543800D02*
G75*
G03X11709400Y-7543800I-50800J0D01*
G01*
X12573000Y-7493000D02*
X12674600Y-7594600D01*
X12674600Y-7493000D02*
X12573000Y-7594600D01*
X12674600Y-7543800D02*
G75*
G03X12674600Y-7543800I-50800J0D01*
G01*
X13081000Y-7493000D02*
X13182600Y-7594600D01*
X13182600Y-7493000D02*
X13081000Y-7594600D01*
X13182600Y-7543800D02*
G75*
G03X13182600Y-7543800I-50800J0D01*
G01*
X14719300Y-5321300D02*
X14820900Y-5422900D01*
X14820900Y-5321300D02*
X14719300Y-5422900D01*
X14820900Y-5372100D02*
G75*
G03X14820900Y-5372100I-50800J0D01*
G01*
X14719300Y-5829300D02*
X14820900Y-5930900D01*
X14820900Y-5829300D02*
X14719300Y-5930900D01*
X14820900Y-5880100D02*
G75*
G03X14820900Y-5880100I-50800J0D01*
G01*
X14833600Y-9753600D02*
X14935200Y-9855200D01*
X14935200Y-9753600D02*
X14833600Y-9855200D01*
X14935200Y-9804400D02*
G75*
G03X14935200Y-9804400I-50800J0D01*
G01*
X14833600Y-10261600D02*
X14935200Y-10363200D01*
X14935200Y-10261600D02*
X14833600Y-10363200D01*
X14935200Y-10312400D02*
G75*
G03X14935200Y-10312400I-50800J0D01*
G01*
X14998700Y-8864600D02*
X15100300Y-8966200D01*
X15100300Y-8864600D02*
X14998700Y-8966200D01*
X15100300Y-8915400D02*
G75*
G03X15100300Y-8915400I-50800J0D01*
G01*
X14998700Y-9372600D02*
X15100300Y-9474200D01*
X15100300Y-9372600D02*
X14998700Y-9474200D01*
X15100300Y-9423400D02*
G75*
G03X15100300Y-9423400I-50800J0D01*
G01*
X10502900Y-10796200D02*
X10652900Y-10946200D01*
X10652900Y-10796200D02*
X10502900Y-10946200D01*
X10577900Y-10796200D02*
X10577900Y-10946200D01*
X10502900Y-10871200D02*
X10652900Y-10871200D01*
X10562900Y-10246200D02*
X10712900Y-10396200D01*
X10712900Y-10246200D02*
X10562900Y-10396200D01*
X10637900Y-10246200D02*
X10637900Y-10396200D01*
X10562900Y-10321200D02*
X10712900Y-10321200D01*
X11002900Y-10246200D02*
X11152900Y-10396200D01*
X11152900Y-10246200D02*
X11002900Y-10396200D01*
X11077900Y-10246200D02*
X11077900Y-10396200D01*
X11002900Y-10321200D02*
X11152900Y-10321200D01*
X11062900Y-10796200D02*
X11212900Y-10946200D01*
X11212900Y-10796200D02*
X11062900Y-10946200D01*
X11137900Y-10796200D02*
X11137900Y-10946200D01*
X11062900Y-10871200D02*
X11212900Y-10871200D01*
X11700600Y-10322700D02*
X11870600Y-10492700D01*
X11870600Y-10322700D02*
X11700600Y-10492700D01*
X11845705Y-10467805D02*
X11845705Y-10347595D01*
X11725495Y-10347595D01*
X11725495Y-10467805D01*
X11845705Y-10467805D01*
X11700600Y-10722700D02*
X11870600Y-10892700D01*
X11870600Y-10722700D02*
X11700600Y-10892700D01*
X11845705Y-10867805D02*
X11845705Y-10747595D01*
X11725495Y-10747595D01*
X11725495Y-10867805D01*
X11845705Y-10867805D01*
X11700600Y-11022700D02*
X11870600Y-11192700D01*
X11870600Y-11022700D02*
X11700600Y-11192700D01*
X11845705Y-11167805D02*
X11845705Y-11047595D01*
X11725495Y-11047595D01*
X11725495Y-11167805D01*
X11845705Y-11167805D01*
X12120600Y-10172700D02*
X12290600Y-10342700D01*
X12290600Y-10172700D02*
X12120600Y-10342700D01*
X12265705Y-10317805D02*
X12265705Y-10197595D01*
X12145495Y-10197595D01*
X12145495Y-10317805D01*
X12265705Y-10317805D01*
X10317500Y-4513600D02*
X10637500Y-4833600D01*
X10637500Y-4513600D02*
X10317500Y-4833600D01*
X10477500Y-4833600D02*
X10637500Y-4673600D01*
X10477500Y-4513600D01*
X10317500Y-4673600D01*
X10477500Y-4833600D01*
X10317500Y-7206000D02*
X10637500Y-7526000D01*
X10637500Y-7206000D02*
X10317500Y-7526000D01*
X10477500Y-7526000D02*
X10637500Y-7366000D01*
X10477500Y-7206000D01*
X10317500Y-7366000D01*
X10477500Y-7526000D01*
X14610100Y-10977900D02*
X14930100Y-11297900D01*
X14930100Y-10977900D02*
X14610100Y-11297900D01*
X14770100Y-11297900D02*
X14930100Y-11137900D01*
X14770100Y-10977900D01*
X14610100Y-11137900D01*
X14770100Y-11297900D01*
X19537700Y-10990600D02*
X19857700Y-11310600D01*
X19857700Y-10990600D02*
X19537700Y-11310600D01*
X19697700Y-11310600D02*
X19857700Y-11150600D01*
X19697700Y-10990600D01*
X19537700Y-11150600D01*
X19697700Y-11310600D01*
X19550400Y-4513600D02*
X19870400Y-4833600D01*
X19870400Y-4513600D02*
X19550400Y-4833600D01*
X19710400Y-4833600D02*
X19870400Y-4673600D01*
X19710400Y-4513600D01*
X19550400Y-4673600D01*
X19710400Y-4833600D01*
D13*
X10462029Y-11903214D02*
X10462029Y-11603214D01*
X10533457Y-11603214D01*
X10576314Y-11617500D01*
X10604886Y-11646071D01*
X10619171Y-11674643D01*
X10633457Y-11731786D01*
X10633457Y-11774643D01*
X10619171Y-11831786D01*
X10604886Y-11860357D01*
X10576314Y-11888929D01*
X10533457Y-11903214D01*
X10462029Y-11903214D01*
X10762029Y-11903214D02*
X10762029Y-11703214D01*
X10762029Y-11760357D02*
X10776314Y-11731786D01*
X10790600Y-11717500D01*
X10819171Y-11703214D01*
X10847743Y-11703214D01*
X10947743Y-11903214D02*
X10947743Y-11703214D01*
X10947743Y-11603214D02*
X10933457Y-11617500D01*
X10947743Y-11631786D01*
X10962029Y-11617500D01*
X10947743Y-11603214D01*
X10947743Y-11631786D01*
X11133457Y-11903214D02*
X11104886Y-11888929D01*
X11090600Y-11860357D01*
X11090600Y-11603214D01*
X11290600Y-11903214D02*
X11262028Y-11888929D01*
X11247743Y-11860357D01*
X11247743Y-11603214D01*
X11633457Y-11903214D02*
X11633457Y-11603214D01*
X11733457Y-11817500D01*
X11833457Y-11603214D01*
X11833457Y-11903214D01*
X12104886Y-11903214D02*
X12104886Y-11746071D01*
X12090600Y-11717500D01*
X12062028Y-11703214D01*
X12004886Y-11703214D01*
X11976314Y-11717500D01*
X12104886Y-11888929D02*
X12076314Y-11903214D01*
X12004886Y-11903214D01*
X11976314Y-11888929D01*
X11962028Y-11860357D01*
X11962028Y-11831786D01*
X11976314Y-11803214D01*
X12004886Y-11788929D01*
X12076314Y-11788929D01*
X12104886Y-11774643D01*
X12247743Y-11703214D02*
X12247743Y-12003214D01*
X12247743Y-11717500D02*
X12276314Y-11703214D01*
X12333457Y-11703214D01*
X12362028Y-11717500D01*
X12376314Y-11731786D01*
X12390600Y-11760357D01*
X12390600Y-11846071D01*
X12376314Y-11874643D01*
X12362028Y-11888929D01*
X12333457Y-11903214D01*
X12276314Y-11903214D01*
X12247743Y-11888929D01*
X12519171Y-11874643D02*
X12533457Y-11888929D01*
X12519171Y-11903214D01*
X12504886Y-11888929D01*
X12519171Y-11874643D01*
X12519171Y-11903214D01*
X12519171Y-11717500D02*
X12533457Y-11731786D01*
X12519171Y-11746071D01*
X12504886Y-11731786D01*
X12519171Y-11717500D01*
X12519171Y-11746071D01*
X10150600Y-12377500D02*
X10190600Y-12417500D01*
X10190600Y-12377500D02*
X10150600Y-12417500D01*
X10519171Y-12233214D02*
X10547743Y-12233214D01*
X10576314Y-12247500D01*
X10590600Y-12261786D01*
X10604886Y-12290357D01*
X10619171Y-12347500D01*
X10619171Y-12418929D01*
X10604886Y-12476071D01*
X10590600Y-12504643D01*
X10576314Y-12518929D01*
X10547743Y-12533214D01*
X10519171Y-12533214D01*
X10490600Y-12518929D01*
X10476314Y-12504643D01*
X10462029Y-12476071D01*
X10447743Y-12418929D01*
X10447743Y-12347500D01*
X10462029Y-12290357D01*
X10476314Y-12261786D01*
X10490600Y-12247500D01*
X10519171Y-12233214D01*
X10747743Y-12504643D02*
X10762029Y-12518929D01*
X10747743Y-12533214D01*
X10733457Y-12518929D01*
X10747743Y-12504643D01*
X10747743Y-12533214D01*
X11019171Y-12333214D02*
X11019171Y-12533214D01*
X10947743Y-12218929D02*
X10876314Y-12433214D01*
X11062028Y-12433214D01*
X11233457Y-12233214D02*
X11262028Y-12233214D01*
X11290600Y-12247500D01*
X11304886Y-12261786D01*
X11319171Y-12290357D01*
X11333457Y-12347500D01*
X11333457Y-12418929D01*
X11319171Y-12476071D01*
X11304886Y-12504643D01*
X11290600Y-12518929D01*
X11262028Y-12533214D01*
X11233457Y-12533214D01*
X11204886Y-12518929D01*
X11190600Y-12504643D01*
X11176314Y-12476071D01*
X11162029Y-12418929D01*
X11162029Y-12347500D01*
X11176314Y-12290357D01*
X11190600Y-12261786D01*
X11204886Y-12247500D01*
X11233457Y-12233214D01*
X11462028Y-12533214D02*
X11462028Y-12333214D01*
X11462028Y-12361786D02*
X11476314Y-12347500D01*
X11504886Y-12333214D01*
X11547743Y-12333214D01*
X11576314Y-12347500D01*
X11590600Y-12376071D01*
X11590600Y-12533214D01*
X11590600Y-12376071D02*
X11604886Y-12347500D01*
X11633457Y-12333214D01*
X11676314Y-12333214D01*
X11704886Y-12347500D01*
X11719171Y-12376071D01*
X11719171Y-12533214D01*
X11862028Y-12533214D02*
X11862028Y-12333214D01*
X11862028Y-12361786D02*
X11876314Y-12347500D01*
X11904886Y-12333214D01*
X11947743Y-12333214D01*
X11976314Y-12347500D01*
X11990600Y-12376071D01*
X11990600Y-12533214D01*
X11990600Y-12376071D02*
X12004886Y-12347500D01*
X12033457Y-12333214D01*
X12076314Y-12333214D01*
X12104886Y-12347500D01*
X12119171Y-12376071D01*
X12119171Y-12533214D01*
X12704886Y-12218929D02*
X12447743Y-12604643D01*
X13090600Y-12233214D02*
X13119171Y-12233214D01*
X13147743Y-12247500D01*
X13162028Y-12261786D01*
X13176314Y-12290357D01*
X13190600Y-12347500D01*
X13190600Y-12418929D01*
X13176314Y-12476071D01*
X13162028Y-12504643D01*
X13147743Y-12518929D01*
X13119171Y-12533214D01*
X13090600Y-12533214D01*
X13062028Y-12518929D01*
X13047743Y-12504643D01*
X13033457Y-12476071D01*
X13019171Y-12418929D01*
X13019171Y-12347500D01*
X13033457Y-12290357D01*
X13047743Y-12261786D01*
X13062028Y-12247500D01*
X13090600Y-12233214D01*
X13319171Y-12504643D02*
X13333457Y-12518929D01*
X13319171Y-12533214D01*
X13304886Y-12518929D01*
X13319171Y-12504643D01*
X13319171Y-12533214D01*
X13519171Y-12233214D02*
X13547743Y-12233214D01*
X13576314Y-12247500D01*
X13590600Y-12261786D01*
X13604885Y-12290357D01*
X13619171Y-12347500D01*
X13619171Y-12418929D01*
X13604885Y-12476071D01*
X13590600Y-12504643D01*
X13576314Y-12518929D01*
X13547743Y-12533214D01*
X13519171Y-12533214D01*
X13490600Y-12518929D01*
X13476314Y-12504643D01*
X13462028Y-12476071D01*
X13447743Y-12418929D01*
X13447743Y-12347500D01*
X13462028Y-12290357D01*
X13476314Y-12261786D01*
X13490600Y-12247500D01*
X13519171Y-12233214D01*
X13904885Y-12533214D02*
X13733457Y-12533214D01*
X13819171Y-12533214D02*
X13819171Y-12233214D01*
X13790600Y-12276071D01*
X13762028Y-12304643D01*
X13733457Y-12318929D01*
X14162028Y-12233214D02*
X14104885Y-12233214D01*
X14076314Y-12247500D01*
X14062028Y-12261786D01*
X14033457Y-12304643D01*
X14019171Y-12361786D01*
X14019171Y-12476071D01*
X14033457Y-12504643D01*
X14047743Y-12518929D01*
X14076314Y-12533214D01*
X14133457Y-12533214D01*
X14162028Y-12518929D01*
X14176314Y-12504643D01*
X14190600Y-12476071D01*
X14190600Y-12404643D01*
X14176314Y-12376071D01*
X14162028Y-12361786D01*
X14133457Y-12347500D01*
X14076314Y-12347500D01*
X14047743Y-12361786D01*
X14033457Y-12376071D01*
X14019171Y-12404643D01*
X14304886Y-12233214D02*
X14304886Y-12290357D01*
X14419171Y-12233214D02*
X14419171Y-12290357D01*
X14862028Y-12647500D02*
X14847743Y-12633214D01*
X14819171Y-12590357D01*
X14804885Y-12561786D01*
X14790600Y-12518929D01*
X14776314Y-12447500D01*
X14776314Y-12390357D01*
X14790600Y-12318929D01*
X14804885Y-12276071D01*
X14819171Y-12247500D01*
X14847743Y-12204643D01*
X14862028Y-12190357D01*
X15133457Y-12533214D02*
X14962028Y-12533214D01*
X15047743Y-12533214D02*
X15047743Y-12233214D01*
X15019171Y-12276071D01*
X14990600Y-12304643D01*
X14962028Y-12318929D01*
X15233457Y-12233214D02*
X15419171Y-12233214D01*
X15319171Y-12347500D01*
X15362028Y-12347500D01*
X15390600Y-12361786D01*
X15404885Y-12376071D01*
X15419171Y-12404643D01*
X15419171Y-12476071D01*
X15404885Y-12504643D01*
X15390600Y-12518929D01*
X15362028Y-12533214D01*
X15276314Y-12533214D01*
X15247743Y-12518929D01*
X15233457Y-12504643D01*
X15533457Y-12261786D02*
X15547743Y-12247500D01*
X15576314Y-12233214D01*
X15647743Y-12233214D01*
X15676314Y-12247500D01*
X15690600Y-12261786D01*
X15704885Y-12290357D01*
X15704885Y-12318929D01*
X15690600Y-12361786D01*
X15519171Y-12533214D01*
X15704885Y-12533214D01*
X16062028Y-12533214D02*
X16062028Y-12233214D01*
X16190600Y-12533214D02*
X16190600Y-12376071D01*
X16176314Y-12347500D01*
X16147743Y-12333214D01*
X16104885Y-12333214D01*
X16076314Y-12347500D01*
X16062028Y-12361786D01*
X16376314Y-12533214D02*
X16347743Y-12518929D01*
X16333457Y-12504643D01*
X16319171Y-12476071D01*
X16319171Y-12390357D01*
X16333457Y-12361786D01*
X16347743Y-12347500D01*
X16376314Y-12333214D01*
X16419171Y-12333214D01*
X16447743Y-12347500D01*
X16462028Y-12361786D01*
X16476314Y-12390357D01*
X16476314Y-12476071D01*
X16462028Y-12504643D01*
X16447743Y-12518929D01*
X16419171Y-12533214D01*
X16376314Y-12533214D01*
X16647743Y-12533214D02*
X16619171Y-12518929D01*
X16604886Y-12490357D01*
X16604886Y-12233214D01*
X16876314Y-12518929D02*
X16847743Y-12533214D01*
X16790600Y-12533214D01*
X16762028Y-12518929D01*
X16747743Y-12490357D01*
X16747743Y-12376071D01*
X16762028Y-12347500D01*
X16790600Y-12333214D01*
X16847743Y-12333214D01*
X16876314Y-12347500D01*
X16890600Y-12376071D01*
X16890600Y-12404643D01*
X16747743Y-12433214D01*
X17004886Y-12518929D02*
X17033457Y-12533214D01*
X17090600Y-12533214D01*
X17119171Y-12518929D01*
X17133457Y-12490357D01*
X17133457Y-12476071D01*
X17119171Y-12447500D01*
X17090600Y-12433214D01*
X17047743Y-12433214D01*
X17019171Y-12418929D01*
X17004886Y-12390357D01*
X17004886Y-12376071D01*
X17019171Y-12347500D01*
X17047743Y-12333214D01*
X17090600Y-12333214D01*
X17119171Y-12347500D01*
X17233457Y-12647500D02*
X17247743Y-12633214D01*
X17276314Y-12590357D01*
X17290600Y-12561786D01*
X17304886Y-12518929D01*
X17319171Y-12447500D01*
X17319171Y-12390357D01*
X17304886Y-12318929D01*
X17290600Y-12276071D01*
X17276314Y-12247500D01*
X17247743Y-12204643D01*
X17233457Y-12190357D01*
X10190600Y-12793500D02*
G75*
G03X10190600Y-12793500I-35000J0D01*
G01*
X10519171Y-12629214D02*
X10547743Y-12629214D01*
X10576314Y-12643500D01*
X10590600Y-12657786D01*
X10604886Y-12686357D01*
X10619171Y-12743500D01*
X10619171Y-12814929D01*
X10604886Y-12872071D01*
X10590600Y-12900643D01*
X10576314Y-12914929D01*
X10547743Y-12929214D01*
X10519171Y-12929214D01*
X10490600Y-12914929D01*
X10476314Y-12900643D01*
X10462029Y-12872071D01*
X10447743Y-12814929D01*
X10447743Y-12743500D01*
X10462029Y-12686357D01*
X10476314Y-12657786D01*
X10490600Y-12643500D01*
X10519171Y-12629214D01*
X10747743Y-12900643D02*
X10762029Y-12914929D01*
X10747743Y-12929214D01*
X10733457Y-12914929D01*
X10747743Y-12900643D01*
X10747743Y-12929214D01*
X10862028Y-12629214D02*
X11062028Y-12629214D01*
X10933457Y-12929214D01*
X11233457Y-12629214D02*
X11262028Y-12629214D01*
X11290600Y-12643500D01*
X11304886Y-12657786D01*
X11319171Y-12686357D01*
X11333457Y-12743500D01*
X11333457Y-12814929D01*
X11319171Y-12872071D01*
X11304886Y-12900643D01*
X11290600Y-12914929D01*
X11262028Y-12929214D01*
X11233457Y-12929214D01*
X11204886Y-12914929D01*
X11190600Y-12900643D01*
X11176314Y-12872071D01*
X11162029Y-12814929D01*
X11162029Y-12743500D01*
X11176314Y-12686357D01*
X11190600Y-12657786D01*
X11204886Y-12643500D01*
X11233457Y-12629214D01*
X11462028Y-12929214D02*
X11462028Y-12729214D01*
X11462028Y-12757786D02*
X11476314Y-12743500D01*
X11504886Y-12729214D01*
X11547743Y-12729214D01*
X11576314Y-12743500D01*
X11590600Y-12772071D01*
X11590600Y-12929214D01*
X11590600Y-12772071D02*
X11604886Y-12743500D01*
X11633457Y-12729214D01*
X11676314Y-12729214D01*
X11704886Y-12743500D01*
X11719171Y-12772071D01*
X11719171Y-12929214D01*
X11862028Y-12929214D02*
X11862028Y-12729214D01*
X11862028Y-12757786D02*
X11876314Y-12743500D01*
X11904886Y-12729214D01*
X11947743Y-12729214D01*
X11976314Y-12743500D01*
X11990600Y-12772071D01*
X11990600Y-12929214D01*
X11990600Y-12772071D02*
X12004886Y-12743500D01*
X12033457Y-12729214D01*
X12076314Y-12729214D01*
X12104886Y-12743500D01*
X12119171Y-12772071D01*
X12119171Y-12929214D01*
X12704886Y-12614929D02*
X12447743Y-13000643D01*
X13090600Y-12629214D02*
X13119171Y-12629214D01*
X13147743Y-12643500D01*
X13162028Y-12657786D01*
X13176314Y-12686357D01*
X13190600Y-12743500D01*
X13190600Y-12814929D01*
X13176314Y-12872071D01*
X13162028Y-12900643D01*
X13147743Y-12914929D01*
X13119171Y-12929214D01*
X13090600Y-12929214D01*
X13062028Y-12914929D01*
X13047743Y-12900643D01*
X13033457Y-12872071D01*
X13019171Y-12814929D01*
X13019171Y-12743500D01*
X13033457Y-12686357D01*
X13047743Y-12657786D01*
X13062028Y-12643500D01*
X13090600Y-12629214D01*
X13319171Y-12900643D02*
X13333457Y-12914929D01*
X13319171Y-12929214D01*
X13304886Y-12914929D01*
X13319171Y-12900643D01*
X13319171Y-12929214D01*
X13519171Y-12629214D02*
X13547743Y-12629214D01*
X13576314Y-12643500D01*
X13590600Y-12657786D01*
X13604885Y-12686357D01*
X13619171Y-12743500D01*
X13619171Y-12814929D01*
X13604885Y-12872071D01*
X13590600Y-12900643D01*
X13576314Y-12914929D01*
X13547743Y-12929214D01*
X13519171Y-12929214D01*
X13490600Y-12914929D01*
X13476314Y-12900643D01*
X13462028Y-12872071D01*
X13447743Y-12814929D01*
X13447743Y-12743500D01*
X13462028Y-12686357D01*
X13476314Y-12657786D01*
X13490600Y-12643500D01*
X13519171Y-12629214D01*
X13733457Y-12657786D02*
X13747743Y-12643500D01*
X13776314Y-12629214D01*
X13847743Y-12629214D01*
X13876314Y-12643500D01*
X13890600Y-12657786D01*
X13904885Y-12686357D01*
X13904885Y-12714929D01*
X13890600Y-12757786D01*
X13719171Y-12929214D01*
X13904885Y-12929214D01*
X14076314Y-12757786D02*
X14047743Y-12743500D01*
X14033457Y-12729214D01*
X14019171Y-12700643D01*
X14019171Y-12686357D01*
X14033457Y-12657786D01*
X14047743Y-12643500D01*
X14076314Y-12629214D01*
X14133457Y-12629214D01*
X14162028Y-12643500D01*
X14176314Y-12657786D01*
X14190600Y-12686357D01*
X14190600Y-12700643D01*
X14176314Y-12729214D01*
X14162028Y-12743500D01*
X14133457Y-12757786D01*
X14076314Y-12757786D01*
X14047743Y-12772071D01*
X14033457Y-12786357D01*
X14019171Y-12814929D01*
X14019171Y-12872071D01*
X14033457Y-12900643D01*
X14047743Y-12914929D01*
X14076314Y-12929214D01*
X14133457Y-12929214D01*
X14162028Y-12914929D01*
X14176314Y-12900643D01*
X14190600Y-12872071D01*
X14190600Y-12814929D01*
X14176314Y-12786357D01*
X14162028Y-12772071D01*
X14133457Y-12757786D01*
X14304886Y-12629214D02*
X14304886Y-12686357D01*
X14419171Y-12629214D02*
X14419171Y-12686357D01*
X14862028Y-13043500D02*
X14847743Y-13029214D01*
X14819171Y-12986357D01*
X14804885Y-12957786D01*
X14790600Y-12914929D01*
X14776314Y-12843500D01*
X14776314Y-12786357D01*
X14790600Y-12714929D01*
X14804885Y-12672071D01*
X14819171Y-12643500D01*
X14847743Y-12600643D01*
X14862028Y-12586357D01*
X15133457Y-12929214D02*
X14962028Y-12929214D01*
X15047743Y-12929214D02*
X15047743Y-12629214D01*
X15019171Y-12672071D01*
X14990600Y-12700643D01*
X14962028Y-12714929D01*
X15247743Y-12657786D02*
X15262028Y-12643500D01*
X15290600Y-12629214D01*
X15362028Y-12629214D01*
X15390600Y-12643500D01*
X15404885Y-12657786D01*
X15419171Y-12686357D01*
X15419171Y-12714929D01*
X15404885Y-12757786D01*
X15233457Y-12929214D01*
X15419171Y-12929214D01*
X15776314Y-12929214D02*
X15776314Y-12629214D01*
X15904885Y-12929214D02*
X15904885Y-12772071D01*
X15890600Y-12743500D01*
X15862028Y-12729214D01*
X15819171Y-12729214D01*
X15790600Y-12743500D01*
X15776314Y-12757786D01*
X16090600Y-12929214D02*
X16062028Y-12914929D01*
X16047743Y-12900643D01*
X16033457Y-12872071D01*
X16033457Y-12786357D01*
X16047743Y-12757786D01*
X16062028Y-12743500D01*
X16090600Y-12729214D01*
X16133457Y-12729214D01*
X16162028Y-12743500D01*
X16176314Y-12757786D01*
X16190600Y-12786357D01*
X16190600Y-12872071D01*
X16176314Y-12900643D01*
X16162028Y-12914929D01*
X16133457Y-12929214D01*
X16090600Y-12929214D01*
X16362028Y-12929214D02*
X16333457Y-12914929D01*
X16319171Y-12886357D01*
X16319171Y-12629214D01*
X16590600Y-12914929D02*
X16562028Y-12929214D01*
X16504886Y-12929214D01*
X16476314Y-12914929D01*
X16462028Y-12886357D01*
X16462028Y-12772071D01*
X16476314Y-12743500D01*
X16504886Y-12729214D01*
X16562028Y-12729214D01*
X16590600Y-12743500D01*
X16604886Y-12772071D01*
X16604886Y-12800643D01*
X16462028Y-12829214D01*
X16719171Y-12914929D02*
X16747743Y-12929214D01*
X16804886Y-12929214D01*
X16833457Y-12914929D01*
X16847743Y-12886357D01*
X16847743Y-12872071D01*
X16833457Y-12843500D01*
X16804886Y-12829214D01*
X16762028Y-12829214D01*
X16733457Y-12814929D01*
X16719171Y-12786357D01*
X16719171Y-12772071D01*
X16733457Y-12743500D01*
X16762028Y-12729214D01*
X16804886Y-12729214D01*
X16833457Y-12743500D01*
X16947743Y-13043500D02*
X16962029Y-13029214D01*
X16990600Y-12986357D01*
X17004886Y-12957786D01*
X17019171Y-12914929D01*
X17033457Y-12843500D01*
X17033457Y-12786357D01*
X17019171Y-12714929D01*
X17004886Y-12672071D01*
X16990600Y-12643500D01*
X16962029Y-12600643D01*
X16947743Y-12586357D01*
X10150600Y-13149500D02*
X10150600Y-13229500D01*
X10110600Y-13189500D02*
X10190600Y-13189500D01*
X10519171Y-13025214D02*
X10547743Y-13025214D01*
X10576314Y-13039500D01*
X10590600Y-13053786D01*
X10604886Y-13082357D01*
X10619171Y-13139500D01*
X10619171Y-13210929D01*
X10604886Y-13268071D01*
X10590600Y-13296643D01*
X10576314Y-13310929D01*
X10547743Y-13325214D01*
X10519171Y-13325214D01*
X10490600Y-13310929D01*
X10476314Y-13296643D01*
X10462029Y-13268071D01*
X10447743Y-13210929D01*
X10447743Y-13139500D01*
X10462029Y-13082357D01*
X10476314Y-13053786D01*
X10490600Y-13039500D01*
X10519171Y-13025214D01*
X10747743Y-13296643D02*
X10762029Y-13310929D01*
X10747743Y-13325214D01*
X10733457Y-13310929D01*
X10747743Y-13296643D01*
X10747743Y-13325214D01*
X10933457Y-13153786D02*
X10904886Y-13139500D01*
X10890600Y-13125214D01*
X10876314Y-13096643D01*
X10876314Y-13082357D01*
X10890600Y-13053786D01*
X10904886Y-13039500D01*
X10933457Y-13025214D01*
X10990600Y-13025214D01*
X11019171Y-13039500D01*
X11033457Y-13053786D01*
X11047743Y-13082357D01*
X11047743Y-13096643D01*
X11033457Y-13125214D01*
X11019171Y-13139500D01*
X10990600Y-13153786D01*
X10933457Y-13153786D01*
X10904886Y-13168071D01*
X10890600Y-13182357D01*
X10876314Y-13210929D01*
X10876314Y-13268071D01*
X10890600Y-13296643D01*
X10904886Y-13310929D01*
X10933457Y-13325214D01*
X10990600Y-13325214D01*
X11019171Y-13310929D01*
X11033457Y-13296643D01*
X11047743Y-13268071D01*
X11047743Y-13210929D01*
X11033457Y-13182357D01*
X11019171Y-13168071D01*
X10990600Y-13153786D01*
X11233457Y-13025214D02*
X11262028Y-13025214D01*
X11290600Y-13039500D01*
X11304886Y-13053786D01*
X11319171Y-13082357D01*
X11333457Y-13139500D01*
X11333457Y-13210929D01*
X11319171Y-13268071D01*
X11304886Y-13296643D01*
X11290600Y-13310929D01*
X11262028Y-13325214D01*
X11233457Y-13325214D01*
X11204886Y-13310929D01*
X11190600Y-13296643D01*
X11176314Y-13268071D01*
X11162029Y-13210929D01*
X11162029Y-13139500D01*
X11176314Y-13082357D01*
X11190600Y-13053786D01*
X11204886Y-13039500D01*
X11233457Y-13025214D01*
X11462028Y-13325214D02*
X11462028Y-13125214D01*
X11462028Y-13153786D02*
X11476314Y-13139500D01*
X11504886Y-13125214D01*
X11547743Y-13125214D01*
X11576314Y-13139500D01*
X11590600Y-13168071D01*
X11590600Y-13325214D01*
X11590600Y-13168071D02*
X11604886Y-13139500D01*
X11633457Y-13125214D01*
X11676314Y-13125214D01*
X11704886Y-13139500D01*
X11719171Y-13168071D01*
X11719171Y-13325214D01*
X11862028Y-13325214D02*
X11862028Y-13125214D01*
X11862028Y-13153786D02*
X11876314Y-13139500D01*
X11904886Y-13125214D01*
X11947743Y-13125214D01*
X11976314Y-13139500D01*
X11990600Y-13168071D01*
X11990600Y-13325214D01*
X11990600Y-13168071D02*
X12004886Y-13139500D01*
X12033457Y-13125214D01*
X12076314Y-13125214D01*
X12104886Y-13139500D01*
X12119171Y-13168071D01*
X12119171Y-13325214D01*
X12704886Y-13010929D02*
X12447743Y-13396643D01*
X13090600Y-13025214D02*
X13119171Y-13025214D01*
X13147743Y-13039500D01*
X13162028Y-13053786D01*
X13176314Y-13082357D01*
X13190600Y-13139500D01*
X13190600Y-13210929D01*
X13176314Y-13268071D01*
X13162028Y-13296643D01*
X13147743Y-13310929D01*
X13119171Y-13325214D01*
X13090600Y-13325214D01*
X13062028Y-13310929D01*
X13047743Y-13296643D01*
X13033457Y-13268071D01*
X13019171Y-13210929D01*
X13019171Y-13139500D01*
X13033457Y-13082357D01*
X13047743Y-13053786D01*
X13062028Y-13039500D01*
X13090600Y-13025214D01*
X13319171Y-13296643D02*
X13333457Y-13310929D01*
X13319171Y-13325214D01*
X13304886Y-13310929D01*
X13319171Y-13296643D01*
X13319171Y-13325214D01*
X13519171Y-13025214D02*
X13547743Y-13025214D01*
X13576314Y-13039500D01*
X13590600Y-13053786D01*
X13604885Y-13082357D01*
X13619171Y-13139500D01*
X13619171Y-13210929D01*
X13604885Y-13268071D01*
X13590600Y-13296643D01*
X13576314Y-13310929D01*
X13547743Y-13325214D01*
X13519171Y-13325214D01*
X13490600Y-13310929D01*
X13476314Y-13296643D01*
X13462028Y-13268071D01*
X13447743Y-13210929D01*
X13447743Y-13139500D01*
X13462028Y-13082357D01*
X13476314Y-13053786D01*
X13490600Y-13039500D01*
X13519171Y-13025214D01*
X13719171Y-13025214D02*
X13904885Y-13025214D01*
X13804885Y-13139500D01*
X13847743Y-13139500D01*
X13876314Y-13153786D01*
X13890600Y-13168071D01*
X13904885Y-13196643D01*
X13904885Y-13268071D01*
X13890600Y-13296643D01*
X13876314Y-13310929D01*
X13847743Y-13325214D01*
X13762028Y-13325214D01*
X13733457Y-13310929D01*
X13719171Y-13296643D01*
X14190600Y-13325214D02*
X14019171Y-13325214D01*
X14104885Y-13325214D02*
X14104885Y-13025214D01*
X14076314Y-13068071D01*
X14047743Y-13096643D01*
X14019171Y-13110929D01*
X14304886Y-13025214D02*
X14304886Y-13082357D01*
X14419171Y-13025214D02*
X14419171Y-13082357D01*
X14862028Y-13439500D02*
X14847743Y-13425214D01*
X14819171Y-13382357D01*
X14804885Y-13353786D01*
X14790600Y-13310929D01*
X14776314Y-13239500D01*
X14776314Y-13182357D01*
X14790600Y-13110929D01*
X14804885Y-13068071D01*
X14819171Y-13039500D01*
X14847743Y-12996643D01*
X14862028Y-12982357D01*
X14962028Y-13053786D02*
X14976314Y-13039500D01*
X15004885Y-13025214D01*
X15076314Y-13025214D01*
X15104885Y-13039500D01*
X15119171Y-13053786D01*
X15133457Y-13082357D01*
X15133457Y-13110929D01*
X15119171Y-13153786D01*
X14947743Y-13325214D01*
X15133457Y-13325214D01*
X15390600Y-13025214D02*
X15333457Y-13025214D01*
X15304885Y-13039500D01*
X15290600Y-13053786D01*
X15262028Y-13096643D01*
X15247743Y-13153786D01*
X15247743Y-13268071D01*
X15262028Y-13296643D01*
X15276314Y-13310929D01*
X15304885Y-13325214D01*
X15362028Y-13325214D01*
X15390600Y-13310929D01*
X15404885Y-13296643D01*
X15419171Y-13268071D01*
X15419171Y-13196643D01*
X15404885Y-13168071D01*
X15390600Y-13153786D01*
X15362028Y-13139500D01*
X15304885Y-13139500D01*
X15276314Y-13153786D01*
X15262028Y-13168071D01*
X15247743Y-13196643D01*
X15776314Y-13325214D02*
X15776314Y-13025214D01*
X15904885Y-13325214D02*
X15904885Y-13168071D01*
X15890600Y-13139500D01*
X15862028Y-13125214D01*
X15819171Y-13125214D01*
X15790600Y-13139500D01*
X15776314Y-13153786D01*
X16090600Y-13325214D02*
X16062028Y-13310929D01*
X16047743Y-13296643D01*
X16033457Y-13268071D01*
X16033457Y-13182357D01*
X16047743Y-13153786D01*
X16062028Y-13139500D01*
X16090600Y-13125214D01*
X16133457Y-13125214D01*
X16162028Y-13139500D01*
X16176314Y-13153786D01*
X16190600Y-13182357D01*
X16190600Y-13268071D01*
X16176314Y-13296643D01*
X16162028Y-13310929D01*
X16133457Y-13325214D01*
X16090600Y-13325214D01*
X16362028Y-13325214D02*
X16333457Y-13310929D01*
X16319171Y-13282357D01*
X16319171Y-13025214D01*
X16590600Y-13310929D02*
X16562028Y-13325214D01*
X16504886Y-13325214D01*
X16476314Y-13310929D01*
X16462028Y-13282357D01*
X16462028Y-13168071D01*
X16476314Y-13139500D01*
X16504886Y-13125214D01*
X16562028Y-13125214D01*
X16590600Y-13139500D01*
X16604886Y-13168071D01*
X16604886Y-13196643D01*
X16462028Y-13225214D01*
X16719171Y-13310929D02*
X16747743Y-13325214D01*
X16804886Y-13325214D01*
X16833457Y-13310929D01*
X16847743Y-13282357D01*
X16847743Y-13268071D01*
X16833457Y-13239500D01*
X16804886Y-13225214D01*
X16762028Y-13225214D01*
X16733457Y-13210929D01*
X16719171Y-13182357D01*
X16719171Y-13168071D01*
X16733457Y-13139500D01*
X16762028Y-13125214D01*
X16804886Y-13125214D01*
X16833457Y-13139500D01*
X16947743Y-13439500D02*
X16962029Y-13425214D01*
X16990600Y-13382357D01*
X17004886Y-13353786D01*
X17019171Y-13310929D01*
X17033457Y-13239500D01*
X17033457Y-13182357D01*
X17019171Y-13110929D01*
X17004886Y-13068071D01*
X16990600Y-13039500D01*
X16962029Y-12996643D01*
X16947743Y-12982357D01*
X10178697Y-13614237D02*
X10178697Y-13556763D01*
X10121223Y-13556763D01*
X10121223Y-13614237D01*
X10178697Y-13614237D01*
X10519171Y-13421214D02*
X10547743Y-13421214D01*
X10576314Y-13435500D01*
X10590600Y-13449786D01*
X10604886Y-13478357D01*
X10619171Y-13535500D01*
X10619171Y-13606929D01*
X10604886Y-13664071D01*
X10590600Y-13692643D01*
X10576314Y-13706929D01*
X10547743Y-13721214D01*
X10519171Y-13721214D01*
X10490600Y-13706929D01*
X10476314Y-13692643D01*
X10462029Y-13664071D01*
X10447743Y-13606929D01*
X10447743Y-13535500D01*
X10462029Y-13478357D01*
X10476314Y-13449786D01*
X10490600Y-13435500D01*
X10519171Y-13421214D01*
X10747743Y-13692643D02*
X10762029Y-13706929D01*
X10747743Y-13721214D01*
X10733457Y-13706929D01*
X10747743Y-13692643D01*
X10747743Y-13721214D01*
X10933457Y-13549786D02*
X10904886Y-13535500D01*
X10890600Y-13521214D01*
X10876314Y-13492643D01*
X10876314Y-13478357D01*
X10890600Y-13449786D01*
X10904886Y-13435500D01*
X10933457Y-13421214D01*
X10990600Y-13421214D01*
X11019171Y-13435500D01*
X11033457Y-13449786D01*
X11047743Y-13478357D01*
X11047743Y-13492643D01*
X11033457Y-13521214D01*
X11019171Y-13535500D01*
X10990600Y-13549786D01*
X10933457Y-13549786D01*
X10904886Y-13564071D01*
X10890600Y-13578357D01*
X10876314Y-13606929D01*
X10876314Y-13664071D01*
X10890600Y-13692643D01*
X10904886Y-13706929D01*
X10933457Y-13721214D01*
X10990600Y-13721214D01*
X11019171Y-13706929D01*
X11033457Y-13692643D01*
X11047743Y-13664071D01*
X11047743Y-13606929D01*
X11033457Y-13578357D01*
X11019171Y-13564071D01*
X10990600Y-13549786D01*
X11333457Y-13721214D02*
X11162029Y-13721214D01*
X11247743Y-13721214D02*
X11247743Y-13421214D01*
X11219171Y-13464071D01*
X11190600Y-13492643D01*
X11162029Y-13506929D01*
X11462028Y-13721214D02*
X11462028Y-13521214D01*
X11462028Y-13549786D02*
X11476314Y-13535500D01*
X11504886Y-13521214D01*
X11547743Y-13521214D01*
X11576314Y-13535500D01*
X11590600Y-13564071D01*
X11590600Y-13721214D01*
X11590600Y-13564071D02*
X11604886Y-13535500D01*
X11633457Y-13521214D01*
X11676314Y-13521214D01*
X11704886Y-13535500D01*
X11719171Y-13564071D01*
X11719171Y-13721214D01*
X11862028Y-13721214D02*
X11862028Y-13521214D01*
X11862028Y-13549786D02*
X11876314Y-13535500D01*
X11904886Y-13521214D01*
X11947743Y-13521214D01*
X11976314Y-13535500D01*
X11990600Y-13564071D01*
X11990600Y-13721214D01*
X11990600Y-13564071D02*
X12004886Y-13535500D01*
X12033457Y-13521214D01*
X12076314Y-13521214D01*
X12104886Y-13535500D01*
X12119171Y-13564071D01*
X12119171Y-13721214D01*
X12704886Y-13406929D02*
X12447743Y-13792643D01*
X13090600Y-13421214D02*
X13119171Y-13421214D01*
X13147743Y-13435500D01*
X13162028Y-13449786D01*
X13176314Y-13478357D01*
X13190600Y-13535500D01*
X13190600Y-13606929D01*
X13176314Y-13664071D01*
X13162028Y-13692643D01*
X13147743Y-13706929D01*
X13119171Y-13721214D01*
X13090600Y-13721214D01*
X13062028Y-13706929D01*
X13047743Y-13692643D01*
X13033457Y-13664071D01*
X13019171Y-13606929D01*
X13019171Y-13535500D01*
X13033457Y-13478357D01*
X13047743Y-13449786D01*
X13062028Y-13435500D01*
X13090600Y-13421214D01*
X13319171Y-13692643D02*
X13333457Y-13706929D01*
X13319171Y-13721214D01*
X13304886Y-13706929D01*
X13319171Y-13692643D01*
X13319171Y-13721214D01*
X13519171Y-13421214D02*
X13547743Y-13421214D01*
X13576314Y-13435500D01*
X13590600Y-13449786D01*
X13604885Y-13478357D01*
X13619171Y-13535500D01*
X13619171Y-13606929D01*
X13604885Y-13664071D01*
X13590600Y-13692643D01*
X13576314Y-13706929D01*
X13547743Y-13721214D01*
X13519171Y-13721214D01*
X13490600Y-13706929D01*
X13476314Y-13692643D01*
X13462028Y-13664071D01*
X13447743Y-13606929D01*
X13447743Y-13535500D01*
X13462028Y-13478357D01*
X13476314Y-13449786D01*
X13490600Y-13435500D01*
X13519171Y-13421214D01*
X13719171Y-13421214D02*
X13904885Y-13421214D01*
X13804885Y-13535500D01*
X13847743Y-13535500D01*
X13876314Y-13549786D01*
X13890600Y-13564071D01*
X13904885Y-13592643D01*
X13904885Y-13664071D01*
X13890600Y-13692643D01*
X13876314Y-13706929D01*
X13847743Y-13721214D01*
X13762028Y-13721214D01*
X13733457Y-13706929D01*
X13719171Y-13692643D01*
X14019171Y-13449786D02*
X14033457Y-13435500D01*
X14062028Y-13421214D01*
X14133457Y-13421214D01*
X14162028Y-13435500D01*
X14176314Y-13449786D01*
X14190600Y-13478357D01*
X14190600Y-13506929D01*
X14176314Y-13549786D01*
X14004885Y-13721214D01*
X14190600Y-13721214D01*
X14304886Y-13421214D02*
X14304886Y-13478357D01*
X14419171Y-13421214D02*
X14419171Y-13478357D01*
X14862028Y-13835500D02*
X14847743Y-13821214D01*
X14819171Y-13778357D01*
X14804885Y-13749786D01*
X14790600Y-13706929D01*
X14776314Y-13635500D01*
X14776314Y-13578357D01*
X14790600Y-13506929D01*
X14804885Y-13464071D01*
X14819171Y-13435500D01*
X14847743Y-13392643D01*
X14862028Y-13378357D01*
X15019171Y-13549786D02*
X14990600Y-13535500D01*
X14976314Y-13521214D01*
X14962028Y-13492643D01*
X14962028Y-13478357D01*
X14976314Y-13449786D01*
X14990600Y-13435500D01*
X15019171Y-13421214D01*
X15076314Y-13421214D01*
X15104885Y-13435500D01*
X15119171Y-13449786D01*
X15133457Y-13478357D01*
X15133457Y-13492643D01*
X15119171Y-13521214D01*
X15104885Y-13535500D01*
X15076314Y-13549786D01*
X15019171Y-13549786D01*
X14990600Y-13564071D01*
X14976314Y-13578357D01*
X14962028Y-13606929D01*
X14962028Y-13664071D01*
X14976314Y-13692643D01*
X14990600Y-13706929D01*
X15019171Y-13721214D01*
X15076314Y-13721214D01*
X15104885Y-13706929D01*
X15119171Y-13692643D01*
X15133457Y-13664071D01*
X15133457Y-13606929D01*
X15119171Y-13578357D01*
X15104885Y-13564071D01*
X15076314Y-13549786D01*
X15390600Y-13521214D02*
X15390600Y-13721214D01*
X15319171Y-13406929D02*
X15247743Y-13621214D01*
X15433457Y-13621214D01*
X15776314Y-13721214D02*
X15776314Y-13421214D01*
X15904885Y-13721214D02*
X15904885Y-13564071D01*
X15890600Y-13535500D01*
X15862028Y-13521214D01*
X15819171Y-13521214D01*
X15790600Y-13535500D01*
X15776314Y-13549786D01*
X16090600Y-13721214D02*
X16062028Y-13706929D01*
X16047743Y-13692643D01*
X16033457Y-13664071D01*
X16033457Y-13578357D01*
X16047743Y-13549786D01*
X16062028Y-13535500D01*
X16090600Y-13521214D01*
X16133457Y-13521214D01*
X16162028Y-13535500D01*
X16176314Y-13549786D01*
X16190600Y-13578357D01*
X16190600Y-13664071D01*
X16176314Y-13692643D01*
X16162028Y-13706929D01*
X16133457Y-13721214D01*
X16090600Y-13721214D01*
X16362028Y-13721214D02*
X16333457Y-13706929D01*
X16319171Y-13678357D01*
X16319171Y-13421214D01*
X16590600Y-13706929D02*
X16562028Y-13721214D01*
X16504886Y-13721214D01*
X16476314Y-13706929D01*
X16462028Y-13678357D01*
X16462028Y-13564071D01*
X16476314Y-13535500D01*
X16504886Y-13521214D01*
X16562028Y-13521214D01*
X16590600Y-13535500D01*
X16604886Y-13564071D01*
X16604886Y-13592643D01*
X16462028Y-13621214D01*
X16719171Y-13706929D02*
X16747743Y-13721214D01*
X16804886Y-13721214D01*
X16833457Y-13706929D01*
X16847743Y-13678357D01*
X16847743Y-13664071D01*
X16833457Y-13635500D01*
X16804886Y-13621214D01*
X16762028Y-13621214D01*
X16733457Y-13606929D01*
X16719171Y-13578357D01*
X16719171Y-13564071D01*
X16733457Y-13535500D01*
X16762028Y-13521214D01*
X16804886Y-13521214D01*
X16833457Y-13535500D01*
X16947743Y-13835500D02*
X16962029Y-13821214D01*
X16990600Y-13778357D01*
X17004886Y-13749786D01*
X17019171Y-13706929D01*
X17033457Y-13635500D01*
X17033457Y-13578357D01*
X17019171Y-13506929D01*
X17004886Y-13464071D01*
X16990600Y-13435500D01*
X16962029Y-13392643D01*
X16947743Y-13378357D01*
X10140600Y-14031500D02*
X10190600Y-13981500D01*
X10140600Y-13931500D01*
X10090600Y-13981500D01*
X10140600Y-14031500D01*
X10619171Y-14117214D02*
X10447743Y-14117214D01*
X10533457Y-14117214D02*
X10533457Y-13817214D01*
X10504886Y-13860071D01*
X10476314Y-13888643D01*
X10447743Y-13902929D01*
X10747743Y-14088643D02*
X10762029Y-14102929D01*
X10747743Y-14117214D01*
X10733457Y-14102929D01*
X10747743Y-14088643D01*
X10747743Y-14117214D01*
X10947743Y-13817214D02*
X10976314Y-13817214D01*
X11004886Y-13831500D01*
X11019171Y-13845786D01*
X11033457Y-13874357D01*
X11047743Y-13931500D01*
X11047743Y-14002929D01*
X11033457Y-14060071D01*
X11019171Y-14088643D01*
X11004886Y-14102929D01*
X10976314Y-14117214D01*
X10947743Y-14117214D01*
X10919171Y-14102929D01*
X10904886Y-14088643D01*
X10890600Y-14060071D01*
X10876314Y-14002929D01*
X10876314Y-13931500D01*
X10890600Y-13874357D01*
X10904886Y-13845786D01*
X10919171Y-13831500D01*
X10947743Y-13817214D01*
X11233457Y-13817214D02*
X11262028Y-13817214D01*
X11290600Y-13831500D01*
X11304886Y-13845786D01*
X11319171Y-13874357D01*
X11333457Y-13931500D01*
X11333457Y-14002929D01*
X11319171Y-14060071D01*
X11304886Y-14088643D01*
X11290600Y-14102929D01*
X11262028Y-14117214D01*
X11233457Y-14117214D01*
X11204886Y-14102929D01*
X11190600Y-14088643D01*
X11176314Y-14060071D01*
X11162029Y-14002929D01*
X11162029Y-13931500D01*
X11176314Y-13874357D01*
X11190600Y-13845786D01*
X11204886Y-13831500D01*
X11233457Y-13817214D01*
X11462028Y-14117214D02*
X11462028Y-13917214D01*
X11462028Y-13945786D02*
X11476314Y-13931500D01*
X11504886Y-13917214D01*
X11547743Y-13917214D01*
X11576314Y-13931500D01*
X11590600Y-13960071D01*
X11590600Y-14117214D01*
X11590600Y-13960071D02*
X11604886Y-13931500D01*
X11633457Y-13917214D01*
X11676314Y-13917214D01*
X11704886Y-13931500D01*
X11719171Y-13960071D01*
X11719171Y-14117214D01*
X11862028Y-14117214D02*
X11862028Y-13917214D01*
X11862028Y-13945786D02*
X11876314Y-13931500D01*
X11904886Y-13917214D01*
X11947743Y-13917214D01*
X11976314Y-13931500D01*
X11990600Y-13960071D01*
X11990600Y-14117214D01*
X11990600Y-13960071D02*
X12004886Y-13931500D01*
X12033457Y-13917214D01*
X12076314Y-13917214D01*
X12104886Y-13931500D01*
X12119171Y-13960071D01*
X12119171Y-14117214D01*
X12704886Y-13802929D02*
X12447743Y-14188643D01*
X13090600Y-13817214D02*
X13119171Y-13817214D01*
X13147743Y-13831500D01*
X13162028Y-13845786D01*
X13176314Y-13874357D01*
X13190600Y-13931500D01*
X13190600Y-14002929D01*
X13176314Y-14060071D01*
X13162028Y-14088643D01*
X13147743Y-14102929D01*
X13119171Y-14117214D01*
X13090600Y-14117214D01*
X13062028Y-14102929D01*
X13047743Y-14088643D01*
X13033457Y-14060071D01*
X13019171Y-14002929D01*
X13019171Y-13931500D01*
X13033457Y-13874357D01*
X13047743Y-13845786D01*
X13062028Y-13831500D01*
X13090600Y-13817214D01*
X13319171Y-14088643D02*
X13333457Y-14102929D01*
X13319171Y-14117214D01*
X13304886Y-14102929D01*
X13319171Y-14088643D01*
X13319171Y-14117214D01*
X13519171Y-13817214D02*
X13547743Y-13817214D01*
X13576314Y-13831500D01*
X13590600Y-13845786D01*
X13604885Y-13874357D01*
X13619171Y-13931500D01*
X13619171Y-14002929D01*
X13604885Y-14060071D01*
X13590600Y-14088643D01*
X13576314Y-14102929D01*
X13547743Y-14117214D01*
X13519171Y-14117214D01*
X13490600Y-14102929D01*
X13476314Y-14088643D01*
X13462028Y-14060071D01*
X13447743Y-14002929D01*
X13447743Y-13931500D01*
X13462028Y-13874357D01*
X13476314Y-13845786D01*
X13490600Y-13831500D01*
X13519171Y-13817214D01*
X13719171Y-13817214D02*
X13904885Y-13817214D01*
X13804885Y-13931500D01*
X13847743Y-13931500D01*
X13876314Y-13945786D01*
X13890600Y-13960071D01*
X13904885Y-13988643D01*
X13904885Y-14060071D01*
X13890600Y-14088643D01*
X13876314Y-14102929D01*
X13847743Y-14117214D01*
X13762028Y-14117214D01*
X13733457Y-14102929D01*
X13719171Y-14088643D01*
X14047743Y-14117214D02*
X14104885Y-14117214D01*
X14133457Y-14102929D01*
X14147743Y-14088643D01*
X14176314Y-14045786D01*
X14190600Y-13988643D01*
X14190600Y-13874357D01*
X14176314Y-13845786D01*
X14162028Y-13831500D01*
X14133457Y-13817214D01*
X14076314Y-13817214D01*
X14047743Y-13831500D01*
X14033457Y-13845786D01*
X14019171Y-13874357D01*
X14019171Y-13945786D01*
X14033457Y-13974357D01*
X14047743Y-13988643D01*
X14076314Y-14002929D01*
X14133457Y-14002929D01*
X14162028Y-13988643D01*
X14176314Y-13974357D01*
X14190600Y-13945786D01*
X14304886Y-13817214D02*
X14304886Y-13874357D01*
X14419171Y-13817214D02*
X14419171Y-13874357D01*
X14862028Y-14231500D02*
X14847743Y-14217214D01*
X14819171Y-14174357D01*
X14804885Y-14145786D01*
X14790600Y-14102929D01*
X14776314Y-14031500D01*
X14776314Y-13974357D01*
X14790600Y-13902929D01*
X14804885Y-13860071D01*
X14819171Y-13831500D01*
X14847743Y-13788643D01*
X14862028Y-13774357D01*
X15133457Y-14117214D02*
X14962028Y-14117214D01*
X15047743Y-14117214D02*
X15047743Y-13817214D01*
X15019171Y-13860071D01*
X14990600Y-13888643D01*
X14962028Y-13902929D01*
X15390600Y-13917214D02*
X15390600Y-14117214D01*
X15319171Y-13802929D02*
X15247743Y-14017214D01*
X15433457Y-14017214D01*
X15776314Y-14117214D02*
X15776314Y-13817214D01*
X15904885Y-14117214D02*
X15904885Y-13960071D01*
X15890600Y-13931500D01*
X15862028Y-13917214D01*
X15819171Y-13917214D01*
X15790600Y-13931500D01*
X15776314Y-13945786D01*
X16090600Y-14117214D02*
X16062028Y-14102929D01*
X16047743Y-14088643D01*
X16033457Y-14060071D01*
X16033457Y-13974357D01*
X16047743Y-13945786D01*
X16062028Y-13931500D01*
X16090600Y-13917214D01*
X16133457Y-13917214D01*
X16162028Y-13931500D01*
X16176314Y-13945786D01*
X16190600Y-13974357D01*
X16190600Y-14060071D01*
X16176314Y-14088643D01*
X16162028Y-14102929D01*
X16133457Y-14117214D01*
X16090600Y-14117214D01*
X16362028Y-14117214D02*
X16333457Y-14102929D01*
X16319171Y-14074357D01*
X16319171Y-13817214D01*
X16590600Y-14102929D02*
X16562028Y-14117214D01*
X16504886Y-14117214D01*
X16476314Y-14102929D01*
X16462028Y-14074357D01*
X16462028Y-13960071D01*
X16476314Y-13931500D01*
X16504886Y-13917214D01*
X16562028Y-13917214D01*
X16590600Y-13931500D01*
X16604886Y-13960071D01*
X16604886Y-13988643D01*
X16462028Y-14017214D01*
X16719171Y-14102929D02*
X16747743Y-14117214D01*
X16804886Y-14117214D01*
X16833457Y-14102929D01*
X16847743Y-14074357D01*
X16847743Y-14060071D01*
X16833457Y-14031500D01*
X16804886Y-14017214D01*
X16762028Y-14017214D01*
X16733457Y-14002929D01*
X16719171Y-13974357D01*
X16719171Y-13960071D01*
X16733457Y-13931500D01*
X16762028Y-13917214D01*
X16804886Y-13917214D01*
X16833457Y-13931500D01*
X16947743Y-14231500D02*
X16962029Y-14217214D01*
X16990600Y-14174357D01*
X17004886Y-14145786D01*
X17019171Y-14102929D01*
X17033457Y-14031500D01*
X17033457Y-13974357D01*
X17019171Y-13902929D01*
X17004886Y-13860071D01*
X16990600Y-13831500D01*
X16962029Y-13788643D01*
X16947743Y-13774357D01*
X10089000Y-14326700D02*
X10190600Y-14428300D01*
X10190600Y-14326700D02*
X10089000Y-14428300D01*
X10190600Y-14377500D02*
G75*
G03X10190600Y-14377500I-50800J0D01*
G01*
X10619171Y-14513214D02*
X10447743Y-14513214D01*
X10533457Y-14513214D02*
X10533457Y-14213214D01*
X10504886Y-14256071D01*
X10476314Y-14284643D01*
X10447743Y-14298929D01*
X10747743Y-14484643D02*
X10762029Y-14498929D01*
X10747743Y-14513214D01*
X10733457Y-14498929D01*
X10747743Y-14484643D01*
X10747743Y-14513214D01*
X10947743Y-14213214D02*
X10976314Y-14213214D01*
X11004886Y-14227500D01*
X11019171Y-14241786D01*
X11033457Y-14270357D01*
X11047743Y-14327500D01*
X11047743Y-14398929D01*
X11033457Y-14456071D01*
X11019171Y-14484643D01*
X11004886Y-14498929D01*
X10976314Y-14513214D01*
X10947743Y-14513214D01*
X10919171Y-14498929D01*
X10904886Y-14484643D01*
X10890600Y-14456071D01*
X10876314Y-14398929D01*
X10876314Y-14327500D01*
X10890600Y-14270357D01*
X10904886Y-14241786D01*
X10919171Y-14227500D01*
X10947743Y-14213214D01*
X11162029Y-14241786D02*
X11176314Y-14227500D01*
X11204886Y-14213214D01*
X11276314Y-14213214D01*
X11304886Y-14227500D01*
X11319171Y-14241786D01*
X11333457Y-14270357D01*
X11333457Y-14298929D01*
X11319171Y-14341786D01*
X11147743Y-14513214D01*
X11333457Y-14513214D01*
X11462028Y-14513214D02*
X11462028Y-14313214D01*
X11462028Y-14341786D02*
X11476314Y-14327500D01*
X11504886Y-14313214D01*
X11547743Y-14313214D01*
X11576314Y-14327500D01*
X11590600Y-14356071D01*
X11590600Y-14513214D01*
X11590600Y-14356071D02*
X11604886Y-14327500D01*
X11633457Y-14313214D01*
X11676314Y-14313214D01*
X11704886Y-14327500D01*
X11719171Y-14356071D01*
X11719171Y-14513214D01*
X11862028Y-14513214D02*
X11862028Y-14313214D01*
X11862028Y-14341786D02*
X11876314Y-14327500D01*
X11904886Y-14313214D01*
X11947743Y-14313214D01*
X11976314Y-14327500D01*
X11990600Y-14356071D01*
X11990600Y-14513214D01*
X11990600Y-14356071D02*
X12004886Y-14327500D01*
X12033457Y-14313214D01*
X12076314Y-14313214D01*
X12104886Y-14327500D01*
X12119171Y-14356071D01*
X12119171Y-14513214D01*
X12704886Y-14198929D02*
X12447743Y-14584643D01*
X13090600Y-14213214D02*
X13119171Y-14213214D01*
X13147743Y-14227500D01*
X13162028Y-14241786D01*
X13176314Y-14270357D01*
X13190600Y-14327500D01*
X13190600Y-14398929D01*
X13176314Y-14456071D01*
X13162028Y-14484643D01*
X13147743Y-14498929D01*
X13119171Y-14513214D01*
X13090600Y-14513214D01*
X13062028Y-14498929D01*
X13047743Y-14484643D01*
X13033457Y-14456071D01*
X13019171Y-14398929D01*
X13019171Y-14327500D01*
X13033457Y-14270357D01*
X13047743Y-14241786D01*
X13062028Y-14227500D01*
X13090600Y-14213214D01*
X13319171Y-14484643D02*
X13333457Y-14498929D01*
X13319171Y-14513214D01*
X13304886Y-14498929D01*
X13319171Y-14484643D01*
X13319171Y-14513214D01*
X13519171Y-14213214D02*
X13547743Y-14213214D01*
X13576314Y-14227500D01*
X13590600Y-14241786D01*
X13604885Y-14270357D01*
X13619171Y-14327500D01*
X13619171Y-14398929D01*
X13604885Y-14456071D01*
X13590600Y-14484643D01*
X13576314Y-14498929D01*
X13547743Y-14513214D01*
X13519171Y-14513214D01*
X13490600Y-14498929D01*
X13476314Y-14484643D01*
X13462028Y-14456071D01*
X13447743Y-14398929D01*
X13447743Y-14327500D01*
X13462028Y-14270357D01*
X13476314Y-14241786D01*
X13490600Y-14227500D01*
X13519171Y-14213214D01*
X13876314Y-14313214D02*
X13876314Y-14513214D01*
X13804885Y-14198929D02*
X13733457Y-14413214D01*
X13919171Y-14413214D01*
X14090600Y-14213214D02*
X14119171Y-14213214D01*
X14147743Y-14227500D01*
X14162028Y-14241786D01*
X14176314Y-14270357D01*
X14190600Y-14327500D01*
X14190600Y-14398929D01*
X14176314Y-14456071D01*
X14162028Y-14484643D01*
X14147743Y-14498929D01*
X14119171Y-14513214D01*
X14090600Y-14513214D01*
X14062028Y-14498929D01*
X14047743Y-14484643D01*
X14033457Y-14456071D01*
X14019171Y-14398929D01*
X14019171Y-14327500D01*
X14033457Y-14270357D01*
X14047743Y-14241786D01*
X14062028Y-14227500D01*
X14090600Y-14213214D01*
X14304886Y-14213214D02*
X14304886Y-14270357D01*
X14419171Y-14213214D02*
X14419171Y-14270357D01*
X14862028Y-14627500D02*
X14847743Y-14613214D01*
X14819171Y-14570357D01*
X14804885Y-14541786D01*
X14790600Y-14498929D01*
X14776314Y-14427500D01*
X14776314Y-14370357D01*
X14790600Y-14298929D01*
X14804885Y-14256071D01*
X14819171Y-14227500D01*
X14847743Y-14184643D01*
X14862028Y-14170357D01*
X15133457Y-14513214D02*
X14962028Y-14513214D01*
X15047743Y-14513214D02*
X15047743Y-14213214D01*
X15019171Y-14256071D01*
X14990600Y-14284643D01*
X14962028Y-14298929D01*
X15319171Y-14213214D02*
X15347743Y-14213214D01*
X15376314Y-14227500D01*
X15390600Y-14241786D01*
X15404885Y-14270357D01*
X15419171Y-14327500D01*
X15419171Y-14398929D01*
X15404885Y-14456071D01*
X15390600Y-14484643D01*
X15376314Y-14498929D01*
X15347743Y-14513214D01*
X15319171Y-14513214D01*
X15290600Y-14498929D01*
X15276314Y-14484643D01*
X15262028Y-14456071D01*
X15247743Y-14398929D01*
X15247743Y-14327500D01*
X15262028Y-14270357D01*
X15276314Y-14241786D01*
X15290600Y-14227500D01*
X15319171Y-14213214D01*
X15776314Y-14513214D02*
X15776314Y-14213214D01*
X15904885Y-14513214D02*
X15904885Y-14356071D01*
X15890600Y-14327500D01*
X15862028Y-14313214D01*
X15819171Y-14313214D01*
X15790600Y-14327500D01*
X15776314Y-14341786D01*
X16090600Y-14513214D02*
X16062028Y-14498929D01*
X16047743Y-14484643D01*
X16033457Y-14456071D01*
X16033457Y-14370357D01*
X16047743Y-14341786D01*
X16062028Y-14327500D01*
X16090600Y-14313214D01*
X16133457Y-14313214D01*
X16162028Y-14327500D01*
X16176314Y-14341786D01*
X16190600Y-14370357D01*
X16190600Y-14456071D01*
X16176314Y-14484643D01*
X16162028Y-14498929D01*
X16133457Y-14513214D01*
X16090600Y-14513214D01*
X16362028Y-14513214D02*
X16333457Y-14498929D01*
X16319171Y-14470357D01*
X16319171Y-14213214D01*
X16590600Y-14498929D02*
X16562028Y-14513214D01*
X16504886Y-14513214D01*
X16476314Y-14498929D01*
X16462028Y-14470357D01*
X16462028Y-14356071D01*
X16476314Y-14327500D01*
X16504886Y-14313214D01*
X16562028Y-14313214D01*
X16590600Y-14327500D01*
X16604886Y-14356071D01*
X16604886Y-14384643D01*
X16462028Y-14413214D01*
X16719171Y-14498929D02*
X16747743Y-14513214D01*
X16804886Y-14513214D01*
X16833457Y-14498929D01*
X16847743Y-14470357D01*
X16847743Y-14456071D01*
X16833457Y-14427500D01*
X16804886Y-14413214D01*
X16762028Y-14413214D01*
X16733457Y-14398929D01*
X16719171Y-14370357D01*
X16719171Y-14356071D01*
X16733457Y-14327500D01*
X16762028Y-14313214D01*
X16804886Y-14313214D01*
X16833457Y-14327500D01*
X16947743Y-14627500D02*
X16962029Y-14613214D01*
X16990600Y-14570357D01*
X17004886Y-14541786D01*
X17019171Y-14498929D01*
X17033457Y-14427500D01*
X17033457Y-14370357D01*
X17019171Y-14298929D01*
X17004886Y-14256071D01*
X16990600Y-14227500D01*
X16962029Y-14184643D01*
X16947743Y-14170357D01*
X10040600Y-14698500D02*
X10190600Y-14848500D01*
X10190600Y-14698500D02*
X10040600Y-14848500D01*
X10115600Y-14698500D02*
X10115600Y-14848500D01*
X10040600Y-14773500D02*
X10190600Y-14773500D01*
X10619171Y-14909214D02*
X10447743Y-14909214D01*
X10533457Y-14909214D02*
X10533457Y-14609214D01*
X10504886Y-14652071D01*
X10476314Y-14680643D01*
X10447743Y-14694929D01*
X10747743Y-14880643D02*
X10762029Y-14894929D01*
X10747743Y-14909214D01*
X10733457Y-14894929D01*
X10747743Y-14880643D01*
X10747743Y-14909214D01*
X11033457Y-14609214D02*
X10890600Y-14609214D01*
X10876314Y-14752071D01*
X10890600Y-14737786D01*
X10919171Y-14723500D01*
X10990600Y-14723500D01*
X11019171Y-14737786D01*
X11033457Y-14752071D01*
X11047743Y-14780643D01*
X11047743Y-14852071D01*
X11033457Y-14880643D01*
X11019171Y-14894929D01*
X10990600Y-14909214D01*
X10919171Y-14909214D01*
X10890600Y-14894929D01*
X10876314Y-14880643D01*
X11233457Y-14609214D02*
X11262028Y-14609214D01*
X11290600Y-14623500D01*
X11304886Y-14637786D01*
X11319171Y-14666357D01*
X11333457Y-14723500D01*
X11333457Y-14794929D01*
X11319171Y-14852071D01*
X11304886Y-14880643D01*
X11290600Y-14894929D01*
X11262028Y-14909214D01*
X11233457Y-14909214D01*
X11204886Y-14894929D01*
X11190600Y-14880643D01*
X11176314Y-14852071D01*
X11162029Y-14794929D01*
X11162029Y-14723500D01*
X11176314Y-14666357D01*
X11190600Y-14637786D01*
X11204886Y-14623500D01*
X11233457Y-14609214D01*
X11462028Y-14909214D02*
X11462028Y-14709214D01*
X11462028Y-14737786D02*
X11476314Y-14723500D01*
X11504886Y-14709214D01*
X11547743Y-14709214D01*
X11576314Y-14723500D01*
X11590600Y-14752071D01*
X11590600Y-14909214D01*
X11590600Y-14752071D02*
X11604886Y-14723500D01*
X11633457Y-14709214D01*
X11676314Y-14709214D01*
X11704886Y-14723500D01*
X11719171Y-14752071D01*
X11719171Y-14909214D01*
X11862028Y-14909214D02*
X11862028Y-14709214D01*
X11862028Y-14737786D02*
X11876314Y-14723500D01*
X11904886Y-14709214D01*
X11947743Y-14709214D01*
X11976314Y-14723500D01*
X11990600Y-14752071D01*
X11990600Y-14909214D01*
X11990600Y-14752071D02*
X12004886Y-14723500D01*
X12033457Y-14709214D01*
X12076314Y-14709214D01*
X12104886Y-14723500D01*
X12119171Y-14752071D01*
X12119171Y-14909214D01*
X12704886Y-14594929D02*
X12447743Y-14980643D01*
X13090600Y-14609214D02*
X13119171Y-14609214D01*
X13147743Y-14623500D01*
X13162028Y-14637786D01*
X13176314Y-14666357D01*
X13190600Y-14723500D01*
X13190600Y-14794929D01*
X13176314Y-14852071D01*
X13162028Y-14880643D01*
X13147743Y-14894929D01*
X13119171Y-14909214D01*
X13090600Y-14909214D01*
X13062028Y-14894929D01*
X13047743Y-14880643D01*
X13033457Y-14852071D01*
X13019171Y-14794929D01*
X13019171Y-14723500D01*
X13033457Y-14666357D01*
X13047743Y-14637786D01*
X13062028Y-14623500D01*
X13090600Y-14609214D01*
X13319171Y-14880643D02*
X13333457Y-14894929D01*
X13319171Y-14909214D01*
X13304886Y-14894929D01*
X13319171Y-14880643D01*
X13319171Y-14909214D01*
X13519171Y-14609214D02*
X13547743Y-14609214D01*
X13576314Y-14623500D01*
X13590600Y-14637786D01*
X13604885Y-14666357D01*
X13619171Y-14723500D01*
X13619171Y-14794929D01*
X13604885Y-14852071D01*
X13590600Y-14880643D01*
X13576314Y-14894929D01*
X13547743Y-14909214D01*
X13519171Y-14909214D01*
X13490600Y-14894929D01*
X13476314Y-14880643D01*
X13462028Y-14852071D01*
X13447743Y-14794929D01*
X13447743Y-14723500D01*
X13462028Y-14666357D01*
X13476314Y-14637786D01*
X13490600Y-14623500D01*
X13519171Y-14609214D01*
X13890600Y-14609214D02*
X13747743Y-14609214D01*
X13733457Y-14752071D01*
X13747743Y-14737786D01*
X13776314Y-14723500D01*
X13847743Y-14723500D01*
X13876314Y-14737786D01*
X13890600Y-14752071D01*
X13904885Y-14780643D01*
X13904885Y-14852071D01*
X13890600Y-14880643D01*
X13876314Y-14894929D01*
X13847743Y-14909214D01*
X13776314Y-14909214D01*
X13747743Y-14894929D01*
X13733457Y-14880643D01*
X14047743Y-14909214D02*
X14104885Y-14909214D01*
X14133457Y-14894929D01*
X14147743Y-14880643D01*
X14176314Y-14837786D01*
X14190600Y-14780643D01*
X14190600Y-14666357D01*
X14176314Y-14637786D01*
X14162028Y-14623500D01*
X14133457Y-14609214D01*
X14076314Y-14609214D01*
X14047743Y-14623500D01*
X14033457Y-14637786D01*
X14019171Y-14666357D01*
X14019171Y-14737786D01*
X14033457Y-14766357D01*
X14047743Y-14780643D01*
X14076314Y-14794929D01*
X14133457Y-14794929D01*
X14162028Y-14780643D01*
X14176314Y-14766357D01*
X14190600Y-14737786D01*
X14304886Y-14609214D02*
X14304886Y-14666357D01*
X14419171Y-14609214D02*
X14419171Y-14666357D01*
X14862028Y-15023500D02*
X14847743Y-15009214D01*
X14819171Y-14966357D01*
X14804885Y-14937786D01*
X14790600Y-14894929D01*
X14776314Y-14823500D01*
X14776314Y-14766357D01*
X14790600Y-14694929D01*
X14804885Y-14652071D01*
X14819171Y-14623500D01*
X14847743Y-14580643D01*
X14862028Y-14566357D01*
X15104885Y-14709214D02*
X15104885Y-14909214D01*
X15033457Y-14594929D02*
X14962028Y-14809214D01*
X15147743Y-14809214D01*
X15490600Y-14909214D02*
X15490600Y-14609214D01*
X15619171Y-14909214D02*
X15619171Y-14752071D01*
X15604885Y-14723500D01*
X15576314Y-14709214D01*
X15533457Y-14709214D01*
X15504885Y-14723500D01*
X15490600Y-14737786D01*
X15804885Y-14909214D02*
X15776314Y-14894929D01*
X15762028Y-14880643D01*
X15747743Y-14852071D01*
X15747743Y-14766357D01*
X15762028Y-14737786D01*
X15776314Y-14723500D01*
X15804885Y-14709214D01*
X15847743Y-14709214D01*
X15876314Y-14723500D01*
X15890600Y-14737786D01*
X15904885Y-14766357D01*
X15904885Y-14852071D01*
X15890600Y-14880643D01*
X15876314Y-14894929D01*
X15847743Y-14909214D01*
X15804885Y-14909214D01*
X16076314Y-14909214D02*
X16047743Y-14894929D01*
X16033457Y-14866357D01*
X16033457Y-14609214D01*
X16304886Y-14894929D02*
X16276314Y-14909214D01*
X16219171Y-14909214D01*
X16190600Y-14894929D01*
X16176314Y-14866357D01*
X16176314Y-14752071D01*
X16190600Y-14723500D01*
X16219171Y-14709214D01*
X16276314Y-14709214D01*
X16304886Y-14723500D01*
X16319171Y-14752071D01*
X16319171Y-14780643D01*
X16176314Y-14809214D01*
X16433457Y-14894929D02*
X16462028Y-14909214D01*
X16519171Y-14909214D01*
X16547743Y-14894929D01*
X16562028Y-14866357D01*
X16562028Y-14852071D01*
X16547743Y-14823500D01*
X16519171Y-14809214D01*
X16476314Y-14809214D01*
X16447743Y-14794929D01*
X16433457Y-14766357D01*
X16433457Y-14752071D01*
X16447743Y-14723500D01*
X16476314Y-14709214D01*
X16519171Y-14709214D01*
X16547743Y-14723500D01*
X16662028Y-15023500D02*
X16676314Y-15009214D01*
X16704886Y-14966357D01*
X16719171Y-14937786D01*
X16733457Y-14894929D01*
X16747743Y-14823500D01*
X16747743Y-14766357D01*
X16733457Y-14694929D01*
X16719171Y-14652071D01*
X16704886Y-14623500D01*
X16676314Y-14580643D01*
X16662028Y-14566357D01*
X10020600Y-15084500D02*
X10190600Y-15254500D01*
X10190600Y-15084500D02*
X10020600Y-15254500D01*
X10165705Y-15229605D02*
X10165705Y-15109395D01*
X10045495Y-15109395D01*
X10045495Y-15229605D01*
X10165705Y-15229605D01*
X10619171Y-15305214D02*
X10447743Y-15305214D01*
X10533457Y-15305214D02*
X10533457Y-15005214D01*
X10504886Y-15048071D01*
X10476314Y-15076643D01*
X10447743Y-15090929D01*
X10747743Y-15276643D02*
X10762029Y-15290929D01*
X10747743Y-15305214D01*
X10733457Y-15290929D01*
X10747743Y-15276643D01*
X10747743Y-15305214D01*
X10862028Y-15005214D02*
X11062028Y-15005214D01*
X10933457Y-15305214D01*
X11233457Y-15005214D02*
X11262028Y-15005214D01*
X11290600Y-15019500D01*
X11304886Y-15033786D01*
X11319171Y-15062357D01*
X11333457Y-15119500D01*
X11333457Y-15190929D01*
X11319171Y-15248071D01*
X11304886Y-15276643D01*
X11290600Y-15290929D01*
X11262028Y-15305214D01*
X11233457Y-15305214D01*
X11204886Y-15290929D01*
X11190600Y-15276643D01*
X11176314Y-15248071D01*
X11162029Y-15190929D01*
X11162029Y-15119500D01*
X11176314Y-15062357D01*
X11190600Y-15033786D01*
X11204886Y-15019500D01*
X11233457Y-15005214D01*
X11462028Y-15305214D02*
X11462028Y-15105214D01*
X11462028Y-15133786D02*
X11476314Y-15119500D01*
X11504886Y-15105214D01*
X11547743Y-15105214D01*
X11576314Y-15119500D01*
X11590600Y-15148071D01*
X11590600Y-15305214D01*
X11590600Y-15148071D02*
X11604886Y-15119500D01*
X11633457Y-15105214D01*
X11676314Y-15105214D01*
X11704886Y-15119500D01*
X11719171Y-15148071D01*
X11719171Y-15305214D01*
X11862028Y-15305214D02*
X11862028Y-15105214D01*
X11862028Y-15133786D02*
X11876314Y-15119500D01*
X11904886Y-15105214D01*
X11947743Y-15105214D01*
X11976314Y-15119500D01*
X11990600Y-15148071D01*
X11990600Y-15305214D01*
X11990600Y-15148071D02*
X12004886Y-15119500D01*
X12033457Y-15105214D01*
X12076314Y-15105214D01*
X12104886Y-15119500D01*
X12119171Y-15148071D01*
X12119171Y-15305214D01*
X12704886Y-14990929D02*
X12447743Y-15376643D01*
X13090600Y-15005214D02*
X13119171Y-15005214D01*
X13147743Y-15019500D01*
X13162028Y-15033786D01*
X13176314Y-15062357D01*
X13190600Y-15119500D01*
X13190600Y-15190929D01*
X13176314Y-15248071D01*
X13162028Y-15276643D01*
X13147743Y-15290929D01*
X13119171Y-15305214D01*
X13090600Y-15305214D01*
X13062028Y-15290929D01*
X13047743Y-15276643D01*
X13033457Y-15248071D01*
X13019171Y-15190929D01*
X13019171Y-15119500D01*
X13033457Y-15062357D01*
X13047743Y-15033786D01*
X13062028Y-15019500D01*
X13090600Y-15005214D01*
X13319171Y-15276643D02*
X13333457Y-15290929D01*
X13319171Y-15305214D01*
X13304886Y-15290929D01*
X13319171Y-15276643D01*
X13319171Y-15305214D01*
X13519171Y-15005214D02*
X13547743Y-15005214D01*
X13576314Y-15019500D01*
X13590600Y-15033786D01*
X13604885Y-15062357D01*
X13619171Y-15119500D01*
X13619171Y-15190929D01*
X13604885Y-15248071D01*
X13590600Y-15276643D01*
X13576314Y-15290929D01*
X13547743Y-15305214D01*
X13519171Y-15305214D01*
X13490600Y-15290929D01*
X13476314Y-15276643D01*
X13462028Y-15248071D01*
X13447743Y-15190929D01*
X13447743Y-15119500D01*
X13462028Y-15062357D01*
X13476314Y-15033786D01*
X13490600Y-15019500D01*
X13519171Y-15005214D01*
X13876314Y-15005214D02*
X13819171Y-15005214D01*
X13790600Y-15019500D01*
X13776314Y-15033786D01*
X13747743Y-15076643D01*
X13733457Y-15133786D01*
X13733457Y-15248071D01*
X13747743Y-15276643D01*
X13762028Y-15290929D01*
X13790600Y-15305214D01*
X13847743Y-15305214D01*
X13876314Y-15290929D01*
X13890600Y-15276643D01*
X13904885Y-15248071D01*
X13904885Y-15176643D01*
X13890600Y-15148071D01*
X13876314Y-15133786D01*
X13847743Y-15119500D01*
X13790600Y-15119500D01*
X13762028Y-15133786D01*
X13747743Y-15148071D01*
X13733457Y-15176643D01*
X14004885Y-15005214D02*
X14204885Y-15005214D01*
X14076314Y-15305214D01*
X14304886Y-15005214D02*
X14304886Y-15062357D01*
X14419171Y-15005214D02*
X14419171Y-15062357D01*
X14862028Y-15419500D02*
X14847743Y-15405214D01*
X14819171Y-15362357D01*
X14804885Y-15333786D01*
X14790600Y-15290929D01*
X14776314Y-15219500D01*
X14776314Y-15162357D01*
X14790600Y-15090929D01*
X14804885Y-15048071D01*
X14819171Y-15019500D01*
X14847743Y-14976643D01*
X14862028Y-14962357D01*
X15104885Y-15105214D02*
X15104885Y-15305214D01*
X15033457Y-14990929D02*
X14962028Y-15205214D01*
X15147743Y-15205214D01*
X15490600Y-15305214D02*
X15490600Y-15005214D01*
X15619171Y-15305214D02*
X15619171Y-15148071D01*
X15604885Y-15119500D01*
X15576314Y-15105214D01*
X15533457Y-15105214D01*
X15504885Y-15119500D01*
X15490600Y-15133786D01*
X15804885Y-15305214D02*
X15776314Y-15290929D01*
X15762028Y-15276643D01*
X15747743Y-15248071D01*
X15747743Y-15162357D01*
X15762028Y-15133786D01*
X15776314Y-15119500D01*
X15804885Y-15105214D01*
X15847743Y-15105214D01*
X15876314Y-15119500D01*
X15890600Y-15133786D01*
X15904885Y-15162357D01*
X15904885Y-15248071D01*
X15890600Y-15276643D01*
X15876314Y-15290929D01*
X15847743Y-15305214D01*
X15804885Y-15305214D01*
X16076314Y-15305214D02*
X16047743Y-15290929D01*
X16033457Y-15262357D01*
X16033457Y-15005214D01*
X16304886Y-15290929D02*
X16276314Y-15305214D01*
X16219171Y-15305214D01*
X16190600Y-15290929D01*
X16176314Y-15262357D01*
X16176314Y-15148071D01*
X16190600Y-15119500D01*
X16219171Y-15105214D01*
X16276314Y-15105214D01*
X16304886Y-15119500D01*
X16319171Y-15148071D01*
X16319171Y-15176643D01*
X16176314Y-15205214D01*
X16433457Y-15290929D02*
X16462028Y-15305214D01*
X16519171Y-15305214D01*
X16547743Y-15290929D01*
X16562028Y-15262357D01*
X16562028Y-15248071D01*
X16547743Y-15219500D01*
X16519171Y-15205214D01*
X16476314Y-15205214D01*
X16447743Y-15190929D01*
X16433457Y-15162357D01*
X16433457Y-15148071D01*
X16447743Y-15119500D01*
X16476314Y-15105214D01*
X16519171Y-15105214D01*
X16547743Y-15119500D01*
X16662028Y-15419500D02*
X16676314Y-15405214D01*
X16704886Y-15362357D01*
X16719171Y-15333786D01*
X16733457Y-15290929D01*
X16747743Y-15219500D01*
X16747743Y-15162357D01*
X16733457Y-15090929D01*
X16719171Y-15048071D01*
X16704886Y-15019500D01*
X16676314Y-14976643D01*
X16662028Y-14962357D01*
X9870600Y-15405500D02*
X10190600Y-15725500D01*
X10190600Y-15405500D02*
X9870600Y-15725500D01*
X10030600Y-15725500D02*
X10190600Y-15565500D01*
X10030600Y-15405500D01*
X9870600Y-15565500D01*
X10030600Y-15725500D01*
X10433457Y-15401214D02*
X10619171Y-15401214D01*
X10519171Y-15515500D01*
X10562029Y-15515500D01*
X10590600Y-15529786D01*
X10604886Y-15544071D01*
X10619171Y-15572643D01*
X10619171Y-15644071D01*
X10604886Y-15672643D01*
X10590600Y-15686929D01*
X10562029Y-15701214D01*
X10476314Y-15701214D01*
X10447743Y-15686929D01*
X10433457Y-15672643D01*
X10747743Y-15672643D02*
X10762029Y-15686929D01*
X10747743Y-15701214D01*
X10733457Y-15686929D01*
X10747743Y-15672643D01*
X10747743Y-15701214D01*
X10876314Y-15429786D02*
X10890600Y-15415500D01*
X10919171Y-15401214D01*
X10990600Y-15401214D01*
X11019171Y-15415500D01*
X11033457Y-15429786D01*
X11047743Y-15458357D01*
X11047743Y-15486929D01*
X11033457Y-15529786D01*
X10862028Y-15701214D01*
X11047743Y-15701214D01*
X11233457Y-15401214D02*
X11262028Y-15401214D01*
X11290600Y-15415500D01*
X11304886Y-15429786D01*
X11319171Y-15458357D01*
X11333457Y-15515500D01*
X11333457Y-15586929D01*
X11319171Y-15644071D01*
X11304886Y-15672643D01*
X11290600Y-15686929D01*
X11262028Y-15701214D01*
X11233457Y-15701214D01*
X11204886Y-15686929D01*
X11190600Y-15672643D01*
X11176314Y-15644071D01*
X11162029Y-15586929D01*
X11162029Y-15515500D01*
X11176314Y-15458357D01*
X11190600Y-15429786D01*
X11204886Y-15415500D01*
X11233457Y-15401214D01*
X11462028Y-15701214D02*
X11462028Y-15501214D01*
X11462028Y-15529786D02*
X11476314Y-15515500D01*
X11504886Y-15501214D01*
X11547743Y-15501214D01*
X11576314Y-15515500D01*
X11590600Y-15544071D01*
X11590600Y-15701214D01*
X11590600Y-15544071D02*
X11604886Y-15515500D01*
X11633457Y-15501214D01*
X11676314Y-15501214D01*
X11704886Y-15515500D01*
X11719171Y-15544071D01*
X11719171Y-15701214D01*
X11862028Y-15701214D02*
X11862028Y-15501214D01*
X11862028Y-15529786D02*
X11876314Y-15515500D01*
X11904886Y-15501214D01*
X11947743Y-15501214D01*
X11976314Y-15515500D01*
X11990600Y-15544071D01*
X11990600Y-15701214D01*
X11990600Y-15544071D02*
X12004886Y-15515500D01*
X12033457Y-15501214D01*
X12076314Y-15501214D01*
X12104886Y-15515500D01*
X12119171Y-15544071D01*
X12119171Y-15701214D01*
X12704886Y-15386929D02*
X12447743Y-15772643D01*
X13090600Y-15401214D02*
X13119171Y-15401214D01*
X13147743Y-15415500D01*
X13162028Y-15429786D01*
X13176314Y-15458357D01*
X13190600Y-15515500D01*
X13190600Y-15586929D01*
X13176314Y-15644071D01*
X13162028Y-15672643D01*
X13147743Y-15686929D01*
X13119171Y-15701214D01*
X13090600Y-15701214D01*
X13062028Y-15686929D01*
X13047743Y-15672643D01*
X13033457Y-15644071D01*
X13019171Y-15586929D01*
X13019171Y-15515500D01*
X13033457Y-15458357D01*
X13047743Y-15429786D01*
X13062028Y-15415500D01*
X13090600Y-15401214D01*
X13319171Y-15672643D02*
X13333457Y-15686929D01*
X13319171Y-15701214D01*
X13304886Y-15686929D01*
X13319171Y-15672643D01*
X13319171Y-15701214D01*
X13619171Y-15701214D02*
X13447743Y-15701214D01*
X13533457Y-15701214D02*
X13533457Y-15401214D01*
X13504885Y-15444071D01*
X13476314Y-15472643D01*
X13447743Y-15486929D01*
X13733457Y-15429786D02*
X13747743Y-15415500D01*
X13776314Y-15401214D01*
X13847743Y-15401214D01*
X13876314Y-15415500D01*
X13890600Y-15429786D01*
X13904885Y-15458357D01*
X13904885Y-15486929D01*
X13890600Y-15529786D01*
X13719171Y-15701214D01*
X13904885Y-15701214D01*
X14162028Y-15401214D02*
X14104885Y-15401214D01*
X14076314Y-15415500D01*
X14062028Y-15429786D01*
X14033457Y-15472643D01*
X14019171Y-15529786D01*
X14019171Y-15644071D01*
X14033457Y-15672643D01*
X14047743Y-15686929D01*
X14076314Y-15701214D01*
X14133457Y-15701214D01*
X14162028Y-15686929D01*
X14176314Y-15672643D01*
X14190600Y-15644071D01*
X14190600Y-15572643D01*
X14176314Y-15544071D01*
X14162028Y-15529786D01*
X14133457Y-15515500D01*
X14076314Y-15515500D01*
X14047743Y-15529786D01*
X14033457Y-15544071D01*
X14019171Y-15572643D01*
X14304886Y-15401214D02*
X14304886Y-15458357D01*
X14419171Y-15401214D02*
X14419171Y-15458357D01*
X14862028Y-15815500D02*
X14847743Y-15801214D01*
X14819171Y-15758357D01*
X14804885Y-15729786D01*
X14790600Y-15686929D01*
X14776314Y-15615500D01*
X14776314Y-15558357D01*
X14790600Y-15486929D01*
X14804885Y-15444071D01*
X14819171Y-15415500D01*
X14847743Y-15372643D01*
X14862028Y-15358357D01*
X15119171Y-15401214D02*
X14976314Y-15401214D01*
X14962028Y-15544071D01*
X14976314Y-15529786D01*
X15004885Y-15515500D01*
X15076314Y-15515500D01*
X15104885Y-15529786D01*
X15119171Y-15544071D01*
X15133457Y-15572643D01*
X15133457Y-15644071D01*
X15119171Y-15672643D01*
X15104885Y-15686929D01*
X15076314Y-15701214D01*
X15004885Y-15701214D01*
X14976314Y-15686929D01*
X14962028Y-15672643D01*
X15490600Y-15701214D02*
X15490600Y-15401214D01*
X15619171Y-15701214D02*
X15619171Y-15544071D01*
X15604885Y-15515500D01*
X15576314Y-15501214D01*
X15533457Y-15501214D01*
X15504885Y-15515500D01*
X15490600Y-15529786D01*
X15804885Y-15701214D02*
X15776314Y-15686929D01*
X15762028Y-15672643D01*
X15747743Y-15644071D01*
X15747743Y-15558357D01*
X15762028Y-15529786D01*
X15776314Y-15515500D01*
X15804885Y-15501214D01*
X15847743Y-15501214D01*
X15876314Y-15515500D01*
X15890600Y-15529786D01*
X15904885Y-15558357D01*
X15904885Y-15644071D01*
X15890600Y-15672643D01*
X15876314Y-15686929D01*
X15847743Y-15701214D01*
X15804885Y-15701214D01*
X16076314Y-15701214D02*
X16047743Y-15686929D01*
X16033457Y-15658357D01*
X16033457Y-15401214D01*
X16304886Y-15686929D02*
X16276314Y-15701214D01*
X16219171Y-15701214D01*
X16190600Y-15686929D01*
X16176314Y-15658357D01*
X16176314Y-15544071D01*
X16190600Y-15515500D01*
X16219171Y-15501214D01*
X16276314Y-15501214D01*
X16304886Y-15515500D01*
X16319171Y-15544071D01*
X16319171Y-15572643D01*
X16176314Y-15601214D01*
X16433457Y-15686929D02*
X16462028Y-15701214D01*
X16519171Y-15701214D01*
X16547743Y-15686929D01*
X16562028Y-15658357D01*
X16562028Y-15644071D01*
X16547743Y-15615500D01*
X16519171Y-15601214D01*
X16476314Y-15601214D01*
X16447743Y-15586929D01*
X16433457Y-15558357D01*
X16433457Y-15544071D01*
X16447743Y-15515500D01*
X16476314Y-15501214D01*
X16519171Y-15501214D01*
X16547743Y-15515500D01*
X16662028Y-15815500D02*
X16676314Y-15801214D01*
X16704886Y-15758357D01*
X16719171Y-15729786D01*
X16733457Y-15686929D01*
X16747743Y-15615500D01*
X16747743Y-15558357D01*
X16733457Y-15486929D01*
X16719171Y-15444071D01*
X16704886Y-15415500D01*
X16676314Y-15372643D01*
X16662028Y-15358357D01*
M02*
