%TF.GenerationSoftware,KiCad,Pcbnew,4.0.6+dfsg1-1*%
%TF.CreationDate,2017-11-11T18:30:39+09:00*%
%TF.ProjectId,USB_DAC1,5553425F444143312E6B696361645F70,rev?*%
%TF.FileFunction,Copper,L1,Top,Signal*%
%FSLAX46Y46*%
G04 Gerber Fmt 4.6, Leading zero omitted, Abs format (unit mm)*
G04 Created by KiCad (PCBNEW 4.0.6+dfsg1-1) date Sat Nov 11 18:30:39 2017*
%MOMM*%
%LPD*%
G01*
G04 APERTURE LIST*
%ADD10C,0.100000*%
%ADD11R,1.778000X1.778000*%
%ADD12C,1.778000*%
%ADD13C,2.000000*%
%ADD14C,4.500880*%
%ADD15R,0.450000X1.380000*%
%ADD16R,1.475000X2.100000*%
%ADD17R,2.375000X1.900000*%
%ADD18R,1.175000X1.900000*%
%ADD19R,0.450000X1.750000*%
%ADD20R,1.700000X1.700000*%
%ADD21O,1.700000X1.700000*%
%ADD22R,1.651000X1.651000*%
%ADD23C,1.651000*%
%ADD24R,1.250000X1.500000*%
%ADD25R,0.800000X0.800000*%
%ADD26C,2.200000*%
%ADD27R,1.905000X1.905000*%
%ADD28C,1.905000*%
%ADD29C,1.397000*%
%ADD30C,1.800000*%
%ADD31R,1.600000X1.600000*%
%ADD32O,1.600000X1.600000*%
%ADD33C,1.500000*%
%ADD34R,0.900000X1.200000*%
%ADD35C,1.524000*%
%ADD36C,0.600000*%
%ADD37C,1.000000*%
%ADD38C,0.250000*%
%ADD39C,1.000000*%
%ADD40C,0.400000*%
%ADD41C,2.000000*%
%ADD42C,0.500000*%
%ADD43C,0.254000*%
G04 APERTURE END LIST*
D10*
D11*
X54610000Y5207000D03*
D12*
X54610000Y10287000D03*
D13*
X3798000Y5588000D03*
X4398000Y11088000D03*
X8798000Y11088000D03*
X9398000Y5588000D03*
D14*
X2794000Y40640000D03*
X45720000Y2921000D03*
X94996000Y2794000D03*
X2794000Y67564000D03*
D15*
X77119000Y66234000D03*
X76469000Y66234000D03*
X75819000Y66234000D03*
X75169000Y66234000D03*
X74519000Y66234000D03*
D16*
X78281500Y66594000D03*
X73356500Y66594000D03*
D17*
X78729000Y68894000D03*
X72909000Y68894000D03*
D18*
X76659000Y68894000D03*
X74979000Y68894000D03*
D19*
X83219000Y48812000D03*
X82569000Y48812000D03*
X81919000Y48812000D03*
X81269000Y48812000D03*
X80619000Y48812000D03*
X79969000Y48812000D03*
X79319000Y48812000D03*
X78669000Y48812000D03*
X78019000Y48812000D03*
X77369000Y48812000D03*
X76719000Y48812000D03*
X76069000Y48812000D03*
X75419000Y48812000D03*
X74769000Y48812000D03*
X74769000Y41612000D03*
X75419000Y41612000D03*
X76069000Y41612000D03*
X76719000Y41612000D03*
X77369000Y41612000D03*
X78019000Y41612000D03*
X78669000Y41612000D03*
X79319000Y41612000D03*
X79969000Y41612000D03*
X80619000Y41612000D03*
X81269000Y41612000D03*
X81919000Y41612000D03*
X82569000Y41612000D03*
X83219000Y41612000D03*
D20*
X86614000Y49403000D03*
D21*
X86614000Y46863000D03*
D20*
X86614000Y41148000D03*
D21*
X86614000Y43688000D03*
D22*
X65405000Y56134000D03*
D23*
X65405000Y58674000D03*
D11*
X45720000Y60579000D03*
D12*
X45720000Y55499000D03*
D22*
X91567000Y33401000D03*
D23*
X91567000Y35941000D03*
D11*
X48514000Y20066000D03*
D12*
X48514000Y25146000D03*
D22*
X75184000Y35433000D03*
D23*
X72644000Y35433000D03*
D22*
X57150000Y34925000D03*
D23*
X57150000Y37465000D03*
D24*
X71247000Y50653000D03*
X71247000Y48153000D03*
X69850000Y39644000D03*
X69850000Y42144000D03*
D22*
X39878000Y34925000D03*
D23*
X39878000Y37465000D03*
D22*
X57150000Y45847000D03*
D23*
X57150000Y43307000D03*
D22*
X39878000Y45847000D03*
D23*
X39878000Y43307000D03*
D11*
X9525000Y38862000D03*
D12*
X14605000Y38862000D03*
D20*
X3810000Y28956000D03*
D21*
X6350000Y28956000D03*
D11*
X24257000Y38862000D03*
D12*
X29337000Y38862000D03*
D20*
X19812000Y29337000D03*
D21*
X22352000Y29337000D03*
D25*
X84493000Y33528000D03*
X82893000Y33528000D03*
D26*
X20075000Y11723000D03*
X15875000Y10223000D03*
X15875000Y6223000D03*
X15875000Y3223000D03*
D27*
X85598000Y66421000D03*
D28*
X90678000Y66421000D03*
D27*
X55372000Y59055000D03*
D28*
X55372000Y53975000D03*
D27*
X41021000Y25273000D03*
D28*
X41021000Y30353000D03*
D27*
X55118000Y25527000D03*
D28*
X55118000Y30607000D03*
D27*
X62484000Y46863000D03*
D28*
X67564000Y46863000D03*
D27*
X67437000Y38862000D03*
D28*
X62357000Y38862000D03*
D27*
X7493000Y53213000D03*
D28*
X7493000Y48133000D03*
D27*
X16637000Y53213000D03*
D28*
X16637000Y48133000D03*
D27*
X25273000Y53340000D03*
D28*
X25273000Y48260000D03*
D27*
X33401000Y53086000D03*
D28*
X33401000Y48006000D03*
D29*
X95377000Y41148000D03*
X95377000Y48768000D03*
X57531000Y51816000D03*
X65151000Y51816000D03*
X41021000Y22733000D03*
X41021000Y15113000D03*
X86233000Y33401000D03*
X78613000Y33401000D03*
X71120000Y14224000D03*
X71120000Y21844000D03*
X60830557Y25527000D03*
X54231443Y21717000D03*
X52197000Y45847000D03*
X44577000Y45847000D03*
X44577000Y34925000D03*
X52197000Y34925000D03*
X68834000Y21844000D03*
X68834000Y14224000D03*
X6477000Y43942000D03*
X6477000Y36322000D03*
X17653000Y43942000D03*
X17653000Y36322000D03*
X3556000Y26289000D03*
X3556000Y18669000D03*
X21209000Y43942000D03*
X21209000Y36322000D03*
X32385000Y43942000D03*
X32385000Y36322000D03*
X19939000Y26289000D03*
X19939000Y18669000D03*
X37719000Y23622000D03*
X37719000Y16002000D03*
X35179000Y18669000D03*
X35179000Y26289000D03*
D30*
X35988000Y4826000D03*
X33488000Y4826000D03*
X30988000Y4826000D03*
X35988000Y7326000D03*
X33488000Y7326000D03*
X30988000Y7326000D03*
D31*
X74168000Y21844000D03*
D32*
X81788000Y29464000D03*
X76708000Y21844000D03*
X79248000Y29464000D03*
X79248000Y21844000D03*
X76708000Y29464000D03*
X81788000Y21844000D03*
X74168000Y29464000D03*
D31*
X16637000Y21209000D03*
D32*
X9017000Y28829000D03*
X16637000Y23749000D03*
X9017000Y26289000D03*
X16637000Y26289000D03*
X9017000Y23749000D03*
X16637000Y28829000D03*
X9017000Y21209000D03*
D31*
X32766000Y21209000D03*
D32*
X25146000Y28829000D03*
X32766000Y23749000D03*
X25146000Y26289000D03*
X32766000Y26289000D03*
X25146000Y23749000D03*
X32766000Y28829000D03*
X25146000Y21209000D03*
D33*
X91313000Y47625000D03*
X91313000Y42725000D03*
D34*
X82550000Y36111000D03*
X82550000Y38311000D03*
X84582000Y36111000D03*
X84582000Y38311000D03*
D29*
X32385000Y17780000D03*
X29845000Y17780000D03*
X22352000Y23749000D03*
X22352000Y26289000D03*
X27432000Y17780000D03*
X24892000Y17780000D03*
X6350000Y23749000D03*
X6350000Y26289000D03*
X16637000Y18034000D03*
X14097000Y18034000D03*
X11557000Y18034000D03*
X9017000Y18034000D03*
D14*
X95123000Y67564000D03*
D35*
X76073000Y52197000D03*
X76073000Y62357000D03*
X78613000Y52197000D03*
X78613000Y62357000D03*
D36*
X58166000Y61087000D03*
X70866000Y69088000D03*
X46736000Y34671000D03*
X46482000Y33274000D03*
X43561000Y32766000D03*
X80899000Y60833000D03*
X81661000Y50927000D03*
X81153000Y51689000D03*
X82677000Y55626000D03*
X84328000Y56896000D03*
X87376000Y56896000D03*
X90170000Y57023000D03*
X93472000Y53340000D03*
X96774000Y64516000D03*
X96647000Y63373000D03*
X96774000Y60706000D03*
X95885000Y58039000D03*
X94234000Y55245000D03*
X93345000Y45085000D03*
X96393000Y38862000D03*
X93472000Y39243000D03*
X91186000Y40894000D03*
X90424000Y40132000D03*
X88773000Y42926000D03*
X88773000Y48260000D03*
X90805000Y50038000D03*
X93091000Y50673000D03*
X94234000Y46863000D03*
X96266000Y46101000D03*
X93726000Y43053000D03*
X91821000Y45339000D03*
X89662000Y45466000D03*
X96520000Y33020000D03*
X94234000Y36703000D03*
X95885000Y36830000D03*
X95123000Y35306000D03*
X93472000Y34417000D03*
X83566000Y34798000D03*
X80645000Y36703000D03*
X75311000Y33147000D03*
X41021000Y33020000D03*
X49911000Y33655000D03*
X54483000Y33147000D03*
X60750661Y35134339D03*
X60325000Y34163000D03*
X64135000Y33782000D03*
X67564000Y33909000D03*
X69469000Y34671000D03*
X70231000Y36195000D03*
X71882000Y37592000D03*
X41783000Y43434000D03*
X50673000Y43561000D03*
X54991000Y43434000D03*
X50673000Y40005000D03*
X43053000Y40132000D03*
X44323000Y38227000D03*
X50546000Y37973000D03*
X68199000Y65278000D03*
X67818000Y58039000D03*
X67564000Y59563000D03*
X50292000Y58928000D03*
X50038000Y54229000D03*
X45593000Y51689000D03*
X43815000Y48133000D03*
X43942000Y57785000D03*
X54102000Y51562000D03*
X57658000Y49615992D03*
X60198000Y50165000D03*
X60452000Y54737000D03*
X60833000Y59563000D03*
X37211000Y68834000D03*
X37211000Y66802000D03*
X36703000Y63500000D03*
X41148000Y63119000D03*
X42545000Y64262000D03*
X42545000Y65913000D03*
X44958000Y66294000D03*
X45466000Y67310000D03*
X47879000Y67818000D03*
X47498000Y62865000D03*
X43688000Y62611000D03*
X58166000Y68707000D03*
X55372000Y64008000D03*
X75345526Y39363426D03*
X81269000Y46990000D03*
X84836000Y50419000D03*
X88265000Y51816000D03*
X88138000Y55118000D03*
X61595000Y54356000D03*
X86487000Y36195000D03*
X81407000Y34417000D03*
X48641000Y49911000D03*
X59944000Y48768000D03*
D37*
X60071000Y43688000D03*
X60134500Y40449500D03*
X84836000Y47752000D03*
X81915000Y61341000D03*
X71247000Y61468000D03*
D36*
X77343000Y46609000D03*
D37*
X79883000Y64389000D03*
D36*
X79502000Y46403000D03*
D37*
X58694000Y14371000D03*
D36*
X46990000Y31242000D03*
X50673000Y27051000D03*
X49276000Y27432000D03*
X47371000Y27178000D03*
X45720000Y26289000D03*
X45466000Y23876000D03*
X29464000Y26162000D03*
X29464000Y24765000D03*
X29845000Y32512000D03*
X30353000Y34036000D03*
X29464000Y34163000D03*
X28448000Y34290000D03*
X20955000Y30988000D03*
X20574000Y31623000D03*
X18542000Y30734000D03*
X19431000Y32639000D03*
X19558000Y33401000D03*
X19685000Y34417000D03*
X19431000Y36576000D03*
X19685000Y38227000D03*
X15240000Y41148000D03*
X1778000Y51435000D03*
X2667000Y56388000D03*
X1143000Y43434000D03*
X1143000Y44069000D03*
X4191000Y44323000D03*
X6223000Y41656000D03*
X6985000Y40386000D03*
X4445000Y37465000D03*
X1651000Y36957000D03*
X2794000Y34671000D03*
X2286000Y32131000D03*
X1016000Y25781000D03*
X3810000Y22860000D03*
X1778000Y22733000D03*
X1524000Y20066000D03*
X1397000Y18542000D03*
X3175000Y15621000D03*
X4953000Y17145000D03*
X6223000Y18034000D03*
X9525000Y15621000D03*
X10160000Y14351000D03*
X11938000Y12446000D03*
X10668000Y9398000D03*
X7112000Y8636000D03*
X2286000Y9144000D03*
X2413000Y4191000D03*
X4191000Y3556000D03*
X9017000Y3302000D03*
X12700000Y4064000D03*
X12700000Y3429000D03*
X23368000Y4191000D03*
X17780000Y2413000D03*
X20320000Y2667000D03*
X26162000Y2794000D03*
X28067000Y8382000D03*
X25400000Y8128000D03*
X22352000Y8128000D03*
X21336000Y6350000D03*
X19558000Y4572000D03*
X18542000Y3429000D03*
X26706417Y16038417D03*
X31369000Y16510000D03*
X30734000Y15748000D03*
X30734000Y14478000D03*
X28829000Y11049000D03*
X29337000Y14478000D03*
X25400000Y13041000D03*
X3810000Y58293000D03*
X5461000Y61595000D03*
X10160000Y62611000D03*
X11938000Y65532000D03*
X13970000Y68072000D03*
X19304000Y66167000D03*
X23622000Y65405000D03*
X27813000Y64008000D03*
X34671000Y62357000D03*
X34544000Y69342000D03*
X26924000Y67310000D03*
X1524000Y62230000D03*
X6731000Y65151000D03*
X9525000Y68326000D03*
X5842000Y69088000D03*
X8509000Y63881000D03*
X2032000Y63881000D03*
X3048000Y54991000D03*
X2921000Y46101000D03*
X19177000Y46101000D03*
X19431000Y44577000D03*
X19304000Y43180000D03*
X18669000Y40894000D03*
X15113000Y43561000D03*
X8128000Y42672000D03*
X9271000Y43434000D03*
X10541000Y43561000D03*
X12065000Y44196000D03*
X12065000Y39243000D03*
X67437000Y17653000D03*
X72644000Y17780000D03*
X80137000Y17653000D03*
X83947000Y29083000D03*
X86360000Y31115000D03*
X96520000Y30861000D03*
X94742000Y29337000D03*
X79502000Y27305000D03*
X77724000Y27940000D03*
X80137000Y27940000D03*
X84836000Y27305000D03*
X90043000Y23114000D03*
X89408000Y20955000D03*
X87376000Y13335000D03*
X92456000Y15875000D03*
X96393000Y5969000D03*
X94361000Y8509000D03*
X91821000Y1524000D03*
X87122000Y5080000D03*
X80391000Y7366000D03*
X77851000Y13462000D03*
X74168000Y7112000D03*
X64262000Y14732000D03*
X64389000Y6096000D03*
X57785000Y1778000D03*
X50673000Y2413000D03*
X44704000Y7112000D03*
X39116000Y3429000D03*
X35052000Y1016000D03*
X42545000Y1143000D03*
X41021000Y6223000D03*
X34036000Y22733000D03*
X34544000Y20701000D03*
X33909000Y25146000D03*
X36322000Y30861000D03*
X36576000Y28448000D03*
X36703000Y25527000D03*
X35179000Y23876000D03*
X39116000Y19558000D03*
X38862000Y29718000D03*
X44450000Y31242000D03*
X42545000Y31242000D03*
X39116000Y25146000D03*
X43942000Y17272000D03*
X54610000Y16383000D03*
X57150000Y18816000D03*
X60960000Y18288000D03*
X13716000Y33909000D03*
X8255000Y34036000D03*
X8235000Y30268000D03*
X18034000Y24892000D03*
X13843000Y31369000D03*
X14441947Y27268947D03*
X8235000Y31369000D03*
X21057609Y15850609D03*
X13589000Y28829000D03*
X29464000Y28829000D03*
X76835000Y39116000D03*
X78359000Y43561000D03*
X77216000Y43561000D03*
D37*
X60071000Y45847000D03*
D36*
X28829000Y9398000D03*
D37*
X73406000Y41783000D03*
X73279000Y49022000D03*
D38*
X58166000Y64262000D02*
X58166000Y61087000D01*
X69596000Y61976000D02*
X69596000Y67818000D01*
X69596000Y67818000D02*
X70866000Y69088000D01*
D39*
X95377000Y48768000D02*
X92456000Y48768000D01*
X92456000Y48768000D02*
X91313000Y47625000D01*
D38*
X86614000Y49403000D02*
X83810000Y49403000D01*
X83810000Y49403000D02*
X83219000Y48812000D01*
X86614000Y49403000D02*
X89535000Y49403000D01*
X89535000Y49403000D02*
X91313000Y47625000D01*
X49911000Y33655000D02*
X47752000Y33655000D01*
X47752000Y33655000D02*
X46736000Y34671000D01*
X46482000Y33274000D02*
X46101000Y32893000D01*
X46101000Y32893000D02*
X43688000Y32893000D01*
X43688000Y32893000D02*
X43561000Y32766000D01*
D39*
X75400218Y60833000D02*
X80899000Y60833000D01*
X80899000Y60833000D02*
X81407000Y60833000D01*
D38*
X81661000Y50927000D02*
X80899000Y51689000D01*
X80899000Y51689000D02*
X80899000Y60833000D01*
X82677000Y55626000D02*
X81153000Y54102000D01*
X81153000Y54102000D02*
X81153000Y51689000D01*
X87376000Y56896000D02*
X84328000Y56896000D01*
X93472000Y53340000D02*
X90170000Y56642000D01*
X90170000Y56642000D02*
X90170000Y57023000D01*
X96647000Y63373000D02*
X96647000Y64389000D01*
X96647000Y64389000D02*
X96774000Y64516000D01*
X95885000Y58039000D02*
X95885000Y59817000D01*
X95885000Y59817000D02*
X96774000Y60706000D01*
X96774000Y47498000D02*
X96774000Y52705000D01*
X96774000Y52705000D02*
X94234000Y55245000D01*
X94361000Y45085000D02*
X96774000Y47498000D01*
X93345000Y45085000D02*
X94361000Y45085000D01*
X93472000Y39243000D02*
X93853000Y38862000D01*
X93853000Y38862000D02*
X96393000Y38862000D01*
X90424000Y40132000D02*
X91186000Y40894000D01*
X88773000Y48260000D02*
X88773000Y42926000D01*
X93091000Y50673000D02*
X91440000Y50673000D01*
X91440000Y50673000D02*
X90805000Y50038000D01*
X96266000Y46101000D02*
X94996000Y46101000D01*
X94996000Y46101000D02*
X94234000Y46863000D01*
X91821000Y45339000D02*
X93726000Y43434000D01*
X93726000Y43434000D02*
X93726000Y43053000D01*
X86614000Y46863000D02*
X88265000Y46863000D01*
X88265000Y46863000D02*
X89662000Y45466000D01*
X95885000Y36830000D02*
X94361000Y36830000D01*
X94361000Y36830000D02*
X94234000Y36703000D01*
X93472000Y34417000D02*
X94234000Y34417000D01*
X94234000Y34417000D02*
X95123000Y35306000D01*
X80645000Y36703000D02*
X81661000Y36703000D01*
X81661000Y36703000D02*
X83566000Y34798000D01*
X41021000Y33020000D02*
X75184000Y33020000D01*
X75184000Y33020000D02*
X75311000Y33147000D01*
X60750661Y35134339D02*
X58763322Y33147000D01*
X58763322Y33147000D02*
X54483000Y33147000D01*
X64135000Y33782000D02*
X63754000Y34163000D01*
X63754000Y34163000D02*
X60325000Y34163000D01*
X69469000Y34671000D02*
X68326000Y34671000D01*
X68326000Y34671000D02*
X67564000Y33909000D01*
X71882000Y37592000D02*
X71628000Y37592000D01*
X71628000Y37592000D02*
X70231000Y36195000D01*
X50673000Y43561000D02*
X41910000Y43561000D01*
X41910000Y43561000D02*
X41783000Y43434000D01*
X48641000Y49911000D02*
X48641000Y45593000D01*
X48641000Y45593000D02*
X50673000Y43561000D01*
X50673000Y40005000D02*
X50673000Y40132000D01*
X50673000Y40132000D02*
X50673000Y40005000D01*
X50673000Y40005000D02*
X50673000Y40132000D01*
X44323000Y38227000D02*
X44323000Y38862000D01*
X44323000Y38862000D02*
X43053000Y40132000D01*
X57150000Y37465000D02*
X51054000Y37465000D01*
X51054000Y37465000D02*
X50546000Y37973000D01*
X67818000Y58039000D02*
X67564000Y58293000D01*
X67564000Y58293000D02*
X67564000Y59563000D01*
X50292000Y58928000D02*
X50038000Y58674000D01*
X50038000Y58674000D02*
X50038000Y54229000D01*
X45593000Y51689000D02*
X43815000Y49911000D01*
X43815000Y49911000D02*
X43815000Y48133000D01*
X43942000Y57785000D02*
X43815000Y57658000D01*
X43815000Y57658000D02*
X43815000Y53975000D01*
X43815000Y53975000D02*
X46228000Y51562000D01*
X46228000Y51562000D02*
X54102000Y51562000D01*
X57658000Y49615992D02*
X58207008Y50165000D01*
X58207008Y50165000D02*
X60198000Y50165000D01*
X60452000Y54737000D02*
X62484000Y56769000D01*
X62484000Y56769000D02*
X62484000Y59055000D01*
X62484000Y59055000D02*
X61976000Y59563000D01*
X61976000Y59563000D02*
X60833000Y59563000D01*
X58166000Y68707000D02*
X37338000Y68707000D01*
X37338000Y68707000D02*
X37211000Y68834000D01*
X37211000Y66802000D02*
X36703000Y66294000D01*
X36703000Y66294000D02*
X36703000Y63500000D01*
X41148000Y63119000D02*
X42291000Y64262000D01*
X42291000Y64262000D02*
X42545000Y64262000D01*
X42545000Y65913000D02*
X42926000Y66294000D01*
X42926000Y66294000D02*
X44958000Y66294000D01*
X45466000Y67310000D02*
X45974000Y67818000D01*
X45974000Y67818000D02*
X47879000Y67818000D01*
X47498000Y62865000D02*
X47244000Y62611000D01*
X47244000Y62611000D02*
X43688000Y62611000D01*
D40*
X81700000Y35980000D02*
X81407000Y35687000D01*
X81407000Y35687000D02*
X81407000Y34417000D01*
X81700000Y36111000D02*
X81700000Y35980000D01*
D39*
X75345526Y39363426D02*
X75345526Y38939162D01*
X73469499Y37063135D02*
X73469499Y36258499D01*
X75345526Y38939162D02*
X73469499Y37063135D01*
X73469499Y36258499D02*
X72644000Y35433000D01*
D40*
X75550802Y39863802D02*
X75345526Y39658526D01*
X75345526Y39658526D02*
X75345526Y39363426D01*
X76069000Y41612000D02*
X76069000Y40210110D01*
X76069000Y40210110D02*
X75921671Y40062781D01*
X75921671Y40062781D02*
X75550802Y39863802D01*
D41*
X69850000Y42144000D02*
X64282000Y42144000D01*
X64282000Y42144000D02*
X64135000Y42291000D01*
X69850000Y42144000D02*
X70084000Y42144000D01*
X70084000Y42144000D02*
X71247000Y43307000D01*
D42*
X48641000Y49911000D02*
X48006000Y49911000D01*
X48006000Y49911000D02*
X48641000Y49911000D01*
X48641000Y49911000D02*
X48006000Y49911000D01*
X60071000Y43688000D02*
X59690000Y43307000D01*
X59690000Y43307000D02*
X59436000Y43307000D01*
D40*
X83820000Y46482000D02*
X84836000Y47498000D01*
X84836000Y47498000D02*
X84836000Y47752000D01*
D41*
X48006000Y40132000D02*
X48006000Y49911000D01*
X48006000Y49911000D02*
X48006000Y53213000D01*
X48006000Y53213000D02*
X45720000Y55499000D01*
X55118000Y30607000D02*
X53000010Y32724990D01*
X53000010Y32724990D02*
X50841010Y32724990D01*
X50841010Y32724990D02*
X48387000Y35179000D01*
X49921702Y33655000D02*
X49911000Y33655000D01*
X49911000Y33655000D02*
X48387000Y35179000D01*
X48387000Y35179000D02*
X48387000Y40513000D01*
X43053000Y40132000D02*
X48006000Y40132000D01*
X48006000Y40132000D02*
X50673000Y40132000D01*
X50673000Y40132000D02*
X54483000Y40132000D01*
X48387000Y40513000D02*
X48006000Y40132000D01*
D40*
X82893000Y33528000D02*
X82893000Y35768000D01*
X82893000Y35768000D02*
X82550000Y36111000D01*
X81700000Y36111000D02*
X82550000Y36111000D01*
X76073000Y41608000D02*
X76069000Y41612000D01*
D39*
X81407000Y60833000D02*
X81915000Y61341000D01*
X74519000Y64740000D02*
X74519000Y63253782D01*
X74519000Y63253782D02*
X74420499Y63155281D01*
X74420499Y63155281D02*
X74420499Y61812719D01*
X74420499Y61812719D02*
X75400218Y60833000D01*
X71247000Y44958000D02*
X74041000Y44958000D01*
X74041000Y44958000D02*
X76451999Y47368999D01*
X76451999Y47368999D02*
X76443999Y47376999D01*
X76443999Y47376999D02*
X76443999Y48812000D01*
D41*
X71247000Y44958000D02*
X71247000Y43307000D01*
D40*
X71755000Y43815000D02*
X71247000Y43307000D01*
X75141000Y43815000D02*
X71755000Y43815000D01*
X76069000Y41612000D02*
X76069000Y42887000D01*
X76069000Y42887000D02*
X75141000Y43815000D01*
X76069000Y48812000D02*
X76068999Y47536999D01*
X71863001Y47536999D02*
X71247000Y48153000D01*
D41*
X60452000Y42291000D02*
X64135000Y42291000D01*
X64135000Y42291000D02*
X66167000Y42291000D01*
X57150000Y37465000D02*
X60134500Y40449500D01*
X60134500Y40449500D02*
X60747008Y41062008D01*
X60747008Y41062008D02*
X62906008Y41062008D01*
X62906008Y41062008D02*
X64135000Y42291000D01*
X39878000Y43307000D02*
X39878000Y37465000D01*
X57150000Y37465000D02*
X57150000Y38989000D01*
X57150000Y38989000D02*
X60452000Y42291000D01*
X58547000Y42291000D02*
X60452000Y42291000D01*
X57150000Y43307000D02*
X59436000Y43307000D01*
X59436000Y43307000D02*
X60452000Y42291000D01*
X54483000Y40132000D02*
X57150000Y37465000D01*
X54483000Y40132000D02*
X56769000Y40132000D01*
X54483000Y40132000D02*
X54483000Y40640000D01*
X54483000Y40640000D02*
X57150000Y43307000D01*
X39878000Y37465000D02*
X40703499Y38290499D01*
X40703499Y38290499D02*
X41211499Y38290499D01*
X41211499Y38290499D02*
X43053000Y40132000D01*
X39878000Y40132000D02*
X43053000Y40132000D01*
X39878000Y43307000D02*
X40703499Y42481501D01*
X40703499Y42481501D02*
X43053000Y40132000D01*
X39878000Y40132000D02*
X39878000Y43307000D01*
X39878000Y37465000D02*
X39878000Y40132000D01*
X57150000Y39751000D02*
X57150000Y40894000D01*
X57150000Y37465000D02*
X57150000Y39751000D01*
X56769000Y40132000D02*
X57150000Y39751000D01*
X57150000Y40894000D02*
X57150000Y43307000D01*
X57150000Y40894000D02*
X58547000Y42291000D01*
X66167000Y42291000D02*
X66294000Y42164000D01*
X68453000Y42164000D02*
X66294000Y42164000D01*
X71247000Y48153000D02*
X71247000Y44958000D01*
X71247000Y44958000D02*
X68453000Y42164000D01*
D39*
X66230499Y57848501D02*
X65405000Y58674000D01*
X66363499Y57848501D02*
X66230499Y57848501D01*
D40*
X74519000Y64740000D02*
X74519000Y65502000D01*
X74519000Y65502000D02*
X74519000Y66234000D01*
D39*
X71247000Y61468000D02*
X74519000Y64740000D01*
D40*
X79969000Y48812000D02*
X79969000Y47401002D01*
X79969000Y47401002D02*
X80750002Y46620000D01*
X80750002Y46620000D02*
X80886000Y46620000D01*
X80886000Y46620000D02*
X81269000Y46620000D01*
X81407000Y46482000D02*
X83820000Y46482000D01*
X81269000Y48812000D02*
X81269000Y46990000D01*
X81269000Y46990000D02*
X81269000Y46620000D01*
X81269000Y46620000D02*
X81407000Y46482000D01*
X76719000Y48812000D02*
X76069000Y48812000D01*
D39*
X95377000Y41148000D02*
X92890000Y41148000D01*
X92890000Y41148000D02*
X91313000Y42725000D01*
D38*
X86614000Y41148000D02*
X83683000Y41148000D01*
X83683000Y41148000D02*
X83219000Y41612000D01*
X86614000Y41148000D02*
X89736000Y41148000D01*
X89736000Y41148000D02*
X91313000Y42725000D01*
D40*
X78669000Y41612000D02*
X78669000Y42834998D01*
X78669000Y42834998D02*
X79059001Y43224999D01*
X79059001Y43224999D02*
X79059001Y44892999D01*
X79059001Y44892999D02*
X77343000Y46609000D01*
X82550000Y38311000D02*
X80695000Y38311000D01*
X80695000Y38311000D02*
X78669000Y40337000D01*
X78669000Y40337000D02*
X78669000Y41612000D01*
X78669000Y41612000D02*
X78669000Y42474000D01*
X77119000Y66234000D02*
X77119000Y65144000D01*
D38*
X77119000Y66234000D02*
X77119000Y65158998D01*
X77119000Y65158998D02*
X77119000Y65121000D01*
X77119000Y66234000D02*
X77119000Y65294000D01*
D40*
X77119000Y65144000D02*
X77874000Y64389000D01*
D42*
X77888998Y64389000D02*
X77119000Y65158998D01*
D38*
X77119000Y65294000D02*
X78024000Y64389000D01*
D39*
X78024000Y64389000D02*
X78613000Y64389000D01*
X78613000Y64389000D02*
X79883000Y64389000D01*
D40*
X77874000Y64389000D02*
X78613000Y64389000D01*
D42*
X78024000Y64389000D02*
X77888998Y64389000D01*
D41*
X41021000Y30353000D02*
X37846000Y33528000D01*
X37846000Y33528000D02*
X37592000Y33782000D01*
X39878000Y34925000D02*
X39243000Y34925000D01*
X39243000Y34925000D02*
X37846000Y33528000D01*
X37592000Y42672000D02*
X37592000Y38989000D01*
X37592000Y38989000D02*
X37592000Y36639717D01*
X37592000Y33782000D02*
X37592000Y38989000D01*
X45720000Y60579000D02*
X43688000Y60579000D01*
X37592000Y44132283D02*
X37592000Y42672000D01*
X43688000Y60579000D02*
X41656000Y60579000D01*
X41656000Y58039000D02*
X41656000Y58547000D01*
X41656000Y58547000D02*
X43688000Y60579000D01*
X41656000Y58039000D02*
X41656000Y46228000D01*
X41656000Y60579000D02*
X41656000Y58039000D01*
X41656000Y60579000D02*
X39878000Y60579000D01*
X41656000Y58801000D02*
X39878000Y60579000D01*
X39878000Y60579000D02*
X29559500Y60579000D01*
X41656000Y58039000D02*
X41656000Y58801000D01*
X39878000Y45847000D02*
X42037000Y45847000D01*
X42037000Y45847000D02*
X44577000Y45847000D01*
X41656000Y46228000D02*
X42037000Y45847000D01*
X29559500Y60579000D02*
X26924000Y60579000D01*
X26924000Y60579000D02*
X23622000Y60579000D01*
X25273000Y58928000D02*
X26924000Y60579000D01*
X23622000Y60579000D02*
X11906500Y60579000D01*
X25273000Y53340000D02*
X25273000Y58928000D01*
X25273000Y58928000D02*
X23622000Y60579000D01*
X11906500Y60579000D02*
X7493000Y56165500D01*
X7493000Y56165500D02*
X7493000Y53213000D01*
X37592000Y36639717D02*
X39306717Y34925000D01*
X39306717Y34925000D02*
X39878000Y34925000D01*
X39878000Y45847000D02*
X39306717Y45847000D01*
X39306717Y45847000D02*
X37592000Y44132283D01*
X39878000Y34925000D02*
X44577000Y34925000D01*
D40*
X77851000Y47117000D02*
X77393999Y47574001D01*
X77393999Y47574001D02*
X77393999Y48787001D01*
X77393999Y48787001D02*
X77369000Y48812000D01*
X79319000Y47117000D02*
X79319000Y46586000D01*
X79319000Y48812000D02*
X79319000Y47117000D01*
X79319000Y47117000D02*
X77851000Y47117000D01*
X79502000Y46403000D02*
X79801999Y46103001D01*
X79801999Y46103001D02*
X80230999Y46103001D01*
X80230999Y46103001D02*
X81269000Y45065000D01*
X79319000Y46586000D02*
X79502000Y46403000D01*
X81269000Y41612000D02*
X81269000Y45065000D01*
X81269000Y41612000D02*
X81919000Y41612000D01*
D41*
X58694000Y14371000D02*
X58694000Y9291000D01*
X58694000Y9291000D02*
X54610000Y5207000D01*
D39*
X58694000Y14371000D02*
X58694000Y25460225D01*
X58694000Y25460225D02*
X62697775Y29464000D01*
X62697775Y29464000D02*
X73036630Y29464000D01*
X73036630Y29464000D02*
X74168000Y29464000D01*
X73787000Y29464000D02*
X74168000Y29464000D01*
D38*
X50673000Y27051000D02*
X46990000Y30734000D01*
X46990000Y30734000D02*
X46990000Y31242000D01*
X47371000Y27178000D02*
X49022000Y27178000D01*
X49022000Y27178000D02*
X49276000Y27432000D01*
X45466000Y23876000D02*
X45466000Y26035000D01*
X45466000Y26035000D02*
X45720000Y26289000D01*
X29464000Y32131000D02*
X29464000Y26162000D01*
X29464000Y26162000D02*
X29464000Y24765000D01*
X29845000Y32512000D02*
X29464000Y32131000D01*
X29464000Y34163000D02*
X30226000Y34163000D01*
X30226000Y34163000D02*
X30353000Y34036000D01*
X20955000Y30988000D02*
X24257000Y34290000D01*
X24257000Y34290000D02*
X28448000Y34290000D01*
X18542000Y30734000D02*
X19685000Y30734000D01*
X19685000Y30734000D02*
X20574000Y31623000D01*
X19558000Y33401000D02*
X19558000Y32766000D01*
X19558000Y32766000D02*
X19431000Y32639000D01*
X19431000Y36576000D02*
X19431000Y34671000D01*
X19431000Y34671000D02*
X19685000Y34417000D01*
X15240000Y41148000D02*
X18161000Y38227000D01*
X18161000Y38227000D02*
X19685000Y38227000D01*
X2667000Y56388000D02*
X1778000Y55499000D01*
X1778000Y55499000D02*
X1778000Y51435000D01*
X1143000Y44069000D02*
X1143000Y43434000D01*
X6223000Y41656000D02*
X4191000Y43688000D01*
X4191000Y43688000D02*
X4191000Y44323000D01*
X4445000Y37465000D02*
X6985000Y40005000D01*
X6985000Y40005000D02*
X6985000Y40386000D01*
X2794000Y35814000D02*
X1651000Y36957000D01*
X1651000Y36957000D02*
X762000Y37846000D01*
X2794000Y34671000D02*
X2794000Y35814000D01*
X1016000Y25781000D02*
X1016000Y30861000D01*
X1016000Y30861000D02*
X2286000Y32131000D01*
X1778000Y22733000D02*
X3683000Y22733000D01*
X3683000Y22733000D02*
X3810000Y22860000D01*
X1397000Y18542000D02*
X1397000Y19939000D01*
X1397000Y19939000D02*
X1524000Y20066000D01*
X4953000Y17145000D02*
X4699000Y17145000D01*
X4699000Y17145000D02*
X3175000Y15621000D01*
X9525000Y15621000D02*
X7112000Y18034000D01*
X7112000Y18034000D02*
X6223000Y18034000D01*
X11938000Y12446000D02*
X10160000Y14224000D01*
X10160000Y14224000D02*
X10160000Y14351000D01*
X7112000Y8636000D02*
X9906000Y8636000D01*
X9906000Y8636000D02*
X10668000Y9398000D01*
X2413000Y4191000D02*
X2413000Y9017000D01*
X2413000Y9017000D02*
X2286000Y9144000D01*
X9017000Y3302000D02*
X4445000Y3302000D01*
X4445000Y3302000D02*
X4191000Y3556000D01*
X12700000Y3429000D02*
X12700000Y4064000D01*
X17780000Y2413000D02*
X19558000Y4191000D01*
X19558000Y4191000D02*
X23368000Y4191000D01*
X26162000Y2794000D02*
X20447000Y2794000D01*
X20447000Y2794000D02*
X20320000Y2667000D01*
X25400000Y8128000D02*
X27813000Y8128000D01*
X27813000Y8128000D02*
X28067000Y8382000D01*
X21336000Y6350000D02*
X21336000Y7112000D01*
X21336000Y7112000D02*
X22352000Y8128000D01*
X18542000Y3429000D02*
X18542000Y3556000D01*
X18542000Y3556000D02*
X19558000Y4572000D01*
X30099000Y15240000D02*
X29300583Y16038417D01*
X29300583Y16038417D02*
X26706417Y16038417D01*
X31369000Y16510000D02*
X30099000Y15240000D01*
X30734000Y14478000D02*
X30734000Y15748000D01*
X29337000Y14478000D02*
X28829000Y13970000D01*
X28829000Y13970000D02*
X28829000Y11049000D01*
X5461000Y61595000D02*
X5461000Y59944000D01*
X5461000Y59944000D02*
X3810000Y58293000D01*
X11938000Y65532000D02*
X11938000Y64389000D01*
X11938000Y64389000D02*
X10160000Y62611000D01*
X19304000Y66167000D02*
X15875000Y66167000D01*
X15875000Y66167000D02*
X13970000Y68072000D01*
X27813000Y64008000D02*
X25019000Y64008000D01*
X25019000Y64008000D02*
X23622000Y65405000D01*
X34544000Y69342000D02*
X34544000Y62484000D01*
X34544000Y62484000D02*
X34671000Y62357000D01*
X1524000Y62230000D02*
X6604000Y67310000D01*
X6604000Y67310000D02*
X26924000Y67310000D01*
X9525000Y68326000D02*
X6731000Y65532000D01*
X6731000Y65532000D02*
X6731000Y65151000D01*
X8509000Y63881000D02*
X8509000Y66421000D01*
X8509000Y66421000D02*
X5842000Y69088000D01*
X3048000Y54991000D02*
X2032000Y56007000D01*
X2032000Y56007000D02*
X2032000Y63881000D01*
X19177000Y46101000D02*
X2921000Y46101000D01*
X19304000Y43180000D02*
X19304000Y44450000D01*
X19304000Y44450000D02*
X19431000Y44577000D01*
X15113000Y43561000D02*
X16002000Y43561000D01*
X16002000Y43561000D02*
X18669000Y40894000D01*
X9271000Y43434000D02*
X8890000Y43434000D01*
X8890000Y43434000D02*
X8128000Y42672000D01*
X12065000Y44196000D02*
X11176000Y44196000D01*
X11176000Y44196000D02*
X10541000Y43561000D01*
X13716000Y36830000D02*
X12065000Y38481000D01*
X12065000Y38481000D02*
X12065000Y39243000D01*
X13716000Y33909000D02*
X13716000Y36830000D01*
X72644000Y17780000D02*
X67564000Y17780000D01*
X67564000Y17780000D02*
X67437000Y17653000D01*
X83947000Y29083000D02*
X83947000Y21463000D01*
X83947000Y21463000D02*
X80137000Y17653000D01*
X96520000Y30861000D02*
X86614000Y30861000D01*
X86614000Y30861000D02*
X86360000Y31115000D01*
X84836000Y27305000D02*
X92710000Y27305000D01*
X92710000Y27305000D02*
X94742000Y29337000D01*
X79502000Y27305000D02*
X80137000Y27940000D01*
X80137000Y27940000D02*
X77724000Y27940000D01*
X90043000Y23114000D02*
X85852000Y27305000D01*
X85852000Y27305000D02*
X84836000Y27305000D01*
X87376000Y13335000D02*
X87376000Y18923000D01*
X87376000Y18923000D02*
X89408000Y20955000D01*
X96393000Y5969000D02*
X96393000Y11938000D01*
X96393000Y11938000D02*
X92456000Y15875000D01*
X91821000Y1524000D02*
X91821000Y5969000D01*
X91821000Y5969000D02*
X94361000Y8509000D01*
X80391000Y7366000D02*
X84836000Y7366000D01*
X84836000Y7366000D02*
X87122000Y5080000D01*
X74168000Y7112000D02*
X74168000Y9779000D01*
X74168000Y9779000D02*
X77851000Y13462000D01*
X64389000Y6096000D02*
X64389000Y14605000D01*
X64389000Y14605000D02*
X64262000Y14732000D01*
X50673000Y2413000D02*
X51308000Y1778000D01*
X51308000Y1778000D02*
X57785000Y1778000D01*
X40812999Y3728999D02*
X44196000Y7112000D01*
X44196000Y7112000D02*
X44704000Y7112000D01*
X39116000Y3429000D02*
X39415999Y3728999D01*
X39415999Y3728999D02*
X40812999Y3728999D01*
X42545000Y1143000D02*
X35179000Y1143000D01*
X35179000Y1143000D02*
X35052000Y1016000D01*
X39116000Y8382000D02*
X41021000Y6477000D01*
X41021000Y6477000D02*
X41021000Y6223000D01*
X39116000Y15748000D02*
X39116000Y8382000D01*
X40386000Y17018000D02*
X39116000Y15748000D01*
X41411218Y17018000D02*
X40386000Y17018000D01*
X43942000Y17272000D02*
X41665218Y17272000D01*
X41665218Y17272000D02*
X41411218Y17018000D01*
X35179000Y23876000D02*
X35179000Y21336000D01*
X35179000Y21336000D02*
X34544000Y20701000D01*
X35179000Y23876000D02*
X33909000Y25146000D01*
X36322000Y30861000D02*
X36322000Y28829000D01*
X36703000Y25527000D02*
X36703000Y28321000D01*
X36703000Y28321000D02*
X36576000Y28448000D01*
X43942000Y17272000D02*
X41402000Y17272000D01*
X41402000Y17272000D02*
X39116000Y19558000D01*
X38862000Y29718000D02*
X38862000Y29293736D01*
X38862000Y29293736D02*
X38989000Y29166736D01*
X42545000Y31242000D02*
X44450000Y31242000D01*
X43942000Y17272000D02*
X39116000Y22098000D01*
X39116000Y22098000D02*
X39116000Y25146000D01*
D42*
X57150000Y18816000D02*
X57150000Y18796000D01*
X8235000Y30268000D02*
X8255000Y30248000D01*
X8255000Y30248000D02*
X8255000Y30226000D01*
X14441947Y27268947D02*
X14795500Y27622500D01*
X14795500Y27622500D02*
X14478000Y27305000D01*
X14478000Y27305000D02*
X14478000Y27940000D01*
X8235000Y31369000D02*
X8255000Y31369000D01*
X21057609Y15850609D02*
X21082000Y15875000D01*
D41*
X13589000Y28829000D02*
X14478000Y27940000D01*
X14478000Y27940000D02*
X16129000Y26289000D01*
X16129000Y26289000D02*
X16637000Y26289000D01*
D39*
X9017000Y28829000D02*
X13589000Y28829000D01*
D41*
X29464000Y28829000D02*
X29464000Y28459630D01*
X29464000Y28459630D02*
X31634630Y26289000D01*
X31634630Y26289000D02*
X32766000Y26289000D01*
D39*
X26277370Y28829000D02*
X29464000Y28829000D01*
X25146000Y28829000D02*
X26277370Y28829000D01*
X76835000Y39116000D02*
X76835000Y37084000D01*
D41*
X76835000Y37084000D02*
X75184000Y35433000D01*
D40*
X76719000Y41612000D02*
X76719000Y39232000D01*
X76719000Y39232000D02*
X76835000Y39116000D01*
D39*
X81788000Y29464000D02*
X81788000Y24384000D01*
X81788000Y24384000D02*
X79248000Y21844000D01*
D40*
X78359000Y43561000D02*
X78019000Y43221000D01*
X78019000Y43221000D02*
X78019000Y41612000D01*
X77216000Y43561000D02*
X77369000Y43408000D01*
X77369000Y43408000D02*
X77369000Y41612000D01*
D41*
X57150000Y34925000D02*
X52197000Y34925000D01*
X57150000Y34925000D02*
X58420000Y34925000D01*
X58420000Y34925000D02*
X62357000Y38862000D01*
X71247000Y50653000D02*
X70211998Y50653000D01*
X70211998Y50653000D02*
X68516499Y48957501D01*
X68516499Y48957501D02*
X68516499Y47815499D01*
X68516499Y47815499D02*
X67564000Y46863000D01*
X71247000Y50653000D02*
X71668000Y51074000D01*
X71668000Y51074000D02*
X74432000Y51074000D01*
X71247000Y50653000D02*
X71842000Y50653000D01*
X71842000Y50653000D02*
X72263000Y51074000D01*
D39*
X72263000Y51074000D02*
X73888000Y51074000D01*
X73888000Y51074000D02*
X74432000Y51074000D01*
D40*
X75419000Y48812000D02*
X75419000Y50087000D01*
X75419000Y50087000D02*
X74432000Y51074000D01*
X74432000Y51074000D02*
X73288000Y51074000D01*
X73288000Y51074000D02*
X72263000Y51074000D01*
X74295000Y39870949D02*
X74322029Y40036999D01*
X74322029Y40036999D02*
X75419000Y40474000D01*
D39*
X72517000Y39644000D02*
X73929030Y39644000D01*
X73929030Y39644000D02*
X74322029Y40036999D01*
D40*
X73872000Y39644000D02*
X74295000Y39870949D01*
D39*
X72743949Y39870949D02*
X72517000Y39644000D01*
D41*
X71247000Y39644000D02*
X72517000Y39644000D01*
X69850000Y39644000D02*
X72517000Y39644000D01*
X67437000Y38862000D02*
X70465000Y38862000D01*
X70465000Y38862000D02*
X71247000Y39644000D01*
D40*
X75419000Y40474000D02*
X75419000Y41612000D01*
D41*
X57150000Y45847000D02*
X60071000Y45847000D01*
X60071000Y45847000D02*
X61468000Y45847000D01*
X61468000Y45847000D02*
X62484000Y46863000D01*
X52197000Y45847000D02*
X57150000Y45847000D01*
D39*
X29337000Y38862000D02*
X29845000Y38862000D01*
D42*
X24892000Y17780000D02*
X24892000Y16792172D01*
X24892000Y16792172D02*
X27945501Y13738671D01*
X27945501Y13738671D02*
X27945501Y9989719D01*
X27945501Y9989719D02*
X27348281Y9392499D01*
X27348281Y9392499D02*
X22044499Y9392499D01*
X22044499Y9392499D02*
X15875000Y3223000D01*
D39*
X9398000Y5588000D02*
X13510000Y5588000D01*
X13510000Y5588000D02*
X15875000Y3223000D01*
D40*
X84493000Y33528000D02*
X84493000Y36022000D01*
X84493000Y36022000D02*
X84582000Y36111000D01*
D38*
X77978000Y63119000D02*
X77978000Y62992000D01*
X77978000Y62992000D02*
X78613000Y62357000D01*
X76469000Y66234000D02*
X76469000Y64628000D01*
X76469000Y64628000D02*
X77978000Y63119000D01*
X77978000Y63119000D02*
X78613000Y62484000D01*
X75819000Y63119000D02*
X75819000Y62611000D01*
X75819000Y62611000D02*
X76073000Y62357000D01*
X75819000Y62484000D02*
X75819000Y63119000D01*
X75819000Y63119000D02*
X75819000Y66234000D01*
D42*
X72909000Y68894000D02*
X72909000Y67041500D01*
X72909000Y67041500D02*
X73356500Y66594000D01*
X74979000Y68894000D02*
X72909000Y68894000D01*
X76659000Y68894000D02*
X74979000Y68894000D01*
X78729000Y68894000D02*
X76659000Y68894000D01*
X78281500Y66594000D02*
X78281500Y68446500D01*
X78281500Y68446500D02*
X78729000Y68894000D01*
X28829000Y9398000D02*
X32385000Y12954000D01*
X32385000Y12954000D02*
X32385000Y17780000D01*
X15875000Y6223000D02*
X14324999Y7773001D01*
X14324999Y7773001D02*
X14324999Y15721999D01*
X14324999Y15721999D02*
X15938501Y17335501D01*
X15938501Y17335501D02*
X16637000Y18034000D01*
D40*
X83155000Y39751000D02*
X83292000Y39751000D01*
X83292000Y39751000D02*
X84582000Y38461000D01*
X84582000Y38461000D02*
X84582000Y38311000D01*
X82569000Y41612000D02*
X82569000Y40337000D01*
X82569000Y40337000D02*
X83155000Y39751000D01*
D38*
X78669000Y48812000D02*
X78669000Y52141000D01*
X78669000Y52141000D02*
X78613000Y52197000D01*
X78613000Y48868000D02*
X78669000Y48812000D01*
X76073000Y52197000D02*
X76073000Y51943000D01*
X76073000Y51943000D02*
X78019000Y49997000D01*
X78019000Y49997000D02*
X78019000Y48812000D01*
D39*
X68834000Y21844000D02*
X76454000Y29464000D01*
X76454000Y29464000D02*
X76708000Y29464000D01*
D42*
X1016000Y3937000D02*
X1016000Y16129000D01*
X1016000Y16129000D02*
X3556000Y18669000D01*
X3683000Y1270000D02*
X1016000Y3937000D01*
X33704792Y1270000D02*
X3683000Y1270000D01*
X35988000Y4826000D02*
X35988000Y3553208D01*
X35988000Y3553208D02*
X33704792Y1270000D01*
D40*
X35179000Y18669000D02*
X35179000Y8135000D01*
X35179000Y8135000D02*
X35988000Y7326000D01*
X35179000Y18669000D02*
X34290000Y19558000D01*
X34290000Y19558000D02*
X20828000Y19558000D01*
X20828000Y19558000D02*
X20637499Y19367499D01*
X20637499Y19367499D02*
X19939000Y18669000D01*
D42*
X73406000Y41783000D02*
X74572999Y41783000D01*
X74572999Y41783000D02*
X74743999Y41612000D01*
X73279000Y49022000D02*
X73986106Y49022000D01*
X73986106Y49022000D02*
X74196106Y48812000D01*
X74196106Y48812000D02*
X74743999Y48812000D01*
D43*
G36*
X90797656Y37215976D02*
X90720390Y36967215D01*
X91567000Y36120605D01*
X92413610Y36967215D01*
X92336344Y37215976D01*
X91998476Y37338000D01*
X97080000Y37338000D01*
X97080000Y32512000D01*
X93027081Y32512000D01*
X93039940Y32575500D01*
X93039940Y34226500D01*
X92995662Y34461817D01*
X92856590Y34677941D01*
X92644390Y34822931D01*
X92400425Y34872335D01*
X92413610Y34914785D01*
X91567000Y35761395D01*
X90720390Y34914785D01*
X90733542Y34872443D01*
X90506183Y34829662D01*
X90290059Y34690590D01*
X90145069Y34478390D01*
X90094060Y34226500D01*
X90094060Y32575500D01*
X90106008Y32512000D01*
X87229949Y32512000D01*
X87362827Y32644647D01*
X87566268Y33134587D01*
X87566731Y33665086D01*
X87364146Y34155380D01*
X86989353Y34530827D01*
X86499413Y34734268D01*
X85968914Y34734731D01*
X85478620Y34532146D01*
X85338424Y34392195D01*
X85328000Y34399317D01*
X85328000Y34946886D01*
X85483441Y35046910D01*
X85628431Y35259110D01*
X85679440Y35511000D01*
X85679440Y36163869D01*
X90094660Y36163869D01*
X90121447Y35583465D01*
X90292024Y35171656D01*
X90540785Y35094390D01*
X91387395Y35941000D01*
X91746605Y35941000D01*
X92593215Y35094390D01*
X92841976Y35171656D01*
X93039340Y35718131D01*
X93012553Y36298535D01*
X92841976Y36710344D01*
X92593215Y36787610D01*
X91746605Y35941000D01*
X91387395Y35941000D01*
X90540785Y36787610D01*
X90292024Y36710344D01*
X90094660Y36163869D01*
X85679440Y36163869D01*
X85679440Y36711000D01*
X85635162Y36946317D01*
X85496090Y37162441D01*
X85426289Y37210134D01*
X85483441Y37246910D01*
X85545680Y37338000D01*
X91092248Y37338000D01*
X90797656Y37215976D01*
X90797656Y37215976D01*
G37*
X90797656Y37215976D02*
X90720390Y36967215D01*
X91567000Y36120605D01*
X92413610Y36967215D01*
X92336344Y37215976D01*
X91998476Y37338000D01*
X97080000Y37338000D01*
X97080000Y32512000D01*
X93027081Y32512000D01*
X93039940Y32575500D01*
X93039940Y34226500D01*
X92995662Y34461817D01*
X92856590Y34677941D01*
X92644390Y34822931D01*
X92400425Y34872335D01*
X92413610Y34914785D01*
X91567000Y35761395D01*
X90720390Y34914785D01*
X90733542Y34872443D01*
X90506183Y34829662D01*
X90290059Y34690590D01*
X90145069Y34478390D01*
X90094060Y34226500D01*
X90094060Y32575500D01*
X90106008Y32512000D01*
X87229949Y32512000D01*
X87362827Y32644647D01*
X87566268Y33134587D01*
X87566731Y33665086D01*
X87364146Y34155380D01*
X86989353Y34530827D01*
X86499413Y34734268D01*
X85968914Y34734731D01*
X85478620Y34532146D01*
X85338424Y34392195D01*
X85328000Y34399317D01*
X85328000Y34946886D01*
X85483441Y35046910D01*
X85628431Y35259110D01*
X85679440Y35511000D01*
X85679440Y36163869D01*
X90094660Y36163869D01*
X90121447Y35583465D01*
X90292024Y35171656D01*
X90540785Y35094390D01*
X91387395Y35941000D01*
X91746605Y35941000D01*
X92593215Y35094390D01*
X92841976Y35171656D01*
X93039340Y35718131D01*
X93012553Y36298535D01*
X92841976Y36710344D01*
X92593215Y36787610D01*
X91746605Y35941000D01*
X91387395Y35941000D01*
X90540785Y36787610D01*
X90292024Y36710344D01*
X90094660Y36163869D01*
X85679440Y36163869D01*
X85679440Y36711000D01*
X85635162Y36946317D01*
X85496090Y37162441D01*
X85426289Y37210134D01*
X85483441Y37246910D01*
X85545680Y37338000D01*
X91092248Y37338000D01*
X90797656Y37215976D01*
G36*
X70073808Y69618327D02*
X69931162Y69274799D01*
X69931121Y69227923D01*
X69058599Y68355401D01*
X68893852Y68108839D01*
X68836000Y67818000D01*
X68836000Y61976000D01*
X68893852Y61685161D01*
X69058599Y61438599D01*
X69305161Y61273852D01*
X69596000Y61216000D01*
X69886839Y61273852D01*
X70133401Y61438599D01*
X70298148Y61685161D01*
X70356000Y61976000D01*
X70356000Y67503198D01*
X71005680Y68152878D01*
X71051167Y68152838D01*
X71074060Y68162297D01*
X71074060Y67944000D01*
X71118338Y67708683D01*
X71257410Y67492559D01*
X71374000Y67412896D01*
X71374000Y52650520D01*
X71042312Y52584543D01*
X70598504Y52288000D01*
X70212003Y52288000D01*
X70211998Y52288001D01*
X69586311Y52163543D01*
X69055878Y51809120D01*
X69055876Y51809117D01*
X68173758Y50927000D01*
X66147949Y50927000D01*
X66280827Y51059647D01*
X66484268Y51549587D01*
X66484731Y52080086D01*
X66282146Y52570380D01*
X65907353Y52945827D01*
X65417413Y53149268D01*
X64886914Y53149731D01*
X64396620Y52947146D01*
X64021173Y52572353D01*
X63817732Y52082413D01*
X63817269Y51551914D01*
X64019854Y51061620D01*
X64154240Y50927000D01*
X60706000Y50927000D01*
X60661480Y50918941D01*
X60618713Y50892249D01*
X60589700Y50851022D01*
X60579012Y50801754D01*
X60588334Y50752211D01*
X60616197Y50710197D01*
X60960000Y50366394D01*
X60960000Y48103878D01*
X60935069Y48067390D01*
X60884060Y47815500D01*
X60884060Y47575300D01*
X60790760Y47482000D01*
X52197000Y47482000D01*
X51571313Y47357543D01*
X51040880Y47003120D01*
X50686457Y46472687D01*
X50562000Y45847000D01*
X50686457Y45221313D01*
X51040880Y44690880D01*
X51571313Y44336457D01*
X52197000Y44212000D01*
X56065392Y44212000D01*
X56123783Y44153609D01*
X55875024Y44076344D01*
X55677660Y43529869D01*
X55704447Y42949465D01*
X55875024Y42537656D01*
X56123785Y42460390D01*
X56970395Y43307000D01*
X56956253Y43321142D01*
X57135858Y43500747D01*
X57150000Y43486605D01*
X57164143Y43500747D01*
X57343748Y43321142D01*
X57329605Y43307000D01*
X58176215Y42460390D01*
X58424976Y42537656D01*
X58622340Y43084131D01*
X58595553Y43664535D01*
X58424976Y44076344D01*
X58176217Y44153609D01*
X58234608Y44212000D01*
X60960000Y44212000D01*
X60960000Y39777239D01*
X58613629Y37430869D01*
X58595553Y37822535D01*
X58424976Y38234344D01*
X58176215Y38311610D01*
X57329605Y37465000D01*
X57343748Y37450857D01*
X57164143Y37271252D01*
X57150000Y37285395D01*
X57135858Y37271252D01*
X56956253Y37450857D01*
X56970395Y37465000D01*
X56123785Y38311610D01*
X55875024Y38234344D01*
X55677660Y37687869D01*
X55704447Y37107465D01*
X55875024Y36695656D01*
X56123783Y36618391D01*
X56065392Y36560000D01*
X52197000Y36560000D01*
X51571313Y36435543D01*
X51040880Y36081120D01*
X50686457Y35550687D01*
X50562000Y34925000D01*
X50686457Y34299313D01*
X51040880Y33768880D01*
X51571313Y33414457D01*
X52197000Y33290000D01*
X58419995Y33290000D01*
X58420000Y33289999D01*
X59045688Y33414457D01*
X59576120Y33768880D01*
X60214025Y34406785D01*
X71797390Y34406785D01*
X71874656Y34158024D01*
X72421131Y33960660D01*
X73001535Y33987447D01*
X73413344Y34158024D01*
X73490610Y34406785D01*
X72644000Y35253395D01*
X71797390Y34406785D01*
X60214025Y34406785D01*
X60960000Y35152760D01*
X60960000Y34925000D01*
X60968685Y34878841D01*
X60995965Y34836447D01*
X61037590Y34808006D01*
X61087000Y34798000D01*
X68834000Y34798000D01*
X68880159Y34806685D01*
X68922553Y34833965D01*
X68950994Y34875590D01*
X68961000Y34925000D01*
X68961000Y35655869D01*
X71171660Y35655869D01*
X71198447Y35075465D01*
X71369024Y34663656D01*
X71617785Y34586390D01*
X72464395Y35433000D01*
X71617785Y36279610D01*
X71369024Y36202344D01*
X71171660Y35655869D01*
X68961000Y35655869D01*
X68961000Y36459215D01*
X71797390Y36459215D01*
X72644000Y35612605D01*
X73490610Y36459215D01*
X73413344Y36707976D01*
X72866869Y36905340D01*
X72286465Y36878553D01*
X71874656Y36707976D01*
X71797390Y36459215D01*
X68961000Y36459215D01*
X68961000Y37227000D01*
X70464995Y37227000D01*
X70465000Y37226999D01*
X71090688Y37351457D01*
X71621120Y37705880D01*
X71924240Y38009000D01*
X72517000Y38009000D01*
X73142687Y38133457D01*
X73673120Y38487880D01*
X73687232Y38509000D01*
X73929030Y38509000D01*
X74363376Y38595397D01*
X74731596Y38841434D01*
X75124596Y39234433D01*
X75328074Y39538960D01*
X75728021Y39698287D01*
X75732871Y39701433D01*
X75738541Y39702561D01*
X75869357Y39789970D01*
X75884000Y39799468D01*
X75884000Y39696419D01*
X75786397Y39550346D01*
X75700000Y39116000D01*
X75700000Y38254231D01*
X75678881Y38240120D01*
X74341502Y36902742D01*
X74123183Y36861662D01*
X73907059Y36722590D01*
X73762069Y36510390D01*
X73712665Y36266425D01*
X73670215Y36279610D01*
X72823605Y35433000D01*
X73670215Y34586390D01*
X73712557Y34599542D01*
X73755338Y34372183D01*
X73894410Y34156059D01*
X74106610Y34011069D01*
X74358500Y33960060D01*
X74502035Y33960060D01*
X74558312Y33922457D01*
X75184000Y33797999D01*
X75809688Y33922457D01*
X75865965Y33960060D01*
X76009500Y33960060D01*
X76244817Y34004338D01*
X76460941Y34143410D01*
X76605931Y34355610D01*
X76653436Y34590196D01*
X77888489Y35825250D01*
X81465000Y35825250D01*
X81465000Y35384691D01*
X81561673Y35151302D01*
X81740301Y34972673D01*
X81973690Y34876000D01*
X82264250Y34876000D01*
X82423000Y35034750D01*
X82423000Y35984000D01*
X81623750Y35984000D01*
X81465000Y35825250D01*
X77888489Y35825250D01*
X77991120Y35927881D01*
X78345543Y36458313D01*
X78470001Y37084000D01*
X78345543Y37709688D01*
X77991120Y38240120D01*
X77970000Y38254232D01*
X77970000Y39116000D01*
X77883603Y39550346D01*
X77637566Y39918566D01*
X77554000Y39974403D01*
X77554000Y40089560D01*
X77594000Y40089560D01*
X77697671Y40109067D01*
X77794000Y40089560D01*
X77883219Y40089560D01*
X77897561Y40017459D01*
X77992354Y39875592D01*
X78078566Y39746566D01*
X78747838Y39077294D01*
X78750006Y39066590D01*
X78778447Y39024965D01*
X78820841Y38997685D01*
X78828978Y38996154D01*
X80104566Y37720566D01*
X80375460Y37539560D01*
X80695000Y37476000D01*
X81496778Y37476000D01*
X81496838Y37475683D01*
X81635910Y37259559D01*
X81704006Y37213031D01*
X81561673Y37070698D01*
X81465000Y36837309D01*
X81465000Y36396750D01*
X81623750Y36238000D01*
X82423000Y36238000D01*
X82423000Y36258000D01*
X82677000Y36258000D01*
X82677000Y36238000D01*
X82697000Y36238000D01*
X82697000Y35984000D01*
X82677000Y35984000D01*
X82677000Y35034750D01*
X82835750Y34876000D01*
X83126310Y34876000D01*
X83359699Y34972673D01*
X83538327Y35151302D01*
X83565955Y35218002D01*
X83658000Y35074960D01*
X83658000Y34461025D01*
X83652698Y34466327D01*
X83419309Y34563000D01*
X83178750Y34563000D01*
X83020000Y34404250D01*
X83020000Y33655000D01*
X83040000Y33655000D01*
X83040000Y33401000D01*
X83020000Y33401000D01*
X83020000Y33381000D01*
X82766000Y33381000D01*
X82766000Y33401000D01*
X82016750Y33401000D01*
X81858000Y33242250D01*
X81858000Y33001690D01*
X81954673Y32768301D01*
X82133302Y32589673D01*
X82320821Y32512000D01*
X79609949Y32512000D01*
X79742827Y32644647D01*
X79946268Y33134587D01*
X79946731Y33665086D01*
X79785908Y34054310D01*
X81858000Y34054310D01*
X81858000Y33813750D01*
X82016750Y33655000D01*
X82766000Y33655000D01*
X82766000Y34404250D01*
X82607250Y34563000D01*
X82366691Y34563000D01*
X82133302Y34466327D01*
X81954673Y34287699D01*
X81858000Y34054310D01*
X79785908Y34054310D01*
X79744146Y34155380D01*
X79369353Y34530827D01*
X78879413Y34734268D01*
X78348914Y34734731D01*
X77858620Y34532146D01*
X77483173Y34157353D01*
X77279732Y33667413D01*
X77279269Y33136914D01*
X77481854Y32646620D01*
X77616240Y32512000D01*
X41174240Y32512000D01*
X40396240Y33290000D01*
X44577000Y33290000D01*
X45202687Y33414457D01*
X45733120Y33768880D01*
X46087543Y34299313D01*
X46212000Y34925000D01*
X46087543Y35550687D01*
X45733120Y36081120D01*
X45202687Y36435543D01*
X44577000Y36560000D01*
X40962608Y36560000D01*
X40904217Y36618391D01*
X41152976Y36695656D01*
X41350340Y37242131D01*
X41323553Y37822535D01*
X41152976Y38234344D01*
X40904215Y38311610D01*
X40057605Y37465000D01*
X40071748Y37450857D01*
X39892143Y37271252D01*
X39878000Y37285395D01*
X39863858Y37271252D01*
X39684253Y37450857D01*
X39698395Y37465000D01*
X39684253Y37479142D01*
X39863858Y37658747D01*
X39878000Y37644605D01*
X40724610Y38491215D01*
X56303390Y38491215D01*
X57150000Y37644605D01*
X57996610Y38491215D01*
X57919344Y38739976D01*
X57372869Y38937340D01*
X56792465Y38910553D01*
X56380656Y38739976D01*
X56303390Y38491215D01*
X40724610Y38491215D01*
X40647344Y38739976D01*
X40100869Y38937340D01*
X39520465Y38910553D01*
X39227000Y38788996D01*
X39227000Y41989283D01*
X39655131Y41834660D01*
X40235535Y41861447D01*
X40647344Y42032024D01*
X40724610Y42280785D01*
X56303390Y42280785D01*
X56380656Y42032024D01*
X56927131Y41834660D01*
X57507535Y41861447D01*
X57919344Y42032024D01*
X57996610Y42280785D01*
X57150000Y43127395D01*
X56303390Y42280785D01*
X40724610Y42280785D01*
X39878000Y43127395D01*
X39863858Y43113252D01*
X39684253Y43292857D01*
X39698395Y43307000D01*
X39684253Y43321142D01*
X39863858Y43500747D01*
X39878000Y43486605D01*
X39892143Y43500747D01*
X40071748Y43321142D01*
X40057605Y43307000D01*
X40904215Y42460390D01*
X41152976Y42537656D01*
X41350340Y43084131D01*
X41323553Y43664535D01*
X41152976Y44076344D01*
X40904217Y44153609D01*
X40962608Y44212000D01*
X44577000Y44212000D01*
X45202687Y44336457D01*
X45733120Y44690880D01*
X46087543Y45221313D01*
X46212000Y45847000D01*
X46087543Y46472687D01*
X45733120Y47003120D01*
X45202687Y47357543D01*
X44577000Y47482000D01*
X43291000Y47482000D01*
X43291000Y54426804D01*
X44827409Y54426804D01*
X44912467Y54171461D01*
X45481965Y53963484D01*
X46087700Y53989277D01*
X46527533Y54171461D01*
X46612591Y54426804D01*
X45720000Y55319395D01*
X44827409Y54426804D01*
X43291000Y54426804D01*
X43291000Y55737035D01*
X44184484Y55737035D01*
X44210277Y55131300D01*
X44392461Y54691467D01*
X44647804Y54606409D01*
X45540395Y55499000D01*
X45899605Y55499000D01*
X46792196Y54606409D01*
X47047539Y54691467D01*
X47255516Y55260965D01*
X47229723Y55866700D01*
X47047539Y56306533D01*
X46792196Y56391591D01*
X45899605Y55499000D01*
X45540395Y55499000D01*
X44647804Y56391591D01*
X44392461Y56306533D01*
X44184484Y55737035D01*
X43291000Y55737035D01*
X43291000Y56571196D01*
X44827409Y56571196D01*
X45720000Y55678605D01*
X46612591Y56571196D01*
X46527533Y56826539D01*
X45958035Y57034516D01*
X45352300Y57008723D01*
X44912467Y56826539D01*
X44827409Y56571196D01*
X43291000Y56571196D01*
X43291000Y57869760D01*
X44365240Y58944000D01*
X45720000Y58944000D01*
X46215494Y59042560D01*
X46609000Y59042560D01*
X46844317Y59086838D01*
X47060441Y59225910D01*
X47205431Y59438110D01*
X47256440Y59690000D01*
X47256440Y60083506D01*
X47329738Y60452000D01*
X51181000Y60452000D01*
X51181000Y52451000D01*
X51189685Y52404841D01*
X51216965Y52362447D01*
X51258590Y52334006D01*
X51308000Y52324000D01*
X56298048Y52324000D01*
X56197732Y52082413D01*
X56197269Y51551914D01*
X56399854Y51061620D01*
X56774647Y50686173D01*
X57264587Y50482732D01*
X57795086Y50482269D01*
X58285380Y50684854D01*
X58660827Y51059647D01*
X58864268Y51549587D01*
X58864731Y52080086D01*
X58763948Y52324000D01*
X59436000Y52324000D01*
X59482159Y52332685D01*
X59524553Y52359965D01*
X59552994Y52401590D01*
X59563000Y52451000D01*
X59563000Y56959500D01*
X63932060Y56959500D01*
X63932060Y55308500D01*
X63976338Y55073183D01*
X64115410Y54857059D01*
X64327610Y54712069D01*
X64579500Y54661060D01*
X66230500Y54661060D01*
X66465817Y54705338D01*
X66681941Y54844410D01*
X66826931Y55056610D01*
X66877940Y55308500D01*
X66877940Y56959500D01*
X66833662Y57194817D01*
X66694590Y57410941D01*
X66482390Y57555931D01*
X66238425Y57605335D01*
X66251610Y57647785D01*
X65405000Y58494395D01*
X64558390Y57647785D01*
X64571542Y57605443D01*
X64344183Y57562662D01*
X64128059Y57423590D01*
X63983069Y57211390D01*
X63932060Y56959500D01*
X59563000Y56959500D01*
X59563000Y58896869D01*
X63932660Y58896869D01*
X63959447Y58316465D01*
X64130024Y57904656D01*
X64378785Y57827390D01*
X65225395Y58674000D01*
X65584605Y58674000D01*
X66431215Y57827390D01*
X66679976Y57904656D01*
X66877340Y58451131D01*
X66850553Y59031535D01*
X66679976Y59443344D01*
X66431215Y59520610D01*
X65584605Y58674000D01*
X65225395Y58674000D01*
X64378785Y59520610D01*
X64130024Y59443344D01*
X63932660Y58896869D01*
X59563000Y58896869D01*
X59563000Y59700215D01*
X64558390Y59700215D01*
X65405000Y58853605D01*
X66251610Y59700215D01*
X66174344Y59948976D01*
X65627869Y60146340D01*
X65047465Y60119553D01*
X64635656Y59948976D01*
X64558390Y59700215D01*
X59563000Y59700215D01*
X59563000Y60452000D01*
X59554315Y60498159D01*
X59527035Y60540553D01*
X59485410Y60568994D01*
X59436000Y60579000D01*
X58967463Y60579000D01*
X59100838Y60900201D01*
X59101162Y61272167D01*
X58959117Y61615943D01*
X58926000Y61649118D01*
X58926000Y64262000D01*
X58868148Y64552839D01*
X58703401Y64799401D01*
X58456839Y64964148D01*
X58166000Y65022000D01*
X57875161Y64964148D01*
X57628599Y64799401D01*
X57463852Y64552839D01*
X57406000Y64262000D01*
X57406000Y61649463D01*
X57373808Y61617327D01*
X57231162Y61273799D01*
X57230838Y60901833D01*
X57364230Y60579000D01*
X56612878Y60579000D01*
X56576390Y60603931D01*
X56324500Y60654940D01*
X54419500Y60654940D01*
X54184183Y60610662D01*
X54134979Y60579000D01*
X51308000Y60579000D01*
X51261841Y60570315D01*
X51219447Y60543035D01*
X51191006Y60501410D01*
X51181000Y60452000D01*
X47329738Y60452000D01*
X47355000Y60579000D01*
X47256440Y61074494D01*
X47256440Y61468000D01*
X47212162Y61703317D01*
X47073090Y61919441D01*
X46860890Y62064431D01*
X46609000Y62115440D01*
X46215494Y62115440D01*
X45720000Y62214000D01*
X43688005Y62214000D01*
X43688000Y62214001D01*
X43687995Y62214000D01*
X39878005Y62214000D01*
X39878000Y62214001D01*
X39877995Y62214000D01*
X36195000Y62214000D01*
X36195000Y69648000D01*
X70103533Y69648000D01*
X70073808Y69618327D01*
X70073808Y69618327D01*
G37*
X70073808Y69618327D02*
X69931162Y69274799D01*
X69931121Y69227923D01*
X69058599Y68355401D01*
X68893852Y68108839D01*
X68836000Y67818000D01*
X68836000Y61976000D01*
X68893852Y61685161D01*
X69058599Y61438599D01*
X69305161Y61273852D01*
X69596000Y61216000D01*
X69886839Y61273852D01*
X70133401Y61438599D01*
X70298148Y61685161D01*
X70356000Y61976000D01*
X70356000Y67503198D01*
X71005680Y68152878D01*
X71051167Y68152838D01*
X71074060Y68162297D01*
X71074060Y67944000D01*
X71118338Y67708683D01*
X71257410Y67492559D01*
X71374000Y67412896D01*
X71374000Y52650520D01*
X71042312Y52584543D01*
X70598504Y52288000D01*
X70212003Y52288000D01*
X70211998Y52288001D01*
X69586311Y52163543D01*
X69055878Y51809120D01*
X69055876Y51809117D01*
X68173758Y50927000D01*
X66147949Y50927000D01*
X66280827Y51059647D01*
X66484268Y51549587D01*
X66484731Y52080086D01*
X66282146Y52570380D01*
X65907353Y52945827D01*
X65417413Y53149268D01*
X64886914Y53149731D01*
X64396620Y52947146D01*
X64021173Y52572353D01*
X63817732Y52082413D01*
X63817269Y51551914D01*
X64019854Y51061620D01*
X64154240Y50927000D01*
X60706000Y50927000D01*
X60661480Y50918941D01*
X60618713Y50892249D01*
X60589700Y50851022D01*
X60579012Y50801754D01*
X60588334Y50752211D01*
X60616197Y50710197D01*
X60960000Y50366394D01*
X60960000Y48103878D01*
X60935069Y48067390D01*
X60884060Y47815500D01*
X60884060Y47575300D01*
X60790760Y47482000D01*
X52197000Y47482000D01*
X51571313Y47357543D01*
X51040880Y47003120D01*
X50686457Y46472687D01*
X50562000Y45847000D01*
X50686457Y45221313D01*
X51040880Y44690880D01*
X51571313Y44336457D01*
X52197000Y44212000D01*
X56065392Y44212000D01*
X56123783Y44153609D01*
X55875024Y44076344D01*
X55677660Y43529869D01*
X55704447Y42949465D01*
X55875024Y42537656D01*
X56123785Y42460390D01*
X56970395Y43307000D01*
X56956253Y43321142D01*
X57135858Y43500747D01*
X57150000Y43486605D01*
X57164143Y43500747D01*
X57343748Y43321142D01*
X57329605Y43307000D01*
X58176215Y42460390D01*
X58424976Y42537656D01*
X58622340Y43084131D01*
X58595553Y43664535D01*
X58424976Y44076344D01*
X58176217Y44153609D01*
X58234608Y44212000D01*
X60960000Y44212000D01*
X60960000Y39777239D01*
X58613629Y37430869D01*
X58595553Y37822535D01*
X58424976Y38234344D01*
X58176215Y38311610D01*
X57329605Y37465000D01*
X57343748Y37450857D01*
X57164143Y37271252D01*
X57150000Y37285395D01*
X57135858Y37271252D01*
X56956253Y37450857D01*
X56970395Y37465000D01*
X56123785Y38311610D01*
X55875024Y38234344D01*
X55677660Y37687869D01*
X55704447Y37107465D01*
X55875024Y36695656D01*
X56123783Y36618391D01*
X56065392Y36560000D01*
X52197000Y36560000D01*
X51571313Y36435543D01*
X51040880Y36081120D01*
X50686457Y35550687D01*
X50562000Y34925000D01*
X50686457Y34299313D01*
X51040880Y33768880D01*
X51571313Y33414457D01*
X52197000Y33290000D01*
X58419995Y33290000D01*
X58420000Y33289999D01*
X59045688Y33414457D01*
X59576120Y33768880D01*
X60214025Y34406785D01*
X71797390Y34406785D01*
X71874656Y34158024D01*
X72421131Y33960660D01*
X73001535Y33987447D01*
X73413344Y34158024D01*
X73490610Y34406785D01*
X72644000Y35253395D01*
X71797390Y34406785D01*
X60214025Y34406785D01*
X60960000Y35152760D01*
X60960000Y34925000D01*
X60968685Y34878841D01*
X60995965Y34836447D01*
X61037590Y34808006D01*
X61087000Y34798000D01*
X68834000Y34798000D01*
X68880159Y34806685D01*
X68922553Y34833965D01*
X68950994Y34875590D01*
X68961000Y34925000D01*
X68961000Y35655869D01*
X71171660Y35655869D01*
X71198447Y35075465D01*
X71369024Y34663656D01*
X71617785Y34586390D01*
X72464395Y35433000D01*
X71617785Y36279610D01*
X71369024Y36202344D01*
X71171660Y35655869D01*
X68961000Y35655869D01*
X68961000Y36459215D01*
X71797390Y36459215D01*
X72644000Y35612605D01*
X73490610Y36459215D01*
X73413344Y36707976D01*
X72866869Y36905340D01*
X72286465Y36878553D01*
X71874656Y36707976D01*
X71797390Y36459215D01*
X68961000Y36459215D01*
X68961000Y37227000D01*
X70464995Y37227000D01*
X70465000Y37226999D01*
X71090688Y37351457D01*
X71621120Y37705880D01*
X71924240Y38009000D01*
X72517000Y38009000D01*
X73142687Y38133457D01*
X73673120Y38487880D01*
X73687232Y38509000D01*
X73929030Y38509000D01*
X74363376Y38595397D01*
X74731596Y38841434D01*
X75124596Y39234433D01*
X75328074Y39538960D01*
X75728021Y39698287D01*
X75732871Y39701433D01*
X75738541Y39702561D01*
X75869357Y39789970D01*
X75884000Y39799468D01*
X75884000Y39696419D01*
X75786397Y39550346D01*
X75700000Y39116000D01*
X75700000Y38254231D01*
X75678881Y38240120D01*
X74341502Y36902742D01*
X74123183Y36861662D01*
X73907059Y36722590D01*
X73762069Y36510390D01*
X73712665Y36266425D01*
X73670215Y36279610D01*
X72823605Y35433000D01*
X73670215Y34586390D01*
X73712557Y34599542D01*
X73755338Y34372183D01*
X73894410Y34156059D01*
X74106610Y34011069D01*
X74358500Y33960060D01*
X74502035Y33960060D01*
X74558312Y33922457D01*
X75184000Y33797999D01*
X75809688Y33922457D01*
X75865965Y33960060D01*
X76009500Y33960060D01*
X76244817Y34004338D01*
X76460941Y34143410D01*
X76605931Y34355610D01*
X76653436Y34590196D01*
X77888489Y35825250D01*
X81465000Y35825250D01*
X81465000Y35384691D01*
X81561673Y35151302D01*
X81740301Y34972673D01*
X81973690Y34876000D01*
X82264250Y34876000D01*
X82423000Y35034750D01*
X82423000Y35984000D01*
X81623750Y35984000D01*
X81465000Y35825250D01*
X77888489Y35825250D01*
X77991120Y35927881D01*
X78345543Y36458313D01*
X78470001Y37084000D01*
X78345543Y37709688D01*
X77991120Y38240120D01*
X77970000Y38254232D01*
X77970000Y39116000D01*
X77883603Y39550346D01*
X77637566Y39918566D01*
X77554000Y39974403D01*
X77554000Y40089560D01*
X77594000Y40089560D01*
X77697671Y40109067D01*
X77794000Y40089560D01*
X77883219Y40089560D01*
X77897561Y40017459D01*
X77992354Y39875592D01*
X78078566Y39746566D01*
X78747838Y39077294D01*
X78750006Y39066590D01*
X78778447Y39024965D01*
X78820841Y38997685D01*
X78828978Y38996154D01*
X80104566Y37720566D01*
X80375460Y37539560D01*
X80695000Y37476000D01*
X81496778Y37476000D01*
X81496838Y37475683D01*
X81635910Y37259559D01*
X81704006Y37213031D01*
X81561673Y37070698D01*
X81465000Y36837309D01*
X81465000Y36396750D01*
X81623750Y36238000D01*
X82423000Y36238000D01*
X82423000Y36258000D01*
X82677000Y36258000D01*
X82677000Y36238000D01*
X82697000Y36238000D01*
X82697000Y35984000D01*
X82677000Y35984000D01*
X82677000Y35034750D01*
X82835750Y34876000D01*
X83126310Y34876000D01*
X83359699Y34972673D01*
X83538327Y35151302D01*
X83565955Y35218002D01*
X83658000Y35074960D01*
X83658000Y34461025D01*
X83652698Y34466327D01*
X83419309Y34563000D01*
X83178750Y34563000D01*
X83020000Y34404250D01*
X83020000Y33655000D01*
X83040000Y33655000D01*
X83040000Y33401000D01*
X83020000Y33401000D01*
X83020000Y33381000D01*
X82766000Y33381000D01*
X82766000Y33401000D01*
X82016750Y33401000D01*
X81858000Y33242250D01*
X81858000Y33001690D01*
X81954673Y32768301D01*
X82133302Y32589673D01*
X82320821Y32512000D01*
X79609949Y32512000D01*
X79742827Y32644647D01*
X79946268Y33134587D01*
X79946731Y33665086D01*
X79785908Y34054310D01*
X81858000Y34054310D01*
X81858000Y33813750D01*
X82016750Y33655000D01*
X82766000Y33655000D01*
X82766000Y34404250D01*
X82607250Y34563000D01*
X82366691Y34563000D01*
X82133302Y34466327D01*
X81954673Y34287699D01*
X81858000Y34054310D01*
X79785908Y34054310D01*
X79744146Y34155380D01*
X79369353Y34530827D01*
X78879413Y34734268D01*
X78348914Y34734731D01*
X77858620Y34532146D01*
X77483173Y34157353D01*
X77279732Y33667413D01*
X77279269Y33136914D01*
X77481854Y32646620D01*
X77616240Y32512000D01*
X41174240Y32512000D01*
X40396240Y33290000D01*
X44577000Y33290000D01*
X45202687Y33414457D01*
X45733120Y33768880D01*
X46087543Y34299313D01*
X46212000Y34925000D01*
X46087543Y35550687D01*
X45733120Y36081120D01*
X45202687Y36435543D01*
X44577000Y36560000D01*
X40962608Y36560000D01*
X40904217Y36618391D01*
X41152976Y36695656D01*
X41350340Y37242131D01*
X41323553Y37822535D01*
X41152976Y38234344D01*
X40904215Y38311610D01*
X40057605Y37465000D01*
X40071748Y37450857D01*
X39892143Y37271252D01*
X39878000Y37285395D01*
X39863858Y37271252D01*
X39684253Y37450857D01*
X39698395Y37465000D01*
X39684253Y37479142D01*
X39863858Y37658747D01*
X39878000Y37644605D01*
X40724610Y38491215D01*
X56303390Y38491215D01*
X57150000Y37644605D01*
X57996610Y38491215D01*
X57919344Y38739976D01*
X57372869Y38937340D01*
X56792465Y38910553D01*
X56380656Y38739976D01*
X56303390Y38491215D01*
X40724610Y38491215D01*
X40647344Y38739976D01*
X40100869Y38937340D01*
X39520465Y38910553D01*
X39227000Y38788996D01*
X39227000Y41989283D01*
X39655131Y41834660D01*
X40235535Y41861447D01*
X40647344Y42032024D01*
X40724610Y42280785D01*
X56303390Y42280785D01*
X56380656Y42032024D01*
X56927131Y41834660D01*
X57507535Y41861447D01*
X57919344Y42032024D01*
X57996610Y42280785D01*
X57150000Y43127395D01*
X56303390Y42280785D01*
X40724610Y42280785D01*
X39878000Y43127395D01*
X39863858Y43113252D01*
X39684253Y43292857D01*
X39698395Y43307000D01*
X39684253Y43321142D01*
X39863858Y43500747D01*
X39878000Y43486605D01*
X39892143Y43500747D01*
X40071748Y43321142D01*
X40057605Y43307000D01*
X40904215Y42460390D01*
X41152976Y42537656D01*
X41350340Y43084131D01*
X41323553Y43664535D01*
X41152976Y44076344D01*
X40904217Y44153609D01*
X40962608Y44212000D01*
X44577000Y44212000D01*
X45202687Y44336457D01*
X45733120Y44690880D01*
X46087543Y45221313D01*
X46212000Y45847000D01*
X46087543Y46472687D01*
X45733120Y47003120D01*
X45202687Y47357543D01*
X44577000Y47482000D01*
X43291000Y47482000D01*
X43291000Y54426804D01*
X44827409Y54426804D01*
X44912467Y54171461D01*
X45481965Y53963484D01*
X46087700Y53989277D01*
X46527533Y54171461D01*
X46612591Y54426804D01*
X45720000Y55319395D01*
X44827409Y54426804D01*
X43291000Y54426804D01*
X43291000Y55737035D01*
X44184484Y55737035D01*
X44210277Y55131300D01*
X44392461Y54691467D01*
X44647804Y54606409D01*
X45540395Y55499000D01*
X45899605Y55499000D01*
X46792196Y54606409D01*
X47047539Y54691467D01*
X47255516Y55260965D01*
X47229723Y55866700D01*
X47047539Y56306533D01*
X46792196Y56391591D01*
X45899605Y55499000D01*
X45540395Y55499000D01*
X44647804Y56391591D01*
X44392461Y56306533D01*
X44184484Y55737035D01*
X43291000Y55737035D01*
X43291000Y56571196D01*
X44827409Y56571196D01*
X45720000Y55678605D01*
X46612591Y56571196D01*
X46527533Y56826539D01*
X45958035Y57034516D01*
X45352300Y57008723D01*
X44912467Y56826539D01*
X44827409Y56571196D01*
X43291000Y56571196D01*
X43291000Y57869760D01*
X44365240Y58944000D01*
X45720000Y58944000D01*
X46215494Y59042560D01*
X46609000Y59042560D01*
X46844317Y59086838D01*
X47060441Y59225910D01*
X47205431Y59438110D01*
X47256440Y59690000D01*
X47256440Y60083506D01*
X47329738Y60452000D01*
X51181000Y60452000D01*
X51181000Y52451000D01*
X51189685Y52404841D01*
X51216965Y52362447D01*
X51258590Y52334006D01*
X51308000Y52324000D01*
X56298048Y52324000D01*
X56197732Y52082413D01*
X56197269Y51551914D01*
X56399854Y51061620D01*
X56774647Y50686173D01*
X57264587Y50482732D01*
X57795086Y50482269D01*
X58285380Y50684854D01*
X58660827Y51059647D01*
X58864268Y51549587D01*
X58864731Y52080086D01*
X58763948Y52324000D01*
X59436000Y52324000D01*
X59482159Y52332685D01*
X59524553Y52359965D01*
X59552994Y52401590D01*
X59563000Y52451000D01*
X59563000Y56959500D01*
X63932060Y56959500D01*
X63932060Y55308500D01*
X63976338Y55073183D01*
X64115410Y54857059D01*
X64327610Y54712069D01*
X64579500Y54661060D01*
X66230500Y54661060D01*
X66465817Y54705338D01*
X66681941Y54844410D01*
X66826931Y55056610D01*
X66877940Y55308500D01*
X66877940Y56959500D01*
X66833662Y57194817D01*
X66694590Y57410941D01*
X66482390Y57555931D01*
X66238425Y57605335D01*
X66251610Y57647785D01*
X65405000Y58494395D01*
X64558390Y57647785D01*
X64571542Y57605443D01*
X64344183Y57562662D01*
X64128059Y57423590D01*
X63983069Y57211390D01*
X63932060Y56959500D01*
X59563000Y56959500D01*
X59563000Y58896869D01*
X63932660Y58896869D01*
X63959447Y58316465D01*
X64130024Y57904656D01*
X64378785Y57827390D01*
X65225395Y58674000D01*
X65584605Y58674000D01*
X66431215Y57827390D01*
X66679976Y57904656D01*
X66877340Y58451131D01*
X66850553Y59031535D01*
X66679976Y59443344D01*
X66431215Y59520610D01*
X65584605Y58674000D01*
X65225395Y58674000D01*
X64378785Y59520610D01*
X64130024Y59443344D01*
X63932660Y58896869D01*
X59563000Y58896869D01*
X59563000Y59700215D01*
X64558390Y59700215D01*
X65405000Y58853605D01*
X66251610Y59700215D01*
X66174344Y59948976D01*
X65627869Y60146340D01*
X65047465Y60119553D01*
X64635656Y59948976D01*
X64558390Y59700215D01*
X59563000Y59700215D01*
X59563000Y60452000D01*
X59554315Y60498159D01*
X59527035Y60540553D01*
X59485410Y60568994D01*
X59436000Y60579000D01*
X58967463Y60579000D01*
X59100838Y60900201D01*
X59101162Y61272167D01*
X58959117Y61615943D01*
X58926000Y61649118D01*
X58926000Y64262000D01*
X58868148Y64552839D01*
X58703401Y64799401D01*
X58456839Y64964148D01*
X58166000Y65022000D01*
X57875161Y64964148D01*
X57628599Y64799401D01*
X57463852Y64552839D01*
X57406000Y64262000D01*
X57406000Y61649463D01*
X57373808Y61617327D01*
X57231162Y61273799D01*
X57230838Y60901833D01*
X57364230Y60579000D01*
X56612878Y60579000D01*
X56576390Y60603931D01*
X56324500Y60654940D01*
X54419500Y60654940D01*
X54184183Y60610662D01*
X54134979Y60579000D01*
X51308000Y60579000D01*
X51261841Y60570315D01*
X51219447Y60543035D01*
X51191006Y60501410D01*
X51181000Y60452000D01*
X47329738Y60452000D01*
X47355000Y60579000D01*
X47256440Y61074494D01*
X47256440Y61468000D01*
X47212162Y61703317D01*
X47073090Y61919441D01*
X46860890Y62064431D01*
X46609000Y62115440D01*
X46215494Y62115440D01*
X45720000Y62214000D01*
X43688005Y62214000D01*
X43688000Y62214001D01*
X43687995Y62214000D01*
X39878005Y62214000D01*
X39878000Y62214001D01*
X39877995Y62214000D01*
X36195000Y62214000D01*
X36195000Y69648000D01*
X70103533Y69648000D01*
X70073808Y69618327D01*
G36*
X72635235Y48060355D02*
X73052244Y47887197D01*
X73503775Y47886803D01*
X73821769Y48018196D01*
X73857431Y47994367D01*
X73896560Y47986584D01*
X73896560Y47937000D01*
X73940838Y47701683D01*
X74079910Y47485559D01*
X74292110Y47340569D01*
X74544000Y47289560D01*
X74994000Y47289560D01*
X75097671Y47309067D01*
X75194000Y47289560D01*
X75644000Y47289560D01*
X75715323Y47302980D01*
X75717690Y47302000D01*
X75797750Y47302000D01*
X75818062Y47322312D01*
X75879317Y47333838D01*
X76073916Y47459059D01*
X76134301Y47398673D01*
X76320847Y47321403D01*
X76340250Y47302000D01*
X76447750Y47302000D01*
X76467153Y47321403D01*
X76591998Y47373116D01*
X76591998Y47302000D01*
X76613104Y47302000D01*
X76622560Y47254460D01*
X76639998Y47228362D01*
X76550808Y47139327D01*
X76408162Y46795799D01*
X76407838Y46423833D01*
X76549883Y46080057D01*
X76812673Y45816808D01*
X76835000Y45807537D01*
X76835000Y44415246D01*
X76687057Y44354117D01*
X76423808Y44091327D01*
X76281162Y43747799D01*
X76280838Y43375833D01*
X76385719Y43122000D01*
X76340250Y43122000D01*
X76319938Y43101688D01*
X76258683Y43090162D01*
X76066773Y42966671D01*
X75895890Y43083431D01*
X75821192Y43098558D01*
X75797750Y43122000D01*
X75717690Y43122000D01*
X75713665Y43120333D01*
X75644000Y43134440D01*
X75194000Y43134440D01*
X75090329Y43114933D01*
X74994000Y43134440D01*
X74544000Y43134440D01*
X74308683Y43090162D01*
X74092559Y42951090D01*
X73973219Y42776430D01*
X73632756Y42917803D01*
X73181225Y42918197D01*
X72763914Y42745767D01*
X72444355Y42426765D01*
X72271197Y42009756D01*
X72270803Y41558225D01*
X72386177Y41279000D01*
X71247005Y41279000D01*
X71247000Y41279001D01*
X71246995Y41279000D01*
X71110000Y41279000D01*
X71110000Y41858250D01*
X70951250Y42017000D01*
X69977000Y42017000D01*
X69977000Y41997000D01*
X69723000Y41997000D01*
X69723000Y42017000D01*
X69703000Y42017000D01*
X69703000Y42271000D01*
X69723000Y42271000D01*
X69723000Y43370250D01*
X69977000Y43370250D01*
X69977000Y42271000D01*
X70951250Y42271000D01*
X71110000Y42429750D01*
X71110000Y43020309D01*
X71013327Y43253698D01*
X70834699Y43432327D01*
X70601310Y43529000D01*
X70135750Y43529000D01*
X69977000Y43370250D01*
X69723000Y43370250D01*
X69564250Y43529000D01*
X69098690Y43529000D01*
X68961000Y43471967D01*
X68961000Y45947760D01*
X69672619Y46659379D01*
X70024539Y47186065D01*
X70083673Y47043302D01*
X70262301Y46864673D01*
X70495690Y46768000D01*
X70961250Y46768000D01*
X71120000Y46926750D01*
X71120000Y48026000D01*
X71374000Y48026000D01*
X71374000Y46926750D01*
X71532750Y46768000D01*
X71998310Y46768000D01*
X72231699Y46864673D01*
X72410327Y47043302D01*
X72507000Y47276691D01*
X72507000Y47867250D01*
X72348250Y48026000D01*
X71374000Y48026000D01*
X71120000Y48026000D01*
X71100000Y48026000D01*
X71100000Y48280000D01*
X71120000Y48280000D01*
X71120000Y48300000D01*
X71374000Y48300000D01*
X71374000Y48280000D01*
X72348250Y48280000D01*
X72382141Y48313891D01*
X72635235Y48060355D01*
X72635235Y48060355D01*
G37*
X72635235Y48060355D02*
X73052244Y47887197D01*
X73503775Y47886803D01*
X73821769Y48018196D01*
X73857431Y47994367D01*
X73896560Y47986584D01*
X73896560Y47937000D01*
X73940838Y47701683D01*
X74079910Y47485559D01*
X74292110Y47340569D01*
X74544000Y47289560D01*
X74994000Y47289560D01*
X75097671Y47309067D01*
X75194000Y47289560D01*
X75644000Y47289560D01*
X75715323Y47302980D01*
X75717690Y47302000D01*
X75797750Y47302000D01*
X75818062Y47322312D01*
X75879317Y47333838D01*
X76073916Y47459059D01*
X76134301Y47398673D01*
X76320847Y47321403D01*
X76340250Y47302000D01*
X76447750Y47302000D01*
X76467153Y47321403D01*
X76591998Y47373116D01*
X76591998Y47302000D01*
X76613104Y47302000D01*
X76622560Y47254460D01*
X76639998Y47228362D01*
X76550808Y47139327D01*
X76408162Y46795799D01*
X76407838Y46423833D01*
X76549883Y46080057D01*
X76812673Y45816808D01*
X76835000Y45807537D01*
X76835000Y44415246D01*
X76687057Y44354117D01*
X76423808Y44091327D01*
X76281162Y43747799D01*
X76280838Y43375833D01*
X76385719Y43122000D01*
X76340250Y43122000D01*
X76319938Y43101688D01*
X76258683Y43090162D01*
X76066773Y42966671D01*
X75895890Y43083431D01*
X75821192Y43098558D01*
X75797750Y43122000D01*
X75717690Y43122000D01*
X75713665Y43120333D01*
X75644000Y43134440D01*
X75194000Y43134440D01*
X75090329Y43114933D01*
X74994000Y43134440D01*
X74544000Y43134440D01*
X74308683Y43090162D01*
X74092559Y42951090D01*
X73973219Y42776430D01*
X73632756Y42917803D01*
X73181225Y42918197D01*
X72763914Y42745767D01*
X72444355Y42426765D01*
X72271197Y42009756D01*
X72270803Y41558225D01*
X72386177Y41279000D01*
X71247005Y41279000D01*
X71247000Y41279001D01*
X71246995Y41279000D01*
X71110000Y41279000D01*
X71110000Y41858250D01*
X70951250Y42017000D01*
X69977000Y42017000D01*
X69977000Y41997000D01*
X69723000Y41997000D01*
X69723000Y42017000D01*
X69703000Y42017000D01*
X69703000Y42271000D01*
X69723000Y42271000D01*
X69723000Y43370250D01*
X69977000Y43370250D01*
X69977000Y42271000D01*
X70951250Y42271000D01*
X71110000Y42429750D01*
X71110000Y43020309D01*
X71013327Y43253698D01*
X70834699Y43432327D01*
X70601310Y43529000D01*
X70135750Y43529000D01*
X69977000Y43370250D01*
X69723000Y43370250D01*
X69564250Y43529000D01*
X69098690Y43529000D01*
X68961000Y43471967D01*
X68961000Y45947760D01*
X69672619Y46659379D01*
X70024539Y47186065D01*
X70083673Y47043302D01*
X70262301Y46864673D01*
X70495690Y46768000D01*
X70961250Y46768000D01*
X71120000Y46926750D01*
X71120000Y48026000D01*
X71374000Y48026000D01*
X71374000Y46926750D01*
X71532750Y46768000D01*
X71998310Y46768000D01*
X72231699Y46864673D01*
X72410327Y47043302D01*
X72507000Y47276691D01*
X72507000Y47867250D01*
X72348250Y48026000D01*
X71374000Y48026000D01*
X71120000Y48026000D01*
X71100000Y48026000D01*
X71100000Y48280000D01*
X71120000Y48280000D01*
X71120000Y48300000D01*
X71374000Y48300000D01*
X71374000Y48280000D01*
X72348250Y48280000D01*
X72382141Y48313891D01*
X72635235Y48060355D01*
G36*
X84074000Y67661878D02*
X84049069Y67625390D01*
X83998060Y67373500D01*
X83998060Y65468500D01*
X84042338Y65233183D01*
X84074000Y65183979D01*
X84074000Y62484000D01*
X84082685Y62437841D01*
X84109965Y62395447D01*
X84151590Y62367006D01*
X84201000Y62357000D01*
X92075000Y62357000D01*
X92121159Y62365685D01*
X92163553Y62392965D01*
X92191994Y62434590D01*
X92202000Y62484000D01*
X92202000Y65951581D01*
X92265224Y66103841D01*
X92265775Y66735388D01*
X92202000Y66889735D01*
X92202000Y69648000D01*
X93126447Y69648000D01*
X92678269Y69200604D01*
X92238062Y68140467D01*
X92237060Y66992569D01*
X92675417Y65931665D01*
X93486396Y65119269D01*
X94546533Y64679062D01*
X95694431Y64678060D01*
X96755335Y65116417D01*
X97080000Y65440516D01*
X97080000Y38354000D01*
X86614000Y38354000D01*
X86614000Y39650560D01*
X87464000Y39650560D01*
X87699317Y39694838D01*
X87915441Y39833910D01*
X88060431Y40046110D01*
X88111440Y40298000D01*
X88111440Y40388000D01*
X89736000Y40388000D01*
X90026839Y40445852D01*
X90273401Y40610599D01*
X91012800Y41349998D01*
X91036298Y41340241D01*
X91092676Y41340192D01*
X92087434Y40345434D01*
X92455654Y40099397D01*
X92890000Y40013000D01*
X94633105Y40013000D01*
X95110587Y39814732D01*
X95641086Y39814269D01*
X96131380Y40016854D01*
X96506827Y40391647D01*
X96710268Y40881587D01*
X96710731Y41412086D01*
X96508146Y41902380D01*
X96133353Y42277827D01*
X95643413Y42481268D01*
X95112914Y42481731D01*
X94631947Y42283000D01*
X93360132Y42283000D01*
X92698193Y42944939D01*
X92698240Y42999285D01*
X92487831Y43508515D01*
X92098564Y43898461D01*
X91589702Y44109759D01*
X91038715Y44110240D01*
X90529485Y43899831D01*
X90139539Y43510564D01*
X89928241Y43001702D01*
X89927760Y42450715D01*
X89938330Y42425132D01*
X89421198Y41908000D01*
X88111440Y41908000D01*
X88111440Y41998000D01*
X88067162Y42233317D01*
X87928090Y42449441D01*
X87715890Y42594431D01*
X87607893Y42616301D01*
X87885645Y42921076D01*
X88055476Y43331110D01*
X87934155Y43561000D01*
X86741000Y43561000D01*
X86741000Y43541000D01*
X86487000Y43541000D01*
X86487000Y43561000D01*
X85293845Y43561000D01*
X85172524Y43331110D01*
X85342355Y42921076D01*
X85618501Y42618063D01*
X85528683Y42601162D01*
X85312559Y42462090D01*
X85167569Y42249890D01*
X85116560Y41998000D01*
X85116560Y41908000D01*
X84091440Y41908000D01*
X84091440Y42487000D01*
X84047162Y42722317D01*
X83908090Y42938441D01*
X83695890Y43083431D01*
X83444000Y43134440D01*
X82994000Y43134440D01*
X82890329Y43114933D01*
X82794000Y43134440D01*
X82344000Y43134440D01*
X82240329Y43114933D01*
X82144000Y43134440D01*
X82104000Y43134440D01*
X82104000Y44044890D01*
X85172524Y44044890D01*
X85293845Y43815000D01*
X86487000Y43815000D01*
X86487000Y45008819D01*
X86741000Y45008819D01*
X86741000Y43815000D01*
X87934155Y43815000D01*
X88055476Y44044890D01*
X87885645Y44454924D01*
X87495358Y44883183D01*
X86970892Y45129486D01*
X86741000Y45008819D01*
X86487000Y45008819D01*
X86257108Y45129486D01*
X85732642Y44883183D01*
X85342355Y44454924D01*
X85172524Y44044890D01*
X82104000Y44044890D01*
X82104000Y45065000D01*
X82040439Y45384541D01*
X81859434Y45655434D01*
X81008758Y46506110D01*
X85172524Y46506110D01*
X85342355Y46096076D01*
X85732642Y45667817D01*
X86257108Y45421514D01*
X86487000Y45542181D01*
X86487000Y46736000D01*
X86741000Y46736000D01*
X86741000Y45542181D01*
X86970892Y45421514D01*
X87495358Y45667817D01*
X87885645Y46096076D01*
X88055476Y46506110D01*
X87934155Y46736000D01*
X86741000Y46736000D01*
X86487000Y46736000D01*
X85293845Y46736000D01*
X85172524Y46506110D01*
X81008758Y46506110D01*
X80821433Y46693435D01*
X80628372Y46822434D01*
X80550540Y46874440D01*
X80298131Y46924647D01*
X80295117Y46931943D01*
X80154000Y47073306D01*
X80154000Y47338161D01*
X80216808Y47325442D01*
X80240250Y47302000D01*
X80320310Y47302000D01*
X80324335Y47303667D01*
X80394000Y47289560D01*
X80844000Y47289560D01*
X80915323Y47302980D01*
X80917690Y47302000D01*
X80997750Y47302000D01*
X81018062Y47322312D01*
X81079317Y47333838D01*
X81271227Y47457329D01*
X81442110Y47340569D01*
X81516808Y47325442D01*
X81540250Y47302000D01*
X81620310Y47302000D01*
X81624335Y47303667D01*
X81694000Y47289560D01*
X82144000Y47289560D01*
X82247671Y47309067D01*
X82344000Y47289560D01*
X82794000Y47289560D01*
X82897671Y47309067D01*
X82994000Y47289560D01*
X83444000Y47289560D01*
X83679317Y47333838D01*
X83895441Y47472910D01*
X84040431Y47685110D01*
X84091440Y47937000D01*
X84091440Y48609638D01*
X84124802Y48643000D01*
X85116560Y48643000D01*
X85116560Y48553000D01*
X85160838Y48317683D01*
X85299910Y48101559D01*
X85512110Y47956569D01*
X85620107Y47934699D01*
X85342355Y47629924D01*
X85172524Y47219890D01*
X85293845Y46990000D01*
X86487000Y46990000D01*
X86487000Y47010000D01*
X86741000Y47010000D01*
X86741000Y46990000D01*
X87934155Y46990000D01*
X88055476Y47219890D01*
X87885645Y47629924D01*
X87609499Y47932937D01*
X87699317Y47949838D01*
X87915441Y48088910D01*
X88060431Y48301110D01*
X88111440Y48553000D01*
X88111440Y48643000D01*
X89220198Y48643000D01*
X89937998Y47925200D01*
X89928241Y47901702D01*
X89927760Y47350715D01*
X90138169Y46841485D01*
X90527436Y46451539D01*
X91036298Y46240241D01*
X91587285Y46239760D01*
X92096515Y46450169D01*
X92486461Y46839436D01*
X92697759Y47348298D01*
X92697808Y47404676D01*
X92926132Y47633000D01*
X94633105Y47633000D01*
X95110587Y47434732D01*
X95641086Y47434269D01*
X96131380Y47636854D01*
X96506827Y48011647D01*
X96710268Y48501587D01*
X96710731Y49032086D01*
X96508146Y49522380D01*
X96133353Y49897827D01*
X95643413Y50101268D01*
X95112914Y50101731D01*
X94631947Y49903000D01*
X92456000Y49903000D01*
X92021654Y49816603D01*
X91739390Y49628000D01*
X91653434Y49570566D01*
X91093061Y49010193D01*
X91038715Y49010240D01*
X91013132Y48999670D01*
X90072401Y49940401D01*
X89825839Y50105148D01*
X89535000Y50163000D01*
X88111440Y50163000D01*
X88111440Y50253000D01*
X88067162Y50488317D01*
X87928090Y50704441D01*
X87715890Y50849431D01*
X87464000Y50900440D01*
X85764000Y50900440D01*
X85528683Y50856162D01*
X85312559Y50717090D01*
X85167569Y50504890D01*
X85116560Y50253000D01*
X85116560Y50163000D01*
X83872147Y50163000D01*
X83695890Y50283431D01*
X83444000Y50334440D01*
X82994000Y50334440D01*
X82890329Y50314933D01*
X82794000Y50334440D01*
X82344000Y50334440D01*
X82240329Y50314933D01*
X82144000Y50334440D01*
X81694000Y50334440D01*
X81622677Y50321020D01*
X81620310Y50322000D01*
X81540250Y50322000D01*
X81519938Y50301688D01*
X81458683Y50290162D01*
X81266773Y50166671D01*
X81095890Y50283431D01*
X81021192Y50298558D01*
X80997750Y50322000D01*
X80917690Y50322000D01*
X80913665Y50320333D01*
X80844000Y50334440D01*
X80518000Y50334440D01*
X80518000Y63423305D01*
X80525086Y63426233D01*
X80844645Y63745235D01*
X81017803Y64162244D01*
X81018197Y64613775D01*
X80845767Y65031086D01*
X80526765Y65350645D01*
X80518000Y65354285D01*
X80518000Y67717141D01*
X80563940Y67944000D01*
X80563940Y69648000D01*
X84074000Y69648000D01*
X84074000Y67661878D01*
X84074000Y67661878D01*
G37*
X84074000Y67661878D02*
X84049069Y67625390D01*
X83998060Y67373500D01*
X83998060Y65468500D01*
X84042338Y65233183D01*
X84074000Y65183979D01*
X84074000Y62484000D01*
X84082685Y62437841D01*
X84109965Y62395447D01*
X84151590Y62367006D01*
X84201000Y62357000D01*
X92075000Y62357000D01*
X92121159Y62365685D01*
X92163553Y62392965D01*
X92191994Y62434590D01*
X92202000Y62484000D01*
X92202000Y65951581D01*
X92265224Y66103841D01*
X92265775Y66735388D01*
X92202000Y66889735D01*
X92202000Y69648000D01*
X93126447Y69648000D01*
X92678269Y69200604D01*
X92238062Y68140467D01*
X92237060Y66992569D01*
X92675417Y65931665D01*
X93486396Y65119269D01*
X94546533Y64679062D01*
X95694431Y64678060D01*
X96755335Y65116417D01*
X97080000Y65440516D01*
X97080000Y38354000D01*
X86614000Y38354000D01*
X86614000Y39650560D01*
X87464000Y39650560D01*
X87699317Y39694838D01*
X87915441Y39833910D01*
X88060431Y40046110D01*
X88111440Y40298000D01*
X88111440Y40388000D01*
X89736000Y40388000D01*
X90026839Y40445852D01*
X90273401Y40610599D01*
X91012800Y41349998D01*
X91036298Y41340241D01*
X91092676Y41340192D01*
X92087434Y40345434D01*
X92455654Y40099397D01*
X92890000Y40013000D01*
X94633105Y40013000D01*
X95110587Y39814732D01*
X95641086Y39814269D01*
X96131380Y40016854D01*
X96506827Y40391647D01*
X96710268Y40881587D01*
X96710731Y41412086D01*
X96508146Y41902380D01*
X96133353Y42277827D01*
X95643413Y42481268D01*
X95112914Y42481731D01*
X94631947Y42283000D01*
X93360132Y42283000D01*
X92698193Y42944939D01*
X92698240Y42999285D01*
X92487831Y43508515D01*
X92098564Y43898461D01*
X91589702Y44109759D01*
X91038715Y44110240D01*
X90529485Y43899831D01*
X90139539Y43510564D01*
X89928241Y43001702D01*
X89927760Y42450715D01*
X89938330Y42425132D01*
X89421198Y41908000D01*
X88111440Y41908000D01*
X88111440Y41998000D01*
X88067162Y42233317D01*
X87928090Y42449441D01*
X87715890Y42594431D01*
X87607893Y42616301D01*
X87885645Y42921076D01*
X88055476Y43331110D01*
X87934155Y43561000D01*
X86741000Y43561000D01*
X86741000Y43541000D01*
X86487000Y43541000D01*
X86487000Y43561000D01*
X85293845Y43561000D01*
X85172524Y43331110D01*
X85342355Y42921076D01*
X85618501Y42618063D01*
X85528683Y42601162D01*
X85312559Y42462090D01*
X85167569Y42249890D01*
X85116560Y41998000D01*
X85116560Y41908000D01*
X84091440Y41908000D01*
X84091440Y42487000D01*
X84047162Y42722317D01*
X83908090Y42938441D01*
X83695890Y43083431D01*
X83444000Y43134440D01*
X82994000Y43134440D01*
X82890329Y43114933D01*
X82794000Y43134440D01*
X82344000Y43134440D01*
X82240329Y43114933D01*
X82144000Y43134440D01*
X82104000Y43134440D01*
X82104000Y44044890D01*
X85172524Y44044890D01*
X85293845Y43815000D01*
X86487000Y43815000D01*
X86487000Y45008819D01*
X86741000Y45008819D01*
X86741000Y43815000D01*
X87934155Y43815000D01*
X88055476Y44044890D01*
X87885645Y44454924D01*
X87495358Y44883183D01*
X86970892Y45129486D01*
X86741000Y45008819D01*
X86487000Y45008819D01*
X86257108Y45129486D01*
X85732642Y44883183D01*
X85342355Y44454924D01*
X85172524Y44044890D01*
X82104000Y44044890D01*
X82104000Y45065000D01*
X82040439Y45384541D01*
X81859434Y45655434D01*
X81008758Y46506110D01*
X85172524Y46506110D01*
X85342355Y46096076D01*
X85732642Y45667817D01*
X86257108Y45421514D01*
X86487000Y45542181D01*
X86487000Y46736000D01*
X86741000Y46736000D01*
X86741000Y45542181D01*
X86970892Y45421514D01*
X87495358Y45667817D01*
X87885645Y46096076D01*
X88055476Y46506110D01*
X87934155Y46736000D01*
X86741000Y46736000D01*
X86487000Y46736000D01*
X85293845Y46736000D01*
X85172524Y46506110D01*
X81008758Y46506110D01*
X80821433Y46693435D01*
X80628372Y46822434D01*
X80550540Y46874440D01*
X80298131Y46924647D01*
X80295117Y46931943D01*
X80154000Y47073306D01*
X80154000Y47338161D01*
X80216808Y47325442D01*
X80240250Y47302000D01*
X80320310Y47302000D01*
X80324335Y47303667D01*
X80394000Y47289560D01*
X80844000Y47289560D01*
X80915323Y47302980D01*
X80917690Y47302000D01*
X80997750Y47302000D01*
X81018062Y47322312D01*
X81079317Y47333838D01*
X81271227Y47457329D01*
X81442110Y47340569D01*
X81516808Y47325442D01*
X81540250Y47302000D01*
X81620310Y47302000D01*
X81624335Y47303667D01*
X81694000Y47289560D01*
X82144000Y47289560D01*
X82247671Y47309067D01*
X82344000Y47289560D01*
X82794000Y47289560D01*
X82897671Y47309067D01*
X82994000Y47289560D01*
X83444000Y47289560D01*
X83679317Y47333838D01*
X83895441Y47472910D01*
X84040431Y47685110D01*
X84091440Y47937000D01*
X84091440Y48609638D01*
X84124802Y48643000D01*
X85116560Y48643000D01*
X85116560Y48553000D01*
X85160838Y48317683D01*
X85299910Y48101559D01*
X85512110Y47956569D01*
X85620107Y47934699D01*
X85342355Y47629924D01*
X85172524Y47219890D01*
X85293845Y46990000D01*
X86487000Y46990000D01*
X86487000Y47010000D01*
X86741000Y47010000D01*
X86741000Y46990000D01*
X87934155Y46990000D01*
X88055476Y47219890D01*
X87885645Y47629924D01*
X87609499Y47932937D01*
X87699317Y47949838D01*
X87915441Y48088910D01*
X88060431Y48301110D01*
X88111440Y48553000D01*
X88111440Y48643000D01*
X89220198Y48643000D01*
X89937998Y47925200D01*
X89928241Y47901702D01*
X89927760Y47350715D01*
X90138169Y46841485D01*
X90527436Y46451539D01*
X91036298Y46240241D01*
X91587285Y46239760D01*
X92096515Y46450169D01*
X92486461Y46839436D01*
X92697759Y47348298D01*
X92697808Y47404676D01*
X92926132Y47633000D01*
X94633105Y47633000D01*
X95110587Y47434732D01*
X95641086Y47434269D01*
X96131380Y47636854D01*
X96506827Y48011647D01*
X96710268Y48501587D01*
X96710731Y49032086D01*
X96508146Y49522380D01*
X96133353Y49897827D01*
X95643413Y50101268D01*
X95112914Y50101731D01*
X94631947Y49903000D01*
X92456000Y49903000D01*
X92021654Y49816603D01*
X91739390Y49628000D01*
X91653434Y49570566D01*
X91093061Y49010193D01*
X91038715Y49010240D01*
X91013132Y48999670D01*
X90072401Y49940401D01*
X89825839Y50105148D01*
X89535000Y50163000D01*
X88111440Y50163000D01*
X88111440Y50253000D01*
X88067162Y50488317D01*
X87928090Y50704441D01*
X87715890Y50849431D01*
X87464000Y50900440D01*
X85764000Y50900440D01*
X85528683Y50856162D01*
X85312559Y50717090D01*
X85167569Y50504890D01*
X85116560Y50253000D01*
X85116560Y50163000D01*
X83872147Y50163000D01*
X83695890Y50283431D01*
X83444000Y50334440D01*
X82994000Y50334440D01*
X82890329Y50314933D01*
X82794000Y50334440D01*
X82344000Y50334440D01*
X82240329Y50314933D01*
X82144000Y50334440D01*
X81694000Y50334440D01*
X81622677Y50321020D01*
X81620310Y50322000D01*
X81540250Y50322000D01*
X81519938Y50301688D01*
X81458683Y50290162D01*
X81266773Y50166671D01*
X81095890Y50283431D01*
X81021192Y50298558D01*
X80997750Y50322000D01*
X80917690Y50322000D01*
X80913665Y50320333D01*
X80844000Y50334440D01*
X80518000Y50334440D01*
X80518000Y63423305D01*
X80525086Y63426233D01*
X80844645Y63745235D01*
X81017803Y64162244D01*
X81018197Y64613775D01*
X80845767Y65031086D01*
X80526765Y65350645D01*
X80518000Y65354285D01*
X80518000Y67717141D01*
X80563940Y67944000D01*
X80563940Y69648000D01*
X84074000Y69648000D01*
X84074000Y67661878D01*
G36*
X35179000Y62214000D02*
X26924005Y62214000D01*
X26924000Y62214001D01*
X26923995Y62214000D01*
X23622005Y62214000D01*
X23622000Y62214001D01*
X23621995Y62214000D01*
X11906505Y62214000D01*
X11906500Y62214001D01*
X11366956Y62106678D01*
X11280813Y62089543D01*
X10750380Y61735120D01*
X10750378Y61735117D01*
X6336880Y57321620D01*
X5982457Y56791188D01*
X5857999Y56165500D01*
X5858000Y56165495D01*
X5858000Y54737000D01*
X3429000Y54737000D01*
X3382841Y54728315D01*
X3340447Y54701035D01*
X3312006Y54659410D01*
X3302000Y54610000D01*
X3302000Y46609000D01*
X3310685Y46562841D01*
X3337965Y46520447D01*
X3379590Y46492006D01*
X3429000Y46482000D01*
X32931581Y46482000D01*
X33083841Y46418776D01*
X33715388Y46418225D01*
X33869735Y46482000D01*
X35179000Y46482000D01*
X35179000Y31623000D01*
X35189006Y31573590D01*
X35217447Y31531965D01*
X35259841Y31504685D01*
X35306000Y31496000D01*
X37565760Y31496000D01*
X39864880Y29196880D01*
X40066438Y29062203D01*
X40120579Y29007968D01*
X40191977Y28978321D01*
X40395312Y28842457D01*
X40633066Y28795164D01*
X40703841Y28765776D01*
X40781150Y28765709D01*
X41021000Y28717999D01*
X41258756Y28765292D01*
X41335388Y28765225D01*
X41406838Y28794748D01*
X41646688Y28842457D01*
X41848245Y28977133D01*
X41919072Y29006398D01*
X41973786Y29061017D01*
X42177120Y29196880D01*
X42311797Y29398438D01*
X42366032Y29452579D01*
X42395679Y29523977D01*
X42531543Y29727312D01*
X42578836Y29965066D01*
X42608224Y30035841D01*
X42608291Y30113150D01*
X42656001Y30353000D01*
X42608708Y30590756D01*
X42608775Y30667388D01*
X42579252Y30738838D01*
X42531543Y30978688D01*
X42396867Y31180245D01*
X42367602Y31251072D01*
X42312983Y31305786D01*
X42185886Y31496000D01*
X49793948Y31496000D01*
X50002861Y31356409D01*
X50215322Y31214447D01*
X50841010Y31089990D01*
X51054000Y31089990D01*
X51054000Y24130000D01*
X51062685Y24083841D01*
X51089965Y24041447D01*
X51131590Y24013006D01*
X51181000Y24003000D01*
X53877122Y24003000D01*
X53913610Y23978069D01*
X54165500Y23927060D01*
X56070500Y23927060D01*
X56305817Y23971338D01*
X56355021Y24003000D01*
X57559000Y24003000D01*
X57559000Y15541232D01*
X57537880Y15527120D01*
X57183457Y14996687D01*
X57059000Y14371000D01*
X57059000Y9968239D01*
X53834200Y6743440D01*
X53721000Y6743440D01*
X53485683Y6699162D01*
X53269559Y6560090D01*
X53124569Y6347890D01*
X53073560Y6096000D01*
X53073560Y5702496D01*
X52974999Y5207000D01*
X53073560Y4711504D01*
X53073560Y4318000D01*
X53117838Y4082683D01*
X53256910Y3866559D01*
X53469110Y3721569D01*
X53721000Y3670560D01*
X54114504Y3670560D01*
X54610000Y3571999D01*
X55105496Y3670560D01*
X55499000Y3670560D01*
X55734317Y3714838D01*
X55950441Y3853910D01*
X56095431Y4066110D01*
X56146440Y4318000D01*
X56146440Y4431200D01*
X59850117Y8134878D01*
X59850120Y8134880D01*
X60069470Y8463162D01*
X60204543Y8665312D01*
X60329000Y9291000D01*
X60329000Y13289812D01*
X68079417Y13289812D01*
X68141071Y13054200D01*
X68641480Y12878073D01*
X69171199Y12906852D01*
X69526929Y13054200D01*
X69588583Y13289812D01*
X70365417Y13289812D01*
X70427071Y13054200D01*
X70927480Y12878073D01*
X71457199Y12906852D01*
X71812929Y13054200D01*
X71874583Y13289812D01*
X71120000Y14044395D01*
X70365417Y13289812D01*
X69588583Y13289812D01*
X68834000Y14044395D01*
X68079417Y13289812D01*
X60329000Y13289812D01*
X60329000Y14371000D01*
X60319946Y14416520D01*
X67488073Y14416520D01*
X67516852Y13886801D01*
X67664200Y13531071D01*
X67899812Y13469417D01*
X68654395Y14224000D01*
X69013605Y14224000D01*
X69768188Y13469417D01*
X69977000Y13524058D01*
X70185812Y13469417D01*
X70940395Y14224000D01*
X71299605Y14224000D01*
X72054188Y13469417D01*
X72289800Y13531071D01*
X72465927Y14031480D01*
X72437148Y14561199D01*
X72289800Y14916929D01*
X72054188Y14978583D01*
X71299605Y14224000D01*
X70940395Y14224000D01*
X70185812Y14978583D01*
X69977000Y14923942D01*
X69768188Y14978583D01*
X69013605Y14224000D01*
X68654395Y14224000D01*
X67899812Y14978583D01*
X67664200Y14916929D01*
X67488073Y14416520D01*
X60319946Y14416520D01*
X60204543Y14996687D01*
X60096632Y15158188D01*
X68079417Y15158188D01*
X68834000Y14403605D01*
X69588583Y15158188D01*
X70365417Y15158188D01*
X71120000Y14403605D01*
X71874583Y15158188D01*
X71812929Y15393800D01*
X71312520Y15569927D01*
X70782801Y15541148D01*
X70427071Y15393800D01*
X70365417Y15158188D01*
X69588583Y15158188D01*
X69526929Y15393800D01*
X69026520Y15569927D01*
X68496801Y15541148D01*
X68141071Y15393800D01*
X68079417Y15158188D01*
X60096632Y15158188D01*
X59850120Y15527120D01*
X59829000Y15541232D01*
X59829000Y24642805D01*
X60074204Y24397173D01*
X60564144Y24193732D01*
X61094643Y24193269D01*
X61584937Y24395854D01*
X61960384Y24770647D01*
X62163825Y25260587D01*
X62164288Y25791086D01*
X61961703Y26281380D01*
X61586910Y26656827D01*
X61522485Y26683578D01*
X63167907Y28329000D01*
X73291272Y28329000D01*
X73544600Y28159732D01*
X68557448Y23172580D01*
X68079620Y22975146D01*
X67704173Y22600353D01*
X67500732Y22110413D01*
X67500269Y21579914D01*
X67702854Y21089620D01*
X68077647Y20714173D01*
X68567587Y20510732D01*
X69098086Y20510269D01*
X69588380Y20712854D01*
X69963827Y21087647D01*
X69976780Y21118841D01*
X69988854Y21089620D01*
X70363647Y20714173D01*
X70853587Y20510732D01*
X71384086Y20510269D01*
X71874380Y20712854D01*
X72249827Y21087647D01*
X72453268Y21577587D01*
X72453731Y22108086D01*
X72251146Y22598380D01*
X71876353Y22973827D01*
X71659150Y23064018D01*
X76614598Y28019466D01*
X76708000Y28000887D01*
X77257151Y28110120D01*
X77722698Y28421189D01*
X77978000Y28803275D01*
X78233302Y28421189D01*
X78698849Y28110120D01*
X79248000Y28000887D01*
X79797151Y28110120D01*
X80262698Y28421189D01*
X80518000Y28803275D01*
X80653000Y28601233D01*
X80653000Y24854133D01*
X79070717Y23271849D01*
X78698849Y23197880D01*
X78233302Y22886811D01*
X77978000Y22504725D01*
X77722698Y22886811D01*
X77257151Y23197880D01*
X76708000Y23307113D01*
X76158849Y23197880D01*
X75693302Y22886811D01*
X75596899Y22742535D01*
X75571162Y22879317D01*
X75432090Y23095441D01*
X75219890Y23240431D01*
X74968000Y23291440D01*
X73368000Y23291440D01*
X73132683Y23247162D01*
X72916559Y23108090D01*
X72771569Y22895890D01*
X72720560Y22644000D01*
X72720560Y21044000D01*
X72764838Y20808683D01*
X72903910Y20592559D01*
X73116110Y20447569D01*
X73368000Y20396560D01*
X74968000Y20396560D01*
X75203317Y20440838D01*
X75419441Y20579910D01*
X75564431Y20792110D01*
X75595815Y20947089D01*
X75693302Y20801189D01*
X76158849Y20490120D01*
X76708000Y20380887D01*
X77257151Y20490120D01*
X77722698Y20801189D01*
X77978000Y21183275D01*
X78233302Y20801189D01*
X78698849Y20490120D01*
X79248000Y20380887D01*
X79797151Y20490120D01*
X80262698Y20801189D01*
X80518000Y21183275D01*
X80773302Y20801189D01*
X81238849Y20490120D01*
X81788000Y20380887D01*
X82337151Y20490120D01*
X82802698Y20801189D01*
X83113767Y21266736D01*
X83223000Y21815887D01*
X83223000Y21872113D01*
X83113767Y22421264D01*
X82802698Y22886811D01*
X82337151Y23197880D01*
X82228604Y23219471D01*
X82590566Y23581433D01*
X82836603Y23949654D01*
X82848942Y24011685D01*
X82923000Y24384000D01*
X82923000Y28601233D01*
X83113767Y28886736D01*
X83223000Y29435887D01*
X83223000Y29492113D01*
X83113767Y30041264D01*
X83075189Y30099000D01*
X84201000Y30099000D01*
X84248789Y30108334D01*
X84290803Y30136197D01*
X85650606Y31496000D01*
X97080000Y31496000D01*
X97080000Y4790553D01*
X96632604Y5238731D01*
X95572467Y5678938D01*
X94424569Y5679940D01*
X93363665Y5241583D01*
X92551269Y4430604D01*
X92111062Y3370467D01*
X92110060Y2222569D01*
X92548417Y1161665D01*
X92999294Y710000D01*
X47589331Y710000D01*
X48164731Y1284396D01*
X48604938Y2344533D01*
X48605940Y3492431D01*
X48167583Y4553335D01*
X47356604Y5365731D01*
X46296467Y5805938D01*
X45148569Y5806940D01*
X44087665Y5368583D01*
X43275269Y4557604D01*
X42835062Y3497467D01*
X42834060Y2349569D01*
X43272417Y1288665D01*
X43850073Y710000D01*
X34396372Y710000D01*
X36613787Y2927416D01*
X36613790Y2927418D01*
X36805633Y3214533D01*
X36835649Y3365431D01*
X36869855Y3537392D01*
X37288551Y3955357D01*
X37522733Y4519330D01*
X37523265Y5129991D01*
X37290068Y5694371D01*
X36908818Y6076288D01*
X37288551Y6455357D01*
X37522733Y7019330D01*
X37523265Y7629991D01*
X37290068Y8194371D01*
X36858643Y8626551D01*
X36294670Y8860733D01*
X36014000Y8860978D01*
X36014000Y9214804D01*
X53717409Y9214804D01*
X53802467Y8959461D01*
X54371965Y8751484D01*
X54977700Y8777277D01*
X55417533Y8959461D01*
X55502591Y9214804D01*
X54610000Y10107395D01*
X53717409Y9214804D01*
X36014000Y9214804D01*
X36014000Y10525035D01*
X53074484Y10525035D01*
X53100277Y9919300D01*
X53282461Y9479467D01*
X53537804Y9394409D01*
X54430395Y10287000D01*
X54789605Y10287000D01*
X55682196Y9394409D01*
X55937539Y9479467D01*
X56145516Y10048965D01*
X56119723Y10654700D01*
X55937539Y11094533D01*
X55682196Y11179591D01*
X54789605Y10287000D01*
X54430395Y10287000D01*
X53537804Y11179591D01*
X53282461Y11094533D01*
X53074484Y10525035D01*
X36014000Y10525035D01*
X36014000Y11359196D01*
X53717409Y11359196D01*
X54610000Y10466605D01*
X55502591Y11359196D01*
X55417533Y11614539D01*
X54848035Y11822516D01*
X54242300Y11796723D01*
X53802467Y11614539D01*
X53717409Y11359196D01*
X36014000Y11359196D01*
X36014000Y15737914D01*
X36385269Y15737914D01*
X36587854Y15247620D01*
X36962647Y14872173D01*
X37452587Y14668732D01*
X37983086Y14668269D01*
X38420281Y14848914D01*
X39687269Y14848914D01*
X39889854Y14358620D01*
X40264647Y13983173D01*
X40754587Y13779732D01*
X41285086Y13779269D01*
X41775380Y13981854D01*
X42150827Y14356647D01*
X42354268Y14846587D01*
X42354731Y15377086D01*
X42152146Y15867380D01*
X41777353Y16242827D01*
X41287413Y16446268D01*
X40756914Y16446731D01*
X40266620Y16244146D01*
X39891173Y15869353D01*
X39687732Y15379413D01*
X39687269Y14848914D01*
X38420281Y14848914D01*
X38473380Y14870854D01*
X38848827Y15245647D01*
X39052268Y15735587D01*
X39052731Y16266086D01*
X38850146Y16756380D01*
X38475353Y17131827D01*
X37985413Y17335268D01*
X37454914Y17335731D01*
X36964620Y17133146D01*
X36589173Y16758353D01*
X36385732Y16268413D01*
X36385269Y15737914D01*
X36014000Y15737914D01*
X36014000Y17618334D01*
X36308827Y17912647D01*
X36512268Y18402587D01*
X36512731Y18933086D01*
X36310146Y19423380D01*
X35953898Y19780250D01*
X46990000Y19780250D01*
X46990000Y19050691D01*
X47086673Y18817302D01*
X47265301Y18638673D01*
X47498690Y18542000D01*
X48228250Y18542000D01*
X48387000Y18700750D01*
X48387000Y19939000D01*
X48641000Y19939000D01*
X48641000Y18700750D01*
X48799750Y18542000D01*
X49529310Y18542000D01*
X49762699Y18638673D01*
X49941327Y18817302D01*
X50038000Y19050691D01*
X50038000Y19780250D01*
X49879250Y19939000D01*
X48641000Y19939000D01*
X48387000Y19939000D01*
X47148750Y19939000D01*
X46990000Y19780250D01*
X35953898Y19780250D01*
X35935353Y19798827D01*
X35445413Y20002268D01*
X35026234Y20002634D01*
X34880434Y20148434D01*
X34813736Y20193000D01*
X34609541Y20329439D01*
X34290000Y20393000D01*
X34210200Y20393000D01*
X34213440Y20409000D01*
X34213440Y21081309D01*
X46990000Y21081309D01*
X46990000Y20351750D01*
X47148750Y20193000D01*
X48387000Y20193000D01*
X48387000Y21431250D01*
X48641000Y21431250D01*
X48641000Y20193000D01*
X49879250Y20193000D01*
X50038000Y20351750D01*
X50038000Y21081309D01*
X49941327Y21314698D01*
X49803112Y21452914D01*
X52897712Y21452914D01*
X53100297Y20962620D01*
X53475090Y20587173D01*
X53965030Y20383732D01*
X54495529Y20383269D01*
X54985823Y20585854D01*
X55361270Y20960647D01*
X55564711Y21450587D01*
X55565174Y21981086D01*
X55362589Y22471380D01*
X54987796Y22846827D01*
X54497856Y23050268D01*
X53967357Y23050731D01*
X53477063Y22848146D01*
X53101616Y22473353D01*
X52898175Y21983413D01*
X52897712Y21452914D01*
X49803112Y21452914D01*
X49762699Y21493327D01*
X49529310Y21590000D01*
X48799750Y21590000D01*
X48641000Y21431250D01*
X48387000Y21431250D01*
X48228250Y21590000D01*
X47498690Y21590000D01*
X47265301Y21493327D01*
X47086673Y21314698D01*
X46990000Y21081309D01*
X34213440Y21081309D01*
X34213440Y22009000D01*
X34169162Y22244317D01*
X34030090Y22460441D01*
X33817890Y22605431D01*
X33662911Y22636815D01*
X33808811Y22734302D01*
X34119880Y23199849D01*
X34151321Y23357914D01*
X36385269Y23357914D01*
X36587854Y22867620D01*
X36962647Y22492173D01*
X37452587Y22288732D01*
X37983086Y22288269D01*
X38473380Y22490854D01*
X38848827Y22865647D01*
X39052268Y23355587D01*
X39052731Y23886086D01*
X38850146Y24376380D01*
X38475353Y24751827D01*
X37985413Y24955268D01*
X37454914Y24955731D01*
X36964620Y24753146D01*
X36589173Y24378353D01*
X36385732Y23888413D01*
X36385269Y23357914D01*
X34151321Y23357914D01*
X34229113Y23749000D01*
X34119880Y24298151D01*
X33808811Y24763698D01*
X33404297Y25033986D01*
X33621134Y25136611D01*
X33997041Y25551577D01*
X34018971Y25604523D01*
X34047854Y25534620D01*
X34422647Y25159173D01*
X34912587Y24955732D01*
X35443086Y24955269D01*
X35933380Y25157854D01*
X36308827Y25532647D01*
X36512268Y26022587D01*
X36512445Y26225500D01*
X39421060Y26225500D01*
X39421060Y24320500D01*
X39465338Y24085183D01*
X39604410Y23869059D01*
X39816610Y23724069D01*
X40068500Y23673060D01*
X40075201Y23673060D01*
X39891173Y23489353D01*
X39687732Y22999413D01*
X39687269Y22468914D01*
X39889854Y21978620D01*
X40264647Y21603173D01*
X40754587Y21399732D01*
X41285086Y21399269D01*
X41775380Y21601854D01*
X42150827Y21976647D01*
X42354268Y22466587D01*
X42354731Y22997086D01*
X42152146Y23487380D01*
X41966789Y23673060D01*
X41973500Y23673060D01*
X42208817Y23717338D01*
X42424941Y23856410D01*
X42569931Y24068610D01*
X42620940Y24320500D01*
X42620940Y24844188D01*
X46989736Y24844188D01*
X47221262Y24283851D01*
X47649596Y23854769D01*
X48209528Y23622265D01*
X48815812Y23621736D01*
X49376149Y23853262D01*
X49805231Y24281596D01*
X50037735Y24841528D01*
X50038264Y25447812D01*
X49806738Y26008149D01*
X49378404Y26437231D01*
X48818472Y26669735D01*
X48212188Y26670264D01*
X47651851Y26438738D01*
X47222769Y26010404D01*
X46990265Y25450472D01*
X46989736Y24844188D01*
X42620940Y24844188D01*
X42620940Y26225500D01*
X42576662Y26460817D01*
X42437590Y26676941D01*
X42225390Y26821931D01*
X41973500Y26872940D01*
X40068500Y26872940D01*
X39833183Y26828662D01*
X39617059Y26689590D01*
X39472069Y26477390D01*
X39421060Y26225500D01*
X36512445Y26225500D01*
X36512731Y26553086D01*
X36310146Y27043380D01*
X35935353Y27418827D01*
X35445413Y27622268D01*
X34914914Y27622731D01*
X34424620Y27420146D01*
X34049173Y27045353D01*
X34019149Y26973047D01*
X33997041Y27026423D01*
X33621134Y27441389D01*
X33404297Y27544014D01*
X33808811Y27814302D01*
X34119880Y28279849D01*
X34229113Y28829000D01*
X34119880Y29378151D01*
X33808811Y29843698D01*
X33343264Y30154767D01*
X32794113Y30264000D01*
X32737887Y30264000D01*
X32188736Y30154767D01*
X31723189Y29843698D01*
X31412120Y29378151D01*
X31302887Y28829000D01*
X31412120Y28279849D01*
X31723189Y27814302D01*
X32127703Y27544014D01*
X31910866Y27441389D01*
X31534959Y27026423D01*
X31374096Y26638039D01*
X31496085Y26416000D01*
X32639000Y26416000D01*
X32639000Y26436000D01*
X32893000Y26436000D01*
X32893000Y26416000D01*
X32913000Y26416000D01*
X32913000Y26162000D01*
X32893000Y26162000D01*
X32893000Y26142000D01*
X32639000Y26142000D01*
X32639000Y26162000D01*
X31496085Y26162000D01*
X31374096Y25939961D01*
X31534959Y25551577D01*
X31910866Y25136611D01*
X32127703Y25033986D01*
X31723189Y24763698D01*
X31412120Y24298151D01*
X31302887Y23749000D01*
X31412120Y23199849D01*
X31723189Y22734302D01*
X31867465Y22637899D01*
X31730683Y22612162D01*
X31514559Y22473090D01*
X31369569Y22260890D01*
X31318560Y22009000D01*
X31318560Y20409000D01*
X31321571Y20393000D01*
X26321577Y20393000D01*
X26499880Y20659849D01*
X26609113Y21209000D01*
X26499880Y21758151D01*
X26188811Y22223698D01*
X25806725Y22479000D01*
X26188811Y22734302D01*
X26499880Y23199849D01*
X26609113Y23749000D01*
X26499880Y24298151D01*
X26188811Y24763698D01*
X25806725Y25019000D01*
X26188811Y25274302D01*
X26499880Y25739849D01*
X26609113Y26289000D01*
X26499880Y26838151D01*
X26188811Y27303698D01*
X25784297Y27573986D01*
X26001134Y27676611D01*
X26377041Y28091577D01*
X26537904Y28479961D01*
X26415915Y28702000D01*
X25273000Y28702000D01*
X25273000Y28682000D01*
X25019000Y28682000D01*
X25019000Y28702000D01*
X24999000Y28702000D01*
X24999000Y28956000D01*
X25019000Y28956000D01*
X25019000Y30099629D01*
X25273000Y30099629D01*
X25273000Y28956000D01*
X26415915Y28956000D01*
X26537904Y29178039D01*
X26377041Y29566423D01*
X26001134Y29981389D01*
X25495041Y30220914D01*
X25273000Y30099629D01*
X25019000Y30099629D01*
X24796959Y30220914D01*
X24290866Y29981389D01*
X23914959Y29566423D01*
X23835373Y29374272D01*
X23723961Y29934378D01*
X23402054Y30416147D01*
X22920285Y30738054D01*
X22352000Y30851093D01*
X21783715Y30738054D01*
X21301946Y30416147D01*
X21274150Y30374548D01*
X21265162Y30422317D01*
X21126090Y30638441D01*
X20913890Y30783431D01*
X20662000Y30834440D01*
X18962000Y30834440D01*
X18726683Y30790162D01*
X18510559Y30651090D01*
X18365569Y30438890D01*
X18314560Y30187000D01*
X18314560Y28487000D01*
X18358838Y28251683D01*
X18497910Y28035559D01*
X18710110Y27890569D01*
X18962000Y27839560D01*
X20662000Y27839560D01*
X20897317Y27883838D01*
X21113441Y28022910D01*
X21258431Y28235110D01*
X21272086Y28302541D01*
X21301946Y28257853D01*
X21783715Y27935946D01*
X22352000Y27822907D01*
X22920285Y27935946D01*
X23402054Y28257853D01*
X23711000Y28720224D01*
X23711000Y28701998D01*
X23876084Y28701998D01*
X23754096Y28479961D01*
X23914959Y28091577D01*
X24290866Y27676611D01*
X24507703Y27573986D01*
X24103189Y27303698D01*
X23792120Y26838151D01*
X23685512Y26302197D01*
X23685731Y26553086D01*
X23483146Y27043380D01*
X23108353Y27418827D01*
X22618413Y27622268D01*
X22087914Y27622731D01*
X21597620Y27420146D01*
X21222173Y27045353D01*
X21145563Y26860856D01*
X21070146Y27043380D01*
X20695353Y27418827D01*
X20205413Y27622268D01*
X19674914Y27622731D01*
X19184620Y27420146D01*
X18809173Y27045353D01*
X18605732Y26555413D01*
X18605269Y26024914D01*
X18807854Y25534620D01*
X19182647Y25159173D01*
X19672587Y24955732D01*
X20203086Y24955269D01*
X20693380Y25157854D01*
X21068827Y25532647D01*
X21145437Y25717144D01*
X21220854Y25534620D01*
X21595647Y25159173D01*
X21933446Y25018906D01*
X21597620Y24880146D01*
X21222173Y24505353D01*
X21018732Y24015413D01*
X21018269Y23484914D01*
X21220854Y22994620D01*
X21595647Y22619173D01*
X22085587Y22415732D01*
X22616086Y22415269D01*
X23106380Y22617854D01*
X23481827Y22992647D01*
X23685268Y23482587D01*
X23685489Y23735918D01*
X23792120Y23199849D01*
X24103189Y22734302D01*
X24485275Y22479000D01*
X24103189Y22223698D01*
X23792120Y21758151D01*
X23682887Y21209000D01*
X23792120Y20659849D01*
X23970423Y20393000D01*
X20828000Y20393000D01*
X20508459Y20329439D01*
X20304264Y20193000D01*
X20237566Y20148434D01*
X20091499Y20002367D01*
X19674914Y20002731D01*
X19184620Y19800146D01*
X18809173Y19425353D01*
X18605732Y18935413D01*
X18605269Y18404914D01*
X18807854Y17914620D01*
X19182647Y17539173D01*
X19672587Y17335732D01*
X20203086Y17335269D01*
X20693380Y17537854D01*
X21068827Y17912647D01*
X21272268Y18402587D01*
X21272548Y18723000D01*
X23949146Y18723000D01*
X23762173Y18536353D01*
X23558732Y18046413D01*
X23558269Y17515914D01*
X23760854Y17025620D01*
X24010260Y16775779D01*
X24061563Y16517868D01*
X24074367Y16453497D01*
X24266210Y16166382D01*
X27060501Y13372092D01*
X27060501Y10356298D01*
X26981701Y10277499D01*
X22044504Y10277499D01*
X22044499Y10277500D01*
X21723942Y10213736D01*
X21705824Y10210132D01*
X21418709Y10018289D01*
X21418707Y10018286D01*
X17609990Y6209569D01*
X17610301Y6566599D01*
X17346719Y7204515D01*
X16859082Y7693004D01*
X16221627Y7957699D01*
X15531401Y7958301D01*
X15432248Y7917332D01*
X15209999Y8139581D01*
X15209999Y8620502D01*
X15528373Y8488301D01*
X16218599Y8487699D01*
X16856515Y8751281D01*
X17345004Y9238918D01*
X17609699Y9876373D01*
X17610301Y10566599D01*
X17346719Y11204515D01*
X17172139Y11379401D01*
X18339699Y11379401D01*
X18603281Y10741485D01*
X19090918Y10252996D01*
X19728373Y9988301D01*
X20418599Y9987699D01*
X21056515Y10251281D01*
X21545004Y10738918D01*
X21809699Y11376373D01*
X21810301Y12066599D01*
X21546719Y12704515D01*
X21059082Y13193004D01*
X20421627Y13457699D01*
X19731401Y13458301D01*
X19093485Y13194719D01*
X18604996Y12707082D01*
X18340301Y12069627D01*
X18339699Y11379401D01*
X17172139Y11379401D01*
X16859082Y11693004D01*
X16221627Y11957699D01*
X15531401Y11958301D01*
X15209999Y11825500D01*
X15209999Y15355419D01*
X16555150Y16700571D01*
X16901086Y16700269D01*
X17391380Y16902854D01*
X17766827Y17277647D01*
X17970268Y17767587D01*
X17970731Y18298086D01*
X17768146Y18788380D01*
X17393353Y19163827D01*
X16903413Y19367268D01*
X16372914Y19367731D01*
X15882620Y19165146D01*
X15507173Y18790353D01*
X15366906Y18452554D01*
X15228146Y18788380D01*
X14853353Y19163827D01*
X14363413Y19367268D01*
X13832914Y19367731D01*
X13342620Y19165146D01*
X12967173Y18790353D01*
X12826906Y18452554D01*
X12688146Y18788380D01*
X12313353Y19163827D01*
X11823413Y19367268D01*
X11292914Y19367731D01*
X10802620Y19165146D01*
X10427173Y18790353D01*
X10286906Y18452554D01*
X10148146Y18788380D01*
X9773353Y19163827D01*
X9283413Y19367268D01*
X8752914Y19367731D01*
X8262620Y19165146D01*
X7887173Y18790353D01*
X7683732Y18300413D01*
X7683269Y17769914D01*
X7885854Y17279620D01*
X8260647Y16904173D01*
X8750587Y16700732D01*
X9281086Y16700269D01*
X9771380Y16902854D01*
X10146827Y17277647D01*
X10287094Y17615446D01*
X10425854Y17279620D01*
X10800647Y16904173D01*
X11290587Y16700732D01*
X11821086Y16700269D01*
X12311380Y16902854D01*
X12686827Y17277647D01*
X12827094Y17615446D01*
X12965854Y17279620D01*
X13340647Y16904173D01*
X13830587Y16700732D01*
X14051959Y16700539D01*
X13699209Y16347789D01*
X13507366Y16060674D01*
X13507366Y16060673D01*
X13439998Y15721999D01*
X13439999Y15721994D01*
X13439999Y7773006D01*
X13439998Y7773001D01*
X13481042Y7566664D01*
X13507366Y7434326D01*
X13659205Y7207082D01*
X13699209Y7147211D01*
X14180348Y6666072D01*
X14140301Y6569627D01*
X14140245Y6505707D01*
X13944346Y6636603D01*
X13510000Y6723000D01*
X10575204Y6723000D01*
X10325363Y6973278D01*
X9724648Y7222716D01*
X9074205Y7223284D01*
X8473057Y6974894D01*
X8012722Y6515363D01*
X7763284Y5914648D01*
X7762716Y5264205D01*
X8011106Y4663057D01*
X8470637Y4202722D01*
X9071352Y3953284D01*
X9721795Y3952716D01*
X10322943Y4201106D01*
X10575278Y4453000D01*
X13039868Y4453000D01*
X14140112Y3352756D01*
X14139699Y2879401D01*
X14403281Y2241485D01*
X14489615Y2155000D01*
X4049579Y2155000D01*
X1901000Y4303580D01*
X1901000Y5264205D01*
X2162716Y5264205D01*
X2411106Y4663057D01*
X2870637Y4202722D01*
X3471352Y3953284D01*
X4121795Y3952716D01*
X4722943Y4201106D01*
X5183278Y4660637D01*
X5432716Y5261352D01*
X5433284Y5911795D01*
X5184894Y6512943D01*
X4725363Y6973278D01*
X4124648Y7222716D01*
X3474205Y7223284D01*
X2873057Y6974894D01*
X2412722Y6515363D01*
X2163284Y5914648D01*
X2162716Y5264205D01*
X1901000Y5264205D01*
X1901000Y10764205D01*
X2762716Y10764205D01*
X3011106Y10163057D01*
X3470637Y9702722D01*
X4071352Y9453284D01*
X4721795Y9452716D01*
X5322943Y9701106D01*
X5557715Y9935468D01*
X7825073Y9935468D01*
X7923736Y9668613D01*
X8533461Y9442092D01*
X9183460Y9466144D01*
X9672264Y9668613D01*
X9770927Y9935468D01*
X8798000Y10908395D01*
X7825073Y9935468D01*
X5557715Y9935468D01*
X5783278Y10160637D01*
X6032716Y10761352D01*
X6033232Y11352539D01*
X7152092Y11352539D01*
X7176144Y10702540D01*
X7378613Y10213736D01*
X7645468Y10115073D01*
X8618395Y11088000D01*
X8977605Y11088000D01*
X9950532Y10115073D01*
X10217387Y10213736D01*
X10443908Y10823461D01*
X10419856Y11473460D01*
X10217387Y11962264D01*
X9950532Y12060927D01*
X8977605Y11088000D01*
X8618395Y11088000D01*
X7645468Y12060927D01*
X7378613Y11962264D01*
X7152092Y11352539D01*
X6033232Y11352539D01*
X6033284Y11411795D01*
X5784894Y12012943D01*
X5557703Y12240532D01*
X7825073Y12240532D01*
X8798000Y11267605D01*
X9770927Y12240532D01*
X9672264Y12507387D01*
X9062539Y12733908D01*
X8412540Y12709856D01*
X7923736Y12507387D01*
X7825073Y12240532D01*
X5557703Y12240532D01*
X5325363Y12473278D01*
X4724648Y12722716D01*
X4074205Y12723284D01*
X3473057Y12474894D01*
X3012722Y12015363D01*
X2763284Y11414648D01*
X2762716Y10764205D01*
X1901000Y10764205D01*
X1901000Y15762420D01*
X3474150Y17335571D01*
X3820086Y17335269D01*
X4310380Y17537854D01*
X4685827Y17912647D01*
X4889268Y18402587D01*
X4889731Y18933086D01*
X4687146Y19423380D01*
X4312353Y19798827D01*
X3822413Y20002268D01*
X3291914Y20002731D01*
X2801620Y19800146D01*
X2426173Y19425353D01*
X2222732Y18935413D01*
X2222428Y18587007D01*
X710000Y17074580D01*
X710000Y26024914D01*
X2222269Y26024914D01*
X2424854Y25534620D01*
X2799647Y25159173D01*
X3289587Y24955732D01*
X3820086Y24955269D01*
X4310380Y25157854D01*
X4685827Y25532647D01*
X4889268Y26022587D01*
X4889731Y26553086D01*
X4687146Y27043380D01*
X4312353Y27418827D01*
X4216665Y27458560D01*
X4660000Y27458560D01*
X4895317Y27502838D01*
X5111441Y27641910D01*
X5256431Y27854110D01*
X5270086Y27921541D01*
X5299946Y27876853D01*
X5781715Y27554946D01*
X5876319Y27536128D01*
X5595620Y27420146D01*
X5220173Y27045353D01*
X5016732Y26555413D01*
X5016269Y26024914D01*
X5218854Y25534620D01*
X5593647Y25159173D01*
X5931446Y25018906D01*
X5595620Y24880146D01*
X5220173Y24505353D01*
X5016732Y24015413D01*
X5016269Y23484914D01*
X5218854Y22994620D01*
X5593647Y22619173D01*
X6083587Y22415732D01*
X6614086Y22415269D01*
X7104380Y22617854D01*
X7479827Y22992647D01*
X7631621Y23358207D01*
X7663120Y23199849D01*
X7974189Y22734302D01*
X8356275Y22479000D01*
X7974189Y22223698D01*
X7663120Y21758151D01*
X7553887Y21209000D01*
X7663120Y20659849D01*
X7974189Y20194302D01*
X8439736Y19883233D01*
X8988887Y19774000D01*
X9045113Y19774000D01*
X9594264Y19883233D01*
X10059811Y20194302D01*
X10370880Y20659849D01*
X10480113Y21209000D01*
X10370880Y21758151D01*
X10059811Y22223698D01*
X9677725Y22479000D01*
X10059811Y22734302D01*
X10370880Y23199849D01*
X10480113Y23749000D01*
X15173887Y23749000D01*
X15283120Y23199849D01*
X15594189Y22734302D01*
X15738465Y22637899D01*
X15601683Y22612162D01*
X15385559Y22473090D01*
X15240569Y22260890D01*
X15189560Y22009000D01*
X15189560Y20409000D01*
X15233838Y20173683D01*
X15372910Y19957559D01*
X15585110Y19812569D01*
X15837000Y19761560D01*
X17437000Y19761560D01*
X17672317Y19805838D01*
X17888441Y19944910D01*
X18033431Y20157110D01*
X18084440Y20409000D01*
X18084440Y22009000D01*
X18040162Y22244317D01*
X17901090Y22460441D01*
X17688890Y22605431D01*
X17533911Y22636815D01*
X17679811Y22734302D01*
X17990880Y23199849D01*
X18100113Y23749000D01*
X17990880Y24298151D01*
X17679811Y24763698D01*
X17275297Y25033986D01*
X17492134Y25136611D01*
X17868041Y25551577D01*
X18028904Y25939961D01*
X17906915Y26162000D01*
X16764000Y26162000D01*
X16764000Y26142000D01*
X16510000Y26142000D01*
X16510000Y26162000D01*
X15367085Y26162000D01*
X15245096Y25939961D01*
X15405959Y25551577D01*
X15781866Y25136611D01*
X15998703Y25033986D01*
X15594189Y24763698D01*
X15283120Y24298151D01*
X15173887Y23749000D01*
X10480113Y23749000D01*
X10370880Y24298151D01*
X10059811Y24763698D01*
X9677725Y25019000D01*
X10059811Y25274302D01*
X10370880Y25739849D01*
X10480113Y26289000D01*
X10370880Y26838151D01*
X10059811Y27303698D01*
X9655297Y27573986D01*
X9872134Y27676611D01*
X10248041Y28091577D01*
X10408904Y28479961D01*
X10286915Y28702000D01*
X9144000Y28702000D01*
X9144000Y28682000D01*
X8890000Y28682000D01*
X8890000Y28702000D01*
X8870000Y28702000D01*
X8870000Y28829000D01*
X15173887Y28829000D01*
X15283120Y28279849D01*
X15594189Y27814302D01*
X15998703Y27544014D01*
X15781866Y27441389D01*
X15405959Y27026423D01*
X15245096Y26638039D01*
X15367085Y26416000D01*
X16510000Y26416000D01*
X16510000Y26436000D01*
X16764000Y26436000D01*
X16764000Y26416000D01*
X17906915Y26416000D01*
X18028904Y26638039D01*
X17868041Y27026423D01*
X17492134Y27441389D01*
X17275297Y27544014D01*
X17679811Y27814302D01*
X17990880Y28279849D01*
X18100113Y28829000D01*
X17990880Y29378151D01*
X17679811Y29843698D01*
X17214264Y30154767D01*
X16665113Y30264000D01*
X16608887Y30264000D01*
X16059736Y30154767D01*
X15594189Y29843698D01*
X15283120Y29378151D01*
X15173887Y28829000D01*
X8870000Y28829000D01*
X8870000Y28956000D01*
X8890000Y28956000D01*
X8890000Y30099629D01*
X9144000Y30099629D01*
X9144000Y28956000D01*
X10286915Y28956000D01*
X10408904Y29178039D01*
X10248041Y29566423D01*
X9872134Y29981389D01*
X9366041Y30220914D01*
X9144000Y30099629D01*
X8890000Y30099629D01*
X8667959Y30220914D01*
X8161866Y29981389D01*
X7785959Y29566423D01*
X7740971Y29457806D01*
X7721961Y29553378D01*
X7400054Y30035147D01*
X6918285Y30357054D01*
X6350000Y30470093D01*
X5781715Y30357054D01*
X5299946Y30035147D01*
X5272150Y29993548D01*
X5263162Y30041317D01*
X5124090Y30257441D01*
X4911890Y30402431D01*
X4660000Y30453440D01*
X2960000Y30453440D01*
X2724683Y30409162D01*
X2508559Y30270090D01*
X2363569Y30057890D01*
X2312560Y29806000D01*
X2312560Y28106000D01*
X2356838Y27870683D01*
X2495910Y27654559D01*
X2708110Y27509569D01*
X2916103Y27467449D01*
X2801620Y27420146D01*
X2426173Y27045353D01*
X2222732Y26555413D01*
X2222269Y26024914D01*
X710000Y26024914D01*
X710000Y36057914D01*
X5143269Y36057914D01*
X5345854Y35567620D01*
X5720647Y35192173D01*
X6210587Y34988732D01*
X6741086Y34988269D01*
X7231380Y35190854D01*
X7606827Y35565647D01*
X7810268Y36055587D01*
X7810270Y36057914D01*
X16319269Y36057914D01*
X16521854Y35567620D01*
X16896647Y35192173D01*
X17386587Y34988732D01*
X17917086Y34988269D01*
X18407380Y35190854D01*
X18782827Y35565647D01*
X18986268Y36055587D01*
X18986270Y36057914D01*
X19875269Y36057914D01*
X20077854Y35567620D01*
X20452647Y35192173D01*
X20942587Y34988732D01*
X21473086Y34988269D01*
X21963380Y35190854D01*
X22338827Y35565647D01*
X22542268Y36055587D01*
X22542270Y36057914D01*
X31051269Y36057914D01*
X31253854Y35567620D01*
X31628647Y35192173D01*
X32118587Y34988732D01*
X32649086Y34988269D01*
X33139380Y35190854D01*
X33514827Y35565647D01*
X33718268Y36055587D01*
X33718731Y36586086D01*
X33516146Y37076380D01*
X33141353Y37451827D01*
X32651413Y37655268D01*
X32120914Y37655731D01*
X31630620Y37453146D01*
X31255173Y37078353D01*
X31051732Y36588413D01*
X31051269Y36057914D01*
X22542270Y36057914D01*
X22542731Y36586086D01*
X22340146Y37076380D01*
X21965353Y37451827D01*
X21475413Y37655268D01*
X20944914Y37655731D01*
X20454620Y37453146D01*
X20079173Y37078353D01*
X19875732Y36588413D01*
X19875269Y36057914D01*
X18986270Y36057914D01*
X18986731Y36586086D01*
X18784146Y37076380D01*
X18409353Y37451827D01*
X17919413Y37655268D01*
X17388914Y37655731D01*
X16898620Y37453146D01*
X16523173Y37078353D01*
X16319732Y36588413D01*
X16319269Y36057914D01*
X7810270Y36057914D01*
X7810731Y36586086D01*
X7608146Y37076380D01*
X7233353Y37451827D01*
X6743413Y37655268D01*
X6212914Y37655731D01*
X5722620Y37453146D01*
X5347173Y37078353D01*
X5143732Y36588413D01*
X5143269Y36057914D01*
X710000Y36057914D01*
X710000Y38643447D01*
X1157396Y38195269D01*
X2217533Y37755062D01*
X3365431Y37754060D01*
X4426335Y38192417D01*
X5238731Y39003396D01*
X5549163Y39751000D01*
X7988560Y39751000D01*
X7988560Y37973000D01*
X8032838Y37737683D01*
X8171910Y37521559D01*
X8384110Y37376569D01*
X8636000Y37325560D01*
X10414000Y37325560D01*
X10649317Y37369838D01*
X10865441Y37508910D01*
X11010431Y37721110D01*
X11061440Y37973000D01*
X11061440Y38560188D01*
X13080736Y38560188D01*
X13312262Y37999851D01*
X13740596Y37570769D01*
X14300528Y37338265D01*
X14906812Y37337736D01*
X15467149Y37569262D01*
X15896231Y37997596D01*
X16128735Y38557528D01*
X16129264Y39163812D01*
X15897738Y39724149D01*
X15870934Y39751000D01*
X22720560Y39751000D01*
X22720560Y37973000D01*
X22764838Y37737683D01*
X22903910Y37521559D01*
X23116110Y37376569D01*
X23368000Y37325560D01*
X25146000Y37325560D01*
X25381317Y37369838D01*
X25597441Y37508910D01*
X25742431Y37721110D01*
X25793440Y37973000D01*
X25793440Y38560188D01*
X27812736Y38560188D01*
X28044262Y37999851D01*
X28472596Y37570769D01*
X29032528Y37338265D01*
X29638812Y37337736D01*
X30199149Y37569262D01*
X30628231Y37997596D01*
X30664320Y38084508D01*
X30893603Y38427654D01*
X30980000Y38862000D01*
X30893603Y39296346D01*
X30665362Y39637933D01*
X30629738Y39724149D01*
X30201404Y40153231D01*
X29641472Y40385735D01*
X29035188Y40386264D01*
X28474851Y40154738D01*
X28045769Y39726404D01*
X27813265Y39166472D01*
X27812736Y38560188D01*
X25793440Y38560188D01*
X25793440Y39751000D01*
X25749162Y39986317D01*
X25610090Y40202441D01*
X25397890Y40347431D01*
X25146000Y40398440D01*
X23368000Y40398440D01*
X23132683Y40354162D01*
X22916559Y40215090D01*
X22771569Y40002890D01*
X22720560Y39751000D01*
X15870934Y39751000D01*
X15469404Y40153231D01*
X14909472Y40385735D01*
X14303188Y40386264D01*
X13742851Y40154738D01*
X13313769Y39726404D01*
X13081265Y39166472D01*
X13080736Y38560188D01*
X11061440Y38560188D01*
X11061440Y39751000D01*
X11017162Y39986317D01*
X10878090Y40202441D01*
X10665890Y40347431D01*
X10414000Y40398440D01*
X8636000Y40398440D01*
X8400683Y40354162D01*
X8184559Y40215090D01*
X8039569Y40002890D01*
X7988560Y39751000D01*
X5549163Y39751000D01*
X5678938Y40063533D01*
X5679940Y41211431D01*
X5241583Y42272335D01*
X4430604Y43084731D01*
X3370467Y43524938D01*
X2222569Y43525940D01*
X1161665Y43087583D01*
X710000Y42636706D01*
X710000Y43677914D01*
X5143269Y43677914D01*
X5345854Y43187620D01*
X5720647Y42812173D01*
X6210587Y42608732D01*
X6741086Y42608269D01*
X7231380Y42810854D01*
X7606827Y43185647D01*
X7810268Y43675587D01*
X7810270Y43677914D01*
X16319269Y43677914D01*
X16521854Y43187620D01*
X16896647Y42812173D01*
X17386587Y42608732D01*
X17917086Y42608269D01*
X18407380Y42810854D01*
X18782827Y43185647D01*
X18986268Y43675587D01*
X18986270Y43677914D01*
X19875269Y43677914D01*
X20077854Y43187620D01*
X20452647Y42812173D01*
X20942587Y42608732D01*
X21473086Y42608269D01*
X21963380Y42810854D01*
X22338827Y43185647D01*
X22542268Y43675587D01*
X22542270Y43677914D01*
X31051269Y43677914D01*
X31253854Y43187620D01*
X31628647Y42812173D01*
X32118587Y42608732D01*
X32649086Y42608269D01*
X33139380Y42810854D01*
X33514827Y43185647D01*
X33718268Y43675587D01*
X33718731Y44206086D01*
X33516146Y44696380D01*
X33141353Y45071827D01*
X32651413Y45275268D01*
X32120914Y45275731D01*
X31630620Y45073146D01*
X31255173Y44698353D01*
X31051732Y44208413D01*
X31051269Y43677914D01*
X22542270Y43677914D01*
X22542731Y44206086D01*
X22340146Y44696380D01*
X21965353Y45071827D01*
X21475413Y45275268D01*
X20944914Y45275731D01*
X20454620Y45073146D01*
X20079173Y44698353D01*
X19875732Y44208413D01*
X19875269Y43677914D01*
X18986270Y43677914D01*
X18986731Y44206086D01*
X18784146Y44696380D01*
X18409353Y45071827D01*
X17919413Y45275268D01*
X17388914Y45275731D01*
X16898620Y45073146D01*
X16523173Y44698353D01*
X16319732Y44208413D01*
X16319269Y43677914D01*
X7810270Y43677914D01*
X7810731Y44206086D01*
X7608146Y44696380D01*
X7233353Y45071827D01*
X6743413Y45275268D01*
X6212914Y45275731D01*
X5722620Y45073146D01*
X5347173Y44698353D01*
X5143732Y44208413D01*
X5143269Y43677914D01*
X710000Y43677914D01*
X710000Y65567447D01*
X1157396Y65119269D01*
X2217533Y64679062D01*
X3365431Y64678060D01*
X4426335Y65116417D01*
X5238731Y65927396D01*
X5678938Y66987533D01*
X5679940Y68135431D01*
X5241583Y69196335D01*
X4790706Y69648000D01*
X35179000Y69648000D01*
X35179000Y62214000D01*
X35179000Y62214000D01*
G37*
X35179000Y62214000D02*
X26924005Y62214000D01*
X26924000Y62214001D01*
X26923995Y62214000D01*
X23622005Y62214000D01*
X23622000Y62214001D01*
X23621995Y62214000D01*
X11906505Y62214000D01*
X11906500Y62214001D01*
X11366956Y62106678D01*
X11280813Y62089543D01*
X10750380Y61735120D01*
X10750378Y61735117D01*
X6336880Y57321620D01*
X5982457Y56791188D01*
X5857999Y56165500D01*
X5858000Y56165495D01*
X5858000Y54737000D01*
X3429000Y54737000D01*
X3382841Y54728315D01*
X3340447Y54701035D01*
X3312006Y54659410D01*
X3302000Y54610000D01*
X3302000Y46609000D01*
X3310685Y46562841D01*
X3337965Y46520447D01*
X3379590Y46492006D01*
X3429000Y46482000D01*
X32931581Y46482000D01*
X33083841Y46418776D01*
X33715388Y46418225D01*
X33869735Y46482000D01*
X35179000Y46482000D01*
X35179000Y31623000D01*
X35189006Y31573590D01*
X35217447Y31531965D01*
X35259841Y31504685D01*
X35306000Y31496000D01*
X37565760Y31496000D01*
X39864880Y29196880D01*
X40066438Y29062203D01*
X40120579Y29007968D01*
X40191977Y28978321D01*
X40395312Y28842457D01*
X40633066Y28795164D01*
X40703841Y28765776D01*
X40781150Y28765709D01*
X41021000Y28717999D01*
X41258756Y28765292D01*
X41335388Y28765225D01*
X41406838Y28794748D01*
X41646688Y28842457D01*
X41848245Y28977133D01*
X41919072Y29006398D01*
X41973786Y29061017D01*
X42177120Y29196880D01*
X42311797Y29398438D01*
X42366032Y29452579D01*
X42395679Y29523977D01*
X42531543Y29727312D01*
X42578836Y29965066D01*
X42608224Y30035841D01*
X42608291Y30113150D01*
X42656001Y30353000D01*
X42608708Y30590756D01*
X42608775Y30667388D01*
X42579252Y30738838D01*
X42531543Y30978688D01*
X42396867Y31180245D01*
X42367602Y31251072D01*
X42312983Y31305786D01*
X42185886Y31496000D01*
X49793948Y31496000D01*
X50002861Y31356409D01*
X50215322Y31214447D01*
X50841010Y31089990D01*
X51054000Y31089990D01*
X51054000Y24130000D01*
X51062685Y24083841D01*
X51089965Y24041447D01*
X51131590Y24013006D01*
X51181000Y24003000D01*
X53877122Y24003000D01*
X53913610Y23978069D01*
X54165500Y23927060D01*
X56070500Y23927060D01*
X56305817Y23971338D01*
X56355021Y24003000D01*
X57559000Y24003000D01*
X57559000Y15541232D01*
X57537880Y15527120D01*
X57183457Y14996687D01*
X57059000Y14371000D01*
X57059000Y9968239D01*
X53834200Y6743440D01*
X53721000Y6743440D01*
X53485683Y6699162D01*
X53269559Y6560090D01*
X53124569Y6347890D01*
X53073560Y6096000D01*
X53073560Y5702496D01*
X52974999Y5207000D01*
X53073560Y4711504D01*
X53073560Y4318000D01*
X53117838Y4082683D01*
X53256910Y3866559D01*
X53469110Y3721569D01*
X53721000Y3670560D01*
X54114504Y3670560D01*
X54610000Y3571999D01*
X55105496Y3670560D01*
X55499000Y3670560D01*
X55734317Y3714838D01*
X55950441Y3853910D01*
X56095431Y4066110D01*
X56146440Y4318000D01*
X56146440Y4431200D01*
X59850117Y8134878D01*
X59850120Y8134880D01*
X60069470Y8463162D01*
X60204543Y8665312D01*
X60329000Y9291000D01*
X60329000Y13289812D01*
X68079417Y13289812D01*
X68141071Y13054200D01*
X68641480Y12878073D01*
X69171199Y12906852D01*
X69526929Y13054200D01*
X69588583Y13289812D01*
X70365417Y13289812D01*
X70427071Y13054200D01*
X70927480Y12878073D01*
X71457199Y12906852D01*
X71812929Y13054200D01*
X71874583Y13289812D01*
X71120000Y14044395D01*
X70365417Y13289812D01*
X69588583Y13289812D01*
X68834000Y14044395D01*
X68079417Y13289812D01*
X60329000Y13289812D01*
X60329000Y14371000D01*
X60319946Y14416520D01*
X67488073Y14416520D01*
X67516852Y13886801D01*
X67664200Y13531071D01*
X67899812Y13469417D01*
X68654395Y14224000D01*
X69013605Y14224000D01*
X69768188Y13469417D01*
X69977000Y13524058D01*
X70185812Y13469417D01*
X70940395Y14224000D01*
X71299605Y14224000D01*
X72054188Y13469417D01*
X72289800Y13531071D01*
X72465927Y14031480D01*
X72437148Y14561199D01*
X72289800Y14916929D01*
X72054188Y14978583D01*
X71299605Y14224000D01*
X70940395Y14224000D01*
X70185812Y14978583D01*
X69977000Y14923942D01*
X69768188Y14978583D01*
X69013605Y14224000D01*
X68654395Y14224000D01*
X67899812Y14978583D01*
X67664200Y14916929D01*
X67488073Y14416520D01*
X60319946Y14416520D01*
X60204543Y14996687D01*
X60096632Y15158188D01*
X68079417Y15158188D01*
X68834000Y14403605D01*
X69588583Y15158188D01*
X70365417Y15158188D01*
X71120000Y14403605D01*
X71874583Y15158188D01*
X71812929Y15393800D01*
X71312520Y15569927D01*
X70782801Y15541148D01*
X70427071Y15393800D01*
X70365417Y15158188D01*
X69588583Y15158188D01*
X69526929Y15393800D01*
X69026520Y15569927D01*
X68496801Y15541148D01*
X68141071Y15393800D01*
X68079417Y15158188D01*
X60096632Y15158188D01*
X59850120Y15527120D01*
X59829000Y15541232D01*
X59829000Y24642805D01*
X60074204Y24397173D01*
X60564144Y24193732D01*
X61094643Y24193269D01*
X61584937Y24395854D01*
X61960384Y24770647D01*
X62163825Y25260587D01*
X62164288Y25791086D01*
X61961703Y26281380D01*
X61586910Y26656827D01*
X61522485Y26683578D01*
X63167907Y28329000D01*
X73291272Y28329000D01*
X73544600Y28159732D01*
X68557448Y23172580D01*
X68079620Y22975146D01*
X67704173Y22600353D01*
X67500732Y22110413D01*
X67500269Y21579914D01*
X67702854Y21089620D01*
X68077647Y20714173D01*
X68567587Y20510732D01*
X69098086Y20510269D01*
X69588380Y20712854D01*
X69963827Y21087647D01*
X69976780Y21118841D01*
X69988854Y21089620D01*
X70363647Y20714173D01*
X70853587Y20510732D01*
X71384086Y20510269D01*
X71874380Y20712854D01*
X72249827Y21087647D01*
X72453268Y21577587D01*
X72453731Y22108086D01*
X72251146Y22598380D01*
X71876353Y22973827D01*
X71659150Y23064018D01*
X76614598Y28019466D01*
X76708000Y28000887D01*
X77257151Y28110120D01*
X77722698Y28421189D01*
X77978000Y28803275D01*
X78233302Y28421189D01*
X78698849Y28110120D01*
X79248000Y28000887D01*
X79797151Y28110120D01*
X80262698Y28421189D01*
X80518000Y28803275D01*
X80653000Y28601233D01*
X80653000Y24854133D01*
X79070717Y23271849D01*
X78698849Y23197880D01*
X78233302Y22886811D01*
X77978000Y22504725D01*
X77722698Y22886811D01*
X77257151Y23197880D01*
X76708000Y23307113D01*
X76158849Y23197880D01*
X75693302Y22886811D01*
X75596899Y22742535D01*
X75571162Y22879317D01*
X75432090Y23095441D01*
X75219890Y23240431D01*
X74968000Y23291440D01*
X73368000Y23291440D01*
X73132683Y23247162D01*
X72916559Y23108090D01*
X72771569Y22895890D01*
X72720560Y22644000D01*
X72720560Y21044000D01*
X72764838Y20808683D01*
X72903910Y20592559D01*
X73116110Y20447569D01*
X73368000Y20396560D01*
X74968000Y20396560D01*
X75203317Y20440838D01*
X75419441Y20579910D01*
X75564431Y20792110D01*
X75595815Y20947089D01*
X75693302Y20801189D01*
X76158849Y20490120D01*
X76708000Y20380887D01*
X77257151Y20490120D01*
X77722698Y20801189D01*
X77978000Y21183275D01*
X78233302Y20801189D01*
X78698849Y20490120D01*
X79248000Y20380887D01*
X79797151Y20490120D01*
X80262698Y20801189D01*
X80518000Y21183275D01*
X80773302Y20801189D01*
X81238849Y20490120D01*
X81788000Y20380887D01*
X82337151Y20490120D01*
X82802698Y20801189D01*
X83113767Y21266736D01*
X83223000Y21815887D01*
X83223000Y21872113D01*
X83113767Y22421264D01*
X82802698Y22886811D01*
X82337151Y23197880D01*
X82228604Y23219471D01*
X82590566Y23581433D01*
X82836603Y23949654D01*
X82848942Y24011685D01*
X82923000Y24384000D01*
X82923000Y28601233D01*
X83113767Y28886736D01*
X83223000Y29435887D01*
X83223000Y29492113D01*
X83113767Y30041264D01*
X83075189Y30099000D01*
X84201000Y30099000D01*
X84248789Y30108334D01*
X84290803Y30136197D01*
X85650606Y31496000D01*
X97080000Y31496000D01*
X97080000Y4790553D01*
X96632604Y5238731D01*
X95572467Y5678938D01*
X94424569Y5679940D01*
X93363665Y5241583D01*
X92551269Y4430604D01*
X92111062Y3370467D01*
X92110060Y2222569D01*
X92548417Y1161665D01*
X92999294Y710000D01*
X47589331Y710000D01*
X48164731Y1284396D01*
X48604938Y2344533D01*
X48605940Y3492431D01*
X48167583Y4553335D01*
X47356604Y5365731D01*
X46296467Y5805938D01*
X45148569Y5806940D01*
X44087665Y5368583D01*
X43275269Y4557604D01*
X42835062Y3497467D01*
X42834060Y2349569D01*
X43272417Y1288665D01*
X43850073Y710000D01*
X34396372Y710000D01*
X36613787Y2927416D01*
X36613790Y2927418D01*
X36805633Y3214533D01*
X36835649Y3365431D01*
X36869855Y3537392D01*
X37288551Y3955357D01*
X37522733Y4519330D01*
X37523265Y5129991D01*
X37290068Y5694371D01*
X36908818Y6076288D01*
X37288551Y6455357D01*
X37522733Y7019330D01*
X37523265Y7629991D01*
X37290068Y8194371D01*
X36858643Y8626551D01*
X36294670Y8860733D01*
X36014000Y8860978D01*
X36014000Y9214804D01*
X53717409Y9214804D01*
X53802467Y8959461D01*
X54371965Y8751484D01*
X54977700Y8777277D01*
X55417533Y8959461D01*
X55502591Y9214804D01*
X54610000Y10107395D01*
X53717409Y9214804D01*
X36014000Y9214804D01*
X36014000Y10525035D01*
X53074484Y10525035D01*
X53100277Y9919300D01*
X53282461Y9479467D01*
X53537804Y9394409D01*
X54430395Y10287000D01*
X54789605Y10287000D01*
X55682196Y9394409D01*
X55937539Y9479467D01*
X56145516Y10048965D01*
X56119723Y10654700D01*
X55937539Y11094533D01*
X55682196Y11179591D01*
X54789605Y10287000D01*
X54430395Y10287000D01*
X53537804Y11179591D01*
X53282461Y11094533D01*
X53074484Y10525035D01*
X36014000Y10525035D01*
X36014000Y11359196D01*
X53717409Y11359196D01*
X54610000Y10466605D01*
X55502591Y11359196D01*
X55417533Y11614539D01*
X54848035Y11822516D01*
X54242300Y11796723D01*
X53802467Y11614539D01*
X53717409Y11359196D01*
X36014000Y11359196D01*
X36014000Y15737914D01*
X36385269Y15737914D01*
X36587854Y15247620D01*
X36962647Y14872173D01*
X37452587Y14668732D01*
X37983086Y14668269D01*
X38420281Y14848914D01*
X39687269Y14848914D01*
X39889854Y14358620D01*
X40264647Y13983173D01*
X40754587Y13779732D01*
X41285086Y13779269D01*
X41775380Y13981854D01*
X42150827Y14356647D01*
X42354268Y14846587D01*
X42354731Y15377086D01*
X42152146Y15867380D01*
X41777353Y16242827D01*
X41287413Y16446268D01*
X40756914Y16446731D01*
X40266620Y16244146D01*
X39891173Y15869353D01*
X39687732Y15379413D01*
X39687269Y14848914D01*
X38420281Y14848914D01*
X38473380Y14870854D01*
X38848827Y15245647D01*
X39052268Y15735587D01*
X39052731Y16266086D01*
X38850146Y16756380D01*
X38475353Y17131827D01*
X37985413Y17335268D01*
X37454914Y17335731D01*
X36964620Y17133146D01*
X36589173Y16758353D01*
X36385732Y16268413D01*
X36385269Y15737914D01*
X36014000Y15737914D01*
X36014000Y17618334D01*
X36308827Y17912647D01*
X36512268Y18402587D01*
X36512731Y18933086D01*
X36310146Y19423380D01*
X35953898Y19780250D01*
X46990000Y19780250D01*
X46990000Y19050691D01*
X47086673Y18817302D01*
X47265301Y18638673D01*
X47498690Y18542000D01*
X48228250Y18542000D01*
X48387000Y18700750D01*
X48387000Y19939000D01*
X48641000Y19939000D01*
X48641000Y18700750D01*
X48799750Y18542000D01*
X49529310Y18542000D01*
X49762699Y18638673D01*
X49941327Y18817302D01*
X50038000Y19050691D01*
X50038000Y19780250D01*
X49879250Y19939000D01*
X48641000Y19939000D01*
X48387000Y19939000D01*
X47148750Y19939000D01*
X46990000Y19780250D01*
X35953898Y19780250D01*
X35935353Y19798827D01*
X35445413Y20002268D01*
X35026234Y20002634D01*
X34880434Y20148434D01*
X34813736Y20193000D01*
X34609541Y20329439D01*
X34290000Y20393000D01*
X34210200Y20393000D01*
X34213440Y20409000D01*
X34213440Y21081309D01*
X46990000Y21081309D01*
X46990000Y20351750D01*
X47148750Y20193000D01*
X48387000Y20193000D01*
X48387000Y21431250D01*
X48641000Y21431250D01*
X48641000Y20193000D01*
X49879250Y20193000D01*
X50038000Y20351750D01*
X50038000Y21081309D01*
X49941327Y21314698D01*
X49803112Y21452914D01*
X52897712Y21452914D01*
X53100297Y20962620D01*
X53475090Y20587173D01*
X53965030Y20383732D01*
X54495529Y20383269D01*
X54985823Y20585854D01*
X55361270Y20960647D01*
X55564711Y21450587D01*
X55565174Y21981086D01*
X55362589Y22471380D01*
X54987796Y22846827D01*
X54497856Y23050268D01*
X53967357Y23050731D01*
X53477063Y22848146D01*
X53101616Y22473353D01*
X52898175Y21983413D01*
X52897712Y21452914D01*
X49803112Y21452914D01*
X49762699Y21493327D01*
X49529310Y21590000D01*
X48799750Y21590000D01*
X48641000Y21431250D01*
X48387000Y21431250D01*
X48228250Y21590000D01*
X47498690Y21590000D01*
X47265301Y21493327D01*
X47086673Y21314698D01*
X46990000Y21081309D01*
X34213440Y21081309D01*
X34213440Y22009000D01*
X34169162Y22244317D01*
X34030090Y22460441D01*
X33817890Y22605431D01*
X33662911Y22636815D01*
X33808811Y22734302D01*
X34119880Y23199849D01*
X34151321Y23357914D01*
X36385269Y23357914D01*
X36587854Y22867620D01*
X36962647Y22492173D01*
X37452587Y22288732D01*
X37983086Y22288269D01*
X38473380Y22490854D01*
X38848827Y22865647D01*
X39052268Y23355587D01*
X39052731Y23886086D01*
X38850146Y24376380D01*
X38475353Y24751827D01*
X37985413Y24955268D01*
X37454914Y24955731D01*
X36964620Y24753146D01*
X36589173Y24378353D01*
X36385732Y23888413D01*
X36385269Y23357914D01*
X34151321Y23357914D01*
X34229113Y23749000D01*
X34119880Y24298151D01*
X33808811Y24763698D01*
X33404297Y25033986D01*
X33621134Y25136611D01*
X33997041Y25551577D01*
X34018971Y25604523D01*
X34047854Y25534620D01*
X34422647Y25159173D01*
X34912587Y24955732D01*
X35443086Y24955269D01*
X35933380Y25157854D01*
X36308827Y25532647D01*
X36512268Y26022587D01*
X36512445Y26225500D01*
X39421060Y26225500D01*
X39421060Y24320500D01*
X39465338Y24085183D01*
X39604410Y23869059D01*
X39816610Y23724069D01*
X40068500Y23673060D01*
X40075201Y23673060D01*
X39891173Y23489353D01*
X39687732Y22999413D01*
X39687269Y22468914D01*
X39889854Y21978620D01*
X40264647Y21603173D01*
X40754587Y21399732D01*
X41285086Y21399269D01*
X41775380Y21601854D01*
X42150827Y21976647D01*
X42354268Y22466587D01*
X42354731Y22997086D01*
X42152146Y23487380D01*
X41966789Y23673060D01*
X41973500Y23673060D01*
X42208817Y23717338D01*
X42424941Y23856410D01*
X42569931Y24068610D01*
X42620940Y24320500D01*
X42620940Y24844188D01*
X46989736Y24844188D01*
X47221262Y24283851D01*
X47649596Y23854769D01*
X48209528Y23622265D01*
X48815812Y23621736D01*
X49376149Y23853262D01*
X49805231Y24281596D01*
X50037735Y24841528D01*
X50038264Y25447812D01*
X49806738Y26008149D01*
X49378404Y26437231D01*
X48818472Y26669735D01*
X48212188Y26670264D01*
X47651851Y26438738D01*
X47222769Y26010404D01*
X46990265Y25450472D01*
X46989736Y24844188D01*
X42620940Y24844188D01*
X42620940Y26225500D01*
X42576662Y26460817D01*
X42437590Y26676941D01*
X42225390Y26821931D01*
X41973500Y26872940D01*
X40068500Y26872940D01*
X39833183Y26828662D01*
X39617059Y26689590D01*
X39472069Y26477390D01*
X39421060Y26225500D01*
X36512445Y26225500D01*
X36512731Y26553086D01*
X36310146Y27043380D01*
X35935353Y27418827D01*
X35445413Y27622268D01*
X34914914Y27622731D01*
X34424620Y27420146D01*
X34049173Y27045353D01*
X34019149Y26973047D01*
X33997041Y27026423D01*
X33621134Y27441389D01*
X33404297Y27544014D01*
X33808811Y27814302D01*
X34119880Y28279849D01*
X34229113Y28829000D01*
X34119880Y29378151D01*
X33808811Y29843698D01*
X33343264Y30154767D01*
X32794113Y30264000D01*
X32737887Y30264000D01*
X32188736Y30154767D01*
X31723189Y29843698D01*
X31412120Y29378151D01*
X31302887Y28829000D01*
X31412120Y28279849D01*
X31723189Y27814302D01*
X32127703Y27544014D01*
X31910866Y27441389D01*
X31534959Y27026423D01*
X31374096Y26638039D01*
X31496085Y26416000D01*
X32639000Y26416000D01*
X32639000Y26436000D01*
X32893000Y26436000D01*
X32893000Y26416000D01*
X32913000Y26416000D01*
X32913000Y26162000D01*
X32893000Y26162000D01*
X32893000Y26142000D01*
X32639000Y26142000D01*
X32639000Y26162000D01*
X31496085Y26162000D01*
X31374096Y25939961D01*
X31534959Y25551577D01*
X31910866Y25136611D01*
X32127703Y25033986D01*
X31723189Y24763698D01*
X31412120Y24298151D01*
X31302887Y23749000D01*
X31412120Y23199849D01*
X31723189Y22734302D01*
X31867465Y22637899D01*
X31730683Y22612162D01*
X31514559Y22473090D01*
X31369569Y22260890D01*
X31318560Y22009000D01*
X31318560Y20409000D01*
X31321571Y20393000D01*
X26321577Y20393000D01*
X26499880Y20659849D01*
X26609113Y21209000D01*
X26499880Y21758151D01*
X26188811Y22223698D01*
X25806725Y22479000D01*
X26188811Y22734302D01*
X26499880Y23199849D01*
X26609113Y23749000D01*
X26499880Y24298151D01*
X26188811Y24763698D01*
X25806725Y25019000D01*
X26188811Y25274302D01*
X26499880Y25739849D01*
X26609113Y26289000D01*
X26499880Y26838151D01*
X26188811Y27303698D01*
X25784297Y27573986D01*
X26001134Y27676611D01*
X26377041Y28091577D01*
X26537904Y28479961D01*
X26415915Y28702000D01*
X25273000Y28702000D01*
X25273000Y28682000D01*
X25019000Y28682000D01*
X25019000Y28702000D01*
X24999000Y28702000D01*
X24999000Y28956000D01*
X25019000Y28956000D01*
X25019000Y30099629D01*
X25273000Y30099629D01*
X25273000Y28956000D01*
X26415915Y28956000D01*
X26537904Y29178039D01*
X26377041Y29566423D01*
X26001134Y29981389D01*
X25495041Y30220914D01*
X25273000Y30099629D01*
X25019000Y30099629D01*
X24796959Y30220914D01*
X24290866Y29981389D01*
X23914959Y29566423D01*
X23835373Y29374272D01*
X23723961Y29934378D01*
X23402054Y30416147D01*
X22920285Y30738054D01*
X22352000Y30851093D01*
X21783715Y30738054D01*
X21301946Y30416147D01*
X21274150Y30374548D01*
X21265162Y30422317D01*
X21126090Y30638441D01*
X20913890Y30783431D01*
X20662000Y30834440D01*
X18962000Y30834440D01*
X18726683Y30790162D01*
X18510559Y30651090D01*
X18365569Y30438890D01*
X18314560Y30187000D01*
X18314560Y28487000D01*
X18358838Y28251683D01*
X18497910Y28035559D01*
X18710110Y27890569D01*
X18962000Y27839560D01*
X20662000Y27839560D01*
X20897317Y27883838D01*
X21113441Y28022910D01*
X21258431Y28235110D01*
X21272086Y28302541D01*
X21301946Y28257853D01*
X21783715Y27935946D01*
X22352000Y27822907D01*
X22920285Y27935946D01*
X23402054Y28257853D01*
X23711000Y28720224D01*
X23711000Y28701998D01*
X23876084Y28701998D01*
X23754096Y28479961D01*
X23914959Y28091577D01*
X24290866Y27676611D01*
X24507703Y27573986D01*
X24103189Y27303698D01*
X23792120Y26838151D01*
X23685512Y26302197D01*
X23685731Y26553086D01*
X23483146Y27043380D01*
X23108353Y27418827D01*
X22618413Y27622268D01*
X22087914Y27622731D01*
X21597620Y27420146D01*
X21222173Y27045353D01*
X21145563Y26860856D01*
X21070146Y27043380D01*
X20695353Y27418827D01*
X20205413Y27622268D01*
X19674914Y27622731D01*
X19184620Y27420146D01*
X18809173Y27045353D01*
X18605732Y26555413D01*
X18605269Y26024914D01*
X18807854Y25534620D01*
X19182647Y25159173D01*
X19672587Y24955732D01*
X20203086Y24955269D01*
X20693380Y25157854D01*
X21068827Y25532647D01*
X21145437Y25717144D01*
X21220854Y25534620D01*
X21595647Y25159173D01*
X21933446Y25018906D01*
X21597620Y24880146D01*
X21222173Y24505353D01*
X21018732Y24015413D01*
X21018269Y23484914D01*
X21220854Y22994620D01*
X21595647Y22619173D01*
X22085587Y22415732D01*
X22616086Y22415269D01*
X23106380Y22617854D01*
X23481827Y22992647D01*
X23685268Y23482587D01*
X23685489Y23735918D01*
X23792120Y23199849D01*
X24103189Y22734302D01*
X24485275Y22479000D01*
X24103189Y22223698D01*
X23792120Y21758151D01*
X23682887Y21209000D01*
X23792120Y20659849D01*
X23970423Y20393000D01*
X20828000Y20393000D01*
X20508459Y20329439D01*
X20304264Y20193000D01*
X20237566Y20148434D01*
X20091499Y20002367D01*
X19674914Y20002731D01*
X19184620Y19800146D01*
X18809173Y19425353D01*
X18605732Y18935413D01*
X18605269Y18404914D01*
X18807854Y17914620D01*
X19182647Y17539173D01*
X19672587Y17335732D01*
X20203086Y17335269D01*
X20693380Y17537854D01*
X21068827Y17912647D01*
X21272268Y18402587D01*
X21272548Y18723000D01*
X23949146Y18723000D01*
X23762173Y18536353D01*
X23558732Y18046413D01*
X23558269Y17515914D01*
X23760854Y17025620D01*
X24010260Y16775779D01*
X24061563Y16517868D01*
X24074367Y16453497D01*
X24266210Y16166382D01*
X27060501Y13372092D01*
X27060501Y10356298D01*
X26981701Y10277499D01*
X22044504Y10277499D01*
X22044499Y10277500D01*
X21723942Y10213736D01*
X21705824Y10210132D01*
X21418709Y10018289D01*
X21418707Y10018286D01*
X17609990Y6209569D01*
X17610301Y6566599D01*
X17346719Y7204515D01*
X16859082Y7693004D01*
X16221627Y7957699D01*
X15531401Y7958301D01*
X15432248Y7917332D01*
X15209999Y8139581D01*
X15209999Y8620502D01*
X15528373Y8488301D01*
X16218599Y8487699D01*
X16856515Y8751281D01*
X17345004Y9238918D01*
X17609699Y9876373D01*
X17610301Y10566599D01*
X17346719Y11204515D01*
X17172139Y11379401D01*
X18339699Y11379401D01*
X18603281Y10741485D01*
X19090918Y10252996D01*
X19728373Y9988301D01*
X20418599Y9987699D01*
X21056515Y10251281D01*
X21545004Y10738918D01*
X21809699Y11376373D01*
X21810301Y12066599D01*
X21546719Y12704515D01*
X21059082Y13193004D01*
X20421627Y13457699D01*
X19731401Y13458301D01*
X19093485Y13194719D01*
X18604996Y12707082D01*
X18340301Y12069627D01*
X18339699Y11379401D01*
X17172139Y11379401D01*
X16859082Y11693004D01*
X16221627Y11957699D01*
X15531401Y11958301D01*
X15209999Y11825500D01*
X15209999Y15355419D01*
X16555150Y16700571D01*
X16901086Y16700269D01*
X17391380Y16902854D01*
X17766827Y17277647D01*
X17970268Y17767587D01*
X17970731Y18298086D01*
X17768146Y18788380D01*
X17393353Y19163827D01*
X16903413Y19367268D01*
X16372914Y19367731D01*
X15882620Y19165146D01*
X15507173Y18790353D01*
X15366906Y18452554D01*
X15228146Y18788380D01*
X14853353Y19163827D01*
X14363413Y19367268D01*
X13832914Y19367731D01*
X13342620Y19165146D01*
X12967173Y18790353D01*
X12826906Y18452554D01*
X12688146Y18788380D01*
X12313353Y19163827D01*
X11823413Y19367268D01*
X11292914Y19367731D01*
X10802620Y19165146D01*
X10427173Y18790353D01*
X10286906Y18452554D01*
X10148146Y18788380D01*
X9773353Y19163827D01*
X9283413Y19367268D01*
X8752914Y19367731D01*
X8262620Y19165146D01*
X7887173Y18790353D01*
X7683732Y18300413D01*
X7683269Y17769914D01*
X7885854Y17279620D01*
X8260647Y16904173D01*
X8750587Y16700732D01*
X9281086Y16700269D01*
X9771380Y16902854D01*
X10146827Y17277647D01*
X10287094Y17615446D01*
X10425854Y17279620D01*
X10800647Y16904173D01*
X11290587Y16700732D01*
X11821086Y16700269D01*
X12311380Y16902854D01*
X12686827Y17277647D01*
X12827094Y17615446D01*
X12965854Y17279620D01*
X13340647Y16904173D01*
X13830587Y16700732D01*
X14051959Y16700539D01*
X13699209Y16347789D01*
X13507366Y16060674D01*
X13507366Y16060673D01*
X13439998Y15721999D01*
X13439999Y15721994D01*
X13439999Y7773006D01*
X13439998Y7773001D01*
X13481042Y7566664D01*
X13507366Y7434326D01*
X13659205Y7207082D01*
X13699209Y7147211D01*
X14180348Y6666072D01*
X14140301Y6569627D01*
X14140245Y6505707D01*
X13944346Y6636603D01*
X13510000Y6723000D01*
X10575204Y6723000D01*
X10325363Y6973278D01*
X9724648Y7222716D01*
X9074205Y7223284D01*
X8473057Y6974894D01*
X8012722Y6515363D01*
X7763284Y5914648D01*
X7762716Y5264205D01*
X8011106Y4663057D01*
X8470637Y4202722D01*
X9071352Y3953284D01*
X9721795Y3952716D01*
X10322943Y4201106D01*
X10575278Y4453000D01*
X13039868Y4453000D01*
X14140112Y3352756D01*
X14139699Y2879401D01*
X14403281Y2241485D01*
X14489615Y2155000D01*
X4049579Y2155000D01*
X1901000Y4303580D01*
X1901000Y5264205D01*
X2162716Y5264205D01*
X2411106Y4663057D01*
X2870637Y4202722D01*
X3471352Y3953284D01*
X4121795Y3952716D01*
X4722943Y4201106D01*
X5183278Y4660637D01*
X5432716Y5261352D01*
X5433284Y5911795D01*
X5184894Y6512943D01*
X4725363Y6973278D01*
X4124648Y7222716D01*
X3474205Y7223284D01*
X2873057Y6974894D01*
X2412722Y6515363D01*
X2163284Y5914648D01*
X2162716Y5264205D01*
X1901000Y5264205D01*
X1901000Y10764205D01*
X2762716Y10764205D01*
X3011106Y10163057D01*
X3470637Y9702722D01*
X4071352Y9453284D01*
X4721795Y9452716D01*
X5322943Y9701106D01*
X5557715Y9935468D01*
X7825073Y9935468D01*
X7923736Y9668613D01*
X8533461Y9442092D01*
X9183460Y9466144D01*
X9672264Y9668613D01*
X9770927Y9935468D01*
X8798000Y10908395D01*
X7825073Y9935468D01*
X5557715Y9935468D01*
X5783278Y10160637D01*
X6032716Y10761352D01*
X6033232Y11352539D01*
X7152092Y11352539D01*
X7176144Y10702540D01*
X7378613Y10213736D01*
X7645468Y10115073D01*
X8618395Y11088000D01*
X8977605Y11088000D01*
X9950532Y10115073D01*
X10217387Y10213736D01*
X10443908Y10823461D01*
X10419856Y11473460D01*
X10217387Y11962264D01*
X9950532Y12060927D01*
X8977605Y11088000D01*
X8618395Y11088000D01*
X7645468Y12060927D01*
X7378613Y11962264D01*
X7152092Y11352539D01*
X6033232Y11352539D01*
X6033284Y11411795D01*
X5784894Y12012943D01*
X5557703Y12240532D01*
X7825073Y12240532D01*
X8798000Y11267605D01*
X9770927Y12240532D01*
X9672264Y12507387D01*
X9062539Y12733908D01*
X8412540Y12709856D01*
X7923736Y12507387D01*
X7825073Y12240532D01*
X5557703Y12240532D01*
X5325363Y12473278D01*
X4724648Y12722716D01*
X4074205Y12723284D01*
X3473057Y12474894D01*
X3012722Y12015363D01*
X2763284Y11414648D01*
X2762716Y10764205D01*
X1901000Y10764205D01*
X1901000Y15762420D01*
X3474150Y17335571D01*
X3820086Y17335269D01*
X4310380Y17537854D01*
X4685827Y17912647D01*
X4889268Y18402587D01*
X4889731Y18933086D01*
X4687146Y19423380D01*
X4312353Y19798827D01*
X3822413Y20002268D01*
X3291914Y20002731D01*
X2801620Y19800146D01*
X2426173Y19425353D01*
X2222732Y18935413D01*
X2222428Y18587007D01*
X710000Y17074580D01*
X710000Y26024914D01*
X2222269Y26024914D01*
X2424854Y25534620D01*
X2799647Y25159173D01*
X3289587Y24955732D01*
X3820086Y24955269D01*
X4310380Y25157854D01*
X4685827Y25532647D01*
X4889268Y26022587D01*
X4889731Y26553086D01*
X4687146Y27043380D01*
X4312353Y27418827D01*
X4216665Y27458560D01*
X4660000Y27458560D01*
X4895317Y27502838D01*
X5111441Y27641910D01*
X5256431Y27854110D01*
X5270086Y27921541D01*
X5299946Y27876853D01*
X5781715Y27554946D01*
X5876319Y27536128D01*
X5595620Y27420146D01*
X5220173Y27045353D01*
X5016732Y26555413D01*
X5016269Y26024914D01*
X5218854Y25534620D01*
X5593647Y25159173D01*
X5931446Y25018906D01*
X5595620Y24880146D01*
X5220173Y24505353D01*
X5016732Y24015413D01*
X5016269Y23484914D01*
X5218854Y22994620D01*
X5593647Y22619173D01*
X6083587Y22415732D01*
X6614086Y22415269D01*
X7104380Y22617854D01*
X7479827Y22992647D01*
X7631621Y23358207D01*
X7663120Y23199849D01*
X7974189Y22734302D01*
X8356275Y22479000D01*
X7974189Y22223698D01*
X7663120Y21758151D01*
X7553887Y21209000D01*
X7663120Y20659849D01*
X7974189Y20194302D01*
X8439736Y19883233D01*
X8988887Y19774000D01*
X9045113Y19774000D01*
X9594264Y19883233D01*
X10059811Y20194302D01*
X10370880Y20659849D01*
X10480113Y21209000D01*
X10370880Y21758151D01*
X10059811Y22223698D01*
X9677725Y22479000D01*
X10059811Y22734302D01*
X10370880Y23199849D01*
X10480113Y23749000D01*
X15173887Y23749000D01*
X15283120Y23199849D01*
X15594189Y22734302D01*
X15738465Y22637899D01*
X15601683Y22612162D01*
X15385559Y22473090D01*
X15240569Y22260890D01*
X15189560Y22009000D01*
X15189560Y20409000D01*
X15233838Y20173683D01*
X15372910Y19957559D01*
X15585110Y19812569D01*
X15837000Y19761560D01*
X17437000Y19761560D01*
X17672317Y19805838D01*
X17888441Y19944910D01*
X18033431Y20157110D01*
X18084440Y20409000D01*
X18084440Y22009000D01*
X18040162Y22244317D01*
X17901090Y22460441D01*
X17688890Y22605431D01*
X17533911Y22636815D01*
X17679811Y22734302D01*
X17990880Y23199849D01*
X18100113Y23749000D01*
X17990880Y24298151D01*
X17679811Y24763698D01*
X17275297Y25033986D01*
X17492134Y25136611D01*
X17868041Y25551577D01*
X18028904Y25939961D01*
X17906915Y26162000D01*
X16764000Y26162000D01*
X16764000Y26142000D01*
X16510000Y26142000D01*
X16510000Y26162000D01*
X15367085Y26162000D01*
X15245096Y25939961D01*
X15405959Y25551577D01*
X15781866Y25136611D01*
X15998703Y25033986D01*
X15594189Y24763698D01*
X15283120Y24298151D01*
X15173887Y23749000D01*
X10480113Y23749000D01*
X10370880Y24298151D01*
X10059811Y24763698D01*
X9677725Y25019000D01*
X10059811Y25274302D01*
X10370880Y25739849D01*
X10480113Y26289000D01*
X10370880Y26838151D01*
X10059811Y27303698D01*
X9655297Y27573986D01*
X9872134Y27676611D01*
X10248041Y28091577D01*
X10408904Y28479961D01*
X10286915Y28702000D01*
X9144000Y28702000D01*
X9144000Y28682000D01*
X8890000Y28682000D01*
X8890000Y28702000D01*
X8870000Y28702000D01*
X8870000Y28829000D01*
X15173887Y28829000D01*
X15283120Y28279849D01*
X15594189Y27814302D01*
X15998703Y27544014D01*
X15781866Y27441389D01*
X15405959Y27026423D01*
X15245096Y26638039D01*
X15367085Y26416000D01*
X16510000Y26416000D01*
X16510000Y26436000D01*
X16764000Y26436000D01*
X16764000Y26416000D01*
X17906915Y26416000D01*
X18028904Y26638039D01*
X17868041Y27026423D01*
X17492134Y27441389D01*
X17275297Y27544014D01*
X17679811Y27814302D01*
X17990880Y28279849D01*
X18100113Y28829000D01*
X17990880Y29378151D01*
X17679811Y29843698D01*
X17214264Y30154767D01*
X16665113Y30264000D01*
X16608887Y30264000D01*
X16059736Y30154767D01*
X15594189Y29843698D01*
X15283120Y29378151D01*
X15173887Y28829000D01*
X8870000Y28829000D01*
X8870000Y28956000D01*
X8890000Y28956000D01*
X8890000Y30099629D01*
X9144000Y30099629D01*
X9144000Y28956000D01*
X10286915Y28956000D01*
X10408904Y29178039D01*
X10248041Y29566423D01*
X9872134Y29981389D01*
X9366041Y30220914D01*
X9144000Y30099629D01*
X8890000Y30099629D01*
X8667959Y30220914D01*
X8161866Y29981389D01*
X7785959Y29566423D01*
X7740971Y29457806D01*
X7721961Y29553378D01*
X7400054Y30035147D01*
X6918285Y30357054D01*
X6350000Y30470093D01*
X5781715Y30357054D01*
X5299946Y30035147D01*
X5272150Y29993548D01*
X5263162Y30041317D01*
X5124090Y30257441D01*
X4911890Y30402431D01*
X4660000Y30453440D01*
X2960000Y30453440D01*
X2724683Y30409162D01*
X2508559Y30270090D01*
X2363569Y30057890D01*
X2312560Y29806000D01*
X2312560Y28106000D01*
X2356838Y27870683D01*
X2495910Y27654559D01*
X2708110Y27509569D01*
X2916103Y27467449D01*
X2801620Y27420146D01*
X2426173Y27045353D01*
X2222732Y26555413D01*
X2222269Y26024914D01*
X710000Y26024914D01*
X710000Y36057914D01*
X5143269Y36057914D01*
X5345854Y35567620D01*
X5720647Y35192173D01*
X6210587Y34988732D01*
X6741086Y34988269D01*
X7231380Y35190854D01*
X7606827Y35565647D01*
X7810268Y36055587D01*
X7810270Y36057914D01*
X16319269Y36057914D01*
X16521854Y35567620D01*
X16896647Y35192173D01*
X17386587Y34988732D01*
X17917086Y34988269D01*
X18407380Y35190854D01*
X18782827Y35565647D01*
X18986268Y36055587D01*
X18986270Y36057914D01*
X19875269Y36057914D01*
X20077854Y35567620D01*
X20452647Y35192173D01*
X20942587Y34988732D01*
X21473086Y34988269D01*
X21963380Y35190854D01*
X22338827Y35565647D01*
X22542268Y36055587D01*
X22542270Y36057914D01*
X31051269Y36057914D01*
X31253854Y35567620D01*
X31628647Y35192173D01*
X32118587Y34988732D01*
X32649086Y34988269D01*
X33139380Y35190854D01*
X33514827Y35565647D01*
X33718268Y36055587D01*
X33718731Y36586086D01*
X33516146Y37076380D01*
X33141353Y37451827D01*
X32651413Y37655268D01*
X32120914Y37655731D01*
X31630620Y37453146D01*
X31255173Y37078353D01*
X31051732Y36588413D01*
X31051269Y36057914D01*
X22542270Y36057914D01*
X22542731Y36586086D01*
X22340146Y37076380D01*
X21965353Y37451827D01*
X21475413Y37655268D01*
X20944914Y37655731D01*
X20454620Y37453146D01*
X20079173Y37078353D01*
X19875732Y36588413D01*
X19875269Y36057914D01*
X18986270Y36057914D01*
X18986731Y36586086D01*
X18784146Y37076380D01*
X18409353Y37451827D01*
X17919413Y37655268D01*
X17388914Y37655731D01*
X16898620Y37453146D01*
X16523173Y37078353D01*
X16319732Y36588413D01*
X16319269Y36057914D01*
X7810270Y36057914D01*
X7810731Y36586086D01*
X7608146Y37076380D01*
X7233353Y37451827D01*
X6743413Y37655268D01*
X6212914Y37655731D01*
X5722620Y37453146D01*
X5347173Y37078353D01*
X5143732Y36588413D01*
X5143269Y36057914D01*
X710000Y36057914D01*
X710000Y38643447D01*
X1157396Y38195269D01*
X2217533Y37755062D01*
X3365431Y37754060D01*
X4426335Y38192417D01*
X5238731Y39003396D01*
X5549163Y39751000D01*
X7988560Y39751000D01*
X7988560Y37973000D01*
X8032838Y37737683D01*
X8171910Y37521559D01*
X8384110Y37376569D01*
X8636000Y37325560D01*
X10414000Y37325560D01*
X10649317Y37369838D01*
X10865441Y37508910D01*
X11010431Y37721110D01*
X11061440Y37973000D01*
X11061440Y38560188D01*
X13080736Y38560188D01*
X13312262Y37999851D01*
X13740596Y37570769D01*
X14300528Y37338265D01*
X14906812Y37337736D01*
X15467149Y37569262D01*
X15896231Y37997596D01*
X16128735Y38557528D01*
X16129264Y39163812D01*
X15897738Y39724149D01*
X15870934Y39751000D01*
X22720560Y39751000D01*
X22720560Y37973000D01*
X22764838Y37737683D01*
X22903910Y37521559D01*
X23116110Y37376569D01*
X23368000Y37325560D01*
X25146000Y37325560D01*
X25381317Y37369838D01*
X25597441Y37508910D01*
X25742431Y37721110D01*
X25793440Y37973000D01*
X25793440Y38560188D01*
X27812736Y38560188D01*
X28044262Y37999851D01*
X28472596Y37570769D01*
X29032528Y37338265D01*
X29638812Y37337736D01*
X30199149Y37569262D01*
X30628231Y37997596D01*
X30664320Y38084508D01*
X30893603Y38427654D01*
X30980000Y38862000D01*
X30893603Y39296346D01*
X30665362Y39637933D01*
X30629738Y39724149D01*
X30201404Y40153231D01*
X29641472Y40385735D01*
X29035188Y40386264D01*
X28474851Y40154738D01*
X28045769Y39726404D01*
X27813265Y39166472D01*
X27812736Y38560188D01*
X25793440Y38560188D01*
X25793440Y39751000D01*
X25749162Y39986317D01*
X25610090Y40202441D01*
X25397890Y40347431D01*
X25146000Y40398440D01*
X23368000Y40398440D01*
X23132683Y40354162D01*
X22916559Y40215090D01*
X22771569Y40002890D01*
X22720560Y39751000D01*
X15870934Y39751000D01*
X15469404Y40153231D01*
X14909472Y40385735D01*
X14303188Y40386264D01*
X13742851Y40154738D01*
X13313769Y39726404D01*
X13081265Y39166472D01*
X13080736Y38560188D01*
X11061440Y38560188D01*
X11061440Y39751000D01*
X11017162Y39986317D01*
X10878090Y40202441D01*
X10665890Y40347431D01*
X10414000Y40398440D01*
X8636000Y40398440D01*
X8400683Y40354162D01*
X8184559Y40215090D01*
X8039569Y40002890D01*
X7988560Y39751000D01*
X5549163Y39751000D01*
X5678938Y40063533D01*
X5679940Y41211431D01*
X5241583Y42272335D01*
X4430604Y43084731D01*
X3370467Y43524938D01*
X2222569Y43525940D01*
X1161665Y43087583D01*
X710000Y42636706D01*
X710000Y43677914D01*
X5143269Y43677914D01*
X5345854Y43187620D01*
X5720647Y42812173D01*
X6210587Y42608732D01*
X6741086Y42608269D01*
X7231380Y42810854D01*
X7606827Y43185647D01*
X7810268Y43675587D01*
X7810270Y43677914D01*
X16319269Y43677914D01*
X16521854Y43187620D01*
X16896647Y42812173D01*
X17386587Y42608732D01*
X17917086Y42608269D01*
X18407380Y42810854D01*
X18782827Y43185647D01*
X18986268Y43675587D01*
X18986270Y43677914D01*
X19875269Y43677914D01*
X20077854Y43187620D01*
X20452647Y42812173D01*
X20942587Y42608732D01*
X21473086Y42608269D01*
X21963380Y42810854D01*
X22338827Y43185647D01*
X22542268Y43675587D01*
X22542270Y43677914D01*
X31051269Y43677914D01*
X31253854Y43187620D01*
X31628647Y42812173D01*
X32118587Y42608732D01*
X32649086Y42608269D01*
X33139380Y42810854D01*
X33514827Y43185647D01*
X33718268Y43675587D01*
X33718731Y44206086D01*
X33516146Y44696380D01*
X33141353Y45071827D01*
X32651413Y45275268D01*
X32120914Y45275731D01*
X31630620Y45073146D01*
X31255173Y44698353D01*
X31051732Y44208413D01*
X31051269Y43677914D01*
X22542270Y43677914D01*
X22542731Y44206086D01*
X22340146Y44696380D01*
X21965353Y45071827D01*
X21475413Y45275268D01*
X20944914Y45275731D01*
X20454620Y45073146D01*
X20079173Y44698353D01*
X19875732Y44208413D01*
X19875269Y43677914D01*
X18986270Y43677914D01*
X18986731Y44206086D01*
X18784146Y44696380D01*
X18409353Y45071827D01*
X17919413Y45275268D01*
X17388914Y45275731D01*
X16898620Y45073146D01*
X16523173Y44698353D01*
X16319732Y44208413D01*
X16319269Y43677914D01*
X7810270Y43677914D01*
X7810731Y44206086D01*
X7608146Y44696380D01*
X7233353Y45071827D01*
X6743413Y45275268D01*
X6212914Y45275731D01*
X5722620Y45073146D01*
X5347173Y44698353D01*
X5143732Y44208413D01*
X5143269Y43677914D01*
X710000Y43677914D01*
X710000Y65567447D01*
X1157396Y65119269D01*
X2217533Y64679062D01*
X3365431Y64678060D01*
X4426335Y65116417D01*
X5238731Y65927396D01*
X5678938Y66987533D01*
X5679940Y68135431D01*
X5241583Y69196335D01*
X4790706Y69648000D01*
X35179000Y69648000D01*
X35179000Y62214000D01*
G36*
X33845269Y18404914D02*
X34047854Y17914620D01*
X34344000Y17617957D01*
X34344000Y8538411D01*
X34302148Y8662643D01*
X33728664Y8872458D01*
X33118540Y8846839D01*
X32673852Y8662643D01*
X32587446Y8406159D01*
X33488000Y7505605D01*
X33502143Y7519747D01*
X33681748Y7340142D01*
X33667605Y7326000D01*
X34568159Y6425446D01*
X34683214Y6464207D01*
X34685932Y6457629D01*
X35067182Y6075712D01*
X34687449Y5696643D01*
X34683706Y5687628D01*
X34568159Y5726554D01*
X33667605Y4826000D01*
X34568159Y3925446D01*
X34683214Y3964207D01*
X34685932Y3957629D01*
X34913188Y3729975D01*
X33338212Y2155000D01*
X17260939Y2155000D01*
X17345004Y2238918D01*
X17609699Y2876373D01*
X17610301Y3566599D01*
X17569332Y3665752D01*
X17649420Y3745841D01*
X30087446Y3745841D01*
X30173852Y3489357D01*
X30747336Y3279542D01*
X31357460Y3305161D01*
X31802148Y3489357D01*
X31888554Y3745841D01*
X32587446Y3745841D01*
X32673852Y3489357D01*
X33247336Y3279542D01*
X33857460Y3305161D01*
X34302148Y3489357D01*
X34388554Y3745841D01*
X33488000Y4646395D01*
X32587446Y3745841D01*
X31888554Y3745841D01*
X30988000Y4646395D01*
X30087446Y3745841D01*
X17649420Y3745841D01*
X18970243Y5066664D01*
X29441542Y5066664D01*
X29467161Y4456540D01*
X29651357Y4011852D01*
X29907841Y3925446D01*
X30808395Y4826000D01*
X31167605Y4826000D01*
X32068159Y3925446D01*
X32238000Y3982663D01*
X32407841Y3925446D01*
X33308395Y4826000D01*
X32407841Y5726554D01*
X32238000Y5669337D01*
X32068159Y5726554D01*
X31167605Y4826000D01*
X30808395Y4826000D01*
X29907841Y5726554D01*
X29651357Y5640148D01*
X29441542Y5066664D01*
X18970243Y5066664D01*
X20149420Y6245841D01*
X30087446Y6245841D01*
X30144663Y6076000D01*
X30087446Y5906159D01*
X30988000Y5005605D01*
X31888554Y5906159D01*
X31831337Y6076000D01*
X31888554Y6245841D01*
X32587446Y6245841D01*
X32644663Y6076000D01*
X32587446Y5906159D01*
X33488000Y5005605D01*
X34388554Y5906159D01*
X34331337Y6076000D01*
X34388554Y6245841D01*
X33488000Y7146395D01*
X32587446Y6245841D01*
X31888554Y6245841D01*
X30988000Y7146395D01*
X30087446Y6245841D01*
X20149420Y6245841D01*
X21470243Y7566664D01*
X29441542Y7566664D01*
X29467161Y6956540D01*
X29651357Y6511852D01*
X29907841Y6425446D01*
X30808395Y7326000D01*
X31167605Y7326000D01*
X32068159Y6425446D01*
X32238000Y6482663D01*
X32407841Y6425446D01*
X33308395Y7326000D01*
X32407841Y8226554D01*
X32238000Y8169337D01*
X32068159Y8226554D01*
X31167605Y7326000D01*
X30808395Y7326000D01*
X29907841Y8226554D01*
X29651357Y8140148D01*
X29441542Y7566664D01*
X21470243Y7566664D01*
X22309738Y8406159D01*
X30087446Y8406159D01*
X30988000Y7505605D01*
X31888554Y8406159D01*
X31802148Y8662643D01*
X31228664Y8872458D01*
X30618540Y8846839D01*
X30173852Y8662643D01*
X30087446Y8406159D01*
X22309738Y8406159D01*
X22411078Y8507499D01*
X27348276Y8507499D01*
X27348281Y8507498D01*
X27630765Y8563689D01*
X27686956Y8574866D01*
X27974071Y8766709D01*
X28056133Y8848771D01*
X28298673Y8605808D01*
X28642201Y8463162D01*
X29014167Y8462838D01*
X29357943Y8604883D01*
X29621192Y8867673D01*
X29671566Y8988986D01*
X33010787Y12328208D01*
X33010790Y12328210D01*
X33202633Y12615325D01*
X33270000Y12954000D01*
X33270000Y16779246D01*
X33514827Y17023647D01*
X33718268Y17513587D01*
X33718731Y18044086D01*
X33516146Y18534380D01*
X33327855Y18723000D01*
X33845547Y18723000D01*
X33845269Y18404914D01*
X33845269Y18404914D01*
G37*
X33845269Y18404914D02*
X34047854Y17914620D01*
X34344000Y17617957D01*
X34344000Y8538411D01*
X34302148Y8662643D01*
X33728664Y8872458D01*
X33118540Y8846839D01*
X32673852Y8662643D01*
X32587446Y8406159D01*
X33488000Y7505605D01*
X33502143Y7519747D01*
X33681748Y7340142D01*
X33667605Y7326000D01*
X34568159Y6425446D01*
X34683214Y6464207D01*
X34685932Y6457629D01*
X35067182Y6075712D01*
X34687449Y5696643D01*
X34683706Y5687628D01*
X34568159Y5726554D01*
X33667605Y4826000D01*
X34568159Y3925446D01*
X34683214Y3964207D01*
X34685932Y3957629D01*
X34913188Y3729975D01*
X33338212Y2155000D01*
X17260939Y2155000D01*
X17345004Y2238918D01*
X17609699Y2876373D01*
X17610301Y3566599D01*
X17569332Y3665752D01*
X17649420Y3745841D01*
X30087446Y3745841D01*
X30173852Y3489357D01*
X30747336Y3279542D01*
X31357460Y3305161D01*
X31802148Y3489357D01*
X31888554Y3745841D01*
X32587446Y3745841D01*
X32673852Y3489357D01*
X33247336Y3279542D01*
X33857460Y3305161D01*
X34302148Y3489357D01*
X34388554Y3745841D01*
X33488000Y4646395D01*
X32587446Y3745841D01*
X31888554Y3745841D01*
X30988000Y4646395D01*
X30087446Y3745841D01*
X17649420Y3745841D01*
X18970243Y5066664D01*
X29441542Y5066664D01*
X29467161Y4456540D01*
X29651357Y4011852D01*
X29907841Y3925446D01*
X30808395Y4826000D01*
X31167605Y4826000D01*
X32068159Y3925446D01*
X32238000Y3982663D01*
X32407841Y3925446D01*
X33308395Y4826000D01*
X32407841Y5726554D01*
X32238000Y5669337D01*
X32068159Y5726554D01*
X31167605Y4826000D01*
X30808395Y4826000D01*
X29907841Y5726554D01*
X29651357Y5640148D01*
X29441542Y5066664D01*
X18970243Y5066664D01*
X20149420Y6245841D01*
X30087446Y6245841D01*
X30144663Y6076000D01*
X30087446Y5906159D01*
X30988000Y5005605D01*
X31888554Y5906159D01*
X31831337Y6076000D01*
X31888554Y6245841D01*
X32587446Y6245841D01*
X32644663Y6076000D01*
X32587446Y5906159D01*
X33488000Y5005605D01*
X34388554Y5906159D01*
X34331337Y6076000D01*
X34388554Y6245841D01*
X33488000Y7146395D01*
X32587446Y6245841D01*
X31888554Y6245841D01*
X30988000Y7146395D01*
X30087446Y6245841D01*
X20149420Y6245841D01*
X21470243Y7566664D01*
X29441542Y7566664D01*
X29467161Y6956540D01*
X29651357Y6511852D01*
X29907841Y6425446D01*
X30808395Y7326000D01*
X31167605Y7326000D01*
X32068159Y6425446D01*
X32238000Y6482663D01*
X32407841Y6425446D01*
X33308395Y7326000D01*
X32407841Y8226554D01*
X32238000Y8169337D01*
X32068159Y8226554D01*
X31167605Y7326000D01*
X30808395Y7326000D01*
X29907841Y8226554D01*
X29651357Y8140148D01*
X29441542Y7566664D01*
X21470243Y7566664D01*
X22309738Y8406159D01*
X30087446Y8406159D01*
X30988000Y7505605D01*
X31888554Y8406159D01*
X31802148Y8662643D01*
X31228664Y8872458D01*
X30618540Y8846839D01*
X30173852Y8662643D01*
X30087446Y8406159D01*
X22309738Y8406159D01*
X22411078Y8507499D01*
X27348276Y8507499D01*
X27348281Y8507498D01*
X27630765Y8563689D01*
X27686956Y8574866D01*
X27974071Y8766709D01*
X28056133Y8848771D01*
X28298673Y8605808D01*
X28642201Y8463162D01*
X29014167Y8462838D01*
X29357943Y8604883D01*
X29621192Y8867673D01*
X29671566Y8988986D01*
X33010787Y12328208D01*
X33010790Y12328210D01*
X33202633Y12615325D01*
X33270000Y12954000D01*
X33270000Y16779246D01*
X33514827Y17023647D01*
X33718268Y17513587D01*
X33718731Y18044086D01*
X33516146Y18534380D01*
X33327855Y18723000D01*
X33845547Y18723000D01*
X33845269Y18404914D01*
G36*
X31253854Y17025620D02*
X31500000Y16779044D01*
X31500000Y13320579D01*
X28830501Y10651081D01*
X28830501Y13738666D01*
X28830502Y13738671D01*
X28763135Y14077345D01*
X28665143Y14224000D01*
X28571291Y14364461D01*
X28571288Y14364463D01*
X25966918Y16968834D01*
X26021827Y17023647D01*
X26162094Y17361446D01*
X26300854Y17025620D01*
X26675647Y16650173D01*
X27165587Y16446732D01*
X27696086Y16446269D01*
X28186380Y16648854D01*
X28561827Y17023647D01*
X28638437Y17208144D01*
X28713854Y17025620D01*
X29088647Y16650173D01*
X29578587Y16446732D01*
X30109086Y16446269D01*
X30599380Y16648854D01*
X30974827Y17023647D01*
X31115094Y17361446D01*
X31253854Y17025620D01*
X31253854Y17025620D01*
G37*
X31253854Y17025620D02*
X31500000Y16779044D01*
X31500000Y13320579D01*
X28830501Y10651081D01*
X28830501Y13738666D01*
X28830502Y13738671D01*
X28763135Y14077345D01*
X28665143Y14224000D01*
X28571291Y14364461D01*
X28571288Y14364463D01*
X25966918Y16968834D01*
X26021827Y17023647D01*
X26162094Y17361446D01*
X26300854Y17025620D01*
X26675647Y16650173D01*
X27165587Y16446732D01*
X27696086Y16446269D01*
X28186380Y16648854D01*
X28561827Y17023647D01*
X28638437Y17208144D01*
X28713854Y17025620D01*
X29088647Y16650173D01*
X29578587Y16446732D01*
X30109086Y16446269D01*
X30599380Y16648854D01*
X30974827Y17023647D01*
X31115094Y17361446D01*
X31253854Y17025620D01*
M02*
