%TF.GenerationSoftware,KiCad,Pcbnew,4.0.6+dfsg1-1*%
%TF.CreationDate,2017-11-11T18:30:39+09:00*%
%TF.ProjectId,USB_DAC1,5553425F444143312E6B696361645F70,rev?*%
%TF.FileFunction,Copper,L2,Bot,Signal*%
%FSLAX46Y46*%
G04 Gerber Fmt 4.6, Leading zero omitted, Abs format (unit mm)*
G04 Created by KiCad (PCBNEW 4.0.6+dfsg1-1) date Sat Nov 11 18:30:39 2017*
%MOMM*%
%LPD*%
G01*
G04 APERTURE LIST*
%ADD10C,0.100000*%
%ADD11R,1.778000X1.778000*%
%ADD12C,1.778000*%
%ADD13R,3.500000X2.000000*%
%ADD14R,7.000000X7.000000*%
%ADD15C,2.000000*%
%ADD16C,4.500880*%
%ADD17R,1.700000X1.700000*%
%ADD18O,1.700000X1.700000*%
%ADD19R,1.651000X1.651000*%
%ADD20C,1.651000*%
%ADD21R,1.250000X1.500000*%
%ADD22R,1.500000X1.250000*%
%ADD23C,2.200000*%
%ADD24R,1.905000X1.905000*%
%ADD25C,1.905000*%
%ADD26C,1.397000*%
%ADD27C,1.800000*%
%ADD28R,1.600000X1.600000*%
%ADD29O,1.600000X1.600000*%
%ADD30C,1.500000*%
%ADD31R,2.000000X3.500000*%
%ADD32C,1.524000*%
%ADD33C,0.600000*%
%ADD34C,1.000000*%
%ADD35C,0.250000*%
%ADD36C,2.000000*%
%ADD37C,0.400000*%
%ADD38C,1.000000*%
%ADD39C,0.500000*%
%ADD40C,0.254000*%
G04 APERTURE END LIST*
D10*
D11*
X54610000Y5207000D03*
D12*
X54610000Y10287000D03*
D13*
X55355000Y61845000D03*
X55355000Y66425000D03*
D14*
X62755000Y64145000D03*
D15*
X3798000Y5588000D03*
X4398000Y11088000D03*
X8798000Y11088000D03*
X9398000Y5588000D03*
D16*
X2794000Y40640000D03*
X45720000Y2921000D03*
X94996000Y2794000D03*
X2794000Y67564000D03*
D17*
X86614000Y49403000D03*
D18*
X86614000Y46863000D03*
D17*
X86614000Y41148000D03*
D18*
X86614000Y43688000D03*
D19*
X65405000Y56134000D03*
D20*
X65405000Y58674000D03*
D21*
X83185000Y63012000D03*
X83185000Y65512000D03*
X93218000Y61448000D03*
X93218000Y58948000D03*
D11*
X45720000Y60579000D03*
D12*
X45720000Y55499000D03*
D22*
X82570000Y45085000D03*
X85070000Y45085000D03*
X59456000Y58039000D03*
X61956000Y58039000D03*
D21*
X50292000Y14371000D03*
X50292000Y16871000D03*
D22*
X45740000Y29845000D03*
X48240000Y29845000D03*
X77069000Y37592000D03*
X74569000Y37592000D03*
D19*
X91567000Y33401000D03*
D20*
X91567000Y35941000D03*
D22*
X78466000Y44831000D03*
X75966000Y44831000D03*
D21*
X88519000Y33548000D03*
X88519000Y36048000D03*
X51435000Y21356000D03*
X51435000Y23856000D03*
D11*
X48514000Y20066000D03*
D12*
X48514000Y25146000D03*
D19*
X75184000Y35433000D03*
D20*
X72644000Y35433000D03*
D19*
X57150000Y34925000D03*
D20*
X57150000Y37465000D03*
D19*
X39878000Y34925000D03*
D20*
X39878000Y37465000D03*
D19*
X57150000Y45847000D03*
D20*
X57150000Y43307000D03*
D19*
X39878000Y45847000D03*
D20*
X39878000Y43307000D03*
D22*
X5735000Y32893000D03*
X8235000Y32893000D03*
X13442000Y36322000D03*
X10942000Y36322000D03*
D11*
X9525000Y38862000D03*
D12*
X14605000Y38862000D03*
D22*
X13315000Y45593000D03*
X10815000Y45593000D03*
X16236000Y32766000D03*
X13736000Y32766000D03*
D17*
X3810000Y28956000D03*
D18*
X6350000Y28956000D03*
D22*
X22245000Y32131000D03*
X24745000Y32131000D03*
X28047000Y45593000D03*
X25547000Y45593000D03*
X28301000Y36068000D03*
X25801000Y36068000D03*
D11*
X24257000Y38862000D03*
D12*
X29337000Y38862000D03*
D22*
X29865000Y31115000D03*
X32365000Y31115000D03*
D17*
X19812000Y29337000D03*
D18*
X22352000Y29337000D03*
D23*
X20075000Y11723000D03*
X15875000Y10223000D03*
X15875000Y6223000D03*
X15875000Y3223000D03*
D24*
X85598000Y66421000D03*
D25*
X90678000Y66421000D03*
D24*
X55372000Y59055000D03*
D25*
X55372000Y53975000D03*
D24*
X41021000Y25273000D03*
D25*
X41021000Y30353000D03*
D24*
X55118000Y25527000D03*
D25*
X55118000Y30607000D03*
D24*
X62484000Y46863000D03*
D25*
X67564000Y46863000D03*
D24*
X67437000Y38862000D03*
D25*
X62357000Y38862000D03*
D24*
X7493000Y53213000D03*
D25*
X7493000Y48133000D03*
D24*
X16637000Y53213000D03*
D25*
X16637000Y48133000D03*
D24*
X25273000Y53340000D03*
D25*
X25273000Y48260000D03*
D24*
X33401000Y53086000D03*
D25*
X33401000Y48006000D03*
D26*
X95377000Y41148000D03*
X95377000Y48768000D03*
X57531000Y51816000D03*
X65151000Y51816000D03*
X41021000Y22733000D03*
X41021000Y15113000D03*
X86233000Y33401000D03*
X78613000Y33401000D03*
X71120000Y14224000D03*
X71120000Y21844000D03*
X60830557Y25527000D03*
X54231443Y21717000D03*
X52197000Y45847000D03*
X44577000Y45847000D03*
X44577000Y34925000D03*
X52197000Y34925000D03*
X68834000Y21844000D03*
X68834000Y14224000D03*
X6477000Y43942000D03*
X6477000Y36322000D03*
X17653000Y43942000D03*
X17653000Y36322000D03*
X3556000Y26289000D03*
X3556000Y18669000D03*
X21209000Y43942000D03*
X21209000Y36322000D03*
X32385000Y43942000D03*
X32385000Y36322000D03*
X19939000Y26289000D03*
X19939000Y18669000D03*
X37719000Y23622000D03*
X37719000Y16002000D03*
X35179000Y18669000D03*
X35179000Y26289000D03*
D27*
X35988000Y4826000D03*
X33488000Y4826000D03*
X30988000Y4826000D03*
X35988000Y7326000D03*
X33488000Y7326000D03*
X30988000Y7326000D03*
D28*
X74168000Y21844000D03*
D29*
X81788000Y29464000D03*
X76708000Y21844000D03*
X79248000Y29464000D03*
X79248000Y21844000D03*
X76708000Y29464000D03*
X81788000Y21844000D03*
X74168000Y29464000D03*
D28*
X16637000Y21209000D03*
D29*
X9017000Y28829000D03*
X16637000Y23749000D03*
X9017000Y26289000D03*
X16637000Y26289000D03*
X9017000Y23749000D03*
X16637000Y28829000D03*
X9017000Y21209000D03*
D28*
X32766000Y21209000D03*
D29*
X25146000Y28829000D03*
X32766000Y23749000D03*
X25146000Y26289000D03*
X32766000Y26289000D03*
X25146000Y23749000D03*
X32766000Y28829000D03*
X25146000Y21209000D03*
D30*
X91313000Y47625000D03*
X91313000Y42725000D03*
D31*
X90555000Y54085000D03*
X85975000Y54085000D03*
D14*
X88255000Y61485000D03*
D22*
X76982000Y25781000D03*
X79482000Y25781000D03*
D26*
X32385000Y17780000D03*
X29845000Y17780000D03*
X22352000Y23749000D03*
X22352000Y26289000D03*
X27432000Y17780000D03*
X24892000Y17780000D03*
X6350000Y23749000D03*
X6350000Y26289000D03*
X16637000Y18034000D03*
X14097000Y18034000D03*
X11557000Y18034000D03*
X9017000Y18034000D03*
D16*
X95123000Y67564000D03*
D32*
X76073000Y52197000D03*
X76073000Y62357000D03*
X78613000Y52197000D03*
X78613000Y62357000D03*
D33*
X58166000Y61087000D03*
X70866000Y69088000D03*
X46736000Y34671000D03*
X46482000Y33274000D03*
X43561000Y32766000D03*
X80899000Y60833000D03*
X81661000Y50927000D03*
X81153000Y51689000D03*
X82677000Y55626000D03*
X84328000Y56896000D03*
X87376000Y56896000D03*
X90170000Y57023000D03*
X93472000Y53340000D03*
X96774000Y64516000D03*
X96647000Y63373000D03*
X96774000Y60706000D03*
X95885000Y58039000D03*
X94234000Y55245000D03*
X93345000Y45085000D03*
X96393000Y38862000D03*
X93472000Y39243000D03*
X91186000Y40894000D03*
X90424000Y40132000D03*
X88773000Y42926000D03*
X88773000Y48260000D03*
X90805000Y50038000D03*
X93091000Y50673000D03*
X94234000Y46863000D03*
X96266000Y46101000D03*
X93726000Y43053000D03*
X91821000Y45339000D03*
X89662000Y45466000D03*
X96520000Y33020000D03*
X94234000Y36703000D03*
X95885000Y36830000D03*
X95123000Y35306000D03*
X93472000Y34417000D03*
X83566000Y34798000D03*
X80645000Y36703000D03*
X75311000Y33147000D03*
X41021000Y33020000D03*
X49911000Y33655000D03*
X54483000Y33147000D03*
X60750661Y35134339D03*
X60325000Y34163000D03*
X64135000Y33782000D03*
X67564000Y33909000D03*
X69469000Y34671000D03*
X70231000Y36195000D03*
X71882000Y37592000D03*
X41783000Y43434000D03*
X50673000Y43561000D03*
X54991000Y43434000D03*
X50673000Y40005000D03*
X43053000Y40132000D03*
X44323000Y38227000D03*
X50546000Y37973000D03*
X68199000Y65278000D03*
X67818000Y58039000D03*
X67564000Y59563000D03*
X50292000Y58928000D03*
X50038000Y54229000D03*
X45593000Y51689000D03*
X43815000Y48133000D03*
X43942000Y57785000D03*
X54102000Y51562000D03*
X57658000Y49615992D03*
X60198000Y50165000D03*
X60452000Y54737000D03*
X60833000Y59563000D03*
X37211000Y68834000D03*
X37211000Y66802000D03*
X36703000Y63500000D03*
X41148000Y63119000D03*
X42545000Y64262000D03*
X42545000Y65913000D03*
X44958000Y66294000D03*
X45466000Y67310000D03*
X47879000Y67818000D03*
X47498000Y62865000D03*
X43688000Y62611000D03*
X58166000Y68707000D03*
X55372000Y64008000D03*
X75345526Y39363426D03*
X81269000Y46990000D03*
X84836000Y50419000D03*
X88265000Y51816000D03*
X88138000Y55118000D03*
X61595000Y54356000D03*
X86487000Y36195000D03*
X81407000Y34417000D03*
X48641000Y49911000D03*
X59944000Y48768000D03*
D34*
X60071000Y43688000D03*
X60134500Y40449500D03*
X84836000Y47752000D03*
X81915000Y61341000D03*
X71247000Y61468000D03*
D33*
X77343000Y46609000D03*
D34*
X79883000Y64389000D03*
D33*
X79502000Y46403000D03*
D34*
X58694000Y14371000D03*
D33*
X46990000Y31242000D03*
X50673000Y27051000D03*
X49276000Y27432000D03*
X47371000Y27178000D03*
X45720000Y26289000D03*
X45466000Y23876000D03*
X29464000Y26162000D03*
X29464000Y24765000D03*
X29845000Y32512000D03*
X30353000Y34036000D03*
X29464000Y34163000D03*
X28448000Y34290000D03*
X20955000Y30988000D03*
X20574000Y31623000D03*
X18542000Y30734000D03*
X19431000Y32639000D03*
X19558000Y33401000D03*
X19685000Y34417000D03*
X19431000Y36576000D03*
X19685000Y38227000D03*
X15240000Y41148000D03*
X1778000Y51435000D03*
X2667000Y56388000D03*
X1143000Y43434000D03*
X1143000Y44069000D03*
X4191000Y44323000D03*
X6223000Y41656000D03*
X6985000Y40386000D03*
X4445000Y37465000D03*
X1651000Y36957000D03*
X2794000Y34671000D03*
X2286000Y32131000D03*
X1016000Y25781000D03*
X3810000Y22860000D03*
X1778000Y22733000D03*
X1524000Y20066000D03*
X1397000Y18542000D03*
X3175000Y15621000D03*
X4953000Y17145000D03*
X6223000Y18034000D03*
X9525000Y15621000D03*
X10160000Y14351000D03*
X11938000Y12446000D03*
X10668000Y9398000D03*
X7112000Y8636000D03*
X2286000Y9144000D03*
X2413000Y4191000D03*
X4191000Y3556000D03*
X9017000Y3302000D03*
X12700000Y4064000D03*
X12700000Y3429000D03*
X23368000Y4191000D03*
X17780000Y2413000D03*
X20320000Y2667000D03*
X26162000Y2794000D03*
X28067000Y8382000D03*
X25400000Y8128000D03*
X22352000Y8128000D03*
X21336000Y6350000D03*
X19558000Y4572000D03*
X18542000Y3429000D03*
X26706417Y16038417D03*
X31369000Y16510000D03*
X30734000Y15748000D03*
X30734000Y14478000D03*
X28829000Y11049000D03*
X29337000Y14478000D03*
X25400000Y13041000D03*
X3810000Y58293000D03*
X5461000Y61595000D03*
X10160000Y62611000D03*
X11938000Y65532000D03*
X13970000Y68072000D03*
X19304000Y66167000D03*
X23622000Y65405000D03*
X27813000Y64008000D03*
X34671000Y62357000D03*
X34544000Y69342000D03*
X26924000Y67310000D03*
X1524000Y62230000D03*
X6731000Y65151000D03*
X9525000Y68326000D03*
X5842000Y69088000D03*
X8509000Y63881000D03*
X2032000Y63881000D03*
X3048000Y54991000D03*
X2921000Y46101000D03*
X19177000Y46101000D03*
X19431000Y44577000D03*
X19304000Y43180000D03*
X18669000Y40894000D03*
X15113000Y43561000D03*
X8128000Y42672000D03*
X9271000Y43434000D03*
X10541000Y43561000D03*
X12065000Y44196000D03*
X12065000Y39243000D03*
X67437000Y17653000D03*
X72644000Y17780000D03*
X80137000Y17653000D03*
X83947000Y29083000D03*
X86360000Y31115000D03*
X96520000Y30861000D03*
X94742000Y29337000D03*
X79502000Y27305000D03*
X77724000Y27940000D03*
X80137000Y27940000D03*
X84836000Y27305000D03*
X90043000Y23114000D03*
X89408000Y20955000D03*
X87376000Y13335000D03*
X92456000Y15875000D03*
X96393000Y5969000D03*
X94361000Y8509000D03*
X91821000Y1524000D03*
X87122000Y5080000D03*
X80391000Y7366000D03*
X77851000Y13462000D03*
X74168000Y7112000D03*
X64262000Y14732000D03*
X64389000Y6096000D03*
X57785000Y1778000D03*
X50673000Y2413000D03*
X44704000Y7112000D03*
X39116000Y3429000D03*
X35052000Y1016000D03*
X42545000Y1143000D03*
X41021000Y6223000D03*
X34036000Y22733000D03*
X34544000Y20701000D03*
X33909000Y25146000D03*
X36322000Y30861000D03*
X36576000Y28448000D03*
X36703000Y25527000D03*
X35179000Y23876000D03*
X39116000Y19558000D03*
X38862000Y29718000D03*
X44450000Y31242000D03*
X42545000Y31242000D03*
X39116000Y25146000D03*
X43942000Y17272000D03*
X54610000Y16383000D03*
X57150000Y18816000D03*
X60960000Y18288000D03*
X13716000Y33909000D03*
X8255000Y34036000D03*
X8235000Y30268000D03*
X18034000Y24892000D03*
X13843000Y31369000D03*
X14441947Y27268947D03*
X8235000Y31369000D03*
X21057609Y15850609D03*
X13589000Y28829000D03*
X29464000Y28829000D03*
X76835000Y39116000D03*
X78359000Y43561000D03*
X77216000Y43561000D03*
D34*
X60071000Y45847000D03*
D33*
X28829000Y9398000D03*
D34*
X73406000Y41783000D03*
X73279000Y49022000D03*
D35*
X46736000Y34671000D02*
X46736000Y34798000D01*
X46736000Y34798000D02*
X46482000Y34544000D01*
X46482000Y34544000D02*
X46482000Y33274000D01*
X81153000Y51689000D02*
X81153000Y51435000D01*
X81153000Y51435000D02*
X81661000Y50927000D01*
X84328000Y56896000D02*
X83947000Y56896000D01*
X83947000Y56896000D02*
X82677000Y55626000D01*
X90170000Y57023000D02*
X87503000Y57023000D01*
X87503000Y57023000D02*
X87376000Y56896000D01*
X96774000Y64516000D02*
X96774000Y56642000D01*
X96774000Y56642000D02*
X93472000Y53340000D01*
X96774000Y60706000D02*
X96774000Y63246000D01*
X96774000Y63246000D02*
X96647000Y63373000D01*
X94234000Y55245000D02*
X95885000Y56896000D01*
X95885000Y56896000D02*
X95885000Y58039000D01*
X94696001Y39161999D02*
X93345000Y40513000D01*
X93345000Y40513000D02*
X93345000Y45085000D01*
X96393000Y38862000D02*
X96093001Y39161999D01*
X96093001Y39161999D02*
X94696001Y39161999D01*
X91186000Y40894000D02*
X91821000Y40894000D01*
X91821000Y40894000D02*
X93472000Y39243000D01*
X88773000Y42926000D02*
X88773000Y41783000D01*
X88773000Y41783000D02*
X90424000Y40132000D01*
X90805000Y50038000D02*
X89027000Y48260000D01*
X89027000Y48260000D02*
X88773000Y48260000D01*
X94234000Y46863000D02*
X93091000Y48006000D01*
X93091000Y48006000D02*
X93091000Y50673000D01*
X93726000Y43053000D02*
X93726000Y43561000D01*
X93726000Y43561000D02*
X96266000Y46101000D01*
X89662000Y45466000D02*
X91694000Y45466000D01*
X91694000Y45466000D02*
X91821000Y45339000D01*
X94234000Y36703000D02*
X96520000Y34417000D01*
X96520000Y34417000D02*
X96520000Y33020000D01*
X95123000Y35306000D02*
X95123000Y36068000D01*
X95123000Y36068000D02*
X95885000Y36830000D01*
X83566000Y34798000D02*
X93091000Y34798000D01*
X93091000Y34798000D02*
X93472000Y34417000D01*
X75311000Y33147000D02*
X76382010Y32075990D01*
X76382010Y32075990D02*
X79161837Y32075990D01*
X79161837Y32075990D02*
X80645000Y33559153D01*
X80645000Y33559153D02*
X80645000Y36703000D01*
X42799000Y33425000D02*
X41426000Y33425000D01*
X41426000Y33425000D02*
X41021000Y33020000D01*
X54483000Y33147000D02*
X50419000Y33147000D01*
X50419000Y33147000D02*
X49911000Y33655000D01*
X60325000Y34163000D02*
X60325000Y34708678D01*
X60325000Y34708678D02*
X60750661Y35134339D01*
X67564000Y33909000D02*
X64262000Y33909000D01*
X64262000Y33909000D02*
X64135000Y33782000D01*
X70231000Y36195000D02*
X70231000Y35433000D01*
X70231000Y35433000D02*
X69469000Y34671000D01*
X74569000Y37592000D02*
X71882000Y37592000D01*
X50673000Y43561000D02*
X50800000Y43434000D01*
X50800000Y43434000D02*
X54991000Y43434000D01*
X50546000Y37973000D02*
X50546000Y39878000D01*
X50546000Y39878000D02*
X50673000Y40005000D01*
X50546000Y37973000D02*
X44577000Y37973000D01*
X44577000Y37973000D02*
X44323000Y38227000D01*
X71247000Y61468000D02*
X71247000Y62230000D01*
X71247000Y62230000D02*
X68199000Y65278000D01*
X68580000Y61468000D02*
X68580000Y58801000D01*
X68580000Y58801000D02*
X67818000Y58039000D01*
X45720000Y55499000D02*
X46863000Y55499000D01*
X46863000Y55499000D02*
X50292000Y58928000D01*
X50038000Y54229000D02*
X47498000Y51689000D01*
X47498000Y51689000D02*
X45593000Y51689000D01*
X43815000Y48133000D02*
X43942000Y48260000D01*
X43942000Y48260000D02*
X43942000Y57785000D01*
X54102000Y51562000D02*
X56048008Y49615992D01*
X56048008Y49615992D02*
X57658000Y49615992D01*
X60198000Y50165000D02*
X60452000Y50419000D01*
X60452000Y50419000D02*
X60452000Y54737000D01*
X60833000Y59563000D02*
X61722000Y58674000D01*
X61722000Y58674000D02*
X65405000Y58674000D01*
X37211000Y68834000D02*
X37211000Y66802000D01*
X36703000Y63500000D02*
X37084000Y63119000D01*
X37084000Y63119000D02*
X41148000Y63119000D01*
X42545000Y64262000D02*
X42545000Y65913000D01*
X44958000Y66294000D02*
X45466000Y66802000D01*
X45466000Y66802000D02*
X45466000Y67310000D01*
X47879000Y67818000D02*
X47498000Y67437000D01*
X47498000Y67437000D02*
X47498000Y62865000D01*
X43688000Y62611000D02*
X43434000Y62865000D01*
X58166000Y64145000D02*
X58166000Y68707000D01*
X62755000Y64145000D02*
X58166000Y64145000D01*
X58166000Y64145000D02*
X55509000Y64145000D01*
X55509000Y64145000D02*
X55372000Y64008000D01*
D36*
X72644000Y35433000D02*
X72644000Y34265567D01*
X72644000Y34265567D02*
X75208576Y31700991D01*
X75208576Y31700991D02*
X77184009Y31700991D01*
D37*
X75345526Y39363426D02*
X75345526Y38368526D01*
X75345526Y38368526D02*
X74569000Y37592000D01*
D36*
X72644000Y35433000D02*
X72644000Y36600433D01*
X72644000Y36600433D02*
X73635567Y37592000D01*
X73635567Y37592000D02*
X74569000Y37592000D01*
D38*
X81269000Y46990000D02*
X81280000Y46990000D01*
X88265000Y51816000D02*
X87947500Y52133500D01*
X87947500Y52133500D02*
X88265000Y51816000D01*
X88265000Y51816000D02*
X88265000Y52451000D01*
X61595000Y54356000D02*
X61956000Y54356000D01*
X61956000Y54356000D02*
X61595000Y54356000D01*
X61595000Y54356000D02*
X61956000Y54356000D01*
D39*
X86487000Y36195000D02*
X86487000Y35941000D01*
X86487000Y35941000D02*
X86487000Y36195000D01*
X86487000Y36195000D02*
X86487000Y35941000D01*
X81407000Y34417000D02*
X81720088Y34103912D01*
X81720088Y34103912D02*
X81407000Y34417000D01*
X81407000Y34417000D02*
X81407000Y33790824D01*
X59944000Y48768000D02*
X59944000Y49615992D01*
X59944000Y49615992D02*
X59944000Y48768000D01*
X59944000Y48768000D02*
X59944000Y49615992D01*
X60134500Y40449500D02*
X60071000Y40513000D01*
D36*
X45720000Y55499000D02*
X32131000Y55499000D01*
X61956000Y58039000D02*
X61956000Y54356000D01*
X61956000Y54356000D02*
X61956000Y50780000D01*
X61956000Y50780000D02*
X60791992Y49615992D01*
X60791992Y49615992D02*
X59944000Y49615992D01*
X59944000Y49615992D02*
X51603008Y49615992D01*
X51603008Y49615992D02*
X45720000Y55499000D01*
D38*
X91567000Y35941000D02*
X88626000Y35941000D01*
X88626000Y35941000D02*
X88519000Y36048000D01*
X89154000Y35941000D02*
X86487000Y35941000D01*
X86487000Y35941000D02*
X83557176Y35941000D01*
X83557176Y35941000D02*
X81407000Y33790824D01*
X81407000Y33790824D02*
X79317167Y31700991D01*
X79317167Y31700991D02*
X77184009Y31700991D01*
X91567000Y35794000D02*
X89301000Y35794000D01*
X89301000Y35794000D02*
X89154000Y35941000D01*
D36*
X34290000Y55499000D02*
X32131000Y55499000D01*
X32131000Y55499000D02*
X17907000Y55499000D01*
X33401000Y53086000D02*
X33401000Y54229000D01*
X33401000Y54229000D02*
X32131000Y55499000D01*
X17907000Y55499000D02*
X16637000Y54229000D01*
X16637000Y54229000D02*
X16637000Y53213000D01*
X34290000Y55499000D02*
X33401000Y54610000D01*
X33401000Y54610000D02*
X33401000Y53086000D01*
D38*
X81915000Y61341000D02*
X81915000Y61742000D01*
X81915000Y61742000D02*
X83185000Y63012000D01*
D36*
X61956000Y58039000D02*
X62591000Y58674000D01*
X62591000Y58674000D02*
X65405000Y58674000D01*
X65405000Y58674000D02*
X65405000Y61495000D01*
X65405000Y61495000D02*
X62755000Y64145000D01*
X71247000Y61468000D02*
X68580000Y61468000D01*
X68580000Y61468000D02*
X65432000Y61468000D01*
D38*
X67056000Y61468000D02*
X66548000Y61468000D01*
D36*
X71247000Y61468000D02*
X69977000Y61468000D01*
D38*
X66548000Y61468000D02*
X65432000Y61468000D01*
D36*
X62755000Y64145000D02*
X63871000Y64145000D01*
X63871000Y64145000D02*
X66548000Y61468000D01*
D38*
X65432000Y61468000D02*
X62755000Y64145000D01*
X83185000Y63012000D02*
X87229000Y63012000D01*
X87229000Y63012000D02*
X88138000Y62103000D01*
X86614000Y46863000D02*
X86614000Y45720000D01*
X86614000Y45720000D02*
X86614000Y43688000D01*
X84836000Y46944000D02*
X84836000Y47752000D01*
X84875001Y47712999D02*
X84836000Y47752000D01*
X84836000Y47752000D02*
X84836000Y49911000D01*
X86614000Y46863000D02*
X85764001Y47712999D01*
X85764001Y47712999D02*
X84875001Y47712999D01*
X86614000Y46863000D02*
X85223000Y46863000D01*
X85223000Y46863000D02*
X85070000Y46710000D01*
X85070000Y45319000D02*
X85471000Y45720000D01*
X85471000Y45720000D02*
X86614000Y46863000D01*
X86614000Y43688000D02*
X86614000Y44890081D01*
X86614000Y44890081D02*
X85784081Y45720000D01*
X85784081Y45720000D02*
X85471000Y45720000D01*
X87376000Y51562000D02*
X88265000Y52451000D01*
X88265000Y52451000D02*
X88138000Y52324000D01*
X88138000Y52324000D02*
X88138000Y55118000D01*
X88138000Y55118000D02*
X88138000Y57023000D01*
X88138000Y57023000D02*
X88138000Y62103000D01*
X85812998Y51562000D02*
X87376000Y51562000D01*
X84836000Y49911000D02*
X84836000Y50419000D01*
X84836000Y49911000D02*
X84836000Y50585002D01*
X84836000Y50585002D02*
X85812998Y51562000D01*
X85070000Y45085000D02*
X85070000Y46710000D01*
X85070000Y46710000D02*
X84836000Y46944000D01*
X93599000Y61742000D02*
X88499000Y61742000D01*
X88499000Y61742000D02*
X88138000Y62103000D01*
X85070000Y45085000D02*
X85217000Y45085000D01*
X85217000Y45085000D02*
X86614000Y43688000D01*
X85070000Y45085000D02*
X85070000Y45319000D01*
X85598000Y66421000D02*
X84094000Y66421000D01*
X84094000Y66421000D02*
X83185000Y65512000D01*
D37*
X77343000Y46609000D02*
X72136000Y51816000D01*
X72136000Y51816000D02*
X65151000Y51816000D01*
D36*
X65151000Y51816000D02*
X65151000Y55880000D01*
D38*
X65151000Y55880000D02*
X65405000Y56134000D01*
D36*
X73447010Y62921792D02*
X73447010Y60556727D01*
X73447010Y60556727D02*
X69024283Y56134000D01*
X69024283Y56134000D02*
X65405000Y56134000D01*
D38*
X83185000Y65512000D02*
X81006000Y65512000D01*
X83185000Y65512000D02*
X83292000Y65512000D01*
D36*
X79883000Y64389000D02*
X74914218Y64389000D01*
X74914218Y64389000D02*
X73447010Y62921792D01*
D38*
X81006000Y65512000D02*
X79883000Y64389000D01*
X90678000Y66421000D02*
X92025038Y66421000D01*
X92025038Y66421000D02*
X95123000Y63323038D01*
X90438000Y54703000D02*
X93218000Y57483000D01*
X95123000Y63323038D02*
X95123000Y60138000D01*
X95123000Y60138000D02*
X90438000Y55453000D01*
X90438000Y55453000D02*
X90438000Y54703000D01*
X90555000Y54085000D02*
X90555000Y54835000D01*
X90555000Y54835000D02*
X93203000Y57483000D01*
X93203000Y57483000D02*
X93218000Y57483000D01*
X93218000Y58948000D02*
X93218000Y57483000D01*
D36*
X50800000Y62620000D02*
X52696000Y64516000D01*
X52696000Y64516000D02*
X54605000Y66425000D01*
X45720000Y60579000D02*
X48759000Y60579000D01*
X48759000Y60579000D02*
X52696000Y64516000D01*
X54605000Y66425000D02*
X55355000Y66425000D01*
D38*
X85975000Y54085000D02*
X85975000Y53421072D01*
X85975000Y53421072D02*
X82570000Y50016072D01*
X82570000Y50016072D02*
X82570000Y46710000D01*
X82570000Y46710000D02*
X82570000Y45085000D01*
X85335000Y53445000D02*
X85975000Y54085000D01*
X82570000Y45085000D02*
X80820000Y45085000D01*
X80820000Y45085000D02*
X79502000Y46403000D01*
D36*
X54546717Y7239000D02*
X54673283Y7239000D01*
X54673283Y7239000D02*
X58694000Y11259717D01*
X58694000Y11259717D02*
X58694000Y13663894D01*
X58694000Y13663894D02*
X58694000Y14371000D01*
X50292000Y14371000D02*
X50292000Y11493717D01*
X50292000Y11493717D02*
X54546717Y7239000D01*
X52324000Y5969000D02*
X48133000Y10160000D01*
X48133000Y10160000D02*
X47752000Y10160000D01*
X52324000Y5207000D02*
X54610000Y5207000D01*
X50927000Y5207000D02*
X52324000Y5207000D01*
X52324000Y5207000D02*
X52324000Y5969000D01*
X44958000Y11176000D02*
X47752000Y8382000D01*
X47752000Y10160000D02*
X47752000Y8382000D01*
X47752000Y8382000D02*
X50927000Y5207000D01*
X49213000Y11621000D02*
X47752000Y10160000D01*
X50292000Y11621000D02*
X49213000Y11621000D01*
X47224000Y12954000D02*
X48959000Y12954000D01*
X48959000Y12954000D02*
X50292000Y11621000D01*
X45847000Y11577000D02*
X47224000Y12954000D01*
X45847000Y11176000D02*
X45847000Y11577000D01*
X50292000Y14371000D02*
X50292000Y11621000D01*
X50292000Y11621000D02*
X49847000Y11176000D01*
X49847000Y11176000D02*
X45847000Y11176000D01*
X50292000Y14371000D02*
X50292000Y9525000D01*
X50292000Y9525000D02*
X54610000Y5207000D01*
X50292000Y14371000D02*
X47667000Y14371000D01*
X47667000Y14371000D02*
X44958000Y11662000D01*
X44958000Y11662000D02*
X44958000Y11176000D01*
X54610000Y5207000D02*
X58694000Y9291000D01*
X58694000Y9291000D02*
X58694000Y14371000D01*
X50292000Y14246000D02*
X50292000Y14371000D01*
X41021000Y15113000D02*
X44958000Y11176000D01*
X44958000Y11176000D02*
X45847000Y11176000D01*
D38*
X76982000Y25781000D02*
X76982000Y26650000D01*
X76982000Y26650000D02*
X74168000Y29464000D01*
D35*
X49276000Y27432000D02*
X50292000Y27432000D01*
X50292000Y27432000D02*
X50673000Y27051000D01*
X45720000Y26289000D02*
X46482000Y26289000D01*
X46482000Y26289000D02*
X47371000Y27178000D01*
X43942000Y17272000D02*
X43942000Y22352000D01*
X43942000Y22352000D02*
X45466000Y23876000D01*
X29464000Y24765000D02*
X29464000Y26162000D01*
X30353000Y34036000D02*
X30353000Y33020000D01*
X30353000Y33020000D02*
X29845000Y32512000D01*
X28448000Y34290000D02*
X29337000Y34290000D01*
X29337000Y34290000D02*
X29464000Y34163000D01*
X20574000Y31623000D02*
X20574000Y31369000D01*
X20574000Y31369000D02*
X20955000Y30988000D01*
X19431000Y32639000D02*
X19431000Y31623000D01*
X19431000Y31623000D02*
X18542000Y30734000D01*
X19685000Y34417000D02*
X19685000Y33528000D01*
X19685000Y33528000D02*
X19558000Y33401000D01*
X19685000Y38227000D02*
X19685000Y36830000D01*
X19685000Y36830000D02*
X19431000Y36576000D01*
X6223000Y41656000D02*
X14732000Y41656000D01*
X14732000Y41656000D02*
X15240000Y41148000D01*
X1778000Y51435000D02*
X1778000Y46101000D01*
X1778000Y46101000D02*
X6223000Y41656000D01*
X1143000Y43434000D02*
X1143000Y54864000D01*
X1143000Y54864000D02*
X2667000Y56388000D01*
X4191000Y44323000D02*
X1397000Y44323000D01*
X1397000Y44323000D02*
X1143000Y44069000D01*
X6985000Y40386000D02*
X6985000Y40894000D01*
X6985000Y40894000D02*
X6223000Y41656000D01*
X1651000Y36957000D02*
X3937000Y36957000D01*
X3937000Y36957000D02*
X4445000Y37465000D01*
X2794000Y34671000D02*
X2794000Y35814000D01*
X2794000Y35814000D02*
X1651000Y36957000D01*
X2286000Y32131000D02*
X2794000Y32639000D01*
X2794000Y32639000D02*
X2794000Y34671000D01*
X3810000Y22860000D02*
X1016000Y25654000D01*
X1016000Y25654000D02*
X1016000Y25781000D01*
X1524000Y20066000D02*
X1524000Y22479000D01*
X1524000Y22479000D02*
X1778000Y22733000D01*
X3175000Y15621000D02*
X1397000Y17399000D01*
X1397000Y17399000D02*
X1397000Y18542000D01*
X6223000Y18034000D02*
X5842000Y18034000D01*
X5842000Y18034000D02*
X4953000Y17145000D01*
X10160000Y14351000D02*
X10160000Y14986000D01*
X10160000Y14986000D02*
X9525000Y15621000D01*
X10668000Y9398000D02*
X11938000Y10668000D01*
X11938000Y10668000D02*
X11938000Y12446000D01*
X2286000Y9144000D02*
X2794000Y8636000D01*
X2794000Y8636000D02*
X7112000Y8636000D01*
X4191000Y3556000D02*
X3048000Y3556000D01*
X3048000Y3556000D02*
X2413000Y4191000D01*
X12700000Y4064000D02*
X9779000Y4064000D01*
X9779000Y4064000D02*
X9017000Y3302000D01*
D38*
X15748000Y1422999D02*
X18288000Y1422999D01*
X12382219Y1422999D02*
X15748000Y1422999D01*
D35*
X15748000Y1422999D02*
X14706001Y1422999D01*
X14706001Y1422999D02*
X12700000Y3429000D01*
X23368000Y4191000D02*
X21056001Y4191000D01*
D38*
X18288000Y1422999D02*
X27584999Y1422999D01*
D35*
X21056001Y4191000D02*
X18288000Y1422999D01*
X20320000Y2667000D02*
X18034000Y2667000D01*
X18034000Y2667000D02*
X17780000Y2413000D01*
X28067000Y8382000D02*
X26162000Y6477000D01*
X26162000Y6477000D02*
X26162000Y2794000D01*
X22352000Y8128000D02*
X25400000Y8128000D01*
X19558000Y4572000D02*
X21336000Y6350000D01*
X26706417Y16038417D02*
X29454001Y13290833D01*
X29454001Y13290833D02*
X29454001Y9097999D01*
X29454001Y9097999D02*
X23785002Y3429000D01*
X23785002Y3429000D02*
X18542000Y3429000D01*
X30734000Y15748000D02*
X30734000Y15875000D01*
X30734000Y15875000D02*
X31369000Y16510000D01*
X28829000Y11049000D02*
X28829000Y12573000D01*
X28829000Y12573000D02*
X30734000Y14478000D01*
X25400000Y13041000D02*
X27900000Y13041000D01*
X27900000Y13041000D02*
X29337000Y14478000D01*
D39*
X26519718Y13041000D02*
X25400000Y13041000D01*
X25400000Y13041000D02*
X23867218Y13041000D01*
D35*
X22590391Y15850609D02*
X25400000Y13041000D01*
X21057609Y15850609D02*
X22590391Y15850609D01*
X10160000Y62611000D02*
X9144000Y61595000D01*
X9144000Y61595000D02*
X5461000Y61595000D01*
X13970000Y68072000D02*
X11938000Y66040000D01*
X11938000Y66040000D02*
X11938000Y65532000D01*
X23622000Y65405000D02*
X22860000Y66167000D01*
X22860000Y66167000D02*
X19304000Y66167000D01*
X34671000Y62357000D02*
X33020000Y64008000D01*
X33020000Y64008000D02*
X27813000Y64008000D01*
X26924000Y67310000D02*
X32512000Y67310000D01*
X32512000Y67310000D02*
X34544000Y69342000D01*
X6731000Y65151000D02*
X4445000Y65151000D01*
X4445000Y65151000D02*
X1524000Y62230000D01*
X5842000Y69088000D02*
X6604000Y68326000D01*
X6604000Y68326000D02*
X9525000Y68326000D01*
X2032000Y63881000D02*
X8509000Y63881000D01*
X2921000Y46101000D02*
X2921000Y54864000D01*
X2921000Y54864000D02*
X3048000Y54991000D01*
X19431000Y44577000D02*
X19431000Y45847000D01*
X19431000Y45847000D02*
X19177000Y46101000D01*
X18669000Y40894000D02*
X19304000Y41529000D01*
X19304000Y41529000D02*
X19304000Y43180000D01*
X8128000Y42672000D02*
X9017000Y43561000D01*
X9017000Y43561000D02*
X15113000Y43561000D01*
X10541000Y43561000D02*
X9398000Y43561000D01*
X9398000Y43561000D02*
X9271000Y43434000D01*
X12065000Y39243000D02*
X12065000Y44196000D01*
D38*
X66274000Y18816000D02*
X67437000Y17653000D01*
X67437000Y17653000D02*
X67818000Y17272000D01*
D35*
X80137000Y17653000D02*
X72771000Y17653000D01*
X72771000Y17653000D02*
X72644000Y17780000D01*
X86360000Y31115000D02*
X84328000Y29083000D01*
X84328000Y29083000D02*
X83947000Y29083000D01*
X94742000Y29337000D02*
X94996000Y29337000D01*
X94996000Y29337000D02*
X96520000Y30861000D01*
X77724000Y27940000D02*
X78867000Y27940000D01*
X78867000Y27940000D02*
X79502000Y27305000D01*
X84836000Y27305000D02*
X80772000Y27305000D01*
X80772000Y27305000D02*
X80137000Y27940000D01*
X89408000Y20955000D02*
X89408000Y22479000D01*
X89408000Y22479000D02*
X90043000Y23114000D01*
X92456000Y15875000D02*
X89916000Y13335000D01*
X89916000Y13335000D02*
X87376000Y13335000D01*
X94361000Y8509000D02*
X96393000Y6477000D01*
X96393000Y6477000D02*
X96393000Y5969000D01*
X87122000Y5080000D02*
X90678000Y1524000D01*
X90678000Y1524000D02*
X91821000Y1524000D01*
X77851000Y13462000D02*
X80391000Y10922000D01*
X80391000Y10922000D02*
X80391000Y7366000D01*
X64262000Y14732000D02*
X71882000Y7112000D01*
X71882000Y7112000D02*
X74168000Y7112000D01*
X57785000Y1778000D02*
X60071000Y1778000D01*
X60071000Y1778000D02*
X64389000Y6096000D01*
X44704000Y7112000D02*
X45974000Y7112000D01*
X45974000Y7112000D02*
X50673000Y2413000D01*
X35052000Y1016000D02*
X37465000Y3429000D01*
X37465000Y3429000D02*
X39116000Y3429000D01*
X41021000Y6223000D02*
X41021000Y2667000D01*
X41021000Y2667000D02*
X42545000Y1143000D01*
X34544000Y20701000D02*
X34544000Y22225000D01*
X34544000Y22225000D02*
X34036000Y22733000D01*
D39*
X32766000Y26289000D02*
X33909000Y25146000D01*
X33909000Y25146000D02*
X35179000Y23876000D01*
D35*
X36576000Y28448000D02*
X36576000Y30607000D01*
X36576000Y30607000D02*
X36322000Y30861000D01*
X35179000Y23876000D02*
X35179000Y24003000D01*
X35179000Y24003000D02*
X36703000Y25527000D01*
D39*
X35179000Y23876000D02*
X39834718Y19220282D01*
D35*
X39116000Y19558000D02*
X35179000Y23495000D01*
X35179000Y23495000D02*
X35179000Y23876000D01*
X39116000Y25146000D02*
X39116000Y29464000D01*
X39116000Y29464000D02*
X38862000Y29718000D01*
X42926000Y29668002D02*
X42926000Y30861000D01*
X42926000Y30861000D02*
X42545000Y31242000D01*
X39116000Y25146000D02*
X39116000Y25858002D01*
X39116000Y25858002D02*
X42926000Y29668002D01*
X50292000Y16871000D02*
X44343000Y16871000D01*
X44343000Y16871000D02*
X43942000Y17272000D01*
D36*
X54610000Y10287000D02*
X54610000Y11544235D01*
X54610000Y11544235D02*
X54229000Y11925235D01*
X54229000Y11925235D02*
X54229000Y16891000D01*
X54229000Y16891000D02*
X55225000Y16891000D01*
X55225000Y16891000D02*
X57150000Y18816000D01*
X57150000Y18816000D02*
X54102000Y18816000D01*
X54102000Y18816000D02*
X51181000Y18816000D01*
X51435000Y21356000D02*
X53975000Y18816000D01*
X53975000Y18816000D02*
X54102000Y18816000D01*
X51403000Y20066000D02*
X51403000Y21324000D01*
X51403000Y21324000D02*
X51435000Y21356000D01*
X48514000Y20066000D02*
X51403000Y20066000D01*
X51403000Y20066000D02*
X51435000Y20034000D01*
X51435000Y20034000D02*
X51435000Y19685000D01*
X54229000Y16891000D02*
X48153000Y16891000D01*
X48153000Y16891000D02*
X46228000Y18816000D01*
X54229000Y16891000D02*
X51328000Y16891000D01*
X51328000Y16891000D02*
X50292000Y17927000D01*
X51435000Y21356000D02*
X51435000Y19685000D01*
X51435000Y19685000D02*
X54229000Y16891000D01*
X51435000Y21356000D02*
X51435000Y19070000D01*
X51435000Y19070000D02*
X51181000Y18816000D01*
X51435000Y21356000D02*
X49804000Y21356000D01*
X49804000Y21356000D02*
X48514000Y20066000D01*
X13736000Y32766000D02*
X13736000Y33889000D01*
X13736000Y33889000D02*
X13716000Y33909000D01*
X8235000Y32893000D02*
X8235000Y34016000D01*
X8235000Y34016000D02*
X8255000Y34036000D01*
D39*
X60960000Y18288000D02*
X60452000Y18796000D01*
X60452000Y18796000D02*
X60452000Y18816000D01*
X18034000Y24892000D02*
X18087010Y24838990D01*
X13843000Y31369000D02*
X13736000Y31369000D01*
X13736000Y31369000D02*
X13843000Y31369000D01*
X13843000Y31369000D02*
X13736000Y31369000D01*
D38*
X34059718Y13041000D02*
X34059718Y15479936D01*
X34059718Y15479936D02*
X37395782Y18816000D01*
X37395782Y18816000D02*
X39834718Y18816000D01*
D36*
X48514000Y20066000D02*
X48514000Y19705000D01*
X48514000Y19705000D02*
X49403000Y18816000D01*
D39*
X39834718Y19220282D02*
X39834718Y18816000D01*
X23867218Y13041000D02*
X21057609Y15850609D01*
X21057609Y15850609D02*
X18087010Y18821208D01*
X18087010Y18821208D02*
X18087010Y24838990D01*
X18087010Y24838990D02*
X17436999Y25489001D01*
X17436999Y25489001D02*
X16637000Y26289000D01*
D38*
X8798000Y11088000D02*
X8798000Y9673787D01*
X8798000Y9673787D02*
X11428499Y7043288D01*
X11428499Y7043288D02*
X11428499Y2376719D01*
X11428499Y2376719D02*
X12382219Y1422999D01*
X27584999Y1422999D02*
X30088001Y3926001D01*
X30088001Y3926001D02*
X30988000Y4826000D01*
D36*
X30988000Y11049000D02*
X30821000Y11049000D01*
X30821000Y11049000D02*
X28829000Y13041000D01*
X30988000Y11049000D02*
X30988000Y12787000D01*
X30988000Y7326000D02*
X30988000Y11049000D01*
X30734000Y13041000D02*
X32258000Y13041000D01*
X32258000Y13041000D02*
X34059718Y13041000D01*
X30988000Y11049000D02*
X30988000Y11771000D01*
X30988000Y11771000D02*
X32258000Y13041000D01*
X28829000Y13041000D02*
X30734000Y13041000D01*
X30988000Y12787000D02*
X30734000Y13041000D01*
D38*
X60452000Y18816000D02*
X66274000Y18816000D01*
X67818000Y17272000D02*
X67818000Y15240000D01*
X67818000Y15240000D02*
X68834000Y14224000D01*
D36*
X28829000Y13041000D02*
X26519718Y13041000D01*
X31496000Y13041000D02*
X28829000Y13041000D01*
X34059718Y13041000D02*
X34480718Y13462000D01*
X33488000Y7326000D02*
X30988000Y4826000D01*
X33488000Y4826000D02*
X33488000Y7326000D01*
X30988000Y7326000D02*
X30988000Y4826000D01*
X49403000Y18816000D02*
X46228000Y18816000D01*
X46228000Y18816000D02*
X43414000Y18816000D01*
X39834718Y18816000D02*
X46228000Y18816000D01*
X33488000Y4826000D02*
X30988000Y4826000D01*
X30988000Y7326000D02*
X33488000Y7326000D01*
X8235000Y32893000D02*
X8235000Y31369000D01*
X8235000Y31369000D02*
X8235000Y30268000D01*
X8235000Y30268000D02*
X9017000Y29486000D01*
X9017000Y29486000D02*
X9017000Y28829000D01*
X8402000Y32639000D02*
X8402000Y30014000D01*
X8402000Y30014000D02*
X9017000Y29399000D01*
X9017000Y29399000D02*
X9017000Y28829000D01*
X13736000Y32766000D02*
X13736000Y31369000D01*
X13736000Y31369000D02*
X13736000Y28976000D01*
X13736000Y28976000D02*
X13589000Y28829000D01*
X13589000Y28829000D02*
X13589000Y28121894D01*
X13589000Y28121894D02*
X14441947Y27268947D01*
X14441947Y27268947D02*
X15421894Y26289000D01*
X15421894Y26289000D02*
X15505630Y26289000D01*
X15505630Y26289000D02*
X16637000Y26289000D01*
X25146000Y28829000D02*
X25146000Y31730000D01*
X25146000Y31730000D02*
X24745000Y32131000D01*
X29865000Y31115000D02*
X29865000Y28058630D01*
X29865000Y28058630D02*
X31634630Y26289000D01*
X31537010Y26289000D02*
X31634630Y26289000D01*
X31634630Y26289000D02*
X32766000Y26289000D01*
D38*
X40239000Y18816000D02*
X43414000Y18816000D01*
D36*
X50292000Y16871000D02*
X50292000Y17927000D01*
X50292000Y17927000D02*
X51181000Y18816000D01*
X51181000Y18816000D02*
X49403000Y18816000D01*
X60452000Y18816000D02*
X57150000Y18816000D01*
X50038000Y16978000D02*
X50038000Y17673000D01*
X50038000Y17673000D02*
X51181000Y18816000D01*
D38*
X68834000Y14224000D02*
X71120000Y14224000D01*
D36*
X55372000Y59055000D02*
X58440000Y59055000D01*
X58440000Y59055000D02*
X59456000Y58039000D01*
X55372000Y59055000D02*
X55372000Y61828000D01*
X55372000Y61828000D02*
X55355000Y61845000D01*
X41021000Y22733000D02*
X41021000Y25273000D01*
X41021000Y25273000D02*
X41168000Y25273000D01*
X41168000Y25273000D02*
X45740000Y29845000D01*
X55118000Y25527000D02*
X56642000Y25527000D01*
X56642000Y25527000D02*
X58039000Y25527000D01*
X60830557Y25527000D02*
X56642000Y25527000D01*
X48240000Y29845000D02*
X50800000Y29845000D01*
X50800000Y29845000D02*
X55118000Y25527000D01*
X75184000Y35433000D02*
X75945002Y35433000D01*
X75945002Y35433000D02*
X76835000Y36322998D01*
X76835000Y36322998D02*
X76835000Y38691736D01*
X76835000Y38691736D02*
X76835000Y39116000D01*
X78613000Y33401000D02*
X78613000Y37338000D01*
X78613000Y37338000D02*
X76835000Y39116000D01*
X75184000Y35433000D02*
X76581000Y35433000D01*
X76581000Y35433000D02*
X78613000Y33401000D01*
X76835000Y39116000D02*
X76835000Y35179000D01*
X76835000Y35179000D02*
X78613000Y33401000D01*
D37*
X76835000Y39116000D02*
X76835000Y37826000D01*
X76835000Y37826000D02*
X77069000Y37592000D01*
D36*
X77450000Y35560000D02*
X77450000Y34564000D01*
X77450000Y34564000D02*
X78613000Y33401000D01*
D38*
X88519000Y33548000D02*
X91420000Y33548000D01*
X91420000Y33548000D02*
X91567000Y33401000D01*
X89154000Y33401000D02*
X91460000Y33401000D01*
X91460000Y33401000D02*
X91567000Y33294000D01*
X86233000Y33401000D02*
X89154000Y33401000D01*
X82296000Y29464000D02*
X84074000Y31242000D01*
X84074000Y31242000D02*
X86233000Y33401000D01*
X81788000Y29464000D02*
X82296000Y29464000D01*
D37*
X78466000Y44831000D02*
X78466000Y43668000D01*
X78466000Y43668000D02*
X78359000Y43561000D01*
X75966000Y44831000D02*
X75966000Y44811000D01*
X75966000Y44811000D02*
X77216000Y43561000D01*
D36*
X48514000Y25146000D02*
X50145000Y25146000D01*
X50145000Y25146000D02*
X51435000Y23856000D01*
X54231443Y21717000D02*
X51965443Y23983000D01*
D38*
X81788000Y21844000D02*
X81788000Y23475000D01*
X81788000Y23475000D02*
X79482000Y25781000D01*
X68923218Y19685000D02*
X79629000Y19685000D01*
X79629000Y19685000D02*
X81788000Y21844000D01*
X53594000Y22352000D02*
X55429990Y20516010D01*
X55429990Y20516010D02*
X68092208Y20516010D01*
X68092208Y20516010D02*
X68923218Y19685000D01*
D36*
X51963000Y23983000D02*
X53594000Y22352000D01*
X5735000Y32893000D02*
X5735000Y35580000D01*
X5735000Y35580000D02*
X6477000Y36322000D01*
X10902000Y32639000D02*
X10902000Y37485000D01*
X10902000Y37485000D02*
X9525000Y38862000D01*
X9017000Y21209000D02*
X10148370Y21209000D01*
X10148370Y21209000D02*
X11217010Y22277640D01*
X11217010Y22277640D02*
X11217010Y34280990D01*
X11217010Y34280990D02*
X9525000Y35973000D01*
X9525000Y35973000D02*
X9525000Y38862000D01*
X6477000Y36322000D02*
X9525000Y36322000D01*
X9525000Y36322000D02*
X10942000Y36322000D01*
X9525000Y38862000D02*
X9525000Y36322000D01*
X6985000Y36322000D02*
X8001000Y37338000D01*
X8001000Y37338000D02*
X9525000Y38862000D01*
X6477000Y36322000D02*
X7493000Y37338000D01*
X7493000Y37338000D02*
X8001000Y37338000D01*
X6477000Y36322000D02*
X6985000Y36322000D01*
X10942000Y36322000D02*
X10942000Y37445000D01*
X10942000Y37445000D02*
X9525000Y38862000D01*
X17653000Y36322000D02*
X17653000Y34183000D01*
X17653000Y34183000D02*
X16236000Y32766000D01*
X16236000Y32766000D02*
X16236000Y34905000D01*
X16236000Y34905000D02*
X17653000Y36322000D01*
X16637000Y28829000D02*
X16637000Y35306000D01*
X16637000Y35306000D02*
X17653000Y36322000D01*
X16637000Y36830000D02*
X14605000Y38862000D01*
X17145000Y36322000D02*
X16256000Y37211000D01*
X16256000Y37211000D02*
X14605000Y38862000D01*
D38*
X16637000Y36830000D02*
X16256000Y37211000D01*
D36*
X13442000Y36322000D02*
X14605000Y36322000D01*
X14605000Y36322000D02*
X17653000Y36322000D01*
X14605000Y38862000D02*
X14605000Y36322000D01*
X17653000Y36322000D02*
X17145000Y36322000D01*
X13442000Y36322000D02*
X13442000Y37699000D01*
X13442000Y37699000D02*
X14605000Y38862000D01*
X16637000Y48133000D02*
X15855000Y48133000D01*
X15855000Y48133000D02*
X13315000Y45593000D01*
X16637000Y48133000D02*
X16637000Y44958000D01*
X16637000Y44958000D02*
X17653000Y43942000D01*
X15113000Y45593000D02*
X16002000Y45593000D01*
X16002000Y45593000D02*
X17653000Y43942000D01*
X13315000Y45593000D02*
X15113000Y45593000D01*
X7493000Y48133000D02*
X8275000Y48133000D01*
X8275000Y48133000D02*
X10815000Y45593000D01*
X7493000Y48133000D02*
X7493000Y44958000D01*
X7493000Y44958000D02*
X6477000Y43942000D01*
X7493000Y48133000D02*
X7493000Y46785962D01*
X7493000Y46785962D02*
X8685962Y45593000D01*
X8685962Y45593000D02*
X9017000Y45593000D01*
X6477000Y43942000D02*
X8128000Y45593000D01*
X8128000Y45593000D02*
X9017000Y45593000D01*
X6477000Y43942000D02*
X7175499Y44640499D01*
X7175499Y44640499D02*
X8064499Y44640499D01*
X8064499Y44640499D02*
X9017000Y45593000D01*
X8699499Y45275499D02*
X9017000Y45593000D01*
X10815000Y45593000D02*
X9017000Y45593000D01*
D39*
X3810000Y28956000D02*
X3810000Y28593623D01*
X3810000Y28593623D02*
X2105990Y26889613D01*
X2105990Y26889613D02*
X2105990Y25688387D01*
X2105990Y25688387D02*
X4045377Y23749000D01*
X4045377Y23749000D02*
X5362172Y23749000D01*
D37*
X3810000Y28956000D02*
X3810000Y28522913D01*
X5362172Y23749000D02*
X6350000Y23749000D01*
D36*
X4398000Y11088000D02*
X4398000Y13415000D01*
X4398000Y13415000D02*
X9017000Y18034000D01*
D39*
X20075000Y11723000D02*
X16669002Y11723000D01*
X16669002Y11723000D02*
X15946002Y12446000D01*
X15946002Y12446000D02*
X14605000Y12446000D01*
X14605000Y12446000D02*
X9017000Y18034000D01*
D36*
X9017000Y18034000D02*
X6010010Y21040990D01*
X6010010Y21040990D02*
X6010010Y24088990D01*
X6010010Y24088990D02*
X6350000Y23749000D01*
X9017000Y23749000D02*
X6350000Y23749000D01*
X3556000Y26289000D02*
X6350000Y26289000D01*
X6350000Y28956000D02*
X6350000Y26289000D01*
X6350000Y26289000D02*
X9017000Y26289000D01*
X22245000Y32131000D02*
X22245000Y35286000D01*
X22245000Y35286000D02*
X21209000Y36322000D01*
X25146000Y21209000D02*
X25717283Y21209000D01*
X25717283Y21209000D02*
X27346010Y22837727D01*
X27346010Y22837727D02*
X27346010Y27940000D01*
X27346010Y27940000D02*
X27346010Y32883990D01*
X27346010Y32883990D02*
X24257000Y35973000D01*
X24257000Y35973000D02*
X24257000Y38862000D01*
X21209000Y36322000D02*
X25547000Y36322000D01*
X25547000Y36322000D02*
X25801000Y36068000D01*
X21209000Y36322000D02*
X21717000Y36322000D01*
X21717000Y36322000D02*
X24257000Y38862000D01*
X25801000Y36068000D02*
X25801000Y37318000D01*
X25801000Y37318000D02*
X24257000Y38862000D01*
X24257000Y38862000D02*
X24257000Y37612000D01*
X24257000Y37612000D02*
X25801000Y36068000D01*
X28194000Y45593000D02*
X30607000Y48006000D01*
X30607000Y48006000D02*
X33401000Y48006000D01*
X28047000Y45593000D02*
X28194000Y45593000D01*
X32385000Y43942000D02*
X29698000Y43942000D01*
X29698000Y43942000D02*
X28047000Y45593000D01*
X28047000Y45593000D02*
X30988000Y45593000D01*
X30988000Y45593000D02*
X33401000Y48006000D01*
X32385000Y43942000D02*
X32385000Y46990000D01*
X32385000Y46990000D02*
X33401000Y48006000D01*
X21209000Y43942000D02*
X23241000Y43942000D01*
X23241000Y43942000D02*
X23896000Y43942000D01*
X25400000Y48387000D02*
X25400000Y46101000D01*
X25400000Y46101000D02*
X23241000Y43942000D01*
X21209000Y43942000D02*
X21209000Y44196000D01*
X21209000Y44196000D02*
X25400000Y48387000D01*
X25547000Y45593000D02*
X25547000Y48240000D01*
X25547000Y48240000D02*
X25400000Y48387000D01*
X23896000Y43942000D02*
X25547000Y45593000D01*
X32365000Y31115000D02*
X32365000Y36302000D01*
X32365000Y33020000D02*
X32365000Y36302000D01*
X32365000Y36302000D02*
X32385000Y36322000D01*
X32766000Y28829000D02*
X32766000Y35941000D01*
X32766000Y35941000D02*
X32385000Y36322000D01*
D38*
X32385000Y36322000D02*
X32385000Y34925000D01*
X32385000Y34925000D02*
X32766000Y34544000D01*
X32766000Y35433000D02*
X30480000Y37719000D01*
D36*
X31877000Y36322000D02*
X30480000Y37719000D01*
X30480000Y37719000D02*
X29337000Y38862000D01*
X28829000Y36068000D02*
X30480000Y37719000D01*
X28301000Y36068000D02*
X28829000Y36068000D01*
X28301000Y36068000D02*
X32131000Y36068000D01*
X32131000Y36068000D02*
X32385000Y36322000D01*
X32385000Y36322000D02*
X31877000Y36322000D01*
X28301000Y36068000D02*
X28301000Y37826000D01*
X28301000Y37826000D02*
X29337000Y38862000D01*
D38*
X3798000Y5588000D02*
X9398000Y5588000D01*
D39*
X22352000Y23749000D02*
X20320000Y23749000D01*
X20320000Y23749000D02*
X18488990Y25580010D01*
X18488990Y25580010D02*
X18488990Y28013990D01*
X18488990Y28013990D02*
X19812000Y29337000D01*
D36*
X24892000Y17780000D02*
X22352000Y20320000D01*
X22352000Y20320000D02*
X22352000Y23749000D01*
X25146000Y23749000D02*
X22352000Y23749000D01*
X22352000Y23749000D02*
X21780717Y23749000D01*
X20151990Y28997010D02*
X19812000Y29337000D01*
X19939000Y26289000D02*
X22352000Y26289000D01*
X22352000Y26289000D02*
X25146000Y26289000D01*
X22352000Y26289000D02*
X22352000Y29337000D01*
D39*
X15875000Y10223000D02*
X19280998Y10223000D01*
X19280998Y10223000D02*
X20105998Y9398000D01*
X20105998Y9398000D02*
X28829000Y9398000D01*
X16297255Y10223000D02*
X15875000Y10223000D01*
D38*
X32766000Y21209000D02*
X32766000Y18161000D01*
X32766000Y18161000D02*
X32385000Y17780000D01*
D36*
X16637000Y21209000D02*
X16637000Y18034000D01*
X57531000Y51816000D02*
X55372000Y53975000D01*
D38*
X71120000Y21844000D02*
X74168000Y21844000D01*
X74168000Y21844000D02*
X76708000Y21844000D01*
X69088000Y21844000D02*
X68834000Y21844000D01*
X76708000Y29464000D02*
X79248000Y29464000D01*
D36*
X14097000Y18034000D02*
X14097000Y22429002D01*
X14097000Y22429002D02*
X15416998Y23749000D01*
X15416998Y23749000D02*
X15505630Y23749000D01*
X15505630Y23749000D02*
X16637000Y23749000D01*
X11557000Y18034000D02*
X14097000Y18034000D01*
D37*
X37719000Y16002000D02*
X37719000Y6557000D01*
X37719000Y6557000D02*
X35988000Y4826000D01*
D36*
X29845000Y17780000D02*
X29845000Y22048002D01*
X29845000Y22048002D02*
X31545998Y23749000D01*
X31545998Y23749000D02*
X31634630Y23749000D01*
X31634630Y23749000D02*
X32766000Y23749000D01*
X27432000Y17780000D02*
X29845000Y17780000D01*
D38*
X35988000Y7794000D02*
X35988000Y7326000D01*
D37*
X38821497Y36239499D02*
X37719000Y35137002D01*
X37719000Y35137002D02*
X37719000Y23622000D01*
X67862499Y36239499D02*
X72906001Y41283001D01*
X38652499Y36070501D02*
X38821497Y36239499D01*
X38821497Y36239499D02*
X67862499Y36239499D01*
X72906001Y41283001D02*
X73406000Y41783000D01*
X39033499Y42081499D02*
X35179000Y38227000D01*
X35179000Y38227000D02*
X35179000Y26289000D01*
X50292000Y42081499D02*
X49983671Y42081499D01*
X66338499Y42081499D02*
X50292000Y42081499D01*
X50292000Y42081499D02*
X39033499Y42081499D01*
X73279000Y49022000D02*
X66338499Y42081499D01*
X35179000Y27276828D02*
X35179000Y26289000D01*
D40*
G36*
X97080000Y38354000D02*
X86614000Y38354000D01*
X86614000Y39650560D01*
X87464000Y39650560D01*
X87699317Y39694838D01*
X87915441Y39833910D01*
X88060431Y40046110D01*
X88111440Y40298000D01*
X88111440Y40883914D01*
X94043269Y40883914D01*
X94245854Y40393620D01*
X94620647Y40018173D01*
X95110587Y39814732D01*
X95641086Y39814269D01*
X96131380Y40016854D01*
X96506827Y40391647D01*
X96710268Y40881587D01*
X96710731Y41412086D01*
X96508146Y41902380D01*
X96133353Y42277827D01*
X95643413Y42481268D01*
X95112914Y42481731D01*
X94622620Y42279146D01*
X94247173Y41904353D01*
X94043732Y41414413D01*
X94043269Y40883914D01*
X88111440Y40883914D01*
X88111440Y41998000D01*
X88067162Y42233317D01*
X87928090Y42449441D01*
X87926226Y42450715D01*
X89927760Y42450715D01*
X90138169Y41941485D01*
X90527436Y41551539D01*
X91036298Y41340241D01*
X91587285Y41339760D01*
X92096515Y41550169D01*
X92486461Y41939436D01*
X92697759Y42448298D01*
X92698240Y42999285D01*
X92487831Y43508515D01*
X92098564Y43898461D01*
X91589702Y44109759D01*
X91038715Y44110240D01*
X90529485Y43899831D01*
X90139539Y43510564D01*
X89928241Y43001702D01*
X89927760Y42450715D01*
X87926226Y42450715D01*
X87715890Y42594431D01*
X87607893Y42616301D01*
X87885645Y42921076D01*
X88055476Y43331110D01*
X87934155Y43561000D01*
X86741000Y43561000D01*
X86741000Y43541000D01*
X86487000Y43541000D01*
X86487000Y43561000D01*
X85293845Y43561000D01*
X85172524Y43331110D01*
X85342355Y42921076D01*
X85618501Y42618063D01*
X85528683Y42601162D01*
X85312559Y42462090D01*
X85167569Y42249890D01*
X85116560Y41998000D01*
X85116560Y40298000D01*
X85160838Y40062683D01*
X85197956Y40005000D01*
X79756000Y40005000D01*
X79756000Y43871520D01*
X79812431Y43954110D01*
X79863440Y44206000D01*
X79863440Y44436427D01*
X80017433Y44282434D01*
X80305517Y44089943D01*
X80385654Y44036397D01*
X80820000Y43950000D01*
X81441614Y43950000D01*
X81568110Y43863569D01*
X81820000Y43812560D01*
X83320000Y43812560D01*
X83555317Y43856838D01*
X83771441Y43995910D01*
X83817969Y44064006D01*
X83960302Y43921673D01*
X84193691Y43825000D01*
X84784250Y43825000D01*
X84943000Y43983750D01*
X84943000Y44044890D01*
X85172524Y44044890D01*
X85197000Y43998511D01*
X85197000Y43983750D01*
X85213494Y43967256D01*
X85293845Y43815000D01*
X86487000Y43815000D01*
X86487000Y45008819D01*
X86741000Y45008819D01*
X86741000Y43815000D01*
X87934155Y43815000D01*
X88055476Y44044890D01*
X87885645Y44454924D01*
X87495358Y44883183D01*
X86970892Y45129486D01*
X86741000Y45008819D01*
X86487000Y45008819D01*
X86257108Y45129486D01*
X85891954Y44958000D01*
X85197000Y44958000D01*
X85197000Y44103984D01*
X85172524Y44044890D01*
X84943000Y44044890D01*
X84943000Y44958000D01*
X84923000Y44958000D01*
X84923000Y45212000D01*
X84943000Y45212000D01*
X84943000Y46186250D01*
X84784250Y46345000D01*
X84193691Y46345000D01*
X83960302Y46248327D01*
X83819064Y46107090D01*
X83784090Y46161441D01*
X83705000Y46215481D01*
X83705000Y46506110D01*
X85172524Y46506110D01*
X85273373Y46262623D01*
X85197000Y46186250D01*
X85197000Y45212000D01*
X86296250Y45212000D01*
X86455000Y45370750D01*
X86455000Y45525385D01*
X86487000Y45542181D01*
X86487000Y46736000D01*
X86741000Y46736000D01*
X86741000Y45542181D01*
X86970892Y45421514D01*
X87495358Y45667817D01*
X87885645Y46096076D01*
X88055476Y46506110D01*
X87934155Y46736000D01*
X86741000Y46736000D01*
X86487000Y46736000D01*
X85293845Y46736000D01*
X85172524Y46506110D01*
X83705000Y46506110D01*
X83705000Y49545940D01*
X84412060Y50253000D01*
X85116560Y50253000D01*
X85116560Y48553000D01*
X85160838Y48317683D01*
X85299910Y48101559D01*
X85512110Y47956569D01*
X85620107Y47934699D01*
X85342355Y47629924D01*
X85172524Y47219890D01*
X85293845Y46990000D01*
X86487000Y46990000D01*
X86487000Y47010000D01*
X86741000Y47010000D01*
X86741000Y46990000D01*
X87934155Y46990000D01*
X88055476Y47219890D01*
X88001290Y47350715D01*
X89927760Y47350715D01*
X90138169Y46841485D01*
X90527436Y46451539D01*
X91036298Y46240241D01*
X91587285Y46239760D01*
X92096515Y46450169D01*
X92486461Y46839436D01*
X92697759Y47348298D01*
X92698240Y47899285D01*
X92487831Y48408515D01*
X92392599Y48503914D01*
X94043269Y48503914D01*
X94245854Y48013620D01*
X94620647Y47638173D01*
X95110587Y47434732D01*
X95641086Y47434269D01*
X96131380Y47636854D01*
X96506827Y48011647D01*
X96710268Y48501587D01*
X96710731Y49032086D01*
X96508146Y49522380D01*
X96133353Y49897827D01*
X95643413Y50101268D01*
X95112914Y50101731D01*
X94622620Y49899146D01*
X94247173Y49524353D01*
X94043732Y49034413D01*
X94043269Y48503914D01*
X92392599Y48503914D01*
X92098564Y48798461D01*
X91589702Y49009759D01*
X91038715Y49010240D01*
X90529485Y48799831D01*
X90139539Y48410564D01*
X89928241Y47901702D01*
X89927760Y47350715D01*
X88001290Y47350715D01*
X87885645Y47629924D01*
X87609499Y47932937D01*
X87699317Y47949838D01*
X87915441Y48088910D01*
X88060431Y48301110D01*
X88111440Y48553000D01*
X88111440Y50253000D01*
X88067162Y50488317D01*
X87928090Y50704441D01*
X87715890Y50849431D01*
X87464000Y50900440D01*
X85764000Y50900440D01*
X85528683Y50856162D01*
X85312559Y50717090D01*
X85167569Y50504890D01*
X85116560Y50253000D01*
X84412060Y50253000D01*
X85846620Y51687560D01*
X86975000Y51687560D01*
X87210317Y51731838D01*
X87426441Y51870910D01*
X87571431Y52083110D01*
X87622440Y52335000D01*
X87622440Y55835000D01*
X87578162Y56070317D01*
X87439090Y56286441D01*
X87226890Y56431431D01*
X86975000Y56482440D01*
X84975000Y56482440D01*
X84739683Y56438162D01*
X84523559Y56299090D01*
X84378569Y56086890D01*
X84327560Y55835000D01*
X84327560Y53940950D01*
X84286397Y53879345D01*
X84200000Y53445000D01*
X84232153Y53283357D01*
X81767434Y50818638D01*
X81521397Y50450418D01*
X81435000Y50016072D01*
X81435000Y46220000D01*
X81290133Y46220000D01*
X80304566Y47205566D01*
X79936345Y47451603D01*
X79756000Y47487476D01*
X79756000Y50165000D01*
X80391000Y50165000D01*
X80440410Y50175006D01*
X80482035Y50203447D01*
X80509315Y50245841D01*
X80518000Y50292000D01*
X80518000Y61199250D01*
X84120000Y61199250D01*
X84120000Y57858690D01*
X84216673Y57625301D01*
X84395302Y57446673D01*
X84628691Y57350000D01*
X87969250Y57350000D01*
X88128000Y57508750D01*
X88128000Y61358000D01*
X84278750Y61358000D01*
X84120000Y61199250D01*
X80518000Y61199250D01*
X80518000Y62726250D01*
X81925000Y62726250D01*
X81925000Y62135691D01*
X82021673Y61902302D01*
X82200301Y61723673D01*
X82433690Y61627000D01*
X82899250Y61627000D01*
X83058000Y61785750D01*
X83058000Y62885000D01*
X82083750Y62885000D01*
X81925000Y62726250D01*
X80518000Y62726250D01*
X80518000Y62884680D01*
X81039120Y63232880D01*
X81393543Y63763313D01*
X81515613Y64377000D01*
X82053156Y64377000D01*
X82095910Y64310559D01*
X82164006Y64264031D01*
X82021673Y64121698D01*
X81925000Y63888309D01*
X81925000Y63297750D01*
X82083750Y63139000D01*
X83058000Y63139000D01*
X83058000Y63159000D01*
X83312000Y63159000D01*
X83312000Y63139000D01*
X83332000Y63139000D01*
X83332000Y62885000D01*
X83312000Y62885000D01*
X83312000Y61785750D01*
X83470750Y61627000D01*
X83936310Y61627000D01*
X84167845Y61722905D01*
X84278750Y61612000D01*
X88128000Y61612000D01*
X88128000Y61632000D01*
X88382000Y61632000D01*
X88382000Y61612000D01*
X92079750Y61612000D01*
X92116750Y61575000D01*
X93091000Y61575000D01*
X93091000Y62674250D01*
X92932250Y62833000D01*
X92466690Y62833000D01*
X92390000Y62801234D01*
X92390000Y64450906D01*
X93988000Y62852906D01*
X93988000Y62825258D01*
X93969310Y62833000D01*
X93503750Y62833000D01*
X93345000Y62674250D01*
X93345000Y61575000D01*
X93365000Y61575000D01*
X93365000Y61321000D01*
X93345000Y61321000D01*
X93345000Y61301000D01*
X93091000Y61301000D01*
X93091000Y61321000D01*
X92268250Y61321000D01*
X92231250Y61358000D01*
X88382000Y61358000D01*
X88382000Y57508750D01*
X88540750Y57350000D01*
X90729868Y57350000D01*
X89862308Y56482440D01*
X89555000Y56482440D01*
X89319683Y56438162D01*
X89103559Y56299090D01*
X88958569Y56086890D01*
X88907560Y55835000D01*
X88907560Y52335000D01*
X88951838Y52099683D01*
X89090910Y51883559D01*
X89303110Y51738569D01*
X89555000Y51687560D01*
X91555000Y51687560D01*
X91790317Y51731838D01*
X92006441Y51870910D01*
X92151431Y52083110D01*
X92202440Y52335000D01*
X92202440Y54862308D01*
X94020566Y56680434D01*
X94266604Y57048655D01*
X94353000Y57483000D01*
X94353000Y57762867D01*
X95925567Y59335434D01*
X96171604Y59703655D01*
X96258000Y60138000D01*
X96258000Y63323038D01*
X96171603Y63757384D01*
X95925566Y64125604D01*
X95372829Y64678341D01*
X95694431Y64678060D01*
X96755335Y65116417D01*
X97080000Y65440516D01*
X97080000Y38354000D01*
X97080000Y38354000D01*
G37*
X97080000Y38354000D02*
X86614000Y38354000D01*
X86614000Y39650560D01*
X87464000Y39650560D01*
X87699317Y39694838D01*
X87915441Y39833910D01*
X88060431Y40046110D01*
X88111440Y40298000D01*
X88111440Y40883914D01*
X94043269Y40883914D01*
X94245854Y40393620D01*
X94620647Y40018173D01*
X95110587Y39814732D01*
X95641086Y39814269D01*
X96131380Y40016854D01*
X96506827Y40391647D01*
X96710268Y40881587D01*
X96710731Y41412086D01*
X96508146Y41902380D01*
X96133353Y42277827D01*
X95643413Y42481268D01*
X95112914Y42481731D01*
X94622620Y42279146D01*
X94247173Y41904353D01*
X94043732Y41414413D01*
X94043269Y40883914D01*
X88111440Y40883914D01*
X88111440Y41998000D01*
X88067162Y42233317D01*
X87928090Y42449441D01*
X87926226Y42450715D01*
X89927760Y42450715D01*
X90138169Y41941485D01*
X90527436Y41551539D01*
X91036298Y41340241D01*
X91587285Y41339760D01*
X92096515Y41550169D01*
X92486461Y41939436D01*
X92697759Y42448298D01*
X92698240Y42999285D01*
X92487831Y43508515D01*
X92098564Y43898461D01*
X91589702Y44109759D01*
X91038715Y44110240D01*
X90529485Y43899831D01*
X90139539Y43510564D01*
X89928241Y43001702D01*
X89927760Y42450715D01*
X87926226Y42450715D01*
X87715890Y42594431D01*
X87607893Y42616301D01*
X87885645Y42921076D01*
X88055476Y43331110D01*
X87934155Y43561000D01*
X86741000Y43561000D01*
X86741000Y43541000D01*
X86487000Y43541000D01*
X86487000Y43561000D01*
X85293845Y43561000D01*
X85172524Y43331110D01*
X85342355Y42921076D01*
X85618501Y42618063D01*
X85528683Y42601162D01*
X85312559Y42462090D01*
X85167569Y42249890D01*
X85116560Y41998000D01*
X85116560Y40298000D01*
X85160838Y40062683D01*
X85197956Y40005000D01*
X79756000Y40005000D01*
X79756000Y43871520D01*
X79812431Y43954110D01*
X79863440Y44206000D01*
X79863440Y44436427D01*
X80017433Y44282434D01*
X80305517Y44089943D01*
X80385654Y44036397D01*
X80820000Y43950000D01*
X81441614Y43950000D01*
X81568110Y43863569D01*
X81820000Y43812560D01*
X83320000Y43812560D01*
X83555317Y43856838D01*
X83771441Y43995910D01*
X83817969Y44064006D01*
X83960302Y43921673D01*
X84193691Y43825000D01*
X84784250Y43825000D01*
X84943000Y43983750D01*
X84943000Y44044890D01*
X85172524Y44044890D01*
X85197000Y43998511D01*
X85197000Y43983750D01*
X85213494Y43967256D01*
X85293845Y43815000D01*
X86487000Y43815000D01*
X86487000Y45008819D01*
X86741000Y45008819D01*
X86741000Y43815000D01*
X87934155Y43815000D01*
X88055476Y44044890D01*
X87885645Y44454924D01*
X87495358Y44883183D01*
X86970892Y45129486D01*
X86741000Y45008819D01*
X86487000Y45008819D01*
X86257108Y45129486D01*
X85891954Y44958000D01*
X85197000Y44958000D01*
X85197000Y44103984D01*
X85172524Y44044890D01*
X84943000Y44044890D01*
X84943000Y44958000D01*
X84923000Y44958000D01*
X84923000Y45212000D01*
X84943000Y45212000D01*
X84943000Y46186250D01*
X84784250Y46345000D01*
X84193691Y46345000D01*
X83960302Y46248327D01*
X83819064Y46107090D01*
X83784090Y46161441D01*
X83705000Y46215481D01*
X83705000Y46506110D01*
X85172524Y46506110D01*
X85273373Y46262623D01*
X85197000Y46186250D01*
X85197000Y45212000D01*
X86296250Y45212000D01*
X86455000Y45370750D01*
X86455000Y45525385D01*
X86487000Y45542181D01*
X86487000Y46736000D01*
X86741000Y46736000D01*
X86741000Y45542181D01*
X86970892Y45421514D01*
X87495358Y45667817D01*
X87885645Y46096076D01*
X88055476Y46506110D01*
X87934155Y46736000D01*
X86741000Y46736000D01*
X86487000Y46736000D01*
X85293845Y46736000D01*
X85172524Y46506110D01*
X83705000Y46506110D01*
X83705000Y49545940D01*
X84412060Y50253000D01*
X85116560Y50253000D01*
X85116560Y48553000D01*
X85160838Y48317683D01*
X85299910Y48101559D01*
X85512110Y47956569D01*
X85620107Y47934699D01*
X85342355Y47629924D01*
X85172524Y47219890D01*
X85293845Y46990000D01*
X86487000Y46990000D01*
X86487000Y47010000D01*
X86741000Y47010000D01*
X86741000Y46990000D01*
X87934155Y46990000D01*
X88055476Y47219890D01*
X88001290Y47350715D01*
X89927760Y47350715D01*
X90138169Y46841485D01*
X90527436Y46451539D01*
X91036298Y46240241D01*
X91587285Y46239760D01*
X92096515Y46450169D01*
X92486461Y46839436D01*
X92697759Y47348298D01*
X92698240Y47899285D01*
X92487831Y48408515D01*
X92392599Y48503914D01*
X94043269Y48503914D01*
X94245854Y48013620D01*
X94620647Y47638173D01*
X95110587Y47434732D01*
X95641086Y47434269D01*
X96131380Y47636854D01*
X96506827Y48011647D01*
X96710268Y48501587D01*
X96710731Y49032086D01*
X96508146Y49522380D01*
X96133353Y49897827D01*
X95643413Y50101268D01*
X95112914Y50101731D01*
X94622620Y49899146D01*
X94247173Y49524353D01*
X94043732Y49034413D01*
X94043269Y48503914D01*
X92392599Y48503914D01*
X92098564Y48798461D01*
X91589702Y49009759D01*
X91038715Y49010240D01*
X90529485Y48799831D01*
X90139539Y48410564D01*
X89928241Y47901702D01*
X89927760Y47350715D01*
X88001290Y47350715D01*
X87885645Y47629924D01*
X87609499Y47932937D01*
X87699317Y47949838D01*
X87915441Y48088910D01*
X88060431Y48301110D01*
X88111440Y48553000D01*
X88111440Y50253000D01*
X88067162Y50488317D01*
X87928090Y50704441D01*
X87715890Y50849431D01*
X87464000Y50900440D01*
X85764000Y50900440D01*
X85528683Y50856162D01*
X85312559Y50717090D01*
X85167569Y50504890D01*
X85116560Y50253000D01*
X84412060Y50253000D01*
X85846620Y51687560D01*
X86975000Y51687560D01*
X87210317Y51731838D01*
X87426441Y51870910D01*
X87571431Y52083110D01*
X87622440Y52335000D01*
X87622440Y55835000D01*
X87578162Y56070317D01*
X87439090Y56286441D01*
X87226890Y56431431D01*
X86975000Y56482440D01*
X84975000Y56482440D01*
X84739683Y56438162D01*
X84523559Y56299090D01*
X84378569Y56086890D01*
X84327560Y55835000D01*
X84327560Y53940950D01*
X84286397Y53879345D01*
X84200000Y53445000D01*
X84232153Y53283357D01*
X81767434Y50818638D01*
X81521397Y50450418D01*
X81435000Y50016072D01*
X81435000Y46220000D01*
X81290133Y46220000D01*
X80304566Y47205566D01*
X79936345Y47451603D01*
X79756000Y47487476D01*
X79756000Y50165000D01*
X80391000Y50165000D01*
X80440410Y50175006D01*
X80482035Y50203447D01*
X80509315Y50245841D01*
X80518000Y50292000D01*
X80518000Y61199250D01*
X84120000Y61199250D01*
X84120000Y57858690D01*
X84216673Y57625301D01*
X84395302Y57446673D01*
X84628691Y57350000D01*
X87969250Y57350000D01*
X88128000Y57508750D01*
X88128000Y61358000D01*
X84278750Y61358000D01*
X84120000Y61199250D01*
X80518000Y61199250D01*
X80518000Y62726250D01*
X81925000Y62726250D01*
X81925000Y62135691D01*
X82021673Y61902302D01*
X82200301Y61723673D01*
X82433690Y61627000D01*
X82899250Y61627000D01*
X83058000Y61785750D01*
X83058000Y62885000D01*
X82083750Y62885000D01*
X81925000Y62726250D01*
X80518000Y62726250D01*
X80518000Y62884680D01*
X81039120Y63232880D01*
X81393543Y63763313D01*
X81515613Y64377000D01*
X82053156Y64377000D01*
X82095910Y64310559D01*
X82164006Y64264031D01*
X82021673Y64121698D01*
X81925000Y63888309D01*
X81925000Y63297750D01*
X82083750Y63139000D01*
X83058000Y63139000D01*
X83058000Y63159000D01*
X83312000Y63159000D01*
X83312000Y63139000D01*
X83332000Y63139000D01*
X83332000Y62885000D01*
X83312000Y62885000D01*
X83312000Y61785750D01*
X83470750Y61627000D01*
X83936310Y61627000D01*
X84167845Y61722905D01*
X84278750Y61612000D01*
X88128000Y61612000D01*
X88128000Y61632000D01*
X88382000Y61632000D01*
X88382000Y61612000D01*
X92079750Y61612000D01*
X92116750Y61575000D01*
X93091000Y61575000D01*
X93091000Y62674250D01*
X92932250Y62833000D01*
X92466690Y62833000D01*
X92390000Y62801234D01*
X92390000Y64450906D01*
X93988000Y62852906D01*
X93988000Y62825258D01*
X93969310Y62833000D01*
X93503750Y62833000D01*
X93345000Y62674250D01*
X93345000Y61575000D01*
X93365000Y61575000D01*
X93365000Y61321000D01*
X93345000Y61321000D01*
X93345000Y61301000D01*
X93091000Y61301000D01*
X93091000Y61321000D01*
X92268250Y61321000D01*
X92231250Y61358000D01*
X88382000Y61358000D01*
X88382000Y57508750D01*
X88540750Y57350000D01*
X90729868Y57350000D01*
X89862308Y56482440D01*
X89555000Y56482440D01*
X89319683Y56438162D01*
X89103559Y56299090D01*
X88958569Y56086890D01*
X88907560Y55835000D01*
X88907560Y52335000D01*
X88951838Y52099683D01*
X89090910Y51883559D01*
X89303110Y51738569D01*
X89555000Y51687560D01*
X91555000Y51687560D01*
X91790317Y51731838D01*
X92006441Y51870910D01*
X92151431Y52083110D01*
X92202440Y52335000D01*
X92202440Y54862308D01*
X94020566Y56680434D01*
X94266604Y57048655D01*
X94353000Y57483000D01*
X94353000Y57762867D01*
X95925567Y59335434D01*
X96171604Y59703655D01*
X96258000Y60138000D01*
X96258000Y63323038D01*
X96171603Y63757384D01*
X95925566Y64125604D01*
X95372829Y64678341D01*
X95694431Y64678060D01*
X96755335Y65116417D01*
X97080000Y65440516D01*
X97080000Y38354000D01*
G36*
X60960000Y39637268D02*
X60769776Y39179159D01*
X60769225Y38547612D01*
X60960000Y38085901D01*
X60960000Y37074499D01*
X58561798Y37074499D01*
X58622340Y37242131D01*
X58595553Y37822535D01*
X58424976Y38234344D01*
X58176215Y38311610D01*
X57329605Y37465000D01*
X57343748Y37450857D01*
X57164143Y37271252D01*
X57150000Y37285395D01*
X57135858Y37271252D01*
X56956253Y37450857D01*
X56970395Y37465000D01*
X56123785Y38311610D01*
X55875024Y38234344D01*
X55677660Y37687869D01*
X55704447Y37107465D01*
X55718102Y37074499D01*
X41289798Y37074499D01*
X41350340Y37242131D01*
X41323553Y37822535D01*
X41152976Y38234344D01*
X40904215Y38311610D01*
X40057605Y37465000D01*
X40071748Y37450857D01*
X39892143Y37271252D01*
X39878000Y37285395D01*
X39863858Y37271252D01*
X39684253Y37450857D01*
X39698395Y37465000D01*
X38851785Y38311610D01*
X38603024Y38234344D01*
X38405660Y37687869D01*
X38432447Y37107465D01*
X38478830Y36995486D01*
X38303828Y36878553D01*
X38231063Y36829933D01*
X37128566Y35727436D01*
X36947561Y35456543D01*
X36884000Y35137002D01*
X36884000Y32512000D01*
X36195000Y32512000D01*
X36195000Y38062132D01*
X36624083Y38491215D01*
X39031390Y38491215D01*
X39878000Y37644605D01*
X40724610Y38491215D01*
X56303390Y38491215D01*
X57150000Y37644605D01*
X57996610Y38491215D01*
X57919344Y38739976D01*
X57372869Y38937340D01*
X56792465Y38910553D01*
X56380656Y38739976D01*
X56303390Y38491215D01*
X40724610Y38491215D01*
X40647344Y38739976D01*
X40100869Y38937340D01*
X39520465Y38910553D01*
X39108656Y38739976D01*
X39031390Y38491215D01*
X36624083Y38491215D01*
X39379367Y41246499D01*
X60960000Y41246499D01*
X60960000Y39637268D01*
X60960000Y39637268D01*
G37*
X60960000Y39637268D02*
X60769776Y39179159D01*
X60769225Y38547612D01*
X60960000Y38085901D01*
X60960000Y37074499D01*
X58561798Y37074499D01*
X58622340Y37242131D01*
X58595553Y37822535D01*
X58424976Y38234344D01*
X58176215Y38311610D01*
X57329605Y37465000D01*
X57343748Y37450857D01*
X57164143Y37271252D01*
X57150000Y37285395D01*
X57135858Y37271252D01*
X56956253Y37450857D01*
X56970395Y37465000D01*
X56123785Y38311610D01*
X55875024Y38234344D01*
X55677660Y37687869D01*
X55704447Y37107465D01*
X55718102Y37074499D01*
X41289798Y37074499D01*
X41350340Y37242131D01*
X41323553Y37822535D01*
X41152976Y38234344D01*
X40904215Y38311610D01*
X40057605Y37465000D01*
X40071748Y37450857D01*
X39892143Y37271252D01*
X39878000Y37285395D01*
X39863858Y37271252D01*
X39684253Y37450857D01*
X39698395Y37465000D01*
X38851785Y38311610D01*
X38603024Y38234344D01*
X38405660Y37687869D01*
X38432447Y37107465D01*
X38478830Y36995486D01*
X38303828Y36878553D01*
X38231063Y36829933D01*
X37128566Y35727436D01*
X36947561Y35456543D01*
X36884000Y35137002D01*
X36884000Y32512000D01*
X36195000Y32512000D01*
X36195000Y38062132D01*
X36624083Y38491215D01*
X39031390Y38491215D01*
X39878000Y37644605D01*
X40724610Y38491215D01*
X56303390Y38491215D01*
X57150000Y37644605D01*
X57996610Y38491215D01*
X57919344Y38739976D01*
X57372869Y38937340D01*
X56792465Y38910553D01*
X56380656Y38739976D01*
X56303390Y38491215D01*
X40724610Y38491215D01*
X40647344Y38739976D01*
X40100869Y38937340D01*
X39520465Y38910553D01*
X39108656Y38739976D01*
X39031390Y38491215D01*
X36624083Y38491215D01*
X39379367Y41246499D01*
X60960000Y41246499D01*
X60960000Y39637268D01*
G36*
X85344000Y37465000D02*
X85354006Y37415590D01*
X85382447Y37373965D01*
X85424841Y37346685D01*
X85471000Y37338000D01*
X87538340Y37338000D01*
X87534301Y37336327D01*
X87355673Y37157698D01*
X87259000Y36924309D01*
X87259000Y36333750D01*
X87417750Y36175000D01*
X88392000Y36175000D01*
X88392000Y36195000D01*
X88646000Y36195000D01*
X88646000Y36175000D01*
X89620250Y36175000D01*
X89779000Y36333750D01*
X89779000Y36924309D01*
X89682327Y37157698D01*
X89503699Y37336327D01*
X89499660Y37338000D01*
X91092248Y37338000D01*
X90797656Y37215976D01*
X90720390Y36967215D01*
X91567000Y36120605D01*
X92413610Y36967215D01*
X92336344Y37215976D01*
X91998476Y37338000D01*
X97080000Y37338000D01*
X97080000Y32512000D01*
X93027081Y32512000D01*
X93039940Y32575500D01*
X93039940Y34226500D01*
X92995662Y34461817D01*
X92856590Y34677941D01*
X92644390Y34822931D01*
X92400425Y34872335D01*
X92413610Y34914785D01*
X91567000Y35761395D01*
X90720390Y34914785D01*
X90733542Y34872443D01*
X90506183Y34829662D01*
X90290059Y34690590D01*
X90284873Y34683000D01*
X89650844Y34683000D01*
X89608090Y34749441D01*
X89539994Y34795969D01*
X89682327Y34938302D01*
X89779000Y35171691D01*
X89779000Y35762250D01*
X89620250Y35921000D01*
X88646000Y35921000D01*
X88646000Y35901000D01*
X88392000Y35901000D01*
X88392000Y35921000D01*
X87417750Y35921000D01*
X87259000Y35762250D01*
X87259000Y35171691D01*
X87355673Y34938302D01*
X87496910Y34797064D01*
X87442559Y34762090D01*
X87297569Y34549890D01*
X87294756Y34536000D01*
X86976895Y34536000D01*
X86499413Y34734268D01*
X85968914Y34734731D01*
X85478620Y34532146D01*
X85103173Y34157353D01*
X84903603Y33676735D01*
X83738868Y32512000D01*
X79947604Y32512000D01*
X80123543Y32775312D01*
X80248001Y33401000D01*
X80248000Y33401005D01*
X80248000Y36163869D01*
X90094660Y36163869D01*
X90121447Y35583465D01*
X90292024Y35171656D01*
X90540785Y35094390D01*
X91387395Y35941000D01*
X91746605Y35941000D01*
X92593215Y35094390D01*
X92841976Y35171656D01*
X93039340Y35718131D01*
X93012553Y36298535D01*
X92841976Y36710344D01*
X92593215Y36787610D01*
X91746605Y35941000D01*
X91387395Y35941000D01*
X90540785Y36787610D01*
X90292024Y36710344D01*
X90094660Y36163869D01*
X80248000Y36163869D01*
X80248000Y37337995D01*
X80248001Y37338000D01*
X80123543Y37963687D01*
X80002033Y38145540D01*
X79769120Y38494120D01*
X79769117Y38494122D01*
X79274239Y38989000D01*
X85344000Y38989000D01*
X85344000Y37465000D01*
X85344000Y37465000D01*
G37*
X85344000Y37465000D02*
X85354006Y37415590D01*
X85382447Y37373965D01*
X85424841Y37346685D01*
X85471000Y37338000D01*
X87538340Y37338000D01*
X87534301Y37336327D01*
X87355673Y37157698D01*
X87259000Y36924309D01*
X87259000Y36333750D01*
X87417750Y36175000D01*
X88392000Y36175000D01*
X88392000Y36195000D01*
X88646000Y36195000D01*
X88646000Y36175000D01*
X89620250Y36175000D01*
X89779000Y36333750D01*
X89779000Y36924309D01*
X89682327Y37157698D01*
X89503699Y37336327D01*
X89499660Y37338000D01*
X91092248Y37338000D01*
X90797656Y37215976D01*
X90720390Y36967215D01*
X91567000Y36120605D01*
X92413610Y36967215D01*
X92336344Y37215976D01*
X91998476Y37338000D01*
X97080000Y37338000D01*
X97080000Y32512000D01*
X93027081Y32512000D01*
X93039940Y32575500D01*
X93039940Y34226500D01*
X92995662Y34461817D01*
X92856590Y34677941D01*
X92644390Y34822931D01*
X92400425Y34872335D01*
X92413610Y34914785D01*
X91567000Y35761395D01*
X90720390Y34914785D01*
X90733542Y34872443D01*
X90506183Y34829662D01*
X90290059Y34690590D01*
X90284873Y34683000D01*
X89650844Y34683000D01*
X89608090Y34749441D01*
X89539994Y34795969D01*
X89682327Y34938302D01*
X89779000Y35171691D01*
X89779000Y35762250D01*
X89620250Y35921000D01*
X88646000Y35921000D01*
X88646000Y35901000D01*
X88392000Y35901000D01*
X88392000Y35921000D01*
X87417750Y35921000D01*
X87259000Y35762250D01*
X87259000Y35171691D01*
X87355673Y34938302D01*
X87496910Y34797064D01*
X87442559Y34762090D01*
X87297569Y34549890D01*
X87294756Y34536000D01*
X86976895Y34536000D01*
X86499413Y34734268D01*
X85968914Y34734731D01*
X85478620Y34532146D01*
X85103173Y34157353D01*
X84903603Y33676735D01*
X83738868Y32512000D01*
X79947604Y32512000D01*
X80123543Y32775312D01*
X80248001Y33401000D01*
X80248000Y33401005D01*
X80248000Y36163869D01*
X90094660Y36163869D01*
X90121447Y35583465D01*
X90292024Y35171656D01*
X90540785Y35094390D01*
X91387395Y35941000D01*
X91746605Y35941000D01*
X92593215Y35094390D01*
X92841976Y35171656D01*
X93039340Y35718131D01*
X93012553Y36298535D01*
X92841976Y36710344D01*
X92593215Y36787610D01*
X91746605Y35941000D01*
X91387395Y35941000D01*
X90540785Y36787610D01*
X90292024Y36710344D01*
X90094660Y36163869D01*
X80248000Y36163869D01*
X80248000Y37337995D01*
X80248001Y37338000D01*
X80123543Y37963687D01*
X80002033Y38145540D01*
X79769120Y38494120D01*
X79769117Y38494122D01*
X79274239Y38989000D01*
X85344000Y38989000D01*
X85344000Y37465000D01*
G36*
X76450465Y46320667D02*
X76540221Y46103440D01*
X75216000Y46103440D01*
X74980683Y46059162D01*
X74764559Y45920090D01*
X74619569Y45707890D01*
X74568560Y45456000D01*
X74568560Y44206000D01*
X74612838Y43970683D01*
X74751910Y43754559D01*
X74964110Y43609569D01*
X75216000Y43558560D01*
X76037572Y43558560D01*
X76323465Y43272667D01*
X76422883Y43032057D01*
X76685673Y42768808D01*
X77029201Y42626162D01*
X77401167Y42625838D01*
X77744943Y42767883D01*
X77787344Y42810210D01*
X77828673Y42768808D01*
X78172201Y42626162D01*
X78544167Y42625838D01*
X78740000Y42706754D01*
X78740000Y39523240D01*
X77991120Y40272120D01*
X77460688Y40626543D01*
X76835000Y40751001D01*
X76209312Y40626543D01*
X75678880Y40272120D01*
X75324457Y39741688D01*
X75199999Y39116000D01*
X75200000Y39115995D01*
X75200000Y38852000D01*
X74854750Y38852000D01*
X74696000Y38693250D01*
X74696000Y37719000D01*
X74716000Y37719000D01*
X74716000Y37465000D01*
X74696000Y37465000D01*
X74696000Y37445000D01*
X74442000Y37445000D01*
X74442000Y37465000D01*
X73342750Y37465000D01*
X73184000Y37306250D01*
X73184000Y36840690D01*
X73208298Y36782030D01*
X72866869Y36905340D01*
X72286465Y36878553D01*
X71874656Y36707976D01*
X71797390Y36459215D01*
X72644000Y35612605D01*
X72658143Y35626747D01*
X72837748Y35447142D01*
X72823605Y35433000D01*
X73670215Y34586390D01*
X73712557Y34599542D01*
X73755338Y34372183D01*
X73894410Y34156059D01*
X74106610Y34011069D01*
X74358500Y33960060D01*
X74502036Y33960060D01*
X74558313Y33922457D01*
X75184000Y33798000D01*
X75903760Y33798000D01*
X77189760Y32512000D01*
X38554000Y32512000D01*
X38554000Y33701534D01*
X38588410Y33648059D01*
X38800610Y33503069D01*
X39052500Y33452060D01*
X40703500Y33452060D01*
X40938817Y33496338D01*
X41154941Y33635410D01*
X41299931Y33847610D01*
X41350940Y34099500D01*
X41350940Y35404499D01*
X43332213Y35404499D01*
X43243732Y35191413D01*
X43243269Y34660914D01*
X43445854Y34170620D01*
X43820647Y33795173D01*
X44310587Y33591732D01*
X44841086Y33591269D01*
X45331380Y33793854D01*
X45706827Y34168647D01*
X45910268Y34658587D01*
X45910731Y35189086D01*
X45821724Y35404499D01*
X50952213Y35404499D01*
X50863732Y35191413D01*
X50863269Y34660914D01*
X51065854Y34170620D01*
X51440647Y33795173D01*
X51930587Y33591732D01*
X52461086Y33591269D01*
X52951380Y33793854D01*
X53326827Y34168647D01*
X53530268Y34658587D01*
X53530731Y35189086D01*
X53441724Y35404499D01*
X55677060Y35404499D01*
X55677060Y34099500D01*
X55721338Y33864183D01*
X55860410Y33648059D01*
X56072610Y33503069D01*
X56324500Y33452060D01*
X57975500Y33452060D01*
X58210817Y33496338D01*
X58426941Y33635410D01*
X58571931Y33847610D01*
X58622940Y34099500D01*
X58622940Y34406785D01*
X71797390Y34406785D01*
X71874656Y34158024D01*
X72421131Y33960660D01*
X73001535Y33987447D01*
X73413344Y34158024D01*
X73490610Y34406785D01*
X72644000Y35253395D01*
X71797390Y34406785D01*
X58622940Y34406785D01*
X58622940Y35404499D01*
X60960000Y35404499D01*
X60960000Y34925000D01*
X60968685Y34878841D01*
X60995965Y34836447D01*
X61037590Y34808006D01*
X61087000Y34798000D01*
X68834000Y34798000D01*
X68880159Y34806685D01*
X68922553Y34833965D01*
X68950994Y34875590D01*
X68961000Y34925000D01*
X68961000Y35655869D01*
X71171660Y35655869D01*
X71198447Y35075465D01*
X71369024Y34663656D01*
X71617785Y34586390D01*
X72464395Y35433000D01*
X71617785Y36279610D01*
X71369024Y36202344D01*
X71171660Y35655869D01*
X68961000Y35655869D01*
X68961000Y36157132D01*
X71147178Y38343310D01*
X73184000Y38343310D01*
X73184000Y37877750D01*
X73342750Y37719000D01*
X74442000Y37719000D01*
X74442000Y38693250D01*
X74283250Y38852000D01*
X73692691Y38852000D01*
X73459302Y38755327D01*
X73280673Y38576699D01*
X73184000Y38343310D01*
X71147178Y38343310D01*
X73451827Y40647959D01*
X73630775Y40647803D01*
X74048086Y40820233D01*
X74367645Y41139235D01*
X74540803Y41556244D01*
X74541197Y42007775D01*
X74368767Y42425086D01*
X74049765Y42744645D01*
X73632756Y42917803D01*
X73181225Y42918197D01*
X72763914Y42745767D01*
X72444355Y42426765D01*
X72271197Y42009756D01*
X72271039Y41828907D01*
X69036940Y38594808D01*
X69036940Y39814500D01*
X68992662Y40049817D01*
X68961000Y40099021D01*
X68961000Y43523132D01*
X73324827Y47886959D01*
X73503775Y47886803D01*
X73921086Y48059233D01*
X74240645Y48378235D01*
X74285317Y48485815D01*
X76450465Y46320667D01*
X76450465Y46320667D01*
G37*
X76450465Y46320667D02*
X76540221Y46103440D01*
X75216000Y46103440D01*
X74980683Y46059162D01*
X74764559Y45920090D01*
X74619569Y45707890D01*
X74568560Y45456000D01*
X74568560Y44206000D01*
X74612838Y43970683D01*
X74751910Y43754559D01*
X74964110Y43609569D01*
X75216000Y43558560D01*
X76037572Y43558560D01*
X76323465Y43272667D01*
X76422883Y43032057D01*
X76685673Y42768808D01*
X77029201Y42626162D01*
X77401167Y42625838D01*
X77744943Y42767883D01*
X77787344Y42810210D01*
X77828673Y42768808D01*
X78172201Y42626162D01*
X78544167Y42625838D01*
X78740000Y42706754D01*
X78740000Y39523240D01*
X77991120Y40272120D01*
X77460688Y40626543D01*
X76835000Y40751001D01*
X76209312Y40626543D01*
X75678880Y40272120D01*
X75324457Y39741688D01*
X75199999Y39116000D01*
X75200000Y39115995D01*
X75200000Y38852000D01*
X74854750Y38852000D01*
X74696000Y38693250D01*
X74696000Y37719000D01*
X74716000Y37719000D01*
X74716000Y37465000D01*
X74696000Y37465000D01*
X74696000Y37445000D01*
X74442000Y37445000D01*
X74442000Y37465000D01*
X73342750Y37465000D01*
X73184000Y37306250D01*
X73184000Y36840690D01*
X73208298Y36782030D01*
X72866869Y36905340D01*
X72286465Y36878553D01*
X71874656Y36707976D01*
X71797390Y36459215D01*
X72644000Y35612605D01*
X72658143Y35626747D01*
X72837748Y35447142D01*
X72823605Y35433000D01*
X73670215Y34586390D01*
X73712557Y34599542D01*
X73755338Y34372183D01*
X73894410Y34156059D01*
X74106610Y34011069D01*
X74358500Y33960060D01*
X74502036Y33960060D01*
X74558313Y33922457D01*
X75184000Y33798000D01*
X75903760Y33798000D01*
X77189760Y32512000D01*
X38554000Y32512000D01*
X38554000Y33701534D01*
X38588410Y33648059D01*
X38800610Y33503069D01*
X39052500Y33452060D01*
X40703500Y33452060D01*
X40938817Y33496338D01*
X41154941Y33635410D01*
X41299931Y33847610D01*
X41350940Y34099500D01*
X41350940Y35404499D01*
X43332213Y35404499D01*
X43243732Y35191413D01*
X43243269Y34660914D01*
X43445854Y34170620D01*
X43820647Y33795173D01*
X44310587Y33591732D01*
X44841086Y33591269D01*
X45331380Y33793854D01*
X45706827Y34168647D01*
X45910268Y34658587D01*
X45910731Y35189086D01*
X45821724Y35404499D01*
X50952213Y35404499D01*
X50863732Y35191413D01*
X50863269Y34660914D01*
X51065854Y34170620D01*
X51440647Y33795173D01*
X51930587Y33591732D01*
X52461086Y33591269D01*
X52951380Y33793854D01*
X53326827Y34168647D01*
X53530268Y34658587D01*
X53530731Y35189086D01*
X53441724Y35404499D01*
X55677060Y35404499D01*
X55677060Y34099500D01*
X55721338Y33864183D01*
X55860410Y33648059D01*
X56072610Y33503069D01*
X56324500Y33452060D01*
X57975500Y33452060D01*
X58210817Y33496338D01*
X58426941Y33635410D01*
X58571931Y33847610D01*
X58622940Y34099500D01*
X58622940Y34406785D01*
X71797390Y34406785D01*
X71874656Y34158024D01*
X72421131Y33960660D01*
X73001535Y33987447D01*
X73413344Y34158024D01*
X73490610Y34406785D01*
X72644000Y35253395D01*
X71797390Y34406785D01*
X58622940Y34406785D01*
X58622940Y35404499D01*
X60960000Y35404499D01*
X60960000Y34925000D01*
X60968685Y34878841D01*
X60995965Y34836447D01*
X61037590Y34808006D01*
X61087000Y34798000D01*
X68834000Y34798000D01*
X68880159Y34806685D01*
X68922553Y34833965D01*
X68950994Y34875590D01*
X68961000Y34925000D01*
X68961000Y35655869D01*
X71171660Y35655869D01*
X71198447Y35075465D01*
X71369024Y34663656D01*
X71617785Y34586390D01*
X72464395Y35433000D01*
X71617785Y36279610D01*
X71369024Y36202344D01*
X71171660Y35655869D01*
X68961000Y35655869D01*
X68961000Y36157132D01*
X71147178Y38343310D01*
X73184000Y38343310D01*
X73184000Y37877750D01*
X73342750Y37719000D01*
X74442000Y37719000D01*
X74442000Y38693250D01*
X74283250Y38852000D01*
X73692691Y38852000D01*
X73459302Y38755327D01*
X73280673Y38576699D01*
X73184000Y38343310D01*
X71147178Y38343310D01*
X73451827Y40647959D01*
X73630775Y40647803D01*
X74048086Y40820233D01*
X74367645Y41139235D01*
X74540803Y41556244D01*
X74541197Y42007775D01*
X74368767Y42425086D01*
X74049765Y42744645D01*
X73632756Y42917803D01*
X73181225Y42918197D01*
X72763914Y42745767D01*
X72444355Y42426765D01*
X72271197Y42009756D01*
X72271039Y41828907D01*
X69036940Y38594808D01*
X69036940Y39814500D01*
X68992662Y40049817D01*
X68961000Y40099021D01*
X68961000Y43523132D01*
X73324827Y47886959D01*
X73503775Y47886803D01*
X73921086Y48059233D01*
X74240645Y48378235D01*
X74285317Y48485815D01*
X76450465Y46320667D01*
G36*
X70073808Y69618327D02*
X69931162Y69274799D01*
X69930838Y68902833D01*
X70072883Y68559057D01*
X70335673Y68295808D01*
X70679201Y68153162D01*
X71051167Y68152838D01*
X71374000Y68286230D01*
X71374000Y60795956D01*
X68347043Y57769000D01*
X66489608Y57769000D01*
X66431217Y57827391D01*
X66679976Y57904656D01*
X66877340Y58451131D01*
X66850553Y59031535D01*
X66679976Y59443344D01*
X66431215Y59520610D01*
X65584605Y58674000D01*
X65598748Y58659857D01*
X65419143Y58480252D01*
X65405000Y58494395D01*
X64558390Y57647785D01*
X64571542Y57605443D01*
X64344183Y57562662D01*
X64128059Y57423590D01*
X63983069Y57211390D01*
X63932060Y56959500D01*
X63932060Y56942103D01*
X63640457Y56505687D01*
X63516000Y55880000D01*
X63516000Y51816000D01*
X63640457Y51190313D01*
X63816397Y50927000D01*
X61087000Y50927000D01*
X61040841Y50918315D01*
X60998447Y50891035D01*
X60970006Y50849410D01*
X60960000Y50800000D01*
X60960000Y48103878D01*
X60935069Y48067390D01*
X60884060Y47815500D01*
X60884060Y46639054D01*
X60714765Y46808645D01*
X60297756Y46981803D01*
X59846225Y46982197D01*
X59428914Y46809767D01*
X59109355Y46490765D01*
X58936197Y46073756D01*
X58935803Y45622225D01*
X59108233Y45204914D01*
X59427235Y44885355D01*
X59844244Y44712197D01*
X60295775Y44711803D01*
X60713086Y44884233D01*
X60960000Y45130717D01*
X60960000Y42916499D01*
X58561798Y42916499D01*
X58622340Y43084131D01*
X58595553Y43664535D01*
X58424976Y44076344D01*
X58176215Y44153610D01*
X57329605Y43307000D01*
X57343748Y43292857D01*
X57164143Y43113252D01*
X57150000Y43127395D01*
X57135858Y43113252D01*
X56956253Y43292857D01*
X56970395Y43307000D01*
X56123785Y44153610D01*
X55875024Y44076344D01*
X55677660Y43529869D01*
X55704447Y42949465D01*
X55718102Y42916499D01*
X41289798Y42916499D01*
X41350340Y43084131D01*
X41323553Y43664535D01*
X41152976Y44076344D01*
X40904215Y44153610D01*
X40057605Y43307000D01*
X40071748Y43292857D01*
X39892143Y43113252D01*
X39878000Y43127395D01*
X39863858Y43113252D01*
X39684253Y43292857D01*
X39698395Y43307000D01*
X38851785Y44153610D01*
X38603024Y44076344D01*
X38405660Y43529869D01*
X38432447Y42949465D01*
X38524787Y42726538D01*
X38443065Y42671933D01*
X36195000Y40423868D01*
X36195000Y46482000D01*
X37338000Y46482000D01*
X37384159Y46490685D01*
X37426553Y46517965D01*
X37454994Y46559590D01*
X37465000Y46609000D01*
X37465000Y46672500D01*
X38405060Y46672500D01*
X38405060Y45021500D01*
X38449338Y44786183D01*
X38588410Y44570059D01*
X38800610Y44425069D01*
X39044575Y44375665D01*
X39031390Y44333215D01*
X39878000Y43486605D01*
X40724610Y44333215D01*
X40711458Y44375557D01*
X40938817Y44418338D01*
X41154941Y44557410D01*
X41299931Y44769610D01*
X41350940Y45021500D01*
X41350940Y45582914D01*
X43243269Y45582914D01*
X43445854Y45092620D01*
X43820647Y44717173D01*
X44310587Y44513732D01*
X44841086Y44513269D01*
X45331380Y44715854D01*
X45706827Y45090647D01*
X45910268Y45580587D01*
X45910270Y45582914D01*
X50863269Y45582914D01*
X51065854Y45092620D01*
X51440647Y44717173D01*
X51930587Y44513732D01*
X52461086Y44513269D01*
X52951380Y44715854D01*
X53326827Y45090647D01*
X53530268Y45580587D01*
X53530731Y46111086D01*
X53328146Y46601380D01*
X53257150Y46672500D01*
X55677060Y46672500D01*
X55677060Y45021500D01*
X55721338Y44786183D01*
X55860410Y44570059D01*
X56072610Y44425069D01*
X56316575Y44375665D01*
X56303390Y44333215D01*
X57150000Y43486605D01*
X57996610Y44333215D01*
X57983458Y44375557D01*
X58210817Y44418338D01*
X58426941Y44557410D01*
X58571931Y44769610D01*
X58622940Y45021500D01*
X58622940Y46672500D01*
X58578662Y46907817D01*
X58439590Y47123941D01*
X58227390Y47268931D01*
X57975500Y47319940D01*
X56324500Y47319940D01*
X56089183Y47275662D01*
X55873059Y47136590D01*
X55728069Y46924390D01*
X55677060Y46672500D01*
X53257150Y46672500D01*
X52953353Y46976827D01*
X52463413Y47180268D01*
X51932914Y47180731D01*
X51442620Y46978146D01*
X51067173Y46603353D01*
X50863732Y46113413D01*
X50863269Y45582914D01*
X45910270Y45582914D01*
X45910731Y46111086D01*
X45708146Y46601380D01*
X45333353Y46976827D01*
X44843413Y47180268D01*
X44312914Y47180731D01*
X43822620Y46978146D01*
X43447173Y46603353D01*
X43243732Y46113413D01*
X43243269Y45582914D01*
X41350940Y45582914D01*
X41350940Y46672500D01*
X41306662Y46907817D01*
X41167590Y47123941D01*
X40955390Y47268931D01*
X40703500Y47319940D01*
X39052500Y47319940D01*
X38817183Y47275662D01*
X38601059Y47136590D01*
X38456069Y46924390D01*
X38405060Y46672500D01*
X37465000Y46672500D01*
X37465000Y54426804D01*
X44827409Y54426804D01*
X44912467Y54171461D01*
X45481965Y53963484D01*
X46087700Y53989277D01*
X46527533Y54171461D01*
X46612591Y54426804D01*
X45720000Y55319395D01*
X44827409Y54426804D01*
X37465000Y54426804D01*
X37465000Y54610000D01*
X37456315Y54656159D01*
X37429035Y54698553D01*
X37387410Y54726994D01*
X37338000Y54737000D01*
X36195000Y54737000D01*
X36195000Y55737035D01*
X44184484Y55737035D01*
X44210277Y55131300D01*
X44392461Y54691467D01*
X44647804Y54606409D01*
X45540395Y55499000D01*
X45899605Y55499000D01*
X46792196Y54606409D01*
X47047539Y54691467D01*
X47255516Y55260965D01*
X47229723Y55866700D01*
X47047539Y56306533D01*
X46792196Y56391591D01*
X45899605Y55499000D01*
X45540395Y55499000D01*
X44647804Y56391591D01*
X44392461Y56306533D01*
X44184484Y55737035D01*
X36195000Y55737035D01*
X36195000Y56571196D01*
X44827409Y56571196D01*
X45720000Y55678605D01*
X46612591Y56571196D01*
X46527533Y56826539D01*
X45958035Y57034516D01*
X45352300Y57008723D01*
X44912467Y56826539D01*
X44827409Y56571196D01*
X36195000Y56571196D01*
X36195000Y60579000D01*
X44085000Y60579000D01*
X44183560Y60083506D01*
X44183560Y59690000D01*
X44227838Y59454683D01*
X44366910Y59238559D01*
X44579110Y59093569D01*
X44831000Y59042560D01*
X45224506Y59042560D01*
X45720000Y58944000D01*
X48758995Y58944000D01*
X48759000Y58943999D01*
X49384688Y59068457D01*
X49915120Y59422880D01*
X51956118Y61463879D01*
X51956120Y61463880D01*
X52957560Y62465320D01*
X52957560Y60845000D01*
X53001838Y60609683D01*
X53021582Y60579000D01*
X51308000Y60579000D01*
X51261841Y60570315D01*
X51219447Y60543035D01*
X51191006Y60501410D01*
X51181000Y60452000D01*
X51181000Y52451000D01*
X51189685Y52404841D01*
X51216965Y52362447D01*
X51258590Y52334006D01*
X51308000Y52324000D01*
X54710760Y52324000D01*
X56374880Y50659880D01*
X56905312Y50305457D01*
X57531000Y50180999D01*
X58156688Y50305457D01*
X58687120Y50659880D01*
X59041543Y51190312D01*
X59166001Y51816000D01*
X59064953Y52324000D01*
X59436000Y52324000D01*
X59482159Y52332685D01*
X59524553Y52359965D01*
X59552994Y52401590D01*
X59563000Y52451000D01*
X59563000Y56425283D01*
X60081688Y56528457D01*
X60612120Y56882880D01*
X60656506Y56949308D01*
X60657441Y56949910D01*
X60703969Y57018006D01*
X60846302Y56875673D01*
X61079691Y56779000D01*
X61670250Y56779000D01*
X61829000Y56937750D01*
X61829000Y57912000D01*
X62083000Y57912000D01*
X62083000Y56937750D01*
X62241750Y56779000D01*
X62832309Y56779000D01*
X63065698Y56875673D01*
X63244327Y57054301D01*
X63341000Y57287690D01*
X63341000Y57753250D01*
X63182250Y57912000D01*
X62083000Y57912000D01*
X61829000Y57912000D01*
X61809000Y57912000D01*
X61809000Y58166000D01*
X61829000Y58166000D01*
X61829000Y59140250D01*
X62083000Y59140250D01*
X62083000Y58166000D01*
X63182250Y58166000D01*
X63341000Y58324750D01*
X63341000Y58790310D01*
X63296862Y58896869D01*
X63932660Y58896869D01*
X63959447Y58316465D01*
X64130024Y57904656D01*
X64378785Y57827390D01*
X65225395Y58674000D01*
X64378785Y59520610D01*
X64130024Y59443344D01*
X63932660Y58896869D01*
X63296862Y58896869D01*
X63244327Y59023699D01*
X63065698Y59202327D01*
X62832309Y59299000D01*
X62241750Y59299000D01*
X62083000Y59140250D01*
X61829000Y59140250D01*
X61670250Y59299000D01*
X61079691Y59299000D01*
X60846302Y59202327D01*
X60705064Y59061090D01*
X60670090Y59115441D01*
X60661386Y59121388D01*
X60612120Y59195120D01*
X59797240Y60010000D01*
X62469250Y60010000D01*
X62628000Y60168750D01*
X62628000Y64018000D01*
X62882000Y64018000D01*
X62882000Y60168750D01*
X63040750Y60010000D01*
X64782981Y60010000D01*
X64635656Y59948976D01*
X64558390Y59700215D01*
X65405000Y58853605D01*
X66251610Y59700215D01*
X66174344Y59948976D01*
X66005377Y60010000D01*
X66381310Y60010000D01*
X66614699Y60106673D01*
X66793327Y60285302D01*
X66890000Y60518691D01*
X66890000Y63859250D01*
X66731250Y64018000D01*
X62882000Y64018000D01*
X62628000Y64018000D01*
X58778750Y64018000D01*
X58620000Y63859250D01*
X58620000Y61910886D01*
X58352799Y62021838D01*
X57980833Y62022162D01*
X57752440Y61927792D01*
X57752440Y62845000D01*
X57708162Y63080317D01*
X57569090Y63296441D01*
X57356890Y63441431D01*
X57105000Y63492440D01*
X53984680Y63492440D01*
X55269799Y64777560D01*
X57105000Y64777560D01*
X57340317Y64821838D01*
X57556441Y64960910D01*
X57701431Y65173110D01*
X57752440Y65425000D01*
X57752440Y67425000D01*
X57708162Y67660317D01*
X57636741Y67771309D01*
X58620000Y67771309D01*
X58620000Y64430750D01*
X58778750Y64272000D01*
X62628000Y64272000D01*
X62628000Y68121250D01*
X62882000Y68121250D01*
X62882000Y64272000D01*
X66731250Y64272000D01*
X66890000Y64430750D01*
X66890000Y67771309D01*
X66793327Y68004698D01*
X66614699Y68183327D01*
X66381310Y68280000D01*
X63040750Y68280000D01*
X62882000Y68121250D01*
X62628000Y68121250D01*
X62469250Y68280000D01*
X59128690Y68280000D01*
X58895301Y68183327D01*
X58716673Y68004698D01*
X58620000Y67771309D01*
X57636741Y67771309D01*
X57569090Y67876441D01*
X57356890Y68021431D01*
X57105000Y68072440D01*
X53605000Y68072440D01*
X53369683Y68028162D01*
X53153559Y67889090D01*
X53008569Y67676890D01*
X52957560Y67425000D01*
X52957560Y67089799D01*
X51539880Y65672120D01*
X49643880Y63776120D01*
X49643879Y63776118D01*
X48081760Y62214000D01*
X45720000Y62214000D01*
X45224506Y62115440D01*
X44831000Y62115440D01*
X44595683Y62071162D01*
X44379559Y61932090D01*
X44234569Y61719890D01*
X44183560Y61468000D01*
X44183560Y61074494D01*
X44085000Y60579000D01*
X36195000Y60579000D01*
X36195000Y69648000D01*
X70103533Y69648000D01*
X70073808Y69618327D01*
X70073808Y69618327D01*
G37*
X70073808Y69618327D02*
X69931162Y69274799D01*
X69930838Y68902833D01*
X70072883Y68559057D01*
X70335673Y68295808D01*
X70679201Y68153162D01*
X71051167Y68152838D01*
X71374000Y68286230D01*
X71374000Y60795956D01*
X68347043Y57769000D01*
X66489608Y57769000D01*
X66431217Y57827391D01*
X66679976Y57904656D01*
X66877340Y58451131D01*
X66850553Y59031535D01*
X66679976Y59443344D01*
X66431215Y59520610D01*
X65584605Y58674000D01*
X65598748Y58659857D01*
X65419143Y58480252D01*
X65405000Y58494395D01*
X64558390Y57647785D01*
X64571542Y57605443D01*
X64344183Y57562662D01*
X64128059Y57423590D01*
X63983069Y57211390D01*
X63932060Y56959500D01*
X63932060Y56942103D01*
X63640457Y56505687D01*
X63516000Y55880000D01*
X63516000Y51816000D01*
X63640457Y51190313D01*
X63816397Y50927000D01*
X61087000Y50927000D01*
X61040841Y50918315D01*
X60998447Y50891035D01*
X60970006Y50849410D01*
X60960000Y50800000D01*
X60960000Y48103878D01*
X60935069Y48067390D01*
X60884060Y47815500D01*
X60884060Y46639054D01*
X60714765Y46808645D01*
X60297756Y46981803D01*
X59846225Y46982197D01*
X59428914Y46809767D01*
X59109355Y46490765D01*
X58936197Y46073756D01*
X58935803Y45622225D01*
X59108233Y45204914D01*
X59427235Y44885355D01*
X59844244Y44712197D01*
X60295775Y44711803D01*
X60713086Y44884233D01*
X60960000Y45130717D01*
X60960000Y42916499D01*
X58561798Y42916499D01*
X58622340Y43084131D01*
X58595553Y43664535D01*
X58424976Y44076344D01*
X58176215Y44153610D01*
X57329605Y43307000D01*
X57343748Y43292857D01*
X57164143Y43113252D01*
X57150000Y43127395D01*
X57135858Y43113252D01*
X56956253Y43292857D01*
X56970395Y43307000D01*
X56123785Y44153610D01*
X55875024Y44076344D01*
X55677660Y43529869D01*
X55704447Y42949465D01*
X55718102Y42916499D01*
X41289798Y42916499D01*
X41350340Y43084131D01*
X41323553Y43664535D01*
X41152976Y44076344D01*
X40904215Y44153610D01*
X40057605Y43307000D01*
X40071748Y43292857D01*
X39892143Y43113252D01*
X39878000Y43127395D01*
X39863858Y43113252D01*
X39684253Y43292857D01*
X39698395Y43307000D01*
X38851785Y44153610D01*
X38603024Y44076344D01*
X38405660Y43529869D01*
X38432447Y42949465D01*
X38524787Y42726538D01*
X38443065Y42671933D01*
X36195000Y40423868D01*
X36195000Y46482000D01*
X37338000Y46482000D01*
X37384159Y46490685D01*
X37426553Y46517965D01*
X37454994Y46559590D01*
X37465000Y46609000D01*
X37465000Y46672500D01*
X38405060Y46672500D01*
X38405060Y45021500D01*
X38449338Y44786183D01*
X38588410Y44570059D01*
X38800610Y44425069D01*
X39044575Y44375665D01*
X39031390Y44333215D01*
X39878000Y43486605D01*
X40724610Y44333215D01*
X40711458Y44375557D01*
X40938817Y44418338D01*
X41154941Y44557410D01*
X41299931Y44769610D01*
X41350940Y45021500D01*
X41350940Y45582914D01*
X43243269Y45582914D01*
X43445854Y45092620D01*
X43820647Y44717173D01*
X44310587Y44513732D01*
X44841086Y44513269D01*
X45331380Y44715854D01*
X45706827Y45090647D01*
X45910268Y45580587D01*
X45910270Y45582914D01*
X50863269Y45582914D01*
X51065854Y45092620D01*
X51440647Y44717173D01*
X51930587Y44513732D01*
X52461086Y44513269D01*
X52951380Y44715854D01*
X53326827Y45090647D01*
X53530268Y45580587D01*
X53530731Y46111086D01*
X53328146Y46601380D01*
X53257150Y46672500D01*
X55677060Y46672500D01*
X55677060Y45021500D01*
X55721338Y44786183D01*
X55860410Y44570059D01*
X56072610Y44425069D01*
X56316575Y44375665D01*
X56303390Y44333215D01*
X57150000Y43486605D01*
X57996610Y44333215D01*
X57983458Y44375557D01*
X58210817Y44418338D01*
X58426941Y44557410D01*
X58571931Y44769610D01*
X58622940Y45021500D01*
X58622940Y46672500D01*
X58578662Y46907817D01*
X58439590Y47123941D01*
X58227390Y47268931D01*
X57975500Y47319940D01*
X56324500Y47319940D01*
X56089183Y47275662D01*
X55873059Y47136590D01*
X55728069Y46924390D01*
X55677060Y46672500D01*
X53257150Y46672500D01*
X52953353Y46976827D01*
X52463413Y47180268D01*
X51932914Y47180731D01*
X51442620Y46978146D01*
X51067173Y46603353D01*
X50863732Y46113413D01*
X50863269Y45582914D01*
X45910270Y45582914D01*
X45910731Y46111086D01*
X45708146Y46601380D01*
X45333353Y46976827D01*
X44843413Y47180268D01*
X44312914Y47180731D01*
X43822620Y46978146D01*
X43447173Y46603353D01*
X43243732Y46113413D01*
X43243269Y45582914D01*
X41350940Y45582914D01*
X41350940Y46672500D01*
X41306662Y46907817D01*
X41167590Y47123941D01*
X40955390Y47268931D01*
X40703500Y47319940D01*
X39052500Y47319940D01*
X38817183Y47275662D01*
X38601059Y47136590D01*
X38456069Y46924390D01*
X38405060Y46672500D01*
X37465000Y46672500D01*
X37465000Y54426804D01*
X44827409Y54426804D01*
X44912467Y54171461D01*
X45481965Y53963484D01*
X46087700Y53989277D01*
X46527533Y54171461D01*
X46612591Y54426804D01*
X45720000Y55319395D01*
X44827409Y54426804D01*
X37465000Y54426804D01*
X37465000Y54610000D01*
X37456315Y54656159D01*
X37429035Y54698553D01*
X37387410Y54726994D01*
X37338000Y54737000D01*
X36195000Y54737000D01*
X36195000Y55737035D01*
X44184484Y55737035D01*
X44210277Y55131300D01*
X44392461Y54691467D01*
X44647804Y54606409D01*
X45540395Y55499000D01*
X45899605Y55499000D01*
X46792196Y54606409D01*
X47047539Y54691467D01*
X47255516Y55260965D01*
X47229723Y55866700D01*
X47047539Y56306533D01*
X46792196Y56391591D01*
X45899605Y55499000D01*
X45540395Y55499000D01*
X44647804Y56391591D01*
X44392461Y56306533D01*
X44184484Y55737035D01*
X36195000Y55737035D01*
X36195000Y56571196D01*
X44827409Y56571196D01*
X45720000Y55678605D01*
X46612591Y56571196D01*
X46527533Y56826539D01*
X45958035Y57034516D01*
X45352300Y57008723D01*
X44912467Y56826539D01*
X44827409Y56571196D01*
X36195000Y56571196D01*
X36195000Y60579000D01*
X44085000Y60579000D01*
X44183560Y60083506D01*
X44183560Y59690000D01*
X44227838Y59454683D01*
X44366910Y59238559D01*
X44579110Y59093569D01*
X44831000Y59042560D01*
X45224506Y59042560D01*
X45720000Y58944000D01*
X48758995Y58944000D01*
X48759000Y58943999D01*
X49384688Y59068457D01*
X49915120Y59422880D01*
X51956118Y61463879D01*
X51956120Y61463880D01*
X52957560Y62465320D01*
X52957560Y60845000D01*
X53001838Y60609683D01*
X53021582Y60579000D01*
X51308000Y60579000D01*
X51261841Y60570315D01*
X51219447Y60543035D01*
X51191006Y60501410D01*
X51181000Y60452000D01*
X51181000Y52451000D01*
X51189685Y52404841D01*
X51216965Y52362447D01*
X51258590Y52334006D01*
X51308000Y52324000D01*
X54710760Y52324000D01*
X56374880Y50659880D01*
X56905312Y50305457D01*
X57531000Y50180999D01*
X58156688Y50305457D01*
X58687120Y50659880D01*
X59041543Y51190312D01*
X59166001Y51816000D01*
X59064953Y52324000D01*
X59436000Y52324000D01*
X59482159Y52332685D01*
X59524553Y52359965D01*
X59552994Y52401590D01*
X59563000Y52451000D01*
X59563000Y56425283D01*
X60081688Y56528457D01*
X60612120Y56882880D01*
X60656506Y56949308D01*
X60657441Y56949910D01*
X60703969Y57018006D01*
X60846302Y56875673D01*
X61079691Y56779000D01*
X61670250Y56779000D01*
X61829000Y56937750D01*
X61829000Y57912000D01*
X62083000Y57912000D01*
X62083000Y56937750D01*
X62241750Y56779000D01*
X62832309Y56779000D01*
X63065698Y56875673D01*
X63244327Y57054301D01*
X63341000Y57287690D01*
X63341000Y57753250D01*
X63182250Y57912000D01*
X62083000Y57912000D01*
X61829000Y57912000D01*
X61809000Y57912000D01*
X61809000Y58166000D01*
X61829000Y58166000D01*
X61829000Y59140250D01*
X62083000Y59140250D01*
X62083000Y58166000D01*
X63182250Y58166000D01*
X63341000Y58324750D01*
X63341000Y58790310D01*
X63296862Y58896869D01*
X63932660Y58896869D01*
X63959447Y58316465D01*
X64130024Y57904656D01*
X64378785Y57827390D01*
X65225395Y58674000D01*
X64378785Y59520610D01*
X64130024Y59443344D01*
X63932660Y58896869D01*
X63296862Y58896869D01*
X63244327Y59023699D01*
X63065698Y59202327D01*
X62832309Y59299000D01*
X62241750Y59299000D01*
X62083000Y59140250D01*
X61829000Y59140250D01*
X61670250Y59299000D01*
X61079691Y59299000D01*
X60846302Y59202327D01*
X60705064Y59061090D01*
X60670090Y59115441D01*
X60661386Y59121388D01*
X60612120Y59195120D01*
X59797240Y60010000D01*
X62469250Y60010000D01*
X62628000Y60168750D01*
X62628000Y64018000D01*
X62882000Y64018000D01*
X62882000Y60168750D01*
X63040750Y60010000D01*
X64782981Y60010000D01*
X64635656Y59948976D01*
X64558390Y59700215D01*
X65405000Y58853605D01*
X66251610Y59700215D01*
X66174344Y59948976D01*
X66005377Y60010000D01*
X66381310Y60010000D01*
X66614699Y60106673D01*
X66793327Y60285302D01*
X66890000Y60518691D01*
X66890000Y63859250D01*
X66731250Y64018000D01*
X62882000Y64018000D01*
X62628000Y64018000D01*
X58778750Y64018000D01*
X58620000Y63859250D01*
X58620000Y61910886D01*
X58352799Y62021838D01*
X57980833Y62022162D01*
X57752440Y61927792D01*
X57752440Y62845000D01*
X57708162Y63080317D01*
X57569090Y63296441D01*
X57356890Y63441431D01*
X57105000Y63492440D01*
X53984680Y63492440D01*
X55269799Y64777560D01*
X57105000Y64777560D01*
X57340317Y64821838D01*
X57556441Y64960910D01*
X57701431Y65173110D01*
X57752440Y65425000D01*
X57752440Y67425000D01*
X57708162Y67660317D01*
X57636741Y67771309D01*
X58620000Y67771309D01*
X58620000Y64430750D01*
X58778750Y64272000D01*
X62628000Y64272000D01*
X62628000Y68121250D01*
X62882000Y68121250D01*
X62882000Y64272000D01*
X66731250Y64272000D01*
X66890000Y64430750D01*
X66890000Y67771309D01*
X66793327Y68004698D01*
X66614699Y68183327D01*
X66381310Y68280000D01*
X63040750Y68280000D01*
X62882000Y68121250D01*
X62628000Y68121250D01*
X62469250Y68280000D01*
X59128690Y68280000D01*
X58895301Y68183327D01*
X58716673Y68004698D01*
X58620000Y67771309D01*
X57636741Y67771309D01*
X57569090Y67876441D01*
X57356890Y68021431D01*
X57105000Y68072440D01*
X53605000Y68072440D01*
X53369683Y68028162D01*
X53153559Y67889090D01*
X53008569Y67676890D01*
X52957560Y67425000D01*
X52957560Y67089799D01*
X51539880Y65672120D01*
X49643880Y63776120D01*
X49643879Y63776118D01*
X48081760Y62214000D01*
X45720000Y62214000D01*
X45224506Y62115440D01*
X44831000Y62115440D01*
X44595683Y62071162D01*
X44379559Y61932090D01*
X44234569Y61719890D01*
X44183560Y61468000D01*
X44183560Y61074494D01*
X44085000Y60579000D01*
X36195000Y60579000D01*
X36195000Y69648000D01*
X70103533Y69648000D01*
X70073808Y69618327D01*
G36*
X35179000Y57134000D02*
X34290005Y57134000D01*
X34290000Y57134001D01*
X34289995Y57134000D01*
X32131005Y57134000D01*
X32131000Y57134001D01*
X32130995Y57134000D01*
X17907000Y57134000D01*
X17281312Y57009543D01*
X17166517Y56932839D01*
X16750880Y56655120D01*
X16750878Y56655117D01*
X15480880Y55385120D01*
X15126457Y54854688D01*
X15103047Y54737000D01*
X8733878Y54737000D01*
X8697390Y54761931D01*
X8445500Y54812940D01*
X6540500Y54812940D01*
X6305183Y54768662D01*
X6255979Y54737000D01*
X3429000Y54737000D01*
X3382841Y54728315D01*
X3340447Y54701035D01*
X3312006Y54659410D01*
X3302000Y54610000D01*
X3302000Y46609000D01*
X3310685Y46562841D01*
X3337965Y46520447D01*
X3379590Y46492006D01*
X3429000Y46482000D01*
X5858000Y46482000D01*
X5858000Y45635240D01*
X5320880Y45098120D01*
X4966457Y44567688D01*
X4841999Y43942000D01*
X4966457Y43316312D01*
X5320880Y42785880D01*
X5851312Y42431457D01*
X6477000Y42306999D01*
X7102688Y42431457D01*
X7633120Y42785880D01*
X7852739Y43005499D01*
X8064494Y43005499D01*
X8064499Y43005498D01*
X8690187Y43129956D01*
X9220619Y43484379D01*
X9694240Y43958000D01*
X10815000Y43958000D01*
X11440687Y44082457D01*
X11971120Y44436880D01*
X12015506Y44503308D01*
X12016441Y44503910D01*
X12064134Y44573711D01*
X12100910Y44516559D01*
X12109614Y44510612D01*
X12158880Y44436880D01*
X12689312Y44082457D01*
X13315000Y43957999D01*
X13315005Y43958000D01*
X15324760Y43958000D01*
X16496880Y42785880D01*
X17027312Y42431457D01*
X17653000Y42306999D01*
X18278688Y42431457D01*
X18809120Y42785880D01*
X19163543Y43316312D01*
X19288001Y43942000D01*
X19252128Y44122346D01*
X19163543Y44567688D01*
X18809120Y45098120D01*
X18272000Y45635240D01*
X18272000Y46482000D01*
X21182760Y46482000D01*
X20052880Y45352120D01*
X19698457Y44821688D01*
X19573999Y44196000D01*
X19574000Y44195995D01*
X19574000Y43942000D01*
X19698457Y43316313D01*
X20052880Y42785880D01*
X20583313Y42431457D01*
X21209000Y42307000D01*
X23240995Y42307000D01*
X23241000Y42306999D01*
X23241005Y42307000D01*
X23895995Y42307000D01*
X23896000Y42306999D01*
X24521688Y42431457D01*
X25052120Y42785880D01*
X26703117Y44436878D01*
X26703120Y44436880D01*
X26747506Y44503308D01*
X26748441Y44503910D01*
X26796134Y44573711D01*
X26832910Y44516559D01*
X26841614Y44510612D01*
X26890880Y44436880D01*
X28541878Y42785883D01*
X28541880Y42785880D01*
X28998505Y42480774D01*
X29072313Y42431457D01*
X29698000Y42306999D01*
X29698005Y42307000D01*
X32385000Y42307000D01*
X33010687Y42431457D01*
X33541120Y42785880D01*
X33895543Y43316313D01*
X34020000Y43942000D01*
X34020000Y46312760D01*
X34189240Y46482000D01*
X35179000Y46482000D01*
X35179000Y39407868D01*
X34588566Y38817434D01*
X34407561Y38546541D01*
X34344000Y38227000D01*
X34344000Y36227558D01*
X34276543Y36566687D01*
X33922120Y37097120D01*
X33922117Y37097122D01*
X33541120Y37478120D01*
X33010688Y37832543D01*
X32596261Y37914978D01*
X31636120Y38875120D01*
X30493120Y40018120D01*
X29962688Y40372543D01*
X29337000Y40497001D01*
X28711312Y40372543D01*
X28180880Y40018120D01*
X28180878Y40018117D01*
X27144880Y38982120D01*
X26866197Y38565042D01*
X25793440Y39637800D01*
X25793440Y39751000D01*
X25749162Y39986317D01*
X25610090Y40202441D01*
X25397890Y40347431D01*
X25146000Y40398440D01*
X24752496Y40398440D01*
X24257000Y40497001D01*
X23761504Y40398440D01*
X23368000Y40398440D01*
X23132683Y40354162D01*
X22916559Y40215090D01*
X22771569Y40002890D01*
X22720560Y39751000D01*
X22720560Y39637799D01*
X20997738Y37914978D01*
X20583312Y37832543D01*
X20052880Y37478120D01*
X19698457Y36947688D01*
X19573999Y36322000D01*
X19698457Y35696312D01*
X20052880Y35165880D01*
X20610000Y34608761D01*
X20610000Y32131000D01*
X20734457Y31505313D01*
X20907647Y31246115D01*
X21030910Y31054559D01*
X21039614Y31048612D01*
X21088880Y30974880D01*
X21502883Y30698253D01*
X21212469Y30504204D01*
X21126090Y30638441D01*
X20913890Y30783431D01*
X20662000Y30834440D01*
X20457298Y30834440D01*
X20437688Y30847543D01*
X19812000Y30972001D01*
X19186312Y30847543D01*
X19166702Y30834440D01*
X18962000Y30834440D01*
X18726683Y30790162D01*
X18510559Y30651090D01*
X18365569Y30438890D01*
X18314560Y30187000D01*
X18314560Y29982298D01*
X18301457Y29962688D01*
X18272000Y29814599D01*
X18272000Y32489761D01*
X18809117Y33026878D01*
X18809120Y33026880D01*
X19163543Y33557313D01*
X19171404Y33596833D01*
X19288001Y34183000D01*
X19288000Y34183005D01*
X19288000Y36321995D01*
X19288001Y36322000D01*
X19163543Y36947688D01*
X18809120Y37478120D01*
X18278688Y37832543D01*
X17864261Y37914978D01*
X17412120Y38367120D01*
X15761120Y40018120D01*
X15230688Y40372543D01*
X14605000Y40497001D01*
X13979312Y40372543D01*
X13448880Y40018120D01*
X13448878Y40018117D01*
X12285880Y38855120D01*
X12107141Y38587619D01*
X12098120Y38601120D01*
X12098117Y38601122D01*
X12058122Y38641117D01*
X12058120Y38641120D01*
X11061440Y39637800D01*
X11061440Y39751000D01*
X11017162Y39986317D01*
X10878090Y40202441D01*
X10665890Y40347431D01*
X10414000Y40398440D01*
X10020496Y40398440D01*
X9525000Y40497001D01*
X9029504Y40398440D01*
X8636000Y40398440D01*
X8400683Y40354162D01*
X8184559Y40215090D01*
X8039569Y40002890D01*
X7988560Y39751000D01*
X7988560Y39637799D01*
X7281738Y38930978D01*
X6867312Y38848543D01*
X6336880Y38494120D01*
X5320880Y37478120D01*
X5320878Y37478117D01*
X4578880Y36736120D01*
X4224457Y36205688D01*
X4099999Y35580000D01*
X4100000Y35579995D01*
X4100000Y32893000D01*
X4224457Y32267313D01*
X4397647Y32008115D01*
X4520910Y31816559D01*
X4529614Y31810612D01*
X4578880Y31736880D01*
X5109313Y31382457D01*
X5735000Y31258000D01*
X6360687Y31382457D01*
X6891120Y31736880D01*
X6935506Y31803308D01*
X6936441Y31803910D01*
X6982969Y31872006D01*
X7125302Y31729673D01*
X7358691Y31633000D01*
X7949250Y31633000D01*
X8108000Y31791750D01*
X8108000Y32766000D01*
X8088000Y32766000D01*
X8088000Y33020000D01*
X8108000Y33020000D01*
X8108000Y33994250D01*
X7949250Y34153000D01*
X7370000Y34153000D01*
X7370000Y34687000D01*
X8498760Y34687000D01*
X9032760Y34153000D01*
X8520750Y34153000D01*
X8362000Y33994250D01*
X8362000Y33020000D01*
X8382000Y33020000D01*
X8382000Y32766000D01*
X8362000Y32766000D01*
X8362000Y31791750D01*
X8520750Y31633000D01*
X9111309Y31633000D01*
X9344698Y31729673D01*
X9486338Y31871313D01*
X9582010Y31728129D01*
X9582010Y30118700D01*
X9366041Y30220914D01*
X9144000Y30099629D01*
X9144000Y28956000D01*
X9164000Y28956000D01*
X9164000Y28702000D01*
X9144000Y28702000D01*
X9144000Y28682000D01*
X8890000Y28682000D01*
X8890000Y28702000D01*
X8870000Y28702000D01*
X8870000Y28956000D01*
X8890000Y28956000D01*
X8890000Y30099629D01*
X8667959Y30220914D01*
X8161866Y29981389D01*
X7834752Y29620286D01*
X7506120Y30112120D01*
X6975687Y30466543D01*
X6350000Y30591000D01*
X5724313Y30466543D01*
X5210469Y30123204D01*
X5124090Y30257441D01*
X4911890Y30402431D01*
X4660000Y30453440D01*
X2960000Y30453440D01*
X2724683Y30409162D01*
X2508559Y30270090D01*
X2363569Y30057890D01*
X2312560Y29806000D01*
X2312560Y28347763D01*
X1480200Y27515403D01*
X1288357Y27228288D01*
X1281537Y27194000D01*
X1220989Y26889613D01*
X1220990Y26889608D01*
X1220990Y25688392D01*
X1220989Y25688387D01*
X1277180Y25405903D01*
X1288357Y25349712D01*
X1424472Y25146000D01*
X1480200Y25062597D01*
X3419585Y23123213D01*
X3419587Y23123210D01*
X3706702Y22931367D01*
X4045377Y22864000D01*
X4375010Y22864000D01*
X4375010Y21040995D01*
X4375009Y21040990D01*
X4499467Y20415302D01*
X4853890Y19884870D01*
X6704760Y18034000D01*
X3241880Y14571120D01*
X2887457Y14040688D01*
X2762999Y13415000D01*
X2763000Y13414995D01*
X2763000Y11089426D01*
X2762716Y10764205D01*
X3011106Y10163057D01*
X3470637Y9702722D01*
X4071352Y9453284D01*
X4721795Y9452716D01*
X5322943Y9701106D01*
X5557715Y9935468D01*
X7825073Y9935468D01*
X7923736Y9668613D01*
X8533461Y9442092D01*
X9183460Y9466144D01*
X9672264Y9668613D01*
X9770927Y9935468D01*
X8798000Y10908395D01*
X7825073Y9935468D01*
X5557715Y9935468D01*
X5783278Y10160637D01*
X6032716Y10761352D01*
X6033232Y11352539D01*
X7152092Y11352539D01*
X7176144Y10702540D01*
X7378613Y10213736D01*
X7645468Y10115073D01*
X8618395Y11088000D01*
X8977605Y11088000D01*
X9950532Y10115073D01*
X10217387Y10213736D01*
X10443908Y10823461D01*
X10419856Y11473460D01*
X10217387Y11962264D01*
X9950532Y12060927D01*
X8977605Y11088000D01*
X8618395Y11088000D01*
X7645468Y12060927D01*
X7378613Y11962264D01*
X7152092Y11352539D01*
X6033232Y11352539D01*
X6033284Y11411795D01*
X6033000Y11412482D01*
X6033000Y12240532D01*
X7825073Y12240532D01*
X8798000Y11267605D01*
X9770927Y12240532D01*
X9672264Y12507387D01*
X9062539Y12733908D01*
X8412540Y12709856D01*
X7923736Y12507387D01*
X7825073Y12240532D01*
X6033000Y12240532D01*
X6033000Y12737760D01*
X9547330Y16252091D01*
X13979208Y11820213D01*
X13979210Y11820210D01*
X14266325Y11628367D01*
X14605000Y11561000D01*
X14759532Y11561000D01*
X14404996Y11207082D01*
X14140301Y10569627D01*
X14139699Y9879401D01*
X14403281Y9241485D01*
X14890918Y8752996D01*
X15528373Y8488301D01*
X16218599Y8487699D01*
X16856515Y8751281D01*
X17345004Y9238918D01*
X17386147Y9338000D01*
X18914418Y9338000D01*
X19480206Y8772213D01*
X19480208Y8772210D01*
X19729248Y8605808D01*
X19767323Y8580367D01*
X20105998Y8512999D01*
X20106003Y8513000D01*
X28522178Y8513000D01*
X28642201Y8463162D01*
X29014167Y8462838D01*
X29357943Y8604883D01*
X29621192Y8867673D01*
X29763838Y9211201D01*
X29764162Y9583167D01*
X29622117Y9926943D01*
X29359327Y10190192D01*
X29015799Y10332838D01*
X28643833Y10333162D01*
X28522431Y10283000D01*
X21088289Y10283000D01*
X21545004Y10738918D01*
X21809699Y11376373D01*
X21810301Y12066599D01*
X21546719Y12704515D01*
X21059082Y13193004D01*
X20421627Y13457699D01*
X19731401Y13458301D01*
X19093485Y13194719D01*
X18604996Y12707082D01*
X18563853Y12608000D01*
X17035581Y12608000D01*
X16571792Y13071790D01*
X16544718Y13089880D01*
X16284677Y13263633D01*
X16228486Y13274810D01*
X15946002Y13331001D01*
X15945997Y13331000D01*
X14971579Y13331000D01*
X11903580Y16399000D01*
X14097000Y16399000D01*
X14722687Y16523457D01*
X15253120Y16877880D01*
X15367000Y17048314D01*
X15480880Y16877880D01*
X16011313Y16523457D01*
X16637000Y16399000D01*
X17262687Y16523457D01*
X17793120Y16877880D01*
X18147543Y17408313D01*
X18272000Y18034000D01*
X18272000Y21209000D01*
X18147543Y21834687D01*
X18084440Y21929128D01*
X18084440Y22009000D01*
X18040162Y22244317D01*
X17901090Y22460441D01*
X17749710Y22563874D01*
X17793120Y22592880D01*
X18147543Y23123313D01*
X18272000Y23749000D01*
X18147543Y24374687D01*
X17793120Y24905120D01*
X17465520Y25124015D01*
X17492134Y25136611D01*
X17656169Y25317690D01*
X17660180Y25297526D01*
X17671357Y25241335D01*
X17820336Y25018371D01*
X17863200Y24954220D01*
X19694208Y23123213D01*
X19694210Y23123210D01*
X19915805Y22975146D01*
X19981325Y22931367D01*
X20320000Y22863999D01*
X20320005Y22864000D01*
X20443441Y22864000D01*
X20624597Y22592880D01*
X20717000Y22531138D01*
X20717000Y20320005D01*
X20716999Y20320000D01*
X20841457Y19694312D01*
X20926014Y19567764D01*
X20695353Y19798827D01*
X20205413Y20002268D01*
X19674914Y20002731D01*
X19184620Y19800146D01*
X18809173Y19425353D01*
X18605732Y18935413D01*
X18605269Y18404914D01*
X18807854Y17914620D01*
X19182647Y17539173D01*
X19672587Y17335732D01*
X20203086Y17335269D01*
X20693380Y17537854D01*
X21068827Y17912647D01*
X21272268Y18402587D01*
X21272731Y18933086D01*
X21147373Y19236476D01*
X21195880Y19163880D01*
X23735880Y16623881D01*
X24266312Y16269458D01*
X24892000Y16145000D01*
X25517687Y16269458D01*
X26048119Y16623881D01*
X26161999Y16794315D01*
X26275880Y16623880D01*
X26806313Y16269457D01*
X27432000Y16145000D01*
X29845000Y16145000D01*
X30470687Y16269457D01*
X31001120Y16623880D01*
X31263258Y17016199D01*
X31628647Y16650173D01*
X32118587Y16446732D01*
X32649086Y16446269D01*
X33139380Y16648854D01*
X33514827Y17023647D01*
X33718268Y17513587D01*
X33718328Y17582569D01*
X33814603Y17726654D01*
X33901000Y18161000D01*
X33901000Y18270034D01*
X34047854Y17914620D01*
X34422647Y17539173D01*
X34912587Y17335732D01*
X35443086Y17335269D01*
X35933380Y17537854D01*
X36143200Y17747309D01*
X49032000Y17747309D01*
X49032000Y17156750D01*
X49190750Y16998000D01*
X50165000Y16998000D01*
X50165000Y18097250D01*
X50419000Y18097250D01*
X50419000Y16998000D01*
X51393250Y16998000D01*
X51552000Y17156750D01*
X51552000Y17747309D01*
X51455327Y17980698D01*
X51276699Y18159327D01*
X51043310Y18256000D01*
X50577750Y18256000D01*
X50419000Y18097250D01*
X50165000Y18097250D01*
X50006250Y18256000D01*
X49540690Y18256000D01*
X49307301Y18159327D01*
X49128673Y17980698D01*
X49032000Y17747309D01*
X36143200Y17747309D01*
X36308827Y17912647D01*
X36512268Y18402587D01*
X36512731Y18933086D01*
X36310146Y19423380D01*
X35953898Y19780250D01*
X46990000Y19780250D01*
X46990000Y19050691D01*
X47086673Y18817302D01*
X47265301Y18638673D01*
X47498690Y18542000D01*
X48228250Y18542000D01*
X48387000Y18700750D01*
X48387000Y19939000D01*
X48641000Y19939000D01*
X48641000Y18700750D01*
X48799750Y18542000D01*
X49529310Y18542000D01*
X49762699Y18638673D01*
X49941327Y18817302D01*
X50038000Y19050691D01*
X50038000Y19780250D01*
X49879250Y19939000D01*
X48641000Y19939000D01*
X48387000Y19939000D01*
X47148750Y19939000D01*
X46990000Y19780250D01*
X35953898Y19780250D01*
X35935353Y19798827D01*
X35445413Y20002268D01*
X34914914Y20002731D01*
X34424620Y19800146D01*
X34049173Y19425353D01*
X33901000Y19068513D01*
X33901000Y19869982D01*
X34017441Y19944910D01*
X34162431Y20157110D01*
X34213440Y20409000D01*
X34213440Y21081309D01*
X46990000Y21081309D01*
X46990000Y20351750D01*
X47148750Y20193000D01*
X48387000Y20193000D01*
X48387000Y21431250D01*
X48641000Y21431250D01*
X48641000Y20193000D01*
X49879250Y20193000D01*
X50038000Y20351750D01*
X50038000Y21070250D01*
X50175000Y21070250D01*
X50175000Y20479691D01*
X50271673Y20246302D01*
X50450301Y20067673D01*
X50683690Y19971000D01*
X51149250Y19971000D01*
X51308000Y20129750D01*
X51308000Y21229000D01*
X50333750Y21229000D01*
X50175000Y21070250D01*
X50038000Y21070250D01*
X50038000Y21081309D01*
X49941327Y21314698D01*
X49762699Y21493327D01*
X49529310Y21590000D01*
X48799750Y21590000D01*
X48641000Y21431250D01*
X48387000Y21431250D01*
X48228250Y21590000D01*
X47498690Y21590000D01*
X47265301Y21493327D01*
X47086673Y21314698D01*
X46990000Y21081309D01*
X34213440Y21081309D01*
X34213440Y22009000D01*
X34169162Y22244317D01*
X34030090Y22460441D01*
X33878710Y22563874D01*
X33922120Y22592880D01*
X34276543Y23123313D01*
X34401000Y23749000D01*
X34276543Y24374687D01*
X33922120Y24905120D01*
X33594520Y25124015D01*
X33621134Y25136611D01*
X33997041Y25551577D01*
X34018971Y25604523D01*
X34047854Y25534620D01*
X34422647Y25159173D01*
X34912587Y24955732D01*
X35443086Y24955269D01*
X35933380Y25157854D01*
X36308827Y25532647D01*
X36512268Y26022587D01*
X36512731Y26553086D01*
X36310146Y27043380D01*
X36014000Y27340043D01*
X36014000Y31496000D01*
X36884000Y31496000D01*
X36884000Y24672666D01*
X36589173Y24378353D01*
X36385732Y23888413D01*
X36385269Y23357914D01*
X36587854Y22867620D01*
X36962647Y22492173D01*
X37452587Y22288732D01*
X37983086Y22288269D01*
X38473380Y22490854D01*
X38848827Y22865647D01*
X39052268Y23355587D01*
X39052731Y23886086D01*
X38850146Y24376380D01*
X38554000Y24673043D01*
X38554000Y31496000D01*
X39918971Y31496000D01*
X39675968Y31253421D01*
X39433776Y30670159D01*
X39433225Y30038612D01*
X39674398Y29454928D01*
X40120579Y29007968D01*
X40703841Y28765776D01*
X41335388Y28765225D01*
X41919072Y29006398D01*
X42366032Y29452579D01*
X42608224Y30035841D01*
X42608775Y30667388D01*
X42367602Y31251072D01*
X42123101Y31496000D01*
X47371000Y31496000D01*
X47371000Y31192967D01*
X47083880Y31001120D01*
X47039494Y30934692D01*
X47038559Y30934090D01*
X46990866Y30864289D01*
X46954090Y30921441D01*
X46945383Y30927390D01*
X46896119Y31001119D01*
X46365687Y31355542D01*
X45740000Y31480000D01*
X45114312Y31355542D01*
X44583880Y31001119D01*
X40455700Y26872940D01*
X40068500Y26872940D01*
X39833183Y26828662D01*
X39617059Y26689590D01*
X39472069Y26477390D01*
X39421060Y26225500D01*
X39421060Y25449258D01*
X39386000Y25273000D01*
X39386000Y22733000D01*
X39510457Y22107313D01*
X39864880Y21576880D01*
X40395313Y21222457D01*
X41021000Y21098000D01*
X41646687Y21222457D01*
X42177120Y21576880D01*
X42531543Y22107313D01*
X42656000Y22733000D01*
X42656000Y24448760D01*
X46896119Y28688880D01*
X46940504Y28755307D01*
X46941441Y28755910D01*
X46989134Y28825711D01*
X47025910Y28768559D01*
X47034614Y28762612D01*
X47083880Y28688880D01*
X47614313Y28334457D01*
X48240000Y28210000D01*
X50122760Y28210000D01*
X51054000Y27278760D01*
X51054000Y26467240D01*
X50770688Y26656543D01*
X50145000Y26781001D01*
X50144995Y26781000D01*
X48514000Y26781000D01*
X47888313Y26656543D01*
X47357880Y26302120D01*
X47003457Y25771687D01*
X46879000Y25146000D01*
X47003457Y24520313D01*
X47357880Y23989880D01*
X47888313Y23635457D01*
X48514000Y23511000D01*
X49467760Y23511000D01*
X50278880Y22699881D01*
X50345307Y22655496D01*
X50345910Y22654559D01*
X50414006Y22608031D01*
X50271673Y22465698D01*
X50175000Y22232309D01*
X50175000Y21641750D01*
X50333750Y21483000D01*
X51308000Y21483000D01*
X51308000Y21503000D01*
X51562000Y21503000D01*
X51562000Y21483000D01*
X51582000Y21483000D01*
X51582000Y21229000D01*
X51562000Y21229000D01*
X51562000Y20129750D01*
X51720750Y19971000D01*
X52186310Y19971000D01*
X52419699Y20067673D01*
X52598327Y20246302D01*
X52695000Y20479691D01*
X52695000Y20941203D01*
X53075323Y20560880D01*
X53605755Y20206457D01*
X54231443Y20081999D01*
X54254319Y20086549D01*
X54627424Y19713444D01*
X54995644Y19467407D01*
X55429990Y19381010D01*
X67622076Y19381010D01*
X68120652Y18882434D01*
X68488873Y18636396D01*
X68923218Y18550000D01*
X79629000Y18550000D01*
X80063346Y18636397D01*
X80431566Y18882434D01*
X81965283Y20416151D01*
X82337151Y20490120D01*
X82802698Y20801189D01*
X83113767Y21266736D01*
X83223000Y21815887D01*
X83223000Y21872113D01*
X83113767Y22421264D01*
X82923000Y22706767D01*
X82923000Y23475000D01*
X82836603Y23909346D01*
X82780141Y23993847D01*
X82590566Y24277567D01*
X80879440Y25988692D01*
X80879440Y26406000D01*
X80835162Y26641317D01*
X80696090Y26857441D01*
X80483890Y27002431D01*
X80232000Y27053440D01*
X78732000Y27053440D01*
X78496683Y27009162D01*
X78280559Y26870090D01*
X78232866Y26800289D01*
X78196090Y26857441D01*
X78056807Y26952609D01*
X78030603Y27084346D01*
X77784566Y27452566D01*
X77148603Y28088529D01*
X77257151Y28110120D01*
X77584728Y28329000D01*
X78371272Y28329000D01*
X78698849Y28110120D01*
X79248000Y28000887D01*
X79797151Y28110120D01*
X80262698Y28421189D01*
X80518000Y28803275D01*
X80773302Y28421189D01*
X81238849Y28110120D01*
X81788000Y28000887D01*
X82337151Y28110120D01*
X82802698Y28421189D01*
X82854063Y28498062D01*
X83098566Y28661434D01*
X85933132Y31496000D01*
X97080000Y31496000D01*
X97080000Y4790553D01*
X96632604Y5238731D01*
X95572467Y5678938D01*
X94424569Y5679940D01*
X93363665Y5241583D01*
X92551269Y4430604D01*
X92111062Y3370467D01*
X92110060Y2222569D01*
X92548417Y1161665D01*
X92999294Y710000D01*
X47589331Y710000D01*
X48164731Y1284396D01*
X48604938Y2344533D01*
X48605940Y3492431D01*
X48167583Y4553335D01*
X47356604Y5365731D01*
X46296467Y5805938D01*
X45148569Y5806940D01*
X44087665Y5368583D01*
X43275269Y4557604D01*
X42835062Y3497467D01*
X42834060Y2349569D01*
X43272417Y1288665D01*
X43850073Y710000D01*
X710000Y710000D01*
X710000Y5264205D01*
X2162716Y5264205D01*
X2411106Y4663057D01*
X2870637Y4202722D01*
X3471352Y3953284D01*
X4121795Y3952716D01*
X4722943Y4201106D01*
X4975278Y4453000D01*
X8220796Y4453000D01*
X8470637Y4202722D01*
X9071352Y3953284D01*
X9721795Y3952716D01*
X10322943Y4201106D01*
X10783278Y4660637D01*
X11032716Y5261352D01*
X11033255Y5879401D01*
X14139699Y5879401D01*
X14403281Y5241485D01*
X14890918Y4752996D01*
X14962545Y4723254D01*
X14893485Y4694719D01*
X14404996Y4207082D01*
X14140301Y3569627D01*
X14139699Y2879401D01*
X14403281Y2241485D01*
X14890918Y1752996D01*
X15528373Y1488301D01*
X16218599Y1487699D01*
X16856515Y1751281D01*
X17345004Y2238918D01*
X17609699Y2876373D01*
X17610301Y3566599D01*
X17536240Y3745841D01*
X30087446Y3745841D01*
X30173852Y3489357D01*
X30747336Y3279542D01*
X31357460Y3305161D01*
X31802148Y3489357D01*
X31888554Y3745841D01*
X32587446Y3745841D01*
X32673852Y3489357D01*
X33247336Y3279542D01*
X33857460Y3305161D01*
X34302148Y3489357D01*
X34388554Y3745841D01*
X33488000Y4646395D01*
X32587446Y3745841D01*
X31888554Y3745841D01*
X30988000Y4646395D01*
X30087446Y3745841D01*
X17536240Y3745841D01*
X17346719Y4204515D01*
X16859082Y4693004D01*
X16787455Y4722746D01*
X16856515Y4751281D01*
X17172449Y5066664D01*
X29441542Y5066664D01*
X29467161Y4456540D01*
X29651357Y4011852D01*
X29907841Y3925446D01*
X30808395Y4826000D01*
X31167605Y4826000D01*
X32068159Y3925446D01*
X32238000Y3982663D01*
X32407841Y3925446D01*
X33308395Y4826000D01*
X32407841Y5726554D01*
X32238000Y5669337D01*
X32068159Y5726554D01*
X31167605Y4826000D01*
X30808395Y4826000D01*
X29907841Y5726554D01*
X29651357Y5640148D01*
X29441542Y5066664D01*
X17172449Y5066664D01*
X17345004Y5238918D01*
X17609699Y5876373D01*
X17610021Y6245841D01*
X30087446Y6245841D01*
X30144663Y6076000D01*
X30087446Y5906159D01*
X30988000Y5005605D01*
X31888554Y5906159D01*
X31831337Y6076000D01*
X31888554Y6245841D01*
X32587446Y6245841D01*
X32644663Y6076000D01*
X32587446Y5906159D01*
X33488000Y5005605D01*
X34388554Y5906159D01*
X34331337Y6076000D01*
X34388554Y6245841D01*
X33488000Y7146395D01*
X32587446Y6245841D01*
X31888554Y6245841D01*
X30988000Y7146395D01*
X30087446Y6245841D01*
X17610021Y6245841D01*
X17610301Y6566599D01*
X17346719Y7204515D01*
X16985202Y7566664D01*
X29441542Y7566664D01*
X29467161Y6956540D01*
X29651357Y6511852D01*
X29907841Y6425446D01*
X30808395Y7326000D01*
X31167605Y7326000D01*
X32068159Y6425446D01*
X32238000Y6482663D01*
X32407841Y6425446D01*
X33308395Y7326000D01*
X33667605Y7326000D01*
X34568159Y6425446D01*
X34683214Y6464207D01*
X34685932Y6457629D01*
X35067182Y6075712D01*
X34687449Y5696643D01*
X34683706Y5687628D01*
X34568159Y5726554D01*
X33667605Y4826000D01*
X34568159Y3925446D01*
X34683214Y3964207D01*
X34685932Y3957629D01*
X35117357Y3525449D01*
X35681330Y3291267D01*
X36291991Y3290735D01*
X36856371Y3523932D01*
X37288551Y3955357D01*
X37522733Y4519330D01*
X37523265Y5129991D01*
X37508527Y5165659D01*
X38309434Y5966566D01*
X38490440Y6237460D01*
X38554000Y6557000D01*
X38554000Y14951334D01*
X38715948Y15113000D01*
X39385999Y15113000D01*
X39510457Y14487312D01*
X39864880Y13956880D01*
X43801878Y10019883D01*
X43801880Y10019880D01*
X46595878Y7225883D01*
X46595880Y7225880D01*
X49770880Y4050880D01*
X50301312Y3696457D01*
X50927000Y3571999D01*
X50927005Y3572000D01*
X54609995Y3572000D01*
X54610000Y3571999D01*
X55105496Y3670560D01*
X55499000Y3670560D01*
X55734317Y3714838D01*
X55950441Y3853910D01*
X56095431Y4066110D01*
X56146440Y4318000D01*
X56146440Y4431200D01*
X59850117Y8134878D01*
X59850120Y8134880D01*
X60069470Y8463162D01*
X60204543Y8665312D01*
X60329000Y9291000D01*
X60329000Y11259712D01*
X60329001Y11259717D01*
X60329000Y11259722D01*
X60329000Y13289812D01*
X68079417Y13289812D01*
X68141071Y13054200D01*
X68641480Y12878073D01*
X69171199Y12906852D01*
X69526929Y13054200D01*
X69588583Y13289812D01*
X70365417Y13289812D01*
X70427071Y13054200D01*
X70927480Y12878073D01*
X71457199Y12906852D01*
X71812929Y13054200D01*
X71874583Y13289812D01*
X71120000Y14044395D01*
X70365417Y13289812D01*
X69588583Y13289812D01*
X68834000Y14044395D01*
X68079417Y13289812D01*
X60329000Y13289812D01*
X60329000Y14371000D01*
X60319946Y14416520D01*
X67488073Y14416520D01*
X67516852Y13886801D01*
X67664200Y13531071D01*
X67899812Y13469417D01*
X68654395Y14224000D01*
X69013605Y14224000D01*
X69768188Y13469417D01*
X69977000Y13524058D01*
X70185812Y13469417D01*
X70940395Y14224000D01*
X71299605Y14224000D01*
X72054188Y13469417D01*
X72289800Y13531071D01*
X72465927Y14031480D01*
X72437148Y14561199D01*
X72289800Y14916929D01*
X72054188Y14978583D01*
X71299605Y14224000D01*
X70940395Y14224000D01*
X70185812Y14978583D01*
X69977000Y14923942D01*
X69768188Y14978583D01*
X69013605Y14224000D01*
X68654395Y14224000D01*
X67899812Y14978583D01*
X67664200Y14916929D01*
X67488073Y14416520D01*
X60319946Y14416520D01*
X60204543Y14996687D01*
X60096632Y15158188D01*
X68079417Y15158188D01*
X68834000Y14403605D01*
X69588583Y15158188D01*
X70365417Y15158188D01*
X71120000Y14403605D01*
X71874583Y15158188D01*
X71812929Y15393800D01*
X71312520Y15569927D01*
X70782801Y15541148D01*
X70427071Y15393800D01*
X70365417Y15158188D01*
X69588583Y15158188D01*
X69526929Y15393800D01*
X69026520Y15569927D01*
X68496801Y15541148D01*
X68141071Y15393800D01*
X68079417Y15158188D01*
X60096632Y15158188D01*
X59850120Y15527120D01*
X59319687Y15881543D01*
X58694000Y16006000D01*
X58068313Y15881543D01*
X57537880Y15527120D01*
X57183457Y14996687D01*
X57059000Y14371000D01*
X57059000Y11936956D01*
X56019267Y10897223D01*
X55937539Y11094533D01*
X55682196Y11179591D01*
X54789605Y10287000D01*
X54803748Y10272857D01*
X54624143Y10093252D01*
X54610000Y10107395D01*
X54595858Y10093252D01*
X54416253Y10272857D01*
X54430395Y10287000D01*
X53537804Y11179591D01*
X53282461Y11094533D01*
X53207818Y10890139D01*
X52738761Y11359196D01*
X53717409Y11359196D01*
X54610000Y10466605D01*
X55502591Y11359196D01*
X55417533Y11614539D01*
X54848035Y11822516D01*
X54242300Y11796723D01*
X53802467Y11614539D01*
X53717409Y11359196D01*
X52738761Y11359196D01*
X51927000Y12170957D01*
X51927000Y14371000D01*
X51802543Y14996687D01*
X51448120Y15527120D01*
X51381692Y15571506D01*
X51381090Y15572441D01*
X51312994Y15618969D01*
X51455327Y15761302D01*
X51552000Y15994691D01*
X51552000Y16585250D01*
X51393250Y16744000D01*
X50419000Y16744000D01*
X50419000Y16724000D01*
X50165000Y16724000D01*
X50165000Y16744000D01*
X49190750Y16744000D01*
X49032000Y16585250D01*
X49032000Y16006000D01*
X47667005Y16006000D01*
X47667000Y16006001D01*
X47041313Y15881543D01*
X46510880Y15527120D01*
X46510878Y15527117D01*
X44715000Y13731240D01*
X42177120Y16269120D01*
X41646688Y16623543D01*
X41021000Y16748001D01*
X40395312Y16623543D01*
X39864880Y16269120D01*
X39510457Y15738688D01*
X39385999Y15113000D01*
X38715948Y15113000D01*
X38848827Y15245647D01*
X39052268Y15735587D01*
X39052731Y16266086D01*
X38850146Y16756380D01*
X38475353Y17131827D01*
X37985413Y17335268D01*
X37454914Y17335731D01*
X36964620Y17133146D01*
X36589173Y16758353D01*
X36385732Y16268413D01*
X36385269Y15737914D01*
X36587854Y15247620D01*
X36884000Y14950957D01*
X36884000Y8601150D01*
X36858643Y8626551D01*
X36560265Y8750448D01*
X36422346Y8842603D01*
X35988000Y8929000D01*
X35553654Y8842603D01*
X35415610Y8750365D01*
X35119629Y8628068D01*
X34687449Y8196643D01*
X34683706Y8187628D01*
X34568159Y8226554D01*
X33667605Y7326000D01*
X33308395Y7326000D01*
X32407841Y8226554D01*
X32238000Y8169337D01*
X32068159Y8226554D01*
X31167605Y7326000D01*
X30808395Y7326000D01*
X29907841Y8226554D01*
X29651357Y8140148D01*
X29441542Y7566664D01*
X16985202Y7566664D01*
X16859082Y7693004D01*
X16221627Y7957699D01*
X15531401Y7958301D01*
X14893485Y7694719D01*
X14404996Y7207082D01*
X14140301Y6569627D01*
X14139699Y5879401D01*
X11033255Y5879401D01*
X11033284Y5911795D01*
X10784894Y6512943D01*
X10325363Y6973278D01*
X9724648Y7222716D01*
X9074205Y7223284D01*
X8473057Y6974894D01*
X8220722Y6723000D01*
X4975204Y6723000D01*
X4725363Y6973278D01*
X4124648Y7222716D01*
X3474205Y7223284D01*
X2873057Y6974894D01*
X2412722Y6515363D01*
X2163284Y5914648D01*
X2162716Y5264205D01*
X710000Y5264205D01*
X710000Y8406159D01*
X30087446Y8406159D01*
X30988000Y7505605D01*
X31888554Y8406159D01*
X32587446Y8406159D01*
X33488000Y7505605D01*
X34388554Y8406159D01*
X34302148Y8662643D01*
X33728664Y8872458D01*
X33118540Y8846839D01*
X32673852Y8662643D01*
X32587446Y8406159D01*
X31888554Y8406159D01*
X31802148Y8662643D01*
X31228664Y8872458D01*
X30618540Y8846839D01*
X30173852Y8662643D01*
X30087446Y8406159D01*
X710000Y8406159D01*
X710000Y18404914D01*
X2222269Y18404914D01*
X2424854Y17914620D01*
X2799647Y17539173D01*
X3289587Y17335732D01*
X3820086Y17335269D01*
X4310380Y17537854D01*
X4685827Y17912647D01*
X4889268Y18402587D01*
X4889731Y18933086D01*
X4687146Y19423380D01*
X4312353Y19798827D01*
X3822413Y20002268D01*
X3291914Y20002731D01*
X2801620Y19800146D01*
X2426173Y19425353D01*
X2222732Y18935413D01*
X2222269Y18404914D01*
X710000Y18404914D01*
X710000Y38643447D01*
X1157396Y38195269D01*
X2217533Y37755062D01*
X3365431Y37754060D01*
X4426335Y38192417D01*
X5238731Y39003396D01*
X5678938Y40063533D01*
X5679940Y41211431D01*
X5241583Y42272335D01*
X4430604Y43084731D01*
X3370467Y43524938D01*
X2222569Y43525940D01*
X1161665Y43087583D01*
X710000Y42636706D01*
X710000Y65567447D01*
X1157396Y65119269D01*
X2217533Y64679062D01*
X3365431Y64678060D01*
X4426335Y65116417D01*
X5238731Y65927396D01*
X5678938Y66987533D01*
X5679940Y68135431D01*
X5241583Y69196335D01*
X4790706Y69648000D01*
X35179000Y69648000D01*
X35179000Y57134000D01*
X35179000Y57134000D01*
G37*
X35179000Y57134000D02*
X34290005Y57134000D01*
X34290000Y57134001D01*
X34289995Y57134000D01*
X32131005Y57134000D01*
X32131000Y57134001D01*
X32130995Y57134000D01*
X17907000Y57134000D01*
X17281312Y57009543D01*
X17166517Y56932839D01*
X16750880Y56655120D01*
X16750878Y56655117D01*
X15480880Y55385120D01*
X15126457Y54854688D01*
X15103047Y54737000D01*
X8733878Y54737000D01*
X8697390Y54761931D01*
X8445500Y54812940D01*
X6540500Y54812940D01*
X6305183Y54768662D01*
X6255979Y54737000D01*
X3429000Y54737000D01*
X3382841Y54728315D01*
X3340447Y54701035D01*
X3312006Y54659410D01*
X3302000Y54610000D01*
X3302000Y46609000D01*
X3310685Y46562841D01*
X3337965Y46520447D01*
X3379590Y46492006D01*
X3429000Y46482000D01*
X5858000Y46482000D01*
X5858000Y45635240D01*
X5320880Y45098120D01*
X4966457Y44567688D01*
X4841999Y43942000D01*
X4966457Y43316312D01*
X5320880Y42785880D01*
X5851312Y42431457D01*
X6477000Y42306999D01*
X7102688Y42431457D01*
X7633120Y42785880D01*
X7852739Y43005499D01*
X8064494Y43005499D01*
X8064499Y43005498D01*
X8690187Y43129956D01*
X9220619Y43484379D01*
X9694240Y43958000D01*
X10815000Y43958000D01*
X11440687Y44082457D01*
X11971120Y44436880D01*
X12015506Y44503308D01*
X12016441Y44503910D01*
X12064134Y44573711D01*
X12100910Y44516559D01*
X12109614Y44510612D01*
X12158880Y44436880D01*
X12689312Y44082457D01*
X13315000Y43957999D01*
X13315005Y43958000D01*
X15324760Y43958000D01*
X16496880Y42785880D01*
X17027312Y42431457D01*
X17653000Y42306999D01*
X18278688Y42431457D01*
X18809120Y42785880D01*
X19163543Y43316312D01*
X19288001Y43942000D01*
X19252128Y44122346D01*
X19163543Y44567688D01*
X18809120Y45098120D01*
X18272000Y45635240D01*
X18272000Y46482000D01*
X21182760Y46482000D01*
X20052880Y45352120D01*
X19698457Y44821688D01*
X19573999Y44196000D01*
X19574000Y44195995D01*
X19574000Y43942000D01*
X19698457Y43316313D01*
X20052880Y42785880D01*
X20583313Y42431457D01*
X21209000Y42307000D01*
X23240995Y42307000D01*
X23241000Y42306999D01*
X23241005Y42307000D01*
X23895995Y42307000D01*
X23896000Y42306999D01*
X24521688Y42431457D01*
X25052120Y42785880D01*
X26703117Y44436878D01*
X26703120Y44436880D01*
X26747506Y44503308D01*
X26748441Y44503910D01*
X26796134Y44573711D01*
X26832910Y44516559D01*
X26841614Y44510612D01*
X26890880Y44436880D01*
X28541878Y42785883D01*
X28541880Y42785880D01*
X28998505Y42480774D01*
X29072313Y42431457D01*
X29698000Y42306999D01*
X29698005Y42307000D01*
X32385000Y42307000D01*
X33010687Y42431457D01*
X33541120Y42785880D01*
X33895543Y43316313D01*
X34020000Y43942000D01*
X34020000Y46312760D01*
X34189240Y46482000D01*
X35179000Y46482000D01*
X35179000Y39407868D01*
X34588566Y38817434D01*
X34407561Y38546541D01*
X34344000Y38227000D01*
X34344000Y36227558D01*
X34276543Y36566687D01*
X33922120Y37097120D01*
X33922117Y37097122D01*
X33541120Y37478120D01*
X33010688Y37832543D01*
X32596261Y37914978D01*
X31636120Y38875120D01*
X30493120Y40018120D01*
X29962688Y40372543D01*
X29337000Y40497001D01*
X28711312Y40372543D01*
X28180880Y40018120D01*
X28180878Y40018117D01*
X27144880Y38982120D01*
X26866197Y38565042D01*
X25793440Y39637800D01*
X25793440Y39751000D01*
X25749162Y39986317D01*
X25610090Y40202441D01*
X25397890Y40347431D01*
X25146000Y40398440D01*
X24752496Y40398440D01*
X24257000Y40497001D01*
X23761504Y40398440D01*
X23368000Y40398440D01*
X23132683Y40354162D01*
X22916559Y40215090D01*
X22771569Y40002890D01*
X22720560Y39751000D01*
X22720560Y39637799D01*
X20997738Y37914978D01*
X20583312Y37832543D01*
X20052880Y37478120D01*
X19698457Y36947688D01*
X19573999Y36322000D01*
X19698457Y35696312D01*
X20052880Y35165880D01*
X20610000Y34608761D01*
X20610000Y32131000D01*
X20734457Y31505313D01*
X20907647Y31246115D01*
X21030910Y31054559D01*
X21039614Y31048612D01*
X21088880Y30974880D01*
X21502883Y30698253D01*
X21212469Y30504204D01*
X21126090Y30638441D01*
X20913890Y30783431D01*
X20662000Y30834440D01*
X20457298Y30834440D01*
X20437688Y30847543D01*
X19812000Y30972001D01*
X19186312Y30847543D01*
X19166702Y30834440D01*
X18962000Y30834440D01*
X18726683Y30790162D01*
X18510559Y30651090D01*
X18365569Y30438890D01*
X18314560Y30187000D01*
X18314560Y29982298D01*
X18301457Y29962688D01*
X18272000Y29814599D01*
X18272000Y32489761D01*
X18809117Y33026878D01*
X18809120Y33026880D01*
X19163543Y33557313D01*
X19171404Y33596833D01*
X19288001Y34183000D01*
X19288000Y34183005D01*
X19288000Y36321995D01*
X19288001Y36322000D01*
X19163543Y36947688D01*
X18809120Y37478120D01*
X18278688Y37832543D01*
X17864261Y37914978D01*
X17412120Y38367120D01*
X15761120Y40018120D01*
X15230688Y40372543D01*
X14605000Y40497001D01*
X13979312Y40372543D01*
X13448880Y40018120D01*
X13448878Y40018117D01*
X12285880Y38855120D01*
X12107141Y38587619D01*
X12098120Y38601120D01*
X12098117Y38601122D01*
X12058122Y38641117D01*
X12058120Y38641120D01*
X11061440Y39637800D01*
X11061440Y39751000D01*
X11017162Y39986317D01*
X10878090Y40202441D01*
X10665890Y40347431D01*
X10414000Y40398440D01*
X10020496Y40398440D01*
X9525000Y40497001D01*
X9029504Y40398440D01*
X8636000Y40398440D01*
X8400683Y40354162D01*
X8184559Y40215090D01*
X8039569Y40002890D01*
X7988560Y39751000D01*
X7988560Y39637799D01*
X7281738Y38930978D01*
X6867312Y38848543D01*
X6336880Y38494120D01*
X5320880Y37478120D01*
X5320878Y37478117D01*
X4578880Y36736120D01*
X4224457Y36205688D01*
X4099999Y35580000D01*
X4100000Y35579995D01*
X4100000Y32893000D01*
X4224457Y32267313D01*
X4397647Y32008115D01*
X4520910Y31816559D01*
X4529614Y31810612D01*
X4578880Y31736880D01*
X5109313Y31382457D01*
X5735000Y31258000D01*
X6360687Y31382457D01*
X6891120Y31736880D01*
X6935506Y31803308D01*
X6936441Y31803910D01*
X6982969Y31872006D01*
X7125302Y31729673D01*
X7358691Y31633000D01*
X7949250Y31633000D01*
X8108000Y31791750D01*
X8108000Y32766000D01*
X8088000Y32766000D01*
X8088000Y33020000D01*
X8108000Y33020000D01*
X8108000Y33994250D01*
X7949250Y34153000D01*
X7370000Y34153000D01*
X7370000Y34687000D01*
X8498760Y34687000D01*
X9032760Y34153000D01*
X8520750Y34153000D01*
X8362000Y33994250D01*
X8362000Y33020000D01*
X8382000Y33020000D01*
X8382000Y32766000D01*
X8362000Y32766000D01*
X8362000Y31791750D01*
X8520750Y31633000D01*
X9111309Y31633000D01*
X9344698Y31729673D01*
X9486338Y31871313D01*
X9582010Y31728129D01*
X9582010Y30118700D01*
X9366041Y30220914D01*
X9144000Y30099629D01*
X9144000Y28956000D01*
X9164000Y28956000D01*
X9164000Y28702000D01*
X9144000Y28702000D01*
X9144000Y28682000D01*
X8890000Y28682000D01*
X8890000Y28702000D01*
X8870000Y28702000D01*
X8870000Y28956000D01*
X8890000Y28956000D01*
X8890000Y30099629D01*
X8667959Y30220914D01*
X8161866Y29981389D01*
X7834752Y29620286D01*
X7506120Y30112120D01*
X6975687Y30466543D01*
X6350000Y30591000D01*
X5724313Y30466543D01*
X5210469Y30123204D01*
X5124090Y30257441D01*
X4911890Y30402431D01*
X4660000Y30453440D01*
X2960000Y30453440D01*
X2724683Y30409162D01*
X2508559Y30270090D01*
X2363569Y30057890D01*
X2312560Y29806000D01*
X2312560Y28347763D01*
X1480200Y27515403D01*
X1288357Y27228288D01*
X1281537Y27194000D01*
X1220989Y26889613D01*
X1220990Y26889608D01*
X1220990Y25688392D01*
X1220989Y25688387D01*
X1277180Y25405903D01*
X1288357Y25349712D01*
X1424472Y25146000D01*
X1480200Y25062597D01*
X3419585Y23123213D01*
X3419587Y23123210D01*
X3706702Y22931367D01*
X4045377Y22864000D01*
X4375010Y22864000D01*
X4375010Y21040995D01*
X4375009Y21040990D01*
X4499467Y20415302D01*
X4853890Y19884870D01*
X6704760Y18034000D01*
X3241880Y14571120D01*
X2887457Y14040688D01*
X2762999Y13415000D01*
X2763000Y13414995D01*
X2763000Y11089426D01*
X2762716Y10764205D01*
X3011106Y10163057D01*
X3470637Y9702722D01*
X4071352Y9453284D01*
X4721795Y9452716D01*
X5322943Y9701106D01*
X5557715Y9935468D01*
X7825073Y9935468D01*
X7923736Y9668613D01*
X8533461Y9442092D01*
X9183460Y9466144D01*
X9672264Y9668613D01*
X9770927Y9935468D01*
X8798000Y10908395D01*
X7825073Y9935468D01*
X5557715Y9935468D01*
X5783278Y10160637D01*
X6032716Y10761352D01*
X6033232Y11352539D01*
X7152092Y11352539D01*
X7176144Y10702540D01*
X7378613Y10213736D01*
X7645468Y10115073D01*
X8618395Y11088000D01*
X8977605Y11088000D01*
X9950532Y10115073D01*
X10217387Y10213736D01*
X10443908Y10823461D01*
X10419856Y11473460D01*
X10217387Y11962264D01*
X9950532Y12060927D01*
X8977605Y11088000D01*
X8618395Y11088000D01*
X7645468Y12060927D01*
X7378613Y11962264D01*
X7152092Y11352539D01*
X6033232Y11352539D01*
X6033284Y11411795D01*
X6033000Y11412482D01*
X6033000Y12240532D01*
X7825073Y12240532D01*
X8798000Y11267605D01*
X9770927Y12240532D01*
X9672264Y12507387D01*
X9062539Y12733908D01*
X8412540Y12709856D01*
X7923736Y12507387D01*
X7825073Y12240532D01*
X6033000Y12240532D01*
X6033000Y12737760D01*
X9547330Y16252091D01*
X13979208Y11820213D01*
X13979210Y11820210D01*
X14266325Y11628367D01*
X14605000Y11561000D01*
X14759532Y11561000D01*
X14404996Y11207082D01*
X14140301Y10569627D01*
X14139699Y9879401D01*
X14403281Y9241485D01*
X14890918Y8752996D01*
X15528373Y8488301D01*
X16218599Y8487699D01*
X16856515Y8751281D01*
X17345004Y9238918D01*
X17386147Y9338000D01*
X18914418Y9338000D01*
X19480206Y8772213D01*
X19480208Y8772210D01*
X19729248Y8605808D01*
X19767323Y8580367D01*
X20105998Y8512999D01*
X20106003Y8513000D01*
X28522178Y8513000D01*
X28642201Y8463162D01*
X29014167Y8462838D01*
X29357943Y8604883D01*
X29621192Y8867673D01*
X29763838Y9211201D01*
X29764162Y9583167D01*
X29622117Y9926943D01*
X29359327Y10190192D01*
X29015799Y10332838D01*
X28643833Y10333162D01*
X28522431Y10283000D01*
X21088289Y10283000D01*
X21545004Y10738918D01*
X21809699Y11376373D01*
X21810301Y12066599D01*
X21546719Y12704515D01*
X21059082Y13193004D01*
X20421627Y13457699D01*
X19731401Y13458301D01*
X19093485Y13194719D01*
X18604996Y12707082D01*
X18563853Y12608000D01*
X17035581Y12608000D01*
X16571792Y13071790D01*
X16544718Y13089880D01*
X16284677Y13263633D01*
X16228486Y13274810D01*
X15946002Y13331001D01*
X15945997Y13331000D01*
X14971579Y13331000D01*
X11903580Y16399000D01*
X14097000Y16399000D01*
X14722687Y16523457D01*
X15253120Y16877880D01*
X15367000Y17048314D01*
X15480880Y16877880D01*
X16011313Y16523457D01*
X16637000Y16399000D01*
X17262687Y16523457D01*
X17793120Y16877880D01*
X18147543Y17408313D01*
X18272000Y18034000D01*
X18272000Y21209000D01*
X18147543Y21834687D01*
X18084440Y21929128D01*
X18084440Y22009000D01*
X18040162Y22244317D01*
X17901090Y22460441D01*
X17749710Y22563874D01*
X17793120Y22592880D01*
X18147543Y23123313D01*
X18272000Y23749000D01*
X18147543Y24374687D01*
X17793120Y24905120D01*
X17465520Y25124015D01*
X17492134Y25136611D01*
X17656169Y25317690D01*
X17660180Y25297526D01*
X17671357Y25241335D01*
X17820336Y25018371D01*
X17863200Y24954220D01*
X19694208Y23123213D01*
X19694210Y23123210D01*
X19915805Y22975146D01*
X19981325Y22931367D01*
X20320000Y22863999D01*
X20320005Y22864000D01*
X20443441Y22864000D01*
X20624597Y22592880D01*
X20717000Y22531138D01*
X20717000Y20320005D01*
X20716999Y20320000D01*
X20841457Y19694312D01*
X20926014Y19567764D01*
X20695353Y19798827D01*
X20205413Y20002268D01*
X19674914Y20002731D01*
X19184620Y19800146D01*
X18809173Y19425353D01*
X18605732Y18935413D01*
X18605269Y18404914D01*
X18807854Y17914620D01*
X19182647Y17539173D01*
X19672587Y17335732D01*
X20203086Y17335269D01*
X20693380Y17537854D01*
X21068827Y17912647D01*
X21272268Y18402587D01*
X21272731Y18933086D01*
X21147373Y19236476D01*
X21195880Y19163880D01*
X23735880Y16623881D01*
X24266312Y16269458D01*
X24892000Y16145000D01*
X25517687Y16269458D01*
X26048119Y16623881D01*
X26161999Y16794315D01*
X26275880Y16623880D01*
X26806313Y16269457D01*
X27432000Y16145000D01*
X29845000Y16145000D01*
X30470687Y16269457D01*
X31001120Y16623880D01*
X31263258Y17016199D01*
X31628647Y16650173D01*
X32118587Y16446732D01*
X32649086Y16446269D01*
X33139380Y16648854D01*
X33514827Y17023647D01*
X33718268Y17513587D01*
X33718328Y17582569D01*
X33814603Y17726654D01*
X33901000Y18161000D01*
X33901000Y18270034D01*
X34047854Y17914620D01*
X34422647Y17539173D01*
X34912587Y17335732D01*
X35443086Y17335269D01*
X35933380Y17537854D01*
X36143200Y17747309D01*
X49032000Y17747309D01*
X49032000Y17156750D01*
X49190750Y16998000D01*
X50165000Y16998000D01*
X50165000Y18097250D01*
X50419000Y18097250D01*
X50419000Y16998000D01*
X51393250Y16998000D01*
X51552000Y17156750D01*
X51552000Y17747309D01*
X51455327Y17980698D01*
X51276699Y18159327D01*
X51043310Y18256000D01*
X50577750Y18256000D01*
X50419000Y18097250D01*
X50165000Y18097250D01*
X50006250Y18256000D01*
X49540690Y18256000D01*
X49307301Y18159327D01*
X49128673Y17980698D01*
X49032000Y17747309D01*
X36143200Y17747309D01*
X36308827Y17912647D01*
X36512268Y18402587D01*
X36512731Y18933086D01*
X36310146Y19423380D01*
X35953898Y19780250D01*
X46990000Y19780250D01*
X46990000Y19050691D01*
X47086673Y18817302D01*
X47265301Y18638673D01*
X47498690Y18542000D01*
X48228250Y18542000D01*
X48387000Y18700750D01*
X48387000Y19939000D01*
X48641000Y19939000D01*
X48641000Y18700750D01*
X48799750Y18542000D01*
X49529310Y18542000D01*
X49762699Y18638673D01*
X49941327Y18817302D01*
X50038000Y19050691D01*
X50038000Y19780250D01*
X49879250Y19939000D01*
X48641000Y19939000D01*
X48387000Y19939000D01*
X47148750Y19939000D01*
X46990000Y19780250D01*
X35953898Y19780250D01*
X35935353Y19798827D01*
X35445413Y20002268D01*
X34914914Y20002731D01*
X34424620Y19800146D01*
X34049173Y19425353D01*
X33901000Y19068513D01*
X33901000Y19869982D01*
X34017441Y19944910D01*
X34162431Y20157110D01*
X34213440Y20409000D01*
X34213440Y21081309D01*
X46990000Y21081309D01*
X46990000Y20351750D01*
X47148750Y20193000D01*
X48387000Y20193000D01*
X48387000Y21431250D01*
X48641000Y21431250D01*
X48641000Y20193000D01*
X49879250Y20193000D01*
X50038000Y20351750D01*
X50038000Y21070250D01*
X50175000Y21070250D01*
X50175000Y20479691D01*
X50271673Y20246302D01*
X50450301Y20067673D01*
X50683690Y19971000D01*
X51149250Y19971000D01*
X51308000Y20129750D01*
X51308000Y21229000D01*
X50333750Y21229000D01*
X50175000Y21070250D01*
X50038000Y21070250D01*
X50038000Y21081309D01*
X49941327Y21314698D01*
X49762699Y21493327D01*
X49529310Y21590000D01*
X48799750Y21590000D01*
X48641000Y21431250D01*
X48387000Y21431250D01*
X48228250Y21590000D01*
X47498690Y21590000D01*
X47265301Y21493327D01*
X47086673Y21314698D01*
X46990000Y21081309D01*
X34213440Y21081309D01*
X34213440Y22009000D01*
X34169162Y22244317D01*
X34030090Y22460441D01*
X33878710Y22563874D01*
X33922120Y22592880D01*
X34276543Y23123313D01*
X34401000Y23749000D01*
X34276543Y24374687D01*
X33922120Y24905120D01*
X33594520Y25124015D01*
X33621134Y25136611D01*
X33997041Y25551577D01*
X34018971Y25604523D01*
X34047854Y25534620D01*
X34422647Y25159173D01*
X34912587Y24955732D01*
X35443086Y24955269D01*
X35933380Y25157854D01*
X36308827Y25532647D01*
X36512268Y26022587D01*
X36512731Y26553086D01*
X36310146Y27043380D01*
X36014000Y27340043D01*
X36014000Y31496000D01*
X36884000Y31496000D01*
X36884000Y24672666D01*
X36589173Y24378353D01*
X36385732Y23888413D01*
X36385269Y23357914D01*
X36587854Y22867620D01*
X36962647Y22492173D01*
X37452587Y22288732D01*
X37983086Y22288269D01*
X38473380Y22490854D01*
X38848827Y22865647D01*
X39052268Y23355587D01*
X39052731Y23886086D01*
X38850146Y24376380D01*
X38554000Y24673043D01*
X38554000Y31496000D01*
X39918971Y31496000D01*
X39675968Y31253421D01*
X39433776Y30670159D01*
X39433225Y30038612D01*
X39674398Y29454928D01*
X40120579Y29007968D01*
X40703841Y28765776D01*
X41335388Y28765225D01*
X41919072Y29006398D01*
X42366032Y29452579D01*
X42608224Y30035841D01*
X42608775Y30667388D01*
X42367602Y31251072D01*
X42123101Y31496000D01*
X47371000Y31496000D01*
X47371000Y31192967D01*
X47083880Y31001120D01*
X47039494Y30934692D01*
X47038559Y30934090D01*
X46990866Y30864289D01*
X46954090Y30921441D01*
X46945383Y30927390D01*
X46896119Y31001119D01*
X46365687Y31355542D01*
X45740000Y31480000D01*
X45114312Y31355542D01*
X44583880Y31001119D01*
X40455700Y26872940D01*
X40068500Y26872940D01*
X39833183Y26828662D01*
X39617059Y26689590D01*
X39472069Y26477390D01*
X39421060Y26225500D01*
X39421060Y25449258D01*
X39386000Y25273000D01*
X39386000Y22733000D01*
X39510457Y22107313D01*
X39864880Y21576880D01*
X40395313Y21222457D01*
X41021000Y21098000D01*
X41646687Y21222457D01*
X42177120Y21576880D01*
X42531543Y22107313D01*
X42656000Y22733000D01*
X42656000Y24448760D01*
X46896119Y28688880D01*
X46940504Y28755307D01*
X46941441Y28755910D01*
X46989134Y28825711D01*
X47025910Y28768559D01*
X47034614Y28762612D01*
X47083880Y28688880D01*
X47614313Y28334457D01*
X48240000Y28210000D01*
X50122760Y28210000D01*
X51054000Y27278760D01*
X51054000Y26467240D01*
X50770688Y26656543D01*
X50145000Y26781001D01*
X50144995Y26781000D01*
X48514000Y26781000D01*
X47888313Y26656543D01*
X47357880Y26302120D01*
X47003457Y25771687D01*
X46879000Y25146000D01*
X47003457Y24520313D01*
X47357880Y23989880D01*
X47888313Y23635457D01*
X48514000Y23511000D01*
X49467760Y23511000D01*
X50278880Y22699881D01*
X50345307Y22655496D01*
X50345910Y22654559D01*
X50414006Y22608031D01*
X50271673Y22465698D01*
X50175000Y22232309D01*
X50175000Y21641750D01*
X50333750Y21483000D01*
X51308000Y21483000D01*
X51308000Y21503000D01*
X51562000Y21503000D01*
X51562000Y21483000D01*
X51582000Y21483000D01*
X51582000Y21229000D01*
X51562000Y21229000D01*
X51562000Y20129750D01*
X51720750Y19971000D01*
X52186310Y19971000D01*
X52419699Y20067673D01*
X52598327Y20246302D01*
X52695000Y20479691D01*
X52695000Y20941203D01*
X53075323Y20560880D01*
X53605755Y20206457D01*
X54231443Y20081999D01*
X54254319Y20086549D01*
X54627424Y19713444D01*
X54995644Y19467407D01*
X55429990Y19381010D01*
X67622076Y19381010D01*
X68120652Y18882434D01*
X68488873Y18636396D01*
X68923218Y18550000D01*
X79629000Y18550000D01*
X80063346Y18636397D01*
X80431566Y18882434D01*
X81965283Y20416151D01*
X82337151Y20490120D01*
X82802698Y20801189D01*
X83113767Y21266736D01*
X83223000Y21815887D01*
X83223000Y21872113D01*
X83113767Y22421264D01*
X82923000Y22706767D01*
X82923000Y23475000D01*
X82836603Y23909346D01*
X82780141Y23993847D01*
X82590566Y24277567D01*
X80879440Y25988692D01*
X80879440Y26406000D01*
X80835162Y26641317D01*
X80696090Y26857441D01*
X80483890Y27002431D01*
X80232000Y27053440D01*
X78732000Y27053440D01*
X78496683Y27009162D01*
X78280559Y26870090D01*
X78232866Y26800289D01*
X78196090Y26857441D01*
X78056807Y26952609D01*
X78030603Y27084346D01*
X77784566Y27452566D01*
X77148603Y28088529D01*
X77257151Y28110120D01*
X77584728Y28329000D01*
X78371272Y28329000D01*
X78698849Y28110120D01*
X79248000Y28000887D01*
X79797151Y28110120D01*
X80262698Y28421189D01*
X80518000Y28803275D01*
X80773302Y28421189D01*
X81238849Y28110120D01*
X81788000Y28000887D01*
X82337151Y28110120D01*
X82802698Y28421189D01*
X82854063Y28498062D01*
X83098566Y28661434D01*
X85933132Y31496000D01*
X97080000Y31496000D01*
X97080000Y4790553D01*
X96632604Y5238731D01*
X95572467Y5678938D01*
X94424569Y5679940D01*
X93363665Y5241583D01*
X92551269Y4430604D01*
X92111062Y3370467D01*
X92110060Y2222569D01*
X92548417Y1161665D01*
X92999294Y710000D01*
X47589331Y710000D01*
X48164731Y1284396D01*
X48604938Y2344533D01*
X48605940Y3492431D01*
X48167583Y4553335D01*
X47356604Y5365731D01*
X46296467Y5805938D01*
X45148569Y5806940D01*
X44087665Y5368583D01*
X43275269Y4557604D01*
X42835062Y3497467D01*
X42834060Y2349569D01*
X43272417Y1288665D01*
X43850073Y710000D01*
X710000Y710000D01*
X710000Y5264205D01*
X2162716Y5264205D01*
X2411106Y4663057D01*
X2870637Y4202722D01*
X3471352Y3953284D01*
X4121795Y3952716D01*
X4722943Y4201106D01*
X4975278Y4453000D01*
X8220796Y4453000D01*
X8470637Y4202722D01*
X9071352Y3953284D01*
X9721795Y3952716D01*
X10322943Y4201106D01*
X10783278Y4660637D01*
X11032716Y5261352D01*
X11033255Y5879401D01*
X14139699Y5879401D01*
X14403281Y5241485D01*
X14890918Y4752996D01*
X14962545Y4723254D01*
X14893485Y4694719D01*
X14404996Y4207082D01*
X14140301Y3569627D01*
X14139699Y2879401D01*
X14403281Y2241485D01*
X14890918Y1752996D01*
X15528373Y1488301D01*
X16218599Y1487699D01*
X16856515Y1751281D01*
X17345004Y2238918D01*
X17609699Y2876373D01*
X17610301Y3566599D01*
X17536240Y3745841D01*
X30087446Y3745841D01*
X30173852Y3489357D01*
X30747336Y3279542D01*
X31357460Y3305161D01*
X31802148Y3489357D01*
X31888554Y3745841D01*
X32587446Y3745841D01*
X32673852Y3489357D01*
X33247336Y3279542D01*
X33857460Y3305161D01*
X34302148Y3489357D01*
X34388554Y3745841D01*
X33488000Y4646395D01*
X32587446Y3745841D01*
X31888554Y3745841D01*
X30988000Y4646395D01*
X30087446Y3745841D01*
X17536240Y3745841D01*
X17346719Y4204515D01*
X16859082Y4693004D01*
X16787455Y4722746D01*
X16856515Y4751281D01*
X17172449Y5066664D01*
X29441542Y5066664D01*
X29467161Y4456540D01*
X29651357Y4011852D01*
X29907841Y3925446D01*
X30808395Y4826000D01*
X31167605Y4826000D01*
X32068159Y3925446D01*
X32238000Y3982663D01*
X32407841Y3925446D01*
X33308395Y4826000D01*
X32407841Y5726554D01*
X32238000Y5669337D01*
X32068159Y5726554D01*
X31167605Y4826000D01*
X30808395Y4826000D01*
X29907841Y5726554D01*
X29651357Y5640148D01*
X29441542Y5066664D01*
X17172449Y5066664D01*
X17345004Y5238918D01*
X17609699Y5876373D01*
X17610021Y6245841D01*
X30087446Y6245841D01*
X30144663Y6076000D01*
X30087446Y5906159D01*
X30988000Y5005605D01*
X31888554Y5906159D01*
X31831337Y6076000D01*
X31888554Y6245841D01*
X32587446Y6245841D01*
X32644663Y6076000D01*
X32587446Y5906159D01*
X33488000Y5005605D01*
X34388554Y5906159D01*
X34331337Y6076000D01*
X34388554Y6245841D01*
X33488000Y7146395D01*
X32587446Y6245841D01*
X31888554Y6245841D01*
X30988000Y7146395D01*
X30087446Y6245841D01*
X17610021Y6245841D01*
X17610301Y6566599D01*
X17346719Y7204515D01*
X16985202Y7566664D01*
X29441542Y7566664D01*
X29467161Y6956540D01*
X29651357Y6511852D01*
X29907841Y6425446D01*
X30808395Y7326000D01*
X31167605Y7326000D01*
X32068159Y6425446D01*
X32238000Y6482663D01*
X32407841Y6425446D01*
X33308395Y7326000D01*
X33667605Y7326000D01*
X34568159Y6425446D01*
X34683214Y6464207D01*
X34685932Y6457629D01*
X35067182Y6075712D01*
X34687449Y5696643D01*
X34683706Y5687628D01*
X34568159Y5726554D01*
X33667605Y4826000D01*
X34568159Y3925446D01*
X34683214Y3964207D01*
X34685932Y3957629D01*
X35117357Y3525449D01*
X35681330Y3291267D01*
X36291991Y3290735D01*
X36856371Y3523932D01*
X37288551Y3955357D01*
X37522733Y4519330D01*
X37523265Y5129991D01*
X37508527Y5165659D01*
X38309434Y5966566D01*
X38490440Y6237460D01*
X38554000Y6557000D01*
X38554000Y14951334D01*
X38715948Y15113000D01*
X39385999Y15113000D01*
X39510457Y14487312D01*
X39864880Y13956880D01*
X43801878Y10019883D01*
X43801880Y10019880D01*
X46595878Y7225883D01*
X46595880Y7225880D01*
X49770880Y4050880D01*
X50301312Y3696457D01*
X50927000Y3571999D01*
X50927005Y3572000D01*
X54609995Y3572000D01*
X54610000Y3571999D01*
X55105496Y3670560D01*
X55499000Y3670560D01*
X55734317Y3714838D01*
X55950441Y3853910D01*
X56095431Y4066110D01*
X56146440Y4318000D01*
X56146440Y4431200D01*
X59850117Y8134878D01*
X59850120Y8134880D01*
X60069470Y8463162D01*
X60204543Y8665312D01*
X60329000Y9291000D01*
X60329000Y11259712D01*
X60329001Y11259717D01*
X60329000Y11259722D01*
X60329000Y13289812D01*
X68079417Y13289812D01*
X68141071Y13054200D01*
X68641480Y12878073D01*
X69171199Y12906852D01*
X69526929Y13054200D01*
X69588583Y13289812D01*
X70365417Y13289812D01*
X70427071Y13054200D01*
X70927480Y12878073D01*
X71457199Y12906852D01*
X71812929Y13054200D01*
X71874583Y13289812D01*
X71120000Y14044395D01*
X70365417Y13289812D01*
X69588583Y13289812D01*
X68834000Y14044395D01*
X68079417Y13289812D01*
X60329000Y13289812D01*
X60329000Y14371000D01*
X60319946Y14416520D01*
X67488073Y14416520D01*
X67516852Y13886801D01*
X67664200Y13531071D01*
X67899812Y13469417D01*
X68654395Y14224000D01*
X69013605Y14224000D01*
X69768188Y13469417D01*
X69977000Y13524058D01*
X70185812Y13469417D01*
X70940395Y14224000D01*
X71299605Y14224000D01*
X72054188Y13469417D01*
X72289800Y13531071D01*
X72465927Y14031480D01*
X72437148Y14561199D01*
X72289800Y14916929D01*
X72054188Y14978583D01*
X71299605Y14224000D01*
X70940395Y14224000D01*
X70185812Y14978583D01*
X69977000Y14923942D01*
X69768188Y14978583D01*
X69013605Y14224000D01*
X68654395Y14224000D01*
X67899812Y14978583D01*
X67664200Y14916929D01*
X67488073Y14416520D01*
X60319946Y14416520D01*
X60204543Y14996687D01*
X60096632Y15158188D01*
X68079417Y15158188D01*
X68834000Y14403605D01*
X69588583Y15158188D01*
X70365417Y15158188D01*
X71120000Y14403605D01*
X71874583Y15158188D01*
X71812929Y15393800D01*
X71312520Y15569927D01*
X70782801Y15541148D01*
X70427071Y15393800D01*
X70365417Y15158188D01*
X69588583Y15158188D01*
X69526929Y15393800D01*
X69026520Y15569927D01*
X68496801Y15541148D01*
X68141071Y15393800D01*
X68079417Y15158188D01*
X60096632Y15158188D01*
X59850120Y15527120D01*
X59319687Y15881543D01*
X58694000Y16006000D01*
X58068313Y15881543D01*
X57537880Y15527120D01*
X57183457Y14996687D01*
X57059000Y14371000D01*
X57059000Y11936956D01*
X56019267Y10897223D01*
X55937539Y11094533D01*
X55682196Y11179591D01*
X54789605Y10287000D01*
X54803748Y10272857D01*
X54624143Y10093252D01*
X54610000Y10107395D01*
X54595858Y10093252D01*
X54416253Y10272857D01*
X54430395Y10287000D01*
X53537804Y11179591D01*
X53282461Y11094533D01*
X53207818Y10890139D01*
X52738761Y11359196D01*
X53717409Y11359196D01*
X54610000Y10466605D01*
X55502591Y11359196D01*
X55417533Y11614539D01*
X54848035Y11822516D01*
X54242300Y11796723D01*
X53802467Y11614539D01*
X53717409Y11359196D01*
X52738761Y11359196D01*
X51927000Y12170957D01*
X51927000Y14371000D01*
X51802543Y14996687D01*
X51448120Y15527120D01*
X51381692Y15571506D01*
X51381090Y15572441D01*
X51312994Y15618969D01*
X51455327Y15761302D01*
X51552000Y15994691D01*
X51552000Y16585250D01*
X51393250Y16744000D01*
X50419000Y16744000D01*
X50419000Y16724000D01*
X50165000Y16724000D01*
X50165000Y16744000D01*
X49190750Y16744000D01*
X49032000Y16585250D01*
X49032000Y16006000D01*
X47667005Y16006000D01*
X47667000Y16006001D01*
X47041313Y15881543D01*
X46510880Y15527120D01*
X46510878Y15527117D01*
X44715000Y13731240D01*
X42177120Y16269120D01*
X41646688Y16623543D01*
X41021000Y16748001D01*
X40395312Y16623543D01*
X39864880Y16269120D01*
X39510457Y15738688D01*
X39385999Y15113000D01*
X38715948Y15113000D01*
X38848827Y15245647D01*
X39052268Y15735587D01*
X39052731Y16266086D01*
X38850146Y16756380D01*
X38475353Y17131827D01*
X37985413Y17335268D01*
X37454914Y17335731D01*
X36964620Y17133146D01*
X36589173Y16758353D01*
X36385732Y16268413D01*
X36385269Y15737914D01*
X36587854Y15247620D01*
X36884000Y14950957D01*
X36884000Y8601150D01*
X36858643Y8626551D01*
X36560265Y8750448D01*
X36422346Y8842603D01*
X35988000Y8929000D01*
X35553654Y8842603D01*
X35415610Y8750365D01*
X35119629Y8628068D01*
X34687449Y8196643D01*
X34683706Y8187628D01*
X34568159Y8226554D01*
X33667605Y7326000D01*
X33308395Y7326000D01*
X32407841Y8226554D01*
X32238000Y8169337D01*
X32068159Y8226554D01*
X31167605Y7326000D01*
X30808395Y7326000D01*
X29907841Y8226554D01*
X29651357Y8140148D01*
X29441542Y7566664D01*
X16985202Y7566664D01*
X16859082Y7693004D01*
X16221627Y7957699D01*
X15531401Y7958301D01*
X14893485Y7694719D01*
X14404996Y7207082D01*
X14140301Y6569627D01*
X14139699Y5879401D01*
X11033255Y5879401D01*
X11033284Y5911795D01*
X10784894Y6512943D01*
X10325363Y6973278D01*
X9724648Y7222716D01*
X9074205Y7223284D01*
X8473057Y6974894D01*
X8220722Y6723000D01*
X4975204Y6723000D01*
X4725363Y6973278D01*
X4124648Y7222716D01*
X3474205Y7223284D01*
X2873057Y6974894D01*
X2412722Y6515363D01*
X2163284Y5914648D01*
X2162716Y5264205D01*
X710000Y5264205D01*
X710000Y8406159D01*
X30087446Y8406159D01*
X30988000Y7505605D01*
X31888554Y8406159D01*
X32587446Y8406159D01*
X33488000Y7505605D01*
X34388554Y8406159D01*
X34302148Y8662643D01*
X33728664Y8872458D01*
X33118540Y8846839D01*
X32673852Y8662643D01*
X32587446Y8406159D01*
X31888554Y8406159D01*
X31802148Y8662643D01*
X31228664Y8872458D01*
X30618540Y8846839D01*
X30173852Y8662643D01*
X30087446Y8406159D01*
X710000Y8406159D01*
X710000Y18404914D01*
X2222269Y18404914D01*
X2424854Y17914620D01*
X2799647Y17539173D01*
X3289587Y17335732D01*
X3820086Y17335269D01*
X4310380Y17537854D01*
X4685827Y17912647D01*
X4889268Y18402587D01*
X4889731Y18933086D01*
X4687146Y19423380D01*
X4312353Y19798827D01*
X3822413Y20002268D01*
X3291914Y20002731D01*
X2801620Y19800146D01*
X2426173Y19425353D01*
X2222732Y18935413D01*
X2222269Y18404914D01*
X710000Y18404914D01*
X710000Y38643447D01*
X1157396Y38195269D01*
X2217533Y37755062D01*
X3365431Y37754060D01*
X4426335Y38192417D01*
X5238731Y39003396D01*
X5678938Y40063533D01*
X5679940Y41211431D01*
X5241583Y42272335D01*
X4430604Y43084731D01*
X3370467Y43524938D01*
X2222569Y43525940D01*
X1161665Y43087583D01*
X710000Y42636706D01*
X710000Y65567447D01*
X1157396Y65119269D01*
X2217533Y64679062D01*
X3365431Y64678060D01*
X4426335Y65116417D01*
X5238731Y65927396D01*
X5678938Y66987533D01*
X5679940Y68135431D01*
X5241583Y69196335D01*
X4790706Y69648000D01*
X35179000Y69648000D01*
X35179000Y57134000D01*
G36*
X12816313Y34811457D02*
X13442000Y34687000D01*
X14601000Y34687000D01*
X14601000Y34026000D01*
X14021750Y34026000D01*
X13863000Y33867250D01*
X13863000Y32893000D01*
X13883000Y32893000D01*
X13883000Y32639000D01*
X13863000Y32639000D01*
X13863000Y31664750D01*
X14021750Y31506000D01*
X14612309Y31506000D01*
X14845698Y31602673D01*
X14986936Y31743910D01*
X15002000Y31720500D01*
X15002000Y28829000D01*
X15126457Y28203313D01*
X15480880Y27672880D01*
X15808480Y27453985D01*
X15781866Y27441389D01*
X15405959Y27026423D01*
X15245096Y26638039D01*
X15367085Y26416000D01*
X16510000Y26416000D01*
X16510000Y26436000D01*
X16764000Y26436000D01*
X16764000Y26416000D01*
X16784000Y26416000D01*
X16784000Y26162000D01*
X16764000Y26162000D01*
X16764000Y26142000D01*
X16510000Y26142000D01*
X16510000Y26162000D01*
X15367085Y26162000D01*
X15245096Y25939961D01*
X15405959Y25551577D01*
X15557763Y25384000D01*
X15417003Y25384000D01*
X15416998Y25384001D01*
X14791310Y25259543D01*
X14260878Y24905120D01*
X12940880Y23585122D01*
X12852010Y23452119D01*
X12852010Y31509182D01*
X12859691Y31506000D01*
X13450250Y31506000D01*
X13609000Y31664750D01*
X13609000Y32639000D01*
X13589000Y32639000D01*
X13589000Y32893000D01*
X13609000Y32893000D01*
X13609000Y33867250D01*
X13450250Y34026000D01*
X12859691Y34026000D01*
X12852010Y34022818D01*
X12852010Y34280990D01*
X12735791Y34865260D01*
X12816313Y34811457D01*
X12816313Y34811457D01*
G37*
X12816313Y34811457D02*
X13442000Y34687000D01*
X14601000Y34687000D01*
X14601000Y34026000D01*
X14021750Y34026000D01*
X13863000Y33867250D01*
X13863000Y32893000D01*
X13883000Y32893000D01*
X13883000Y32639000D01*
X13863000Y32639000D01*
X13863000Y31664750D01*
X14021750Y31506000D01*
X14612309Y31506000D01*
X14845698Y31602673D01*
X14986936Y31743910D01*
X15002000Y31720500D01*
X15002000Y28829000D01*
X15126457Y28203313D01*
X15480880Y27672880D01*
X15808480Y27453985D01*
X15781866Y27441389D01*
X15405959Y27026423D01*
X15245096Y26638039D01*
X15367085Y26416000D01*
X16510000Y26416000D01*
X16510000Y26436000D01*
X16764000Y26436000D01*
X16764000Y26416000D01*
X16784000Y26416000D01*
X16784000Y26162000D01*
X16764000Y26162000D01*
X16764000Y26142000D01*
X16510000Y26142000D01*
X16510000Y26162000D01*
X15367085Y26162000D01*
X15245096Y25939961D01*
X15405959Y25551577D01*
X15557763Y25384000D01*
X15417003Y25384000D01*
X15416998Y25384001D01*
X14791310Y25259543D01*
X14260878Y24905120D01*
X12940880Y23585122D01*
X12852010Y23452119D01*
X12852010Y31509182D01*
X12859691Y31506000D01*
X13450250Y31506000D01*
X13609000Y31664750D01*
X13609000Y32639000D01*
X13589000Y32639000D01*
X13589000Y32893000D01*
X13609000Y32893000D01*
X13609000Y33867250D01*
X13450250Y34026000D01*
X12859691Y34026000D01*
X12852010Y34022818D01*
X12852010Y34280990D01*
X12735791Y34865260D01*
X12816313Y34811457D01*
G36*
X28301000Y34433000D02*
X28828995Y34433000D01*
X28829000Y34432999D01*
X28829005Y34433000D01*
X30730000Y34433000D01*
X30730000Y32375000D01*
X30150750Y32375000D01*
X29992000Y32216250D01*
X29992000Y31242000D01*
X30012000Y31242000D01*
X30012000Y30988000D01*
X29992000Y30988000D01*
X29992000Y30013750D01*
X30150750Y29855000D01*
X30741309Y29855000D01*
X30974698Y29951673D01*
X31115936Y30092910D01*
X31131000Y30069500D01*
X31131000Y28829000D01*
X31255457Y28203313D01*
X31609880Y27672880D01*
X31937480Y27453985D01*
X31910866Y27441389D01*
X31534959Y27026423D01*
X31374096Y26638039D01*
X31496085Y26416000D01*
X32639000Y26416000D01*
X32639000Y26436000D01*
X32893000Y26436000D01*
X32893000Y26416000D01*
X32913000Y26416000D01*
X32913000Y26162000D01*
X32893000Y26162000D01*
X32893000Y26142000D01*
X32639000Y26142000D01*
X32639000Y26162000D01*
X31496085Y26162000D01*
X31374096Y25939961D01*
X31534959Y25551577D01*
X31686763Y25384000D01*
X31545998Y25384000D01*
X30920311Y25259543D01*
X30389878Y24905120D01*
X30389876Y24905117D01*
X28981010Y23496252D01*
X28981010Y29858182D01*
X28988691Y29855000D01*
X29579250Y29855000D01*
X29738000Y30013750D01*
X29738000Y30988000D01*
X29718000Y30988000D01*
X29718000Y31242000D01*
X29738000Y31242000D01*
X29738000Y32216250D01*
X29579250Y32375000D01*
X28988691Y32375000D01*
X28981010Y32371818D01*
X28981010Y32883985D01*
X28981011Y32883990D01*
X28856553Y33509678D01*
X28668439Y33791210D01*
X28502130Y34040110D01*
X28502127Y34040112D01*
X28061624Y34480615D01*
X28301000Y34433000D01*
X28301000Y34433000D01*
G37*
X28301000Y34433000D02*
X28828995Y34433000D01*
X28829000Y34432999D01*
X28829005Y34433000D01*
X30730000Y34433000D01*
X30730000Y32375000D01*
X30150750Y32375000D01*
X29992000Y32216250D01*
X29992000Y31242000D01*
X30012000Y31242000D01*
X30012000Y30988000D01*
X29992000Y30988000D01*
X29992000Y30013750D01*
X30150750Y29855000D01*
X30741309Y29855000D01*
X30974698Y29951673D01*
X31115936Y30092910D01*
X31131000Y30069500D01*
X31131000Y28829000D01*
X31255457Y28203313D01*
X31609880Y27672880D01*
X31937480Y27453985D01*
X31910866Y27441389D01*
X31534959Y27026423D01*
X31374096Y26638039D01*
X31496085Y26416000D01*
X32639000Y26416000D01*
X32639000Y26436000D01*
X32893000Y26436000D01*
X32893000Y26416000D01*
X32913000Y26416000D01*
X32913000Y26162000D01*
X32893000Y26162000D01*
X32893000Y26142000D01*
X32639000Y26142000D01*
X32639000Y26162000D01*
X31496085Y26162000D01*
X31374096Y25939961D01*
X31534959Y25551577D01*
X31686763Y25384000D01*
X31545998Y25384000D01*
X30920311Y25259543D01*
X30389878Y24905120D01*
X30389876Y24905117D01*
X28981010Y23496252D01*
X28981010Y29858182D01*
X28988691Y29855000D01*
X29579250Y29855000D01*
X29738000Y30013750D01*
X29738000Y30988000D01*
X29718000Y30988000D01*
X29718000Y31242000D01*
X29738000Y31242000D01*
X29738000Y32216250D01*
X29579250Y32375000D01*
X28988691Y32375000D01*
X28981010Y32371818D01*
X28981010Y32883985D01*
X28981011Y32883990D01*
X28856553Y33509678D01*
X28668439Y33791210D01*
X28502130Y34040110D01*
X28502127Y34040112D01*
X28061624Y34480615D01*
X28301000Y34433000D01*
G36*
X24872000Y32258000D02*
X24892000Y32258000D01*
X24892000Y32004000D01*
X24872000Y32004000D01*
X24872000Y31029750D01*
X25030750Y30871000D01*
X25621309Y30871000D01*
X25711010Y30908155D01*
X25711010Y30118700D01*
X25495041Y30220914D01*
X25273000Y30099629D01*
X25273000Y28956000D01*
X25293000Y28956000D01*
X25293000Y28702000D01*
X25273000Y28702000D01*
X25273000Y28682000D01*
X25019000Y28682000D01*
X25019000Y28702000D01*
X24999000Y28702000D01*
X24999000Y28956000D01*
X25019000Y28956000D01*
X25019000Y30099629D01*
X24796959Y30220914D01*
X24290866Y29981389D01*
X23936611Y29590324D01*
X23862543Y29962687D01*
X23508120Y30493120D01*
X23094117Y30769747D01*
X23401120Y30974880D01*
X23445506Y31041308D01*
X23446441Y31041910D01*
X23492969Y31110006D01*
X23635302Y30967673D01*
X23868691Y30871000D01*
X24459250Y30871000D01*
X24618000Y31029750D01*
X24618000Y32004000D01*
X24598000Y32004000D01*
X24598000Y32258000D01*
X24618000Y32258000D01*
X24618000Y32278000D01*
X24872000Y32278000D01*
X24872000Y32258000D01*
X24872000Y32258000D01*
G37*
X24872000Y32258000D02*
X24892000Y32258000D01*
X24892000Y32004000D01*
X24872000Y32004000D01*
X24872000Y31029750D01*
X25030750Y30871000D01*
X25621309Y30871000D01*
X25711010Y30908155D01*
X25711010Y30118700D01*
X25495041Y30220914D01*
X25273000Y30099629D01*
X25273000Y28956000D01*
X25293000Y28956000D01*
X25293000Y28702000D01*
X25273000Y28702000D01*
X25273000Y28682000D01*
X25019000Y28682000D01*
X25019000Y28702000D01*
X24999000Y28702000D01*
X24999000Y28956000D01*
X25019000Y28956000D01*
X25019000Y30099629D01*
X24796959Y30220914D01*
X24290866Y29981389D01*
X23936611Y29590324D01*
X23862543Y29962687D01*
X23508120Y30493120D01*
X23094117Y30769747D01*
X23401120Y30974880D01*
X23445506Y31041308D01*
X23446441Y31041910D01*
X23492969Y31110006D01*
X23635302Y30967673D01*
X23868691Y30871000D01*
X24459250Y30871000D01*
X24618000Y31029750D01*
X24618000Y32004000D01*
X24598000Y32004000D01*
X24598000Y32258000D01*
X24618000Y32258000D01*
X24618000Y32278000D01*
X24872000Y32278000D01*
X24872000Y32258000D01*
M02*
