M48
;DRILL file {KiCad 4.0.6+dfsg1-1} date Sat Nov 11 18:30:46 2017
;FORMAT={-:-/ absolute / metric / decimal}
FMAT,2
METRIC,TZ
T1C0.400
T2C0.700
T3C0.800
T4C0.813
T5C1.000
T6C1.016
T7C1.500
T8C1.700
T9C3.200
%
G90
G05
M71
T1
X1.016Y25.781
X1.143Y44.069
X1.143Y43.434
X1.397Y18.542
X1.524Y62.23
X1.524Y20.066
X1.651Y36.957
X1.778Y51.435
X1.778Y22.733
X2.032Y63.881
X2.286Y32.131
X2.286Y9.144
X2.413Y4.191
X2.667Y56.388
X2.794Y34.671
X2.921Y46.101
X3.048Y54.991
X3.175Y15.621
X3.81Y58.293
X3.81Y22.86
X4.191Y44.323
X4.191Y3.556
X4.445Y37.465
X4.953Y17.145
X5.461Y61.595
X5.842Y69.088
X6.223Y41.656
X6.223Y18.034
X6.731Y65.151
X6.985Y40.386
X7.112Y8.636
X8.128Y42.672
X8.235Y31.369
X8.235Y30.268
X8.255Y34.036
X8.509Y63.881
X9.017Y3.302
X9.271Y43.434
X9.525Y68.326
X9.525Y15.621
X10.16Y62.611
X10.16Y14.351
X10.541Y43.561
X10.668Y9.398
X11.938Y65.532
X11.938Y12.446
X12.065Y44.196
X12.065Y39.243
X12.7Y4.064
X12.7Y3.429
X13.589Y28.829
X13.716Y33.909
X13.843Y31.369
X13.97Y68.072
X14.442Y27.269
X15.113Y43.561
X15.24Y41.148
X17.78Y2.413
X18.034Y24.892
X18.542Y30.734
X18.542Y3.429
X18.669Y40.894
X19.177Y46.101
X19.304Y66.167
X19.304Y43.18
X19.431Y44.577
X19.431Y36.576
X19.431Y32.639
X19.558Y33.401
X19.558Y4.572
X19.685Y38.227
X19.685Y34.417
X20.32Y2.667
X20.574Y31.623
X20.955Y30.988
X21.058Y15.851
X21.336Y6.35
X22.352Y8.128
X23.368Y4.191
X23.622Y65.405
X25.4Y13.041
X25.4Y8.128
X26.162Y2.794
X26.706Y16.038
X26.924Y67.31
X27.813Y64.008
X28.067Y8.382
X28.448Y34.29
X28.829Y11.049
X28.829Y9.398
X29.337Y14.478
X29.464Y34.163
X29.464Y28.829
X29.464Y26.162
X29.464Y24.765
X29.845Y32.512
X30.353Y34.036
X30.734Y15.748
X30.734Y14.478
X31.369Y16.51
X33.909Y25.146
X34.036Y22.733
X34.544Y69.342
X34.544Y20.701
X34.671Y62.357
X35.052Y1.016
X35.179Y23.876
X36.322Y30.861
X36.576Y28.448
X36.703Y63.5
X36.703Y25.527
X37.211Y68.834
X37.211Y66.802
X38.862Y29.718
X39.116Y25.146
X39.116Y19.558
X39.116Y3.429
X41.021Y33.02
X41.021Y6.223
X41.148Y63.119
X41.783Y43.434
X42.545Y65.913
X42.545Y64.262
X42.545Y31.242
X42.545Y1.143
X43.053Y40.132
X43.561Y32.766
X43.688Y62.611
X43.815Y48.133
X43.942Y57.785
X43.942Y17.272
X44.323Y38.227
X44.45Y31.242
X44.704Y7.112
X44.958Y66.294
X45.466Y67.31
X45.466Y23.876
X45.593Y51.689
X45.72Y26.289
X46.482Y33.274
X46.736Y34.671
X46.99Y31.242
X47.371Y27.178
X47.498Y62.865
X47.879Y67.818
X48.641Y49.911
X49.276Y27.432
X49.911Y33.655
X50.038Y54.229
X50.292Y58.928
X50.546Y37.973
X50.673Y43.561
X50.673Y40.005
X50.673Y27.051
X50.673Y2.413
X54.102Y51.562
X54.483Y33.147
X54.61Y16.383
X54.991Y43.434
X55.372Y64.008
X57.15Y18.816
X57.658Y49.616
X57.785Y1.778
X58.166Y68.707
X58.166Y61.087
X59.944Y48.768
X60.198Y50.165
X60.325Y34.163
X60.452Y54.737
X60.751Y35.134
X60.833Y59.563
X60.96Y18.288
X61.595Y54.356
X64.135Y33.782
X64.262Y14.732
X64.389Y6.096
X67.437Y17.653
X67.564Y59.563
X67.564Y33.909
X67.818Y58.039
X68.199Y65.278
X69.469Y34.671
X70.231Y36.195
X70.866Y69.088
X71.882Y37.592
X72.644Y17.78
X74.168Y7.112
X75.311Y33.147
X75.346Y39.363
X76.835Y39.116
X77.216Y43.561
X77.343Y46.609
X77.724Y27.94
X77.851Y13.462
X78.359Y43.561
X79.502Y46.403
X79.502Y27.305
X80.137Y27.94
X80.137Y17.653
X80.391Y7.366
X80.645Y36.703
X80.899Y60.833
X81.153Y51.689
X81.269Y46.99
X81.407Y34.417
X81.661Y50.927
X82.677Y55.626
X83.566Y34.798
X83.947Y29.083
X84.328Y56.896
X84.836Y50.419
X84.836Y27.305
X86.36Y31.115
X86.487Y36.195
X87.122Y5.08
X87.376Y56.896
X87.376Y13.335
X88.138Y55.118
X88.265Y51.816
X88.773Y48.26
X88.773Y42.926
X89.408Y20.955
X89.662Y45.466
X90.043Y23.114
X90.17Y57.023
X90.424Y40.132
X90.805Y50.038
X91.186Y40.894
X91.821Y45.339
X91.821Y1.524
X92.456Y15.875
X93.091Y50.673
X93.345Y45.085
X93.472Y53.34
X93.472Y39.243
X93.472Y34.417
X93.726Y43.053
X94.234Y55.245
X94.234Y46.863
X94.234Y36.703
X94.361Y8.509
X94.742Y29.337
X95.123Y35.306
X95.885Y58.039
X95.885Y36.83
X96.266Y46.101
X96.393Y38.862
X96.393Y5.969
X96.52Y33.02
X96.52Y30.861
X96.647Y63.373
X96.774Y64.516
X96.774Y60.706
T2
X58.694Y14.371
X60.071Y45.847
X60.071Y43.688
X60.134Y40.45
X71.247Y61.468
X73.279Y49.022
X73.406Y41.783
X79.883Y64.389
X81.915Y61.341
X84.836Y47.752
T3
X9.017Y28.829
X9.017Y26.289
X9.017Y23.749
X9.017Y21.209
X16.637Y28.829
X16.637Y26.289
X16.637Y23.749
X16.637Y21.209
X25.146Y28.829
X25.146Y26.289
X25.146Y23.749
X25.146Y21.209
X32.766Y28.829
X32.766Y26.289
X32.766Y23.749
X32.766Y21.209
X74.168Y29.464
X74.168Y21.844
X76.708Y29.464
X76.708Y21.844
X79.248Y29.464
X79.248Y21.844
X81.788Y29.464
X81.788Y21.844
X91.313Y47.625
X91.313Y42.725
T4
X3.556Y26.289
X3.556Y18.669
X6.35Y26.289
X6.35Y23.749
X6.477Y43.942
X6.477Y36.322
X7.493Y53.213
X7.493Y48.133
X9.017Y18.034
X11.557Y18.034
X14.097Y18.034
X16.637Y53.213
X16.637Y48.133
X16.637Y18.034
X17.653Y43.942
X17.653Y36.322
X19.939Y26.289
X19.939Y18.669
X21.209Y43.942
X21.209Y36.322
X22.352Y26.289
X22.352Y23.749
X24.892Y17.78
X25.273Y53.34
X25.273Y48.26
X27.432Y17.78
X29.845Y17.78
X32.385Y43.942
X32.385Y36.322
X32.385Y17.78
X33.401Y53.086
X33.401Y48.006
X35.179Y26.289
X35.179Y18.669
X37.719Y23.622
X37.719Y16.002
X39.878Y45.847
X39.878Y43.307
X39.878Y37.465
X39.878Y34.925
X41.021Y30.353
X41.021Y25.273
X41.021Y22.733
X41.021Y15.113
X44.577Y45.847
X44.577Y34.925
X52.197Y45.847
X52.197Y34.925
X54.231Y21.717
X55.118Y30.607
X55.118Y25.527
X55.372Y59.055
X55.372Y53.975
X57.15Y45.847
X57.15Y43.307
X57.15Y37.465
X57.15Y34.925
X57.531Y51.816
X60.831Y25.527
X62.357Y38.862
X62.484Y46.863
X65.151Y51.816
X65.405Y58.674
X65.405Y56.134
X67.437Y38.862
X67.564Y46.863
X68.834Y21.844
X68.834Y14.224
X71.12Y21.844
X71.12Y14.224
X72.644Y35.433
X75.184Y35.433
X76.073Y62.357
X76.073Y52.197
X78.613Y62.357
X78.613Y52.197
X78.613Y33.401
X85.598Y66.421
X86.233Y33.401
X90.678Y66.421
X91.567Y35.941
X91.567Y33.401
X95.377Y48.768
X95.377Y41.148
T5
X3.81Y28.956
X6.35Y28.956
X19.812Y29.337
X22.352Y29.337
X30.988Y7.326
X30.988Y4.826
X33.488Y7.326
X33.488Y4.826
X35.988Y7.326
X35.988Y4.826
X86.614Y49.403
X86.614Y46.863
X86.614Y43.688
X86.614Y41.148
T6
X9.525Y38.862
X14.605Y38.862
X24.257Y38.862
X29.337Y38.862
X45.72Y60.579
X45.72Y55.499
X48.514Y25.146
X48.514Y20.066
X54.61Y10.287
X54.61Y5.207
T7
X3.798Y5.588
X4.398Y11.088
X8.798Y11.088
X9.398Y5.588
T8
X15.875Y10.223
X15.875Y6.223
X15.875Y3.223
X20.075Y11.723
T9
X2.794Y67.564
X2.794Y40.64
X45.72Y2.921
X94.996Y2.794
X95.123Y67.564
T0
M30
