%TF.GenerationSoftware,KiCad,Pcbnew,4.0.6+dfsg1-1*%
%TF.CreationDate,2017-11-11T18:30:39+09:00*%
%TF.ProjectId,USB_DAC1,5553425F444143312E6B696361645F70,rev?*%
%TF.FileFunction,Legend,Bot*%
%FSLAX46Y46*%
G04 Gerber Fmt 4.6, Leading zero omitted, Abs format (unit mm)*
G04 Created by KiCad (PCBNEW 4.0.6+dfsg1-1) date Sat Nov 11 18:30:39 2017*
%MOMM*%
%LPD*%
G01*
G04 APERTURE LIST*
%ADD10C,0.100000*%
%ADD11C,0.120000*%
%ADD12C,0.150000*%
G04 APERTURE END LIST*
D10*
D11*
X57655000Y61095000D02*
X57655000Y60745000D01*
X57655000Y60745000D02*
X59155000Y60745000D01*
X57655000Y65745000D02*
X57655000Y62545000D01*
X59155000Y67545000D02*
X57655000Y67545000D01*
X57655000Y67545000D02*
X57655000Y67145000D01*
X84035000Y64762000D02*
X84035000Y63762000D01*
X82335000Y63762000D02*
X82335000Y64762000D01*
X92368000Y59698000D02*
X92368000Y60698000D01*
X94068000Y60698000D02*
X94068000Y59698000D01*
X84320000Y44235000D02*
X83320000Y44235000D01*
X83320000Y45935000D02*
X84320000Y45935000D01*
X61206000Y57189000D02*
X60206000Y57189000D01*
X60206000Y58889000D02*
X61206000Y58889000D01*
X51142000Y16121000D02*
X51142000Y15121000D01*
X49442000Y15121000D02*
X49442000Y16121000D01*
X47490000Y28995000D02*
X46490000Y28995000D01*
X46490000Y30695000D02*
X47490000Y30695000D01*
X75319000Y38442000D02*
X76319000Y38442000D01*
X76319000Y36742000D02*
X75319000Y36742000D01*
X76716000Y45681000D02*
X77716000Y45681000D01*
X77716000Y43981000D02*
X76716000Y43981000D01*
X89369000Y35298000D02*
X89369000Y34298000D01*
X87669000Y34298000D02*
X87669000Y35298000D01*
X52285000Y23106000D02*
X52285000Y22106000D01*
X50585000Y22106000D02*
X50585000Y23106000D01*
X7485000Y32043000D02*
X6485000Y32043000D01*
X6485000Y33743000D02*
X7485000Y33743000D01*
X11692000Y37172000D02*
X12692000Y37172000D01*
X12692000Y35472000D02*
X11692000Y35472000D01*
X11565000Y46443000D02*
X12565000Y46443000D01*
X12565000Y44743000D02*
X11565000Y44743000D01*
X14486000Y33616000D02*
X15486000Y33616000D01*
X15486000Y31916000D02*
X14486000Y31916000D01*
X23995000Y31281000D02*
X22995000Y31281000D01*
X22995000Y32981000D02*
X23995000Y32981000D01*
X26297000Y46443000D02*
X27297000Y46443000D01*
X27297000Y44743000D02*
X26297000Y44743000D01*
X26551000Y36918000D02*
X27551000Y36918000D01*
X27551000Y35218000D02*
X26551000Y35218000D01*
X31615000Y30265000D02*
X30615000Y30265000D01*
X30615000Y31965000D02*
X31615000Y31965000D01*
X91305000Y56385000D02*
X91655000Y56385000D01*
X91655000Y56385000D02*
X91655000Y57885000D01*
X86655000Y56385000D02*
X89855000Y56385000D01*
X84855000Y57885000D02*
X84855000Y56385000D01*
X84855000Y56385000D02*
X85255000Y56385000D01*
X78732000Y24931000D02*
X77732000Y24931000D01*
X77732000Y26631000D02*
X78732000Y26631000D01*
D12*
X60116905Y60142619D02*
X60116905Y59333095D01*
X60069286Y59237857D01*
X60021667Y59190238D01*
X59926429Y59142619D01*
X59735952Y59142619D01*
X59640714Y59190238D01*
X59593095Y59237857D01*
X59545476Y59333095D01*
X59545476Y60142619D01*
X59164524Y60142619D02*
X58545476Y60142619D01*
X58878810Y59761667D01*
X58735952Y59761667D01*
X58640714Y59714048D01*
X58593095Y59666429D01*
X58545476Y59571190D01*
X58545476Y59333095D01*
X58593095Y59237857D01*
X58640714Y59190238D01*
X58735952Y59142619D01*
X59021667Y59142619D01*
X59116905Y59190238D01*
X59164524Y59237857D01*
X85292143Y64428666D02*
X85339762Y64476285D01*
X85387381Y64619142D01*
X85387381Y64714380D01*
X85339762Y64857238D01*
X85244524Y64952476D01*
X85149286Y65000095D01*
X84958810Y65047714D01*
X84815952Y65047714D01*
X84625476Y65000095D01*
X84530238Y64952476D01*
X84435000Y64857238D01*
X84387381Y64714380D01*
X84387381Y64619142D01*
X84435000Y64476285D01*
X84482619Y64428666D01*
X84720714Y63571523D02*
X85387381Y63571523D01*
X84339762Y63809619D02*
X85054048Y64047714D01*
X85054048Y63428666D01*
X91825143Y60364666D02*
X91872762Y60412285D01*
X91920381Y60555142D01*
X91920381Y60650380D01*
X91872762Y60793238D01*
X91777524Y60888476D01*
X91682286Y60936095D01*
X91491810Y60983714D01*
X91348952Y60983714D01*
X91158476Y60936095D01*
X91063238Y60888476D01*
X90968000Y60793238D01*
X90920381Y60650380D01*
X90920381Y60555142D01*
X90968000Y60412285D01*
X91015619Y60364666D01*
X90920381Y59459904D02*
X90920381Y59936095D01*
X91396571Y59983714D01*
X91348952Y59936095D01*
X91301333Y59840857D01*
X91301333Y59602761D01*
X91348952Y59507523D01*
X91396571Y59459904D01*
X91491810Y59412285D01*
X91729905Y59412285D01*
X91825143Y59459904D01*
X91872762Y59507523D01*
X91920381Y59602761D01*
X91920381Y59840857D01*
X91872762Y59936095D01*
X91825143Y59983714D01*
X83986666Y42977857D02*
X84034285Y42930238D01*
X84177142Y42882619D01*
X84272380Y42882619D01*
X84415238Y42930238D01*
X84510476Y43025476D01*
X84558095Y43120714D01*
X84605714Y43311190D01*
X84605714Y43454048D01*
X84558095Y43644524D01*
X84510476Y43739762D01*
X84415238Y43835000D01*
X84272380Y43882619D01*
X84177142Y43882619D01*
X84034285Y43835000D01*
X83986666Y43787381D01*
X83653333Y43882619D02*
X82986666Y43882619D01*
X83415238Y42882619D01*
X60872666Y55931857D02*
X60920285Y55884238D01*
X61063142Y55836619D01*
X61158380Y55836619D01*
X61301238Y55884238D01*
X61396476Y55979476D01*
X61444095Y56074714D01*
X61491714Y56265190D01*
X61491714Y56408048D01*
X61444095Y56598524D01*
X61396476Y56693762D01*
X61301238Y56789000D01*
X61158380Y56836619D01*
X61063142Y56836619D01*
X60920285Y56789000D01*
X60872666Y56741381D01*
X60396476Y55836619D02*
X60206000Y55836619D01*
X60110761Y55884238D01*
X60063142Y55931857D01*
X59967904Y56074714D01*
X59920285Y56265190D01*
X59920285Y56646143D01*
X59967904Y56741381D01*
X60015523Y56789000D01*
X60110761Y56836619D01*
X60301238Y56836619D01*
X60396476Y56789000D01*
X60444095Y56741381D01*
X60491714Y56646143D01*
X60491714Y56408048D01*
X60444095Y56312810D01*
X60396476Y56265190D01*
X60301238Y56217571D01*
X60110761Y56217571D01*
X60015523Y56265190D01*
X59967904Y56312810D01*
X59920285Y56408048D01*
X52399143Y16263857D02*
X52446762Y16311476D01*
X52494381Y16454333D01*
X52494381Y16549571D01*
X52446762Y16692429D01*
X52351524Y16787667D01*
X52256286Y16835286D01*
X52065810Y16882905D01*
X51922952Y16882905D01*
X51732476Y16835286D01*
X51637238Y16787667D01*
X51542000Y16692429D01*
X51494381Y16549571D01*
X51494381Y16454333D01*
X51542000Y16311476D01*
X51589619Y16263857D01*
X52494381Y15311476D02*
X52494381Y15882905D01*
X52494381Y15597191D02*
X51494381Y15597191D01*
X51637238Y15692429D01*
X51732476Y15787667D01*
X51780095Y15882905D01*
X51494381Y14692429D02*
X51494381Y14597190D01*
X51542000Y14501952D01*
X51589619Y14454333D01*
X51684857Y14406714D01*
X51875333Y14359095D01*
X52113429Y14359095D01*
X52303905Y14406714D01*
X52399143Y14454333D01*
X52446762Y14501952D01*
X52494381Y14597190D01*
X52494381Y14692429D01*
X52446762Y14787667D01*
X52399143Y14835286D01*
X52303905Y14882905D01*
X52113429Y14930524D01*
X51875333Y14930524D01*
X51684857Y14882905D01*
X51589619Y14835286D01*
X51542000Y14787667D01*
X51494381Y14692429D01*
X47632857Y27737857D02*
X47680476Y27690238D01*
X47823333Y27642619D01*
X47918571Y27642619D01*
X48061429Y27690238D01*
X48156667Y27785476D01*
X48204286Y27880714D01*
X48251905Y28071190D01*
X48251905Y28214048D01*
X48204286Y28404524D01*
X48156667Y28499762D01*
X48061429Y28595000D01*
X47918571Y28642619D01*
X47823333Y28642619D01*
X47680476Y28595000D01*
X47632857Y28547381D01*
X46680476Y27642619D02*
X47251905Y27642619D01*
X46966191Y27642619D02*
X46966191Y28642619D01*
X47061429Y28499762D01*
X47156667Y28404524D01*
X47251905Y28356905D01*
X45728095Y27642619D02*
X46299524Y27642619D01*
X46013810Y27642619D02*
X46013810Y28642619D01*
X46109048Y28499762D01*
X46204286Y28404524D01*
X46299524Y28356905D01*
X76461857Y38984857D02*
X76509476Y38937238D01*
X76652333Y38889619D01*
X76747571Y38889619D01*
X76890429Y38937238D01*
X76985667Y39032476D01*
X77033286Y39127714D01*
X77080905Y39318190D01*
X77080905Y39461048D01*
X77033286Y39651524D01*
X76985667Y39746762D01*
X76890429Y39842000D01*
X76747571Y39889619D01*
X76652333Y39889619D01*
X76509476Y39842000D01*
X76461857Y39794381D01*
X75509476Y38889619D02*
X76080905Y38889619D01*
X75795191Y38889619D02*
X75795191Y39889619D01*
X75890429Y39746762D01*
X75985667Y39651524D01*
X76080905Y39603905D01*
X75128524Y39794381D02*
X75080905Y39842000D01*
X74985667Y39889619D01*
X74747571Y39889619D01*
X74652333Y39842000D01*
X74604714Y39794381D01*
X74557095Y39699143D01*
X74557095Y39603905D01*
X74604714Y39461048D01*
X75176143Y38889619D01*
X74557095Y38889619D01*
X77858857Y46223857D02*
X77906476Y46176238D01*
X78049333Y46128619D01*
X78144571Y46128619D01*
X78287429Y46176238D01*
X78382667Y46271476D01*
X78430286Y46366714D01*
X78477905Y46557190D01*
X78477905Y46700048D01*
X78430286Y46890524D01*
X78382667Y46985762D01*
X78287429Y47081000D01*
X78144571Y47128619D01*
X78049333Y47128619D01*
X77906476Y47081000D01*
X77858857Y47033381D01*
X76906476Y46128619D02*
X77477905Y46128619D01*
X77192191Y46128619D02*
X77192191Y47128619D01*
X77287429Y46985762D01*
X77382667Y46890524D01*
X77477905Y46842905D01*
X76049333Y46795286D02*
X76049333Y46128619D01*
X76287429Y47176238D02*
X76525524Y46461952D01*
X75906476Y46461952D01*
X90626143Y35440857D02*
X90673762Y35488476D01*
X90721381Y35631333D01*
X90721381Y35726571D01*
X90673762Y35869429D01*
X90578524Y35964667D01*
X90483286Y36012286D01*
X90292810Y36059905D01*
X90149952Y36059905D01*
X89959476Y36012286D01*
X89864238Y35964667D01*
X89769000Y35869429D01*
X89721381Y35726571D01*
X89721381Y35631333D01*
X89769000Y35488476D01*
X89816619Y35440857D01*
X90721381Y34488476D02*
X90721381Y35059905D01*
X90721381Y34774191D02*
X89721381Y34774191D01*
X89864238Y34869429D01*
X89959476Y34964667D01*
X90007095Y35059905D01*
X89721381Y33583714D02*
X89721381Y34059905D01*
X90197571Y34107524D01*
X90149952Y34059905D01*
X90102333Y33964667D01*
X90102333Y33726571D01*
X90149952Y33631333D01*
X90197571Y33583714D01*
X90292810Y33536095D01*
X90530905Y33536095D01*
X90626143Y33583714D01*
X90673762Y33631333D01*
X90721381Y33726571D01*
X90721381Y33964667D01*
X90673762Y34059905D01*
X90626143Y34107524D01*
X53542143Y23248857D02*
X53589762Y23296476D01*
X53637381Y23439333D01*
X53637381Y23534571D01*
X53589762Y23677429D01*
X53494524Y23772667D01*
X53399286Y23820286D01*
X53208810Y23867905D01*
X53065952Y23867905D01*
X52875476Y23820286D01*
X52780238Y23772667D01*
X52685000Y23677429D01*
X52637381Y23534571D01*
X52637381Y23439333D01*
X52685000Y23296476D01*
X52732619Y23248857D01*
X53637381Y22296476D02*
X53637381Y22867905D01*
X53637381Y22582191D02*
X52637381Y22582191D01*
X52780238Y22677429D01*
X52875476Y22772667D01*
X52923095Y22867905D01*
X52637381Y21439333D02*
X52637381Y21629810D01*
X52685000Y21725048D01*
X52732619Y21772667D01*
X52875476Y21867905D01*
X53065952Y21915524D01*
X53446905Y21915524D01*
X53542143Y21867905D01*
X53589762Y21820286D01*
X53637381Y21725048D01*
X53637381Y21534571D01*
X53589762Y21439333D01*
X53542143Y21391714D01*
X53446905Y21344095D01*
X53208810Y21344095D01*
X53113571Y21391714D01*
X53065952Y21439333D01*
X53018333Y21534571D01*
X53018333Y21725048D01*
X53065952Y21820286D01*
X53113571Y21867905D01*
X53208810Y21915524D01*
X7627857Y30785857D02*
X7675476Y30738238D01*
X7818333Y30690619D01*
X7913571Y30690619D01*
X8056429Y30738238D01*
X8151667Y30833476D01*
X8199286Y30928714D01*
X8246905Y31119190D01*
X8246905Y31262048D01*
X8199286Y31452524D01*
X8151667Y31547762D01*
X8056429Y31643000D01*
X7913571Y31690619D01*
X7818333Y31690619D01*
X7675476Y31643000D01*
X7627857Y31595381D01*
X7246905Y31595381D02*
X7199286Y31643000D01*
X7104048Y31690619D01*
X6865952Y31690619D01*
X6770714Y31643000D01*
X6723095Y31595381D01*
X6675476Y31500143D01*
X6675476Y31404905D01*
X6723095Y31262048D01*
X7294524Y30690619D01*
X6675476Y30690619D01*
X5770714Y31690619D02*
X6246905Y31690619D01*
X6294524Y31214429D01*
X6246905Y31262048D01*
X6151667Y31309667D01*
X5913571Y31309667D01*
X5818333Y31262048D01*
X5770714Y31214429D01*
X5723095Y31119190D01*
X5723095Y30881095D01*
X5770714Y30785857D01*
X5818333Y30738238D01*
X5913571Y30690619D01*
X6151667Y30690619D01*
X6246905Y30738238D01*
X6294524Y30785857D01*
X12834857Y37714857D02*
X12882476Y37667238D01*
X13025333Y37619619D01*
X13120571Y37619619D01*
X13263429Y37667238D01*
X13358667Y37762476D01*
X13406286Y37857714D01*
X13453905Y38048190D01*
X13453905Y38191048D01*
X13406286Y38381524D01*
X13358667Y38476762D01*
X13263429Y38572000D01*
X13120571Y38619619D01*
X13025333Y38619619D01*
X12882476Y38572000D01*
X12834857Y38524381D01*
X12453905Y38524381D02*
X12406286Y38572000D01*
X12311048Y38619619D01*
X12072952Y38619619D01*
X11977714Y38572000D01*
X11930095Y38524381D01*
X11882476Y38429143D01*
X11882476Y38333905D01*
X11930095Y38191048D01*
X12501524Y37619619D01*
X11882476Y37619619D01*
X11025333Y38619619D02*
X11215810Y38619619D01*
X11311048Y38572000D01*
X11358667Y38524381D01*
X11453905Y38381524D01*
X11501524Y38191048D01*
X11501524Y37810095D01*
X11453905Y37714857D01*
X11406286Y37667238D01*
X11311048Y37619619D01*
X11120571Y37619619D01*
X11025333Y37667238D01*
X10977714Y37714857D01*
X10930095Y37810095D01*
X10930095Y38048190D01*
X10977714Y38143429D01*
X11025333Y38191048D01*
X11120571Y38238667D01*
X11311048Y38238667D01*
X11406286Y38191048D01*
X11453905Y38143429D01*
X11501524Y38048190D01*
X12707857Y46985857D02*
X12755476Y46938238D01*
X12898333Y46890619D01*
X12993571Y46890619D01*
X13136429Y46938238D01*
X13231667Y47033476D01*
X13279286Y47128714D01*
X13326905Y47319190D01*
X13326905Y47462048D01*
X13279286Y47652524D01*
X13231667Y47747762D01*
X13136429Y47843000D01*
X12993571Y47890619D01*
X12898333Y47890619D01*
X12755476Y47843000D01*
X12707857Y47795381D01*
X12326905Y47795381D02*
X12279286Y47843000D01*
X12184048Y47890619D01*
X11945952Y47890619D01*
X11850714Y47843000D01*
X11803095Y47795381D01*
X11755476Y47700143D01*
X11755476Y47604905D01*
X11803095Y47462048D01*
X12374524Y46890619D01*
X11755476Y46890619D01*
X11184048Y47462048D02*
X11279286Y47509667D01*
X11326905Y47557286D01*
X11374524Y47652524D01*
X11374524Y47700143D01*
X11326905Y47795381D01*
X11279286Y47843000D01*
X11184048Y47890619D01*
X10993571Y47890619D01*
X10898333Y47843000D01*
X10850714Y47795381D01*
X10803095Y47700143D01*
X10803095Y47652524D01*
X10850714Y47557286D01*
X10898333Y47509667D01*
X10993571Y47462048D01*
X11184048Y47462048D01*
X11279286Y47414429D01*
X11326905Y47366810D01*
X11374524Y47271571D01*
X11374524Y47081095D01*
X11326905Y46985857D01*
X11279286Y46938238D01*
X11184048Y46890619D01*
X10993571Y46890619D01*
X10898333Y46938238D01*
X10850714Y46985857D01*
X10803095Y47081095D01*
X10803095Y47271571D01*
X10850714Y47366810D01*
X10898333Y47414429D01*
X10993571Y47462048D01*
X15628857Y34158857D02*
X15676476Y34111238D01*
X15819333Y34063619D01*
X15914571Y34063619D01*
X16057429Y34111238D01*
X16152667Y34206476D01*
X16200286Y34301714D01*
X16247905Y34492190D01*
X16247905Y34635048D01*
X16200286Y34825524D01*
X16152667Y34920762D01*
X16057429Y35016000D01*
X15914571Y35063619D01*
X15819333Y35063619D01*
X15676476Y35016000D01*
X15628857Y34968381D01*
X15247905Y34968381D02*
X15200286Y35016000D01*
X15105048Y35063619D01*
X14866952Y35063619D01*
X14771714Y35016000D01*
X14724095Y34968381D01*
X14676476Y34873143D01*
X14676476Y34777905D01*
X14724095Y34635048D01*
X15295524Y34063619D01*
X14676476Y34063619D01*
X14200286Y34063619D02*
X14009810Y34063619D01*
X13914571Y34111238D01*
X13866952Y34158857D01*
X13771714Y34301714D01*
X13724095Y34492190D01*
X13724095Y34873143D01*
X13771714Y34968381D01*
X13819333Y35016000D01*
X13914571Y35063619D01*
X14105048Y35063619D01*
X14200286Y35016000D01*
X14247905Y34968381D01*
X14295524Y34873143D01*
X14295524Y34635048D01*
X14247905Y34539810D01*
X14200286Y34492190D01*
X14105048Y34444571D01*
X13914571Y34444571D01*
X13819333Y34492190D01*
X13771714Y34539810D01*
X13724095Y34635048D01*
X24137857Y30023857D02*
X24185476Y29976238D01*
X24328333Y29928619D01*
X24423571Y29928619D01*
X24566429Y29976238D01*
X24661667Y30071476D01*
X24709286Y30166714D01*
X24756905Y30357190D01*
X24756905Y30500048D01*
X24709286Y30690524D01*
X24661667Y30785762D01*
X24566429Y30881000D01*
X24423571Y30928619D01*
X24328333Y30928619D01*
X24185476Y30881000D01*
X24137857Y30833381D01*
X23804524Y30928619D02*
X23185476Y30928619D01*
X23518810Y30547667D01*
X23375952Y30547667D01*
X23280714Y30500048D01*
X23233095Y30452429D01*
X23185476Y30357190D01*
X23185476Y30119095D01*
X23233095Y30023857D01*
X23280714Y29976238D01*
X23375952Y29928619D01*
X23661667Y29928619D01*
X23756905Y29976238D01*
X23804524Y30023857D01*
X22233095Y29928619D02*
X22804524Y29928619D01*
X22518810Y29928619D02*
X22518810Y30928619D01*
X22614048Y30785762D01*
X22709286Y30690524D01*
X22804524Y30642905D01*
X27439857Y46985857D02*
X27487476Y46938238D01*
X27630333Y46890619D01*
X27725571Y46890619D01*
X27868429Y46938238D01*
X27963667Y47033476D01*
X28011286Y47128714D01*
X28058905Y47319190D01*
X28058905Y47462048D01*
X28011286Y47652524D01*
X27963667Y47747762D01*
X27868429Y47843000D01*
X27725571Y47890619D01*
X27630333Y47890619D01*
X27487476Y47843000D01*
X27439857Y47795381D01*
X27106524Y47890619D02*
X26487476Y47890619D01*
X26820810Y47509667D01*
X26677952Y47509667D01*
X26582714Y47462048D01*
X26535095Y47414429D01*
X26487476Y47319190D01*
X26487476Y47081095D01*
X26535095Y46985857D01*
X26582714Y46938238D01*
X26677952Y46890619D01*
X26963667Y46890619D01*
X27058905Y46938238D01*
X27106524Y46985857D01*
X26106524Y47795381D02*
X26058905Y47843000D01*
X25963667Y47890619D01*
X25725571Y47890619D01*
X25630333Y47843000D01*
X25582714Y47795381D01*
X25535095Y47700143D01*
X25535095Y47604905D01*
X25582714Y47462048D01*
X26154143Y46890619D01*
X25535095Y46890619D01*
X27693857Y37460857D02*
X27741476Y37413238D01*
X27884333Y37365619D01*
X27979571Y37365619D01*
X28122429Y37413238D01*
X28217667Y37508476D01*
X28265286Y37603714D01*
X28312905Y37794190D01*
X28312905Y37937048D01*
X28265286Y38127524D01*
X28217667Y38222762D01*
X28122429Y38318000D01*
X27979571Y38365619D01*
X27884333Y38365619D01*
X27741476Y38318000D01*
X27693857Y38270381D01*
X27360524Y38365619D02*
X26741476Y38365619D01*
X27074810Y37984667D01*
X26931952Y37984667D01*
X26836714Y37937048D01*
X26789095Y37889429D01*
X26741476Y37794190D01*
X26741476Y37556095D01*
X26789095Y37460857D01*
X26836714Y37413238D01*
X26931952Y37365619D01*
X27217667Y37365619D01*
X27312905Y37413238D01*
X27360524Y37460857D01*
X26408143Y38365619D02*
X25789095Y38365619D01*
X26122429Y37984667D01*
X25979571Y37984667D01*
X25884333Y37937048D01*
X25836714Y37889429D01*
X25789095Y37794190D01*
X25789095Y37556095D01*
X25836714Y37460857D01*
X25884333Y37413238D01*
X25979571Y37365619D01*
X26265286Y37365619D01*
X26360524Y37413238D01*
X26408143Y37460857D01*
X31757857Y29007857D02*
X31805476Y28960238D01*
X31948333Y28912619D01*
X32043571Y28912619D01*
X32186429Y28960238D01*
X32281667Y29055476D01*
X32329286Y29150714D01*
X32376905Y29341190D01*
X32376905Y29484048D01*
X32329286Y29674524D01*
X32281667Y29769762D01*
X32186429Y29865000D01*
X32043571Y29912619D01*
X31948333Y29912619D01*
X31805476Y29865000D01*
X31757857Y29817381D01*
X31424524Y29912619D02*
X30805476Y29912619D01*
X31138810Y29531667D01*
X30995952Y29531667D01*
X30900714Y29484048D01*
X30853095Y29436429D01*
X30805476Y29341190D01*
X30805476Y29103095D01*
X30853095Y29007857D01*
X30900714Y28960238D01*
X30995952Y28912619D01*
X31281667Y28912619D01*
X31376905Y28960238D01*
X31424524Y29007857D01*
X29900714Y29912619D02*
X30376905Y29912619D01*
X30424524Y29436429D01*
X30376905Y29484048D01*
X30281667Y29531667D01*
X30043571Y29531667D01*
X29948333Y29484048D01*
X29900714Y29436429D01*
X29853095Y29341190D01*
X29853095Y29103095D01*
X29900714Y29007857D01*
X29948333Y28960238D01*
X30043571Y28912619D01*
X30281667Y28912619D01*
X30376905Y28960238D01*
X30424524Y29007857D01*
X92257381Y58846905D02*
X93066905Y58846905D01*
X93162143Y58799286D01*
X93209762Y58751667D01*
X93257381Y58656429D01*
X93257381Y58465952D01*
X93209762Y58370714D01*
X93162143Y58323095D01*
X93066905Y58275476D01*
X92257381Y58275476D01*
X92352619Y57846905D02*
X92305000Y57799286D01*
X92257381Y57704048D01*
X92257381Y57465952D01*
X92305000Y57370714D01*
X92352619Y57323095D01*
X92447857Y57275476D01*
X92543095Y57275476D01*
X92685952Y57323095D01*
X93257381Y57894524D01*
X93257381Y57275476D01*
X78874857Y23673857D02*
X78922476Y23626238D01*
X79065333Y23578619D01*
X79160571Y23578619D01*
X79303429Y23626238D01*
X79398667Y23721476D01*
X79446286Y23816714D01*
X79493905Y24007190D01*
X79493905Y24150048D01*
X79446286Y24340524D01*
X79398667Y24435762D01*
X79303429Y24531000D01*
X79160571Y24578619D01*
X79065333Y24578619D01*
X78922476Y24531000D01*
X78874857Y24483381D01*
X78541524Y24578619D02*
X77922476Y24578619D01*
X78255810Y24197667D01*
X78112952Y24197667D01*
X78017714Y24150048D01*
X77970095Y24102429D01*
X77922476Y24007190D01*
X77922476Y23769095D01*
X77970095Y23673857D01*
X78017714Y23626238D01*
X78112952Y23578619D01*
X78398667Y23578619D01*
X78493905Y23626238D01*
X78541524Y23673857D01*
X77589143Y24578619D02*
X76922476Y24578619D01*
X77351048Y23578619D01*
M02*
