%TF.GenerationSoftware,KiCad,Pcbnew,4.0.6+dfsg1-1*%
%TF.CreationDate,2017-11-11T18:30:39+09:00*%
%TF.ProjectId,USB_DAC1,5553425F444143312E6B696361645F70,rev?*%
%TF.FileFunction,Soldermask,Bot*%
%FSLAX46Y46*%
G04 Gerber Fmt 4.6, Leading zero omitted, Abs format (unit mm)*
G04 Created by KiCad (PCBNEW 4.0.6+dfsg1-1) date Sat Nov 11 18:30:39 2017*
%MOMM*%
%LPD*%
G01*
G04 APERTURE LIST*
%ADD10C,0.100000*%
%ADD11R,2.178000X2.178000*%
%ADD12C,2.178000*%
%ADD13R,3.900000X2.400000*%
%ADD14R,7.400000X7.400000*%
%ADD15C,2.400000*%
%ADD16C,4.900880*%
%ADD17R,2.100000X2.100000*%
%ADD18O,2.100000X2.100000*%
%ADD19R,2.051000X2.051000*%
%ADD20C,2.051000*%
%ADD21R,1.650000X1.900000*%
%ADD22R,1.900000X1.650000*%
%ADD23C,2.600000*%
%ADD24R,2.305000X2.305000*%
%ADD25C,2.305000*%
%ADD26C,1.797000*%
%ADD27C,2.200000*%
%ADD28R,2.000000X2.000000*%
%ADD29O,2.000000X2.000000*%
%ADD30C,1.900000*%
%ADD31R,2.400000X3.900000*%
%ADD32C,1.924000*%
G04 APERTURE END LIST*
D10*
D11*
X54610000Y5207000D03*
D12*
X54610000Y10287000D03*
D13*
X55355000Y61845000D03*
X55355000Y66425000D03*
D14*
X62755000Y64145000D03*
D15*
X3798000Y5588000D03*
X4398000Y11088000D03*
X8798000Y11088000D03*
X9398000Y5588000D03*
D16*
X2794000Y40640000D03*
X45720000Y2921000D03*
X94996000Y2794000D03*
X2794000Y67564000D03*
D17*
X86614000Y49403000D03*
D18*
X86614000Y46863000D03*
D17*
X86614000Y41148000D03*
D18*
X86614000Y43688000D03*
D19*
X65405000Y56134000D03*
D20*
X65405000Y58674000D03*
D21*
X83185000Y63012000D03*
X83185000Y65512000D03*
X93218000Y61448000D03*
X93218000Y58948000D03*
D11*
X45720000Y60579000D03*
D12*
X45720000Y55499000D03*
D22*
X82570000Y45085000D03*
X85070000Y45085000D03*
X59456000Y58039000D03*
X61956000Y58039000D03*
D21*
X50292000Y14371000D03*
X50292000Y16871000D03*
D22*
X45740000Y29845000D03*
X48240000Y29845000D03*
X77069000Y37592000D03*
X74569000Y37592000D03*
D19*
X91567000Y33401000D03*
D20*
X91567000Y35941000D03*
D22*
X78466000Y44831000D03*
X75966000Y44831000D03*
D21*
X88519000Y33548000D03*
X88519000Y36048000D03*
X51435000Y21356000D03*
X51435000Y23856000D03*
D11*
X48514000Y20066000D03*
D12*
X48514000Y25146000D03*
D19*
X75184000Y35433000D03*
D20*
X72644000Y35433000D03*
D19*
X57150000Y34925000D03*
D20*
X57150000Y37465000D03*
D19*
X39878000Y34925000D03*
D20*
X39878000Y37465000D03*
D19*
X57150000Y45847000D03*
D20*
X57150000Y43307000D03*
D19*
X39878000Y45847000D03*
D20*
X39878000Y43307000D03*
D22*
X5735000Y32893000D03*
X8235000Y32893000D03*
X13442000Y36322000D03*
X10942000Y36322000D03*
D11*
X9525000Y38862000D03*
D12*
X14605000Y38862000D03*
D22*
X13315000Y45593000D03*
X10815000Y45593000D03*
X16236000Y32766000D03*
X13736000Y32766000D03*
D17*
X3810000Y28956000D03*
D18*
X6350000Y28956000D03*
D22*
X22245000Y32131000D03*
X24745000Y32131000D03*
X28047000Y45593000D03*
X25547000Y45593000D03*
X28301000Y36068000D03*
X25801000Y36068000D03*
D11*
X24257000Y38862000D03*
D12*
X29337000Y38862000D03*
D22*
X29865000Y31115000D03*
X32365000Y31115000D03*
D17*
X19812000Y29337000D03*
D18*
X22352000Y29337000D03*
D23*
X20075000Y11723000D03*
X15875000Y10223000D03*
X15875000Y6223000D03*
X15875000Y3223000D03*
D24*
X85598000Y66421000D03*
D25*
X90678000Y66421000D03*
D24*
X55372000Y59055000D03*
D25*
X55372000Y53975000D03*
D24*
X41021000Y25273000D03*
D25*
X41021000Y30353000D03*
D24*
X55118000Y25527000D03*
D25*
X55118000Y30607000D03*
D24*
X62484000Y46863000D03*
D25*
X67564000Y46863000D03*
D24*
X67437000Y38862000D03*
D25*
X62357000Y38862000D03*
D24*
X7493000Y53213000D03*
D25*
X7493000Y48133000D03*
D24*
X16637000Y53213000D03*
D25*
X16637000Y48133000D03*
D24*
X25273000Y53340000D03*
D25*
X25273000Y48260000D03*
D24*
X33401000Y53086000D03*
D25*
X33401000Y48006000D03*
D26*
X95377000Y41148000D03*
X95377000Y48768000D03*
X57531000Y51816000D03*
X65151000Y51816000D03*
X41021000Y22733000D03*
X41021000Y15113000D03*
X86233000Y33401000D03*
X78613000Y33401000D03*
X71120000Y14224000D03*
X71120000Y21844000D03*
X60830557Y25527000D03*
X54231443Y21717000D03*
X52197000Y45847000D03*
X44577000Y45847000D03*
X44577000Y34925000D03*
X52197000Y34925000D03*
X68834000Y21844000D03*
X68834000Y14224000D03*
X6477000Y43942000D03*
X6477000Y36322000D03*
X17653000Y43942000D03*
X17653000Y36322000D03*
X3556000Y26289000D03*
X3556000Y18669000D03*
X21209000Y43942000D03*
X21209000Y36322000D03*
X32385000Y43942000D03*
X32385000Y36322000D03*
X19939000Y26289000D03*
X19939000Y18669000D03*
X37719000Y23622000D03*
X37719000Y16002000D03*
X35179000Y18669000D03*
X35179000Y26289000D03*
D27*
X35988000Y4826000D03*
X33488000Y4826000D03*
X30988000Y4826000D03*
X35988000Y7326000D03*
X33488000Y7326000D03*
X30988000Y7326000D03*
D28*
X74168000Y21844000D03*
D29*
X81788000Y29464000D03*
X76708000Y21844000D03*
X79248000Y29464000D03*
X79248000Y21844000D03*
X76708000Y29464000D03*
X81788000Y21844000D03*
X74168000Y29464000D03*
D28*
X16637000Y21209000D03*
D29*
X9017000Y28829000D03*
X16637000Y23749000D03*
X9017000Y26289000D03*
X16637000Y26289000D03*
X9017000Y23749000D03*
X16637000Y28829000D03*
X9017000Y21209000D03*
D28*
X32766000Y21209000D03*
D29*
X25146000Y28829000D03*
X32766000Y23749000D03*
X25146000Y26289000D03*
X32766000Y26289000D03*
X25146000Y23749000D03*
X32766000Y28829000D03*
X25146000Y21209000D03*
D30*
X91313000Y47625000D03*
X91313000Y42725000D03*
D31*
X90555000Y54085000D03*
X85975000Y54085000D03*
D14*
X88255000Y61485000D03*
D22*
X76982000Y25781000D03*
X79482000Y25781000D03*
D26*
X32385000Y17780000D03*
X29845000Y17780000D03*
X22352000Y23749000D03*
X22352000Y26289000D03*
X27432000Y17780000D03*
X24892000Y17780000D03*
X6350000Y23749000D03*
X6350000Y26289000D03*
X16637000Y18034000D03*
X14097000Y18034000D03*
X11557000Y18034000D03*
X9017000Y18034000D03*
D16*
X95123000Y67564000D03*
D32*
X76073000Y52197000D03*
X76073000Y62357000D03*
X78613000Y52197000D03*
X78613000Y62357000D03*
M02*
